/* XPM */
static char *rcp08330399127948[] = {
/* columns rows colors chars-per-pixel */
"32 32 252 2 ",
"   c #824B2D",
".  c #834C2E",
"X  c #834D2E",
"o  c #844D2F",
"O  c #854E2F",
"+  c #874E30",
"@  c #864F30",
"#  c #884F30",
"$  c #8C5232",
"%  c #8D5333",
"&  c #8E5433",
"*  c #8F5534",
"=  c #915534",
"-  c #915735",
";  c #975B37",
":  c #9C5F3B",
">  c #9F613C",
",  c #A2613F",
"<  c #B7653E",
"1  c #B7673F",
"2  c #A76441",
"3  c #A96643",
"4  c #AB6944",
"5  c #AB6845",
"6  c #AB6846",
"7  c #AB6946",
"8  c #AC6A46",
"9  c #AD6B47",
"0  c #AD6D48",
"q  c #AE6C48",
"w  c #AF6D49",
"e  c #AE6E49",
"r  c #B86840",
"t  c #B96A41",
"y  c #BA6A41",
"u  c #BA6B41",
"i  c #BB6B41",
"p  c #BB6B42",
"a  c #BA6C42",
"s  c #BB6C42",
"d  c #BA6D42",
"f  c #BB6E43",
"g  c #BC6D42",
"h  c #BC6D43",
"j  c #BC6E43",
"k  c #BE6B44",
"l  c #BD6E44",
"z  c #B06E49",
"x  c #AF704A",
"c  c #B97145",
"v  c #BB7045",
"b  c #BB7246",
"n  c #BC7044",
"m  c #BD7044",
"M  c #BD7145",
"N  c #BE7144",
"B  c #BE7145",
"V  c #BF7145",
"C  c #BF7245",
"Z  c #BC7146",
"A  c #BF7246",
"S  c #BE7346",
"D  c #BF7346",
"F  c #BB7447",
"G  c #BB7547",
"H  c #BF7446",
"J  c #BE7547",
"K  c #B1704A",
"L  c #B0714A",
"P  c #B0714B",
"I  c #B1724C",
"U  c #B1734C",
"Y  c #B2734C",
"T  c #B3744D",
"R  c #B3754D",
"E  c #B4754D",
"W  c #B4764E",
"Q  c #B4774E",
"!  c #B5774F",
"~  c #B6764E",
"^  c #B7774F",
"/  c #BD7448",
"(  c #BE7549",
")  c #BD7749",
"_  c #BF7748",
"`  c #BE7649",
"'  c #BF774A",
"]  c #B5784F",
"[  c #BE784A",
"{  c #BF784A",
"}  c #BF794A",
"|  c #B67850",
" . c #B67950",
".. c #B77950",
"X. c #B77A51",
"o. c #B87B51",
"O. c #B87B52",
"+. c #B87C52",
"@. c #B97C52",
"#. c #B97D53",
"$. c #BB7D52",
"%. c #BA7D53",
"&. c #BA7E53",
"*. c #BA7E54",
"=. c #BB7F54",
"-. c #C06C45",
";. c #C16E46",
":. c #C27047",
">. c #C07346",
",. c #C07447",
"<. c #C17447",
"1. c #C07547",
"2. c #C17547",
"3. c #C27149",
"4. c #C37248",
"5. c #C3734A",
"6. c #C07548",
"7. c #C17648",
"8. c #C27648",
"9. c #C27749",
"0. c #C3754B",
"q. c #C4764A",
"w. c #C4764C",
"e. c #C5774C",
"r. c #C4774D",
"t. c #C07849",
"y. c #C07949",
"u. c #C27849",
"i. c #C0794B",
"p. c #C2784A",
"a. c #C3784A",
"s. c #C3794A",
"d. c #C17A4A",
"f. c #C07A4B",
"g. c #C17A4B",
"h. c #C07B4B",
"j. c #C27A4A",
"k. c #C27A4B",
"l. c #C27B4B",
"z. c #C37B4B",
"x. c #C5784B",
"c. c #C47A4B",
"v. c #C27C4B",
"b. c #C17A4C",
"n. c #C17B4C",
"m. c #C4784D",
"M. c #C5784D",
"N. c #C6794D",
"B. c #C5794E",
"V. c #C6794E",
"C. c #C67A4E",
"Z. c #C77B4E",
"A. c #C67A4F",
"S. c #C67B4F",
"D. c #C37C4C",
"F. c #C37D4C",
"G. c #C27C4D",
"H. c #C37D4D",
"J. c #C37E4E",
"K. c #C27F4E",
"L. c #C47C4C",
"P. c #C47D4C",
"I. c #C47D4D",
"U. c #C57D4D",
"Y. c #C47E4D",
"T. c #C57E4D",
"R. c #C57F4E",
"E. c #C67E4E",
"W. c #C67F4E",
"Q. c #C87C4F",
"!. c #C77C50",
"~. c #C47F50",
"^. c #C87D51",
"/. c #C87E51",
"(. c #C97E51",
"). c #C97F51",
"_. c #C97F52",
"`. c #CA7F52",
"'. c #BB8055",
"]. c #BC8055",
"[. c #BC8155",
"{. c #BD8156",
"}. c #C3814F",
"|. c #C5804E",
" X c #C6804E",
".X c #C6804F",
"XX c #C7804F",
"oX c #C6814F",
"OX c #C7814F",
"+X c #C5824F",
"@X c #C58051",
"#X c #C48151",
"$X c #C78250",
"%X c #C68350",
"&X c #C68450",
"*X c #C78451",
"=X c #C78551",
"-X c #CA8051",
";X c #C88250",
":X c #C88350",
">X c #C88052",
",X c #C98153",
"<X c #CA8052",
"1X c #CB8052",
"2X c #CB8152",
"3X c #CA8053",
"4X c #CB8153",
"5X c #CA8253",
"6X c #CC8253",
"7X c #C98451",
"8X c #C88553",
"9X c #CA8553",
"0X c #C98652",
"qX c #CA8254",
"wX c #CA8354",
"eX c #CB8354",
"rX c #CB8355",
"tX c #CB8454",
"yX c #CB8455",
"uX c #C98654",
"iX c #CB8456",
"pX c #CC8455",
"aX c #CC8555",
"sX c #CC8556",
"dX c #CD8656",
"fX c #CC8657",
"gX c #CD8657",
"hX c #CD8757",
"jX c #C0875A",
"kX c #CD8758",
"lX c #C48C5D",
"zX c #CD8858",
"xX c #CE8858",
"cX c #CE8959",
"vX c #CD8A59",
"bX c #CF8A5A",
"nX c #CE8B5A",
"mX c #CF8A5B",
"MX c #CE8B5B",
"NX c #CF8D5D",
"BX c #CF8E5D",
"VX c #D08B5B",
"CX c #D08E5D",
"ZX c #D08F5E",
"AX c #D18F5E",
"SX c #D0905E",
"DX c #D1905F",
"FX c #D1915F",
"GX c #B99F92",
"HX c #BEA295",
"JX c #B8A79E",
"KX c #C0AB9F",
/* pixels */
". . . o o o .   . + # + # % ; > : - & * * - - - * * * & & & % % ",
"@.@.@.W W W W W W W W W W W W W W W W W W W W W W W W W W @.{.{.",
"@.JXjX@.@.@.@.@.@.@.@.@.@.{.{.{.{.{.{.{.{.{.{.{.{.{.{.@.@.jXHX@.",
"@.{.x.x.x j c 7.D U Z.4X4XZ.P D 7.i.1.W Q.yXhX4XW 7.L.i.D 9 {.@.",
"W @.q.W 7.) i.7.X.4XkXzX4XX.i.L.L.x.O.eXzXzXhX=.L.%X|.i.U r.@.W ",
"W @.0 J F { 7.] ^.hXzXeX@.L.|.|.i.O.eXzXzXhX=.L.%X}.D.@.4X^.@.W ",
"W @.y F F 1.W ^.hXhX6X@.L.%X%XL.@.eXzXzXhX'.L.}.%XL.=.eXkX^.@.W ",
"W @.l J D R ^.yXhX4X@.L.%X*X|.=.yXzXzXhX=.L.%X%XL.=.hXzXzXZ.@.W ",
"W {.f f U Z.eXhX4XO.L.%X*X|.'.hXzXzXhX=.L.%X7XL.=.hXzXzX4X0 @.W ",
"W {.y P r.4XeX^.O.L.%X%X|.{.hXzXFXhX=.L.%X7XL.X.hXzXzX4XO.:.@.W ",
"W {.5 Z.^.hX~.X.i.%X7XL.=.hXzXzXhX=.D.%X7XL.X.hXzXzX4XO.i.) @.W ",
"W {.:.^.4X~.] x.|.|.L.=.hXzXFXhX@.D.%X7XL.'.hXzXzX4XO.i.b.7.@.W ",
"W {.r.4X~.W i.L.|.L.=.hXzXzXzX@.D.%X7XL.X.hXzXzXeX@.i.L.b.D @.W ",
"W {.r.Z.W 7.L.|.L.@.yXzXZXeX@.b.%X7X|.X.hXzXFXyX@.i.D.D.) 2 @.W ",
"W {.;.U 7.D.L.i.@.eXzXzX4X@.D.%X7X|.{.hXFXzXyX@.b.%XD.) X.r.@.W ",
"W {.5 D i.D.i.O.6XzXkX4XO.x.~.%XL.{.hXzXFXeX@.D.*X7XL.@.4XeX@.W ",
"W {.y ) i.i.X.4XNXNX4XX.i.L.|.L.=.hXzXzXeX@.D.*XyX|.{.yXNXyX@.W ",
"W {.D i.7.W ^.hXhX4XO.i.L.L.i.W hXFXZXeXW D.*XyX|.{.hXFXZX4X@.W ",
"W {.D D U Z.eXZX^.O.L.4XD.i.W 6XzXzXeXW L.%X7X|.{.hXFXZX6XW @.W ",
"W {.y U Z.^.^.~.X.L.7X*Xv.W 4XzXZX6X@.L.%X%X|.'.hXzXzX4X@.7.@.W ",
"W @.9 Z.^.^.Z.R i.4X%XD.W 4XhXhX4X@.L.%X*XL.=.hXzXzX4XX.x.L.@.W ",
"W @.5.^.^.r.U D D.D.D.W 4XhXhX4XO.L.%X*X|.=.yXzXzX4XX.i.L.x.@.W ",
"W @.7.~.7.z D i.D.i.R 4XhXhX^.X.i.|.|.L.=.yXzXzX4XX.7.L.L.D @.W ",
"W @.5.5.0 f c ) 7.P ^.hXVX^.X.i.L.L.L.@.eXzXNX4XO.i.L.L.7.x @.W ",
"W @.k 0 y c c D 0 Z.eXyX^.] 7.L.D.i.X.4XhXkX4XX.x.L.L.7.R q.@.W ",
"W @.3 y D D j 5 Z.4XeX~.W 7.i.L.7.] ^.hXhX^.X.i.|.|.i.W ~.~.@.W ",
"W @.1 1.1.j 5 r.^.^.Z.R 7.i.i.7.] ^.yXzX^.W 7.L.|.x.X.^.eX~.@.W ",
"W @.f 1.D P r.^.^.Z.R 7.i.L.7.] ^.yXeX^.W 7.{ i.i.O.4XhXyXq.@.W ",
"W @.y j P Z.^.^.Z.R 7.L.i.i.X.4XhXeX^.W 7.L.{ 7.X.4XzXzX4XP @.W ",
"W @.1 3 r.^.4XZ.U 1.L.{ 7.X.4XhXyX~.W 7.i.i.J ] 4XzXzXeXO.D @.W ",
"@.{., ;.7.r.5.9 y D D j 0 q.^.^.q.0 j 1.c f x x.4XeX^.W 1.D {.@.",
"lXKX{.@.@.{.{.{.{.{.{.{.jX{.@.@.@.{.{.@.{.{.@.@.{.{.@.@.@.{.GX@."
};
