/* XPM */
static char *rcp08330514711407[] = {
/* columns rows colors chars-per-pixel */
"32 32 50 1 ",
"  c #7D5034",
". c #805336",
"X c #855639",
"o c #875739",
"O c #88593A",
"+ c #8A5B3A",
"@ c #905E3E",
"# c #915F3F",
"$ c #92603E",
"% c #93613F",
"& c #956240",
"* c #976441",
"= c #986343",
"- c #9A6542",
"; c #9C6743",
": c #9D6743",
"> c #9B6946",
", c #9D6846",
"< c #A16B47",
"1 c #A26B47",
"2 c #A56A47",
"3 c #A76E4A",
"4 c #A9704A",
"5 c #AA714B",
"6 c #AB724B",
"7 c #AB724C",
"8 c #AB734C",
"9 c #AD744D",
"0 c #AD754D",
"q c #AE764E",
"w c #AF774F",
"e c #B0784F",
"r c #B07950",
"t c #B17950",
"y c #B27A51",
"u c #B37B52",
"i c #B47C52",
"p c #B47D53",
"a c #BD7D52",
"s c #B88055",
"d c #B88156",
"f c #B98256",
"g c #BC8559",
"h c #BE885A",
"j c #C58E5F",
"k c #B1A5A4",
"l c #B4ABA9",
"z c #B7AEAC",
"x c #B8AFAD",
"c c white",
/* pixels */
"+a44ooccccccccccccccccccccoo44a+",
"+oooooccccccccccccccccccccooooo+",
"+a44ooccccccccccccccccccccoo44a+",
"+k44ooccccccccccccccccccccoo44k+",
"+a44ooccccccccccccccccccccoo44a+",
"+oooooccccccccccccccccccccooooo+",
"+a44ooccccccccccccccccccccoo44a+",
"+k44ooccccccccccccccccccccoo44k+",
"+a44ooccccccccccccccccccccoo44a+",
"+oooooccccccccccccccccccccooooo+",
"+a44ooccccccccccccccccccccoo44a+",
"+k44ooccccccccccccccccccccoo44k+",
"+a44ooccccccccccccccccccccoo44a+",
"+oooooccccccccccccccccccccooooo+",
"+a44ooccccccccccccccccccccoo44a+",
"+k44ooccccccccccccccccccccoo44k+",
"+a44ooccccccccccccccccccccoo44a+",
"+oooooccccccccccccccccccccooooo+",
"+a44ooccccccccccccccccccccoo44a+",
"+k44ooccccccccccccccccccccoo44k+",
"+a44ooccccccccccccccccccccoo44a+",
"+oooooccccccccccccccccccccooooo+",
"+a44ooccccccccccccccccccccoo44a+",
"+k44ooccccccccccccccccccccoo44k+",
"+a44ooccccccccccccccccccccoo44a+",
"+oooooccccccccccccccccccccooooo+",
"+444oooccccccccccccccccccooo444+",
"+g44.oooooooooooooooooooooo.44g+",
"+h444 +o++oooooooooooo++o+ 444h+",
"+ggjt4&4qq*44444qq44qq*7tp4tjgg+",
"+4k444%7xq%4l7:qzt<4xq#7zt<o4k4+",
"+444:2#qee=qep>dddtqeq,qtt3-444+"
};
