/* XPM */
static char *rcp08330699133229[] = {
/* columns rows colors chars-per-pixel */
"32 32 66 1 ",
"  c #875739",
". c #885939",
"X c #88593A",
"o c #8A593A",
"O c #8B5A3A",
"+ c #8A5B3A",
"@ c #8C5B3B",
"# c #8D5B3B",
"$ c #8D5C3C",
"% c #8E5C3C",
"& c #8E5D3C",
"* c #8F5D3D",
"= c #905F3C",
"- c #915F3F",
"; c #92603E",
": c #93613E",
"> c #93613F",
", c #93623F",
"< c #946240",
"1 c #956240",
"2 c #956340",
"3 c #966340",
"4 c #966343",
"5 c #976441",
"6 c #976442",
"7 c #986343",
"8 c #986542",
"9 c #9B6642",
"0 c #9C6743",
"q c #9D6743",
"w c #9B6946",
"e c #9E6845",
"r c #9E6846",
"t c #A16B47",
"y c #A26B47",
"u c #A56A47",
"i c #A6714B",
"p c #A9704A",
"a c #AA714B",
"s c #AB724B",
"d c #AB724C",
"f c #AB734C",
"g c #AC734C",
"h c #AD744D",
"j c #AD754D",
"k c #AE764E",
"l c #AF774F",
"z c #B0784F",
"x c #B07950",
"c c #B17950",
"v c #B27A51",
"b c #B37B52",
"n c #B47C52",
"m c #B47D53",
"M c #B88055",
"N c #B88156",
"B c #B98256",
"V c #BC8559",
"C c #BE885A",
"Z c #C58255",
"A c #C58E5F",
"S c #B1A5A4",
"D c #B4ABA9",
"F c #B7AEAC",
"G c #B8AFAD",
"H c white",
/* pixels */
"++++++++++++++++++++++++++++++++",
"+ZZZjZSZ0ZSZ8ZSZ5ZSZ8ZSZ8ZSZ8ZSZ",
"+ZSjjjjjtjjjtjjjtjjj0jjj0jjjtjjj",
"+Zjjjjjjtjjjtjjjtjjjtjjjtjjjtjjj",
"+jjjj+++++++++++++++++++++++++XX",
"+jjj++++++++++++++++++++++++++XX",
"+Zjj  +HHHHHHHHHHHHHHHHHHHHHHHHH",
"+Sjj  HHHHHHHHHHHHHHHHHHHHHHHHHH",
"+Zjj  HHHHHHHHHHHHHHHHHHHHHHHHHH",
"+0tt  HHHHHHHHHHHHHHHHHHHHHHHHHH",
"+Zjj  HHHHHHHHHHHHHHHHHHHHHHHHHH",
"+Sjj  HHHHHHHHHHHHHHHHHHHHHHHHHH",
"+Zjj  HHHHHHHHHHHHHHHHHHHHHHHHHH",
"+++2  HHHHHHHHHHHHHHHHHHHHHHHHHH",
"+Zjj  HHHHHHHHHHHHHHHHHHHHHHHHHH",
"+Sjj  HHHHHHHHHHHHHHHHHHHHHHHHHH",
"+Zjj  HHHHHHHHHHHHHHHHHHHHHHHHHH",
"+28t  HHHHHHHHHHHHHHHHHHHHHHHHHH",
"+Zjj  HHHHHHHHHHHHHHHHHHHHHHHHHH",
"+Sjj  HHHHHHHHHHHHHHHHHHHHHHHHHH",
"+Zjj  HHHHHHHHHHHHHHHHHHHHHHHHHH",
"+22t  HHHHHHHHHHHHHHHHHHHHHHHHHH",
"+Zjj  HHHHHHHHHHHHHHHHHHHHHHHHHH",
"+Sjj  HHHHHHHHHHHHHHHHHHHHHHHHHH",
"+Zjj  HHHHHHHHHHHHHHHHHHHHHHHHHH",
"+2:8  HHHHHHHHHHHHHHHHHHHHHHHHHH",
"+Zjj   HHHHHHHHHHHHHHHHHHHHHHHHH",
"+Vpp++                          ",
"+Cppp++ ++      ++  ++ ++##&&&#+",
"+VVAcp2pjj5pppppjjepjj:dcmtgmc:p",
"+pSppp:dGj:pDd0jFc:pGj&dFc8dFc-p",
"+ppp0u-jzz7jzmwNNNijzj2jccejcz5j"
};
