/* XPM */
static char *rcp08330785098228[] = {
/* columns rows colors chars-per-pixel */
"32 32 69 1 ",
"  c #805336",
". c #875739",
"X c #885939",
"o c #88593A",
"O c #8A593A",
"+ c #8B5A3A",
"@ c #8A5B3A",
"# c #8C5B3B",
"$ c #8D5B3B",
"% c #8D5C3C",
"& c #8E5C3C",
"* c #8F5D3D",
"= c #905E3E",
"- c #92603E",
"; c #93613E",
": c #93613F",
"> c #93623F",
", c #94623F",
"< c #95623F",
"1 c #946240",
"2 c #956240",
"3 c #956340",
"4 c #966340",
"5 c #976441",
"6 c #986541",
"7 c #986542",
"8 c #9A6542",
"9 c #9B6642",
"0 c #9C6743",
"q c #9D6743",
"w c #9E6845",
"e c #9D6846",
"r c #A16A47",
"t c #A16B47",
"y c #A66E4A",
"u c #A6724B",
"i c #A9704A",
"p c #AA714B",
"a c #AB724B",
"s c #AB724C",
"d c #AB734C",
"f c #AC734C",
"g c #AD744D",
"h c #AD754D",
"j c #AE764E",
"k c #AF764E",
"l c #AF774F",
"z c #B0784F",
"x c #B07950",
"c c #B17950",
"v c #B27A51",
"b c #B37B52",
"n c #B47C52",
"m c #B47C53",
"M c #B47D53",
"N c #B88055",
"B c #B88156",
"V c #B98256",
"C c #BC8559",
"Z c #BE885A",
"A c #C58255",
"S c #C58E5F",
"D c #B1A5A4",
"F c #B3A8A6",
"G c #B4A9A7",
"H c #B4ABA9",
"J c #B7AEAC",
"K c #B8AFAD",
"L c white",
/* pixels */
"@@@@@@@@@@@@@@@@@@@@@@@@@@@@@@@@",
"@ADA5ADA0ADA7ADA5ADA7ADA7ADAAAA@",
"=hhh0hhhthhhthhhthhh0hhh0hhhhDA@",
"2hhhwhhhthhhthhhthhhthhhthhhhhA@",
"@@@@@@oo@@@@@@@@@@@@@@@@@@@hhhh@",
"@@@@@@oo@@@@@@@@@@@@@@@@@@@@hhh@",
"LLLLLLLLLLLLLLLLLLLLLLLLL@..hhA@",
"LLLLLLLLLLLLLLLLLLLLLLLLLL..hhD@",
"LLLLLLLLLLLLLLLLLLLLLLLLLL..hhA@",
"LLLLLLLLLLLLLLLLLLLLLLLLLL..tt0@",
"LLLLLLLLLLLLLLLLLLLLLLLLLL..hhA@",
"LLLLLLLLLLLLLLLLLLLLLLLLLL..hhD@",
"LLLLLLLLLLLLLLLLLLLLLLLLLL..hhA@",
"LLLLLLLLLLLLLLLLLLLLLLLLLL..2@@@",
"LLLLLLLLLLLLLLLLLLLLLLLLLL..hhA@",
"LLLLLLLLLLLLLLLLLLLLLLLLLL..hhD@",
"LLLLLLLLLLLLLLLLLLLLLLLLLL..hhA@",
"LLLLLLLLLLLLLLLLLLLLLLLLLL..t72@",
"LLLLLLLLLLLLLLLLLLLLLLLLLL..hhA@",
"LLLLLLLLLLLLLLLLLLLLLLLLLL..hhD@",
"LLLLLLLLLLLLLLLLLLLLLLLLLL..hhA@",
"LLLLLLLLLLLLLLLLLLLLLLLLLL..t22@",
"LLLLLLLLLLLLLLLLLLLLLLLLLL..hhA@",
"LLLLLLLLLLLLLLLLLLLLLLLLLL..hhD@",
"LLLLLLLLLLLLLLLLLLLLLLLLLL..hhA@",
"LLLLLLLLLLLLLLLLLLLLLLLLLL..7:2@",
"LLLLLLLLLLLLLLLLLLLLLLLLL...hhA@",
"........................... iiC@",
"@#&&&##@@.@@..@@......@@.@@iiiZ@",
"hhtifc,ihh:iii0ihhwihh5scm@cSCC@",
"Gh7iFh:sKh:iHs:hJc:iKh=sJc:ciDi@",
"hmyhhhwhzzyhzmuBBBchzhwhcc,7iii@"
};
