/* XPM */
static char *rcp08330875681209[] = {
/* columns rows colors chars-per-pixel */
"32 32 56 1 ",
"  c #7D5034",
". c #805336",
"X c #855639",
"o c #875739",
"O c #88593A",
"+ c #8A5B3A",
"@ c #905E3E",
"# c #915F3F",
"$ c #92603E",
"% c #93613E",
"& c #93613F",
"* c #946240",
"= c #956240",
"- c #956340",
"; c #966340",
": c #976441",
"> c #986343",
", c #986542",
"< c #9A6542",
"1 c #9B6642",
"2 c #9C6743",
"3 c #9D6743",
"4 c #9B6946",
"5 c #9D6846",
"6 c #A16B47",
"7 c #A26B47",
"8 c #A56A47",
"9 c #A76E4A",
"0 c #A9704A",
"q c #AA714B",
"w c #AB724B",
"e c #AB724C",
"r c #AB734C",
"t c #AD744D",
"y c #AD754D",
"u c #AE764E",
"i c #AF774F",
"p c #B0784F",
"a c #B07950",
"s c #B17950",
"d c #B27A51",
"f c #B37B52",
"g c #B47C52",
"h c #B47D53",
"j c #B88055",
"k c #B88156",
"l c #B98256",
"z c #BC8559",
"x c #BE885A",
"c c #C58255",
"v c #C58E5F",
"b c #B1A5A4",
"n c #B4ABA9",
"m c #B7AEAC",
"M c #B8AFAD",
"N c white",
/* pixels */
"++++++++++++++++++++++++++++++++",
"+cccycbc2cbc,cbc:cbc,cbc,cbcccc+",
"+cbyyyyy6yyy6yyy6yyy2yyy2yyyybc+",
"+cyyyyyy6yyy6yyy6yyy6yyy6yyyyyc+",
"+yyyy++++++++++++++++++++++yyyy+",
"+yyy++++++++++++++++++++++++yyy+",
"+cyyoo+NNNNNNNNNNNNNNNNNN+ooyyc+",
"+byyooNNNNNNNNNNNNNNNNNNNNooyyb+",
"+cyyooNNNNNNNNNNNNNNNNNNNNooyyc+",
"+266ooNNNNNNNNNNNNNNNNNNNNoo662+",
"+cyyooNNNNNNNNNNNNNNNNNNNNooyyc+",
"+byyooNNNNNNNNNNNNNNNNNNNNooyyb+",
"+cyyooNNNNNNNNNNNNNNNNNNNNooyyc+",
"+++-ooNNNNNNNNNNNNNNNNNNNNoo-+++",
"+cyyooNNNNNNNNNNNNNNNNNNNNooyyc+",
"+byyooNNNNNNNNNNNNNNNNNNNNooyyb+",
"+cyyooNNNNNNNNNNNNNNNNNNNNooyyc+",
"+-,6ooNNNNNNNNNNNNNNNNNNNNoo6,-+",
"+cyyooNNNNNNNNNNNNNNNNNNNNooyyc+",
"+byyooNNNNNNNNNNNNNNNNNNNNooyyb+",
"+cyyooNNNNNNNNNNNNNNNNNNNNooyyc+",
"+--6ooNNNNNNNNNNNNNNNNNNNNoo6--+",
"+cyyooNNNNNNNNNNNNNNNNNNNNooyyc+",
"+byyooNNNNNNNNNNNNNNNNNNNNooyyb+",
"+cyyooNNNNNNNNNNNNNNNNNNNNooyyc+",
"+-%,ooNNNNNNNNNNNNNNNNNNNNoo,%-+",
"+cyyoooNNNNNNNNNNNNNNNNNNoooyyc+",
"+z00.oooooooooooooooooooooo.00z+",
"+x000 +o++oooooooooooo++o+ 000x+",
"+zzvs0-0yy:00000yy00yy:esh0svzz+",
"+0b000%eMy%0ne2yms60My#ems6o0b0+",
"+00028#ypp>yph4kkksypy5yss9,000+"
};
