/* XPM */
static char *rcp0833097726631[] = {
/* columns rows colors chars-per-pixel */
"32 32 87 1 ",
"  c #77492D",
". c #7A4C2E",
"X c #7B4D2E",
"o c #7C4C2E",
"O c #7F4D2F",
"+ c #804E30",
"@ c #814F30",
"# c #815031",
"$ c #825030",
"% c #835131",
"& c #865232",
"* c #865332",
"= c #875332",
"- c #875333",
"; c #885333",
": c #895433",
"> c #895534",
", c #8A5534",
"< c #8E5735",
"1 c #8F5936",
"2 c #905A36",
"3 c #905A38",
"4 c #975C3B",
"5 c #975D3C",
"6 c #9A5F3D",
"7 c #9C613E",
"8 c #9C623F",
"9 c #9E623F",
"0 c #9E633F",
"q c #9E6240",
"w c #9F6440",
"e c #A06440",
"r c #A06541",
"t c #A16641",
"y c #A26642",
"u c #A26742",
"i c #A26743",
"p c #A36743",
"a c #A36843",
"s c #A46843",
"d c #A46944",
"f c #A56944",
"g c #A66B45",
"h c #A56A46",
"j c #A76C47",
"k c #A86D48",
"l c #A96E48",
"z c #B2734C",
"x c #B2744C",
"c c #B3744D",
"v c #B3754D",
"b c #B4764E",
"n c #B5774F",
"m c #B5784F",
"M c #B67850",
"N c #B67950",
"B c #B77950",
"V c #B77A51",
"C c #B87A51",
"Z c #B87B51",
"A c #B87B52",
"S c #B87C52",
"D c #B97C52",
"F c #BA7D53",
"G c #BA7E53",
"H c #BB7E54",
"J c #BB7F54",
"K c #BB8055",
"L c #BB8256",
"P c #BC8055",
"I c #BC8155",
"U c #BD8156",
"Y c #BE8357",
"T c #BD8457",
"R c #BF8458",
"E c #BE8558",
"W c #BF8659",
"Q c #C08558",
"! c #C0875A",
"~ c #C0885A",
"^ c #C1885B",
"/ c #B99F92",
"( c #BBA194",
") c #BBA295",
"_ c #BCA296",
"` c #BCA396",
"' c #BCA397",
/* pixels */
"!UDbbbbbbbbbbbbbbbbbbbbbbbbbbDUD",
"11111111111221111111111111112111",
"11UmDbjjjjbHKV2111TRHHkjjjbHRH21",
"1D)ZZVDjjbVZD'H11U'DDZHjjbVZD'H1",
"1mZDDZDjjbVDDDH;1RDDDDRjjmZDDDK2",
"1HZDDZDjibVDDZR;1HDDDDViibZDDDV2",
"1DVZZVDfwxbVVVD;1VZDDZbi8xVDDZV1",
"1jbHHDwii8zDUUj;1kHRKDw588xVVVk1",
"1jjiii8iiiafjjj;1jjiii8884fjjjj1",
"1jiiiiiiiiwiiii;1jjjiiiiiifjjjj1",
"1iDUDZ68i8xDbbi;1jUUDxw8aiDHR~j1",
"1bbbbbxfixbVZVb;1bbbbbbifbVDDVD1",
"1bbVbbDjiUVDUDH:1DbbbbDiiVDDDDH1",
"1DVZVbUjibVHUDR-<DbbbbDiiVDDDDH1",
"1D'DVbDjiDVDD)H,,H/bbbDiiVZDD'D1",
"12HKRbjjjjbDUV#@@.ZDDbiijkVVVm11",
"112::;;;;;-##:#O.#-;;;;;;;122111",
"11111;;;;;;-##O .#@;;;;;;;;11111",
"11DHHDkjjkV!TD;--@URRDjijjbmDD11",
"1D)ZDZHikVDDZ'D1;D'ZZVDijbVZV)b1",
"1HZDDDKssKDDDDH;;HZDDZmijmZDDVb1",
"1RDDDZRiq~DDDDH;;RZDDVbijDVDZVD1",
"1mZDZVx8iKDDDZD;;DVZVVDifDVVVmD1",
"1jVVVx8iiiVUKVj;1jDbbD88iwDbbDj1",
"1jiiiaiiiaiiijj;1jjiiiiii8ijjjj1",
"1iiiiaiiiiiiijj;1jjjjfiiiiiijjj1",
"1qVKHZ8i8wDDDDj;1kmVDDwi8wDDDDj1",
"1HZDDVZfibVVZVD12VZDVmZiiDbVVVm1",
"2KDDDZDiiDZDDZH13ZDDDVDiiDmZDDV2",
"2KDDDVD8fDZDDDV13ZDDDVDijbmZDZV2",
"1V'DZVxiabVDD'V12H'DZVbijDbVV)m1",
"12VVHDwiafVKKH2113RHHbjjjjbbbb11"
};
