/* XPM */
static char *rcp08331066256305[] = {
/* columns rows colors chars-per-pixel */
"32 32 82 1 ",
"  c #4E311E",
". c #50321F",
"X c #553621",
"o c #583722",
"O c #5B3A24",
"+ c #603D26",
"@ c #633F29",
"# c #66412A",
"$ c #6B442B",
"% c #71472E",
"& c #72492E",
"* c #754C31",
"= c #7A4E31",
"- c #7C5034",
"; c #815336",
": c #865739",
"> c #8E5D3C",
", c #935D3C",
"< c #96603E",
"1 c #99613F",
"2 c #956240",
"3 c #9C6441",
"4 c #9F6946",
"5 c #A26643",
"6 c #A56946",
"7 c #A86C47",
"8 c #A66D49",
"9 c #A96C48",
"0 c #A7704A",
"q c #AC734C",
"w c #AF784F",
"e c #B0774E",
"r c #B1784F",
"t c #A57353",
"y c #AD7A51",
"u c #B37C52",
"i c #B78156",
"p c #B98156",
"a c #BC8659",
"s c #BD895B",
"d c #C18E5E",
"f c #C29363",
"g c #C69867",
"h c #CEA371",
"j c #868484",
"k c #8E8B8B",
"l c #918D8D",
"z c #959191",
"x c #999595",
"c c #9E9B9B",
"v c #A19E9E",
"b c #A4A1A1",
"n c #ACA4A3",
"m c #ADABAB",
"M c #B0A5A3",
"N c #B1A8A6",
"B c #B2ADAD",
"V c #B5B4B4",
"C c #BAB6B5",
"Z c #BCB8B6",
"A c #BDBABA",
"S c #C1BEBD",
"D c #90C8E5",
"F c #9BCDE8",
"G c #ADCFE4",
"H c #A1CFE9",
"J c #A4D1EA",
"K c #ABD4EB",
"L c #B0D7EC",
"P c #B4D9ED",
"I c #BBDCEF",
"U c #BEDEF0",
"Y c #C4C2C2",
"T c #C8C6C6",
"R c #CCCACA",
"E c #D1CECE",
"W c #D2D0D0",
"Q c #C0DFF0",
"! c #C4E1F1",
"~ c #CBE5F3",
"^ c #D0E7F4",
"/ c #D3E9F4",
/* pixels */
"wu8076,6661669wrurq0qq3qww7qww4w",
"RRRCSZSACCZZCCASSSAAAAAAYTTASRRR",
"WWWECq0990t9790eeuuuuuiuwrpRTEWW",
"WWER50uuuyyy0wwwwwiuuuuuuuu5RTWW",
"WWRuuuPKKL!!LK709wHKJ!KKIPweaRWW",
"WWRwuKKLP!^!PIK0qKLL^UQ^^IK3qTEE",
"EEZ0wKLP!~!PILK2qKL^II~/~PK40REE",
"RYR03JPQ!!PQLLK3wK~LLU^!PPK80RRY",
"SRY03KUUIPILLLK6wPLP!!~IPLI0wTAR",
"RRS00PIILILLLLK4wJP!~!PLL!KwwZTR",
"RRS0wLILIKKKKKKruKLPIKKKIPKw0YTR",
"TTA0upsiuyyissughapuw6q0qwquwTYT",
"YYZ059uuuuuuuuqifur00000qwwwuSSY",
"SSC00FJHJJJPQIHuaL!IKKKKU~GwwASS",
"AAV0wHLLLLI~~PHuiI!LLLLP!UKw0CAA",
"ZAV0wHLLLP!~PPFwuIILLLPIIPK08VAA",
"CCB03HLLP!IKPLHwuPLLLPIILLKw0VCC",
"VVm33DHJKJHJHHF77JKKKLPLKKK33BVV",
"mmb0pwwqq800wwwwwwruwwwwwuuuwnmB",
"mmbwuiiuapiuiiuuuuisiuuuiaapuvmm",
"bbvjsssssssusppuuusdsprpssaukccb",
"bbvczlzlzzzkkkkllzzlzlzzzzxxxbnn",
"cvczklkkllllllllzllllxzlklkklxvv",
"376<366<577<57qwwq71608169916003",
"5n7,6n726n725n987M727B927Nq37Nq,",
"77737773777377955573797377737773",
"$#X $$$$X ##+O@  +o##$XX$$$$oX$$",
"$*oX*$%*OX*$$$:oX;$*%*OX*%%*OX&&",
"&=Oo=$*-Oo-$*$:Xo;$-*-OO=*&&OO&=",
"$=+O-*$-+o-&*$;o+:$-**Oo-*&-Oo**",
"$*oX*%$*oX*$%$:O@>#*$$o.*$$*oX*$",
"@@X ###$X.$$$#-O$*#$$%X &$$$X.$$"
};
