/* XPM */
static char *rcp08331156916244[] = {
/* columns rows colors chars-per-pixel */
"32 32 52 1 ",
"  c #4E311F",
". c #50321F",
"X c #543621",
"o c #583722",
"O c #5B3A24",
"+ c #603D26",
"@ c #633F29",
"# c #66412A",
"$ c #6B442C",
"% c #71472E",
"& c #724A2E",
"* c #754C30",
"= c #7A4E32",
"- c #7D5034",
"; c #815437",
": c #855639",
"> c #89563A",
", c #8E5C3C",
"< c #915E3D",
"1 c #96613F",
"2 c #98613F",
"3 c #966341",
"4 c #9A6341",
"5 c #9F6945",
"6 c #A16643",
"7 c #A56A46",
"8 c #A86B47",
"9 c #A76C48",
"0 c #A96C49",
"q c #AB724B",
"w c #B0774E",
"e c #B47B52",
"r c #BA8457",
"t c #BE885B",
"y c #969393",
"u c #9A9595",
"i c #9D9A9A",
"p c #A19D9D",
"a c #A5A2A2",
"s c #A9A5A5",
"d c #ADABAB",
"f c #B1A8A6",
"g c #B1AFAE",
"h c #B5B3B3",
"j c #B9B6B6",
"k c #BDBBBB",
"l c #C1BFBF",
"z c #C4C2C2",
"x c #C8C5C5",
"c c #CDCACA",
"v c #D1CECE",
"b c #D2D0D0",
/* pixels */
"qq5qqq3qqq5qqqeeeeqqqq3qqq7qqq3q",
"ccckccccccvzceerteqccccccccclccc",
"bbbbxbbbbbxbbc,>::xbbbbbbbbbbbbb",
"bbbbbzbzbzbbbc259,xbbbbbbbbbbbbb",
"bbbbzbzbzbbbbc<49<xbbbbbbbbbbbbb",
"bvvzvvvbvzvvbc<45,xvvvvvvvvvvvvv",
"vvzvvvvvvzvvvx<44,xvvvvvvvvvvvvv",
"czcccccccczzvx<44,xccccccccccccz",
"lccccccccccczz<44,zccccccccccclc",
"cccccccccccclz,44,hcccccccccllcc",
"xcccccccccckcz,44,zkccccccckcccc",
"xxxxxxxxxxxkxl,33,lxkxxxkxkxxxxx",
"zzzzzzzzzzjzzk,22,kzzjzjzjzzzzzz",
"lllllllllhhllh:,3>hlllhlllllllll",
"kkkkkkkkkhkhhg-::;hkkkhkkkkkkkkk",
"jkkkkkhhhkkkhp=--=dkkkhkkkkkkkkk",
"hhjjjgjjjjjjhs*===sjjjjgjjjjjjjj",
"hhhhhhdhhhhhhp*=-*ahhhdhdhddhhhh",
"dddggsggghggdp**-*idgsgggsggshgg",
"ddddsddddddddp%=-*idsddddddddsdd",
"aasassssssssdi%=:*yasssssssssaaa",
"aapssssssssssy&=&%yassssssssssss",
"ippiiiuuuuuuu8eere0iipiuuiuuuupp",
"57747974797479qwwq947q047qq47qq4",
"6s7<7s847s746s097f747g047fq47fq<",
"77757885787578088085700578857885",
"$#X $$$$X ##+#566<@$$$XX$$$$oX$$",
"$*oX*$%*OX*$$$7627$*%*OX*%%*OX&&",
"&=Oo=$*-Oo-$*$7667$-*-OO-*&&OO&=",
"$-+O-*$-+o-&*$8792$-**Oo-*&-Oo**",
"$*oX*%$*oX*$%$0008#*$$o.*$$*oX*$",
"@@X ###$X.$$$#7qq2#$$%X &$$$X.$$"
};
