/* XPM */
static char *rcp0833124599198[] = {
/* columns rows colors chars-per-pixel */
"32 32 69 1 ",
"  c #3C2416",
". c #402817",
"X c #442B1A",
"o c #492D1C",
"O c #4D311E",
"+ c #50341F",
"@ c #533521",
"# c #583722",
"$ c #5E3B26",
"% c #623F26",
"& c #623F28",
"* c #66412A",
"= c #6C452C",
"- c #70472E",
"; c #734A2F",
": c #734A30",
"> c #7A4E32",
", c #7E5135",
"< c #7E5A41",
"1 c #757373",
"2 c #797676",
"3 c #7E7A7A",
"4 c #825436",
"5 c #8B5234",
"6 c #855638",
"7 c #8A573A",
"8 c #8B5B3A",
"9 c #945C3C",
"0 c #985C39",
"q c #95613F",
"w c #9A613F",
"e c #976240",
"r c #9C6441",
"t c #9F6946",
"y c #A16643",
"u c #A56946",
"i c #A66D48",
"p c #A96D49",
"a c #AC724B",
"s c #B2764E",
"d c #B4784F",
"f c #A27253",
"g c #B57950",
"h c #BA7E54",
"j c #BF8156",
"k c #BC8458",
"l c #D19D6A",
"z c #858383",
"x c #8A8585",
"c c #8D8A8A",
"v c #938F8F",
"b c #969292",
"n c #9A9696",
"m c #9D9B9B",
"M c #A19E9E",
"N c #A4A2A2",
"B c #A9A5A5",
"V c #ACABAB",
"C c #B2AFAE",
"Z c #B8B0AE",
"A c #B5B3B3",
"S c #B9B6B6",
"D c #BDBBBB",
"F c #C1BEBE",
"G c #C5C3C3",
"H c #C9C6C6",
"J c #CDCBCB",
"K c #D1CECE",
"L c #D2D0D0",
/* pixels */
"klkfrwNAAAAVADDGVDDSAASDGHHDDHHJ",
"8q666MCAFDCDGGGGHAHGHHJHJHJJHJJJ",
"8ue66cAVDAFGGGHHHHDHHHJJKKLLLLLL",
"8pae6nNVAFGHHHJJJJFKKKKLLLLLLLLL",
"8dau6mAAFSGHHHHJJJFJKKKKKKKKKKKK",
"8dgi6nAADAGGHHHHJFJJJJKKKKKKKKKK",
"8dgi6bVCSDASGHHHHFJJJJJJJJJJJJJG",
"8ggu6vVVSDDFSGHHHKFHJJJJJJJJJJFJ",
"8ggu6bVVASDDAGGHHJDJKHHJJJJJFDHJ",
"8ddu6cBVASSADFGHJAHSJHHHHHHDHHHH",
"8dst4xNBAASADDFFAGGGAFHHDHDHHHHH",
"8pst43vbNAVASDCADFFFGSGSGSGGGGGG",
"8asr43bbNBVAASVSDDDDFFVFFFFFFFFF",
"8iar4cbbmNVVVSVSSSDDDDVDDDDDDDDD",
"8uar,xmmMVVVVMAAAASSSSADDDDDDSSD",
"8ru8,3mmNBVVVCVAAAAAAASCSSSSSAAS",
"8ee4,3bmMNBVVBVVCCAAAAVAVAVVAAAA",
"8te,,2bnmMNNNBBVVVVVVBCCCVCCVVVC",
"8qq,<2bbnmMMNNNBBVVVNVVVVVVVVNVV",
"8988,zvbnmmmMNMNNBBMBBVVVVVVVNMN",
"87,,,31bbnmmmmMBNNNMNNBBBBBBBNNB",
"jhg99u1xxxcccbvMMMmmmmmnnMMnnnMM",
"guuwuuueuiueuiasghaeuapeiggruasr",
"gBu9uBieuBueyBpiaSaeuCpeuZgruCsq",
"duuruiiruiuruipuyiiruuy0uppwrupr",
"gy9y95&===oO==**  *==*XX*==*X.*=",
"jayay8&>>,@+4>=-..*;:>@X::>=O@;>",
"jayay8%>=6@@4;*>..-,;4+X=;=*++=>",
"pararr*>*6#@>=*>Xo;>;,@@;==;@@;>",
"appprr*>*6##4==>OO>4;-#@>=>>##>>",
"a9yy99$===OO;**=X.=;==Oo=*==OO==",
"00000000000500000000000000000000"
};
