/* XPM */
static char *rcp08331336672860[] = {
/* columns rows colors chars-per-pixel */
"32 32 69 1 ",
"  c #3C2416",
". c #402817",
"X c #442B1A",
"o c #492D1C",
"O c #4D311E",
"+ c #50341F",
"@ c #533521",
"# c #583722",
"$ c #5E3B26",
"% c #623F26",
"& c #623F28",
"* c #66412A",
"= c #6C452C",
"- c #70472E",
"; c #734A2F",
": c #734A30",
"> c #7A4E32",
", c #7E5135",
"< c #7E5A41",
"1 c #757373",
"2 c #797676",
"3 c #7F7B7B",
"4 c #825436",
"5 c #8B5234",
"6 c #855638",
"7 c #8A573A",
"8 c #8B5B3A",
"9 c #945C3C",
"0 c #985C39",
"q c #95613F",
"w c #9A613F",
"e c #976240",
"r c #9C6441",
"t c #9F6946",
"y c #A16643",
"u c #A56946",
"i c #A66D48",
"p c #A96D49",
"a c #AC724B",
"s c #B2764E",
"d c #B4784F",
"f c #A27253",
"g c #B57950",
"h c #BA7E54",
"j c #BF8156",
"k c #BC8458",
"l c #D19D6A",
"z c #868282",
"x c #8A8585",
"c c #8D8A8A",
"v c #948F8F",
"b c #969393",
"n c #999696",
"m c #9D9A9A",
"M c #A19E9E",
"N c #A5A2A2",
"B c #AAA5A5",
"V c #ACABAB",
"C c #B2AEAE",
"Z c #B8B0AE",
"A c #B5B3B3",
"S c #B9B6B6",
"D c #BDBBBB",
"F c #C1BEBE",
"G c #C5C3C3",
"H c #C9C6C6",
"J c #CDCACA",
"K c #D1CECE",
"L c #D2D0D0",
/* pixels */
"JJJDJJJJJJKGJDDVGDDAVAAAANwrfklk",
"LLLLGLLLLLGLLGAGGGGGDCDFACM666q8",
"LLLLLGLGLGLLLDHHGGGGGFADVAc66ru8",
"LLLLGLGLGLLLLFJJJJJHGGFAVNn6rap8",
"LLLGLKKKKGKKKFJJJJHHGGSFAAm6uad8",
"KKGKKKKKKGKKKJFJJJHGGGADAAn6igd8",
"JGJJJJJJJJGGKJFJHHGGSADSCVb6igd8",
"FJJJJJJJJJJJGFKHHGGSFDDSVVv6ugg8",
"JJJJJJJJJJJJFDJGGGGADDSAVVb6ugg8",
"JJJHHHHHHJJDJGAJGGFDASSAVBc6udd8",
"HHHGGGGGGHHDHGGAFFDDASAABNx4tsd8",
"GGGGGGGGGGSGGFFDACDSAVANnnx4tsp8",
"FFFFFFFFFAAFFDDDSVSAAVBNnnz4rsa8",
"DDDDDDDDDADAADSSSVSVVVNmnnc4rai8",
"SDDSSSCAADDDASAAAAMVVVVMmmz,rau8",
"AASSAVAASSSSAAAAAVCVVVBNmm3,8ur8",
"AAAAAAVAAAAAAACCVVBVVBNMmn3,4rr8",
"VVVCVBVVCCCCVVVVVBBNNNMmnn2,,et8",
"VVVVNVVVVVVVVVVBBNNNMmmnnb2<,qq8",
"NNBNBBBBVVVVVBBNNMNMmmnnbvz,8898",
"NNMBNNNNBBBBBNNNBMmmmnnbb13,,,78",
"mMMnnnbbnnnnnnnnnvbcccxxz1u99ghj",
"rsaurggirpaurahgsaiuruiuruuuwuug",
"qsCurgZuriCuraSaipByruBurpBu9uBg",
"rpurwppu0yuurppyuppuruuurppuruud",
"==.X*===oo===*  *===Oo===&59y9yg",
">;@O=>::o@>:;=..-=>4+@,>>&8yayaj",
">=++==;=X+4;,-..>*;4@@6=>%8yayaj",
">;@@;==;@@,;>;oX>*=>@#6=>*rrarap",
">>##>>=>@#-;4>OO>==4##6=>*rrppps",
"==OO==*=oO==;=.X==*;OO===$99yy9a",
"00000000000000000000500000000000"
};
