/* XPM */
static char *rcp08331419494753[] = {
/* columns rows colors chars-per-pixel */
"32 32 62 1 ",
"  c #4A2E1D",
". c #4C301E",
"X c #53331F",
"o c #533521",
"O c #5A3722",
"+ c #5D3923",
"@ c #643F26",
"# c #633F28",
"$ c #664029",
"% c #6C442C",
"& c #724A2F",
"* c #754C30",
"= c #7A4F33",
"- c #7D5135",
"; c #7E5A41",
": c #757373",
"> c #797676",
", c #7E7B7B",
"< c #825336",
"1 c #8B5234",
"2 c #855638",
"3 c #8A573A",
"4 c #8D5B3B",
"5 c #945C3C",
"6 c #985C39",
"7 c #95613F",
"8 c #9B623F",
"9 c #976240",
"0 c #9C6441",
"q c #9F6946",
"w c #A06543",
"e c #A46A46",
"r c #A66D48",
"t c #AA6D49",
"y c #AC714B",
"u c #B3764E",
"i c #B4784F",
"p c #A27253",
"a c #B57950",
"s c #BC7F55",
"d c #BF8156",
"f c #BC8458",
"g c #D19D6A",
"h c #858383",
"j c #8A8585",
"k c #8D8A8A",
"l c #948F8F",
"z c #969292",
"x c #9A9696",
"c c #9E9B9B",
"v c #A19E9E",
"b c #A4A2A2",
"n c #ABA4A4",
"m c #ACABAB",
"M c #B2AEAE",
"N c #B5B3B3",
"B c #B9B6B6",
"V c #BDBBBB",
"C c #C1BEBE",
"Z c #C5C3C3",
"A c #C9C6C6",
"S c #CBC9C9",
/* pixels */
"fgfp08bNNNNmNVVZZVVNmNNNNb80pfgf",
"#7222bMNCVMVZZZZZZZZVMVCNMv2227#",
"@e922kNmVNCZZZAAAAZZZCNVmNk229e@",
"$ty92xbmNCZAASSSSSSAAZCNmbx29yt$",
"$iye2cNNCBZAAASSSSAAAZBCNNc2eyi$",
"$iar2xNNVNZZAASSSSAAZBBVNNx2rai$",
"$uar2zmMBVNBZAAAAAVVBCCBMmz2rau$",
"$aae2lmmBVVCBMVAVVVCCCVBMMl2eaa$",
"+aae2zmmNBVVNZZMAZZCCVBNmmz2eaa+",
"Oiue2knmNBBNVCZVAZCVVBBNmmk2euiO",
"+uuq<jbnNNBNVVCMCCVVVBNNmnj<quu+",
"Otuq<,lzbNmNBVMVCVVBNmNmmbj<qutO",
"Oyu0<,zzbnmNNBmNCCBNNmnbbmh<0uyO",
"Ory0<kzzcbmmmBmBBCVmmmbcmck<0yrO",
"Oey0-jccvmmmmvNNNNNmmmmvccj-0yeO",
"o0e4-,ccbnmmmMmNNmmmmmnbcc,-4e0o",
"X99<-,zcvbnmmnmmmmnmmnbvcz,-<99X",
"+q9-->zxcvbbbnnmmnnbbbvcxz>--9q+",
"+77-;>zzxcvvbbbnnbbvvccxzz>;-77+",
"O533-hlzxcccvbvbbvbvccczzlh-335O",
"$3---,:zzxccccvnnvccccxzz:,---3$",
"dsa55e:jjjkkkzlvxlzkkkjjj:e55asd",
"aeeteee9ere9eryeeyre9ere9eee8eea",
"anettnt9tnt9ent00nte0tne9rne5ena",
"ueeterr0eee0ert00tre0eee0rre0eeu",
"aw5w51#%%% .%%$..$%%. %%%#15w5wa",
"dywyw4#==-oX<=%..<=<Xo-==#4wywyd",
"dywyw4@=%2oo<&$..<*<oo2%=@4wywyd",
"ty0y00$=$2Oo=%$..<*&oO2$=$00y0yt",
"yttt00$=$2OO<%%..**<OO2$=$00tttu",
"y5ww55+%%%..&$$..$$&..%%%+55ww5y",
"66666666666166666666166666666666"
};
