/* XPM */
static char *result[] = {
/* columns rows colors chars-per-pixel */
"64 64 126 2 ",
"   c #332E06",
".  c #3E2D06",
"X  c #3F260A",
"o  c #3F2C0D",
"O  c #2E3306",
"+  c #323606",
"@  c #3B3406",
"#  c #353A06",
"$  c #3B3D06",
"%  c #3E3309",
"&  c #3F3C08",
"*  c #3F3215",
"=  c #3E3A1E",
"-  c #411E07",
";  c #442407",
":  c #442D07",
">  c #4A2B07",
",  c #412208",
"<  c #482708",
"1  c #452E0B",
"2  c #4C2D08",
"3  c #433406",
"4  c #4B3307",
"5  c #443C06",
"6  c #4B3C07",
"7  c #45340B",
"8  c #4C330B",
"9  c #433D08",
"0  c #4C3A0B",
"q  c #513E07",
"w  c #593F07",
"e  c #523309",
"r  c #583709",
"t  c #543D09",
"y  c #593C0A",
"u  c #443412",
"i  c #483511",
"p  c #4B3A12",
"a  c #423B1D",
"s  c #4C3D1B",
"d  c #503E1B",
"f  c #3D4206",
"g  c #434506",
"h  c #4B4407",
"j  c #454906",
"k  c #4A4C07",
"l  c #444608",
"z  c #4E4409",
"x  c #444A08",
"c  c #4A4B08",
"v  c #524507",
"b  c #524B07",
"n  c #5B4C07",
"m  c #54440A",
"M  c #5B440A",
"N  c #534B09",
"B  c #5B4B0A",
"V  c #4D5107",
"C  c #4D5108",
"Z  c #515407",
"A  c #5B5507",
"S  c #555907",
"D  c #595C07",
"F  c #525309",
"G  c #5B5409",
"H  c #555908",
"J  c #5A5C09",
"K  c #4C4315",
"L  c #4B421D",
"P  c #4D481A",
"I  c #514712",
"U  c #584215",
"Y  c #50451C",
"T  c #5E5116",
"R  c #59531B",
"E  c #60460B",
"W  c #634B0B",
"Q  c #694D0B",
"!  c #615407",
"~  c #625B07",
"^  c #64530A",
"/  c #6A530C",
"(  c #635A0A",
")  c #6B5B0B",
"_  c #715D0E",
"`  c #635810",
"'  c #5D6007",
"]  c #5D6009",
"[  c #626407",
"{  c #636409",
"}  c #6B630A",
"|  c #666809",
" . c #6C6C0A",
".. c #72640C",
"X. c #7A660E",
"o. c #736C0B",
"O. c #7B6D0D",
"+. c #6F700A",
"@. c #74730B",
"#. c #7A760D",
"$. c #77790B",
"%. c #7C7A0D",
"&. c #686312",
"*. c #7C6D11",
"=. c #7D7311",
"-. c #7D7A10",
";. c #4E4625",
":. c #4E4820",
">. c #4A442A",
",. c #544921",
"<. c #51492E",
"1. c #81760F",
"2. c #817C0E",
"3. c #827411",
"4. c #837D11",
"5. c #887C13",
"6. c #84810E",
"7. c #89840F",
"8. c #858111",
"9. c #8B8413",
"0. c #8E8813",
"q. c #938A15",
"w. c #998F15",
"e. c #9B9016",
"r. c #9C9319",
"t. c None",
/* pixels */
"t.t.t.t.t.t.t.t.t.t.t.t.t.t.t.t.t.t.t.t.t.t.t.t.t.t.t.t.t.t.t.t.t.t.t.t.t.t.t.t.t.t.t.t.t.t.t.t.t.t.t.t.t.t.t.t.t.t.t.t.t.t.t.t.",
"t.t.t.t.t.t.t.t.t.t.t.t.t.t.t.t.t.t.t.t.t.t.t.t.t.t.t.t.t.t.t.t.t.t.t.t.t.t.t.t.t.t.t.t.t.t.t.t.t.t.t.t.t.t.t.t.t.t.t.t.t.t.t.t.",
"t.t.t.t.t.t.t.t.t.t.t.t.t.t.t.t.t.t.t.t.t.t.t.t.t.t.t.t.t.t.t.t.t.t.t.t.t.t.t.t.t.t.t.t.t.t.t.t.t.t.t.t.t.t.t.t.t.t.t.t.t.t.t.t.",
"t.t.t.t.t.t.t.t.t.t.t.t.t.t.t.t.t.t.t.t.t.t.t.t.t.t.t.t.t.t.t.t.t.t.t.t.t.t.t.t.t.t.t.2 t.t.t.t.t.t.t.t.t.t.t.t.t.t.t.t.t.t.t.t.",
"t.t.t.t.t.t.t.t.t.t.t.t.t.t.t.t.t.t.t.t.t.t.t.t.t.t.t.t.t.t.t.t.t.t.t.t.t.t.t.t.t.t./ *./ t.t.t.t.t.t.t.t.t.t.t.t.t.t.t.t.t.t.t.",
"t.t.t.t.t.t.t.t.t.t.t.t.t.t.t.t.t.t.t.t.t.t.t.t.t.t.t.t.t.t.r t.t.t.t.t.t.t.t.t./ ) *.9.*.2 2 t.t.t.t.t.t.t.t.t.t.t.t.t.t.t.t.t.",
"t.t.t.t.t.t.t.t.t.t.t.t.t.t.e 2 t.t.t.t.t.t.t.t.t.y y t.t._ 0.3.t.y t.t.t./ / W 9.9.8.-.8.*.9.*.i t.t.t.t.t.t.t.t.t.t.t.t.t.t.t.",
"t.t.t.t.t.t.t.t.t.t.t.t.t.E *.3.W t.t.t.t.t.t.t.t.3.O.Q t.1.9.5./ 3.Q t.e 8.8.3.0.9.@.@.-.4.0.*.e E E y t.t.t.t.t.t.t.t.t.t.t.t.",
"t.t.t.t.t.t.t.t.t.t.M ( B _ 0.-.| ..W t.t.t.t.t.r 0.0.9.1.o.@.@.4.q.1.t.t./ 9.[ #.0.9.8.%.6.%.J { 9.9.4.2 t.t.t.t.t.t.t.t.t.t.t.",
"t.t.t.t.t.t.t.t.t.t._ -.@. .+.@.%.%.+.m t.t.t.r t.Q 0.q.0.2.2.q.q.q.W / E @.o.1.#.#.q.0.8.0.0.{ { +.4.8.B 2 2 t.t.t.t.t.t.t.t.t.",
"t.t.t.t.t.t.t.t.t.y *.0.$.&.-.8.2.9. .( M M X.1.Q O.7.0.0.7.7.w.0.2.) o.) @.X.5.0.%.4.0.#.*.-.( &.4.8.%.@.....2 t.t.t.t.t.t.t.t.",
"t.t.t.t.t.t.t.M .. .] { -.+.q.0.8.q.8.%.%._ q.q.6.2.7.w.w.6.6.0.7.7.1.} @.Q } ! 7.X.#.2. .| } ) 9.0.4.%.| -.-.> t.t.t.t.t.t.t.t.",
"t.t.t.t.t.t.t.E %.$.| @.6.9.0.0.%.9.q.2.X.E 1.q.0.9.7.w.e.0.w.e.w.7.7.0.0.6.$.$.Q 1.| |  .+.@.| 8.9.-.+.]  .T t.t.t.t.t.t.t.t.t.",
"t.t.t.t.t.t.y G @.%.4.%.0.0.q.2.$.O.5.=./ 3.0.q.q.0.2.X.r.r.q.w.e.7.7.7.6.+.+.$./ 3.@. .@.$.$.+.@.9.9.@.] ] H v t.t.t.t.t.t.t.t.",
"t.t.t.t.t.t.B  .0.q.0.0.0.9.q.-.%.9./ X.q.q.@.7.q.7. .O.r.r.2.@.0.2.7.7.%.[ |  .2._ G [ %.6.9.9.$.2.-.-.] J  .+.M t.t.t.t.t.t.t.",
"t.t.t.t.t.2 }  .=.4.2.2.8.8.0.-.%.q.Q 1.w.5.| 2.2.+.{ $.6.7.+.| | 2.7.6.7.$.2.2.9.3.M S {  .-.0.9.8.+.| C C  .{ t t.t.t.t.t.t.t.",
"t.t.t.t./ *.-.@. .=.9.O. .%.4. .{ } F B +.{  .#. .[ S +.+.$.%.+.%.0.7.0.q.0.%.@.} ( B G J %.3.0.9.9.+.] ] x J ( m t.t.t.t.t.t.t.",
"t.t.t.2 *.9.8.4. .{ 5. .| @.0.-./ *.^ B { -.%.@.S S S  .@.$.2.7.7.0.$.%.w.w.X.} ( N B G G ) 0.0.-.-.-.| ] x l G o.} t.t.t.t.t.t.",
"t.t.t.t._ 9.-.8.9.G G |  ./ _ *._ 5.0.-.] 2.6.| Z Z |  .2.7.7.0.2. .5.6.$.#.o.o.o.G N { G y / ) { } -.| ] C H ] @.@.1 t.t.t.t.t.",
"t.t.t.t.t.` | { } G J 8._ =.9...^ =.4.+.D  .$.F Z Z D [ #.7.0.0.$.| 7.7.#. .| $.$.| C H ( B ) ! N G H x f x ] J ] ^ t.t.t.t.t.t.",
"t.t.t.t.t &.o.H F ] { T &.` 0.q.=. .@.D H @.] j j k Z v v } @.w.w.@.O.7.%. .J J @.G V A S { $...N ] x f x  .{ ] 6 t.t.t.t.t.t.t.",
"t.t.t.t.t G H F F N G ..0 _ q.9.2.| j j | @.| g k { ' b $.$. .7.w...) ..o.o.D b v v V H S V Z  .^ m j f @.@.|  .B t.t.t.t.t.t.t.",
"t.t.t.t.t.7 8 6 c / 5.0.*.-.q.5.#.{ Z V @.@.| k Z [ [  .7.2.| { ) ) ..$.$.J | | B g j V Z V D [ { G 9 f  .( N { G , t.t.t.t.t.t.",
"t.t.t.t.t.t.t.t.9 _ 9.q.2.4.q.) ~ @.%.| [ | { Z c Z [ o.$.k | g w } $.$.o. .$.@.| g k { D S [ | | G z f $ 9 + @ 2 t.t.t.t.t.t.t.",
"t.t.t.t.t.t.t.t.t.m J @.-.@.^ o. .2.0.6.| D Z k S S V l f j f f q T %.%.@.6.%.+. .J  .o.| | #.%.( 3 ] H l f # , t.t.t.t.t.t.t.t.",
"t.t.t.t.t.t.t.t.e [ [  .8.9.q.9.6.9.0.o.2.6.@.k S S h h j k V $ t y x F @.6.%.6.%.} %.%.+.+.2.} % $ H H f 9 5 - t.t.t.t.t.t.t.t.",
"t.t.t.t.t.t.t.t.e ] | 0.q.q.q.8.%.#.2.2.8.8.2.A S Z Z Z j k g 5 ,.m | o.+.@.6.2.6.%.8.0.%.[ $.@.m ; 4 x g t.t.t.t.t.t.t.t.t.t.t.",
"t.t.t.t.t.t.t.t.t.y } 0.q.-.9.w.9.2.2.@.] | ] V k Z S Z Z j f 5 ,.( @. .6.7.7. .o.%.9.8.g g ' +.2...< 4 m 8 t.t.t.t.t.t.t.t.t.t.",
"t.t.t.t.t.t.t.t.t.v | @.} { | w.q.0.0.X.! c k Z Z c V V f f j k I } +.) 7.7...} 8.%.V f f V ' @.3.} 4 N | q t.t.t.t.t.t.t.t.t.t.",
"t.t.t.t.t.t.t.t.2 k J  .j J | q.#.%.0.2.} D Z A A k j # # f | +.#.~ | [ @.@. .$.9.8. .J g j ' n { S b j H z 4 ( ( M t.t.t.t.t.t.",
"t.t.t.t.t.t.t.t.t.z V b f F | ( {  .%.$.{ [ ~ ! ! A k f | | +.5.7.6.+.|  .o.o.{ %.6.| D l 4 a @ f S k j C V C +.+.M t.t.t.t.t.t.",
"t.t.t.t.t.t.t.t.t.t.z v N c A 5 G {  .@.$.@.D s n k k V V ' +.+.7.7.#.! | 2.$. .| A F V & i . # # f j V C x F ] ^ t.t.t.t.t.t.t.",
"t.t.t.t.t.t.t.t.2 t.4 c c j c 5 h o.%.$.%.%.| 8 p j k j V j S | 2.6...1.2.%.%.+. .m L 3 & p : Z c $ g g j j ] +.^ t.t.t.t.t.t.t.",
"t.t.t.t.t.t.t.^ o.^ J S j j V Z [ %.%.} F %.] g I G j j | [ ' @.6.6.2.7.7.[ 2.2.+.J 0 ;.s s 5  . .@ h k f V V {  .B t.t.t.t.t.t.",
"t.t.t.t.t.t.t.( +.+.{ ] V j D D ' @.} G & # f j  . .+.j %.2.' 7.7.7.$.$.o.D $.0. .V f 8 s % # D { c [ [ j C C C h t.t.t.t.t.t.t.",
"t.t.t.t.t.t.t.F -.0.%.{ f f Z J J [ ' h # f A c D ' +. .%.2.@.8.7.7.#. .| [  .~ 5 f f @ u % f S D J [ Z f f J } t.t.t.t.t.t.t.t.",
"t.t.t.t.t.W &. .#.4.@.x j J ] b n ' ] h f F | | Z V J ~ ] -.6.$.@.@.k  . .A  .g 3 $ + 7 {  .S J D D S f O  .4.4.M t.t.t.t.t.t.t.",
"t.t.t.t.t.) 9.9.-.@. .H V { { z s B h $ f f S | ' @.@.( { 9.0.-.7.$.v A k @ # $ f g % ,.| | | ]  .@.[ A A | 4...t t.t.t.t.t.t.t.",
"t.t.t.t.t.y 4.-.-.#. .F {  .| 5 0 e + # f # j D  .@.@.@.#.9.9./ 2.6.o.$ j # + f { { J :.H J ] ] @.@.| n +.-.) t.t.t.t.t.t.t.t.t.",
"t.t.t.t.t.t./ 9.0.4.-.9.0.%.@.A m L & & # f C F ]  .%.@.@.#.{ 0 W D # f j f O f A | ] F J  .J H [  .J b ]  .) t.t.t.t.t.t.t.t.t.",
"t.t.t.t.t.U 9.0.0.4.2.9.5.@.o.J J <.N J x f F V  .9.9.+.@.&.z 8 8 $ g j f f # + + K D D #.4.#.o.#. .H H @.%.3...t.t.t.t.t.t.t.t.",
"t.t.t.t.E 9.5.=.W @.%.o.b J J ] ] J J J H J | J H $.] &.4.z $ 8 L 5 f g # # f O 0 P C { 4.%.) @.@.o.-.@.@.3.%.q t.t.t.t.t.t.t.t.",
"t.t.t.t.y o.3.( b G ) 5 # c G ( ] ] | J V  . . .S S V | 9.J f + L 3 g g f f f g | { F J  .X.n { ] J %.] { | [ 4 8 W t.t.t.t.t.t.",
"t.t.t.t.t.t.; h V V v y C  .%. .| -.@.+.H -.-.+.H Z ] ] J ] J @ K h f g # g k V  .{ ] J @.#. .D H V V S 3 Z S J 3.8.< t.t.t.t.t.",
"t.t.t.t.t.t.t.8 C j j S  .-.9.-.@.4.0.3. .-.@.|  .] J H V D J g D  .( f $ A ~ J ] | #.{ |  .V f F g S S c @ 5 D @./ t.t.t.t.t.t.",
"t.t.t.t.t.t.< e C x j C | 8.9.-.-.8.8.O.^  .n {  .| V C V D D Z | 5.2.Z h ! @.| H -.9.#.Z k # # $ 3 S S Z & j @.} : t.t.t.t.t.t.",
"t.t.t.t.t.; o. .] F x # x ] ] | 8.9.3.( ! 6 + N J z c V V S S j  .%.o.A A 5.7.#.H #.8.o.V k f f # # f V f f Z @.{ Z 6 t.t.t.t.t.",
"t.t.t.t.t.t.} | J f f f c C J ] @.-.p 8 5 # # # C @ c S S V k V V  .%.@. .9.#.9.2.%.$.F V V V k f # f f f f j Z k D 0 t.t.t.t.t.",
"t.t.t.t.t.< N V f # f j C Z A D D S 0 p & f g # # 1 >.h f + j V { 9.4.%.%.%.@.4.9.%.%.} Z b A A k $ # f $ f Z Z c 6 t.t.t.t.t.t.",
"t.t.t.8 }  .] ] ] f V S H S ! ( | X...R 8 j j # $ 7 1 # # $ # V o.8.%.9.2.$.o.#.2.2.0.9.7.#.~ b 5 g f # $ j V Z 6 t.t.t.t.t.t.t.",
"t.t.t.M | @.4.#.{ J F @.2.#.! 1.9.4...` 8 5 9 & & i 1 g f f S D D o.2.9.2.{ |  .#.9.1.2.7.2.S k Z +.| j f  .[ k J q t.t.t.t.t.t.",
"t.t.t.t.n %.9...} |  .6.0.9.o.%.2.0.A p s 7 & $ 3 ;.z f f f V S { %.4.X.{ S ' +.2.9.O.(  .{ S D { @.{ j ( 9.7.j Z 0 t.t.t.t.t.t.",
"t.t.t.y *.8.9.o.%.%.@.7.9.@.%.2.2.%.{ m <.3 # c 6 S S V # # f D  .8.@.^ [ { { Z D @.| | ' D D J ' D J D $.2.+.S 4 t.t.t.t.t.t.t.",
"t.t.: 8.8.@.9.9.@.%.6.0. .} 6.7.9.2.4.%.t L B #.o.S S j f V { { D A j D  .$.$.Z Z D { | @.@.[ J ~ ~ @.$.@.| o.1.y t.t.t.t.t.t.t.",
"t.t.t./ o. .8.8.@.@.9.9.@.| 9.0.2.%.9.9.t &.$.$.$.D D # f J | [ D g f j | @. .D D { | ] @.$.o.J ) } 6.6.@.o.2.7.E t.t.t.t.t.t.t.",
"t.t.t.t.< M %.%.9.+.1.0.o.V $ #  .2.2.2.%.6.9.@. . .[ k D S # Z g # g Z Z Z D D | o.+.N J +.S S S n } @.#.) > > t.t.t.t.t.t.t.t.",
"t.t.t.t.t.7 %.9.3.2.....b f f H 8.=.b G  .9.%.S |  .o.| +.' j g j j ] ] c H | A J ~ c 3 6 Z D [ b 9 f j b 5 t.t.t.t.t.t.t.t.t.t.",
"t.t.t.t.6 b | 4./ 9.7.X.c j l b ) v g h D @.' S J | $.2.$.' S g j ' ] m o z  .+.+ @ + + & v  .+.J f f h b z < t.t.t.t.t.t.t.t.t.",
"t.t.t.t.m D D A v / #.$.h Z V 5 5 c Z G D D Z S @. .2.9.%.| k f f 5 6 % u   g 5 # # 3 $ Z S { { C & f 6 4 4 t.t.t.t.t.t.t.t.t.t.",
"t.t.t.t.t.4 4 6 c k F m 4 b Z 7 4 V { | ' +.N 9 $.2.X.1.2.@.k $ g j : = o   + + $ & @ 5 A [ S f # j g : t.t.t.t.t.t.t.t.t.t.t.t.",
"t.t.t.t.t.t.t.4 k k 6 t.t.0 6 t.7 b +. .| %.@.5 2.9.y z 6.( g g g 9 * = o + @ & f f @ 8 B | | & & j j 5 t.t.t.t.t.t.t.t.t.t.t.t.",
"t.t.t.t.t.t.t.t.: < t.t.t.t.t.t.t.( 2.#.| 3.%.h y M 1 @ . g 5 ; : . = = 3 9 3 + # f # ; t.4 m 4 t.4 3 t.t.t.t.t.t.t.t.t.t.t.t.t.",
"t.t.t.t.t.t.t.t.t.t.t.t.t.t.t.t.t./ ..E 4 @.} f 1 a = . 5 5 : t.t.X = * 5 j # # f f & , t.t.t.t.t.t.t.t.t.t.t.t.t.t.t.t.t.t.t.t.",
"t.t.t.t.t.t.t.t.t.t.t.t.t.t.t.t.t.t.; t.: g j f . = = 7 j g : t.t.o = ; g j # @ j g : t.t.t.t.t.t.t.t.t.t.t.t.t.t.t.t.t.t.t.t.t."
};
