/* XPM */
static char *_1aaf2b6ff1f49f1f2e5a7283e31b1d8REIu7MeiBm4Bq1TW[] = {
/* columns rows colors chars-per-pixel */
"64 64 174 2 ",
"   c None",
".  c #2B1E00",
"X  c #1D3200",
"o  c #2E2100",
"O  c #322300",
"+  c #352800",
"@  c #213700",
"#  c #233C00",
"$  c #563C00",
"%  c #593E00",
"&  c #264300",
"*  c #294500",
"=  c #2C4C00",
"-  c #304E00",
";  c #2F5100",
":  c #325400",
">  c #355B00",
",  c #395E01",
"<  c #376101",
"1  c #3B6202",
"2  c #3E6901",
"3  c #5F4300",
"4  c #614300",
"5  c #674900",
"6  c #694900",
"7  c #735000",
"8  c #426C02",
"9  c #457501",
"0  c #487602",
"q  c #457801",
"w  c #457800",
"e  c #477800",
"r  c #477900",
"t  c #467801",
"y  c #477801",
"u  c #467901",
"i  c #477A01",
"p  c #477802",
"a  c #467902",
"s  c #477A02",
"d  c #477B02",
"f  c #477A03",
"g  c #467804",
"h  c #467902",
"j  c #497801",
"k  c #487901",
"l  c #497901",
"z  c #487801",
"x  c #497A00",
"c  c #497B00",
"v  c #487A01",
"b  c #487B01",
"n  c #4A7B00",
"m  c #487802",
"M  c #487902",
"N  c #497902",
"B  c #487803",
"V  c #4B7802",
"C  c #4B7803",
"Z  c #4A7903",
"A  c #487A02",
"S  c #497A02",
"D  c #487B02",
"F  c #497B02",
"G  c #497A03",
"H  c #4A7A02",
"J  c #4B7A02",
"K  c #4B7B02",
"L  c #4B7A03",
"P  c #4A7A03",
"I  c #4C7A01",
"U  c #4C7902",
"Y  c #4C7B02",
"T  c #4D7B02",
"R  c #4C7B03",
"E  c #487C01",
"W  c #497C01",
"Q  c #4B7C00",
"!  c #4A7C01",
"~  c #4B7C01",
"^  c #4B7D01",
"/  c #4A7E01",
"(  c #487C02",
")  c #497C02",
"_  c #497D03",
"`  c #4B7C02",
"'  c #4A7D02",
"]  c #4B7D02",
"[  c #4A7C03",
"{  c #4B7C03",
"}  c #4A7D03",
"|  c #4B7D03",
" . c #4B7E02",
".. c #4B7F02",
"X. c #4B7E03",
"o. c #4B7F03",
"O. c #4C7C01",
"+. c #4C7D01",
"@. c #4C7C02",
"#. c #4D7C02",
"$. c #4C7D02",
"%. c #4D7D02",
"&. c #4D7C03",
"*. c #4C7D03",
"=. c #4D7D03",
"-. c #4E7D02",
";. c #4D7E02",
":. c #4C7E03",
">. c #4D7E03",
",. c #4C7F03",
"<. c #4D7F03",
"1. c #4E7E03",
"2. c #4E7F03",
"3. c #4B7804",
"4. c #4B7B04",
"5. c #487A06",
"6. c #4C7B04",
"7. c #4D7A04",
"8. c #4A7D04",
"9. c #4A7E04",
"0. c #4B7E04",
"q. c #4B7E05",
"w. c #4B7F05",
"e. c #4C7C04",
"r. c #4C7D04",
"t. c #4E7C04",
"y. c #4E7D04",
"u. c #4C7E04",
"i. c #4C7F04",
"p. c #4D7F04",
"a. c #4D7F05",
"s. c #4E7E04",
"d. c #4E7F04",
"f. c #4F7F04",
"g. c #4F7F05",
"h. c #4D7D06",
"j. c #4D7E06",
"k. c #4D7F07",
"l. c #4E7E06",
"z. c #4E7F06",
"x. c #4F7F06",
"c. c #4E7F07",
"v. c #4B7C03",
"b. c #487808",
"n. c #507F04",
"m. c #517F04",
"M. c #517F05",
"N. c #507F03",
"B. c #4A8003",
"V. c #4D8002",
"C. c #4E8003",
"Z. c #4B8104",
"A. c #4D8004",
"S. c #4D8104",
"D. c #4E8004",
"F. c #4E8204",
"G. c #4E8007",
"H. c #4D8206",
"J. c #4E8306",
"K. c #4E8207",
"L. c #4F8307",
"P. c #4E8105",
"I. c #508203",
"U. c #508104",
"Y. c #508107",
"T. c #508206",
"R. c #518206",
"E. c #518306",
"W. c #508207",
"Q. c #518106",
"!. c #538308",
"~. c #538509",
"^. c #518508",
"/. c #578C0D",
/* pixels */
"    : : > ; , 1 g K.v ( 9 9 B v ( ( Y.Y.9 9 h.h.=.N.9 9 V.=.=.=.9 9 V.K.( =.V.U.( ( =.=.v v t.t.K.K.( ( m.m.h.v =.V.9 9 v v v v ",
"      - > : < 1 9 K.v v 9 9 B v v v Y.Y.9 9 h.=.=.=.9 f =.=.V.=.9 9 h.V.=.h.I.U.v v ( ( v v =.h.Z.K.( ( m.m.( =.h.V.9 9 =.t.v B ",
"    : : < 1 > > 8 7.h.B.=.h.f f B B v ( q.h.=.t.f 9 f 9 K.V.=.V.=.V.9 9 f f F.L.B v v v Y.Y.=.( =.=.h.K.=.=.f 9 ( ( ( f =.=.N.U.",
"    : - = , : > 8 b.q.K.t.=.f f B B =.( ( ( =.=.9 9 f f V.K.V.V.K.=.9 B 9 f L.G.v v v v Y.Y.( =.h.h.h.h.=.=.9 9 ( =.v f =.=.U.U.",
"      : * : 1 1 1 9 ( =.v B v v f f V.E.( ( B 9 f v B.=.f f v f m.m.B B =.=.v v =.B.f f !.~.f v 9 9 ( =.Y.I.=.=.v v =.=.=.=.v v ",
"      : = = , 1 1 8 =.( B v v v f f Y.Y.=.v 9 9 v v B.Z.v 9 v ( h.N.v B V.K.B B ( =.f 9 !.^.f v 9 9 ( ( Y.E.=.=.t.v =.=.t.v B v ",
"        : = : : , 1 9 f v v =.h.9 9 v t.t.v N.N.B v 9 2 9 9 v 3.v ( v t.B B ~.~.( h.h.=.h.h.Y.h.=.V.9 9 E.K.h.h.Y.Y.t.t.=.v t.v ",
"        : = = = , 1 8 f t.t.( =.9 9 t.t.B t.U.U.v B 9 2 9 9 v 3.( ( t.v 0 B ~.~.v =.=.=.K.( h.m.( ( 9 9 Y.E.K.h.E.E.t.t.( t.B t.",
"        : = * = > > < 9 ( v C C K.h.v B ( =.( ( v v t.3.=.=.K.h.v v U.N.V.V.f v =.V.9 9 t.v 9 9 v ( Z.Z.V.=.B B U.U.( =.9 9 v v ",
"          : = = ; > , 9 q.v C C V.h.B B ( =.( ( g v v v K.=.h.h.v v m.N.V.V.f v =.=.9 9 =.( 9 9 ( ( ( Z.U.=.B v U.U.=.( v B f v ",
"          : = - : : , t.9 9 t.B f 9 =.=.=.=.( =.t.t.v B ( ( =.B.F.V.( =.9 9 V.K.=.=.=.( v t.K.V.=.K.9 2 f 9 ( ( ( =.( B.B.=.=.( ",
"          : * = = > , v 9 9 B t.9 9 =.=.( =.=.( t.v 9 v =.( V.V.F.K.B.=.9 9 U.V.( ( =.=.=.v =.K.V.=.9 9 9 f =.v ( ( V.( =.=.V.=.",
"          = * = ; , > 9 h.( K.h.=.=.v v v v ( =.t.t.9 f =.=.( V.=.=.B B v =.( h.E.E.V.h.B B q.( =.t.v t.V.V.t.v ( V.( ( v q.h.Z.",
"          = = = : , > 8 =.h.K.Y.=.=.t.B v v h.( v =.w w V.=.=.( =.=.v 9 v =.h.=.E.Y.V.V.B B ( ( ( =.t.v V.=.t.t.V.=.( ( v B Z.q.",
"          = - - > > , 8 =.=.9 9 t.=.0 0 B B m.m.v t.( ( B.=.=.=.B B ( B.v f f v 9 9 =.=.B b.h.=.=.v 9 9 =.=.h.h.v t.3.t.v f 9 f ",
"        : = : : : > , 9 =.=.9 9 t.t.0 0 0 B m.m.t.=.q.V.V.=.=.=.9 B =.=.v f 9 v f 9 V.=.B B 3.h.=.=.9 9 =.=.h.m.C B 3.v B 9 f 9 ",
"        > = : : , 1 8 B t.t.^.F.h.=.B B C C B 9 ( v N.=.9 9 ( ( v v B 9 B C v t.K.V.=.( L.F.h.( v v N.N.9 2 Z.q.E E 9 9 f v 9 9 ",
"          = * = : 1 8 B t.t.F.F.=.N.B B C C f f v v =.=.2 9 v v v v B B B B v v V.V.=.=.F.F.( h.v B m.N.2 2 B.B.( f 9 9 v v 9 9 ",
"          = # = ; , 9 E B t.t.=.( v =.=.t.t.9 0 =.K.9 B ( t.9 9 B B =.( t.t.f 9 t.v =.V.f 9 v v =.K.( =.9 f g g =.=.=.h.v 9 v ( ",
"        : * # = ; , 8 E v v ( =.t.v =.( v C 0 0 K.h.9 9 v v 9 9 B B ( ( v t.f v v t.=.=.9 9 v B h.h.h.( f 9 g 9 ( V.=.q.B v ( q.",
"      > : = @ = = : 2 2 f f t.v v t.( =.Y.K.9 9 t.v v v 9 8 v B f f 9 f Y.m.Y.Y.h.h.h.K.9 9 9 0 =.=.B B v v v t.9 9 v v v ( v 9 ",
"      > : - - - = = , 2 9 v v v t.v V.=.K.Y.9 9 v q.v v 2 9 B B f f 9 f m.!.Y.Y.h.h.K.h.9 9 9 8 =.( B v 9 f t.t.9 9 v v v v f v ",
"        > - - = = - 1 9 9 9 Z.h.K.N.v v Y.Y.=.( H.G.^.^.F.F.8 9 ( =.( ( !.U.h.=.=.=.9 9 v t.f 9 =.B.V.=.E.E.9 9 t.t.=.V.9 9 q.( ",
"          - * = - = > 8 2 9 h.h.U.K.v v Y.Y.=.h.J.J.^.^.^.F.9 9 =.=.=.( U.Y.K.K.V.=.9 B v v w f V.=.N.U.E.~.9 8 v t.V.V.9 9 ( K.",
"          - * = : > : 1 8 v B v Y.Y.( ( h.q.( ( v 9 v v f f ( =.f f t.B =.V.9 9 ( ( ( f t.v ( ( d d w w N.U.=.V.=.t.h.=.v v 9 9 ",
"        : = # - , , > 1 9 9 9 v U.U.( =.q.K.( =.v v 3.v 9 f =.=.w f v v =.=.9 9 ( ( f f =.=.v v q.E w 9 U.Y.V.h.v t.N.h.v =.9 f ",
"          = # ; > > , 2 9 B B B v 9 =.=.B B =.=.Y.Y.t.v v ( U.U.B.V.=.v q.q.9 9 V.V.9 9 =.K.9 B K.K.( =.t.B B q.v v 9 9 N.=.K.h.",
"          * # ; , , < 2 9 B 9 B B 9 t.=.q.B V.h.Y.Y.=.( ( ( U.U.V.K.( =.B q.9 B V.( 9 9 V.h.9 9 V.K.=.=.B v B v v v 9 9 t.=.K.K.",
"        = * = > > > , 2 9 v ( ( v t.h.q.v v v B v v U.U.B B Y.E.( ( K.K.v v h.( V.Y.v f =.Y.V.=.( =.f B =.=.f v E f U.U.=.( ( ( ",
"      : = = = > > > < 9 B t.=.( t.v h.( B B B v B v U.Y.C B Y.Y.=.( K.Y.v v ( =.Y.V.f f V.V.=.=.=.=.B B =.=.f 9 f ( U.Y.( =.( =.",
"    : * - - = > < 1 1 2 v =.v v t.t.=.N.9 9 9 B v B v v =.=.B 9 v B ( ( q.q.=.( =.=.Y.V.=.( N.h.B v B B v v =.V.=.=.B 3.B B v v ",
"    : # : = = : 1 1 1 9 v =.v v v t.=.N.9 9 9 g B B t.v =.=.B B v q.( ( q.=.=.( ( =.V.V.=.( =.N.v B v C v v B.( t.=.v v B v B v ",
"  : ; @ = = : > 8 8 8 8 B.K.=.( U.h.9 9 K.h.9 B v t.( =.9 9 v v c.c.v v N.=.N.h.9 w q.h.=.V.=.V.=.N.h.K.C v 3.B =.=.9 8 =.V.V.K.",
"    - @ & = > > 8 =.B B =.V.=.=.N.Y.9 9 q.h.v v 3.t.=.=.9 9 B v h.h.v v =.h.N.N.9 9 q.( =.B.=.=.=.V.Y.h.v v t.t.( =.9 9 V.=.K.V.",
"    = # * = > , 1 t.N.N.=.B.B B =.=.m.c.v t.U.U.v B K.U.v v =.h.B q.v t.U.Y.9 9 Y.!.=.=.t.t.=.Y.K.h.v v Y.!.B t.=.t.V.V.2 9 9 8 ",
"      * = = : > , B U.U.( =.B B =.V.m.m.t.B Y.U.B B Y.Y.3.B =.h.B B t.v U.=.9 9 Y.Y.=.=.v t.Y.U.q.h.B v Y.Y.v v v =.V.V.g 9 2 9 ",
"      = = = * = , 8 c.b.B t.v B Y.Y.f f 9 B =.V.9 9 v v I.I.N.N.( ( f f v B K.=.9 B U.U.v v f 9 f v B 9 t.t.v v ( ( ( v H.q.B q.",
"      : * = * & 1 1 b.c.v t.v t.Y.Y.f f B 9 V.U.f f B B U.Y.=.=.=.v f 9 v v V.V.B 9 U.U.v v 9 9 B B B v t.t.=.v ( ( =.=.q.q.( ( ",
"      : * : = * , 1 h.K.U.Y.=.( w 9 9 v f f =.q.v v h.h.V.V.v v ( =.v t.=.=.=.=.9 f U.U.=.=.B v ( v =.( v ( U.U.E.Y.Y.Y.( =././.",
"        : > = = , , v ( Y.E.( ( 9 9 B v f f q.h.v v h.=.K.V.t.( ( =.v v =.=.t.t.f f E.U.=.=.v B v v =.B.t.t.U.V.!.E.Y.Y.( ( /./.",
"          : > , 8 - 8 3.7.7.( ( w 9 Y.E.( =.Y.Y.v t.f v h.h.=.( v B t.v h.( =.V.h.( v B ( ( N.N.v v =.=.V.=.f f E d Z.h.9 B N.3.",
"          : ; , : 8 8 3.3.3.( v w 9 K.E.=.( Y.Y.t.v v v h.h.=.( B B v t.( q.K.=.V.K.v q.=.( N.N.v v N.t.=.=.f f d d V.h.B 9 m.m.",
"          : = : 8 - b.M.B B 9 9 2 2 Z.( 0 B Y.E.B t.v v ( ( v f ( =.v 3.L.L.9 9 B B Y.I.h.Y.U.=.t.v K.K.( ( f f q.v h.V.0 9 Y.Y.",
"          : * : : 8 8 b.8 , , , < < 9 2 8 0 U.E.t.t.B v ( v v v =.=.v 3.F.L.g 9 B v E.I.h.h.N.U.( =.K.K.( v f f q.q.K.=.8 B Y.Y.",
"          = & : 1 1 , , , : : : > , 1 , > 1 8 9 K.=.K.K.5.Z.g b.t.v t.v =.( c.c.B t.c.c.B q.Y.E.E.^.f 9 8 0 t.t.=.=.V.h.v B t.t.",
"          : = = 1 1 , , : , : : > , , , : , 1 2 ( V.V.K.5.Z.2 2 v t.t.h.v t.h.h.9 8 8 2 8 9 h.K.E.^.9 f 0 8 v t.( ( h.V.B B t.t.",
"          : : : 1 2 , , : : 8 , , , , , 1 , 1 2 9 9 8 9 2 d b.b.B b.B 3.v 9 B b.1 , , > , 1 , 1 2 9 v =.h.b.b.B 9 f Y.Y.f 9 9 9 ",
"          : : : 1 1 , : ; # # : : : > , 1 1 > , 1 1 1 < 2 2 2 2 8 8 9 8 8 1 2 1 > > > : , , > , > > 1 1 , , 1 8 2 2 3.3.8 8 2 8 ",
"            : : : , 1 = X X # # # & > > , , > > : : > , < < < 1 > , 1 1 1 < < < , , 1 1 8 1 1 1 , , > , , : : > > , 1 1 1 , , , ",
"              : : > 1 = # * * = - & * > , , > > : > ; : > > > > > , < , < < ; : - , 1 , , 1 1 < , , > > , , , > , , > : : , , > ",
"              : : > : = - O O O O > ; = : > , > > > , < > > < < > , 1 , & # & & * = > > : > : > , , , , , , > , , , , , > > ; ; ",
"                  . . : : . O O O + O = # - , > > > 1 1 * # # * : ; ; & # & & * = ; : : * * & # * , , , > 8 - : : * : , : > ; & ",
"                  . . . . 4 4 6 7 O O : & # ; , , , & & = = ; ; * # X & & & * ; + + + : : = & # # # # # > > : # # @ # * : & # * ",
"                  % $ . o 4 4 4 5 5 6 > : * @ ; = = & * . . . . ; * & # * o o + + + + + + : = = * * * & * : = - - = * # # * = - ",
"                      $ $ 4 4 4 6 , > > : ; # # @ # & ; . . . . ; = = = ; O O O 7 7 7 O O o o O o O = = - - = O o o - # = . . . ",
"                        $ % 4 4 6 o . . . > = & # & * > $ $ 3 3 . o o o O 5 6 7 6 5 6 5 5 O o . O O O O o : : O . o O - o O . o ",
"                          % $ $ $ . . o o o : - * * = : > $ $ 3 o . . o . 3 3 3 5 5 5 4 4 3 3 3 3 5 O O O O O 3 4 $ o o o 5 6 5 ",
"                          3 % % $ $ 4 6 6 o . : : : > . . % $ $ $ $ $ 3 3 3 3 3 4 5 5 4 3 3 3 3 3 4 4 6 6 o . 4 $ $ 4 o 5 5 5 6 ",
"                          4 3 3 % 3 % 3 4 4 . o o o . . . 3 % $ $ $ $ $ 5 3 3 3 4 4 5 4 4 4 4 $ $ $ $ $ $ $ $ $ $ $ $ 4 6 6 6 5 ",
"                            6 4 5 3 % 5 4 4 4 . o o . 3 3 3 3 6 3 $ $ $ $ 5 3 5 7 5 5 6 6 6 $ $ $ $ $ $ $ $ $ $ $ 5 $ $ 4 4 4 4 ",
"                              6 6 6 3 % 3 5 5 5 3 3 $ $ $ 6 5 5 6 5 5 6 5 3 $ 5 6 6 6 6 6 6 6 6 6 6 6 6 6 6 6 6 6 6 6 % $ $ $ 5 ",
"                                        3 5 5 5 6 5 5 5 6     6 5 6 3 3 3 3 5 5 6 6 6 6 6 6       6 6 6 6               $ $ $ $ ",
"                                                                6 5 6 5 6                                                     % ",
"                                                                                                                                "
};
