/* XPM */
static char *afc26d341ad4422e9517b9dd4867a091d2vfBz0VuFqpf5i3[] = {
/* columns rows colors chars-per-pixel */
"64 64 177 2 ",
"   c None",
".  c #261A00",
"X  c #2B1E00",
"o  c #1D3400",
"O  c #1E3800",
"+  c #2F2100",
"@  c #302100",
"#  c #203600",
"$  c #233D00",
"%  c #2A3B00",
"&  c #4F3600",
"*  c #513700",
"=  c #553A00",
"-  c #5A3E00",
";  c #264300",
":  c #294600",
">  c #2D4C00",
",  c #314300",
"<  c #314F00",
"1  c #394800",
"2  c #2F5200",
"3  c #325401",
"4  c #365B01",
"5  c #395D02",
"6  c #376100",
"7  c #3B6202",
"8  c #3E6A01",
"9  c #5D4000",
"0  c #614300",
"q  c #674800",
"w  c #684900",
"e  c #426D01",
"r  c #457501",
"t  c #487602",
"y  c #477A01",
"u  c #467802",
"i  c #477902",
"p  c #467803",
"a  c #467A02",
"s  c #477A02",
"d  c #477801",
"f  c #467805",
"g  c #467901",
"h  c #487800",
"j  c #497800",
"k  c #487900",
"l  c #497900",
"z  c #487801",
"x  c #497801",
"c  c #487901",
"v  c #4B7801",
"b  c #4A7901",
"n  c #487A01",
"m  c #497A01",
"M  c #487B01",
"N  c #497B01",
"B  c #4A7B00",
"V  c #4B7A01",
"C  c #4A7B01",
"Z  c #4A7A01",
"A  c #487802",
"S  c #497802",
"D  c #487902",
"F  c #497902",
"G  c #497903",
"H  c #4B7902",
"J  c #4A7903",
"K  c #4B7903",
"L  c #487A02",
"P  c #497A02",
"I  c #487B02",
"U  c #497B02",
"Y  c #487A03",
"T  c #487B03",
"R  c #497B03",
"E  c #4A7A02",
"W  c #4B7A02",
"Q  c #4B7B02",
"!  c #4B7A03",
"~  c #4A7B03",
"^  c #4B7B03",
"/  c #4C7A01",
"(  c #4C7902",
")  c #4C7A02",
"_  c #4D7B02",
"`  c #4E7B02",
"'  c #487C01",
"]  c #497C01",
"[  c #497D01",
"{  c #4A7C01",
"}  c #4B7C01",
"|  c #4B7D01",
" . c #487E01",
".. c #497C02",
"X. c #497D02",
"o. c #487C03",
"O. c #497D03",
"+. c #4B7C02",
"@. c #4B7D02",
"#. c #4A7C03",
"$. c #4B7C03",
"%. c #4A7D03",
"&. c #4B7D03",
"*. c #4A7E03",
"=. c #4B7E03",
"-. c #4D7D01",
";. c #4C7C02",
":. c #4C7D02",
">. c #4D7D02",
",. c #4C7C03",
"<. c #4D7C03",
"1. c #4D7D03",
"2. c #4C7E03",
"3. c #4D7E03",
"4. c #4D7F03",
"5. c #4E7E03",
"6. c #4E7F03",
"7. c #487A04",
"8. c #497A04",
"9. c #4B7A04",
"0. c #4B7B04",
"q. c #4B7B05",
"w. c #497C05",
"e. c #4B7C04",
"r. c #4A7D04",
"t. c #4B7D04",
"y. c #4B7E04",
"u. c #4B7F04",
"i. c #4C7C04",
"p. c #4C7D04",
"a. c #4D7D04",
"s. c #4E7D04",
"d. c #4D7E04",
"f. c #4D7F04",
"g. c #4C7E05",
"h. c #4E7E04",
"j. c #4E7F04",
"k. c #4E7E05",
"l. c #4E7F05",
"z. c #4C7C06",
"x. c #4C7E06",
"c. c #4D7F06",
"v. c #4B7C02",
"b. c #517F06",
"n. c #507E05",
"m. c #4C8003",
"M. c #4D8004",
"N. c #4D8104",
"B. c #4C8005",
"V. c #4E8004",
"C. c #4E8104",
"Z. c #4F8105",
"A. c #4F8104",
"S. c #4F8106",
"D. c #4E8107",
"F. c #4F8107",
"G. c #4F8306",
"H. c #4E8105",
"J. c #4F8208",
"K. c #518005",
"L. c #508005",
"P. c #518304",
"I. c #518305",
"U. c #508205",
"Y. c #508106",
"T. c #508007",
"R. c #508107",
"E. c #518206",
"W. c #518306",
"Q. c #518307",
"!. c #508307",
"~. c #538407",
"^. c #558507",
"/. c #518206",
"(. c #55870A",
"). c #528409",
"_. c #54880B",
/* pixels */
"D.D.x x u.u.4.<./ / r r N.N.y y 4.{ W.b.(.^.r K D.D.W.W.D.D. .{ 4.4.f x r r y y y f x / 4.{ 8.<.x x { 4.J.J.x e 5 5 3 : >       ",
"D.D.x x { { / <./ / r r N.N.r y { { W.W.^.^.K K m.W.j.b.D.D. .f 4./ x y r r x y y u x 4./ 4.<.<.x y { 4.J.W.4.r e 4 3 3 >       ",
"4.4.j.j.K K r K 8.u./ /  . .x { / 4.u.j.r r ^.^.x x r x m.o.r u x y { y j.u.u.u.a u { { y y x <.8.u.j.x.K r / r 5 > : >         ",
"4.4.j.j.K K r r u.x / n. .{ { { / 4.8.u.r r ^.W.u.x y y N.N.8 r y x  . .D.j.u.u.8 u { { r x <.t u.u.x.x.r K / r 5 1 % >         ",
"D.4.y x D.W./ K j.4.{ / { u.y K x { y y K K f r r r w.z.r r y x ).j.t r r K r r { { f f { j.4.{ D.m.{ { y y { r 5 3 > > 3 4     ",
"m.m.x x D.W./ / j.D./ x N. .x r x x y y K K y f r K <.8.r K  .x j.W.8.K r r r r u.{ y f j.{ 4.4.W.m.u.x r t { e 5 3 3 < : 5     ",
"x 8.f f x y D.m.y r W.b.y  .r r { B.o.x K r 8.j.W.P.x K r r 8.8.r r 8.{ 4.{ x { { j.4./ 4.4.r r x x j.j.u.8.K 8 5 5 5 5 ; 3 7   ",
"x x f f y y m.D.x x b.W.f f r r { N.f x x r j.<.P.W.x y K r 8.f r r u.{ x { { { 4.j.x / 4./ y r x 8.j.j.8.u.r e 7 5 5 4 $ : 7   ",
"j.j.<.u.x u.B.B.r K j.x j.{ D.D.P.P./ / j.j.<.8.8.8.x x x 8.j.<.x 8.o.o.W.W.8.<.j./ j.c.<.<.8.8.m.P.(._.{ x K e 7 5 4 3 ; $ 3   ",
"D.j.j.j.u.{ B.D.r r x x u.4.m.m.W.W./ / c.<.8.<.x u.x K 8.t j.j.x y o.o.W.D.<.8.j.4.c.c.u.j.j.<.m.m.(._. .y K r 7 5 4 4 : ; 3   ",
"8.x w.w.8.j.j.{ x { u.8.4./ K r 8.8._._.8.x j.n.j.u.j.j.8./ r t r r y x  .{ 8 r r K j.c.f { 8.y ~.W.x y { { y r 7 5 3 > : $ 3   ",
"8.x u.8.<.8.{ x x x u. .4.4.r r 8.8._._.x 8.j.4.<./ j.j.<.8.r K y r x f  .m.u r r r c.j.y u.y x ).W.x x { { y e 7 5 3 3 : ; 2   ",
"x x r r 8.<.u.u.4.x 4.x K K x 4.o.f r r / j.K r 8.8.j.j.W.W.j.<.8.8./ x j.j.{ { x 8.4.4.u.j.K r 4.8.r r / 4.r 8 e 3 5 5 > < >   ",
"u.u.y r <.8.8.u.x 4.x { K K / 4.y { r r / / r y j.<.j.j.W.W.<.j.y u.{ x <.<.u.{  .x u.j.u.u.r K x j.r r 8.<.K 8 4 < 5 5 > <     ",
"u.8.4.x 8.x x r W.b.y x / x j.u.r x 4.4.K r m.m.D.D.r r D.D.r y r r r 8 / x { x r 8 N.y 8.x <.<.B.B.8 8 r r ( e 3 , 4 4 > >     ",
"8.u.<.j.u.{ y r b.b.x x / / 8.<.r K 4.4.K r { 4.W.J.y r D.J.y y f r e r 4.4.{ u.r r  . .x 8.<.8.B.N.8 r r r ( 7 3 < 4 3 $ :     ",
"D.b.x y y y 4.4.4.n.4.u.r r r r r r D.4.4./ j.{ P.m.W.P.K r x { <.u.{ { K r / / <.j.8.u.y y y y G.).r r r r r 3 3 7 4 > ; :     ",
"j.W.x r r y 4.4.4.n.{ u.r r r r r y m.m.4.n.u.u.m.P.W.W.y x x x j.j.{ x r r / x j.j.x x  . .f  .G.G.r x r 8 4 > 3 7 < : : >     ",
"4./ K K { x D.D.P.m.{ j.c.c.8.8.y x ).~.r r D.D.{ { { x x o.j./ x j.r x r r { D.J.).8.j.j.c.x x y x D.4.f r 3 > 3 > >       4   ",
"/ 4.r r x { D.D.m.D.j.{ c.c.j.8.y f )._.r r D.D.4.4.x x y x j.4.4.x K r r r 4.4.D.J.<.j.c.c.x x x y j.j.f r 5 > 4 4 >     4     ",
"r r / 8.x y { { u u y r y r x 4.j.u.y r D.j.x x { { 4.{ x u.j.{ x  .r e u.x / 4.n.P.x { 4.{ { { D.j.8.j.K r 7 5 5 5 > 7   4     ",
"K K / <.y x { 4.y y r y r r / x u.u.r y m.W.x x 4.{ x 4.j.u.x x x o.e r u.{ / x n.n.{ { 4.4.{ { j.j.u.j./ e 5 5 5 5 5 3         ",
"x { <.<.<.<.K r m.G. .y j.j. .f x <.c.j.{ x x x 4.4.r y x x / j.x.o.x { K r W.W.K x x x m.W.r y 8.8.4./ b.t 3 4 5 5 5           ",
"4.{ j.<.<.<.r K D.D.y  .j.j.f f <./ u.j. .{ x y 4.m.x y x x 4.4.f u.x y r K W.j.K x x x P.P.y y x x 4.4.b.e 4 4 5 5 >           ",
"r r y y y  .x { { { y x x x r y r r r 8.y x W.W./ / j.j.j.j.4.u.f y 8.4.y u  .{ K r { { ).).x x x x D.b.e 5 5 5 4 4 : 3         ",
"r u x x { x { x u.u.x y x x y r r e 8.x r K W.P./ 4.j.j.4.m.x j.r y j.j.r u 4.{ y x { 4.).).x x x x P.j.5 4 4 5 5 3 : 2 4       ",
"{ { { { 4.{ / / 4.4.x x { u.u.8.8.8.y r j.u.y x { 4.).).{ x N.4.j.<.b.c.4./ y K x 8.x / G.D.m.m.D.4.T.^.e 5 5 3 > ; > 3         ",
"{ { {  .{ { j.4.{ { x x { { 8.u.<.8.y y j.{ K x { { ~.~.x x { D.j.j.b.b./ / y r x 8.x x J.W.P.n.u.j.T.b.e 5 < < % 3 7 5         ",
"j.<.D.B.y y (.(.W.W.4.4./ j.j.j.8.8.{ { <.<.x f x y / / y r / / B.D.r K x f r r <.<./ { K 8.u.j.j.j.f r r 4 < > : 5 8   4       ",
"<.<.D.J.r K ).(.b.j.4.j./ 8.j.j.x f { { <.8.f y y y x x y x / 4.B.D.r r u.f r r / / 8.{ r t j.j.u.u.f f e < > : > 7             ",
"j.4.t 8.j.c.u.j.j.m.K x r y x y {  .r r j.m.x y j.j.<.<.8.8.x x x 8.K r x r y y 4.x j.4.K r D.D.D.D.x { f < : : 3 7             ",
"<.<.t t u.u.<.8.D.4.r r r r { { { { r 8 D.m.y r u.u.j.u.u.x x x 8.<.r r 8.y y r { / j.4.r K D.D.W.J.u.x f 7 3 > 3               ",
"{ { x x x x P.m.{ 8.m.D.x x 8.u.t t b.b. .{ W.D.P.D.u.x { { D.j.x 8.G.).~.~.x y y y j.4.b.n.J.j.8.<.r r t e 1 3 4     5         ",
"x { x x { x 4.P.8.{ m.m.x x 8.8.t t b.j.8.x ).).P.W.x x 4.{ j.j.{ x ).G.~.^.y x y x j.4.P.n.j.).x x r r f e 5 > 5 > 7 3 7       ",
"{ 4.4.{ x { { { r r y y r r 8.8.).).j.j.).W.8.x j.W.x 8.r r <.<.j./ f f 8.u.x y / / W.W.x 4./ <.u.u.8.x e 5 4 3 > % 5 2 3       ",
"4.{ { { { x 4./ r K r y r e 8.8.).).j.j.).W.u.x D.b.8.<.t v x 8.j.j.y r 8.8.y x 4./ b.W.4.{ / <.x u.x x e 5 4 < : o $ > 3       ",
"r r ~.~.u.8.W.P.4.4.{ u.x f D.j.8.8.x x y r K r 4.j.x { c.z.f r j./ { 4.y y ~.~.u r y x m.{ r r x u.{ r 7 4 4 3 > $ $ 2 2       ",
"K r W.W.8.u.P.n.x 4.u.u.x x 4.4.8.j.y x x r r r <.<. .u.8.j.r r 8.u.j.4.y x ~.D.u u y r 4.4.r r x x x r r 7 4 4 3 < : 3 > 7     ",
"/ { ~.).y r r r r 8 r r j.j.4.{ 4.4.8./ x y u.j.W.W.r x r x 8.8.{ u./ u.j.u.D.D.8 a { { x 8.4.{ K r 4.4.r r 7 5 5 4 2 > > 3     ",
"u.x (.(.r y y y 8 r r e b.D.{ { n.4.<.8.x x 8.u.).).r K y y x t x u.{ x u.j.D.).r r { x x 8.{ { r r 4.4.y r f 7 5 4 3 4 > 4     ",
"j.b.D.W.4.m.y r j.j.u.<.x x r x W.).x { 4.4.r y W.~.D.D.m.P.u.u.8.r D.D.r r r r r 8.r K x K y x y y r f x 8.8 6 5 4 3 7 7 3     ",
"j.J.D.j.m.D.u y j.D.8.<.x 8.y x ).).8.x { { y r W.W.D.D.4.4.u.u.f K D.D.r r r r r r r r r y x x y x r r 8.y 7 4 4 < > 7 7 8     ",
"8.8.8.8.x x { { u.{ <.8.j.x D.P.r 8.x x 4.j.y 8.K K K K n.` <.<.{ 4.4.4.K.P.r r x r / <.x { f r j.D./ <.r r 7 6 3 > < 3 4 4     ",
"x y 8.8.u.x { D.{ { 8.u.8.4.D.m.x x x 8.4.j.x r r r K K n.n.8.z.{ { m.{ b.b.r r x K j.8.x y u r m.4.4.x r r r 5 4 > < 3 3 3     ",
"u.u.y u.j.4.x { 4.n.r r x K r r j.b.t v K r x x r x u./ f f f f K r b.D.4.4.r r { j.r r y r r r x x m.4.8.u.r 5 4 > > > 3 r 3   ",
"f u.8.y 4.4.x y x x r r x K r r c.b.t r r e { D.8.y <.u.z.f f f r K W.D./ 4.r r <.j.r r r r r e r e { { j.8.r 5 5 > > : 3   4   ",
"r f r r r 8 r e 8 7 e e e r <.8.K r f e 7 5 r / f K f r e 7 f f 8 8 8 r r u D.W.{ r 8 6 4 4 5 5 5 4 r { u.u.8.e 7 3 > : 2   3   ",
"8 e r 8 6 6 8 7 4 4 5 7 7 8 e e e 7 e 7 5 4 7 r 8 8 7 4 3 > 7 7 4 4 5 7 8 r 4.j.r 7 4 4 4 4 5 4 3 4 8 8 8.u.<.r 3 > > 3 <       ",
"7 8 8 5 4 4 5 5 5 4 4 4 7 7 5 5 5 4 5 5 5 4 4 4 5 5 3 4 4 3 > < 3 > 3 3 4 7 4 6 3 3 5 5 4 4 7 7 3 > 3 4 8 8.4.5 > < 3 4 3       ",
"5 7 4 4 4 5 7 5 4 4 > > 5 7 4 4 4 4 4 4 3 2 > 3 3 4 2 > 3 2 > < 3 3 < > 2 2 > 2 > : > ; : > 4 6 4 4 4 4 5 8 e 5 > < 4 7 3 u.    ",
"> > > > 5 5 5 4 7 3 > < 4 4 2 3 5 2 > > : > > < > > > 2 2 5 6 6 4 4 4 4 2 > > > > : o o $ ; 2 4 3 3 4 4 4 5 4 4 3 4 5 7 7 7     ",
": > > > 3 3 4 4 7 4 3 4 3 5 2 2 2 > > > > > : : > : $ $ 4 6 6 : ; > 5 5 2 ; O $ ; ; ; O : > > 4 > > 4 5 7 4 4 4 3 7 5 > : 4     ",
"$ : > 2 $ O 2 4 3 3 > 4 4 4 4 3 2 : > > 2 $ $ > ; o ; O > 4 4 2 ; : 2 > ; $ > : > ; ; ; 2 2 2 : . > 3 8 4 : > 2 4 4 4 : : >     ",
"$ $ $ $ $ ; $ ; 2 : O 2 : : : 4 > : 2 > ; + + + ; ; + X 2 2 ; + + : 2 2 2 : : + 2 ; : 3 @ + + : . X 2 % ; + X ; ; 4 ; > 4       ",
". + % % > + X > O : $ . . 2 : : 4 > + + + + + @ @ @ @ + + + : + + 3 + + 2 : + + + : + + w X @ : 3 @ @ @ + @ @ @ + . % +   3     ",
". X . 1 + + @ 2 2 + : + + + 2 ; ; 3 + @ + = 9 - @ @ = 9 + + + & 9 + + + + 2 + 9 + 3 + w w q 9 @ @ - @ @ + - w @ + + X     4     ",
"0 - X X @ w - < + + + = q q X + : @ = w w w w w = w w w q = + * & + & 9 9 ; 9 9 w @ - w = 9 q @ @ = = w w w w w q 9 +   4       ",
"w 0 0 X w - - @ + 9 @ = 9 w @ + : @ = w = = = = 0 9 9 & & = = = 9 & 9 & 9 + q 9 w w w w w w w w = - = = = w w w q q             ",
"q w w w w w - @ = 9 = w w w w = X = = = - - - - 9 * & * = = 9 9 & & 9 9 9 + q q w - - w w w = w - 9 - 9 0 w w = 9 w 9           ",
"w - - 0 - - - - = = = w w 9 - 0 @ - 0 q 0 0 9 0 9 9 9 w w q w 0 9 q q 9 9 9 9 9 w 0 0 w w w w w - 0 0 9 9 9 9 = 9 9             ",
"= = = 9 0 0 - 9 - - - = - = - - 0 q w w w w w w q w w w w w w w w 9 w 0   w w w w q 0 w q 9 - 9 0 0 - - = 9 9                   ",
"= = =   w 9 - 9 - - - 9 9 q 0 0 q w   w w w w w q w w w                             w w w w w w 0                               ",
"=               - 0 9 9 9 9                                                                                                     ",
"                                                                                                                                "
};
