/* XPM */
static char *result[] = {
/* columns rows colors chars-per-pixel */
"64 64 256 2 ",
"   c #010101",
".  c #0C0C0D",
"X  c #080507",
"o  c #0A0A13",
"O  c #131414",
"+  c #1A1B1C",
"@  c #181715",
"#  c #140A0D",
"$  c #25070A",
"%  c #360A09",
"&  c #261717",
"*  c #371E1D",
"=  c #281010",
"-  c #342C17",
";  c #1A1B26",
":  c #151735",
">  c #1E292D",
",  c #272728",
"<  c #37373C",
"1  c #2F2B33",
"2  c #550404",
"3  c #491407",
"4  c #4A3015",
"5  c #4C2C34",
"6  c #6D231D",
"7  c #33410F",
"8  c #534A1D",
"9  c #6F4F13",
"0  c #4C4824",
"q  c #70662C",
"w  c #0F0B4E",
"e  c #0C255C",
"r  c #383843",
"t  c #342649",
"y  c #2F0F7A",
"u  c #192671",
"i  c #282968",
"p  c #2E2D7A",
"a  c #211155",
"s  c #53145D",
"d  c #4C3646",
"f  c #543C4C",
"g  c #652357",
"h  c #442F62",
"j  c #364362",
"k  c #45484A",
"l  c #55464A",
"z  c #555759",
"x  c #4D5250",
"c  c #575767",
"v  c #47437B",
"b  c #5A5C74",
"n  c #524D6C",
"m  c #664F6C",
"M  c #596470",
"N  c #69666A",
"B  c #686A75",
"V  c #6C7475",
"C  c #75787C",
"Z  c #766E6C",
"A  c #960202",
"S  c #A60000",
"D  c #B40404",
"F  c #8D332E",
"G  c #B02A31",
"H  c #83192E",
"J  c #C60C15",
"K  c #E30108",
"L  c #F71809",
"P  c #DB3B00",
"I  c #F42215",
"U  c #CF0E31",
"Y  c #FE1427",
"T  c #EA122D",
"R  c #EF2A32",
"E  c #D03536",
"W  c #845130",
"Q  c #AB5826",
"!  c #8F782E",
"~  c #B96A2E",
"^  c #BF721F",
"/  c #F14C32",
"(  c #D86C24",
")  c #E15E17",
"_  c #A21941",
"`  c #BB215D",
"'  c #A4246B",
"]  c #C7374C",
"[  c #E72643",
"{  c #F9294A",
"}  c #C53872",
"|  c #E41F56",
" . c #8B6D58",
".. c #85696F",
"X. c #AA7951",
"o. c #EB5457",
"O. c #EE7541",
"+. c #738C7E",
"@. c #AE8D2F",
"#. c #A9B52B",
"$. c #B0AE3B",
"%. c #B2901C",
"&. c #FF8F09",
"*. c #F78D10",
"=. c #FDB917",
"-. c #F2AD13",
";. c #CAAF31",
":. c #DF9E28",
">. c #FED110",
",. c #FBCD36",
"<. c #F7E730",
"1. c #96874A",
"2. c #AF8552",
"3. c #B8BB53",
"4. c #948766",
"5. c #AB8A6E",
"6. c #A6AC6C",
"7. c #9EAE5A",
"8. c #CE8759",
"9. c #EC9A53",
"0. c #D3AE4C",
"q. c #EEB452",
"w. c #E59767",
"e. c #F19F64",
"r. c #F6AC6D",
"t. c #B2C86E",
"y. c #D8DA52",
"u. c #F9D74D",
"i. c #FAE850",
"p. c #F6D56C",
"a. c #F6D671",
"s. c #F7E770",
"d. c #1D1893",
"f. c #14338F",
"g. c #28278A",
"h. c #2F3697",
"j. c #2D2FAE",
"k. c #1B17A6",
"l. c #5E2598",
"z. c #374998",
"x. c #3C6FBC",
"c. c #1D6197",
"v. c #484793",
"b. c #51558D",
"n. c #586694",
"m. c #6A6A83",
"M. c #757888",
"N. c #767898",
"B. c #716B8A",
"V. c #4840A0",
"C. c #4F73BE",
"Z. c #6B71BD",
"A. c #0B31D5",
"S. c #333BCB",
"D. c #2834F8",
"F. c #041ED9",
"G. c #4E3FC9",
"H. c #7D2DC7",
"J. c #2E44CB",
"K. c #1754EE",
"L. c #3949FC",
"P. c #3B4DEE",
"I. c #2F67F4",
"U. c #2F63D8",
"Y. c #5658D1",
"T. c #4654FF",
"R. c #504DE8",
"E. c #635EED",
"W. c #4968FC",
"Q. c #5E7AFD",
"!. c #596AFF",
"~. c #696EF1",
"^. c #467DCA",
"/. c #8D7794",
"(. c #AF4CBB",
"). c #A2619B",
"_. c #C7739A",
"`. c #B349C7",
"'. c #5D8393",
"]. c #7A8486",
"[. c #7C8893",
"{. c #739184",
"}. c #7389AD",
"|. c #7FAC9F",
" X c #708FFC",
".X c #549DFE",
"XX c #67C7EC",
"oX c #878B8B",
"OX c #8E9289",
"+X c #878B95",
"@X c #889397",
"#X c #94989B",
"$X c #988B9A",
"%X c #B49A91",
"&X c #92A484",
"*X c #B7A797",
"=X c #979CA4",
"-X c #9495B7",
";X c #898EA7",
":X c #9AA5A7",
">X c #9EB0B5",
",X c #A3A5A8",
"<X c #B5B6AE",
"1X c #A8B4B8",
"2X c #B3B8BC",
"3X c #AAACB2",
"4X c #CFB08F",
"5X c #DABEA4",
"6X c #DE8D91",
"7X c #9BC9BB",
"8X c #D7CCB3",
"9X c #E6D39D",
"0X c #9FA8CA",
"qX c #AEB7CD",
"wX c #9EBDFF",
"eX c #8A89DA",
"rX c #CCBAE8",
"tX c #FCBEC4",
"yX c #BCC5CA",
"uX c #B7C6D4",
"iX c #B7D5DB",
"pX c #A4DDE6",
"aX c #99E5F3",
"sX c #86C6D9",
"dX c #C6C8C8",
"fX c #C7CBD4",
"gX c #C2D5DC",
"hX c #C9D6DD",
"jX c #CED6D2",
"kX c #D1E3D7",
"lX c #ECEBD3",
"zX c #C9DAE2",
"xX c #D4DAE4",
"cX c #C2CAE0",
"vX c #CEE6ED",
"bX c #CCE3E8",
"nX c #D1E6ED",
"mX c #DCE4EA",
"MX c #D2E8EF",
"NX c #DBE5E9",
"BX c #D5EAF1",
"VX c #DBEEF4",
"CX c #D7E6F4",
"ZX c #DFF0F5",
"AX c #DAFEFF",
"SX c #CEE3FD",
"DX c #E2EEF4",
"FX c #E4F1F6",
"GX c #E8F2F7",
"HX c #E6F3F9",
"JX c #EAF3F8",
"KX c #EAFFFF",
"LX c #FEFFFE",
"PX c #F5F9FD",
"IX c #EFEEEE",
"UX c #F9C1CE",
/* pixels */
"PXJXJXJXJXJXJXJXJXJXJXJXJXFXVXVXBXvXMXBXVXVXFXJXJXJXJXJXJXJXJXJXJXJXJXFXZXZXVXvXvXvXVXBXFXJXJXJXJXJXJXJXJXJXJXJXJXGXZXVXVXVXvXMX",
"JXJXJXJXJXJXJXJXJXJXJXJXJXFXZXMXvXnXVXVXGXGXJXJXJXJXJXJXJXJXJXJXJXJXGXFXVXBXvXvXMXVXFXJXJXJXJXJXJXJXJXJXJXJXJXJXJXFXZXZXMXvXMXMX",
"JXJXJXJXJXJXJXJXJXJXJXJXGXVXMXvXnXBXDXGXJXJXJXJXJXJXJXJXJXJXJXJXJXJXJXVXVXvXvXBXZXFXJXJXJXJXJXJXJXJXJXJXJXJXJXJXJXZXVXMXnXnXVXFX",
"JXJXJXJXJXJXJXJXJXJXJXFXZXZXMXvXBXVXGXJXJXJXJXJXJXJXJXJXJXJXJXJXJXJXFXVXBXvXMXVXFXJXJXJXJXJXJXJXJXJXJXJXJXJXJXJXFXZXVXMXMXBXDXJX",
"JXJXJXJXJXJXGXFXJXJXFXVXVXMXvXMXVXVXGXJXJXJXJXJXJXJXJXJXJXGXJXJXFXZXVXVXvXvXVXZXFXJXJXJXJXJXJXJXJXJXJXGXGXJXJXFXVXVXVXnXVXVXDXJX",
"JXJXJXJXJXJXDXFXJXGXFXVXZXvXvXnXFXDXDXJXJXJXJXJXJXJXJXJXFXFXJXHXFXVXVXMXvXvXZXFXZXJXJXJXJXJXJXJXJXJXGXVXGXJXFXVXVXVXvXvXVXFXVXGX",
"JXJXJXJXJXJXJXJXGXZXVXVXVXvXMXZXJXJXJXJXJXJXJXJXJXJXJXJXGXGXJXFXVXVXVXBXBXVXFXHXGXJXJXJXJXJXJXJXJXJXJXJXGXGXZXZXVXVXvXVXDXJXGXJX",
"JXJXJXJXJXJXJXJXHXZXVXZXnXnXMXJXJXJXJXJXJXJXJXJXJXJXJXJXGXJXJXDXVXVXBXvXvXVXJXJXJXJXJXJXJXJXJXJXJXJXJXJXJXFXBXZXZXMXvXVXGXJXJXJX",
"JXJXJXJXJXJXJXHXHXZXZXvXvXMXBXJXJXJXJXJXJXJXJXJXJXJXGXGXJXJXDXDXVXMXvXMXBXJXJXGXJXJXJXJXJXJXJXJXJXJXJXJXHXZXVXZXMXvXVXFXJXJXJXJX",
"JXJXJXJXJXJXJXVXVXZXBXvXvXHXJXJXJXJXJXJX@   + 1X@Xr 2XoX  @ =XVXqX1 X z yXx C yX<   @ JXJXJXJXJXJXJXJXFXZXVXVXBXvXMXFXJXJXJXJXJX",
"JXJXJXJXJXHXZXZXVXVXvXMXVXHXJXJXJXJXJXJX. N oX#X,XOX@X#X,Xz +.gX=XB =XV :X,X=X=XoXz # JXJXJXJXJXJXJXHXZXVXVXVXvXBXVXGXJXJXJXJXJX",
"JXJXJXJXHXHXVXVXVXMXvXBXZXHXJXJXJXJXJXJX@ OXdXr dXdX@ dXLXjXx , x kXLX<X& jXfX< dXoX+ JXJXJXJXJXJXHXFXVXVXVXZXvXZXZXJXJXJXJXJXJX",
"JXJXJXJXZXZXVXVXBXvXvXVXHXJXJXJXJXJXJXJX#X].r N.fX#XB 3XjX<X@Xm.oX<XjX,Xb 3XfXN.r B #XJXJXJXJXJXHXHXVXVXVXBXvXvXFXFXJXJXJXJXJXJX",
"JXJXJXFXZXVXVXBXvXvXBXZXJXJXJXJXJXJXJXJXmX2X+ 1 ..2X;Xv.h v.p p v.v.h b.-XdXOX1   @XNXJXJXJXHXGXHXVXVXVXVXnXvXBXFXJXJXJXJXJXJXJX",
"JXHXFXVXVXMXBXvXvXBXVXGXJXJXJXJXJXJXFXFXmXdXk   +XfX< u h.i v.m.i i h.u r jX$X  , ,XNXJXJXJXGXFXVXVXVXBXnXMXBXZXFXJXJXJXJXJXJXJX",
"JXZXVXVXMXvXvXMXMXVXGXJXJXJXJXJXJXJXFXZXJXJX2X< m.n   p g.i xXLX+Xi z.i   b m., :XNXGXJXJXHXZXZXVXBXvXBXMXVXVXJXJXJXJXJXJXJXJXFX",
"VXVXVXnXvXnXVXDXJXJXJXJXJXJXJXJXJXJXJXJXJXJXDX>Xk ; c d y E.jXlXfXE.g.d z ; < #XVXJXJXJXHXVXVXVXBXvXBXVXFXGXGXJXJXJXJXJXJXJXJXJX",
"VXVXvXvXBXVXDXJXJXJXJXJXJXJXJXJXJXJXJXJXJXFXDXBX@X, qXC.A.I.n.Z B.W.A.x.0X, B JXJXJXJXHXVXVXVXBXvXBXVXDXJXJXJXJXJXJXJXJXJXJXJXJX",
"VXBXvXvXVXJXJXJXJXJXJXJXJXJXJXJXJXJXJXHXDXVXVXBX[., N Q.G.t i j.i t G.Q.B = C JXJXDXFXVXVXVXVXvXnXVXJXJXJXJXJXJXJXJXJXJXJXJXJXJX",
"BXvXvXVXDXJXJXJXJXJXJXJXJXJXJXJXJXJXDXVXVXVXnXvXzX#X, _ Y D h K.G.J Y _ @ ].xXDXHXVXVXVXVXBXvXvXVXFXJXJXJXJXJXJXJXJXJXJXJXGXGXFX",
"vXnXBXHXJXJXJXJXJXDXFXJXJXJXJXJXJXZXVXVXzXiX@X].#X[.; 2 } (.h n.`.`.` 3 . +.:XoX@XyXMXMXMXvXVXZXFXJXJXJXJXFXDXGXJXJXJXGXJXJXFXVX",
"BXBXHXJXJXJXJXJXJXDXJXJXJXJXHXDXZXBXBXCXzX>X& $ = @ & e K.K.p j.I.K.K.f.& @ @ % X @XgXvXBXZXHXHXJXJXJXJXGXGXFXJXJXJXJXFXFXVXVXBX",
"JXJXJXJXJXJXJXJXJXJXJXJXJXHXVXVXBXvXvXnXzX1X* K _.|.F E.A.a S.T.S.a J.Y.F &X6XK $ [.zXBXZXHXJXJXJXJXJXJXJXJXJXJXJXJXFXVXVXVXvXvX",
"JXJXJXJXJXJXJXJXJXJXJXJXJXVXVXVXvXvXBXBXNX2X, D tXxXd /.fX%XqXwX0X%XcXeX5 iXUXJ $ @XbXJXJXJXJXJXJXJXJXJXJXJXJXJXJXFXZXZXBXMXMXMX",
"JXJXJXJXJXJXJXJXJXJXJXJXJXVXVXnXnXnXVXZXNX<X* J 6XsX}.lXLXSX%XX.*XSXLXlX}.XX6XJ $ +XxXJXJXJXJXJXJXJXJXJXJXJXJXJXJXFXVXVXvXvXMXZX",
"JXJXJXJXJXJXJXJXJXJXJXJXVXVXnXvXCXVXFXJXNXqX5 R F Z LXIXeXD.g.t g.D.eXIXPXC F R 4 #XmXHXJXJXJXJXJXJXJXJXJXJXJXJXGXZXZXvXvXvXZXHX",
"JXJXJXJXJXJXJXJXJXJXJXDXVXVXnXBXVXFXJXJXJXGX2Xx D I ].b.d.k.K.I.K.k.y M {.I D 5 :XDXJXJXJXJXJXJXJXJXJXJXJXJXJXFXVXZXZXvXMXVXFXJX",
"JXJXJXJXJXJXVXFXJXJXFXVXVXnXnXnXHXZXDXJX#X#X#Xr /.o.A f.c.q ).`.).! z.d.A o./.1 ].#X#XJXJXJXJXJXJXJXFXFXGXJXHXVXVXBXvXvXFXHXVXFX",
"JXJXJXJXJXJXDXJXHXVXZXVXVXvXMXBXJXHXHXJX@   . /.sX*XI H.XXt.L K I 4X.XH.T 5.aX/.X   O JXJXJXJXJXJXJXJXFXHXJXFXVXZXVXvXvXFXGXFXHX",
"JXJXJXJXJXJXJXJXFXVXVXZXBXvXBXDXJXJXJXJXO X '.kXR R pXE `  Xh.$ h..X| ] pXE R kXM.X O JXJXJXJXJXJXJXJXJXJXFXVXVXBXMXvXVXHXGXJXJX",
"JXJXJXJXJXJXJXJXFXVXVXBXvXvXBXJXJXJXJXJXo ..KX}.' } 4.9XG w C.qX}.e A I 6._.` }.AX..O JXJXJXJXJXJXJXJXJXHXFXZXVXvXvXMXHXGXJXJXJX",
"JXJXJXJXJXJXJXGXVXVXBXvXvXFXFXJXJXJXJXJXc #X2Xl iX5XP lX|., 8XPX,Xo 6 / P 8X7Xc yXOXz JXJXJXJXJXJXJXJXJXFXZXBXMXvXMXFXHXJXJXJXJX",
"JXJXJXJXJXHXZXVXVXVXMXnXBXFXJXJXJXJXJXJXdX=X& ~ u.>.( %XpXPXPXkX=Xd.2.>.^ ;.,.~ # C dXJXJXJXJXJXJXJXJXDXZXVXBXvXvXVXJXJXJXJXJXJX",
"JXJXJXJXJXFXZXVXVXVXvXBXVXFXJXJXJXJXJXJXz f G / 9 3 U ) y.lXlX:Xh.d.#.=.U = 9 / G 5 z JXJXJXJXJXJXJXFXVXBXZXBXvXVXZXJXJXJXJXJXJX",
"JXJXJXJXFXVXVXVXVXvXvXVXGXJXJXJXJXJXGXGX@ 6 { U X $ ) =.3.Z./.b u j.1.&./ & = T { 6 O JXJXJXJXJXJXVXVXVXZXBXvXvXVXFXJXJXJXJXJXJX",
"JXJXHXFXZXVXVXBXvXvXBXVXJXJXJXJXJXJXGXGX# 2 Y R % - <.>.5.D.h.< j.T.5.>.<.7 % [ { 2 O GXJXJXJXJXZXVXVXVXBXvXvXBXVXJXJXJXJXJXJXJX",
"JXJXFXVXVXVXBXvXvXBXVXDXJXJXJXJXJXJXGXGX. 4 ,.q.0 = T &.6.L.g.v P.P.7.&.I $ 0 p.p.8 O GXJXJXJXZXVXVXBXBXvXvXBXVXFXJXJXJXJXJXJXJX",
"JXHXVXVXBXvXvXvXBXVXFXJXJXJXJXJXJXJXDXDXO 9 i.u.0 & O.=.7.L.g.n.!.P.1.,.( = 4 p.s.q @ GXJXJXZXZXVXvXvXvXvXMXVXJXJXJXJXJXJXJXGXZX",
"ZXVXVXBXvXvXBXVXVXHXHXJXJXJXJXJXJXJXGXGX@ 4 w.8.* - <.>.5.L.h.v T.P. .>.<.7 = 8.w.4 @ JXGXZXVXMXvXvXnXVXVXVXFXJXJXJXJXJXJXJXJXFX",
"ZXZXBXvXMXFXFXFXJXJXJXJXJXJXJXJXJXJXJXGX# e ~.Y.f.s T *.t.P.j.> j.T.t.&.T s f.Y.E.e . FXZXZXZXvXvXvXBXZXHXHXJXJXJXJXJXJXJXJXJXJX",
"VXBXvXvXVXHXJXJXJXJXJXJXJXJXJXJXJXJXJXJXO f.Q.W.^.4.9.,.4.F.n ^ c F.4.,.9. .x.T.Q.f.. HXVXVXvXvXvXVXJXJXJXJXJXJXJXJXJXJXJXJXJXJX",
"BXvXvXBXVXJXJXJXJXJXJXJXJXJXJXJXJXJXJXDXV n.Y.Y.g Q ,.i.2.i Q *.Q h X.u.u.~ g Y.Y.b V VXVXnXvXvXBXFXJXJXJXJXJXJXJXJXJXJXJXJXGXFX",
"MXvXVXZXHXJXJXJXJXFXJXJXJXJXJXJXJXJXVXVXiX>X, f ` R [ 9.s.( % X % ) u.e.[ [ ] k O @XbXvXvXvXMXVXFXGXJXJXJXJXFXJXJXJXJXJXJXJXFXVX",
"vXBXZXJXJXJXJXJXJXDXHXJXJXJXJXJXJXDXVXBXzX>X* ;.s.r.e.9X0.4   X   % u.p.w.e.a.0.@ [.iXvXMXnXVXJXJXJXJXJXJXFXZXJXJXJXJXGXGXVXVXBX",
"JXJXJXJXJXJXJXJXJXJXJXJXJXJXHXVXVXvXvXvXiX>X* %.#.$.s.s.W o  .4X .. W a.s.$.#.%.- [.gXMXDXDXJXJXJXJXJXJXJXJXJXJXJXJXGXVXVXBXbXnX",
"JXJXJXJXJXJXJXJXJXJXJXJXJXHXVXVXvXvXBXVXnXfXN x x x O.e.6 # 5XJX8X+ 6 e.8.z x x z 3XbXDXFXGXJXJXJXJXJXJXJXJXJXJXJXFXVXZXMXnXbXBX",
"JXJXJXJXJXJXJXJXJXJXJXJXJXVXVXvXvXvXVXFXGXGXFXJXJXjX5 q.4.+ 5XJX8X, @.0.5 :XvXvXnXVXFXJXJXJXJXJXJXJXJXJXJXJXJXJXJXJXVXBXnXbXMXVX",
"JXJXJXJXJXJXJXJXJXJXJXJXJXZXMXvXvXBXFXJXJXJXJXJXJXgX1 y.3.+ 5XJX8X, 3.y.@ =XvXMXVXFXGXJXJXJXJXJXJXJXJXJXJXJXJXJXGXJXZXvXvXnXVXFX",
"JXJXJXJXJXJXJXGXJXJXJXGXVXVXvXvXVXDXFXJXJXJXGXcX$Xc , 0.! # 2.a.8.O ! 0.: k @XqXmXJXJXJXJXJXJXJXJXJXJXJXJXJXJXJXFXZXVXvXMXZXFXGX",
"JXJXJXJXJXJXDXGXJXJXJXVXVXBXvXvXDXFXGXJXJXGXhX0X* o v.d   X c $Xc     f V.o 1 -XuXDXJXJXJXJXJXJXJXJXGXFXJXJXGXFXVXVXnXnXVXVXDXGX",
"JXJXJXJXJXJXVXHXJXFXFXVXVXvXvXMXJXFXFXJXDXhXM.r X : i X # c n.b.n.b . X i : X < M.yXDXJXJXJXJXJXJXJXFXDXGXGXVXZXVXMXnXnXVXGXVXFX",
"JXJXJXJXJXJXJXJXGXDXVXVXBXvXVXVXJXJXJXJXDXxXm.  X .   X n [.M.N m.;Xb .   .     b fXDXJXJXJXJXJXJXJXJXGXJXDXVXVXVXBXnXBXDXJXJXGX",
"JXJXJXJXJXJXJXJXFXZXZXBXvXvXVXFXJXJXJXJXGXmX=XO       n N.b m.M.m.b N.c       . /.xXGXJXJXJXJXJXJXJXJXJXJXFXVXVXnXnXnXVXGXJXJXJX",
"JXJXJXJXJXJXJXHXHXVXVXvXvXMXVXJXJXJXJXJXJXJXFX=Xb M b ;X-X+XN.N.N.+X-X;Xc B.b C CXJXJXJXJXJXJXJXJXJXJXGXGXVXZXMXvXvXMXFXJXJXJXJX",
"JXJXJXJXJXJXJXHXVXVXMXvXvXFXJXJXJXJXJXJXJXJXGXmXxXxXNXjXfXgXzXzXgXuXuXiXmXxXxXmXGXJXJXJXJXJXJXJXJXJXJXGXVXZXMXvXnXnXJXJXJXJXJXJX",
"JXJXJXJXJXJXDXZXVXVXvXMXZXGXJXJXJXJXJXJXJXJXJXJXGXGXJXJXFXVXVXVXBXnXBXDXJXGXGXGXGXJXJXJXJXJXJXJXJXJXGXVXVXVXVXvXBXVXJXJXJXJXJXJX",
"JXJXJXJXHXDXVXVXZXMXvXBXFXHXJXJXJXJXJXJXJXJXJXJXJXJXJXDXVXVXVXBXnXnXFXGXJXGXGXJXJXJXGXJXJXJXJXJXJXHXVXVXVXBXnXnXBXGXJXJXJXJXJXJX",
"JXJXJXJXFXVXVXVXMXvXvXVXJXJXJXJXJXJXJXJXJXJXJXJXJXJXDXVXVXVXBXvXnXBXFXGXJXGXGXJXJXJXJXJXJXJXJXJXFXVXVXVXVXnXbXMXFXJXJXJXJXJXJXJX",
"JXJXJXVXVXVXVXnXvXvXBXVXJXJXJXJXJXJXJXJXJXJXJXJXJXFXVXVXVXBXvXvXBXVXJXJXJXGXGXJXJXJXJXJXJXJXJXHXVXVXVXBXnXvXnXVXFXJXJXJXJXJXJXJX",
"JXJXHXVXBXvXnXvXvXVXZXHXJXJXJXJXJXJXFXVXJXJXJXJXDXVXVXBXvXvXvXBXVXFXJXJXJXJXJXJXJXVXJXJXJXJXDXVXVXBXnXvXvXBXVXFXFXJXJXJXJXJXJXFX",
"HXDXVXVXvXvXBXMXMXDXHXJXJXJXJXJXJXJXJXFXJXJXJXDXVXVXBXvXvXVXBXVXFXJXJXJXJXJXJXJXJXFXHXJXHXFXVXVXBXvXnXBXBXDXDXGXJXJXJXJXJXJXJXGX",
"DXVXVXvXvXnXVXFXJXJXJXJXJXJXJXJXJXJXJXJXJXJXFXVXVXBXvXvXCXDXHXJXJXJXJXJXJXJXJXJXJXJXJXJXHXVXVXBXnXnXnXVXJXJXGXGXJXJXJXJXJXJXJXJX",
"FXBXvXvXBXDXFXJXJXJXJXJXJXJXJXJXJXJXJXJXJXDXVXVXMXvXvXVXDXJXJXJXJXJXJXJXJXJXJXJXJXJXJXZXVXVXCXvXvXFXHXJXJXJXJXJXJXJXJXJXJXJXJXJX",
"DXvXvXBXVXJXJXJXJXJXJXJXJXJXJXJXJXJXJXDXVXVXVXvXvXvXVXFXJXJXJXJXJXJXJXJXJXJXJXJXJXDXZXVXVXBXvXvXBXFXJXJXJXJXJXJXJXJXJXJXJXJXJXGX"
};
