/* XPM */
static char *result[] = {
/* columns rows colors chars-per-pixel */
"64 64 256 2 ",
"   c #010101",
".  c #01010B",
"X  c #0B0805",
"o  c #150C08",
"O  c #010313",
"+  c #040819",
"@  c #190712",
"#  c #01101A",
"$  c #181417",
"%  c #171103",
"&  c #281814",
"*  c #391915",
"=  c #2A0E0A",
"-  c #39261B",
";  c #31250C",
":  c #010724",
">  c #181828",
",  c #061A35",
"<  c #0B152C",
"1  c #0D2232",
"2  c #242427",
"3  c #362525",
"4  c #2C2D37",
"5  c #211E3C",
"6  c #460B0E",
"7  c #46291B",
"8  c #4E2E10",
"9  c #6C3A0E",
"0  c #730E27",
"q  c #46362A",
"w  c #583828",
"e  c #463438",
"r  c #532C2E",
"t  c #6B3A2E",
"y  c #64101F",
"u  c #704A08",
"i  c #584433",
"p  c #6C4837",
"a  c #754A35",
"s  c #704E31",
"d  c #0B104A",
"f  c #172C50",
"g  c #3A3B47",
"h  c #263052",
"j  c #0E1676",
"k  c #1E2567",
"l  c #262875",
"z  c #2F3171",
"x  c #4D3350",
"c  c #633C43",
"v  c #51306C",
"b  c #5D0E55",
"n  c #374851",
"m  c #3F5668",
"M  c #4F4A53",
"N  c #7C4A4A",
"B  c #7B5946",
"V  c #674C4D",
"C  c #515170",
"Z  c #7A5466",
"A  c #556876",
"S  c #666877",
"D  c #726D76",
"F  c #746050",
"G  c #9A0419",
"H  c #8F2C36",
"J  c #A5302A",
"K  c #DF001E",
"L  c #F23317",
"P  c #D2122F",
"I  c #E30A31",
"U  c #CD322F",
"Y  c #EC1E28",
"T  c #935116",
"R  c #B17205",
"E  c #875139",
"W  c #926A2A",
"Q  c #B96B2B",
"!  c #9C6027",
"~  c #FF4F15",
"^  c #FF6517",
"/  c #EB6F17",
"(  c #F24C2D",
")  c #D2742E",
"_  c #E47C2C",
"`  c #CC4D2F",
"'  c #B4334D",
"]  c #CA2F47",
"[  c #E72E47",
"{  c #89574B",
"}  c #91514E",
"|  c #8B6447",
" . c #936447",
".. c #946752",
"X. c #9B7257",
"o. c #8A6F52",
"O. c #A77857",
"+. c #B37B58",
"@. c #AB6D4B",
"#. c #8A767B",
"$. c #906E68",
"%. c #B27E60",
"&. c #AF716C",
"*. c #A84B5E",
"=. c #D64852",
"-. c #C8764D",
";. c #C95B73",
":. c #F15569",
">. c #D16B78",
",. c #F45F5B",
"<. c #AB8634",
"1. c #BC820E",
"2. c #CF910D",
"3. c #FE951C",
"4. c #F19217",
"5. c #FDAB18",
"6. c #FFB519",
"7. c #F1A905",
"8. c #D18D2F",
"9. c #FF9629",
"0. c #F49130",
"q. c #FFAA25",
"w. c #FFB629",
"e. c #F0AA36",
"r. c #DDA127",
"t. c #FFC42E",
"y. c #B18256",
"u. c #A98363",
"i. c #B58666",
"p. c #B48E7A",
"a. c #CC8C5A",
"s. c #F8974F",
"d. c #F7B54E",
"f. c #CD9671",
"g. c #F3AB71",
"h. c #DE9F6C",
"j. c #FFC64F",
"k. c #FED16C",
"l. c #071791",
"z. c #15248F",
"x. c #383987",
"c. c #21289A",
"v. c #383998",
"b. c #292D8D",
"n. c #0A1AAD",
"m. c #1A28B3",
"M. c #2C30B1",
"N. c #42399E",
"B. c #3C4D90",
"V. c #484789",
"C. c #555688",
"Z. c #514B8D",
"A. c #566D97",
"S. c #576C98",
"D. c #5A6B8D",
"F. c #6C6C85",
"G. c #6A6D88",
"H. c #777788",
"J. c #787993",
"K. c #6B6C8F",
"L. c #5675AE",
"P. c #615EA9",
"I. c #1425D1",
"U. c #2D35CF",
"Y. c #1226FD",
"T. c #1429EE",
"R. c #263AFC",
"E. c #2E3AE5",
"W. c #2C41FF",
"Q. c #3748FF",
"!. c #3C50F9",
"~. c #4B59FF",
"^. c #514FF7",
"/. c #5564FF",
"(. c #5762E1",
"). c #6A73F5",
"_. c #6C66C5",
"`. c #8B7C80",
"'. c #E67A90",
"]. c #708587",
"[. c #7B86EB",
"{. c #858598",
"}. c #918C89",
"|. c #BC9784",
" X c #AF8E86",
".X c #BAAA9A",
"XX c #9598A8",
"oX c #8B91AB",
"OX c #96A2A8",
"+X c #A8A6A6",
"@X c #A7AAB7",
"#X c #A9B5B7",
"$X c #B5B6B8",
"%X c #B5B1AD",
"&X c #B596A5",
"*X c #CBA486",
"=X c #D6A88A",
"-X c #D8B699",
";X c #CAAE95",
":X c #E5B998",
">X c #F2B58A",
",X c #CFB5A8",
"<X c #E4BDA1",
"1X c #FFABAC",
"2X c #C79491",
"3X c #FECB97",
"4X c #D8C9B6",
"5X c #D8CAB3",
"6X c #E8C5AB",
"7X c #F9CCAA",
"8X c #E8CBB5",
"9X c #F9D4B9",
"0X c #F2D1B7",
"qX c #B0B7CB",
"wX c #8993FF",
"eX c #A6B3E4",
"rX c #C5B9C0",
"tX c #BCC4C7",
"yX c #C7CAC8",
"uX c #D9D6C8",
"iX c #C3CAD5",
"pX c #CAD4D7",
"aX c #D7D9D7",
"sX c #CED6CB",
"dX c #ECD8C7",
"fX c #F5DBC8",
"gX c #EBDED3",
"hX c #E2CFC1",
"jX c #D8E2DC",
"kX c #E8E2D9",
"lX c #F6E3D4",
"zX c #FAE6D0",
"xX c #D2DAE3",
"cX c #DAE8EC",
"vX c #C5EAF5",
"bX c #CBECF6",
"nX c #CDEEF8",
"mX c #C8E7F4",
"MX c #D3EDF5",
"NX c #D2EFF9",
"BX c #DCEDF8",
"VX c #DAF2F7",
"CX c #D4F1FB",
"ZX c #DCF2FB",
"AX c #D7F2F7",
"SX c #CCE9EF",
"DX c #EAECEA",
"FX c #E6E8E6",
"GX c #EAEFF1",
"HX c #E5EDF2",
"JX c #E5F1F6",
"KX c #E6F4FC",
"LX c #E7F4F7",
"PX c #FCFEFC",
"IX c #F5F7F8",
"UX c #F8EDE6",
/* pixels */
"IXKXKXKXKXKXKXKXKXKXKXKXKXKXCXCXnXvXbXNXCXZXZXKXKXKXKXKXKXKXKXKXKXKXKXKXCXCXnXnXvXvXNXNXZXKXKXKXKXKXKXKXKXKXKXKXKXKXZXCXCXCXvXnX",
"KXKXKXKXKXKXKXKXKXKXKXKXKXZXCXnXvXvXnXCXLXLXKXKXKXKXKXKXKXKXKXKXKXKXKXZXCXnXvXvXnXCXKXKXKXKXKXKXKXKXKXKXKXKXKXKXKXKXCXCXnXvXvXCX",
"KXKXKXKXKXKXKXKXKXKXKXKXKXCXnXvXvXNXCXKXKXKXKXKXKXKXKXKXKXKXKXKXKXKXKXZXnXvXvXnXCXZXKXKXKXKXKXKXKXKXKXKXKXKXKXKXKXZXCXnXvXvXCXZX",
"KXKXKXKXKXKXKXKXKXKXKXKXZXCXvXvXnXNXKXKXKXKXKXKXKXKXKXKXKXKXKXKXKXKXZXCXnXvXnXCXKXKXKXKXKXKXKXKXKXKXKXKXKXKXKXKXKXCXCXvXbXMXZXKX",
"KXKXKXKXKXKXLXKXKXKXZXAXCXCXvXvXCXBXLXKXKXKXKXKXKXKXKXKXKXKXKXKXKXZXCXnXvXvXCXCXLXKXKXKXKXKXKXKXKXKXKXKXKXKXKXZXCXCXCXvXMXZXZXLX",
"KXKXKXKXKXKXZXKXKXKXZXAXCXvXvXvXKXBXZXKXKXKXKXKXKXKXKXKXLXKXKXKXZXCXCXnXvXvXZXZXZXKXKXKXKXKXKXKXKXKXKXCXKXKXZXCXCXCXvXvXNXZXBXZX",
"KXKXKXKXKXKXKXKXKXCXCXCXCXvXCXCXKXKXKXKXKXIXKXKXKXKXKXKXKXKXKXZXCXCXCXvXnXCXZXKXKXKXKXKXKXKXKXKXKXKXKXKXKXKXCXCXCXCXvXCXCXKXKXKX",
"KXKXKXKXKXKXKXKXKXCXCXCXvXvXMXZXKXKXKXKXKXKXKXKXKXKXKXKXKXKXKXCXCXCXnXvXbXCXKXKXKXKXKXKXKXKXKXKXKXKXIXKXKXZXCXCXCXnXvXNXKXKXKXKX",
"KXKXKXKXKXKXKXKXZXCXCXnXvXvXCXKXKXKXKXKXKXKXDX9XfXKXKXKXKXKXZXCXCXnXvXvXMXKXKXKXKXKXKXGXGXIXLXKXKXKXKXKXKXCXCXCXnXvXCXZXKXKXKXKX",
"KXKXKXKXKXKXKXCXCXCXbXvXvXZXKXKXKXKXKXKXKXKX9XfX9XKXKXKXKXZXCXCXnXvXvXCXKXLXKXKXKXKXLX9XzXzXDXKXKXKXKXZXCXCXCXbXvXnXZXKXKXKXKXKX",
"KXKXKXKXKXKXZXCXCXCXvXvXCXZXKXKXKXKXKXdXf.+.@.7X>X%.lXKX}.A S jXvXvX4XA S ,XKX=Xf.KXdXW B i.DXKXKXKXKXZXCXCXCXvXnXCXKXKXKXKXKXKX",
"KXKXKXKXKXZXCXCXCXCXvXCXCXKXKXKXKXKXKX:X  O q 6Xf.< *X8X8 2 ; ;XsXsXO.$ > +.kX| 3 dXf.< . a DXKXKXKXZXCXCXCXCXvXCXZXKXKXKXKXKXKX",
"KXKXKXKXZXCXCXCXbXvXvXCXKXKXKXKXKXKXKX:X  A tXs B tXB i &XpXOXV q q V OXsXp.r +XtXp F }., w DXKXKXKXCXCXCXCXvXvXZXKXKXKXKXKXKXKX",
"KXKXKXZXCXCXCXNXvXvXnXCXKXKXKXKXKXKXKXdXO.}.OX, D.IXA n GXIXaX].m m XXIXIX@X, tXcXh h }.o.|.HXKXZXCXCXCXNXvXvXbXZXKXKXKXKXKXKXKX",
"KXKXZXCXCXnXbXvXvXbXCXLXKXKXKXKXKXKXLXZXZXi.. C XX@XH.].xXPXUXGXHXGXIXGXPXqXH.+X$X{.f $ 6XKXKXZXCXZXjXdXjXvXnXZXKXKXKXKXKXKXKXKX",
"KXZXCXCXvXvXvXbXbXCXKXKXKXKXKXKXKXLXZXVXKXX.. C.oX`.H.XXyXgXaX$XoX@XrXgXjX#X{.J.{.oXf   6XZXZXCXAXuXg.9X8XCXZXKXKXKXKXKXKXKXKXKX",
"ZXCXCXvXvXnXCXZXKXKXKXlX9XgXKXKXKXKXKXKXKX*Xr n C.G.C A {.XXXXoXJ.F.`.XXXXH.C S G.C M a 8XCXCXCXSX8X3XfX0XKXKXKXKXKXKXKXKXKXKXKX",
"CXCXvXvXnXCXZXKXKXKXKX3XUX7XKXKXKXKXKXKXKXFX<X3 f J.4 X v x.Z.iXFX@XK.x.V.h X M D.: | kXVXCXCXnXbXSXkXgXDXKXKXKXKXKXKXKXKXKXKXKX",
"CXnXvXvXNXKXLXLXKXKXKX7X7X9XKXKXKXKXKXKXZXCXCX;XF n 4 5 l z.z iXUXsXK.j b.k 4 h M i.8XCXCXCXnXvXvXNXKXKXKXKXKXKXKXKXKXKXKXKXIXKX",
"nXvXvXCXBXKXLXKXKXKXKXKXKXKXKXKXKXKXKXBXCXNXbXvX*X. n J.m j x.{.$X%XK.l l C K., w uXCXCXCXnXvXvXAXZXKXKXKXKXKXKXKXKXKXKXKXKXKXZX",
"vXmXNXJXKXKXKXKXKXBXLXKXKXKXKXKXKXZXCXCXbXvXvXu.q   C F.> d x.Z.C.C.Z.b.: g J.4 o p -XbXvXvXCXZXKXKXKXKXKXKXVXLXKXKXKXKXKXKXZXCX",
"nXbXKXKXKXKXKXKXKXBXKXKXKX8X6XBXZXnXnXnXvXsX*Xr @   g M = > 5 l l l k 5 @ q C 2 . @ E 5XaXCXZXKXKXKXaX@XcXKXJXKXKXKXKXZXZXZXNXCX",
"KXKXKXKXKXKXKXKXLXKXKXLXKX .7 aXnXvXvXvXnXu.= ] '   . & t 7   f v.z > X t r   . * =.H & 5XLXKXLXKXKX=X$ =XKXKXKXKXKXZXCXCXCXvXvX",
"KXKXKXKXKXKXKXKXKXKX=Xu.+.b.n.X.u.%.jXCXZXX.. ] =.*     c N.n.l x.U.I.z.C 3   $ 0 :.0   -XKXKX6Xu.y.Z n.Z y.%.8XKXKXCXCXCXvXvXnX",
"KXKXKXKXKXKXKXKXFX6Xe : O I.R.: O : |.kXKXu.. ] :.} 3 : l R.^.m.M.~./.Q.U.d o V ;.:.0 X <XLXlX..:   j /.l.+ : X.gXcXCXCXvXvXnXCX",
"KXKXKXKXKXKXKXKX}.3 I.T.k v.l   j Y.z i.LXi.. U '.%Xo.v T.T.c.T.Q.~.I.c.Y.m.w p.,X'.0   8XgXs m.T.. # v.l c.R.c.q #XCXvXvXvXCXZX",
"KXKXKXKXKXKXKXKX.X| M.I.x.v.c.j I.R.d t KX0XO.H &.iX}.F.wX).}.).)./._.oXwX(.Z #X,X*.E i.GX8X. l.R.l.j M.x.b.I.C X.yXCXvXCXZXKXKX",
"KXKXKXKXKXKXCXKXKXlXt + z R.~./.E.z + a kXLXgXr h $XoX`.jXPXDXyX+X%XuXPXPXtXG.@XXX+ %.KXLX<Xo , v.R./.^.U.k . i.CXCXvXvXCXZXCXKX",
"KXKXKXKXKXKXZXKX.XB M.m.x.Q.)._.@.2.a x  .O.... # #.qXKXPXBXwXP.C C /.eXPXIXxX%XM   7 O.@.B q W r.&.^./.U.b.I.Z.o.tXvXnXZXKXZXKX",
"KXKXKXKXKXKXKXKX}.4 I.T.k I.U.) q.w._ r   X # 4 r H 2XFXlX).Y.M.C.S.I.W.eXFXFX&.0 e 1 + . @ } 3.w.3.*.T.z.z.R.c.i #XvXCXZXKXKXKX",
"KXKXKXKXKXKXKXKXFX5Xe + . + 3 j.k./ Y G   1 F.#X2XI ' $.{.V.v.eXIXJX_.b.K.H.} U =.@XoXM # = P ( 4.d.1.+ O O + o.sXSXvXZXKXKXKXKX",
"KXKXKXKXKXIXKXKXNXNX*X%.O.i.y.<.W 7 [ ] X A xXtX&X;.&.D C z V >.1X1X&.x z C D '.'.XXmXyX4 6 :.' 8 R R i.i.i.u.5XvXvXZXKXKXKXKXKX",
"KXKXKXKXKXKXZXCXCXCXvXbXNXKXfXw @ & &.;.X ].FX}.].%X4XXXB.v a P K K J Z z K.%XyX#XD tXjXn ; >.H $ o %.CXCXCXCXvXvXCXKXKXKXKXKXKX",
"KXKXKXKXKXZXCXCXCXnXmXnXNXKXJX8X<X:XE @   , n O.j.3Xj.O.C V.v v b b v V.x.F.a.k.3Xg.o.h #   6 a.6X#XpXCXCXCXnXvXNXCXKXKXKXKXKXKX",
"KXKXKXKXZXCXCXCXCXvXmXNXKXKXKXKXKXKXf.s E B s E 8.r./ ` .XC.d B.L.L.x.f $.-.` e.h.y.E p E s n 6XKXCXCXCXCXNXvXvXNXZXKXLXKXKXKXKX",
"KXKXKXKXCXCXCXCXvXvXnXNXKXKXKXKXKXKXGXDXFXDXdXw . X G :.UX].  XXIXIXC % 7.s.[ y % . +.DXDXDXcXVXZXCXCXCXbXvXvXNXAXKXKXKXKXKXKXKX",
"KXKXZXCXCXnXnXvXvXnXCXZXKXKXKXKXKXKXKXKXKXKXKX6X..  T g.aXqX}.cXPXUXA & 5.k.d.= X f.gXKXKXKXKXCXCXCXCXnXvXvXnXCXZXLXKXKXKXKXKXKX",
"KXKXCXCXnXvXvXvXnXCXLXKXKXKXKXKXKXKXLXNXLXKXKXDX*X& R w.f.pXIXIXpXqXN.V.e.k.k.u w 8XVXKXKXKXCXCXnXvXvXvXvXvXCXKXKXLXLXKXKXKXKXKX",
"ZXCXCXCXvXvXNXNXBXZXKXKXKXKXKXKXKXKXLXZXKXKXkXX.i y.U L 5.k.pX4XeX~.W.^.j.s.=.-.X.i f.KXKXCXCXCXvXvXvXCXCXCXZXKXKXKXKXKXKXKXKXKX",
"CXCXnXvXvXZXZXZXKXKXKXKXKXKXKXKXKXKXKXKXKXKXkX$ X ,.( ^ 6.r.J.H._.~.!./.d.w.( ,.@.. X.KXZXCXCXvXvXvXCXCXZXLXKXKXKXKXKXKXKXKXKXKX",
"CXCXvXvXCXZXKXKXKXKXKXKXKXKXGXKXKXKXKXKXKXBXuXw = I 0.t.w.Q b.l c.Q.!.~.d.w.w.,.' O u.JXCXCXvXvXvXNXLXKXLXLXKXKXKXKXKXKXKXKXKXKX",
"nXvXvXCXCXKXKXKXKXKXKXKXKXKXKXLXKXKXKXZXZX;XE | ! ` Y ^ w. XY.n.z.m.W./.d.5.L ( ` T s X.4XvXvXvXNXBXKXLXLXKXKXKXKXKXKXKXKXKXKXKX",
"vXvXCXCXZXKXKXKXKXZXKXKXLXKXKXKXKXKXZXCXbX... o.h.4.L ~ 5. XW.v.c V I.^.w.9.Y / r._ -   ,XvXbXCXBXKXKXKXKXKXKXKXKXKXKXKXKXKXZXCX",
"vXnXCXKXKXKXKXKXKXZXKXKXKXKXKXKXKXZXnXnXvXu.  x Q t.w.w.w.O.c..._ ) C x.r.w.q.t.5. .< $ 5XbXNXKXKXKXKXKXLXKXZXKXKXKXKXKXLXCXCXCX",
"KXKXKXKXKXKXKXKXKXKXKXKXLXKXKXCXCXvXvXsXp.| E <.0.^ ~ ^ w.4.{ t T 9 t @.5.q.^ ^ ^ 2.W 9 ..-XGXKXKXKXKXKXKXKXKXKXKXLXKXCXCXnXvXvX",
"KXKXKXKXKXKXKXKXKXKXKXKXKXKXCXCXbXvXnX,X  q g.k.9.K P L q.5.Q *     8 / q.9.Y I L 9.q.) + i DXKXKXKXKXKXKXKXKXKXKXZXCXCXnXvXvXnX",
"KXKXKXKXKXKXKXKXKXKXKXKXKXCXnXvXvXvXNX<XX > @.0.9.3.9.w.t.R = 3 t r & 8 7.d.9.9.3.3.) N O a FXKXKXKXKXKXKXKXKXKXKXKXAXCXmXvXbXMX",
"KXKXKXIXKXKXKXKXKXKXKXKXKXCXvXvXvXCXKX<X. 2 @.a R 5.7.2.6.T $ c $.} e & 2.7.2.7.7.T H { + s DXLXKXKXKXKXKXKXKXKXZXKXCXvXvXmXCXZX",
"KXKXKXKXKXKXKXKXKXKXKXKXCXCXvXvXCXZXLX<X  s a.- 7 Q 8 o N { N N N N N N } q X T Q o 9 ) $ p DXLXKXKXKXKXKXKXLXKXZXCXCXvXnXNXZXKX",
"KXKXKXKXKXKXZXKXKXKXKXCXCXvXvXvXZXZXZXLX<X+.s X 9 5.9   : 1 > > > > > > < O   8.0.% % 9 f.8XLXJXKXKXKXKXKXKXKXZXCXCXbXvXNXNXZXKX",
"KXKXKXKXKXKXZXKXKXKXZXCXCXvXvXnXKXVXkXfXDX+.    u 7.u % * 7 7 - - - q - - =   8.r.;   $ 3XjXpXSXKXKXKXCXKXKXVXCXCXnXmXvXnXKXVXKX",
"KXKXKXKXKXKXKXKXKXVXCXCXCXvXCXAXKXDXy.i i *     % ; o 8 h.8XdX:X:X8X4X5X6X@.  ; ; X   . 8 w 4 OXKXKXKXLXLXZXVXCXCXNXmXNXZXKXKXKX",
"KXKXKXKXKXKXKXKXZXCXCXnXvXvXCXZXKXDXw                 8 7XKXKXCXCXCXvXvXbXh..                 D KXKXKXKXKXZXCXCXbXvXbXNXKXKXKXKX",
"KXKXKXKXKXKXKXKXZXCXCXvXvXvXCXKXKXFXE o X X         X t 7XLXLXZXCXvXvXbXNX=XX             X   {.KXKXKXKXZXZXNXnXmXvXbXKXKXKXKXKX",
"IXKXKXKXKXKXKXZXCXCXnXvXvXZXKXKXKXLX8X:X:Xs         +.6XfX0X6XZXnXSXuX7XfXgX>Xa       % a.-XOXpXKXKXKXKXCXCXCXvXvXmXKXKXKXKXKXKX",
"KXKXKXKXKXKXZXZXCXCXvXnXCXKXKXKXKXKXLXLXJX:Xa a w 2 f.9Xg.s.s.:X5X-Xg.s.s.3X7X..3 s i M gXKXKXKXKXKXKXCXCXCXnXvXNXNXKXKXKXKXKXKX",
"KXKXKXKXKXZXCXCXCXnXvXCXCXKXKXKXKXKXKXKXKXDXUXDX:XS G.#.#.#.#.#.}.#.#.#.#.#.#.K.&.gXFXxXJXKXKXKXKXKXCXCXCXNXvXmXNXZXKXKXKXKXKXKX",
"KXKXKXKXZXCXCXCXnXvXvXCXKXKXKXKXKXKXKXKXKXKXKX6X2XJ.S.A.A.A.A.A.A.A.A.A.A.A.S.S.}.>XpXKXKXKXKXKXZXCXCXNXNXvXmXbXBXKXKXKXKXKXKXKX",
"KXKXKXZXCXCXCXvXvXvXCXZXKXKXKXKXKXKXKXKXKXKXkXp.A.K.G.G.G.G.H.F.F.F.F.F.F.H.G.G.F.D qXKXKXKXKXKXCXCXCXnXvXmXbXNXZXKXKXKXKXKXKXKX",
"KXKXZXCXnXvXvXvXvXCXCXZXKXKXKXKXKXKXKXVXKXKXLX0Xf.A.L.S.S.S.A.A.D.G.F.F.F.F.F.A.#.-XgXKXKXKXKXBXCXnXmXvXvXnXNXZXKXKXKXKXKXKXKXKX",
"KXLXCXnXvXvXnXNXNXZXZXKXKXKXKXKXKXKXKXZXKXGXdX7X>X|. Xp.p.|.|.|.|.XXOXOXXXXXXX[.,XNXKXKXKXZXCXCXNXvXmXnXZXBXVXKXKXKXKXKXKXKXKXKX",
"ZXCXnXvXvXvXCXCXKXKXKXKXKXKXKXKXKXKXKXKXKXkX3XlX9XSXSXSXSXBXGXGXKXZXKXZXLXLXJXGXKXKXKXKXKXCXCXnXvXmXvXCXKXKXKXKXKXKXKXKXKXKXKXKX",
"ZXnXvXvXnXZXKXKXKXKXKXIXKXKXKXKXKXKXKXLXKXVX0X7X8XvXvXAXZXKXKXKXKXKXKXKXKXKXLXLXKXKXKXZXCXCXnXmXvXZXZXKXKXKXKXKXKXKXKXKXKXKXKXKX",
"ZXvXvXnXCXKXKXKXKXKXKXKXKXKXKXKXKXKXKXZXVXVXAXSXvXvXCXLXKXKXKXKXKXKXKXKXKXKXKXLXKXZXCXCXCXnXvXvXnXZXKXKXKXKXKXKXKXKXKXKXKXKXKXKX"
};
