/* XPM */
static char *result[] = {
/* columns rows colors chars-per-pixel */
"64 64 256 2 ",
"   c #010101",
".  c #080808",
"X  c #140702",
"o  c #09130D",
"O  c #060915",
"+  c #161517",
"@  c #12140E",
"#  c #291907",
"$  c #2B080B",
"%  c #2A241A",
"&  c #322315",
"*  c #101328",
"=  c #12272D",
"-  c #383738",
";  c #2D2D31",
":  c #271525",
">  c #500D0D",
",  c #6E2412",
"<  c #680C35",
"1  c #463232",
"2  c #6E3636",
"3  c #5D2219",
"4  c #4F4536",
"5  c #6E4C2B",
"6  c #675B1D",
"7  c #1A2A55",
"8  c #393749",
"9  c #2C2F52",
"0  c #373967",
"q  c #303570",
"w  c #172069",
"e  c #47334E",
"r  c #5D2969",
"t  c #3A4953",
"y  c #37486F",
"u  c #184E5C",
"i  c #484648",
"p  c #595858",
"a  c #4D4C52",
"s  c #6E514C",
"d  c #6E6B54",
"f  c #4F5171",
"g  c #6F586D",
"h  c #57686A",
"j  c #586873",
"k  c #69697A",
"l  c #766878",
"z  c #78757A",
"x  c #6D6C6B",
"c  c #57605E",
"v  c #94000A",
"b  c #A90F0B",
"n  c #8A2B30",
"m  c #AE1B30",
"M  c #CA1418",
"N  c #D13335",
"B  c #D01829",
"V  c #8A6C32",
"C  c #B17437",
"Z  c #A55527",
"A  c #CE5433",
"S  c #F1512C",
"D  c #EF6E39",
"F  c #D8672B",
"G  c #940D52",
"H  c #A8394C",
"J  c #A6245E",
"K  c #D22F55",
"L  c #89574F",
"P  c #AC5249",
"I  c #8D6B54",
"U  c #B06D49",
"Y  c #856879",
"T  c #8D7475",
"R  c #B16E73",
"E  c #A3586D",
"W  c #D94F4C",
"Q  c #F05650",
"!  c #D96A59",
"~  c #D47051",
"^  c #E66448",
"/  c #F46549",
"(  c #E96A57",
")  c #F37055",
"_  c #E44E64",
"`  c #D5756A",
"'  c #CA7979",
"]  c #D87878",
"[  c #D47069",
"{  c #E8776A",
"}  c #E57C7A",
"|  c #F1746D",
" . c #C85962",
".. c #639A66",
"X. c #AF9A25",
"o. c #F0B314",
"O. c #CC9230",
"+. c #F5932E",
"@. c #D2B032",
"#. c #F3B330",
"$. c #D09F17",
"%. c #F7CA11",
"&. c #FBE514",
"*. c #F4D02D",
"=. c #FCEF32",
"-. c #D4C939",
";. c #8E8B76",
":. c #B28576",
">. c #AD9053",
",. c #D08F4E",
"<. c #F08D4B",
"1. c #F7B150",
"2. c #CA8478",
"3. c #D18A75",
"4. c #F3877A",
"5. c #EB8674",
"6. c #DEAF67",
"7. c #FEF845",
"8. c #FFF773",
"9. c #DECE5B",
"0. c #BDC720",
"q. c #30378B",
"w. c #16269F",
"e. c #374995",
"r. c #3550B6",
"t. c #346FA0",
"y. c #4C528A",
"u. c #506687",
"i. c #6B6D85",
"p. c #796685",
"a. c #6B7285",
"s. c #73748B",
"d. c #4D50AC",
"f. c #7472AB",
"g. c #635F9C",
"h. c #293DF6",
"j. c #2322D5",
"k. c #3750D1",
"l. c #344EF2",
"z. c #3C69FE",
"x. c #2159D5",
"c. c #5155CF",
"v. c #6D72CC",
"b. c #4557F5",
"n. c #4B6BFF",
"m. c #6970FB",
"M. c #5A5FD4",
"N. c #826983",
"B. c #867889",
"V. c #AB649B",
"C. c #D07D85",
"Z. c #E26589",
"A. c #A44DAA",
"S. c #798BB4",
"D. c #618591",
"F. c #7583D7",
"G. c #7789F3",
"H. c #5D91FD",
"J. c #7AC9EE",
"K. c #898486",
"L. c #978688",
"P. c #979698",
"I. c #908D92",
"U. c #BA8A8A",
"Y. c #B5998A",
"T. c #BC8896",
"R. c #A99895",
"E. c #BA9B9B",
"W. c #B89695",
"Q. c #A7878B",
"!. c #9CA39A",
"~. c #B9A598",
"^. c #AEA79B",
"/. c #9090A5",
"(. c #B599A8",
"). c #AE97B0",
"_. c #9AAAAF",
"`. c #AAA9A9",
"'. c #B4A8A7",
"]. c #B6B4AD",
"[. c #A8A9B8",
"{. c #B4ABB7",
"}. c #ACB2B5",
"|. c #B7B5B6",
" X c #A1B1AD",
".X c #C48486",
"XX c #DB8788",
"oX c #C59689",
"OX c #C39895",
"+X c #D99395",
"@X c #D18B8F",
"#X c #E38989",
"$X c #E9948A",
"%X c #F29489",
"&X c #E59797",
"*X c #EF8F8A",
"=X c #C9A790",
"-X c #EEA796",
";X c #C497A8",
":X c #EA9DA3",
">X c #C7A7A8",
",X c #DCA7A5",
"<X c #D8B9B8",
"1X c #CDB5B3",
"2X c #E7A8A5",
"3X c #E7B8B7",
"4X c #EEB3AA",
"5X c #AFC4BA",
"6X c #B7CD85",
"7X c #C9C5B7",
"8X c #E8C1BC",
"9X c #D4CC8C",
"0X c #8F93D0",
"qX c #9AADCF",
"wX c #A6B6C7",
"eX c #ABB0CC",
"rX c #8497F9",
"tX c #8791F6",
"yX c #96ACF0",
"uX c #A3BBFD",
"iX c #C9BDC6",
"pX c #ECBCC4",
"aX c #B1CAD3",
"sX c #96CAF2",
"dX c #AFCCEB",
"fX c #9CD1E0",
"gX c #C8C8C6",
"hX c #D8C6C8",
"jX c #D8D8D9",
"kX c #D1CFD2",
"lX c #EAC7C7",
"zX c #E9D9D8",
"xX c #E9D3CF",
"cX c #D4E0DA",
"vX c #EEEBD6",
"bX c #EADCE2",
"nX c #CEE6ED",
"mX c #D1E6EE",
"MX c #D2E8EF",
"NX c #DCE5E6",
"BX c #D5EAF1",
"VX c #DBEEF4",
"CX c #D7E8FF",
"ZX c #DFF0F5",
"AX c #C3EBF7",
"SX c #E9E7E7",
"DX c #E1EEF4",
"FX c #EBEDF2",
"GX c #E4F1F6",
"HX c #E9F2F7",
"JX c #E6F3F9",
"KX c #EAF3F8",
"LX c #E9FBFA",
"PX c #FBFBFA",
"IX c #F6F2EC",
"UX c #D0D6EB",
/* pixels */
"PXKXKXKXKXKXKXKXKXKXKXKXKXGXVXVXBXmXmXBXVXVXHXJXKXKXKXKXKXKXKXKXKXKXKXJXVXVXVXmXnXMXVXBXHXHXKXKXKXKXKXKXKXKXKXKXKXKXJXVXVXBXmXMX",
"JXJXKXKXKXKXKXKXKXKXKXKXKXZXVXBXmXmXBXVXJXKXKXKXKXKXKXKXKXKXKXKXKXKXJXDXVXVXnXnXBXVXGXJXJXHXKXKXKXKXKXKXKXKXKXKXKXJXVXVXMXmXmXVX",
"KXKXKXKXKXKXKXKXKXKXKXKXJXZXBXnXmXBXVXKXKXKXKXKXKXKXKXKXKXKXKXKXKXKXKXDXVXnXnXBXVXGXKXKXKXKXKXKXKXKXKXKXKXKXKXKXKXGXVXMXnXnXVXZX",
"KXKXKXKXKXKXKXKXKXKXKXGXGXVXMXnXBXVXHXKXKXKXKXKXKXKXKXKXKXKXKXKXKXKXGXVXBXnXMXVXHXKXKXKXKXKXKXKXKXKXKXKXKXKXKXKXGXVXVXmXMXBXGXJX",
"KXKXKXKXKXKXHXHXJXJXGXZXVXMXmXMXDXVXFXKXKXKXKXKXKXKXKXKXKXJXJXKXGXGXVXCXnXnXVXZXHXHXKXKXKXKXKXKXKXKXHXHXHXHXKXGXVXVXVXMXVXVXGXHX",
"KXKXKXKXKXKXDXDXKXJXGXVXVXnXnXMXHXGXGXKXKXKXKXKXKXKXKXKXHXDXJXJXGXVXVXmXnXnXVXJXVXHXKXKXKXKXKXKXKXKXHXVXHXHXJXVXVXVXnXnXVXGXVXHX",
"KXKXKXKXKXKXKXKXJXGXVXVXBXnXMXZXKXKXKXKXKXKXKXKXKXKXKXKXHXHXKXZXVXVXVXBXBXVXGXJXJXKXKXKXKXKXKXKXKXKXKXHXKXGXVXVXVXVXnXVXVXKXHXHX",
"KXKXKXKXKXKXKXKXJXVXVXNXcXjXNXGXKXKXKXKXKXKXKXKXKXKXKXKXJXKXFXSXVXVXBXnXmXDXJXJXKXKXKXKXKXKXKXKXKXKXKXHXFXSXNXVXVXBXmXVXHXKXKXHX",
"KXKXKXKXKXKXKXJXJXZXBXjXcXjXcXHXKXKXKXKXKXKXKXKXKXKXKXKXKXJXSXNXVXmXnXmXMXKXKXKXKXKXKXKXKXKXKXKXJXJXHXFXSXSXNXDXBXmXVXJXJXKXKXKX",
"KXKXKXKXKXKXKXZXVXVX#X.XT.T.@X&XKXKXKXKXKXKXKXKXKXKXKXLXKXGX( C.<XnXnXVXJXKXKXKXKXKXKXKXKXKXKXKXHXHXHX%X! ).C.jXmXMXJXKXJXKXKXKX",
"KXKXKXKXKXJXZXVXjX5.C.'.wXsX[.! } C.xXSX>XP.Q.*XoX`.LXxXK.z n <X*X2.K.s.kXGX1XL %X>XP.^.zXJXGX$X2XHXKX| .XwX).C.,XZXJXKXKXKXKXKX",
"KXKXKXKXJXJXVXVX3X! yX~.,.~ OX{.qX).{ 4X% = d T t./.hXY.h j & L K.f c x ^.hXK.y.a.T i + |.SX-X^ C.3XSX) 2.E.F R.] ZXKXKXKXKXKXKX",
"KXKXKXKXZXVXVXZX2X^ sX(.S S OXaX=XY.;X=XX B.LX  K.PXh s.FXFXR.    i SXIXgXc aXSX  d IX* >X4.R ;X@XT.+X| C.' S ` ] GXKXKXKXKXKXKX",
"KXKXKXGXZXZXZXMX,X^ sX(.%X%XT.! S ~.sXY.^ C t 9 +X,Xa T | 4.W.8 9 R Z.| >X1 C.4Xl e d 3.xX) E.{.OXE.+X$XC.] { ! ] KXKXKXKXKXKXKX",
"KXKXZXVXZXMXMXnX,X^ sX(.4.| C.{ / OXsX~ 4X:.  k >XL.P.Q.l l B.eX}./.Y Y B.).I.L.{.; a FXLX) 3.{.`..X5.C.T.[ 5.[ ] KXKXKXKXKXKXKX",
"JXZXVXVXnXnXMXMX,X^ sX'.| | T.#X4.OXsX~ xX:.O . d kX/.f r 0 g.bXxXs.y f f k gXR.;   x KXHX/ 3.wX`.W.' C.(.{ lX*X3XKXKXKXKXKXKXGX",
"ZXVXBXMXmXMXZXZX4X^ sX(.*X) .X#X} ~.yX` xX*XD.  1 UX- * d.7 p pXIXK.9 e.q.  I.{.  # Q.@XbX) U.' S OX[.U.qX} JXKXKXKXKXKXKXKXKXKX",
"VXVXmXnXMXVXGXJX4X! dXR.) / .XXX&XoXeX2.%X/ AXt % a.O + f e.f P.7XB.q u.a   - h + T cX[.} D Q.{ ( ~ qX=XT.{ FXKXKXKXKXKXJXKXHXKX",
"VXMXmXmXVXKXHXKX4X! fXE.#X;XU.} pXC.OXW.2.'.|.bXs O i.s 1 M.M.0 0 d.n.g.; p.; @ '.#X' `.XX2.(.5.5.~ sX+X) 4XlX$XpXKXKXKXHXHXHXKX",
"MXmXmXVXDXKXKXKX3X~ eX<Xc t.iX*XJXJX] '.aX XL.jXp   R.yXw.z.c.t ; 0 M.r.k.UX-   OX&X+X'.|.qXeXXX{ $XsXs SXGX4X' &XKXKXKXHXHXHXGX",
"nXMXBXGXHXKXKXHX4X~ UX|.o . Y.#XJXGX' }.'.'.].1Xz @ 4 F.b.r 1 f d.e 1 c.H.z # ; W.C.#X'.'.~.(.] / -Xu.t NXSX>XC.#XKXJXJXJXJXGXVX",
"BXBXHXKXKXKXKX7Xs T IXR..   # R GXjXXX`.`.aXgXgXIXwX@ : _ B 3 q z.d.b N J . c LXhX&X+X'.' ] T.XX,X6   a xX) <Xh R KXKXGXGXDXVXBX",
"HXHXKXKXHXHXKX=X  ; =XkX8 O 7 k aXMX#X!.|.P.h a z K.o X M Z.p.8 c.m.A.S ,   - L.x p x U.:X+X>X_.f 9 * h xXD d   P.JXGXVXVXVXmXnX",
"HXHXKXKXKXGXGX-XO   4 cX8 * tXy x iX] `.kXa           * q.z.k.e d.n.n.k.9 @         . W.#X} zXp + 0Xv.a xX3.  . R.JXVXVXVXMXnXBX",
"KXKXKXKXKXKXKX=X@ M.S.;   ; uXw % C.(.`.jXc   , Y f 5 r l.w.q k.b.r.w x.b.5 d s.H $ @ `.XXR gXc + yX0X+ p P.tXw Q.GXVXBXMXnXMXZX",
"KXKXKXKXKXKXKX=X@ g.0Xy 7 y q O % gXgXP.7Xj   M pXPXU y.tXN.g G.m.f.L 0Xm.< =XPX| > = `.1X`.jXP.+ q f 8 0 S.0X9 ;.ZXZXMXnXMXZXZX",
"KXKXKXKXHXHXIX=XO @ 8 rXrXe.    8 gX5XR.gXh   v :XKXf B.FXIXvX5X|.gXIXPXgXa _.PXK $ =  X|.P.jXI.. . 0 tXuXf.@   I.ZXVXnXMXZXLXHX",
"KXKXKXKXHXLXZX=XO e.y 8 y.G.y.+ . * l SXPXa   2 R D.qXIXPXsX0Xs V p.rXZXPXUXS.;.U $   }.PX{.8 *   9 0Xv.c i d.w I.VXnXnXZXGXVXGX",
"KXKXKXKXKXKXHXoX@ 0XqX9 q.tXm.q # # -  X X4 ; j 5 n kXDX0Xj.j.q.q w.j.M.aXZXR 3 x a % h 5Xz & # @ c.G.v.9 i.dX0 K.BXnXMXGXHXGXHX",
"KXKXKXKXKXKXIX=X. 8 0XrXG.m.h.l %.*.d     x BXD.m B s y e e e.n.n.k.q 8 t a N B e fXzX@   o @.*.X.r.l.G.rXtXN.+ I.MXnXVXGXLXHXHX",
"KXKXKXKXKXKXKX5.x   + y q 9 (.8.=.` H > > B.PX].R.(.b < x...C V.A.R >.t.w.v  .eXP.kXFXn > > H #.7.9.p.9 y 7   9 2.nXnXGXJXKXKXKX",
"KXKXKXKXKXKXKX/ jXy.O X . # o.X.L m K Q Q  .I.'.qX5X{ J b.fX3.M b A 8XG.M.W 3.wX{.R.B._ Q | m n >.%.Z @ o % > Q.| MXGXKXKXKXKXKX",
"KXKXKXKXKXHXGX^ `.aXR.{.kXl     : _ Q _ _ H a D.J M iX!.b v.H.9 $ e.m.J P fX~ B f.h 2 W _ _ _ n     1 1XdX] / 3.[ BXKXKXKXKXKXKX",
"KXHXKXKXKXGXVX$XW +X1X7XzX|.f h - 3 > $ $ 2 B.d I A.N.6X) : w.S.[.r.w v S P.V.E 5 T Y > $ $ > 3 d y f ,XC.{ D :.[ DXKXKXKXKXKXKX",
"HXHXKXKXGXVXVXVX8X!  XR.^.`.7XPX`.O   o   : E Z =XnXZ ~ PX- & IXPX;.  < Q Z ).dX,.U a   . o   i xXcX7X[ 2X[ qXeX{ DXHXJXKXKXKXKX",
"KXKXKXGXVXVXVXVXgX! wX'.]. X].{.}.'.I.`.].-   s 6.*.X.:.aXaXzXKXvX/.w >.#.V O.7.3.:   K.|.L.R.' ` '.].' iX] {.qX} FXHXHXKXKXKXKX",
"KXKXHXVXVXVXBX#X^ oX{.|.{.W.' W.].iXgXjXSX^.; O V $.P P ,.vXIXvX/.d.q.-.%.J C $.1 * s #XxX<XC.pX+XE.}.' hX[ oX! *XKXKXKXKXKXKXKX",
"KXJXVXVXBXnXnX^ [.eXW.'.(.` 3X] E.`.W.Q.P.jX7X. @ l G S *.Y._.|.k w q @.+.B E t   p %X4XR ' SXVX#X'.].C.C.' .X2XJXKXKXKXKXKXKXDX",
"GXVXVXBXnXnXBX^ [.].~.~.] pXHXlX' E.] ] R.iX`.+ $ J <.%.#.B.b.f 1 q.l.:.o.o._ <   p } FX4X3XVXBXXXE.}.W..XeXT.lXKXKXKXKXKXKXKXHX",
"ZXVXBXnXBXVXDX/ E.wX}.W.&XKXFX&X' E.#X2XU.kX{.O > +.6.$.#.v.l.9 i c.l.6.%.@.5.A   h 2XZ.jXhX] ] ' '.}.U.! ( { xXKXKXKXKXKXHXHXHX",
"VXBXnXnXVXJXJX/ (.[.W.W.#XKXFX' '.'.+X&XQ.vX].  6 =.G B %.F.h.i g.l.l.9.#.G ,.&.. a SXE.+X+XE.].].^.wXC.4XSXSXKXKXKXKXKXKXKXKXKX",
"BXnXnXVXVXJXHX/ ).( S W.XXKXFX.X].'.XX#X>X;.- * n A ,.*.o.v.h.a v.n.k.I #.+.^ A 1 * s >XXXXX{.}.}.`.wXC.bXKXJXKXKXKXKXKXFXKXKXDX",
"MXnXZXZXDXHXHXQ T.4./ T.C.pX] U.|.].] } iX4   d ` B ,.&.o.v.h.e f b.l.>.&.*.N K 6.% . R.] [ '.C..X'.}.] bXKXGXKXKXKXKXKXHXJXDXVX",
"nXBXVXKXJXHXFX/ .X5./ T.*X&X(.'.{.eX5.( 2Xy . @.=.+.G W &.0Xh.0 - j.b.9.o.m H =.7.6   P.iX`.'.XX#XE.}.' -XFXGXKXKXKXKXJXHXVXVXVX",
"KXKXKXKXKXKXKXQ ).| / .X&X#X'.'.'.eX} ( xXu.  F 1.0.F W T e.q.I >.s w.t.~ A X.-.<.< O gXzXP.'.&X&XE.].eX' 4.LXKXKXKXHXDXVXBXmXnX",
"KXKXKXKXKXKXHX5.] -X/ W.] [ E.}.'.}.^ S >Xu . m J L =.@.w.w I C F C e w.f =.X.J J <   I.gXR.] 3X#XW.2.` eX' 4.zXKXGXVXVXBXmXnXMX",
"KXKXKXKXKXHXHXSXzXIX( (.(.W.(.(.'.R.7X~.; # L C G m #.@.2 ~ >.& . 1 <.U V *.W G n X.3 . x XXxXzX} ).` ) ~ sX] 8XKXJXVXBXnXnXMXNX",
"KXKXKXKXKXHXHXHXHXHX( E.].'.W.( ^ Q.CX^.. V 9X-.O.D +.#.1.C #     . & +.1.#.+.) -.8.6.O - } FX] OX).*X-X3.sX.X4XJXJXVXnXnXmXVXGX",
"KXKXKXKXKXKXKXHXKXKX/ `.{.'.).5.4.:.dX:.* 6 @.#.#.*.o.@.L @   # i %   1 ,.#.*.#.+.@.X.. i +X] ' ].{.[ / ^ qX' 4XDXVXVXnXBXVXDXKX",
"KXKXKXKXKXKXDXHXKXKX) {.(.`.).#X5..X}.=X!.- X # 1 ~ 1.2 . e hX' U.H 1X- . ,.1.3 % X . I {.(.W.W.OX(.wX! *X^ T.-XVXVXmXmXBXVXDXJX",
"KXKXKXKXKXKXDXGXKXHX4X! 2.U.] <X| (.wXW.kX1X8 . # 9.U O 5 { } #XbX,XZ.=X+ ; 6.V . + l 1X| ^ ~.fX.X/ 2.T.xXS T.:XVXBXmXmXBXHXDXHX",
"KXKXKXKXKXKXKXKXGXDXBXzX{ ] BXZX%X' E.Y.L.NXjXO 6 7.@ - lX@X;XOX>X;XR ,X^.  X.=.  s PX[.&X4X( ).] lXS T.S S T.2XVXBXmXBXGXKXKXJX",
"KXKXKXKXKXKXKXKXGXVXVXBXkXkXVXGXSX4X^ wX[.p ; q x 6   4 `.N.g T L.Y g L.;.  X d f * a S.%XSXlXlXzXSXS wXoX2.T.3XmXmXMXVXJXKXKXKX",
"KXKXKXKXKXKXKXJXGXVXVXnXnXnXVXJXKXKXD qXi.    f 9   + a f j s.s.k i.s.j f 8   O y.*   t R 4.IXKXHXFX4.! [.U.#XkXmXmXBXDXKXKXKXKX",
"KXKXKXKXKXKXKXGXZXVXBXnXmXDXKXKXJXxX~ f O   * +   @ k I.i.i.a.a.a.i.s.i.a./.i   O = +   w B.zXKXHXKXKX$X] +XBXnXnXmXKXKXKXKXKXKX",
"KXKXKXKXKXKXHXDXVXVXmXBXVXJXKXKXJXzX' r.    O   @ d B.B.Y l z l z z z Y Y z K.i     X   = B.bXKXHXKXHXSXlXNXBXmXBXVXKXKXKXKXKXKX",
"KXKXKXKXJXDXVXVXVXBXnXBXZXKXKXKXKXSX%XB.+ O O . t S.k k a.i.s.a.i.i.i.i.a.k s.f.= * O O L :XSXKXKXJXVXVXVXBXnXnXBXHXKXKXKXKXKXKX",
"KXKXKXJXDXVXVXVXMXnXBXVXJXJXKXKXKXKXKX-XE i.L Y p.p.p.p.N.p.Y p.N.Y N.z N.N.l i.s.Y p.p.2XKXKXKXGXVXVXVXVXnXnXBXDXKXKXKXKXKXKXKX",
"KXKXJXDXVXVXVXmXnXnXVXVXKXKXKXKXKXKXHXSX<X1X,X1X3X3X<X8X<X<X<X1X<X<X8X8X8X8X3X3X3X4X3XpXFXKXJXJXVXVXVXBXmXmXmXVXDXKXKXKXKXKXKXKX",
"KXKXJXVXBXnXmXnXnXVXVXGXKXKXKXKXKXKXGXNXNXmXNXmXjXNXNXNXcXcXjXcXSXSXSXSXSXSXSXIXSXNXSXDXHXJXDXDXVXBXmXnXnXBXDXDXJXKXKXKXKXKXKXDX",
"HXGXVXVXmXnXmXBXBXDXJXKXKXKXKXKXKXKXKXGXKXHXHXGXZXZXMXnXmXBXBXZXGXKXKXKXKXKXKXKXKXGXHXKXJXGXVXVXBXmXmXCXVXDXDXJXKXKXKXKXKXKXKXKX",
"DXVXVXmXnXmXVXDXKXKXKXKXKXKXKXKXKXKXKXKXKXHXGXVXBXMXnXnXBXZXJXJXKXKXKXKXKXKXKXKXKXKXJXKXJXVXVXBXmXmXBXBXKXKXHXFXKXKXKXKXKXKXKXKX",
"DXBXmXnXBXGXHXHXKXKXKXKXKXKXKXKXKXKXKXHXKXGXVXVXMXnXnXZXGXKXKXKXKXKXKXKXKXKXKXKXJXKXKXDXVXVXmXnXnXGXDXJXKXKXKXKXKXKXKXKXKXKXKXKX",
"JXmXnXmXVXKXJXKXKXKXKXKXKXKXKXKXKXKXKXDXVXVXZXnXnXnXVXGXKXKXKXKXKXKXKXKXKXKXKXKXJXJXDXVXVXBXmXnXBXGXKXKXKXKXKXKXKXKXKXKXKXKXKXJX"
};
