/* XPM */
static char *result[] = {
/* columns rows colors chars-per-pixel */
"64 64 253 2 ",
"   c #010102",
".  c #01020A",
"X  c #080609",
"o  c #150708",
"O  c #18120B",
"+  c #030A14",
"@  c #07121A",
"#  c #09131A",
"$  c #091115",
"%  c #1A1615",
"&  c #0E1209",
"*  c #260516",
"=  c #370A1C",
"-  c #241B17",
";  c #2E110C",
":  c #37281D",
">  c #2D2C14",
",  c #051527",
"<  c #1E1E23",
"1  c #080A27",
"2  c #2E1B26",
"3  c #06223A",
"4  c #182534",
"5  c #242729",
"6  c #3A2C27",
"7  c #3D3637",
"8  c #322F31",
"9  c #4F070B",
"0  c #660E19",
"q  c #443119",
"w  c #4C102A",
"e  c #46362C",
"r  c #483A34",
"t  c #523128",
"y  c #731D26",
"u  c #564A18",
"i  c #6D5819",
"p  c #544535",
"a  c #544530",
"s  c #695234",
"d  c #714F34",
"f  c #7E6420",
"g  c #74681B",
"h  c #252849",
"j  c #3A3E4B",
"k  c #2D3253",
"l  c #36376E",
"z  c #453951",
"x  c #6C3745",
"c  c #413F67",
"v  c #374954",
"b  c #334760",
"n  c #484348",
"m  c #5A4947",
"M  c #53525B",
"N  c #404558",
"B  c #664C41",
"V  c #6A5445",
"C  c #755C49",
"Z  c #675859",
"A  c #755854",
"S  c #604950",
"D  c #786555",
"F  c #746353",
"G  c #58596A",
"H  c #4C4E6E",
"J  c #6E5662",
"K  c #5E6675",
"L  c #68656C",
"P  c #6D6E7D",
"I  c #656676",
"U  c #746C78",
"Y  c #757377",
"T  c #7B666D",
"R  c #941738",
"E  c #AE1A2E",
"W  c #942637",
"Q  c #892833",
"!  c #A62637",
"~  c #B6233A",
"^  c #BA353F",
"/  c #C72B3D",
"(  c #C10119",
")  c #926F34",
"_  c #9E6D32",
"`  c #FF6A03",
"'  c #FE6D08",
"]  c #FE710E",
"[  c #FE7616",
"{  c #FD7D25",
"}  c #EC792A",
"|  c #CC6237",
" . c #A23645",
".. c #BB3746",
"X. c #B82744",
"o. c #8F3652",
"O. c #C43A45",
"+. c #D23449",
"@. c #8F4D4E",
"#. c #B45757",
"$. c #B54A4C",
"%. c #896A54",
"&. c #877357",
"*. c #9A7754",
"=. c #95714D",
"-. c #A7754C",
";. c #8A6D63",
":. c #8B7564",
">. c #9B7B6C",
",. c #887979",
"<. c #987C74",
"1. c #B07373",
"2. c #995B66",
"3. c #C84946",
"4. c #D5554B",
"5. c #CD7149",
"6. c #CB6874",
"7. c #E66059",
"8. c #B58B31",
"9. c #C69C35",
"0. c #F08D32",
"q. c #D5A637",
"w. c #FAB737",
"e. c #F2AB31",
"r. c #FCC732",
"t. c #96885F",
"y. c #AD8756",
"u. c #B68C46",
"i. c #988168",
"p. c #9A8378",
"a. c #A68A79",
"s. c #B79579",
"d. c #B08F72",
"f. c #EF8D44",
"g. c #D4B44D",
"h. c #E9B14F",
"j. c #C39979",
"k. c #D59B73",
"l. c #EE9774",
"z. c #D6A679",
"x. c #D4B076",
"c. c #EAB071",
"v. c #C09D4C",
"b. c #DEC252",
"n. c #F7CA4C",
"m. c #F4CD52",
"M. c #EBCB6A",
"N. c #2C3593",
"B. c #2A33B5",
"V. c #1F2A89",
"C. c #37419E",
"Z. c #4F5491",
"A. c #696D81",
"S. c #6C7287",
"D. c #727282",
"F. c #797A8A",
"G. c #797787",
"H. c #777E93",
"J. c #4749A2",
"K. c #4D6290",
"L. c #312ED2",
"P. c #3533F7",
"I. c #3B53E7",
"U. c #4F65E6",
"Y. c #515BE1",
"T. c #B97D83",
"R. c #CE7480",
"E. c #5593BF",
"W. c #4C86FC",
"Q. c #878A94",
"!. c #9B9799",
"~. c #908A8C",
"^. c #A98E84",
"/. c #AA938A",
"(. c #BC9D8A",
"). c #B59887",
"_. c #B89F97",
"`. c #A49A99",
"'. c #B9A18C",
"]. c #BDA192",
"[. c #BBA997",
"{. c #A9A997",
"}. c #898AAC",
"|. c #9BA9A9",
" X c #9CA8B1",
".X c #A8A5A5",
"XX c #A8ACB4",
"oX c #B7B5B3",
"OX c #C69E85",
"+X c #D09188",
"@X c #C5A58B",
"#X c #D5AB88",
"$X c #D8B489",
"%X c #C1A291",
"&X c #C8AB97",
"*X c #D6B297",
"=X c #CDB29D",
"-X c #E9BA8E",
";X c #CEB8A7",
":X c #D6BAA7",
">X c #C8B6B0",
",X c #BBC8BF",
"<X c #E8C19A",
"1X c #F7C895",
"2X c #E1CC8E",
"3X c #DDCCBC",
"4X c #D7C5B6",
"5X c #D4C4B4",
"6X c #F2CAA6",
"7X c #E5CEB9",
"8X c #F1D1BA",
"9X c #F1CFAC",
"0X c #E7D197",
"qX c #ACBACE",
"wX c #B6CCCF",
"eX c #C5C6CA",
"rX c #D2C8C6",
"tX c #CBCED1",
"yX c #CAD4D8",
"uX c #D6D8D8",
"iX c #D4D2C7",
"pX c #E7D6CA",
"aX c #E5DBD1",
"sX c #ECDED3",
"dX c #E5DFDE",
"fX c #E1CFC2",
"gX c #D7E0DF",
"hX c #EBE2DB",
"jX c #EAE2DB",
"kX c #F9E8C8",
"lX c #D7DCE2",
"zX c #CFD9E0",
"xX c #CEE6ED",
"cX c #CEE4E8",
"vX c #D1E6ED",
"bX c #D2E8EF",
"nX c #DBE6E7",
"mX c #D5EAF1",
"MX c #DBEEF4",
"NX c #DFF0F5",
"BX c #EBE6E2",
"VX c #EBECEC",
"CX c #E6E8E7",
"ZX c #E1EFF4",
"AX c #EAEEF2",
"SX c #E4F1F6",
"DX c #E9F2F7",
"FX c #E6F3F9",
"GX c #EAF3F8",
"HX c #ECF9FB",
"JX c #FCFFFE",
"KX c #F5F7F8",
"LX c #FBF5E6",
/* pixels */
"KXGXGXGXGXGXGXGXGXGXGXGXGXDXMXMXbXvXbXmXMXMXDXDXGXGXGXGXGXGXGXGXGXGXGXDXNXMXMXvXxXvXMXMXSXDXGXGXGXGXGXGXGXGXGXGXGXGXNXNXmXmXvXmX",
"GXGXGXGXGXGXGXGXGXGXDXGXGXMXMXbXxXvXMXMXDXDXGXGXGXGXGXGXGXGXGXGXGXGXGXMXMXmXxXxXbXMXSXFXGXGXGXGXGXGXGXGXGXGXGXGXFXDXMXNXmXvXvXmX",
"GXGXGXGXGXGXGXDXGXGXDXDXGXMXbXvXvXmXZXDXGXGXGXGXGXGXGXGXGXGXGXGXGXGXGXNXmXxXxXmXMXSXGXGXGXGXGXGXGXGXGXGXGXGXGXGXGXSXMXmXxXxXNXNX",
"GXGXGXGXGXGXGXDXDXDXGXDXSXMXbXxXmXMXDXGXGXGXGXGXGXGXGXGXGXGXGXGXGXGXSXMXmXxXbXMXDXGXGXGXDXDXGXGXGXGXGXGXGXGXGXGXSXMXMXvXbXMXZXFX",
"GXGXGXGXGXGXDXDXFXDXDXNXMXbXvXbXMXMXSXDXGXGXGXGXGXGXGXGXGXDXGXGXFXSXMXMXbXxXMXNXDXGXGXGXGXGXDXGXGXGXGXDXGXGXFXSXMXMXMXvXMXZXZXDX",
"GXGXGXGXGXGXZXZXGXDXSXMXMXxXxXbXDXZXZXDXGXGXGXGXGXGXGXGXSXSXDXFXSXMXMXxXxXxXNXFXMXDXGXGXGXGXDXGXGXGXDXMXDXGXSXMXMXMXxXxXMXZXMXDX",
"GXGXGXGXGXGXDXGXDXNXMXMXMXnXbXMXDXGXGXGXGXGXGXGXGXGXGXGXDXDXGXNXMXMXMXxXxXNXSXSXDXGXGXGXGXGXGXDXDXGXGXDXFXDXMXMXMXMXxXMXMXGXDXDX",
"GXGXGXGXGXGXGXGXFXMXMXMXfX0.uXpX{ BXGXGXGXGXDXDXGXGXGXGXDXDXGXNXMXMXMXxXbXNXGXFXGXGXGXGXGXGXGXGXGXGXGXGXDXSXMXMXNXmXvXMXDXGXGXDX",
"GXGXGXGXGXGXGXSXFXNXMXbXaX` dXsX` BXDXBX&X%X].].%X(.(.%X_.(.(.(._./.).).).(._.%X%X%X4XDXGXGXGXGXGXGXGXFXGXNXMXMXmXxXmXSXFXGXGXGX",
"GXGXGXGXGXGXGXNXMXMXgXnXnX0.AXHX' 8XhX:X  . $ @ @ @ @ @ # @ + + + @ @ @ # # # # + . s GXGXGXGXGXGXGXGXSXNXMXMXmXxXmXSXGXHXGXGXGX",
"GXGXGXGXGXGXSXMXMXCX' ` ` ] DXHX{ { { } o G eXuXuXyXtXtXuXoXQ.~.XXyXyXtXuXtXuXtXoX3 t GXGXGXGXGXGXGXFXNXMXMXMXbXmXNXFXGXGXGXGXGX",
"GXGXGXGXSXSXMXMXMXvX4Xl.c.hXAXhX8XjX8X-Xs.F Q.eXCXAXVXCXJXJXAXCXHXKXDXCXVXVXlXXXP :.;XGXGXGXGXFXGXFXFXMXMXMXmXxXmXNXGXGXGXGXGXGX",
"GXGXGXGXSXMXMXMXmXcXiXaXVXKXAXVXBXGXVXVXDXA 1 D.!..X!.`.rXLXdXhXhXhX>X!..X.XE.n   :XGXGXGXGXDXDXFXSXNXMXMXMXxXxXZXSXGXGXGXGXGXGX",
"GXGXGXZXMXMXMXmXvXuX' ' 0.0.VXVX` ' ` [ DXA , F.F.S.G.<.$X-Xa.<.@X1Xj.,.D.A.T.G . &XGXGXGXGXDXDXSXNXMXMXMXxXxXmXSXGXGXGXGXGXGXGX",
"GXGXZXMXMXbXmXxXvXmXFXFXKX{ BX8X` 6X6X7XDX3X;.4 K F.U <.z.-Xz.z.#X1Xj.,.A.H.b 5 %XaXDXGXGXFXDXSXMXMXmXMXxXbXMXZXSXGXGXGXGXGXGXGX",
"SXSXMXMXvXxXvXvXmXMXDXDXVX{ sX6X[ GXZXMXSXDXpXB N I D.,.#X1X1X1X1X6Xs.Y P G n >.DXSXSXGXGXDXNXMXMXmXxXbXbXMXMXGXGXGXGXGXGXGXGXDX",
"NXMXMXbXxXbXMXZXGXGXGXGX8X] sX8X{ VXGXDXGXGXZXnXr 4 F.P ).1X-X-X6X8X!.S.I + ).GXGXFXGXGXDXMXmXNXbXxXmXMXSXDXDXGXGXGXGXGXGXGXGXGX",
"MXMXxXxXbXMXZXGXGXGXGXDXBXsXAXVXBXDXGXGXGXSXMXMX5 3 !.OX_./.j.s./..X@X_.I . d.DXGXGXGXSXMXMXMXmXxXmXMXDXGXGXGXGXGXGXGXGXGXGXGXGX",
"MXmXxXxXMXGXDXGXGXGXGXDXGXGXGXGXGXGXGXDXNXNXMXmX(.S G kX~.4 ,.(.%.h 7X>Xj >.fXDXGXSXSXNXNXmXmXxXxXMXGXGXGXGXGXGXGXGXGXGXGXGXGXGX",
"mXxXxXMXZXGXGXGXGXGXDXGXGXGXGXGXGXBXCXnXNXnXuXuXcXa.$ nX,.X I <Xy.% yX X% pXVXBXCXMXMXMXNXmXxXvXMXSXGXGXGXGXGXGXGXGXGXGXGXGXDXNX",
"xXvXmXDXDXGXGXGXGXZXDXGXGXGXGXGXVXB 6 i.xXa.e 7 r 2 . p.$Xs.<.#X1X*X;XM X e r e t 5XmXbXbXvXMXNXDXDXGXGXGXDXZXDXGXGXGXFXGXGXNXMX",
"mXmXDXGXDXGXGXGXGXZXDXDXGXSXDX4Xi.r n S a.: X w 2 2 e d.#X].z.-X-X[.*X%.- 5 2 =   '.bXxXmXNXFXFXDXDXDXGXDXDXZXGXGXGXGXSXSXMXMXMX",
"DXGXGXGXGXGXGXGXGXGXGXGXGXSXMX<.+ /.<Xp.$   9 3.@.A <.9X.XQ.<X0X].H.7X:XJ A 3.!   [.bXmXNXFXGXGXGXGXDXGXFXGXGXGXGXGXDXMXMXMXxXxX",
"GXGXGXGXGXGXGXGXGXGXGXGXGXMXMXa.# $X6X-X^.- = O.B T oXBXKXlXoX|.eXCXLXuX`.Z  .W   [.NXHXGXGXGXGXGXGXGXDXDXDXGXGXFXDXMXMXmXbXxXmX",
"GXGXGXGXGXGXGXGXGXGXGXGXFXMXMXa.# ~.=Xd.m & 9 +.<.qXKXJXLX9X^.T.&XkXJXJXnX|.6.E   4XDX&.;.:XGXGXGXGXGXGXGXGXGXGXGXSXMXMXxXxXmXNX",
"GXGXGXGXGXGXDXGXGXGXGXGXNXMXbXp.+ J a.V   . = W ).rXuXtX=X#X]._.@X#X5XuXtX>X#.0   '.&X5 5 %.3XVXGXGXGXGXGXGXGXFXFXNXMXbXxXxXMXSX",
"GXGXGXGXGXGXFXDXGXGXGXNXMXMXxXa.X ) u.d   k h X E $.Z U I Q.VXJXeXI A.U A ..0   X X t <X9X&.- pXGXGXGXGXGXGXGXDXMXMXMXxXMXMXSXGX",
"GXGXGXGXGXGXMXSXDXDXNXMXMXbXxXrX@Xq _ q.t M E.Y * 9 ..#X~.D.R.R.T.A.{.1.E +X`.K h k Y #X9Xt.X fXGXGXDXMXDXGXGXNXMXMXxXxXNXFXMXSX",
"GXGXGXGXGXGXDXDXDXMXMXMXMXxXvXmXBX& u h.2.J Q.XXv m 6.l.OX2.E (  .,.+Xl.6.L |.wX}.G M ,.*XF % pXGXGXGXSXFXGXNXMXMXMXxXbXSXSXSXGX",
"GXGXGXGXGXGXGXGXDXMXMXMXmXxXMXMXaX6 5 @./ o.Z S..X,X{.O.#.1...O.#.a...6.|.+ m eXoXv $ P ^.m % pXGXGXGXGXGXSXMXMXMXbXxXMXSXGXGXGX",
"GXGXGXGXGXGXGXGXDXMXMXmXxXxXMXFXVXpXV , @...#.y.b.g.-.~ 2.j.l.c.k.d.O.o.G E.a.=.8 5 d =.v.p % pXGXGXGXGXFXSXMXMXxXxXxXSXFXGXGXGX",
"GXGXGXGXGXGXGXDXMXMXmXxXxXNXDXDXGXGX5XC 5 w Q 5.0._ @.5.2.~.kXkX>XT X.W F 2Xx.d 9 Q #.-.>.e   fXGXGXGXGXFXMXMXxXxXbXSXGXGXGXGXGX",
"GXGXGXGXFXFXNXMXMXMXbXbXbXDXGXGXGXGXGXpX6 : t X.~ o.&.m.&.Z.AXJXqXl @.| _ q.) B ! / W m m 7 r sXGXGXGXZXNXMXmXvXvXmXGXGXGXGXGXGX",
"GXGXGXGXGXFXNXMXMXMXxXmXMXDXGXGXGXGXGXDXdXdXOXo r y.n.m.&.Z.DXCX}.c v.f.~ ; O X . . . . . A dXAXGXGXSXZXNXNXbXvXMXNXGXGXGXGXGXGX",
"GXGXHXGXSXMXMXMXMXxXxXmXGXDXDXDXGXGXGXGXDXDX3X  w 4.f.M.i.K.uX{.Z.Y.x.n.} y o - s.'.(.(.OX7XFXGXGXMXMXMXNXbXxXxXMXSXGXGXGXGXGXGX",
"GXGXFXSXMXMXNXmXxXxXmXMXGXGXDXDXGXGXGXGXDXaXs.* $.7.4.h.&.Z.}.Z.B.Y.$Xn.0.+.= p GXGXGXGXDXDXDXGXSXMXMXMXbXxXxXbXNXFXGXGXGXGXGXGX",
"GXGXDXMXmXmXmXxXxXmXMXZXGXGXGXGXGXGXDXDXFXD = 3.c.M.g.u.V N.P.P.L.H q.e.X.+.= r VXGXGXGXGXGXGXMXMXMXmXmXvXxXbXNXSXGXGXGXGXGXGXGX",
"GXGXMXMXmXxXbXxXmXMXSXGXGXGXGXGXGXGXSXMXFXB * +.4.h.b.A C.U.W.I.L.n M -.0.q.) z D 4XDXFXGXGXMXMXmXxXxXxXxXvXMXGXGXGXGXGXGXGXGXZX",
"SXMXmXmXxXxXmXMXMXSXGXGXGXGXGXGXGXGXDXDXGXA * O.3.f.g.H L.U.E.Y.L.J.V.D r.e.5.x . %XGXGXGXNXMXMXvXxXvXMXMXMXSXGXGXGXGXGXGXGXGXSX",
"NXMXmXxXmXSXSXSXGXGXGXGXGXGXGXGXGXGXGXDXAXC * 3.c.m.q.H l c j N J.U.N.t.e.O.+.R   =XGXSXNXMXMXvXxXvXmXMXFXGXGXGXGXGXGXGXGXGXGXDX",
"MXmXxXxXMXFXFXGXGXGXGXGXGXGXGXGXGXGXGXpXV 8 %.h.b.m.r.=.%.*.*.-.U C.V.&.w.e.} R   :XFXSXMXMXvXxXcXMXGXGXGXGXGXGXGXGXGXGXGXGXGXGX",
"mXxXxXMXMXFXGXGXGXGXGXGXGXGXGXGXGXGXFX;X  s h.x.M.8.g u.) u t i d A J y.n.0.3.R 2 ;.;XNXmXvXxXvXMXSXGXGXGXGXGXGXGXGXGXGXGXGXDXSX",
"bXxXMXNXSXGXGXGXGXSXGXGXGXGXGXGXGXDXNX4X- 8.g.i.d.a X ) t % O   > _ ) v.h.3.O.3.%., p mXxXxXbXMXMXDXGXGXGXGXSXGXGXGXGXGXGXGXSXMX",
"xXmXNXGXGXGXGXGXSXSXSXGXGXGXGXGXGXNXmXnXiXs & X O ) 8.> *.<Xz.q   X O g r.w.e.r.n.> 7 xXbXvXMXGXGXGXGXGXGXSXNXGXGXGXGXDXSXNXMXbX",
"GXGXGXGXGXGXGXGXGXGXGXGXGXGXSXMXmXxXxXxXxX5X[.(.% u q.  s.DXjX*X'.%X> > q.g u i i =.[.bXNXSXGXGXGXGXGXGXGXGXGXGXFXDXDXMXMXMXcXxX",
"GXGXGXGXGXGXGXGXGXGXGXGXGXGXMXmXmXxXmXMXmXnXCXaXe e =.. d.DXGXHXDXjXs u d q 6 e 6 5XMXMXDXDXGXGXGXGXGXGXGXGXGXGXGXDXMXMXbXvXcXbX",
"GXGXGXGXGXGXGXGXGXGXGXGXGXMXmXmXxXxXMXSXDX;.- O X C d.. -.8XAXBXj.- 9._ O k.3XcXlXMXDXGXDXGXGXDXDXGXGXGXGXGXGXGXGXFXMXMXcXxXbXMX",
"GXGXGXGXGXGXGXGXGXGXGXGXGXSXbXxXxXmXDXGXGXs       : p   s ).(.%XC   q a k d d.5XmXFXDXGXFXGXDXDXDXGXGXGXGXGXGXGXGXFXMXxXxXvXMXSX",
"GXGXGXGXGXGXGXGXGXGXGXSXNXMXxXbXMXSXDXGXGX;.5 < .       j S.A.S.G <   1 k . 3 L :XCXGXGXGXGXGXDXDXGXGXGXGXGXGXFXSXNXMXxXbXMXZXDX",
"GXGXGXGXGXGXZXAXGXGXFXMXMXbXxXxXMXZXDXGXGX).S.I %       z H.P D.G.P %         % A.eXGXGXGXGXGXGXGXGXDXSXGXGXDXSXNXMXvXxXMXMXSXDX",
"GXGXGXGXGXGXMXDXGXGXSXMXMXxXxXbXGXDXDXGXGX/.S.D.G M M M L D.D.A.D.D.I 5     . $ A.qXGXGXGXGXGXGXGXGXDXMXDXDXZXNXMXbXvXvXmXDXMXDX",
"GXGXGXGXGXGXGXGXSXZXMXMXmXxXMXMXGXGXGXGXGX:X~.D.A.D.S.D.G.P A.A.P S.G.G j N G L G.aXGXGXGXGXGXGXGXGXGXGXDXSXMXMXNXbXvXmXSXGXDXDX",
"GXGXGXGXGXGXGXGXFXNXMXmXxXxXmXSXGXGXGXGXGXGX4XD.D.Y D.G.F.F.G.F.F.H.S.A.D.D.D.~.AXDXGXGXGXGXGXGXGXGXGXGXGXSXMXMXbXxXxXMXFXGXGXGX",
"GXGXGXGXGXGXGXFXSXMXmXxXxXmXNXGXGXGXGXGXGXGXVXpXsXpXpXlXlXlXzXzXyXyXwXtXrXaXpXsXDXDXGXGXGXGXGXGXGXGXGXGXSXMXMXbXxXxXbXDXGXGXGXGX",
"GXGXGXGXGXGXGXFXMXMXmXxXxXDXGXGXGXGXGXGXGXGXGXGXGXGXGXGXGXSXMXMXmXxXmXNXGXGXGXGXGXGXGXGXGXDXGXGXGXGXGXDXMXMXMXxXxXvXGXGXGXGXGXGX",
"GXGXGXGXGXGXSXMXMXMXxXmXMXSXGXGXGXGXGXGXGXGXGXGXGXGXGXGXNXMXMXMXmXxXMXNXGXGXGXGXGXGXGXGXGXGXGXGXGXGXDXMXMXNXbXxXmXMXGXGXGXGXGXGX",
"GXGXGXGXFXFXMXMXMXmXxXmXNXGXGXGXGXGXGXGXGXGXGXGXGXGXFXSXNXMXMXmXxXbXFXSXGXGXGXGXGXGXGXGXGXGXGXGXGXGXMXMXMXmXxXxXMXZXGXGXGXGXGXGX",
"GXGXGXFXZXMXMXmXmXxXmXmXGXGXGXGXGXGXGXGXGXGXGXGXGXGXSXMXMXMXmXxXxXmXFXGXGXGXGXGXGXGXGXGXGXGXGXGXSXMXMXMXMXxXxXmXZXDXGXGXGXGXGXGX",
"GXGXGXZXMXMXMXvXxXxXMXMXGXGXGXGXGXGXGXGXGXGXGXGXGXSXMXMXMXmXxXxXmXNXFXGXGXGXGXGXGXGXGXGXGXGXGXFXMXMXMXmXvXxXvXMXZXGXGXGXGXGXGXGX",
"GXGXSXMXmXvXvXxXxXMXMXFXGXGXGXGXGXDXDXMXDXGXGXGXNXNXMXmXmXxXxXbXNXFXFXGXGXGXGXGXGXMXGXGXGXGXSXMXMXmXvXxXxXmXZXZXGXGXGXGXGXGXGXDX",
"GXSXMXmXxXxXmXmXmXNXFXGXGXGXGXGXGXGXGXZXGXGXGXSXMXMXbXxXxXmXmXNXSXGXGXGXGXGXGXGXGXSXSXGXFXSXMXMXmXxXvXmXmXMXZXDXGXGXGXGXGXGXGXGX",
"ZXMXMXvXxXxXMXNXDXGXGXGXGXGXGXGXGXGXGXGXGXGXSXMXMXxXxXxXmXNXGXGXGXGXGXGXGXGXGXGXGXGXGXGXSXMXMXmXvXvXbXMXGXGXDXDXGXGXGXGXGXGXGXGX",
"SXmXxXxXmXNXDXGXDXGXGXGXGXGXGXGXGXGXGXGXFXZXMXMXxXxXbXMXSXGXGXGXGXGXGXGXGXGXGXGXGXGXGXSXMXMXmXxXvXNXSXGXGXGXGXGXGXGXGXGXGXGXGXGX",
"SXxXxXmXMXGXGXGXGXGXGXGXGXGXGXGXGXGXGXZXZXMXNXxXxXxXMXDXGXGXGXGXGXGXGXGXGXGXGXGXGXSXMXMXMXmXxXxXmXSXGXGXGXGXGXGXGXGXGXGXGXGXGXDX"
};
