/* XPM */
static char *result[] = {
/* columns rows colors chars-per-pixel */
"25 32 139 2 ",
"   c #794937",
".  c #7E4F3D",
"X  c #7F5646",
"o  c #7A5548",
"O  c #804F3B",
"+  c #86513D",
"@  c #84533E",
"#  c #88543F",
"$  c #885643",
"%  c #8A5843",
"&  c #8D5842",
"*  c #8F5942",
"=  c #8D5A44",
"-  c #8F5C45",
";  c #875C4D",
":  c #8F5F4B",
">  c #915D46",
",  c #925F49",
"<  c #936049",
"1  c #96624B",
"2  c #97624B",
"3  c #95634D",
"4  c #97634C",
"5  c #96644C",
"6  c #97654D",
"7  c #97664D",
"8  c #99644D",
"9  c #98664D",
"0  c #98674E",
"q  c #99674E",
"w  c #99674F",
"e  c #99684F",
"r  c #9A694F",
"t  c #916450",
"y  c #956653",
"u  c #966852",
"i  c #966855",
"p  c #9B6850",
"a  c #9B6A52",
"s  c #9C6950",
"d  c #9D6B51",
"f  c #9E6B52",
"g  c #9D6D52",
"h  c #9D6D53",
"j  c #9E6D53",
"k  c #9F6E53",
"l  c #9F6F54",
"z  c #9F6F58",
"x  c #9C6F5A",
"c  c #A06F55",
"v  c #A07055",
"b  c #A17055",
"n  c #A27055",
"m  c #A27156",
"M  c #A27157",
"N  c #A37357",
"B  c #A47357",
"V  c #A57357",
"C  c #A67357",
"Z  c #A37457",
"A  c #A77457",
"S  c #A37358",
"D  c #A47358",
"F  c #A37458",
"G  c #A47458",
"H  c #A47459",
"J  c #A57559",
"K  c #A67459",
"L  c #A77459",
"P  c #A67559",
"I  c #A77559",
"U  c #A57659",
"Y  c #A77659",
"T  c #A5755A",
"R  c #A5765A",
"E  c #A6765A",
"W  c #A7765A",
"Q  c #A7775B",
"!  c #AA785B",
"~  c #AC785A",
"^  c #AA785C",
"/  c #AB7B5E",
"(  c #AD7A5C",
")  c #AF7C5D",
"_  c #AF7D5F",
"`  c #AF7E5F",
"'  c #8C756B",
"]  c #957566",
"[  c #9F7460",
"{  c #917E76",
"}  c #B07F61",
"|  c #B27F61",
" . c #94847E",
".. c #B18062",
"X. c #B28263",
"o. c #B38263",
"O. c #B48364",
"+. c #B68464",
"@. c #B68565",
"#. c #B78565",
"$. c #B78666",
"%. c #B98867",
"&. c #B98868",
"*. c #A5887C",
"=. c #AD8C7B",
"-. c #AA8B7E",
";. c #AD8C7C",
":. c #9D9592",
">. c #9D9896",
",. c #AE8F80",
"<. c #B69683",
"1. c #A19793",
"2. c #A59B96",
"3. c #A19A98",
"4. c #A39B98",
"5. c #AA9F9B",
"6. c #ACA29D",
"7. c #BCA79C",
"8. c #A4A3A3",
"9. c #ABAAAA",
"0. c #ACAAA9",
"q. c #B7ACA7",
"w. c #B9ABA6",
"e. c #BBAEA8",
"r. c #B2B2B1",
"t. c #B6B6B6",
"y. c #B7B7B7",
"u. c #BBBBBB",
"i. c gray",
"p. c gray75",
"a. c #C0BDBC",
"s. c #C5C0BD",
"d. c #C1C1C1",
"f. c #C3C1C0",
"g. c gray77",
"h. c #C5C5C5",
"j. c #C8C5C3",
"k. c #C8C7C7",
"l. c None",
/* pixels */
"l.l.l.l.l.l.l.l.%.%.&.&.&.&.@.@.l.l.l.l.l.l.l.l.l.",
"l.l.l.l.l.l.l.l.%.%.&.&.&.&.@.@.l.l.l.l.l.l.l.l.l.",
"l.l.l.l.l.l.O.O.P P Y Y W W I I ! ! @.@.l.l.l.l.l.",
"l.l.l.l.l.l.O.O.P P Y Y W W I I ! ! @.@.l.l.l.l.l.",
"l.l.l.l.....m m S S R R Q Q H H N N ^ ^ #.#.l.l.l.",
"l.l.l.l.....m m S S R R Q Q H H N N ^ ^ #.#.l.l.l.",
"l.l.#.#.k k Z Z G G J J E E S S Z Z c c } } l.l.l.",
"l.l.#.#.k k Z Z G G J J E E S S Z Z c c } } l.l.l.",
"l.l.$.$.c c v v J J J J J J D D F F l l X.X.+.+.l.",
"l.l.$.$.c c v v J J J J J J D D F F l l X.X.+.+.l.",
"l.l.I I ` ` k k J J J J T T T T U U / / o.o.B B l.",
"l.l.I I ` ` k k J J J J T T T T U U / / o.o.B B l.",
"6 6 7 7 V V ) ) C C I I L L K K ! ! _ _ M M h h j ",
"6 6 7 7 V V ) ) C C I I L L K K ! ! _ _ M M h h j ",
": : 4 4 p p r r A A ~ ~ | | ( ( n n q q b b a a u ",
": : 4 4 p p r r A A ~ ~ | | ( ( n n q q b b a a u ",
"w.w.i i , , s s d d < < g g 5 5 j j 7 7 3 3 ,.,.j.",
"w.w.i i , , s s d d < < g g 5 5 j j 7 7 3 3 ,.,.j.",
"y.y.q.q.y y 8 8 f f q q G G e e s s 2 2 *.*.f.f.y.",
"y.y.q.q.y y 8 8 f f q q G G e e s s 2 2 *.*.f.f.y.",
">.>.y.y.e.e.[ [ z z w w J J 0 0 x x -.-.a.a.0.0.3.",
">.>.y.y.e.e.[ [ z z w w J J 0 0 x x -.-.a.a.0.0.3.",
"o o :.:.u.u.k.k.7.7.=.=.<.<.;.;.s.s.i.i.9.9.{ {   ",
"o o :.:.u.u.k.k.7.7.=.=.<.<.;.;.s.s.i.i.9.9.{ {   ",
"l.l.; ; 4.4.r.r.d.d.g.g.h.h.p.p.t.t.8.8.' ' . . l.",
"l.l.; ; 4.4.r.r.d.d.g.g.h.h.p.p.t.t.8.8.' ' . . l.",
"l.l.l.l.t t ] ] 2.2.5.5.6.6.1.1. . .X X $ $ l.l.l.",
"l.l.l.l.t t ] ] 2.2.5.5.6.6.1.1. . .X X $ $ l.l.l.",
"l.l.l.l.l.l.1 1 > > = = 9 9 % % # # * * l.l.l.l.l.",
"l.l.l.l.l.l.1 1 > > = = 9 9 % % # # * * l.l.l.l.l.",
"l.l.l.l.l.l.l.l.& & @ @ - - O O + + l.l.l.l.l.l.l.",
"l.l.l.l.l.l.l.l.& & @ @ - - O O + + l.l.l.l.l.l.l."
};
