/* XPM */
static char *rcp08331506957629[] = {
/* columns rows colors chars-per-pixel */
"17 22 168 2 ",
"   c #6D3C2B",
".  c #6C4030",
"X  c #724131",
"o  c #714331",
"O  c #734533",
"+  c #744634",
"@  c #794735",
"#  c #7B4D3A",
"$  c #7E4D3A",
"%  c #7F4D3B",
"&  c #81503D",
"*  c #83513E",
"=  c #83523E",
"-  c #83533E",
";  c #85513D",
":  c #86513D",
">  c #86533F",
",  c #89513D",
"<  c #875741",
"1  c #885440",
"2  c #895540",
"3  c #895641",
"4  c #8A5742",
"5  c #8B5742",
"6  c #8D5641",
"7  c #8E5742",
"8  c #8B5A43",
"9  c #8A5B43",
"0  c #8C5942",
"q  c #8F5942",
"w  c #8F5943",
"e  c #8D5B45",
"r  c #8E5B44",
"t  c #8F5C45",
"y  c #8E5C46",
"u  c #8F5E46",
"i  c #905E47",
"p  c #905F47",
"a  c #935E46",
"s  c #945E47",
"d  c #915F49",
"f  c #916048",
"g  c #926148",
"h  c #95604A",
"j  c #96604A",
"k  c #96614A",
"l  c #95624A",
"z  c #94624B",
"x  c #95634B",
"c  c #97624B",
"v  c #95634C",
"b  c #96654C",
"n  c #96644D",
"m  c #97654D",
"M  c #97654E",
"N  c #98634C",
"B  c #99644C",
"V  c #98654D",
"C  c #98664D",
"Z  c #98664E",
"A  c #99674E",
"S  c #98664F",
"D  c #99674F",
"F  c #9A664E",
"G  c #9B674E",
"H  c #9A664F",
"J  c #9B674F",
"K  c #9A684F",
"L  c #9B694F",
"P  c #9C684F",
"I  c #9A6850",
"U  c #9B6950",
"Y  c #9B6951",
"T  c #9C6850",
"R  c #9D6950",
"E  c #9D6951",
"W  c #9C6B51",
"Q  c #9E6A51",
"!  c #9C6A52",
"~  c #9C6B52",
"^  c #9D6B52",
"/  c #9D6C52",
"(  c #9E6C53",
")  c #9E6D53",
"_  c #9F6D53",
"`  c #9F6D54",
"'  c #9F6E54",
"]  c #A06E54",
"[  c #A06E55",
"{  c #A07055",
"}  c #A17055",
"|  c #A17155",
" . c #A27156",
".. c #A27256",
"X. c #A27257",
"o. c #A37357",
"O. c #A47257",
"+. c #A97457",
"@. c #A47458",
"#. c #A57559",
"$. c #A57659",
"%. c #A6775A",
"&. c #AB7659",
"*. c #A7785B",
"=. c #AD795B",
"-. c #A8795C",
";. c #A97A5D",
":. c #AA7B5D",
">. c #AA7B5E",
",. c #AA7C5E",
"<. c #B27F5F",
"1. c #B37F5F",
"2. c #AB7C60",
"3. c #AB7D60",
"4. c #AC7D60",
"5. c #AC7E61",
"6. c #B38060",
"7. c #B48161",
"8. c #B58362",
"9. c #B48263",
"0. c #B58263",
"q. c #B68364",
"w. c #B68465",
"e. c #B78565",
"r. c #B78566",
"t. c #B88666",
"y. c #B88766",
"u. c #B88767",
"i. c #B98868",
"p. c #B88968",
"a. c #BA8968",
"s. c #B98A69",
"d. c #BA8B6A",
"f. c #BB8D6C",
"g. c #BE916E",
"h. c #9D9D9D",
"j. c #A0A0A0",
"k. c gray63",
"l. c #A2A2A2",
"z. c gray64",
"x. c #A5A5A5",
"c. c #A7A7A7",
"v. c gray66",
"b. c #AAAAAA",
"n. c #ACACAC",
"m. c gray68",
"M. c #AFAFAF",
"N. c #B1B1B1",
"B. c #B6B6B6",
"V. c gray72",
"C. c gray73",
"Z. c gray74",
"A. c gray75",
"S. c gray78",
"D. c #C8C8C8",
"F. c gray79",
"G. c #CACACA",
"H. c #CBCBCB",
"J. c gray80",
"K. c #CDCDCD",
"L. c #CECECE",
"P. c gray81",
"I. c gray82",
"U. c #D2D2D2",
"Y. c gray83",
"T. c #D5D5D5",
"R. c #D7D7D7",
"E. c None",
/* pixels */
"E.E.E.E.E.E.s.s.s.s.0.E.E.E.E.E.E.",
"E.E.E.E.s.s.s.s.s.s.i.i.s.E.E.E.E.",
"E.E.E.u.f.S S K K K S S 0.u.E.E.E.",
"E.E.u.u.S *.-.3.5.3.-.-.^ u.u.E.E.",
"E.E.u.b ....] ..O...` ....^ s.E.E.",
"E.e.e.b *.,.5.5.5.5.,.-.@.I e.e.E.",
"E.q.s.I I @.........] ....I g.q.E.",
"E.S 0.s.x -.-.-.-.-.-.-...s.s.) E.",
"v ..a 6.0.) I I ^ ^ I ..e.s.S ..) ",
"S a ) K 1.1.6.u.0.0.0.0.&.` @.b ] ",
"= x S ^ t v =.+.0.0.&.) t ^ ..) 9 ",
"G.7 x d ) I ^ 1 b ^ t ....9 ^ S K.",
"S.G.= r S ) ` b @.@.f ..^ x = K.K.",
"j.S.G.7 x ^ ^ x @.@.v ^ S 7 G.G.v.",
"j.j.G.G.a I ^ v @.@.f x s G.G.x.v.",
"  j.x.G.K.U.) b *.@.x K.K.G.x.x.@ ",
"E.X v.m.N.U.Y.Y.Y.Y.U.K.v.x.x.X E.",
"E., % v.m.V.V.Z.Z.V.B.N.j.x.O > E.",
"E.E.1 t < j.m.m.N.v.j.h.. % 7 E.E.",
"E.E.E.x S r t 1 S x = = q q E.E.E.",
"E.E.E.E.N x s 1 P S > 7 q E.E.E.E.",
"E.E.E.E.E.E.1 # q 1 + > E.E.E.E.E."
};
