/* XPM */
static char *result[] = {
/* columns rows colors chars-per-pixel */
"50 64 95 2 ",
"   c #794936",
".  c #7D4E3D",
"X  c #764D40",
"o  c #7F5342",
"O  c #804E3B",
"+  c #84523E",
"@  c #89543F",
"#  c #865745",
"$  c #8A5641",
"%  c #875A46",
"&  c #8C5943",
"*  c #825A4B",
"=  c #8D5E4B",
"-  c #915D47",
";  c #915E48",
":  c #805D52",
">  c #95634C",
",  c #99664E",
"<  c #9A684F",
"1  c #836255",
"2  c #84675C",
"3  c #886659",
"4  c #89695C",
"5  c #946653",
"6  c #996750",
"7  c #976A55",
"8  c #9D6B52",
"9  c #946C5C",
"0  c #9A6C58",
"q  c #9D715B",
"w  c #A06F54",
"e  c #A37256",
"r  c #A57559",
"t  c #A8775A",
"y  c #A7785C",
"u  c #AB7A5D",
"i  c #B17D5F",
"p  c #8C766D",
"a  c #8F786F",
"s  c #967465",
"d  c #9C7462",
"f  c #967869",
"g  c #8F7970",
"h  c #937C73",
"j  c #A07763",
"k  c #A17A67",
"l  c #AD7E61",
"z  c #A67D69",
"x  c #B07F60",
"c  c #9E8074",
"v  c #93827B",
"b  c #9C867C",
"n  c #9F897F",
"m  c #A8806D",
"M  c #B58364",
"N  c #B88767",
"B  c #B98868",
"V  c #A48375",
"C  c #AA8877",
"Z  c #A6867A",
"A  c #A7887C",
"S  c #A98A7E",
"D  c #9C8982",
"F  c #9A928F",
"G  c #9D9693",
"H  c #9E9997",
"J  c #A28D83",
"K  c #AC8E81",
"L  c #A59086",
"P  c #AE9082",
"I  c #A0918A",
"U  c #A19996",
"Y  c #A29D9B",
"T  c #B8A59C",
"R  c #A7A5A4",
"E  c #A9A5A4",
"W  c #A8A8A7",
"Q  c #ACABAA",
"!  c #B7A9A3",
"~  c #BCABA3",
"^  c #B1AEAD",
"/  c #B8ACA8",
"(  c #B3B1AF",
")  c #BDB1AC",
"_  c #B4B4B4",
"`  c #B8B7B7",
"'  c #BBBBBB",
"]  c #C1AFA6",
"[  c #C3B0A5",
"{  c #C2BEBD",
"}  c #C7C1BE",
"|  c #C4C3C2",
" . c #C9C6C4",
".. c #CBC9C8",
"X. c None",
/* pixels */
"X.X.X.X.X.X.X.X.X.X.X.X.X.X.X.X.X.X.B B B B B B B B B B M M M M X.X.X.X.X.X.X.X.X.X.X.X.X.X.X.X.X.X.",
"X.X.X.X.X.X.X.X.X.X.X.X.X.X.X.X.X.X.B B B B B B B B B B M M M M X.X.X.X.X.X.X.X.X.X.X.X.X.X.X.X.X.X.",
"X.X.X.X.X.X.X.X.X.X.X.X.X.X.N N M N N N B B B B B B B B M M M M B N B N X.X.X.X.X.X.X.X.X.X.X.X.X.X.",
"X.X.X.X.X.X.X.X.X.X.X.X.X.X.N N N N M M B B B B B B B B M M M M B B N N X.X.X.X.X.X.X.X.X.X.X.X.X.X.",
"X.X.X.X.X.X.X.X.X.X.X.X.B B M M M y M i M y M M M M M M M m M M t M M M B N X.X.X.X.X.X.X.X.X.X.X.X.",
"X.X.X.X.X.X.X.X.X.X.X.X.B B M M y M y M y M y M M M M M < M M M M t M M B N X.X.X.X.X.X.X.X.X.X.X.X.",
"X.X.X.X.X.X.X.X.X.X.N N N N r r w w < w 8 w 8 e < > < < < 8 w 8 < 8 t t M M N N X.X.X.X.X.X.X.X.X.X.",
"X.X.X.X.X.X.X.X.X.X.N N N N y y w w e e < w e < < M M ; < 8 w w w w e e M M M M X.X.X.X.X.X.X.X.X.X.",
"X.X.X.X.X.X.X.X.N N M u t u e e w w e e e m m < M < < M 8 < < M w e e e M 8 M M M M X.X.X.X.X.X.X.X.",
"X.X.X.X.X.X.X.X.N M M M t t e e e e e e 8 < e < < M < < M m < w e e e e e M M M M M X.X.X.X.X.X.X.X.",
"X.X.X.X.X.X.N M u M r t w q e e e e m < e e M M m M 8 m < M < w e t e e w w w M M M N N X.X.X.X.X.X.",
"X.X.X.X.X.X.N N M i r t w 8 e q e e < M M e e e M < M < M < M < r t e e < < M M M M N N X.X.X.X.X.X.",
"X.X.X.X.X.X.M M M w 8 8 w e e e e e w < e < < M < < M < M < < m e q w w e e w w t y N B X.X.X.X.X.X.",
"X.X.X.X.X.X.M M < M w w w w e e 8 < M < e < m < < M m < w 8 w w e e w < 8 e e e u u N N X.X.X.X.X.X.",
"X.X.X.X.M M M M w M 8 8 e w M q w M < M M M M < < m M < m w M w t M w M m e 8 8 t y M M N M X.X.X.X.",
"X.X.X.X.M M M M m < < < e 8 M e < m M < M < M < M M < M 8 M 8 w r r w e < e 8 e t y M M N M X.X.X.X.",
"X.X.X.X.N M M M t e < 8 w w e M e e M w m < M w M w M M w q e M r r r r e e e < t r N N N M X.X.X.X.",
"X.X.X.X.N M M M e e 8 8 w w e e e M e M w M w M e M w e e M e m r r r e e e 8 e t y N B M N X.X.X.X.",
"X.X.M M x M N M t M 8 8 8 < e e w e e e M < w m e e e e w e w w e e e e e 8 e q u l B B M N M M X.X.",
"X.X.M i M M N M t t w 8 8 8 e e e e e e > M 8 < e e e e e e e e r e e e e e q e l u B B M M M M X.X.",
"X.X.r w r t i i t M e e < w w e > M < M M < M < t e t e t t t t r M 8 q r r t u M M M M e M 8 r X.X.",
"X.X.w w r r M i M M t t 8 < w w m > M < < M < m t t e M e t e t r r r r r r u u M M M M M M e e X.X.",
"X.X.< < w 8 r e M t i i t e e e < < < M m > M > e w t e e e e e e e M e l y M M M x y l e e w e X.X.",
"X.X.< < 8 w e e t i t M e e e e < M M < > M > M t e e e e t e t r 8 M q y y M M x M y y e e w q X.X.",
", > , , < < < , r e i i i i t t < < < M w w w w e e e w w w w w e e e t M M M M t M < 8 w 8 w 8 8 8 ",
"> , , < < < , , w w i u i i e t M < < > w < w w w e w w w w w w e e M t M M M t e M 8 w w w 8 8 8 8 ",
"> > > > , , 6 6 8 8 w e i t t i 8 M M M t i i i t t M t i t i i M M e t t t e e t e q w 8 8 8 8 8 8 ",
"> > > > ; , < , 8 w e e i t i i e w M w i i i i M M t M t i t t M e M e t M e e e e w w 8 8 < 8 q 8 ",
"> & ; ; > > , 6 8 < 8 8 w w w e e e i u i i i i M i i M i i i i t t w t < e < e w w w e 8 8 < < < , ",
"& > ; = ; > , < < 8 8 8 w w w w t e u i i t i i i M i i i i i i t t e e 8 < w < w w e e 8 8 < 8 < , ",
"9 9 5 5 ; > , > , , , , > > , , w < t e e e t e t t M t M i w e w w < < > > , , 8 8 e 8 8 8 q q s s ",
"9 9 5 5 > ; , > , , , , > > , , < w e t e e e t t t t M t t e e w w < < > > , , < 8 w q 8 q q q q q ",
"! ! z K 6 5 > > - > > > , < < , < < < < > > > > 8 8 w w 8 < > > < w 8 w < < > - > , 6 8 e 0 P P ] / ",
"! / J z 5 5 ; ; > > > , < < < , < < < < > > > > < < w w 8 8 < > < < w 8 < < - , , > 6 8 e j P P / ] ",
"| | ! ! A A 5 5 - - > - , < < 8 M > M > > > > > w 8 w w < < > > < w w 8 < < , > > ; 7 9 K K ] / ....",
"| { ! ! A A 7 7 ; ; - > < , 8 < < < < < > > < > w 8 w w < < > > < < w w < < > > ; ; 0 9 K K ] {  ...",
"' ' { { / / h h 5 5 ; ; > , < < < w 8 w > < < < m m < M 8 8 < > < < w < < < < > 0 7 V V ) ) | { | | ",
"' ' { ' / ^ z Z 5 5 ; ; , > , < < < w < < < < < < w < < 8 8 > > 8 < < < < < > > 7 7 V c / ( | | | | ",
"W W ` ` { { ` ] Z Z 5 > > > , , < < < < > < < > < M M < 8 8 > > < < < < , > < < A A ` ) | | ' ' Q ^ ",
"W R ` _ { | ] / Z Z 5 5 > > , , 8 8 < < < > < & M < > M 8 8 < > < < < < > , < < A A ) _ { | ' ' ( ^ ",
"Y Y W W _ _ | ' / / C S q 7 8 7 8 8 8 8 > > 8 8 e e e e 8 8 > > , , , , 0 0 S S / ~ } { ` ` ^ Q R W ",
"Y Y W W _ _ ' | / / S S 0 8 8 8 8 8 8 8 < < < 8 e e t e 8 8 > > , , < < 0 q S P / / | { ` ` ^ ^ W W ",
"v v F F W W ' ` { { ) ) S S C C M m e 8 5 < 8 8 e r e r 8 8 < < k k m C S P ) ) { { ` ` Q Q H H D D ",
"v v F F W W ' ` { { ) ) S P C C m m w 8 < > 8 < r r r e 8 8 < 5 k k Z m S S ) ) { { ` ` Q Q H H F D ",
"X X p g H H W W ' ' } | } } } } ~ ~ m m q q q y l z l z d y j j T T { { { { | | ` ` W W H H g g X o ",
"X X p v H H W W ' ' | | } } } } ~ T y m q q y q l l z u y y j d T T { ' { { { } ` ' W W H H v D o o ",
"X.X.2 o p p H H ^ ^ _ ' ' ' .. .} } ~ [ ~ ~ ~ ~ [ [ ] ] ~ ~ ~ ~ { { } } ) ` _ _ Q Q H H g p o o X.X.",
"X.X.o o p p H H Q Q ' ' ' { ....} } [ [ ~ ~ [ ~ [ [ ] [ ~ ~ ~ ! { { } } ` ` _ _ Q Q H H g g 2 2 X.X.",
"X.X.o o * * h h U U Q Q ( ( ' {  .| ..| ..| ..........| |  .} | | | ` _ W W R R G G g h o o X o X.X.",
"X.X.o X * * h h Y U Q / ( ( ' {  . .| .. ............... . .} | { { ` ` Q W R R G H g h o o o o X.X.",
"X.X.X.X.$ O % % h h T Y R R ( ^ ` ` ' ` ' ' { ' ' | ' ' ` ` _ _ ( ( R W H H G G p g o o o : X.X.X.X.",
"X.X.X.X.$ $ * * h h Y Y E R ( ^ ` ` ' ` ' ' { ' ' ' ' ' ` ` _ _ ( ( R W H H G G g p o o o o X.X.X.X.",
"X.X.X.X.X.X.# # 3 5 s s s f I I E E Q ^ ^ ^ ( ( _ _ Q ( W Q R R Y Y D D 2 2 3 3 : 1 $ + X.X.X.X.X.X.",
"X.X.X.X.X.X.& * 5 5 s s f f I I E R ^ Q ^ Q ( ( ( ( ( Q Q W R R Y Y v D 2 2 3 3 = : $ + X.X.X.X.X.X.",
"X.X.X.X.X.X.X.X.- = ; = = 5 s s b c n n J D J J F L J J b b v c F o o o . o O # $ $ X.X.X.X.X.X.X.X.",
"X.X.X.X.X.X.X.X.- - ; ; 5 5 s s b b n n D A J D L L J J n b v v D D F o o . # O $ $ X.X.X.X.X.X.X.X.",
"X.X.X.X.X.X.X.X.X.X.> ; , 6 > > ; ; = > = = > 5 7 8 6 7 5 = % # o o $ # $ $ - @ X.X.X.X.X.X.X.X.X.X.",
"X.X.X.X.X.X.X.X.X.X., > , ; > > > > > > = = > 5 7 7 7 6 = > % $ o o & $ $ @ @ @ X.X.X.X.X.X.X.X.X.X.",
"X.X.X.X.X.X.X.X.X.X.X.X.w ; ; ; > > - - % & & & , , , > = ; @ @ 1 $ $ $ @ - X.X.X.X.X.X.X.X.X.X.X.X.",
"X.X.X.X.X.X.X.X.X.X.X.X.; , 6 ; @ > - > & & > & , > > , & ; @ @ % # $ @ @ - X.X.X.X.X.X.X.X.X.X.X.X.",
"X.X.X.X.X.X.X.X.X.X.X.X.X.X., ; & > @ @ @ @ % @ > - - > @ @ @ O + + @ @ X.X.X.X.X.X.X.X.X.X.X.X.X.X.",
"X.X.X.X.X.X.X.X.X.X.X.X.X.X., ; > > @ - @ @ & % - > > & @ @ O O + @ @ @ X.X.X.X.X.X.X.X.X.X.X.X.X.X.",
"X.X.X.X.X.X.X.X.X.X.X.X.X.X.X.X.X.X.@ @ . + . + & & @ @ O +     O O @ + X.X.X.X.X.X.X.X.X.X.X.X.X.X.",
"X.X.X.X.X.X.X.X.X.X.X.X.X.X.X.X.X.X.@ & . + + + & & @ & O O   O O O @ @ X.X.X.X.X.X.X.X.X.X.X.X.X.X."
};
