/* XPM */
static char *result[] = {
/* columns rows colors chars-per-pixel */
"64 64 166 2 ",
"   c #0E0704",
".  c #2A170D",
"X  c #2C190E",
"o  c #301B0F",
"O  c #331D10",
"+  c #253D0A",
"@  c #5B3C28",
"#  c #663D20",
"$  c #693E22",
"%  c #294E12",
"&  c #2B5B19",
"*  c #295517",
"=  c #335C27",
"-  c #086623",
";  c #006D24",
":  c #086823",
">  c #007126",
",  c #216227",
"<  c #4D5B2A",
"1  c #5D5324",
"2  c #6D4124",
"3  c #734527",
"4  c #784827",
"5  c #7B4A29",
"6  c #7A4228",
"7  c #6C4B31",
"8  c #75403F",
"9  c #774B34",
"0  c #6B543C",
"q  c #755137",
"w  c #5B2755",
"e  c #743B48",
"r  c #652C63",
"t  c #6C3267",
"y  c #305D5E",
"u  c #2B6569",
"i  c #2D747D",
"p  c #2D7076",
"a  c #307277",
"s  c #34767A",
"d  c #5D5141",
"f  c #545D52",
"g  c #764040",
"h  c #605744",
"j  c #646251",
"k  c #7D527C",
"l  c #4B6B67",
"z  c #5D6E62",
"x  c #487F79",
"c  c #AF3901",
"v  c #AB3600",
"b  c #B33B00",
"n  c #802A29",
"m  c #893C2D",
"M  c #93312F",
"N  c #963130",
"B  c #983F32",
"V  c #983231",
"C  c #98451A",
"Z  c #B1450B",
"A  c #AB4B14",
"S  c #B8561C",
"D  c #864620",
"F  c #884720",
"G  c #834D2D",
"H  c #80432A",
"J  c #94432C",
"K  c #944A2E",
"L  c #86512E",
"P  c #89532E",
"I  c #815B2F",
"U  c #94532E",
"Y  c #9D5321",
"T  c #9D4234",
"R  c #924D32",
"E  c #9D4A38",
"W  c #974A33",
"Q  c #8D5431",
"!  c #8F5D32",
"~  c #975432",
"^  c #9A5532",
"/  c #945931",
"(  c #9D5934",
")  c #945038",
"_  c #9F5C39",
"`  c #98583B",
"'  c #A75824",
"]  c #A25929",
"[  c #A64639",
"{  c #A8473B",
"}  c #AB4A3D",
"|  c #A35C36",
" . c #A7513C",
".. c #AA533A",
"X. c #A45E39",
"o. c #A95E3B",
"O. c #876639",
"+. c #9B6535",
"@. c #9F603B",
"#. c #936B3D",
"$. c #A46237",
"%. c #A96336",
"&. c #A4623B",
"*. c #AB643C",
"=. c #AE693E",
"-. c #A86C3B",
";. c #B26C3F",
":. c #BA6F35",
">. c #AF7239",
",. c #B1753B",
"<. c #B3793D",
"1. c #89555F",
"2. c #B35143",
"3. c #86664D",
"4. c #966B4D",
"5. c #937140",
"6. c #8E6D54",
"7. c #8E7154",
"8. c #AD6640",
"9. c #AD6D42",
"0. c #A16E41",
"q. c #B06740",
"w. c #B46D42",
"e. c #B1634B",
"r. c #AA7946",
"t. c #B67144",
"y. c #BB7644",
"u. c #B47D41",
"i. c #BD7946",
"p. c #B87448",
"a. c #B57D4C",
"s. c #BE7B49",
"d. c #A07C57",
"f. c #BB7B5B",
"g. c #9E7061",
"h. c #9D7B7F",
"j. c #C07D49",
"k. c #598C4C",
"l. c #AC804B",
"z. c #B8874D",
"x. c #B68C55",
"c. c #B08152",
"v. c #BE985E",
"b. c #BE945D",
"n. c #9C8C64",
"m. c #979B61",
"M. c #BE9768",
"N. c #BEA368",
"B. c #C1A46C",
"V. c #622194",
"C. c #6C3090",
"Z. c #773D91",
"A. c #077F9F",
"S. c #0A7C9A",
"D. c #2C7882",
"F. c #158097",
"G. c #2B8B97",
"H. c #0384A4",
"J. c #008AAB",
"K. c #0090AF",
"L. c #0093B1",
"P. c #2D95A1",
"I. c #489D9B",
"U. c #7B9C80",
"Y. c #99A984",
"T. c None",
/* pixels */
"*.%.;.;.q.;.;.;.;.;.;.;.;.:.w.w.q.;.;.;.;.;.;.;.w.;.:.w.q.w.;.;.;.;.;.;.;.;.;.;.;.;.;.;.;.;.;.;.;.;.;.;.w.;.;.;.;.;.;.;.;.;...o.",
"*.%.=.;.;.;.;.w.w.:.;.*.;.;.;.;.:.o.;.w.;.;.;...;.;.q.w.:...;.;.w.:.;.;.;.;.;.;.;.=.;.;.;.;.q.q.t.;.;.;.;.=.;.;.:.;.;.;.;.;.o.%.",
";.;.y.y.y.y.y.y.j.j.t.j.j.:.j.t.j.j.j.t.j.;.j.j.j.y.j.j.;.j.j.j.j.j.w.;.2.j.j.j.y.j.p.y.j.;.j.:.w.j.j.j.y.y.y.y.j.y.y.t.y.y.:.;.",
";.=.y.y.y.j.y.y.j.y.j.t.t.j.t.j.;.j.t.j.j.j.:.j.t.:.j.t.j.j.;.w.j.t.j.j.j.j.:.j.y.y.j.y.j.j.;.j.j.w.j.:.y.y.y.y.t.y.t.j.y.y.y.;.",
";.;.j.t.j.t.j.y.y.y.y.j.j.j.;.j.:.j.y.y.j.j.j.t.j.y.j.:.y.j.j.j.j.j.j.t.j.y.y.j.i.i.i.i.i.i.:.y.;.;.;.;.j.;.w.y.y.t.:.y.y.y.<.t.",
";.;.y.y.t.j.:.j.j.y.y.y.t.j.j.:.j.j.y.y.;.;.j.j.y.j.j.j.j.t.t.j.j.t.j.j.t.j.y.y.i.i.i.y.i.i.y.w.;.j.j.;.t.:.:.;.t.t.t.w.y.y.:.t.",
";.;.j.:.j.y.w.y.w.t.:.y.y.t.w.t.t.t.:.t.:.j.t.j.y.j.t.j.j.j.w.:.:.j.j.y.t.j.y.j.i.i.i.i.i.y.j.y.j.j.w.;.j.j.t.j.y.y.p.j.t.j.y.t.",
";.;.t.j.:.j.t.t.:.t.t.t.t.y.:.t.t.y.t.;.j.w.j.y.j.y.j.t.t.j.j.j.y.y.p.:.j.t.j.:.j.i.i.i.y.i.y.y.:.j.j.j.y.y.j.t.i.y.y.:.j.j.<.t.",
"=.=.y.y.j.y.y.j.j.j.y.j.y.y.y.j.t.j.j.j.j.j.:.j.j.:.j.t.j.j.j.j.j.j.t.t.t.y.j.j.y.y.y.j.y.<.j.y.i.i.i.i.i.i.i.i.j.y.y.i.y.y.y.<.",
"=.=.y.y.y.j.y.y.y.y.j.j.y.j.y.y.j.t.t.j.j.t.j.j.j.j.y.j.t.t.j.j.j.t.:.j.t.;.:.y.y.j.j.y.y.t.y.y.i.i.i.i.i.i.i.s.j.y.y.y.j.y.y.y.",
";.;.y.j.j.j.j.j.j.j.j.j.j.j.j.j.j.j.j.j.j.j.j.j.j.j.j.j.j.j.j.j.j.j.j.j.j.j.j.j.j.y.y.j.i.p.j.y.s.j.j.j.j.j.j.j.j.j.j.j.s.s.y.y.",
";.;.j.y.j.j.j.j.j.j.j.j.j.j.j.j.j.j.j.j.j.j.j.j.j.j.j.j.j.j.j.j.j.j.j.j.j.j.j.j.j.j.j.p.i.i.i.j.j.j.j.j.s.j.j.j.j.j.j.j.s.s.y.y.",
":.;.j.j.j.j.j.j.j.j.j.j.j.j.j.j.j.j.j.j.j.j.j.j.j.j.j.j.j.j.j.j.j.j.j.j.j.j.j.j.j.j.j.j.j.j.j.j.j.j.j.j.j.j.j.j.j.j.j.j.s.j.j.:.",
";.;.j.j.j.j.j.j.j.j.j.j.j.j.j.j.j.j.j.j.j.j.j.j.j.j.j.j.j.j.j.j.j.j.j.j.j.j.j.j.j.j.j.j.j.j.j.j.j.j.z.j.j.j.j.j.j.j.j.j.z.j.i.i.",
"w.;.j.j.j.j.j.j.j.j.j.j.j.j.j.j.j.j.j.j.j.j.j.j.j.j.j.j.j.j.j.j.j.j.j.j.j.j.j.j.j.j.j.j.j.j.j.j.j.j.j.j.j.j.j.j.j.j.j.j.j.j.i.i.",
";.;.j.j.j.j.j.j.j.j.j.j.j.j.j.j.j.j.j.j.j.j.j.j.j.j.j.j.j.j.j.j.j.j.j.j.j.j.j.j.j.j.j.j.j.j.j.j.j.j.j.j.j.j.j.j.j.j.j.s.j.s.i.i.",
"w.w.w.t.t.w.t.w.t.t.p.t.t.t.t.e.p.p.w.t.t.p.w.p.p.w.p.w.p.w.t.t.p.e.t.t.t.t.t.t.t.t.p.p.t.p.t.t.t.t.t.t.t.t.t.t.e.w.w.w.w.w.w.w.",
"w.w.t.t.t.t.w.t.w.t.w.t.t.p.p.p.p.t.p.p.t.t.p.w.t.p.t.p.t.t.p.p.p.t.t.t.t.t.t.t.t.t.t.p.e.t.t.t.t.t.e.t.p.t.t.t.w.w.w.t.w.w.q.q.",
"p.p.t.t.y.:.j.w.p.a.p.p.p.p.p.p.p.p.p.p.p.p.j.e.p.p.p.p.p.p.p.p.p.p.p.f.p.p.p.p.p.p.s.p.p.p.p.p.p.p.j.p.p.p.p.p.t.w.;.;.;.w.w.t.",
"p.p.t.t.t.t.t.t.p.p.p.p.p.p.p.p.p.p.p.p.p.p.p.j.p.p.p.p.p.p.p.p.p.p.p.p.p.p.p.p.p.p.p.p.p.p.p.p.p.p.j.p.p.p.p.p.w.w.;.;.;.w.t.t.",
"p.t.w.<.t.t.t.t.p.p.p.p.p.p.p.p.p.t.p.t.p.p.p.p.t.p.p.p.t.p.p.p.p.p.p.p.p.p.p.p.p.p.p.p.p.p.t.p.p.p.p.p.p.p.p.p.w.w.;.;.;.;.w.w.",
"p.t.y.t.w.w.t.t.p.p.p.t.t.t.p.p.p.p.p.p.p.p.p.e.p.p.p.p.p.p.p.p.p.p.p.p.p.p.p.t.p.e.p.p.p.p.p.p.p.e.p.p.p.p.p.p.;.w.;.;.w.=.w.w.",
"w.w.t.t.,.;.;.;.p.p.w.9.a.f.%.=.8.8.f.a.o.o.o.X.@.@.@.@._ _ X._ @.@.| _ 3.3.d.d.7.7.` ` p.a.%.%.I I a.r.O.O.9.9.w.;.=.;.w.q.w.t.",
"y.w.t.w.w.;.;.w.t.t.9.t.a.c.%.=.8.8.p.a.8.o.@.@.@.@.@.@.@.@.| 4.@.@.@._ 3.3.d.d.7.7.` ` a.p.%.=.I I a.d.O.O.9.0.=.t.;.=.;.w.t.t.",
"w.w.t.t.=.;.=.;.t.9.r.0.N.N./ / ) ` M.M.J B 3 3 3 3 3 3 3 3 3 3 3 3 3 3 y y k.Y.x x w @ x.x.Y Y + + m.m.= = #.#.t.;.=.=.=.=.t.w.",
"w.t.y.w.;.=.;.;.9.t.r.r.N.N./ ( 2.` M.b.m m 3 3 3 3 3 3 4 3 3 3 3 3 3 3 y y U.U.x k.1 @ x.x.Y Y + + m.m.= = #.#.=.t.=.=.;.;.w.w.",
"w.w.w.w.=.;.;.=.t.t.,.r.v.v.$.%.2.E f.f.W B 2 6 2 3 3 2 2 3 2 2 $ 2 2 $ u p I.I.G.G.7 7 ;.:.A A % % k.k., , 5.#.t.,.=.=.;.w.p.w.",
"t.w.w.w.=.=.=.=.t.r.,.r.v.v.$.%.2.2.f.f.W T 3 $ 2 2 2 2 2 2 2 2 2 2 $ 2 u D.I.I.G.G.7 7 :.:.A A % % k.k., , #.#.=.t.=.*.=.w.w.w.",
"w.w.;.;.;.;.;.=.t.t.>.>.<.<.%.=.W E 2.2.E E $ $ 2 # $ $ $ $ $ $ $ $ $ $ i p J.K.J.J.q q b b b c * & > > : - 5.5.t.;.=.=.w.;.w.w.",
"w.t.;.w.;.;.=.;.t.t.>.>.u.i.%.%.2.[ 2.2.W E $ $ $ # $ $ $ $ $ $ $ $ $ $ i p L.L.J.J.q q b b b c & & > > : : 5.5.;.w.*.=.=.;.t.w.",
"t.w.w.;.=.=.=.=.9.>.-.>.u.u.:.=.T [ 2.2.E W $ $ 4 4 5 4 3 4 4 4 4 4 3 4 p s K.L.J.J.q q b b c c * & ; > : : 5.5.t.=.=.=.w.8.w.t.",
"w.t.w.q.=.;.=.;.t.t.-.-.u.u.%.%.2.[ 2.2.2.R $ 7 4 4 4 4 4 9 5 4 9 4 6 6 p s K.L.J.J.q L b Z c c & & > ; : : 5.#.=.t.=.=.;.w.w.t.",
"w.w.t.;.=.;.=.=.w.,.-.%.<.<.%.=.[ [ } } E E G 5 Q Q Q Q Q Q Q I Q Q G G s a K.K.H.H.0 7 b b v v * * ; ; : : #.5.t.,.;.;.t.,.w.t.",
"t.t.;.w.;.=.=.=.;.>.%.%.<.<.*.=.[ [ 2.2.E E G G Q Q Q Q / Q Q Q Q Q G G s s K.K.H.H.q q c b v v * * ; ; - - 5.5.;.w.;.;.;.t.w.w.",
"w.w.;.w.;.;.=.;.9.=.U / +.+./ / W R ^ W R R 9 L Q Q L Q Q Q Q Q Q ~ L L j j l l l l q 5 C C C C 1 1 < < < < 0.0.w.w.<.w.w.w.w.t.",
"w.w.;.;.;.:.=.=.9.8.U P +._ / / ~ W ) W R Q L L Q Q Q Q Q Q Q Q Q Q Q L j j l l l l 5 q C C C C 1 1 < < < < 0.4.;.;.w.;.w.w.w.t.",
"q.w.;.=.;.=.=.=.9.q.@.@.&.&.@.&.@.&.&.@.&.&.&.&.8.0.X.&.&.&.&.&.&.&.&.-.9.&.&.8.@.&.@.&.&.@.@.X.&.@.@.&.&.&.t.t.w.;.;.;.;.;.w.w.",
"w.q.=.=.=.=.=.;.w.9._ @.X.&.&.@.&.@.&.&.@.X.@.&._ @.&.&.&.&.8.&.8.0.8.&.8.0.&.&.&.@.@.@.@.@.&.&.&.&.&.&.@.&.9.t.;.w.=.:.;.;.w.w.",
"q.q.*.*.=.=.*.=.w.q.=.=.=.*.*.8.=.*.=.-.*.8.*.8.=.*.8.=.8.=.=.=.8.8.8.w.w.=.9.8.8.=.*.=.=.=.=.=.*.=.*.*.8.*.t.t.=.=.*.*.*.=.w.w.",
"w.;.*.*.=.%.=.8.t.q.=.=.=.*.=.*.*.=.*.*.=.*.=.*.=.=.*.=.*.=.=.;.=.w.;.9.=.w.=.9.=.=.8.=.8.=.=.=.=.*.*.&.=.*.t.w.=.=.*.*.*.*.w.q.",
"q.q.*.$.=.%.*.*.0.4.z z n.n.f f ] ] l.c.m m 1.1.g.g.e e G 6 5 5 G G L G G 5 5 D 5 5 / Q x.c.-.5.K R c.c.) ) 8.8.*.*.$.X.%.*.w.q.",
"q.q.*.*.*.=.*.*.4.4.z z n.n.f f ] ] a.c.m m 1.1.g.g.e e G 5 G 5 5 G G G G G 5 5 5 5 ! / x.x.-.-.K R c.x.^ ) *.8.=.*.%.| %.%.q.w.",
"q.w.*.*.*.$.%.*.4.4.x D.Y.Y.u u ' ' b.b.n n 1.k h.h.w w # $ $ $ 2 2 2 2 2 2 $ # # # ! ! B.B.l.l.J J M.M.) ) o.8.%.*.X.| %.X.q.q.",
"q.q.*.o.%.*.%.*.6.6.s s Y.Y.u y ' ' b.b.n $ k k h.h.w w $ $ $ $ 2 2 2 2 2 2 $ 2 $ # ! ! B.N.l.l.J J M.M.) ) 8.*.%.%.X.X.$.*.q.q.",
"8.w.%.%.%.o.*.$.7.7.S.F.P.P.D.D.Z Z S S V N V.C.Z.Z.r r 2 $ $ $ $ 2 2 2 2 2 2 # $ $ ! +.z.z.<.u.....e.e.E E o.=.*.%.| | o.$.=.*.",
"w.8.*.%.$.*.*.*.6.6.F.F.P.P.D.D.Z Z S S V N C.C.Z.Z.r r $ $ 2 2 2 $ 2 2 2 2 2 2 $ 2 +.+.z.z.l.<.....e.e.E T 2.8.X.%.$.| $.o.q.q.",
"8.8.$.| | o.X.%.6.6.A.A.H.J.D.D.b b b b V V V.V.V.V.r r # # # # # # # 2 # 2 # # # # +.+.<.<.,.,.....} } B [ o.*.X.| | ( o.$.o.*.",
"8.q.X.$.%.$.X.*.6.g.A.A.J.J.D.D.b b b b V V V.V.V.V.r r @ # # # # # # # # # # # # # +.+.,.<.<.<.....} } [ [ o.o.X.%.( | o.%.=.2.",
"=.8.| | | ( $.X.6.6.A.A.J.J.D.D.b c c c V V V.V.V.V.r t 4 4 5 5 5 5 5 9 5 5 5 5 4 4 +.+.,.,.,.>.....} { B B 8.8.| | | ^ | | o.o.",
"8.*.| | | $.$.%.6.6.A.S.J.J.D.i b b b c V V V.V.V.V.t r 4 4 5 5 5 5 G 5 G G 5 5 4 4 -.-.,.,.,.>.....{ { B B ..o.| X.^ ^ | | o.o.",
"*.*.( ( ( ( X.$.6.6.S.S.H.H.i i c b c b N N V.V.V.V.t t 5 L G L P L L L L L L 5 P F +.+.>.>.>.>...{ [ [ B B X.2.| ( ^ ^ | ^ o.o.",
"8.*.( ( ( ( | X.3.6.S.S.H.H.s D.b c c c N N V.V.V.V.t t 5 5 G G L L L L G L G G I 5 $.+.,.>.>.>.....[ [ B B X.X.| | ^ ^ ] | %.o.",
"o.o.^ | ^ ^ | | 0.| d d d h h 0 F F D D H 6 8 8 8 8 9 8 G G G G L L L L L L G G G G P P P P P P G G G G $ m ( ( | | ^ ^ ( ^ o.o.",
"o.o.| ^ | ^ | | ` 4.d d h h 0 0 D D D D H 6 8 g 8 8 8 9 G G G G L G L L L 5 G L G G G P P P P I G G H G 6 6 ( _ | ] K ^ ( | o.o.",
"o.o.| | ^ ^ |  .o.8.X._ X.X.*.o.X.&.&.X.&.o.X.X.$.o.&.o.o.o.8.8.=.&.8.&.8.8.8.*.&.&.$.$.X.X.X.$.| o.| | X._ o.o.^ | ^ ^ ^ | o.o.",
"o.%.| ^ ^ ^ ] ^ 8.o.&._ X.o.&.&.&.&._ X.X.X.X.X.$.$.&.&.$.$.&.&.&.8.&.8.&.8.&.&.o.$.&.| X.X.X.X.| X.| X.X._ o.o.^ | ^ ^ | ^ o.o.",
"o...| ^ ^ ^ ( ^ o.o.^ ~ ^ ^ / ( ( ~ ^ ^ ^ ~ ~ ^ ^ ^ ^ _ ( ^ ( _ _ ( / | _ ( ^ _ ^ ^ ^ ^ ~ U ^ U ^ ^ U ~ U ~ o.o.| | ^ ^ ^ ] X.o.",
"o.| | | ^ ^ ^ ^ o.o.^ ^ ~ ^ ( / / ( / ^ ~ ^ ^ ^ ^ ( / / ^ ^ ( ( _ ( _ _ ( ( ( / ^ ^ ^ ~ ~ ^ ~ U U U ~ U ~ ~ o.$.^ | ^ ^ | ^ o.o.",
"| | ^ ^ K U K ^ ^ ` O O . . X X o . . X X . . . X X X X X X X X . X o o X X X X . X . . . . . . . . . . X o ` ) ^ ^ W K ^ ^ | | ",
"| | ^ ] U U ^ ^ ` ^ O O . X X X . X X . X . . . X X X X X X X X X X o o o o X o X X X X . . . . . . . . o o ~ ~ ^ ] U ^ ^ W | | ",
"| | ^ ^ ^ ^ ^ ^ ` / T.T.T.T.T.T.T.T.T.T.T.T.T.T.T.T.T.T.T.T.T.T.T.T.T.T.T.T.T.T.T.T.T.T.T.T.T.T.T.T.T.T.    ` ~ | ^ ^ ^ | | | | ",
"| | ] W W ^ ^ ^ ^ ~ T.T.T.T.T.T.T.T.T.T.T.T.T.T.T.T.T.T.T.T.T.T.T.T.T.T.T.T.T.T.T.T.T.T.T.T.T.T.T.T.T.T.    ) ~ ^ | ^ ^ ^ ^ | | ",
"| | ..X.X.o.o.o.| _ T.T.T.T.T.T.T.T.T.T.T.T.T.T.T.T.T.T.T.T.T.T.T.T.T.T.T.T.T.T.T.T.T.T.T.T.T.T.T.T.T.T.T.T._ | o.o.*.o.o.o.o.o.",
"| | X.o.o.X.o.X.X.( T.T.T.T.T.T.T.T.T.T.T.T.T.T.T.T.T.T.T.T.T.T.T.T.T.T.T.T.T.T.T.T.T.T.T.T.T.T.T.T.T.T.T.T.( | o.*.o.o.o.o.o.o."
};
