/* XPM */
static char *rcp08331591217268[] = {
/* columns rows colors chars-per-pixel */
"33 33 108 2 ",
"   c #003D0B",
".  c #7E2601",
"X  c #7D2B1F",
"o  c #633B1F",
"O  c #653C21",
"+  c #6A3F23",
"@  c #00460F",
"#  c #005F1F",
"$  c #00601F",
"%  c #006220",
"&  c #006A23",
"*  c #007427",
"=  c #007528",
"-  c #6C4024",
";  c #734426",
":  c #774728",
">  c #794728",
",  c #7B4A29",
"<  c #4C1474",
"1  c #54177D",
"2  c #55187F",
"3  c #00546F",
"4  c #00657D",
"5  c gray43",
"6  c #767676",
"7  c #7B7B7B",
"8  c #872B01",
"9  c #8F3101",
"0  c #953301",
"q  c #9D3602",
"w  c #AB3500",
"e  c #B33A00",
"r  c #B83F00",
"t  c #853124",
"y  c #883124",
"u  c #943728",
"i  c #943B2F",
"p  c #98392A",
"a  c #963C30",
"s  c #993E32",
"d  c #A13E2E",
"f  c #BA4000",
"g  c #834E2C",
"h  c #86502E",
"j  c #88522F",
"k  c #93502E",
"l  c #9D4035",
"z  c #8D5431",
"x  c #9A5531",
"c  c #945D30",
"v  c #9E5A33",
"b  c #A25E2F",
"n  c #A04236",
"m  c #A54539",
"M  c #A8473A",
"N  c #AB4B3D",
"B  c #A35C35",
"V  c #A75E39",
"C  c #AA5F3B",
"Z  c #996233",
"A  c #9F6836",
"S  c #A66136",
"D  c #A96335",
"F  c #AB6C36",
"G  c #A76238",
"H  c #AB633B",
"J  c #A46E39",
"K  c #AE683C",
"L  c #B26C3E",
"P  c #A7733C",
"I  c #AE7239",
"U  c #B1753B",
"Y  c #B3793E",
"T  c #B24F41",
"R  c #B45143",
"E  c #AF6640",
"W  c #B06740",
"Q  c #B56D44",
"!  c #B67243",
"~  c #B97546",
"^  c #BD7846",
"/  c #B97549",
"(  c #BF7C48",
")  c #C07D49",
"_  c #B98343",
"`  c #C4824C",
"'  c #C7B573",
"]  c #CAB777",
"[  c #CAB97A",
"{  c #632195",
"}  c #672298",
"|  c #006A83",
" . c #00748B",
".. c #007B92",
"X. c #007EA2",
"o. c #0083A6",
"O. c #0087A8",
"+. c #008AAB",
"@. c #0093B1",
"#. c #858585",
"$. c #8B8B8B",
"%. c #B7B7B7",
"&. c gray75",
"*. c #CEBE84",
"=. c #D0BF87",
"-. c #CFC088",
";. c #C4C4C4",
":. c gray79",
/* pixels */
"G L L L L L L L L L L L L L L L L L L L L L L L L L L L L L L L V ",
"L ^ ^ ^ ) ^ ^ ^ ^ ^ ^ ^ ^ ^ ^ ^ ^ ^ ^ ^ ^ ^ ^ ^ ^ ^ ^ ^ ^ ^ ^ ^ ! ",
"L ^ ^ ^ ^ ^ ^ ^ ^ ^ ^ ^ ^ ) ^ ^ ^ ) ^ ^ ^ ^ ^ ^ ! ! ! ! ! ! ! ^ ! ",
"L ^ ^ ! ! ! ! ! ! ! ! ^ ^ ^ ^ ^ ^ ^ ^ ^ ^ ) ^ ^ ^ ^ ^ ^ ^ ^ ^ ^ ! ",
"K ^ ^ ^ ^ ^ ^ ^ ^ ^ ) ^ ^ ^ ^ ^ ^ ^ ! ! ^ ^ ^ ! ^ ^ ^ ^ ^ ^ ^ ^ ! ",
"L ) ) ) ) ` ) ) ) ) ) ` ) ) ) ) ` ) ) ( ` ~ ) ~ ) ) ) ) ) ) ) ) ~ ",
"L ) ) ) ) ) ) ) ) ) ) ) ) ) ) ) ) ) ) ) ) ) ) ) ) ) ) ) ) ) ) ) ~ ",
"! ` ` ` ` ` ` ` ` ` ` ` ` ` ` ` ` ` ` ` ` ` ` ` ` ` ` ` ` ` ` ` ( ",
"W Q Q Q Q Q Q Q Q Q Q Q Q Q Q Q Q Q Q Q Q Q Q Q Q Q Q Q Q Q Q Q W ",
"/ ! ! ! / / / / / / / / / / / / / / / / / / / / / / / / / L L L Q ",
"/ ! ! ! / / / / / / / / / / / / / / / / / / / / / / / / / L L L Q ",
"Q ! L L / Q Q Q Q Q Q Q Q Q Q Q Q Q Q Q Q Q Q Q Q Q Q Q / L L L Q ",
"Q ! L L / c ' c y ' d : : : : : : : : | ' 3 . [ 8   [   / L K L Q ",
"Q ! K K / A -.J u -.d ; ; ; ; ; ; - - ..-.| 0 *.0 @ -.@ / L K L Q ",
"Q L L K / I _ I m R R - - - - - - - - @.@.O.e f e & = # / L K L Q ",
"Q L L K / D _ I m R R O O O O O O O - @.@.O.w r w & * # / L K L Q ",
"Q L L K / D _ U M T R > z z z z z z , @.@.O.w r w $ * & / L K L Q ",
"Q ~ L H ~ b Y F n N N > z z z z z z > @.+.X.w e w # & % / L ! ! Q ",
"Q K ! K ~ : z j j j j z z z z z z z z z z g g j j z z h / L L L Q ",
"W K K K ~ ~ Q Q Q Q Q Q Q ~ ~ ~ ~ / / ~ ~ ~ ~ Q Q ~ W ~ / L L L Q ",
"W G K G Q G G G G G G G G G G G H H H H H H G G G G V S ~ H S H Q ",
"W G K G Q 4 [ | 0 [ 9 < [ < O O O - - + o o Z ] c t ] X ~ H B G W ",
"W G G G Q 4 =. .q =.q 1 *.2 + + - - - - - + P =.P p -.t Q G B G W ",
"W G G G Q o.+.+.r r r { } } + + + - - - - + Y Y Y N N l Q S V S W ",
"W B G S W X.O.+.r e e { { { o o o O O O o o Y U U N N s W B v G H ",
"W v v V W X.O.O.e e e { { { , g h h h h g g U U U m M a K B x B H ",
"K v v B W X.O.O.e e e { { { , g g h h g g g U U I m m i K v x v H ",
"H v v B W - , , , , : : > , , g g h h g g g , , , , , + V v x v V ",
"H B x x E E W W W W E K W W W W W Q Q W W W K K K K K H H v x v V ",
"V v x x K x x v v x v x v v v v v B B B v v x x x x x x H v x v V ",
"B x k k H 6 7 7 7 7 7 7 7 7 7 7 7 7 #.7 7 7 7 6 6 6 6 5 V x k x B ",
"B x x k H #.#.#.#.#.#.#.#.#.$.$.$.$.$.$.$.#.#.#.#.#.#.7 H x x x V ",
"B V V H H &.;.;.;.;.;.;.;.;.:.;.:.:.:.:.;.:.;.;.;.;.;.%.H H H H V "
};
