/* XPM */
static char *result[] = {
/* columns rows colors chars-per-pixel */
"64 64 71 1 ",
"  c #4A4F12",
". c #554413",
"X c #5D4615",
"o c #554914",
"O c #5D4915",
"+ c #56461E",
"@ c #5D4E18",
"# c #4E5313",
"$ c #525513",
"% c #5B5314",
"& c #565913",
"* c #5B5D14",
"= c #575319",
"- c #5F5118",
"; c #614D16",
": c #624B19",
"> c #655315",
", c #645D16",
"< c #6A5A15",
"1 c #66521A",
"2 c #68521A",
"3 c #6B5C18",
"4 c #5E6115",
"5 c #636516",
"6 c #6C6516",
"7 c #666916",
"8 c #6A6C16",
"9 c #666618",
"0 c #6F6518",
"q c #676918",
"w c #6C6E19",
"e c #706417",
"r c #706916",
"t c #716518",
"y c #736B19",
"u c #6F7017",
"i c #6F7019",
"p c #707117",
"a c #73741C",
"s c #78731E",
"d c #79791F",
"f c #5E4F2A",
"g c #57543C",
"h c #59563D",
"j c #5D593F",
"k c #604C22",
"l c #665323",
"z c #695420",
"x c #777620",
"c c #787720",
"v c #777820",
"b c #7D7C22",
"n c #7F7C29",
"m c #5C5740",
"M c #5E5A43",
"N c #5F5B48",
"B c #615D45",
"V c #615D4A",
"C c #656045",
"Z c #66614B",
"A c #68634B",
"S c #656050",
"D c #817F24",
"F c #837F2A",
"G c #838125",
"H c #86822B",
"J c #89842E",
"K c #868231",
"L c #8A8533",
"P c #8D8834",
"I c None",
/* pixels */
"1LL12LLLLHHnu****abcd***axww9,GGHaaaPPtyrddddd999,,,,44qqq4444ww",
"LLLLnbPLLHn0uu**bvbduu4*wwiywGGGGppp6eytrdddd66ddd>,&$944944iiwi",
"LLLLnbPLL00uuuuuubduuu44*wiwwGGGpppp,rtDDdddd9ddddd&&=&5iu4uuuai",
"LLLbbnLL60wunDnuuwuuuu4455wwwGG&*pp&&2CdGGddpdddddap&&ppii4wwwaa",
"wwnnbD000quHGnJJuuuuu**48q444***4$$=&zCbDDbapGDdddpa*aapuuuubbbb",
"wwDDbn0qHHuGHJJPuwu444476q7,4***45$&&2C2ddbpGDGGaaprrpdGduuGbbbb",
"wuwbDbPPLHGGPJJuwHHGG**8777*,***444&&2A2444pGGGDGbGrrdDddu8dGbb;",
"uwJPPPPPLHGbbJPuHGGGFF47977,*%*5445$1AA244dddDDDGGGbyGdJJHuGdbbX",
"iLPPPPPPHGbbbbFFHHGGnb5559797q*444$$lA1*dadaaaGGGbDDDHJHJJuubvbb",
"wLPPPPiPPPbbbcGb*FHbF945557955999$$&lA2pddddHJGJpDDDDHHJH&$uw8bb",
"xvPPPiaPPPPbJJDD*5444549559777q4&44$lCdadsaGHHHJpypyDHJH$$&$u88D",
"xxvviiiiPPLLJJJ6004444555*4575&&&&&$zjddddyHJHJpaynHHu$&&&4q88DD",
"xxxv=xiaLPPaPJJJ004544r644&&*$$$4&pdpC2prryJJHyyyHHJHwww&&*888bD",
"4vv=&iiiPLapDJJGbiww4r6r6544$$$$$idpHGppppppudadaHHJHH7w8&&&87@8",
"495=*aaiaapaDDGDbiuuu666r6444$ppadaGGGGGpuupadadiuHHHHw88&&;jhO#",
"999&&&iiy@pppDDduuuuu66r66445$apaadGGJGGGuupaaaauuuHGw788&;hhO#$",
"459,,&xi1*iaiappbbdpu:j00444454ppaapGGGGGtrppGGdiuuuwww7&&:hX#$ ",
"X,,,4---*%%-ubbbbbDdw;jj;44444454apudGGGGtepGGbGDaaajj@&&&;BX$$$",
":,,4&444%%%pbbbbDbbDb4>m;444&544**ruGGGGrDGGGDDdbpaa;MjO&&XBX#ya",
"ww**44444*ubbbbD6dbdb*;mM;***44uu8ppGGGGGGGGGuDdbbaip;CC;XBBOaaa",
"wqw44&4qw88bbbd3q$bb**4@vav&*&bG888GGGGGGDGGGu8JLbdpp*OBVVMX$axa",
"wwww$&wq77qbDb666$$#***aavda&&GGG8wGJGGGGpGGu8uGLJdww&*OVVO$$#aa",
"n8qi&&qq7wurwww9$$$*&*&avaad&bGdD8wGGJGGGppwu88aJK87&&&&XNO$$$q7",
"nbq&&&&w7wuwwww%$$&&xa*555aauGbGDDDDGJGGD8aduuaap%%%&&&#OhO$#w77",
"bG4&&wwqqiiiwww@&&*aaaa5595w0uubdGGdpGGJ*pppdpapu%%o@$#OVaxi$ww7",
"D4&$wwiwq@fqwww@&&&aaax7544w66wwdDGbppup<ppdp*pp#%%%###O7aaaaqw7",
"nq4&wiwwq;Vfww-#&&&&8aa8wvbb93wwPLPGGGGp%%pp>%$##&&&&#@Nwpaaa7ww",
"qqq4wiuu*;VN;@#$&&$&7wqwadvvbbuLJLLbGGGGG%%&#$$#&&&aiXNS7waxawwa",
"n44qvvvi&&:V:&##$&&&#wwavaxvvbbFLLL>DGDGd&$44###&&ppaiiN555www9x",
"DwLKLvdd6q:V:&&&&$##555ax9xavxxbduw;BDDD$$*4**##&&paaaa5555qw995",
"nLLLLvdd0q6VV:&&#$#595555KKKxbvbbww;m;&$$$*4**###&*piq845uFFu44n",
"DLLLLddd6wwVS:w77##95555KKKKcaxvdw-;V;$$**4**&$$###OM78w4FFHF7bv",
"nbLKqvx6wwwVV887w4#44474KKKL4KK$-%%@V;&*&***&$$$ #ojN888HnFHFbbb",
"bbn$6660www7w888wqqavv444KK44KKK%%$OBVO****$$$$$##;jhh78FHFF3bxb",
"bb@#$08qwwww888947vavaaqq4q44KKKo#$$;VO&*&*#$$&*$$ppah777GF333bb",
"<>#=##670wwwwxxxq4vavad48884wiKKuw##OBO**&**#&*&#aapu8uw78bb398q",
"<<<$uqDbbwwnbccc74vDnnvq484iwwww8ww#OVO&*&**#&**#aaax7787bbbb7w7",
"*><wubnbbD8bKKKcvvnnnnaav4qwww8www8#O788&*&##&w7&apdww8w7bbbb#7w",
"**wwbbKLKnbbKKKKvvnnnqaaaa4iww4488w#ww8dd$##$www8www9HF09ddb7##w",
"4*wwbKLKLvnbbKKK7wnnqqaaaav44444888880FGHd$#<6uy8pw5HFHH5955####",
"**4wuLKKwbbKKKKt706ro78apa44444w7q8**HHFFb6#eeFHHw75FJFD555$#&&&",
"4*$#uwiwwbLKKKF6666o#X7887O4444888w**HFHb6766HHFH776JHHD575*&$$&",
"&4##=iwiqbKKKKX98ro# $877&O8w84788**455bbb677HHHHH6dDddd54554&$$",
"4##54&qq7qLKKOm@O@##$ #77#O7q8849*45554vbbbb0HJxHHJFDdd555*5466&",
"=#5444iq69799:mMO$#**## #XmN788##44477HHFbbbFbbvHHJFdDd645446867",
"$55555wq9678qqXMX**5**#&&ONNX# ###554HFHFDbbbbbxdJJJDDFFG55r8676",
"49555590e6qxxssVV:**,* &%OjX###&&##44HHHDJJDFbbxxJJbDFJFGJGr686%",
"94bbb560eJFFsssxVX***&&&&;j.&&&&&#77w8vbbFFJbbwaaaabDJJJJGGG88%%",
"&4bbJJ76bJJHHcssS@@%%&&*&XNX*&&&&878w77bbHHJbqaaaybbHJtJJHHH77%%",
"anbLJJb6bJJJHaxXVX%%%=&&XMNX&&&&&77877bbHKHHwqapaxbLJJtt0HJq758u",
"ubLJJJbbbGbJH*%OSZX-##*&XV77&&&&&#877dbHFt09qq77aabJHJ0xiqq75788",
"ubJJJiGDbbbbbb&OZZX$##&*O7778&&####78dFHFt0ii7D0599JKaiiiqqqq8w8",
"GbJJuuDbbJHJbbbb;VVX#bdbX7877&&$#uwpp7FG0wwwpddd59555pii8bd8q8w8",
"bLJiiibJJJJHbLHbdXBhXbbbd7787&&&uuwpp78&&wwwDdDd75559ppwddbbu8ww",
"JJJJiibJJHJDbHHHH:jddbbbd778$$&&iiaw786&&&w7dddd5557wuuwbdbddu08",
"JJJJiiiJJJbbbLHHF:bbdbbbD778##&7aiwa87#&#&$5Ddd7wwwwdawwubddd7r6",
"LHJLii&$$&bbbbJJHbdHHHdaaaaw8#789$$77&#&$#7755588urddpp8-wdd7577",
"6LHt4&$$=$JHJbb8udHJHH5adaap77808$$&**$#ww8757788upapdp;;7885797",
"tttt4=$$$JJHJ%%87dHHH755axad8dddq7&***$rw8w755aaaopadpo;;;877aa>",
"Jb0&444$$LHL%**%uwHH7w75xabbddbd777***88wu0..7aapaooo&# ##%;aaaa",
"Fbb*4*44*>->**%%8888887888bvHHH7877***u88r+hgoppaa$$%&  ##7waada",
"Jbb*655**%**>77%88878888baaHHGFd8&**&$ou77@ggoopao###%%##777aaaa",
"bcb;9575*O*%75798888$%8bbxaHGJddpd$$&**o.XggX  .o####%%&77q77aa#",
"55:I;559XIO557da88dd%$obbHHHGGGddd$$#4*4Xggg.    #$**.$%77pp7###"
};
