/* XPM */
static char *_fc2d7e9f9b341a0a1bf709ca419822708zmrpFdZ8h4vo90[] = {
/* columns rows colors chars-per-pixel */
"64 64 48 1 ",
"  c #3F7100",
". c #406F01",
"X c #457501",
"o c #487601",
"O c #467901",
"+ c #4C7A01",
"@ c #4C7903",
"# c #4C7B03",
"$ c #487C01",
"% c #487D01",
"& c #487D02",
"* c #4C7D03",
"= c #4B7904",
"- c #497A04",
"; c #497B05",
": c #487C04",
"> c #4B7F04",
", c #4B7D06",
"< c #4D7E04",
"1 c #4C7C06",
"2 c #4E7F07",
"3 c #4D7F09",
"4 c #507D03",
"5 c #517F03",
"6 c #507E06",
"7 c #4D8103",
"8 c #4E8003",
"9 c #4D8004",
"0 c #4D8104",
"q c #4F8304",
"w c #4D8006",
"e c #4F8107",
"r c #4D8206",
"t c #4E8206",
"y c #4F8407",
"u c #4E8208",
"i c #4F8408",
"p c #508303",
"a c #508104",
"s c #538005",
"d c #508207",
"f c #518407",
"g c #538406",
"h c #518108",
"j c #508408",
"k c #538509",
"l c #528709",
"z c #52840B",
/* pixels */
"<<++X&OXooXX&+oX**88+<++->tO-<oX&+++&&XO**f88t<<O+&&&&<*OO+<+o--",
"<<++++O+oo+X&&oot*8*-OX+-O$8->X+++++++OX8*8f8*<<--**&>&<OO>+o+--",
"==&+<*XX==ooooooff+O<-<t85t&OO>Ottda+X+OggO+tt+-oofd<<<<<5++++XX",
"++&&<&+@=+o+=Xoojd+=+<*8dd**OO:8ttdaOO+-jhOO**<-Xohgu<+<<5++++XX",
"<&-Ouj .OOOX--jj+ohhO&O-++t++OO&dd..<1>>+&+XO+<<d<XOO+-->&OX<a&&",
"<<--fj X++XO+<llood<O&-+O+&<+&&&5h..<h->&+X++o<<t<OX+XO+&<--t*&+",
"ooXXO-++dd8*<tjf&<=<*85<<-O+++O-XX-=XXut<t--+o--***&<*+X+=XOad**",
"ooXX+X&*dd**<<tt+++=<t5tt>+O++<>XXXXXX<t<t+-++O+**++**XO+*OX5h<*",
"<&XXttOO****&*++XX<<<>OO<=d**&XXttXO++8tddoo+oddOX&O**8*+OO-+&XX",
"<tXO<tO+=+&&*&&OoX=<>>++5+dd**XX88OX+Ottdd+Xo+ddOO<<***&O+OO++XX",
"O&*8<*jj<*+O*8*<XX<<t<&*O<jg*&d***&*X +*=+=+XO+a&<+&**O++OOO8*tt",
"O+*8**jj**++5*<<XX1<tt<**&gd********XX=Oo*==+o<<*&<+*&+oO++O88t8",
"&*+O*++O&OXX++XX+O+&+*XO***<+XO&5d****OX<*oo&++=++&&*5XX5*XoX+O+",
"*8O+O+OOOOXX+OXXO+++<=oX**<<o+<<a***&*XX*&oo<&*=++*&**Xo<*ooOX+O",
"+OOOtOOXO&XX&<+&&=XX<&O+&&+=<=tt*&5*+O++XX+X<t*<oOat<=**OOXX.X>+",
"<tOO+*OX&OXX<<+*+*XX**++&&++-<<t*+*t+O+OXXO+t8*+OO88+**&XO.XXX>>",
"-+OO+&XX*&dd++=*o+OO==ft<<<<u<><**++>>++O+OO<*88OO&&o-ooddOO++XX",
"--OO*+XX**dd&&<++X+O++tt<-36<6t<*==+->-++O++<*tt+O*&--+=asO+=*oX",
"O+t$&*dd*<<<dd+<&O++*<9&O3+O&+<u+Odd+O-<X.*d++OOOO*&><oo5d**&+hs",
"OO&t+&d*d<<<d**+&&OO*&8*t&O+*&<1+X6t+O>>.X*&++Oo++**9<Oo*<**+&gf",
"<OOO*<++3<OO<<-X-+9-+-XX8*ff8tfaX+O+<<++XXtt++ooOO+O+-t+3>XO++8*",
"9tOO+=+Ou8O$+OXX+O-<X+XO8*fd$88dOXOO>><=XOttooo+Xo++O-O>-<&O&+88",
">uOOth->&O X+O XOOOO&&+<XX&$tt<<t<55:>O-t*++XXss+Ot*t<9>--tO+X*9",
"d3O+dh=<&8&XOO XOO++<&++XX&$9t<<*<55><-+&t&OXXsd--**&&>>--&O+O9-",
"oo<+d<XXO&<tXXzz&-**a<oO+o--&<+&-OOO+Ot<XXOOX aa&+XOXX+O><***<dd",
"-X+<ttXX&+**XXzz-<**<<OX++-ut<+X-OOX+O<<XX&O  ad+*OOXX+O*-&*5**5",
"+===XX&*+O**$&>-<+<<t*>5&+<too=+>>--  &tXXooO&+<++**tO>>***a***8",
"6<=+XXt*X+**$O:><<36tt3<O&a*ooo+>>+-  8*XXoo<-<O+O**&&>>**d*+*88",
"XX++OOaa+X>>--jj5d****>-**O&--+-+&6<<-+XOO<<*&O+&-XX-+XXO+X <*oo",
"XXo+OOddO+>*--dt<58*=+-><<OO---+&+*<><O+-++<*<OO>-XX+O  +o X<&oo",
"td&<><--oX8ttiO&&&**+Xt-XXXX=**&O5O<&&<<-o&*+<XX>>X-+++-+-OX<+o+",
"td**><--O+t8ui&O&<**X+--XXX=<=&++*<+*&t<-o<&+OXX>>OO+=-+=-OO=<O+",
"88-O+OX+t<-+<<><-<<<<*<&=d<<OOO+XXd8+O&&t<++==4@=+-==+XX65****++",
"8*---+-+ttOo<<+<&<<<tt**hh+<O+OOXXadOO**<<==+*=+-+<=<+oX556-**--",
"t8O--+<<55oXXX<-XX=o+OOO+t<+d6-+h***<-+X+Otto+<*+++O***5<u+>$<*+",
"t8++--&&55oX.X>9XXX=+&++OO-5a*++td**-8X+OO<8+o<d-++O****=<++><&+",
"&&&&oX&*&OhiX$OO><<1-<<a>++O<O++9<--&655**+++O**Xo&+d&d8td<&*doX",
"&&&&XX<*+>jj:O-O==11&t<<-*-+<&+O<<O-5+<5*&OO&+*&o+X+t<td8t+-d+oo",
"O+*<>:+XX+ttXXO>+*h3**oX*aXO+OXX<<oodh=<ad<<&&O&O>td++&&88<<-9O+",
"++<<:tXOOOttXX-O<<63t*oX56oO++XX6Ooodh<<dd*&+-+O&&ddOO&88q>>><o=",
"&*OO*8OO*8*++XXX**=&**a*XXtfdd+*t*OOgd**dd+OX+O>O@OO3uuu8&*5XO**",
"**+O**O+*>&*X+XX**=+**5*XXdjdd**+&OXdd+*t*X+OO&+oO+-3=th*8t*+X*+",
"dd+O8&+-O$>O&&++ooXX<++&XX**oX+&kk&*a*8*--&&XOXXOOth6d<-tt+&**&<",
"dd+O8t--&$$-+O++ooXX=<+&XX&&o+&Ofk>+*t**-&&8+OOXO+h=55--tt&&+*-<",
">3&+*+XO9>O+oota*t*t&&+++&dt&+*5oo&*+X*&+O<+t<oXdtOO<-=<<=&>===&",
">>++-<XX98++=o<h><*<+&-O+&tt+*55o+*&OO*&O+<+ttXo<<OO+*+=++=><+**",
"<><<>+t<88oohd++fyOO-+O+<=ttdtfd++tfOO*8X&>>**XXddda**+o==+O-u+O",
"&t<<+><<88ooaf&+yfOO---O+<*tdtdf+Ofd+O**XX-X88X ddaa**oo+o++=<+O",
"<>>++X  o+<t+&OO+O<<hht<d<<<**tf=<ggt++XO++O+O+>&*&*+OOOt8->-<+-",
">>O>OX  oo<&&+OOO+<<fdtttd**t-dd*+ggO*X++OO+&>O&&&*&OOOO<&>><-++",
"OO-> X+>&&XX<-++-+thO+O&-Oo+XX--5ggg&<+&XXXXtt<+++**++d8+-+X+X--",
"&+-O  &+&+X.<>++-+dd+XOOOX-XXXO-55gk&**&XXXXdtO+++*5++86++O-O+X=",
"+OXO*+>+ddXo*8+&OOd&+O+&<<&*XX-O+O&&=d**XX+<oo<&&&jtXo+=&OXo+&+<",
"-+OX<<+-ddoo5*O+$O8tOO&Ot<&tX&--+O&++<&*XX<tOX-t*&dtoo<+O+oo<+dO",
"OO&<<<t&++**tt&<XXXXt*O+o+OO8&t<XX<6o=d+&&oo--O-*++O:&<<*5XX+***",
"OO+=>+<t&O*&tt->XXXX<<+++XO+t9&<XX**+o+5&&oo--O+&*O+:O<t*&Xo****",
" X&O XXXO+tuXX--o+O++O*5+O**s<XX&+*8daXX8ttj<<+&OO<<<+&Odg<<++oo",
"XX&+X  X>O6dXX--O++OO+5aO+<t*=XXO+a*aaXX88kk<-&&O+<<-&&+5g<<++oo",
"=>XOXX+XXXX+fj&=--55>$udOX&+at<+da**X+X++X+*hd&+<+OX*8ttghO=<<<-",
"+-XXXXo+XXOXfj+*--<d>Ohf&XO+t8=+8a*tXoOXOo**df&&->+Xt<ttds+ot<-<",
"<&+X&OOOX-O&**d*X+Xo+OXO8*+OXOOO+Ot-+oOX***afdXXXX&++Ot+<<XO+O9O",
"<+X-++OOOO&>**ad+oXXO+-X&&OO+O+XO--<ooXO&td*ddXXXX+>X-&>9&OOOO&&",
"$<OO<+<+XoXO<*++55+5&*&&++<-&O*&t-+XoO58 XOO**dd+X--a<-+XX>>XX<-",
"ttOO<=<<oXXX<*+O55**&tOO++<<O+++<-XOoX88  +++*dtO+-&h<OooX>>Xo=&"
};
