/* XPM */
static char *rcp08331680332524[] = {
/* columns rows colors chars-per-pixel */
"14 21 24 1 ",
"  c #704121",
". c #774424",
"X c #7E4926",
"o c #844D29",
"O c #854E29",
"+ c #974D2B",
"@ c #8B512B",
"# c #92552D",
"$ c #9B512D",
"% c #9F5631",
"& c #A45B34",
"* c #A96137",
"= c #AC663B",
"- c #B26B3E",
"; c #B77142",
": c #BB7646",
"> c #BF7C49",
", c #C3804C",
"< c gray80",
"1 c #CDCDCD",
"2 c #CECECE",
"3 c gray81",
"4 c #D0D0D0",
"5 c white",
/* pixels */
"55555555555225",
"55555555554>,2",
"55555555552;:2",
"55555555552;:2",
"55555555552;:2",
"55555555552;>2",
"55222222222-:2",
"52::;;;-*&$X.2",
"4;-----=*&$oX2",
"2;-=%*-=*&$@o2",
"2;=----**&$@@2",
"2;-;---=*&$@@2",
"2;---=-==&$@@2",
"2;-*=---=&+XX2",
"2-------*&%.o2",
"2X;;;--=**&**2",
"52@@@@oo@@@@@2",
"552 .22222  25",
"552@@22222X 25",
"552Xo22222#X25",
"552Xo222<<Xo25"
};
