/* XPM */
static char *rcp08331766254677[] = {
/* columns rows colors chars-per-pixel */
"13 23 30 1 ",
"  c #64391D",
". c #6A3D1F",
"X c #704121",
"o c #774424",
"O c #7E4926",
"+ c #844D29",
"@ c #8B512B",
"# c #9B512D",
"$ c #9E5531",
"% c #9F5631",
"& c #A45B34",
"* c #A76037",
"= c #A96137",
"- c #AC663B",
"; c #AD673B",
": c #AF673C",
"> c #B26B3E",
", c #B77142",
"< c #B87444",
"1 c #BB7646",
"2 c #BF7C49",
"3 c #C07E4A",
"4 c gray74",
"5 c gray80",
"6 c gray82",
"7 c #D5D5D5",
"8 c gray84",
"9 c #DADADA",
"0 c gray87",
"q c white",
/* pixels */
"qq988888889qq",
"q81111121218q",
"61,,>>>;:>>16",
"8=>>1>>,&>>=6",
"q81>>>>>=>,6q",
"q9oO55555++8q",
"q9@+5qqq5@@8q",
"q9@@5qqq5@@8q",
"q8@@55555@@6q",
"q6@+%#%%%@@6q",
"0&%%%=&==%&=0",
"8;;;;;;;;;;;9",
"8;;;;;;;;;>>9",
"81>>&>>1>>>>9",
"81>>&>>2,>>>9",
"81,,>,,,*,,19",
"81,,,,,,,,,38",
"0O,,,111>,1o0",
"q6O+O@@@++O8q",
"q8. 55555XX6q",
"q8O@55555@O8q",
"q8o 55555+O8q",
"q6. 46666.X8q"
};
