/* XPM */
static char *result[] = {
/* columns rows colors chars-per-pixel */
"32 32 16 1 ",
"  c #7B593E",
". c #7C593E",
"X c #7D5A3E",
"o c #7E5B3E",
"O c #805C3F",
"+ c #8A6445",
"@ c #8B6546",
"# c #8C6546",
"$ c #8E6747",
"% c #906948",
"& c #936B4A",
"* c #9E7450",
"= c #B38058",
"- c #B48158",
"; c #ACA4A3",
": c None",
/* pixels */
"::XOoooooooooooooooooooooooooooo",
":o-=+-;-$-;-@-;-@-;-@-;-@-;-@-;-",
"o-**$***&***&***&***$***$***&***",
"o;**#***%***&***&***&***&***&***",
".-**..                         .",
".&&&............................",
"o-**..::::::::::::::::::::::::::",
"o;**..::::::::::::::::::::::::::",
"o-**..::::::::::::::::::::::::::",
"o$&&..::::::::::::::::::::::::::",
"o-**..::::::::::::::::::::::::::",
"o;**..::::::::::::::::::::::::::",
"o-**..::::::::::::::::::::::::::",
"o@&&..::::::::::::::::::::::::::",
"o-**..::::::::::::::::::::::::::",
"o;**..::::::::::::::::::::::::::",
"o-**..::::::::::::::::::::::::::",
"o@&&..::::::::::::::::::::::::::",
"o-**..::::::::::::::::::::::::::",
"o;**..::::::::::::::::::::::::::",
"o-**..::::::::::::::::::::::::::",
"o@$&..::::::::::::::::::::::::::",
"o-**..::::::::::::::::::::::::::",
"o;**..::::::::::::::::::::::::::",
"o-**..::::::::::::::::::::::::::",
"o@$&..::::::::::::::::::::::::::",
"o-**..::::::::::::::::::::::::::",
"o;**..::::::::::::::::::::::::::",
"o-**..::::::::::::::::::::::::::",
"o@&&..::::::::::::::::::::::::::",
"o-**..::::::::::::::::::::::::::",
"o;**..::::::::::::::::::::::::::"
};
