/* XPM */
static char *rcp08331852279533[] = {
/* columns rows colors chars-per-pixel */
"16 23 138 2 ",
"   c #764F3C",
".  c #78513E",
"X  c #7A533F",
"o  c #7A5440",
"O  c #7B5440",
"+  c #7B5441",
"@  c #7F5743",
"#  c #7F5943",
"$  c #805943",
"%  c #805944",
"&  c #815A45",
"*  c #835B45",
"=  c #845B45",
"-  c #845C46",
";  c #855C46",
":  c #875E47",
">  c #865D48",
",  c #875E49",
"<  c #885F4A",
"1  c #925C45",
"2  c #905F47",
"3  c #89604A",
"4  c #89604B",
"5  c #8A614B",
"6  c #8B624C",
"7  c #8D644C",
"8  c #8D644D",
"9  c #8E654D",
"0  c #8F654E",
"q  c #8F664E",
"w  c #92614A",
"e  c #93614A",
"r  c #93614B",
"t  c #94624A",
"y  c #94624B",
"u  c #97624B",
"i  c #95634C",
"p  c #91664E",
"a  c #91664F",
"s  c #92674F",
"d  c #95644C",
"f  c #96644D",
"g  c #97654D",
"h  c #98634B",
"j  c #99644C",
"k  c #9B654D",
"l  c #98664E",
"z  c #99674E",
"x  c #99674F",
"c  c #9C664E",
"v  c #9D674F",
"b  c #946950",
"n  c #956A51",
"m  c #966A51",
"M  c #966B51",
"N  c #976C52",
"B  c #9B6950",
"V  c #9B6A50",
"C  c #9F6850",
"Z  c #9C6A51",
"A  c #9C6B51",
"S  c #9D6B51",
"D  c #9D6B52",
"F  c #986D53",
"G  c #9E6C52",
"H  c #9E6C53",
"J  c #9E6D53",
"K  c #9F6D54",
"L  c #9F6E54",
"P  c #A06E54",
"I  c #A07055",
"U  c #A17055",
"Y  c #A17155",
"T  c #A17056",
"R  c #A17156",
"E  c #A27156",
"W  c #A27256",
"Q  c #A37357",
"!  c #A47257",
"~  c #A37358",
"^  c #A47458",
"/  c #A57558",
"(  c #A47559",
")  c #A57559",
"_  c #A67458",
"`  c #A77558",
"'  c #A77559",
"]  c #A57659",
"[  c #A6765A",
"{  c #A6775A",
"}  c #A7775A",
"|  c #A6775B",
" . c #A7775B",
".. c #A8785B",
"X. c #A8795C",
"o. c #A9795C",
"O. c #A97A5D",
"+. c #AA7A5D",
"@. c #AA7B5D",
"#. c #AA7C5E",
"$. c #AB7C60",
"%. c #AB7D60",
"&. c #AD7F60",
"*. c #AC7E61",
"=. c #AD7F62",
"-. c #B38161",
";. c #B48263",
":. c #B58364",
">. c #B58565",
",. c #B58566",
"<. c #B78666",
"1. c #B68767",
"2. c #B88666",
"3. c #B88767",
"4. c #B98868",
"5. c #B88968",
"6. c #BA8969",
"7. c #B98A69",
"8. c #B98A6A",
"9. c #B98B6A",
"0. c #BA8B6B",
"q. c #BA8C6B",
"w. c #BB8C6C",
"e. c #BB8D6C",
"r. c #BB8E6C",
"t. c #BC8D6D",
"y. c #BC8E6D",
"u. c #BD8F6E",
"i. c #BD906F",
"p. c #BE906F",
"a. c #BE9170",
"s. c #BF9270",
"d. c #BF9271",
"f. c #BE9372",
"g. c #C09372",
"h. c #C09573",
"j. c #C09674",
"k. c #C29876",
/* pixels */
"y.g.d.d.p.y.y.r.9.9.9.9.9.9.4.4.",
"r.r.k.d.j.h.d.d.d.p.y.9.9.y.;.;.",
"r.r.d.C v v j j h h u u 1 4.;.;.",
"q.q.p.+.+...} } } } } } T 4.;.;.",
"9.9.9.+.&.&.$.#.+.+.+.+.T 9.;.;.",
"9.9.9.! C T T P K K K H H ;.;.;.",
"1.1.1.} $.#.+.+.+.+.+.+.T ;.;.;.",
"1.1.1.B P P K K K K H H j ;.;.;.",
"9.:.:.K +.+.&.+.+.&.+.+.T ;.;.;.",
"9.;.;.H T T T T T T T T T ;.;.;.",
"2.-.-.;.;.-.;.-.-.-.-.-.-.-.-.2.",
"2.2.2.2.2.2.2.2.2.2.2.2.2.3.2.2.",
"P } } } } } } } } } } } } } } T ",
"K } } } } } } } } } } } } } } T ",
"H } } , , , O : $   : % , } } T ",
"H ~ T 5 s s : s F X s s 6 } } T ",
"C T ! 5 s N : s s : s s 6 } } P ",
"C T T < 0 0 % M 0 = N s 5 ~ } K ",
"C T T < 0 M O 0 0 % M 0 5 T } K ",
"B T } , 0 M O 0 0 % M 0 5 +.T H ",
"C B T # @ # X # % % % % % T H j ",
"f B } } } } } } } } } ..! T H j ",
"2 i u w w w w w u i f f f j j u "
};
