/* XPM */
static char *result[] = {
/* columns rows colors chars-per-pixel */
"52 64 60 1 ",
"  c #1E1726",
". c #201C2D",
"X c #301E28",
"o c #232134",
"O c #25263A",
"+ c #42242A",
"@ c #542B2B",
"# c #472F37",
"$ c #593632",
"% c #66322D",
"& c #78382F",
"* c #5E4239",
"= c #7D4436",
"- c #282B41",
"; c #2E3143",
": c #2A3148",
"> c #2D364F",
", c #333342",
"< c #353645",
"1 c #373B4C",
"2 c #2F3B55",
"3 c #32405C",
"4 c #344563",
"5 c #404554",
"6 c #624D40",
"7 c #414F67",
"8 c #4E596B",
"9 c #4A596F",
"0 c #465974",
"q c #515F71",
"w c #4F647D",
"e c #56697F",
"r c #8A3F31",
"t c #824F3D",
"y c #9C4632",
"u c #AE4C34",
"i c #C05336",
"p c #C55E3D",
"a c #865A44",
"s c #907152",
"d c #CA6A44",
"f c #CE754B",
"g c #D38052",
"h c #DD9760",
"j c #E6AE6E",
"k c #EBB975",
"l c #586E86",
"z c #637383",
"x c #61788E",
"c c #72808D",
"v c #6A8297",
"b c #738DA0",
"n c #7990A1",
"m c #7C97A8",
"M c #808E98",
"N c #8F9BA2",
"B c #889DAC",
"V c #85A1B1",
"C c #97AAB6",
"Z c None",
/* pixels */
"ZZZZZZZZZZ                                ZZZZZZZZZZ",
"ZZZZZZZ   zzzzzzzzzzzzzzzMMMNNNNcczzzzzzzz   ZZZZZZZ",
"ZZZZZZ,5vv>>>>>>>>>>>>>>>>>>>>>>>>>>>>>>>3vv5,ZZZZZZ",
"ZZZZZ ;wOO                               oOOw; ZZZZZ",
"ZZZZ qq @yrriiii++iiXX+                      qq ZZZZ",
"ZZZ q-#riirriiiirriiy@u+                     o-q ZZZ",
"ZZ <eo=frurrhyyirruri@u+                      oe< ZZ",
"ZZ z> fk rrrh@@irrr i@r                        >z ZZ",
"Z 5w  fkdirrhiiirriii@i@+                       w5 Z",
"Z 5w  fkhirrhiiirriii@i@r                       w5 Z",
"Z 87XXfkhirrhiiirriii@iir                       78 Z",
"Z vO**fkhirrhiiirriii@iir                       Ov Z",
"Z vO66fkhirrhiiirriii@iir                       Ov Z",
"Z vO66fkhirrhiiirriii@iir                       Ov Z",
"Z vO66fkgirrgiiirriii@i&r                       Ov Z",
"Z vO66fkhdrrhdiirriii@i&r                       Ov Z",
"Z vO**iiii%%iiii%%iiu+y@                        Ov Z",
"Z vOXX@@@@  @@@@  @@+ XX                        Ov Z",
"Z vO..OOOOOOOOOOOOOOOOO.                        Ov Z",
"Z vO110vv04444444444444O-                       Ov Z",
"Z vO55wVbw04444444444444>                       Ov Z",
"Z vO55wVVx04444444444444>                       Ov Z",
"Z vO55w55V444444444444 >>                       Ov Z",
"Z vO55w99V444444444444>3>                       Ov Z",
"Z vO55wVmv4444444444444:>                       Ov Z",
"Z BO55wVm0l444444444444:>                       Ov Z",
"Z BOoo>>>>>>>>>>>>>>>>oo                        Ov Z",
"Z BO                                            Ov Z",
"Z CO                                            Ov Z",
"Z CO++rrrr  rrrr  rr% ++                        Ov Z",
"Z CO$$pfddrriiiirriii@i@+                       Ov Z",
"Z nO66fkddrrgiiirriii@i@+                       Ov Z",
"Z BO66fkjdrrhiiirriii@i&r                       Ov Z",
"Z vO66fkhirrhiiirriii@iir                       Ov Z",
"Z vO66fkhirrhiiirriii@iir                       Ov Z",
"Z vO66fkhirrhiiirriii@iir                       Ov Z",
"Z vO66fkhirrhiiirriii@iir                       Ov Z",
"Z vO66fkhirrhiiirriii@iir                       Ov Z",
"Z vO66fkhirrhiiirriii@iir                       OC Z",
"Z vO66fkhirrhiiirriii@iir                       OC Z",
"Z vO66fkhirrhiiirriii@iir                       OC Z",
"Z vO66fkdirrhiiirriii@iir                       OC Z",
"Z vO66dhhdrrhdiirriii@i&r                       On Z",
"Z vO66iggirrgiiirriii@i&r                       OC Z",
"Z vO**iiii%%iiii%%iiu+y@%                       On Z",
"Z vOXX@@@@  @@@@  @@+ XX                        On Z",
"Z vO..OOOOOOOOOOOOOOOO..                        Ov Z",
"Z vO110vvv0044444444442O-                       Ov Z",
"Z vO55wVbw044444444444::>                       Ov Z",
"Z vO55wVVV04444444444444>                       Ov Z",
"Z vO55w55V444444444444 >>                       Ov Z",
"Z vO55w99V444444444444>3>                       Ov Z",
"Z vO55wVbbl4444444444444>                       Ov Z",
"Z vO55wVbb4444444444444:>                       Ov Z",
"Z vOoo>>>>>>>>>>>>>>>>>o                        Ov Z",
"Z vO                                            Ov Z",
"Z vO                                            Ov Z",
"Z vO++rrrr  rrrr  rr% ++                        Ov Z",
"Z vO$$pfdirrdiiirriii@i&r                       Ov Z",
"Z vO66fstirrh&&irry@i@y@r                       Ov Z",
"Z lO66fa&irrg&&irry@i@yXr                       Ol Z",
"Z 4O$$ppii++iiii++iiyX&@+                       O4 Z",
"Z                                                  Z",
"Z                                                  Z"
};
