/* XPM */
static char *rcp08332030378520[] = {
/* columns rows colors chars-per-pixel */
"24 30 71 1 ",
"  c #6D3C22",
". c #723F24",
"X c #654129",
"o c #6B452B",
"O c #6B452C",
"+ c #734024",
"@ c #774327",
"# c #78452A",
"$ c #7C4628",
"% c #7D4729",
"& c #71492E",
"* c #704A2E",
"= c #724A2E",
"- c #7F4A2C",
"; c #764D31",
": c #774E31",
"> c #784D31",
", c #7E5235",
"< c #804A2A",
"1 c #824C2B",
"2 c #834C2D",
"3 c #844D2D",
"4 c #854E2F",
"5 c #89502F",
"6 c #8B5130",
"7 c #8C5331",
"8 c #8D5232",
"9 c #8E5432",
"0 c #855638",
"q c #895A3A",
"w c #8A5B3B",
"e c #905432",
"r c #905433",
"t c #915533",
"y c #935634",
"u c #965A35",
"i c #9B5B37",
"p c #915F3D",
"a c #9C5C39",
"s c #9D5E38",
"d c #9C5F38",
"f c #9E5F38",
"g c #A05F3A",
"h c #A3633C",
"j c #A5613C",
"k c #A6623C",
"l c #A8673E",
"z c #966340",
"x c #9C6642",
"c c #A06944",
"v c #AF6B41",
"b c #A86B48",
"n c #AD714C",
"m c #B2764F",
"M c #B77C53",
"N c #BB8056",
"B c #C08559",
"V c #F1AA45",
"C c #F3AE4A",
"Z c #F4B14E",
"A c #F4B553",
"S c #F5B957",
"D c #F6BD5A",
"F c #F6C05F",
"G c #F7C362",
"H c #F7C665",
"J c #A5A19F",
"K c #B4B0AE",
"L c #C3C0BE",
"P c #D4D2D1",
"I c white",
/* pixels */
"IIIPPKJJJJJJJJJJJKLPPIII",
"IIPK,,,,,,,,,,,,,,,,JPII",
"IPK,wzpccccccxxxxzxp,KPI",
"PL,,0@1%.%@.1%%22%@w,,KP",
"P,,w1eue2ud%ee2uuu5%,,,P",
"P,,+u5uu2ud%ud%ude5e20,P",
"P,02u5uu2uh%ud2uhe%d1p,P",
"P,w2u5ud2eh5ud2uhe%h9p,P",
"P,w5d3ud2ed5ud%dhe2hdz,P",
"P,p5d3ed2uueuh2ddu2h9x,P",
"P,w5d<ed2uueuh5dd52d5z,P",
"P,p55%ed2deeuheddu%h5p,P",
"P,p5d<eh2d5uuhevhu2ldp,P",
"P,ped<eh2dueuheduu5dhp,P",
"P,ped<dh2hdeul5uuu5hdw,P",
"P,peh3hl6ldeuh5ueC2hd0,P",
"POw5h7hh6lde5h55ASDeu>;P",
"LO;5h7hh6lu5ud5A@@%G5&;P",
"LO&5d7hl2ld5uu5Z%5+S5&;L",
"LOo2d5dh2ld5uu5%VFH%2&;K",
"LnB5d5du2ldeuu5d522u2NmL",
"KbN5deuu2lduuu5duueu2MbK",
"KbMedeuu2hduuu5duueu5MbK",
"KOO5u5uu2lduhu5duu5u5OXK",
"KO&2e5uu2heelu2huu2e5,&K",
"KO&2u5uu2hedvu2huu2e@,&K",
"KO;%u5uu2u2hlu2uuu5u%,;K",
"K&;%u5uu5ueduu%uuueu%,;K",
"K;, 2@@@@@%%%%%22%%% ;;K",
"K--#337edkkkgkiyy3333-#K"
};
