/* XPM */
static char *result[] = {
/* columns rows colors chars-per-pixel */
"52 64 87 1 ",
"  c #211928",
". c #2C1E29",
"X c #32232F",
"o c #3C222C",
"O c #252133",
"+ c #26253A",
"@ c #2F293E",
"# c #4D282D",
"$ c #422C37",
"% c #4A2F37",
"& c #542F33",
"* c #5C373A",
"= c #602D2F",
"- c #773632",
"; c #65413E",
": c #292941",
"> c #2D2C41",
", c #322C41",
"< c #2F3650",
"1 c #3C3A50",
"2 c #533C45",
"3 c #364260",
"4 c #374A68",
"5 c #414D68",
"6 c #4A5368",
"7 c #4D5B70",
"8 c #485C7A",
"9 c #803E37",
"0 c #8B3C33",
"q c #9F4536",
"w c #B64D37",
"e c #C6583A",
"r c #855448",
"t c #905342",
"y c #9C5341",
"u c #B35B42",
"i c #AC684D",
"p c #BA6548",
"a c #A36853",
"s c #CC6341",
"d c #D16D48",
"f c #D77A4D",
"g c #D07C53",
"h c #BE805C",
"j c #DB8554",
"k c #E1945C",
"l c #CD8B60",
"z c #D49765",
"x c #DA9463",
"c c #E59F65",
"v c #E8AB6B",
"b c #E4AB70",
"n c #EBB674",
"m c #EDBE7C",
"M c #506883",
"N c #546B83",
"B c #5B748B",
"V c #606D85",
"C c #637C97",
"Z c #688097",
"A c #6D889F",
"S c #708094",
"D c #7794A8",
"F c #7C9BAC",
"G c #8390A3",
"H c #8BA8B7",
"J c #8DABBA",
"K c #94A4B3",
"L c #94AFBE",
"P c #EFC683",
"I c #F0CD8B",
"U c #F1D490",
"Y c #F2D997",
"T c #F3DE9F",
"R c #F4E3A4",
"E c #F5E6AB",
"W c #F6EAB3",
"Q c #F7ECB7",
"! c #9CB7C3",
"~ c #9FBDC8",
"^ c #A4BECA",
"/ c #ACC6D0",
"( c #B3CDD4",
") c #BAD4D9",
"_ c #C1D9DD",
"` c #CDE1E4",
"' c None",
/* pixels */
"''''''''''                                ''''''''''",
"'''''''   VVVVVVVVVVVVVVVGGGKKKKSSVVVVVVVV   '''''''",
"''''''@1AA<<<<<<<<<<<<<<<<<<<<<<<<<<<<<<<<AA1@''''''",
"''''' >M++                                ++M> '''''",
"'''' 77 ##eeee 0eeeeeeeeq..qeeeeeeee0 eeee## 77 ''''",
"''' 7:2hcccccc iccccccccj#*ccccccccd0 cccccc0$:7 '''",
"'' ,NOambhmmvs hmmmmhbmmf&;mmmbhmkvf0 mmmmhgf9ON, ''",
"'' V< mmh mmmf hmmmm hmmv&;mmmh mmmm0 mmmm hvs <V ''",
"' 1M hmmvfmmmf hmmmmfvmmc#;mmmvfmmmm0 mmmmfvmm0 M1 '",
"' 1M hmmmmmmmf hmmmmmmmmc#;mmmmmmmmm0 mmmmmmmm0 M1 '",
"' 65Xzmmmmmmmf hmmmYWRIIc#;mmmmmmmmm0 mmmmmmmmq.56 '",
"' A+;mmmmmmmmf hmYIRWImmc#;mmmmmmmmm0 mmmmmmmme#+A '",
"' A+;mmmmmmmmf hmYIRRImmc#;mmmmmmmmm0 mmmmmmmme#+A '",
"' A+;mmmmmmmmf hmmmmmmmmc#;mmmmmmmmm0 mmmmmmmme#+A '",
"' A+;mmmmmmmmf hmmmmmmmmc#;mmmmmmmmmy mmmmmmmke#+A '",
"' A+;mmmmmmmfs hmmmmmmvvd#;mmmmmmmffy mmmmvvffe#+A '",
"' A+%xccccccjq rccccccccx%%xccccccje= lcccccjewo+A '",
"' A+ o#######.  ########o  o########  .#######o +A '",
"' A+ O++++++++++++++++++++++++++++++++++++++++O +A '",
"' A+O3AAAAAAAAAAAAAAAAAAAAAAAAAAAAAAAAAAAAAAAA3O+A '",
"' A++8CHHHHHHHHH))``````HHHHHHHHHHHHHHHHHHHHCC4++A '",
"' A++AHHHHHHHHHH!!((^^^^HHHHHHHHHHHHHHHHHHHHHH4++A '",
"' A++AHH <HHHHHHH/))))!!HHHHHHHHHHHHHHHHHH< HH4++A '",
"' A++AHHVZHHHHHHHH!)//HHHHHHHHHHHHHHHHHHHHZVHC4++A '",
"' A++488MDCHHHHHHHHHHHHHHHHHHHHHHHHHHHHHHHDM444++A '",
"' J++488MMMMMMMMMMMMMMMMMMMMMMMMMMMMMMMMMMMM444++A '",
"' J+ :<<<<<<<<<<<<<<<<<<<<<<<<<<<<<<<<<<<<<<<<: +A '",
"' J+                                            +A '",
"' ~+                                            +A '",
"' ~+ =0000000o  00000000=  =00000000  o0000000= +A '",
"' ~+&fffffffff yffffffffd#&ffffffffs0 fffffffse#+A '",
"' F+;mmmmmmmvf hmmmmmmvvd#;mmmmmmmvs0 mmmmmmfse#+A '",
"' J+;mmmmmmmmf hmmmmmmmmn*;mmmmmmmmm0 mmmmmmvve#+A '",
"' A+;mmmmmmmmf hmmmmmmmmc#;mmmmmmmmm0 mmmmmmvve#+A '",
"' A+;mPPUUImmf hmmmmmmmmc#;mmmPUIImm0 mmmmmmmme#+A '",
"' A+;mUUQQRmmf hmmmmmmmmc#;mmmUQRRmm0 mmmmmmmme#+A '",
"' A+;mmmTTUPmf hmmmmmmmmc#;mPPUEImmm0 mmmmmmmme#+A '",
"' A+;mmmUUUPmf hmmmmmmmmc#;mPPUUImmm0 mmmmmmmme#+A '",
"' A+;mmmmmmmmf hmmmmmmmmc#;mmmmmmmmm0 mmmmmmmme#+~ '",
"' A+;mmmmmmmmf hmmmmmmmmc#;mmmmmmmmm0 mmmmmmmme#+~ '",
"' A+;mmmmmmmmf hmmmmmmmmc#;mmmmmmmmm0 mmmmmmmme#+~ '",
"' A+;mmmmmmmmf hmmmmmmmmc#;mmmmmmmmm0 mmmmmmmme#+~ '",
"' A+;mmmmmmmmk hmmmmmmmmd#;mmmmmmmmm0 mmmmmmmkd#+F '",
"' A+;mmmmmvvff hmmmmmmmkd#;mmmmmmmkk0 mmmmmmffd#+~ '",
"' A+%xccccccjq rccccccccwo%xccccccccr lcccccjewo+F '",
"' A+ o#######.  ########o  o########  .#######o +F '",
"' A+ O++++++++++++++++++++++++++++++++++++++++O +A '",
"' A+O3AAAAAAAAAAAAAAAAAAAAAAAAAAAAAAAAAAAAAAAA3O+A '",
"' A++8CCHHHHHHHHHHHHHHHHHHH)^```````HHHHHHHHHC8++A '",
"' A++AHHHHHHHHHHHHHHHHHHHHH!L^^^^_^^HHHHHHHHHHA++A '",
"' A++AHH <HHHHHHHHHHHHHHHHHHH/!)!)/HHHHHHH< HHA++A '",
"' A++8CHVZHHHHHHHHHHHHHHHHHHHHH/)!HHHHHHHHZVHHA++A '",
"' A++444CCHHHHHHHHHHHHHHHHHHHHHHHHHHHHHHHCDM884++A '",
"' A++444MMMMMMMMMMMMMMMMMMMMMMMMMMMMMMMMMMMM884++A '",
"' A+ :<<<<<<<<<<<<<<<<<<<<<<<<<<<<<<<<<<<<<<<<: +A '",
"' A+                                            +A '",
"' A+                                            +A '",
"' A+ =0000000o  00000000=  =00000000  o0000000= +A '",
"' A+&ffffffffs yffffffffe#&fffffffff0 ffffffdee#+A '",
"' A+;mmmz;mmmf hmmmm;zmke#;mmmz;mmmm0 mmmm;zdee#+A '",
"' B+;mmmz;vvde hmmmm;zmmc#;mmmz;mkss0 mmmm;zmfe#+B '",
"' 4+Xpffffffd- %ffffffffu.Xpffffffsso tffffffsq.+4 '",
"'                                                  '",
"'                                                  '"
};
