/* XPM */
static char *_2702e358c4f4821a4c6b39613cc5f71cLKO2nDmqkfvNdDb[] = {
/* columns rows colors chars-per-pixel */
"52 64 60 1 ",
"  c None",
". c #28232D",
"X c #31272E",
"o c #3B2B2F",
"O c #292631",
"+ c #2B2934",
"@ c #2C2C38",
"# c #2E2F3B",
"$ c #2F333F",
"% c #3E3136",
"& c #33313B",
"* c #31313C",
"= c #34333D",
"- c #442E30",
"; c #4E3231",
": c #493434",
"> c #4E3A37",
", c #573633",
"< c #5C3C36",
"1 c #523F3B",
"2 c #613A34",
"3 c #6A3D35",
"4 c #614139",
"5 c #65473D",
"6 c #744136",
"7 c #7D4537",
"8 c #313642",
"9 c #353640",
"0 c #323946",
"q c #3A3B45",
"w c #343C49",
"e c #353F4D",
"r c #3B434F",
"t c #3F4753",
"y c #3E4956",
"u c #414650",
"i c #424954",
"p c #424E5A",
"a c #454F5B",
"s c #47535E",
"d c #4B535C",
"f c #6F5244",
"g c #4B5763",
"h c #505C67",
"j c #545C64",
"k c #54616B",
"l c #58666F",
"z c #5C666C",
"x c #596670",
"c c #5D6B74",
"v c #616F77",
"b c #656F74",
"n c #69787F",
"m c #824B3A",
"M c #86503E",
"N c #8B5641",
"B c #905C45",
"V c #99674C",
"C c #A27253",
"Z c #A77856",
/* pixels */
"          ................................          ",
"       ...dddddddddddddddzzzbbbbjhdddddddd...       ",
"      &qhh8888888888888888888888888888888whhq&      ",
"     .*p#+...............................+@@a&.     ",
"    .ii.-3227777oo77XXo......................ii.    ",
"   .i#%27722777722773-6o.....................+#i.   ",
"  .=a+<N2622V33722627-6o......................+a=.  ",
"  .d8.NZ.222V--7222.7-2........................8d.  ",
" .qp..NZM722V77722777-7-o.......................pq. ",
" .qy..NZV722V77722777-7-2.......................pq. ",
" .utXXNZV722V77722777-772.......................ru. ",
" .h@>>NZV722V77722777-772.......................#h. ",
" .h#11NZV722V77722777-772.......................+h. ",
" .h+11NZV722V77722777-772.......................@h. ",
" .h@11NZB722B77722777-7,2.......................#h. ",
" .h@11NZVM22VM7722777-7,2.......................+h. ",
" .h@>>7777;;7777;;776o3-........................@h. ",
" .h@XX----..----..--o.XX........................@h. ",
" .h+OO@@@@@@@@@@@@@@@@@O........................#h. ",
" .h#99yhhyeeeeeeeeeeeee@#.......................+h. ",
" .h@qqpckpyeeeeeeeeeeeee8.......................@h. ",
" .h@qqpccgyeeeeeeeeeeeee8.......................@h. ",
" .h@qqpqqceeeeeeeeeeee.88.......................@h. ",
" .h@qqpytceeeeeeeeeeee8w8.......................@h. ",
" .h#qqpcxheeeeeeeeeeeee$8.......................#h. ",
" .v+qqpcxyseeeeeeeeeeee$8.......................@h. ",
" .v@++8888888888888888++........................@h. ",
" .v@............................................@h. ",
" .n@............................................@h. ",
" .n@oo2222..2222..22;.oo........................@h. ",
" .n@::mNMM22777722777-7-o.......................#h. ",
" .x@11NZMM22B77722777-7-o.......................+h. ",
" .v@11NZCM22V77722777-7,2.......................@h. ",
" .h@11NZV722V77722777-772.......................@h. ",
" .h@11NZV722V77722777-772.......................#h. ",
" .h@11NZV722V77722777-772.......................+h. ",
" .h#11NZV722V77722777-772.......................@h. ",
" .h+11NZV722V77722777-772.......................@h. ",
" .h@11NZV722V77722777-772.......................@n. ",
" .h@11NZV722V77722777-772.......................@n. ",
" .h@11NZV722V77722777-772.......................#n. ",
" .h@11NZM722V77722777-772.......................+n. ",
" .h+11NVVM22VM7722777-7,2.......................@x. ",
" .h#117BB722B77722777-7,2.......................@n. ",
" .h@:>7777;;7777;;776o3-;.......................@x. ",
" .h@XX----..----..--o.XX........................@x. ",
" .h@OO@@@@@@@@@@@@@@@@OO........................#h. ",
" .h@99yhhhyyeeeeeeeeew0##.......................+h. ",
" .h#qqpckpyeeeeeeeeeee$$8.......................@h. ",
" .h@qqpcccyeeeeeeeeeeeee8.......................@h. ",
" .h@qqpqqceeeeeeeeeeee.88.......................#h. ",
" .h@qqpttceeeeeeeeeeee8w8.......................+h. ",
" .h@qqpckkseeeeeeeeeeeee8.......................@h. ",
" .h@qqpckkeeeeeeeeeeeee$8.......................@h. ",
" .h+++88888888888888888+........................@h. ",
" .h#............................................@h. ",
" .h@............................................#h. ",
" .h@oo2222..2222..22;.oo........................+h. ",
" .h@::mNM722M77722777-7,2.......................@h. ",
" .h@11Nf4722V,,7223-7-3-2.......................@h. ",
" .s#11N5,722B,,7223-7-3X2.......................@g. ",
" .e+::mm77oo7777oo773X,-o.......................@e. ",
" .................................................. ",
" .................................................. "
};
