/* XPM */
static char *rcp08331941290139[] = {
/* columns rows colors chars-per-pixel */
"24 30 40 1 ",
"  c black",
". c #654129",
"X c #6B452B",
"o c #6B452C",
"O c #78452A",
"+ c #71492E",
"@ c #704A2E",
"# c #724A2E",
"$ c #7F4A2C",
"% c #764D31",
"& c #774E31",
"* c #784D31",
"= c #7E5235",
"- c #854E2F",
"; c #8D5232",
": c #855638",
"> c #895A3A",
", c #8A5B3B",
"< c #905433",
"1 c #935634",
"2 c #9B5B37",
"3 c #915F3D",
"4 c #9C5C39",
"5 c #A05F3A",
"6 c #A5613C",
"7 c #A6623C",
"8 c #966340",
"9 c #9C6642",
"0 c #A06944",
"q c #A86B48",
"w c #AD714C",
"e c #B2764F",
"r c #B77C53",
"t c #BB8056",
"y c #C08559",
"u c #A5A19F",
"i c #B4B0AE",
"p c #C3C0BE",
"a c #D4D2D1",
"s c white",
/* pixels */
"sssaaiuuuuuuuuuuuipaasss",
"ssai================uass",
"sai=,830000009999893=ias",
"ap==:              ,==ia",
"a==,                ===a",
"a==                  :=a",
"a=:                  3=a",
"a=,                  3=a",
"a=,                  8=a",
"a=3                  9=a",
"a=,                  8=a",
"a=3                  3=a",
"a=3                  3=a",
"a=3                  3=a",
"a=3                  ,=a",
"a=3                  :=a",
"ao,                  *%a",
"po%                  +%a",
"po+                  +%p",
"poX                  +%i",
"pwy                  tep",
"iqt                  rqi",
"iqr                  rqi",
"ioo                  o.i",
"io+                  =+i",
"io+                  =+i",
"io%                  =%i",
"i+%                  =%i",
"i%=                  =%i",
"i$$$--;<477757211----$Oi"
};
