/* XPM */
static char *rcp08332127244620[] = {
/* columns rows colors chars-per-pixel */
"32 32 37 1 ",
"  c #7B583D",
". c #7C593D",
"X c #7C593E",
"o c #7D593E",
"O c #7E5A3E",
"+ c #7F5B3F",
"@ c #805B3F",
"# c #835E42",
"$ c #8A6445",
"% c #8B6545",
"& c #8B6546",
"* c #8D6647",
"= c #936A4A",
"- c #936B4A",
"; c #946B4A",
": c #956D4B",
"> c #9A6F4D",
", c #9B704E",
"< c #9C714E",
"1 c #9C724F",
"2 c #9D724F",
"3 c #9E7350",
"4 c #9E7450",
"5 c #9F7551",
"6 c #A07652",
"7 c #A27853",
"8 c #A37954",
"9 c #A47A55",
"0 c #A57B55",
"q c #A57C56",
"w c #B48158",
"e c #AEA6A5",
"r c #AFA7A6",
"t c #B0A9A8",
"y c #B3ACAB",
"u c #B4ADAC",
"i c white",
/* pixels */
"iiiiiiiiiiiiiiiiiiiiiiiiiiiiiiii",
"iiiiiiiiiiiiiiiiiiiiiiiiiiiiiiii",
"iiiiiiiiiiiiiiiiiiiiiiiiiiiiiiii",
"iiiiiiiiiiiiiiiiiiiiiiiiiiiiiiii",
"iiiiiiiiiiiiiiiiiiiiiiiiiiiiiiii",
"iiiiiiiiiiiiiiiiiiiiiiiiiiiiiiii",
"iiiiiiiiiiiiiiiiiiiiiiiiiiiiiiii",
"iiiiiiiiiiiiiiiiiiiiiiiiiiiiiiii",
"iiiiiiiiiiiiiiiiiiiiiiiiiiiiiiii",
"iiiiiiiiiiiiiiiiiiiiiiiiiiiiiiii",
"iiiiiiiiiiiiiiiiiiiiiiiiiiiiiiii",
"iiiiiiiiiiiiiiiiiiiiiiiiiiiiiiii",
"iiiiiiiiiiiiiiiiiiiiiiiiiiiiiiii",
"iiiiiiiiiiiiiiiiiiiiiiiiiiiiiiii",
"iiiiiiiiiiiiiiiiiiiiiiiiiiiiiiii",
"iiiiiiiiiiiiiiiiiiiiiiiiiiiiiiii",
"iiiiiiiiiiiiiiiiiiiiiiiiiiiiiiii",
"iiiiiiiiiiiiiiiiiiiiiiiiiiiiiiii",
"iiiiiiiiiiiiiiiiiiiiiiiiiiiiiiii",
"iiiiiiiiiiiiiiiiiiiiiiiiiiiiiiii",
"iiiiiiiiiiiiiiiiiiiiiiiiiiiiiiii",
"iiiiiiiiiiiiiiiiiiiiiiiiiiiiiiii",
"iiiiiiiiiiiiiiiiiiiiiiiiiiiiiiii",
"iiiiiiiiiiiiiiiiiiiiiiiiiiiiiiii",
"iiiiiiiiiiiiiiiiiiiiiiiiiiiiiiii",
"iiiiiiiiiiiiiiiiiiiiiiiiiiiiiiii",
"iiiiiiiiiiiiiiiiiiiiiiiiiiiiiiii",
"iiiiiiiiiiiiiiiiiiiiiiiiiiiiiiii",
"                                ",
"oo  ooo oo      oo  oo ooooo@oo ",
"46=>27*244%>>>>,342244%280;2q0%>",
"rw%wrw%wuw%wtw:wyw=wuw#wyw;wyw%w"
};
