/* XPM */
static char *result[] = {
/* columns rows colors chars-per-pixel */
"64 64 6 1 ",
"  c #72751B",
". c #787B21",
"X c #7F8226",
"o c #656C17",
"O c #7F8124",
"+ c #686F16",
/* pixels */
"                                                                ",
"                                                                ",
"                                                                ",
"                    .X                                          ",
"                     XX                                         ",
"                     ...                                        ",
"                     o..o..XX                                   ",
"                      oo...                                     ",
"                        ..o                                     ",
"..                      .o                                      ",
".                                                               ",
".                                                               ",
"o                                                       O       ",
"                                  X                    ..  O..  ",
"                                 X                  O  .+ .OO   ",
"                                ..                   O.+ ..O+   ",
"                                ..o                 +..  ..+.O  ",
"                                oo.X                 +.  .+..+  ",
"                                  ..                  +  ++.+   ",
"                                  oo                            ",
"                                                                ",
"             XX     X                                           ",
"              X.. .X                                            ",
"           .XXo.o..o                                            ",
"            X..oo..o                                            ",
"            o..  .o                         .OO                 ",
"             o.                              O..                ",
"                                             +..                ",
"                                              ++                ",
"                                                                ",
"                                                                ",
"                                                                ",
"                                                                ",
"                                                                ",
"                                                                ",
"                                                                ",
"          ..                                                    ",
"          +OO                                                   ",
"           O..   .                                              ",
"           +.. O.                                               ",
"           +...OO            O                                  ",
"            ++..+           ..  OO.                             ",
"              ++         .  .+ ..O                              ",
"                          O.+  ..+                              ",
"                          ..  ..+.O                             ",
"                           +  .+..+                             ",
"                              ++.+                              ",
"                                                                ",
"                     OO.                                        ",
"                      O..                                       ",
"   .                  +..                    OO    ..           ",
"   ..                  ++                     O.. OO            ",
"   +.                                      .OO+.+..+            ",
"    +                                       O..++..+            ",
"                                            +..  .+             ",
"          OO    ..                           +.                 ",
"           O.  ..                   OO                          ",
"           +.. ..              .  ..O                           ",
"           +.. ++              OO+..+                           ",
"            ++                 O..++                            ",
"                               +..                              ",
"                                                                ",
"                                                                ",
"                                                                "
};
