/* XPM */
static char *result[] = {
/* columns rows colors chars-per-pixel */
"64 64 116 2 ",
"   c #7E3D43",
".  c #813F45",
"X  c #814047",
"o  c #83454B",
"O  c #85484F",
"+  c #874A50",
"@  c #8A4D53",
"#  c #8F4F58",
"$  c #8A5156",
"%  c #895359",
"&  c #91555D",
"*  c #995B64",
"=  c #97656B",
"-  c #9B6068",
";  c #996A6F",
":  c #966C72",
">  c #9B6D73",
",  c #9F7379",
"<  c #A1666F",
"1  c #A76C77",
"2  c #A2757C",
"3  c #AC717C",
"4  c #AE7580",
"5  c #A37E84",
"6  c #AC7983",
"7  c #B37B86",
"8  c #B57D89",
"9  c #AA8187",
"0  c #A6848A",
"q  c #AD838A",
"w  c #B2808B",
"e  c #B0888F",
"r  c #AF8D92",
"t  c #B78491",
"y  c #B98793",
"u  c #B48B93",
"i  c #BA8D97",
"p  c #BD8F99",
"a  c #B09195",
"s  c #B4929A",
"d  c #B8979D",
"f  c #B8989E",
"g  c #B49CA1",
"h  c #BA9EA3",
"j  c #BCA2A7",
"k  c #BEA6AC",
"l  c #C08C98",
"z  c #C299A4",
"x  c #CC9FAC",
"c  c #C1A0A7",
"v  c #C3A1AA",
"b  c #CCA2AE",
"n  c #C2A8AE",
"m  c #CCA5B1",
"M  c #C4ADB6",
"N  c #CCADB6",
"B  c #CFAEB8",
"V  c #D1A6B3",
"C  c #D3AAB6",
"Z  c #D5ACB9",
"A  c #C5B0B6",
"S  c #C3B7BC",
"D  c #CBB9BE",
"F  c #D0B5BE",
"G  c #CDB7C3",
"H  c #C8BCC1",
"J  c #CCBECB",
"K  c #D3B5C3",
"L  c #DAB6C3",
"P  c #D5BBC4",
"I  c #DABBC5",
"U  c #DFBFCC",
"Y  c #CDC2C6",
"T  c #D6C2CC",
"R  c #DAC5CE",
"E  c #D4CBCF",
"W  c #D9C8CF",
"Q  c #CDCCD4",
"!  c #D3CDD5",
"~  c #DBCBD4",
"^  c #CFD1DA",
"/  c #D9D2D6",
"(  c #D1D4DD",
")  c #DCD4D9",
"_  c #E0C5D0",
"`  c #E4CBD7",
"'  c #E4CED9",
"]  c #E4D6DE",
"[  c #D3D6E0",
"{  c #D6DBE3",
"}  c #DCDBE2",
"|  c #D9DEE8",
" . c #E4DAE2",
".. c #E9DCE5",
"X. c #CEE6ED",
"o. c #CEE8ED",
"O. c #D1E6ED",
"+. c #DBE5EC",
"@. c #D2E8EF",
"#. c #DCE8EE",
"$. c #D6E7F0",
"%. c #D5EAF1",
"&. c #DBEDF4",
"*. c #DFF0F5",
"=. c #E1E2E6",
"-. c #E6E6EC",
";. c #E9E6ED",
":. c #E4E9EE",
">. c #EAE8EE",
",. c #E1EEF4",
"<. c #EAEDF3",
"1. c #E4F1F6",
"2. c #EAF1F7",
"3. c #E6F3F9",
"4. c #EAF3F8",
"5. c #F6FAFC",
/* pixels */
"5.4.4.4.4.4.4.4.4.4.4.4.4.1.*.*.#.o.o.%.&.*.1.4.4.4.4.4.4.4.4.4.4.4.4.1.*.&.%.@.o.O.&.$.1.4.4.4.4.4.4.4.4.4.4.4.4.4.1.&.&.%.o.%.",
"4.4.4.4.4.4.4.4.4.4.4.4.4.*.&.@.X.X.%.*.1.4.4.4.4.4.4.4.4.4.4.4.4.4.4.*.&.&.o.o.%.&.1.4.4.4.4.4.4.4.4.4.4.4.4.4.4.1.&.*.%.o.o.%.",
"4.4.4.4.4.4.4.4.4.4.4.4.3.&.@.o.O.&.&.4.4.4.4.4.4.4.4.4.4.4.4.4.4.4.4.&.&.o.o.O.&.,.4.4.4.4.4.4.4.4.4.4.4.4.4.4.4.1.&.%.o.o.&.,.",
"4.4.4.4.4.4.4.4.4.4.4.1.1.&.@.o.@.&.4.4.4.4.4.4.4.4.4.4.4.4.4.4.4.4.1.&.%.o.%.&.4.4.4.4.4.4.4.4.4.4.4.4.4.4.4.4.1.*.&.o.O.&.,.4.",
"4.4.4.4.4.4.4.4.4.4.1.&.&.%.o.O.&.#.4.4.4.4.4.4.4.4.4.4.4.4.4.4.3.*.&.&.o.X.&.&.1.4.4.4.4.4.4.4.4.4.4.1.2.4.4.1.&.&.&.O.&.&.,.4.",
"4.4.4.4.4.4.#.1.4.3.1.&.&.o.o.O.2.&.1.4.4.4.4.4.4.4.4.4.1.1.4.4.3.&.&.X.X.X.*.1.&.4.4.4.4.4.4.4.4.4.4.&.4.4.1.&.&.&.o.o.&.,.&.<.",
"4.4.4.4.4.4.4.4.3.1.&.&.&.o.%.&.4.4.4.4.4.4.4.4.4.4.4.4.1.4.4.1.&.&.&.X.%.&.1.4.3.4.4.4.4.4.4.4.4.4.4.4.4.1.&.&.&.&.o.&.&.4.4.4.",
"4.4.4.4.4.4.4.4.3.&.&.&.o.o.#.1.4.4.4.4.4.4.4.4.4.4.4.4.4.4.4.&.&.&.&.X.X.&.4.4.4.4.4.4.4.4.4.4.4.4.4.4.4.1.&.&.&.&.O.&.4.4.4.4.",
"4.4.4.4.4.4.4.3.3.*.&.%.X.o.&.4.4.4.4.4.4.4.4.4.4.4.4.4.4.3.1.&.&.%.X.@.$.2.4.4.4.4.4.4.4.4.4.4.4.4.4.4.4.&.&.&.%.o.&.1.4.4.4.4.",
"4.4.4.4.4.4.4.*.&.*.%.X.X.*.4.4.4.4.4.4.4.4.4.4.4.4.4.4.4.1.&.&.%.X.X.&.3.4.4.4.4.4.4.4.4.4.4.4.4.4.4.3.*.&.&.%.X.X.1.4.4.4.4.4.",
"4.4.4.4.4.3.*.&.&.&.o.o.&.3.4.4.4.4.4.4.4.4.4.4.4.4.3.4.1.&.&.&.@.X.&.*.4.4.4.4.4.4.4.4.4.4.4.4.4.3.3.*.&.&.&.o.%.&.3.4.4.4.4.4.",
"4.4.4.4.4.3.&.&.&.%.X.&.&.3.4.4.4.4.4.4.4.4.4.4.4.4.3.1.&.&.&.&.X.@.&.3.4.4.4.4.4.4.4.4.4.4.4.4.4.3.1.&.&.&.&.o.&.*.4.4.4.4.4.4.",
"4.4.4.4.3.&.&.&.%.X.X.&.3.4.4.4.4.4.4.4.4.4.4.4.4.4.3.&.&.&.&.X.X.@.3.4.4.4.4.4.4.4.4.4.4.4.4.4.4.3.&.&.&.&.X.o.&.3.4.4.4.4.4.4.",
"4.4.4.*.&.&.&.%.X.X.&.&.4.4.4.4.4.4.4.4.4.4.4.4.4.3.&.&.&.&.o.^ %.&.3.4.4.4.4.4.4.4.4.4.4.4.4.3.3.&.&.&.&.o.o.$.3.4.4.4.4.4.4.4.",
"4.4.1.&.&.%.%.X.X.%.&.4.4.4.4.4.4.4.1.1.4.4.4.4.1.&.&.&.%.o.( | &.*.3.4.4.4.4.4.4.3.3.4.4.4.3.1.&.&.&.&.O.%.&.&.3.4.4.4.4.4.4.4.",
"3.*.&.&.X.X.X.X.%.&.3.4.4.4.4.4.4.4.1.&.4.4.3.1.&.&.$.o.| X.G &.3.3.2.4.4.4.4.4.3.1.,.4.4.4.,.&.&.%.X.X.%.$.&.4.4.4.4.4.4.4.4.1.",
"*.&.&.@.X.X.&.*.4.4.4.4.4.4.4.4.4.4.4.3.2.4.1.&.&.O.o.o.&.&.m 4.4.4.4.4.4.4.4.4.4.4.4.4.3.*.&.&.%.X.%.&.,.4.4.4.4.4.4.4.4.4.4.4.",
"&.&.X.X.%.&.1.4.4.4.4.4.4.4.4.4.4.4.4.4.4.3.&.&.$.X.o.&.,.,.x 4.4.4.4.4.4.4.4.4.4.4.4.3.&.&.&.%.X.%.&.1.4.4.4.4.4.4.4.4.4.4.4.4.",
"&.@.X.X.&.4.4.4.4.4.4.4.4.4.4.4.4.4.4.1.*.&.&.$.o.o.&.3.4.;.Z 4.4.4.4.4.4.4.4.4.4.3.*.*.&.&.%.o.X.&.4.4.4.4.4.4.4.4.4.4.4.4.4.4.",
"&.X.X.&.*.4.4.4.4.4.4.4.4.4.4.4.4.4.1.&.&.&.%.X.o.&.&.1.4.;.V <.4.4.4.4.2.4.4.4.,.&.&.&.&.&.o.X.&.1.4.4.4.4.4.4.4.4.4.4.4.4.4.&.",
"X.%.$.3.2.4.4.4.4.,.3.4.4.4.4.;.4.*.&.&.X.X.X.X.%.,.3.4.4.<.l T ,.4.<.<.4.4.4.,.&.&.&.%.O.o.&.&.3.4.4.4.4.,.,.4.4.4.4.3.4.3.1.&.",
"$.$.3.4.2.4.4.4.2.1.2.4.4.4.4.~ &.$.%.%.X.%.%.&.3.4.4.4.4.4.7 B 4.4.] ;.4.4.3.&.&.%.X.o.%.,. .4.4.4.4.4.4.4.,.4.4.4.4.1.1.,.&.&.",
"4.4.4.4.4.4.4.4.4.4.4.4.4.3.&.#.J $.X.$.$.$.&.,.4.4.4.4.4.4.z 8 4.4.N 2.,.&.&.O.o.%.%.%.&./ >.2.4.4.4.4.4.4.4.4.4.4.1.&.&.&.X.X.",
"4.4.4.4.4.4.4.4.4.4.4.4.2.&.&.&.^ Q $.&.3.4.4.4.4.4.4.4.4.4. .o 4...P ] &.&.X.X.X.&.*.3.>.M 4.4.4.4.4.4.4.4.4.4.4.1.&.&.%.o.o.#.",
"4.4.4.4.4.4.4.4.4.4.4.4.4.&.&.X.X.s [ *.<.4.4.4.4.4.4.4.>.4.<.+ T @ v ,.$.O.O.@.&.*.3.4.x <.4.2.4.4.4.4.4.4.4.4.4.1.&.&.X.o.%.&.",
"4.4.4.4.4.4.4.4.4.4.4.4.&.&.$.X.$.+.y :...4.4.4.4.4.4.4._ 4.4.< @ D ,.,.$.@.@.&.&.4.4.Z  .4.4.4.4.4.4.4.4.4.4.4.3.*.&.X.o.o.&.3.",
"4.4.4.4.4.4.4.4.4.4.4.&.&.&.X.X.&.*.-.q N 4.<.<.4.4.<.] P <.<.3 i ,.,.&.O.o.&.*.<.4.~ L 4.4.4.<.4.4.4.4.4.4.4.3.&.&.&.X.$.&.3.4.",
"4.4.4.4.4.4.&.1.4.4.1.&.&.O.X.o.3.*.1.<.r ) >.<.4.4.4.~ 6 m 4.1 I ,.&.%.o.o.&.1.R W h 4.4.<.4.4.4.4.4.&.4.4.4.&.*.&.o.o.1.3.&.3.",
"4.4.4.4.4.4.,.4.4.&.&.&.&.o.| +.4.3.4.4.4.n g s 4.4.4.4.<.u b < ) $.&.O.O.@.,.R , u <.4.4.4.4.4.4.4.4.1.3.4.,.&.&.%.o.O.1.3.1.3.",
"4.4.4.4.4.4.4.4.3.&.&.&.$.O.#./ T :.4.4.4.4.) # u 4.4.4.4.4.p   | &.&.^ { &.F + v 4.4.<.4.4.4.4.4.4.4.4.4.1.&.&.&.%.o.&.1.4.4.4.",
"4.4.4.4.4.4.4.4.1.*.&.%.X.O.#.<.;.z k 4.4.4.4.:.h - ] 4.4.2...  +.#.Q u Q > 4 ..4.4.4.4.4.4.4.4.4.4.4.4.4.1.&.&.O.o.O.3.1.4.4.4.",
"4.4.4.4.4.4.4.3.&.&.%.o.X.&.,.<.R m = + 2 h k h f 2 . 6 =.2.:.. | o.M * X z 2.2.4.<.4.<.4.4.4.4.4.4.4.<.,.&.&.O.o.O.,.4.2.4.4.4.",
"4.4.4.4.4.3.1.&.&.&.X.%.$.3.4.2.<.4.;. .W x * L L B 8   + ~ &.+ [ X.:   @ q d u t z W <.4.4.4.4.4.<.4.,.&.&.$.O.O.&.4.4.4.4.4.4.",
"4.4.4.4.4.1.&.&.&.&.o.$.&.4.2.2.4.4.4.<.,.L 4.<.4.4.2. .# . K & [ G   5 -.4.4.4.2.2.4.4.4.<.4.4.<.4.,.&.&.&.$.@.#.&.4.4.4.4.4.4.",
"4.4.4.4.,.&.&.&.$.X.X.#.<.4.4.<.<.4.<.4.4.4.4.4.4.4.3.,.} O   . J # 5 <.4.4.4.<.2.2.4.4.4.4.4.4.4.,.&.$.&.@.X.o.$.1.4.4.4.4.4.4.",
"4.4.4.1.&.&.&.%.O.X.$.&.<.4.4.4.4.4.4.4.4.<.4.<.<.3.,.&.&.z     & . } 4.<.4.4.4.<.4.4.4.4.<.4.<.,.$.*.*.$.X.X.%.*.4.4.4.4.4.4.4.",
"4.4.3.&.&.&.%.X.X.%.&.,.4.4.4.4.<.<.4.<.4.<.4.4.4.,.&.$.#.{       6 4.4.4.4.<.4.4.4.<.<.2.2.4.&.&.&.&.%.X.X.%.&.1.4.4.4.4.4.4.4.",
"4.3.&.&.%.X.X.X.%.&.,.4.4.4.4.4.4.4.,.&.4.<.4.<.<.&.$.X.X.O.&     I <.<.4.4.<.4.4.&.,.4.2.2.&.&.$.X.X.X.o.X.&.4.4.4.4.4.4.4.4.1.",
"1.&.&.%.o.o.$.&.&.3.4.4.4.4.4.4.4.<.<.4.4.4.4.,.$.#.X.X.O.%.t     ;.4.4.<.4.4.4.2.<.2.2.2.,.&.$.%.X.X.&.&.&.1.4.4.4.4.4.4.4.4.1.",
"*.&.%.o.%.&.1.4.2.4.4.4.4.4.4.4.4.4.4.4.4.3.<.&.&.X.$.$.#.,.V   * 4.<.4.4.4.4.4.2.2.2.2.&.&.&.o.X.X.$.*.1.3.4.4.4.4.4.4.4.4.4.2.",
"&.%.X.X.&.3.4.4.4.4.4.4.4.4.4.4.4.4.4.4.4.,.&.$.X.X.#.,.2.2.U   4 <.4.4.<.4.4.4.4.4.<.3.&.&.%.X.o.#.4.4.4.4.4.4.4.4.4.4.4.4.4.4.",
"%.X.X.&.&.3.4.4.4.4.4.4.4.4.4.4.4.4.4.&.,.$.$.O.X.O.&.,.2.2.`   8 4.4.<.4.4.4.4.4.&.&.&.$.O.o.o.*.1.4.4.4.4.4.4.4.4.4.4.4.4.2.1.",
"X.X.&.*.3.4.4.4.4.,.4.4.4.4.4.4.4.4.&.&.$.O.%.o.#.*.2.2.4.4.` . t 4.4.4.4.4.4.1.&.&.$.%.o.o.$.&.*.1.4.4.4.4.1.4.4.4.4.4.4.4.1.&.",
"X.%.*.4.4.4.4.4.4.&.3.4.4.4.4.4.4.*.&.$.o.X.O.O.,.4.2.4.4.4. .. a 4.<.4.3.3.3.*.&.$.X.X.O.%.$.4.4.4.4.4.4.1.1.4.4.4.4.2.1.*.&.@.",
"4.4.4.4.4.4.4.4.4.4.4.4.4.4.3.&.&.X.X.X.X.&.&.4.4.4.4.4.2.2.=.  0 4.4.4.1.&.&.%.X.X.X.O.&.,.4.4.4.4.4.4.4.4.4.4.4.4.1.&.&.#.o.X.",
"4.4.4.4.4.4.4.4.4.4.4.4.4.3.&.&.X.X.%.&.&.,.4.4.4.4.4.4.2.2.+.  = 4.4.3.*.&.%.X.X.&.&.&.,.4.4.4.4.4.4.4.4.4.4.4.4.1.*.*.@.O.X.@.",
"4.4.4.4.4.4.4.4.4.4.4.4.4.*.&.X.X.X.&.*.4.4.4.4.4.4.4.4.4.4./   @ 4.4.1.&.%.X.X.&.&.3.4.4.4.4.4.4.4.4.4.4.4.4.4.4.4.*.@.X.X.O.#.",
"4.4.4.4.4.4.4.4.4.4.4.4.2.*.X.X.X.&.1.4.4.4.4.4.4.4.4.4.4.4.E     3.3.1.&.X.X.&.&.3.4.4.4.4.4.4.4.4.4.4.4.4.4.4.3.3.&.X.X.o.*.1.",
"4.4.4.4.4.4.4.4.4.4.4.3.&.&.o.%.&.1.4.4.4.4.4.4.4.4.4.4.4.4.D     ,.*.&.&.o.&.&.4.4.4.4.4.4.4.4.4.4.4.4.4.4.4.4.1.*.&.X.@.&.,.4.",
"4.4.4.4.4.4.,.,.4.4.4.&.&.@.X.o.,.1.3.4.4.4.4.4.4.4.4.4.1.1.k     #.&.&.%.O.&.&.,.4.4.4.4.4.4.4.4.4.1.1.4.4.1.1.*.&.O.X.&.&.&.4.",
"4.4.4.4.4.4.,.3.4.4.,.&.&.o.o.O.4.,.1.4.4.4.4.4.4.4.4.4.1.1.r     { &.%.o.X.1.,.,.4.4.4.4.4.4.4.4.4.2.*.1.4.&.*.&.@.O.X.&.4.#.4.",
"4.4.4.4.4.4.4.4.4.,.&.&.&.o.$.&.4.4.4.4.4.4.4.4.4.4.4.4.4.3.;     Q &.X.%.&.4.4.4.4.4.4.4.4.4.4.4.4.4.2.4.1.1.&.&.@.O.&.*.4.4.4.",
"4.4.4.4.4.4.4.3.3.&.&.&.X.X.&.,.4.4.4.4.4.4.4.4.4.4.4.4.4.4.O     S @.o.O.,.4.4.4.4.4.4.4.4.4.4.4.4.4.4.4.1.&.&.o.o.X.&.4.4.4.4.",
"4.4.4.4.4.4.4.3.1.&.&.o.X.o.&.4.4.4.4.4.4.4.4.4.4.4.4.4.4.4.      g X.o.@.4.4.4.4.4.4.4.4.4.4.4.4.4.4.4.1.*.&.@.X.o.#.1.4.4.4.4.",
"4.4.4.4.4.4.4.1.&.&.X.o.%.,.4.4.4.4.4.4.4.4.4.4.4.4.4.4.4.:.      0 @.&.4.4.4.4.4.4.4.4.4.4.4.4.4.4.4.1.#.*.@.o.X.X.4.4.4.4.4.4.",
"4.4.4.4.4.4.3.&.&.&.o.%.&.4.4.4.4.4.4.4.4.4.4.4.4.4.4.4.,.{       % &.,.4.4.4.4.4.4.4.4.4.4.4.4.4.4.1.*.*.*.%.o.$.&.4.4.4.4.4.4.",
"4.4.4.4.3.&.&.&.&.X.X.&.*.4.4.4.4.4.4.4.4.4.4.4.4.4.1.1.*.Q         1.1.4.4.4.4.4.4.4.4.4.4.4.4.4.3.&.&.&.$.o.O.$.4.4.4.4.4.4.4.",
"4.4.4.4.1.&.&.&.%.X.X.&.4.4.4.4.4.4.4.4.4.4.4.4.4.4.1.*.&.S         <.4.4.4.4.4.4.4.2.4.4.4.4.4.3.&.&.&.&.O.X.@.&.4.4.4.4.4.4.4.",
"4.4.4.&.&.&.&.$.X.X.&.&.4.4.4.4.4.4.4.4.4.4.4.4.4.1.*.%.*.f         +.4.4.4.4.4.4.4.4.4.4.4.4.3.&.&.&.$.o.X.O.&.1.4.4.4.4.4.4.4.",
"4.4.3.&.$.X.O.o.X.&.&.3.4.4.4.4.4.4.1.&.4.4.4.4.*.*.*.@.o.0         ~ 2.4.4.4.4.4.&.3.4.4.4.3.&.&.%.%.X.X.$.&.,.4.4.4.4.4.4.4.1.",
"3.,.,.&.X.X.%.O.$.&.3.4.4.4.4.4.4.4.4.,.4.4.4.,.&.&.%.o.o.#.Q H Y ) 4.4.4.4.4.4.4.1.3.4.4.1.&.&.%.X.%.%.&.&.,.4.4.4.4.4.4.4.4.4.",
",.&.&.o.X.%.&.&.4.4.4.4.4.4.4.4.4.4.4.4.4.4.,.&.&.o.X.o.%.*.3.4.4.4.4.4.4.4.4.4.4.4.4.4.3.&.&.$.X.X.%.&.4.4.4.4.4.4.4.4.4.4.4.4.",
"*.&.X.X.%.,.3.4.4.4.4.4.4.4.4.4.4.4.4.4.4.,.&.&.%.o.o.&.1.4.4.4.4.4.4.4.4.4.4.4.2.4.4.*.&.&.%.X.X.*.1.3.4.4.4.4.4.4.4.4.4.4.4.4.",
"*.X.X.%.&.4.4.4.4.4.4.4.4.4.4.4.4.4.4.,.,.&.&.o.X.O.&.,.4.4.4.4.4.4.4.4.4.4.4.4.3.3.*.&.&.%.X.X.%.1.4.4.4.4.4.4.4.4.4.4.4.4.4.1."
};
