/* XPM */
static char *result[] = {
/* columns rows colors chars-per-pixel */
"64 64 198 2 ",
"   c #7E3D43",
".  c #803F45",
"X  c #84444B",
"o  c #8A454E",
"O  c #89494F",
"+  c #85484E",
"@  c #8D4A52",
"#  c #874D52",
"$  c #934C56",
"%  c #974D58",
"&  c #9B4E5B",
"*  c #8E575D",
"=  c #9D515D",
"-  c #945B61",
";  c #9D5961",
":  c #A35462",
">  c #A25B64",
",  c #AB5867",
"<  c #AC5C6B",
"1  c #A65E69",
"2  c #B75F71",
"3  c #B85D71",
"4  c #9E666C",
"5  c #9C6C72",
"6  c #9F7276",
"7  c #AA636E",
"8  c #B0616F",
"9  c #A66770",
"0  c #AB6571",
"q  c #AC6973",
"w  c #A56A72",
"e  c #B56374",
"r  c #BC6175",
"t  c #BD677A",
"y  c #B76B79",
"u  c #BF687A",
"i  c #AD747B",
"p  c #A3797E",
"a  c #B9727D",
"s  c #B1727D",
"d  c #C7657C",
"f  c #C9667E",
"g  c #C0727E",
"h  c #AA7D82",
"j  c #BE7080",
"k  c #B97883",
"l  c #CC6880",
"z  c #C56D82",
"x  c #D76D88",
"c  c #D96E8A",
"v  c #C07685",
"b  c #CE7387",
"n  c #C37A86",
"m  c #CF7288",
"M  c #CF7F8D",
"N  c #C47E8C",
"B  c #D8768D",
"V  c #CF7C90",
"C  c #DB7991",
"Z  c #E37391",
"A  c #EB7697",
"S  c #ED7A9B",
"D  c #F57B9E",
"F  c #F87B9F",
"G  c #F77DA1",
"H  c #F87CA0",
"J  c #BC8088",
"K  c #B88A8F",
"L  c #AC8C91",
"P  c #B49398",
"I  c #AA8589",
"U  c #BD9DA2",
"Y  c #BCA4A8",
"T  c #C5818E",
"R  c #CF808D",
"E  c #CE8493",
"W  c #C28C94",
"Q  c #CF8A99",
"!  c #D68694",
"~  c #DB8395",
"^  c #DD899D",
"/  c #D6869A",
"(  c #DD909E",
")  c #E1819A",
"_  c #DE8FA2",
"`  c #C99FA5",
"'  c #D397A2",
"]  c #DF98A6",
"[  c #D897A2",
"{  c #E58CA4",
"}  c #EC8AA3",
"|  c #ED85A2",
" . c #F683A4",
".. c #F983A4",
"X. c #F38AA5",
"o. c #FA88A6",
"O. c #F787A8",
"+. c #F987A8",
"@. c #F68CAA",
"#. c #F88CAA",
"$. c #EB95A6",
"%. c #EB95AC",
"&. c #E29BAA",
"*. c #ED9BAC",
"=. c #E795A4",
"-. c #F592AE",
";. c #FA93AD",
":. c #F399AB",
">. c #FA9AAF",
",. c #F696B2",
"<. c #F995B1",
"1. c #F69BB4",
"2. c #FA9CB3",
"3. c #F69FB8",
"4. c #F89FB8",
"5. c #D2A2AB",
"6. c #C9AFB3",
"7. c #C7B9BD",
"8. c #C8B5B9",
"9. c #D1B9BE",
"0. c #D7A9B5",
"q. c #ECABBA",
"w. c #E9A0B3",
"e. c #F4A2B5",
"r. c #FCA2B4",
"t. c #FCA8B7",
"y. c #F5A3BA",
"u. c #FBA5B9",
"i. c #F6A8BE",
"p. c #FCABBC",
"a. c #F5AAB7",
"s. c #E7B4BD",
"d. c #FAB1BF",
"f. c #F2B4BF",
"g. c #F5ACC2",
"h. c #FCAEC1",
"j. c #EFB8CA",
"k. c #EAB8C2",
"l. c #F7B2C5",
"z. c #FCB3C3",
"x. c #F2BBC6",
"c. c #FAB9C6",
"v. c #FCB6C8",
"b. c #F6BBCB",
"n. c #FBBCCA",
"m. c #F0BFD0",
"M. c #D4CBCF",
"N. c #D0C1C5",
"B. c #D4CDD1",
"V. c #DBD7DA",
"C. c #E8C2C9",
"Z. c #F6C2CE",
"A. c #FAC2CE",
"S. c #EFC3D3",
"D. c #EECCD9",
"F. c #F5C4D2",
"G. c #FAC5D1",
"H. c #F7CAD3",
"J. c #FBCBD5",
"K. c #FCCED8",
"L. c #F3CDDB",
"P. c #EBD4DF",
"I. c #F5D3DD",
"U. c #FAD3DC",
"Y. c #F9D8DF",
"T. c #F3DBDF",
"R. c #DEDFE2",
"E. c #ECD6E1",
"W. c #E3DEE4",
"Q. c #EBDCE5",
"!. c #F2D5E0",
"~. c #FAD7E0",
"^. c #F5DCE3",
"/. c #F9DBE2",
"(. c #CEE6ED",
"). c #D1E6ED",
"_. c #D1E8EF",
"`. c #DCEBEF",
"'. c #D5EAF1",
"]. c #DCEDF2",
"[. c #DFF0F4",
"{. c #E5E4EA",
"}. c #EBE5EB",
"|. c #E0ECEF",
" X c #ECEAEE",
".X c #E2E2E7",
"XX c #F5E0E6",
"oX c #F3E4EA",
"OX c #F2EAEE",
"+X c #E2EEF3",
"@X c #EEEDF2",
"#X c #F1EDF1",
"$X c #E4F1F5",
"%X c #EDF4F7",
"&X c #E6F4F8",
"*X c #EAF3F8",
"=X c #F2F1F5",
"-X c #F7F6F9",
/* pixels */
"-X*X*X*X&X%X*X*X*X*X*X*X*X&X].]._.)._.'.].].&X*X*X*X*X*X*X*X*X*X*X*X%X&X].].].(.(._.].].+X*X*X*X*X*X*X*X*X*X*X*X*X*X&X].].].(.'.",
"*X*X*X*X%X&X*X*X*X*X*X*X*X].].'.(.).].[.$X%X*X*X*X*X*X*X*X*X*X*X*X*X&X+X].].(.(.'.].$X*X*X*X*X*X*X*X*X*X*X%X*X*X%X+X].]._.(.(.'.",
"*X*X*X*X&X%X%X&X*X*X*X%X%X$X].].`.+X*X%X*X-X%X%X%X%X%X%X=XXX#X=X%X=X=X&X+X].].].$X%X=X*X%X=X*X%X%X%X%X*X%X&X&X&X*X$X].'.(.(.].[.",
"*X*X*X*X%X&X&X%X*X*X=X*X&X+X].].|.+X*X%X=X*X%X%X%X%X%X=X#XU.K./.XXU.OX+X+X].}.^.U.K.#X=X%X*X%X%X-X*X-X%X%X&X%X&X$X].]._.'.].$X&X",
"*X*X*X*X*X*X%X&X%X=X%X$X+X+X].].$X&X%X%X%X%X%X=X=XOXXXU.U.U.K.oXK.K.^.K.n.{.^.U.K.K.~.#X%X%X%X%X%X%X%X&X%X%X%X$X].].].(.].].$X&X",
"*X*X*X*X*X*X$X%X%X&X*X$X$X`.`.`.=X&X*X%X%X*X=X#XU.U.U.U.J.U.J.U.J.U.G.c.Z.F.J.K.K.K.K./.%X%X%X*X%X%X%X$X%X%X&X[.].].(.(.].$X].$X",
"*X*X*X*X*X-X*X%X%X&X$X$X+X`.+X$X%X%X%X%X%X%X~.K.J.n.G.K.K.J.z.J.z.n.v.A.v.z.n.K.K.K.K.K.#X=X%X%X%X%X%X%X%X%X$X$X].].(.].].*X*X*X",
"*X*X*X*X*X%X%X%X%X$X$X$X].`.].%X%X%X%X%X=X~./.n.A.z.z.J.U.U.G.n.z.U.v.n.h.h.J.J.n.n.z.G.K.oX=X%X%X%X%X-X%X&X$X$X&X[._.].*X*X*X*X",
"*X*X*X%X%X=X%X%X%X$X$X].`.`.+X=X=X%X=XXXU.U.z.t.p.v.n.U.h.h.n.J.v.n.z.n.z.J.K.n.n.z.K.n.v.n.J.#X%X%X%X%X%X$X$X$X[.].$X&X*X*X*X*X",
"*X*X%X-X%X%X%X$X$X$X].`.`.&XOX#XoX/.Y.K.J.A.r.n.v.G.n.z.z.K.K.n.h.z.h.v.h.n.h.h.U.z.n.v.z.h.U.%X%X%X%X*X$X$X$X].].].*X*X%X%X*X*X",
"*X*X%X%X%X*X$X$X$X$X`.`.oX/.J.J./.U.J.U.z.t.u.G.h.p.p.v.h.J.v.n.h.h.h.h.p.r.h.G.n.z.h.z.z.z.v.OX%X%X%X&X$X$X$X`.].$X*X=X*X=X*X*X",
"*X%X%X%X%X%X$X$X$X[.`.$XU.A.z.n.Y.Y.n.J.n.A.t.p.p.p.r.h.h.v.z.h.n.v.z.G.t.r.r.t.h.v.n.z.n.h.h.U.XXXXOX$X$X$X$X].$X$X%X%X%X%X%X*X",
"*X%X%X%X%X$X$X$X].}.U.G.z.A.U.z.K./.A.c.z.r.r.r.u.p.r.n.l.v.z.a.z.c.z.n.n.u.r.c.u.h.h.t.r.r.p.v.K.J.U.XX+X$X`.`.%X*X-X%X%X%X%X%X",
"*X%X%X%X$X+X$X+X}.K.G.z.h.z.n.A.U.A.n.z.A.r.r.r.2.A.z.z.t.c.F.( r.J.G.h.z.A.r.r.u.z.t.r.r.t.h.z.J.J.J.K.XX].`.+X%X*X*X*X%X%X%X%X",
"%X%X&X$X+X+X].`.^.J.n.v.h.z.h.n.U.J.c.H.r.n.d.r.p.r.r.G.c.h.] $.r.b.p.p.h.J.r.r.r.r.r.r.p.G.n.z.J.U.G.U.J.U. X$X%X%X%X-X%X%X-X%X",
"%X&X$X$X].`.].+X~.G.n.z.z.G.z.G.J.A.t.c.r.t.Y.c.Z.v.c.t.c.z.n r.r.r.c.z.n.z.u.z.2.r.r.r.r.p.h.n.A.z.A.c.A.I.U.%X%X%X%X%X%X%X*X*X",
"$X$X$X].`.`.$XXXK.n.A.G.h.n.z.G.G.n.c.G./.d.U.d.c.n.z.H.n.r.r O.<.t.z.A.n.c.H.A.n.r.r.r.r.r.t.n.z.z.G.z.z.G.K.G.U.^.=X%X=X%X%X%X",
"$X$X`.].].$X&X%XU.A.z.G.z.U.p.t.p.n.n.h.z.A.d.t.z.A.z.z.p.e.3 F 2.d.z.n.n.z.Y.r.c.z.2.r.p.r.r.z.z.A.u.r.n.z.G.v.n.G.J./.%X*X%X%X",
"$X].`.`.$X%X%XoXK.J.z.z.z.d.z.z.p.z.G.z.t.r.F.t.A.>.t.t.r.*.r ..p.t.r.t.A.d.n.d.t.r.A.I.t.r.2.r.r.r.r.r.p.p.z.z.z.h.h.n.XX~.#X%X",
"].`.`.$X*X%X=X%XOXK./.XXv.2.z.t.u.z.h.h.l.r.t.t.b.b.r.t.a.w.r D c.K.r.c.-.2.H.p.d.t.t.z.t.r.r.r.p.t.h.p.2.p.h.h.h.z.z.v.J.~.=X*X",
"`.].[.%X%X%X=X=X=XoXU.K.z.r.<.S ;.n.d.u.t.t.g.n.r.c.r.A.r.>., M d.r.:.s. .u.z.XXH.r.t.A.d.t.t.<.K.b.A./.n.z.G.J.z.z.n.J.K.U.@X$X",
"+X[.%X%X%X^.J.J.J.J.K.K.H.c.o.c ;.r.H.2.r.l.1.r.p.r.z.r.c.r.: v H.d.5.=.b.t.u.Z.U.>.r.t...+._ ,.i.H.Y.J.v.J.G.U.J.z.G.K.^.&X$X$X",
"%X%X=X%X/.U.A.A.z.z.z.z.z.t.r.X.m H +.o.;.F G ;.n.r.r.c.r.t.7 7 Z.o.a r.e.v.u.p.G u.d.>. .' q.1.h.2.c.z.r.n.t.z.h.v.A.+X$X$X`.`.",
"%X%X=XOXK.J.z.A.z.n.t.h.H.z.r.t.5.) i.;.c.;.i.H.t.r.r.r.;.x.( X #.{ K ^ @.u.a.r.o...a.>.| ` <.c.b.t.u.r.c.p.v.n.z.G.I.$X].].`.].",
"%X%X%XOXK.A.h.J.d.t.z.t.A.z.p.r.u.q } -.w.H.z.A.c.t.t.>.| F ;.X E o a } 1.r.d.a.>.H.d.;.e  . .;.t.r.>.r.d.c.z.n.z.U.~.$X].`.].$X",
"%X=X%X=XU.J.v.p.t.z.z.r.r.d.c.r.h.e., -.( >.;.Y.d.r.H.>.b o.X.$ # T } X.a.r.r.r.t.H.Z.u Z >.z.p.p.r.c.r.p.r.p.K.h.z.n.Q.{.|.$X%X",
"%X%X%X%X%XoXK.z.p.d.2.A.;.@.-.r.d.n.} 0 T t.>.>.d.t.s.! g =.X.% <  . .>.r.r.r.t.l.Y.' f F G #.#.t.r.r.r.H.t.A.p.z.z.n.h.z.G.#X%X",
"%X=X%X%X=X=X XK.t.r.;.l.F o.b.b.Y.d.b.j.p 5.&.s.Z.t.t.E = y X.% f G D >.t.r.d.d.R C e #.Z. .4.#.A.r.r.p.t.t.r.>.p.h.v.v.G.J.U.%X",
"%X=X#XU.J.U./.G.d.r.>.#.;.#.q.C.Z.r.H.H.T.K h i r.e.r.>.*.q e % / F ..r.:.r.r.M ; q i.1.c.F.Y.r.t.r.d.A.r.r.p.r.z.r.z.n.J.K.U.=X",
"%XU.U.A.h.z.z.z.z.z.4.1.l.o.-.~ W q.T.Z.T.c.( O 7 e.r.r.r.r.<   %.F >.~ =.H.n X j l.g.H l.d.p.z.r.r.>.>.2.r.z.r.z.p.p.p.z.G.G.%X",
"%XOXd.z.h.h.h.z.t.r.p.u.;.e.x. .) a k x.a.H.d.$.i O B d.>.F Z   S o.! 7 C 9 = Z v. .1.;.D ;.>.n.v.r.<.u.+.p.d.t.H.t.u.u.i.#.b.*X",
"%X=Xc.r.r.z.h.U.r.h.p.;.@. .X.S B g * o > W T a J 7   7 w...S   S ;.j @ . y y.@.l.H <.@.l.2.@.<.t.;.y.H #.t.t.#.2.u.u...+...oX%X",
"%X%X@X:.;.;.4.p.>.o...........H H O.| S _ 2 $ l l u >   X x H o A a.4   # 9 s 0 0 3 Q G 3.H G #.c.G #.H n.,.1...o.u.#.<.Q.#X*X%X",
"%X%X%XI.@.O.o.-.G F ;.....G ..H .... .O.w.z O.G ;.H ,.C o . f . A l   i %.3.g.4.#.#.4.H ,.H H ..G H ..4.1.+.#.;...F O.!.=X%X*X*X",
"*X%X@X%X*XP.X.G F F F ..F F <.H H ,.H g.O...G G H H g.O.&.o . . c o 9 O.b.i.A.,.#...b.H g.<.G <.+.H H ..D D H F G u.#X%X%X%X%X*X",
"@X%X*X*X$X+X$XS.F F F F ..F H F H H #.H H H H H H +.H H ..2     o . { z.G <.<.H +...G ,.<.H H H i...m.E.g.i.j.F.Q.%X%X%X%X*X*X*X",
"%X%X*X+X$X$X].`..XD.-.F !.OXF.G H H H H H H H H H H #.H H { .     : +...#.<.1.1.H 4.H H 1.,.F.G +.m.+X+X`.`.].$X*X%X%X%X%X*X*X*X",
"%X*X$X$X].].`.`.+X$X}.oX-X%X@XF.H ,.H ,.H G H H H H H H H H o .   l ....G g.#.#.O.G H H H G #.H <.].`.].`.].+X%X%X%X%X*X%X*X*X$X",
"$X$X$X+X`.`.].$X&X*X*X%X%X%XI...H 1.H ,.H 3.H H H H H H #.H :     S g.4.H #.G <.#...H -.<.H F g.+X`.].+X].+X*X%X*X*X*X*X*X*X*X&X",
"[.[.|.`.].$X%X%X=X%X%X%X%X%X*X=X!.H H b.,.#.,.H u.G H H ;.H r   @ H H l.H n.G G H #.H H ,.g.P.`.`.].+X+X%X%X*X*X*X*X*X*X*X*X*X*X",
"[.`.(.(.[.*X%X%X*X%X%X%X-X*X%X%X%XoXg.+...1.#.H F -.O.H H H l . & H H H G <.-.4...,. .,.Q.Q.].].].+X%X*X*X*X*X*X*X*X*X*X*X*X*X*X",
"_.(.(.].[.&X%X%X%X%X%X%X%X%X%X%X*X*X X,.H ,...b.H o.G 3.G O.x   : H H H G ^.g.u.H g.E.+X+X`.].].+X+X*X*X*X*X*X*X*X*X*X*X*X*X*X+X",
"(.(.[.[.&X*X*X*X*X&X%X%X%X%X%X%X%X%X&X1.H H G g.F O.F y.#Xm.c   w 3.G -.,.m. .@.i.D.+X+X].`.].+X+X*X*X*X*X*X&X*X*X*X*X*X*X*X[.[.",
"(.'.[.&X*X*X*X*X*X].*X*X%X%X-X*X%X*X+X}.`.W.y.H G O.,.oX%XI.0.  h m.g.L.#X&X@X X+X{.].].].].].*X*X*X*X*X*X&X].*X*X*X*X*X&X].].'.",
"*X*X*X*X*X*X*X*X*X*X*X*X*X*X&X[.+X].].].].+X+X=X#X#X=X%X%X%XV.  6 @X@X%X*X+X+X].].'.].].+X+X*X*X*X*X*X*X*X*X*X*X*X*X&X].].'.(.(.",
"*X*X*X*X*X*X*X*X*X*X*X*X*X&X].].).).].+X+X*X%X=X%X%X*X%X%X%XM.  * *X%X*X&X$X+X`.`.+X+X+X+X*X*X*X*X*X*X*X*X*X*X*X*X&X].].'.(.(.'.",
"*X*X*X*X*X*X*X*X*X*X*X*X*X[.].(.(.(.].&X%X%X*X*X%X%X*X=X=X%XN.  + =X*X*X+X+X].`.+X+X*X*X*X*X*X*X*X*X*X*X*X*X*X*X*X&X].].(.(.).].",
"*X*X*X*X*X*X*X*X*X*X*X*X*X[.(.(.(.].&X*X*X%X%X%X%X%X%X%X%X%X8.    *X*X*X+X].].+X+X*X*X*X*X*X*X*X*X*X*X*X*X*X*X*X&X&X].(.(.).].$X",
"*X*X*X*X*X*X*X*X*X*X*X&X[.].(._.].[.*X*X*X*X*X%X%X%X%X%X%X%XY .   {.&X$X+X].+X+X*X*X*X*X*X*X*X*X*X*X*X*X*X*X*X&X$X].].(.'.].$X*X",
"*X&X*X*X*X*X+X&X*X*X&X].].(.(.(.[.$X$X*X*X*X*X*X%X%X%X%X%X*XP     P.+X+X].].*X&X$X*X*X*X*X*X*X*X*X*X*X+X*X*X&X&X].]._.(.'.[.$X$X",
"*X*X*X*X*X*X+X$X*X*X$X].].(._._.*X$X$X*X*X*X*X*X%X%X-X*X*X$Xh     B.$X].`.].*X+X].*X*X*X*X*X*X*X*X*X&X].&X*X[.[.].'.(.(.].&X].$X",
"*X*X*X*X*X*X*X*X+X+X].].].(.'.[.*X*X*X*X*X*X*X*X%X%X%X%X%X*X*     7.+X].+X+X%X*X*X*X*X*X*X*X*X*X*X*X*X*X*X[.[.].].].(.'.[.*X*X*X",
"*X*X*X*X*X*X*X&X&X[.].].(.(.].&X$X*X*X*X*X*X*X*X*X%X%X%X%X%XX     Y `.`.+X*X*X%X*X*X*X*X*X*X*X*X*X*X*X*X*X+X].].).(.(.].*X*X*X*X",
"*X*X*X*X*X*X&X&X&X].'.(.(._.].&X*X*X*X*X*X*X*X*X%X%X*X-X%X@X      L '.`.+X%X=X*X*X*X*X*X*X*X*X*X*X*X*X*X*X].].(.(.(.'.$X*X*X*X*X",
"*X*X*X*X*X*X*X&X].]._.(.(.[.*X*X*X*X*X*X*X*X*X*X*X%X%X%X%XR.      5 ].$X%X%X*X*X*X*X*X*X*X*X*X*X*X*X*X$X].].].(.(.).*X*X*X*X*X*X",
"*X*X*X*X*X*X$X].].].(._.[.&X*X*X*X*X*X*X*X*X*X*X*X*X%X%X*XB.      # $X$X%X%X*X*X*X*X*X*X*X*X*X*X*X*X*X].].].].(.'.[.*X*X*X*X*X*X",
"*X*X*X*X&X&X].].].'.(.'.[.*X*X*X*X*X*X*X*X*X*X*X*X*X=X+X$X7.        $X%X%X%X%X%X*X*X*X*X*X*X*X*X*X$X].].].'.(.(.].$X*X*X*X*X*X*X",
"*X*X*X&X[.].].].'.(._.].&X*X*X*X*X*X*X*X*X*X*X*X*X*X&X*X+XU         .X%X=X%X%X%X*X*X*X*X*X*X*X&X$X].].].].(.(.'.].*X*X*X*X*X*X*X",
"*X*X*X[.].].].).(.(.'.[.*X*X*X*X*X*X*X*X*X*X*X*X*X$X].+X$XI         B.=X=X%X&X%X*X*X*X*X*X*X*X&X[.].].'.).).).].$X*X*X*X*X*X*X*X",
"*X*X$X].'.(.).(.(.].].&X*X*X*X*X*X*X$X].*X*X*X*X$X].].].@X5         6.-X-X%X%X&X$X$X$X*X*X*X$X[.].'.).(.(.'.].+X*X*X*X*X*X*X*X+X",
"$X$X[.'.(.(.'._.'.].&X*X*X*X*X*X*X*X$X$X*X*X*X[.].].'.(.].W.6.U U 9.#X#X=X%X&X%X*X$X&X*X&X$X].].'.(.(.'.].].+X*X*X*X*X*X*X*X*X$X",
"+X].].(.(.(.].[.*X*X*X*X*X&X*X*X*X*X*X*X*X*X$X].]._.(.(.'.[.&X*X%X*X%X*X%X%X*X*X*X*X*X*X$X].].'.(.(.'.[.$X*X*X*X*X*X*X*X*X*X*X*X",
"$X'.(.(.'.$X$X*X*X*X*X*X*X*X*X*X*X*X*X*X*X[.[.].(.(.(.].$X*X*X*X*X*X*X*X*X*X*X*X*X*X*X[.].].'.(.(.$X+X$X*X*X*X*X*X*X*X*X*X*X*X*X",
"$X(.(.'.].*X*X*X*X*X*X*X*X*X*X*X*X*X*X$X[.].]._.(.(.].&X*X*X*X*X*X*X*X*X*X*X*X*X&X$X[.].].'.(.(.'.$X*X*X*X*X*X*X*X*X*X*X*X*X*X*X"
};
