/* XPM */
static char *result[] = {
/* columns rows colors chars-per-pixel */
"64 64 143 2 ",
"   c #15163C",
".  c #372246",
"X  c #3D2246",
"o  c #59006F",
"O  c #5B007B",
"+  c #F30025",
"@  c #FF042D",
"#  c #FF133A",
"$  c #FF1840",
"%  c #FF345A",
"&  c #FF3C63",
"*  c #FF567C",
"=  c #003C97",
"-  c #5F0080",
";  c #3E6AA8",
":  c #4A75B4",
">  c #1807DE",
",  c #1906EB",
"<  c #0400F8",
"1  c #0C00FC",
"2  c #0E0AFF",
"3  c #1806FD",
"4  c #170FFF",
"5  c #1D11FF",
"6  c #271BFF",
"7  c #2D2DFF",
"8  c #3222FF",
"9  c #372FFF",
"0  c #382DFF",
"q  c #2E32FF",
"w  c #3030FF",
"e  c #333BFF",
"r  c #3F3BFF",
"t  c #4D33C9",
"y  c #364AFF",
"u  c #3650FF",
"i  c #4543FF",
"p  c #464AFF",
"a  c #4949FF",
"s  c #514DFF",
"d  c #5058FF",
"f  c #4B69FF",
"g  c #5860FF",
"h  c #5C68FF",
"j  c #5177FF",
"k  c #5F7EFF",
"l  c #607CFF",
"z  c #8D038A",
"x  c #9E1287",
"c  c #9E1389",
"v  c #A0198A",
"b  c #60B9BC",
"n  c #63B3B5",
"m  c #7591B1",
"M  c #3F85FE",
"N  c #3DB8F5",
"B  c #79A8DC",
"V  c #70B3DF",
"C  c #5F94E4",
"Z  c #4A82FF",
"A  c #5A94FF",
"S  c #5F98FF",
"D  c #6D84FF",
"F  c #7186FF",
"G  c #738DFF",
"H  c #7B96FF",
"J  c #5EA8E1",
"K  c #5CB0E9",
"L  c #5AACFC",
"P  c #56ABF4",
"I  c #55B7FD",
"U  c #43B8F9",
"Y  c #60A9E2",
"T  c #62B3EB",
"R  c #6EA4FF",
"E  c #70A2FF",
"W  c #63B0FD",
"Q  c #79BFFE",
"!  c #9B8CA7",
"~  c #8B90A7",
"^  c #9495AB",
"/  c #9E99AE",
"(  c #9897AC",
")  c #8295B8",
"_  c #A08CA4",
"`  c #A891AF",
"'  c #A29FB0",
"]  c #A4A1B3",
"[  c #A29DC8",
"{  c #8BAFC8",
"}  c #9BB5CD",
"|  c #87ABFF",
" . c #83B4FF",
".. c #8CB7FF",
"X. c #86BAFF",
"o. c #BBB5FF",
"O. c #FF9ACF",
"+. c #CFADFF",
"@. c #ACC1C7",
"#. c #BDC4C9",
"$. c #84C6F3",
"%. c #9CCDFF",
"&. c #99D0FF",
"*. c #B9C8FF",
"=. c #A9D4FF",
"-. c #ADD9FF",
";. c #BBD4FF",
":. c #B2DAFF",
">. c #BDE3FF",
",. c #C5CDD1",
"<. c #C3CFD8",
"1. c #D0D4DB",
"2. c #C5DCE3",
"3. c #CCDDE3",
"4. c #D4DCE1",
"5. c #CEE6ED",
"6. c #CBE3E9",
"7. c #D9E1E6",
"8. c #D1E7EE",
"9. c #DCE6EA",
"0. c #D2E8EF",
"q. c #DCE9EE",
"w. c #D1E0E6",
"e. c #C3E4FF",
"r. c #C9E7FF",
"t. c #C5ECFF",
"y. c #CCEAFF",
"u. c #D5EAF1",
"i. c #DBEEF4",
"p. c #D2E7F0",
"a. c #CBF0FF",
"s. c #CEF8FF",
"d. c #DFF0F5",
"f. c #D3F4FF",
"g. c #D4FAFF",
"h. c #E2EAEF",
"j. c #E2EEF3",
"k. c #E4F1F6",
"l. c #E8F2F7",
"z. c #E5F3F9",
"x. c #EAF3F8",
"c. c #E9FFFF",
"v. c #F4FEFE",
/* pixels */
"v.x.x.x.x.x.x.x.x.x.x.x.x.l.i.i.0.5.0.u.i.i.z.l.l.z.1._ v x x v v x v v ! <.8.8.6.8.i.u.l.x.x.x.x.x.x.x.x.x.x.x.x.l.d.i.i.i.5.0.",
"x.x.x.x.x.x.x.x.x.x.x.x.x.i.i.0.5.5.i.i.h.h.7.7.h.h.` z o O O O - - O o z ! 2.3.2.2.7.l.x.x.x.x.x.x.x.x.x.x.x.x.l.l.d.d.8.5.5.i.",
"x.x.x.x.x.x.x.x.x.x.x.x.l.d.0.8.5.i.q.7.#.B J T } ,.) Z =   X . . .   = Z m @.{ K J B #.7.j.l.x.x.x.x.x.x.x.l.l.x.k.i.0.5.5.i.k.",
"x.x.x.x.x.x.x.x.x.x.x.k.d.d.8.8.0.3.#.V Z q 6 5 u U : l G : n b b n ; H k : N y 5 6 7 Z V #.7.k.x.x.x.x.x.x.x.z.z.d.i.8.8.i.j.l.",
"x.x.x.x.x.x.l.x.l.l.l.i.i.0.8.8.w.$.Q t.y.e 4 1 F c.>.e.;.t.e.e.e.e.e.e.e.>.c.F 1 5 e y.r.Q $.9.x.x.x.l.l.x.z.l.i.i.i.5.i.i.k.x.",
"x.x.x.x.x.x.j.j.l.z.k.i.i.5.5.8.4.W e.>.%.h s p G >.t.e.e.e.t.t.t.e.e.e.e.e.>.G i s h %.e.r.W 4.x.x.l.q.l.x.k.i.i.i.5.5.q.l.i.l.",
"x.x.x.x.x.x.x.x.l.d.i.i.i.5.u.d.4.I r.=.A f.v.v.&.R y.e.s.g.* # # * g.s.e.y.R &.v.c.f.A -.t.I 4.x.x.x.x.x.z.i.i.i.i.5.i.i.x.l.x.",
"x.x.x.x.x.x.x.x.z.d.i.d.8.8.0.z.1.I e.e.=.p 0 8 F y.a.*.& % # @ @ # % & *.a.t.D 8 0 p =.e.e.I 4.x.x.x.x.x.l.d.i.d.u.5.i.l.x.x.x.",
"x.x.x.x.x.x.x.z.z.d.d.5.5.5.i.l.7.I >.y.y.w 2 < D c.y.o.# @ # # # # @ # o.y.c.F < 2 q y.y.e.I 4.x.x.x.x.l.d.i.d.u.5.i.k.z.x.x.x.",
"x.x.x.x.x.x.x.d.d.d.u.5.5.z.x.x.1.L t.>.%.g a i G >.t.>.;.t.% + + & t.;.>.r.>.G i p g %.>.t.L 1.x.x.x.z.d.i.i.u.5.8.z.x.x.x.x.x.",
"x.x.x.x.x.z.d.i.i.d.5.u.i.z.x.x.7.P ;.:.S f.v.v.%.R y.e.t.t.+.O.O.+.a.t.e.y.R &.v.v.f.S :.>.P 4.x.z.z.d.i.i.i.5.u.i.z.x.x.x.x.x.",
"x.x.x.x.x.k.i.i.i.5.5.u.i.z.x.x.7.C ..y.-.d r 0 H f.f.y.y.y.f.f.g.f.y.y.y.y.f.H 0 r d -.a...C 7.x.z.k.d.u.d.i.5.d.d.l.x.x.x.x.x.",
"x.x.x.x.k.i.i.d.p.5.5.i.z.x.x.l.h.[ t j f 3 , > 7 | $. . .X. .Q  . . .|  . .| 7 > , 3 f j t [ q.l.j.i.i.i.i.5.5.i.x.x.x.x.x.x.x.",
"x.x.x.d.d.d.i.u.5.5.i.i.x.x.x.l.j.9.,.' ' ' ] ] / ( ( ( ^ ^ ~ ~ ~ ( / / / / ` ' ' ' ' / ] ,.9.h.j.i.i.i.i.8.5.0.k.x.x.x.x.x.x.x.",
"x.x.k.i.i.p.u.5.5.p.i.x.x.x.x.x.x.x.j.9.h.j.j.j.h.8.p.8.5.w.2.6.8.q.j.h.j.h.j.j.k.h.h.j.j.l.l.z.d.d.i.u.8.8.i.i.l.x.x.x.x.x.x.x.",
"z.d.i.i.8.5.5.8.u.i.j.x.x.x.x.x.x.x.l.j.x.x.x.j.i.i.8.8.8.8.p.i.x.x.x.x.x.x.x.x.l.k.l.l.x.l.k.q.i.p.5.p.0.i.i.x.x.x.x.x.x.x.x.k.",
"i.i.i.5.5.8.i.k.x.x.x.x.x.x.x.x.x.x.x.x.x.x.l.i.i.0.5.6.u.f.k.x.x.x.x.x.x.x.x.x.x.x.x.z.l.i.i.d.p.5.u.i.k.x.x.x.x.x.x.x.x.x.x.x.",
"i.i.8.5.p.i.k.x.x.x.x.x.x.x.x.x.x.x.x.x.x.j.i.i.u.5.0.i.k.l.x.x.x.x.x.x.x.x.x.x.x.x.x.z.i.d.i.u.5.u.i.l.x.x.x.x.x.x.x.x.x.x.x.x.",
"i.u.5.5.i.x.x.x.x.x.x.x.x.x.x.x.x.x.x.z.k.i.i.u.5.5.i.l.x.x.x.x.x.x.x.x.x.x.x.x.x.l.d.d.i.i.u.8.5.i.x.x.x.x.x.x.x.x.x.x.x.l.x.x.",
"u.5.8.i.j.x.x.x.x.x.x.x.x.x.x.x.x.x.j.i.i.i.5.5.6.i.i.l.x.x.x.x.x.x.x.x.x.x.x.z.k.i.i.i.d.u.5.8.i.k.x.x.x.x.x.x.x.x.x.x.x.l.z.k.",
"5.5.u.l.x.x.x.x.x.j.l.x.x.x.x.x.x.k.i.i.8.5.5.5.8.l.l.x.x.x.x.i.k.x.x.x.x.x.x.k.i.d.i.8.8.5.d.i.l.x.x.x.x.l.q.l.x.x.x.x.x.z.k.i.",
"u.u.l.x.x.x.x.x.x.j.z.x.x.x.z.j.d.u.u.u.5.p.u.u.z.x.x.x.x.x.x.l.l.x.x.x.x.k.l.d.u.u.5.5.u.d.z.z.x.x.x.x.l.l.j.x.x.x.x.k.l.d.i.i.",
"x.x.x.x.x.x.x.x.x.x.x.x.x.z.i.i.u.p.5.p.p.u.d.x.x.x.x.x.x.x.x.x.x.x.x.x.z.i.i.5.5.u.u.u.i.z.x.x.x.x.x.x.x.x.x.x.x.x.z.i.u.d.6.5.",
"x.x.x.x.x.x.x.x.x.x.x.x.x.i.i.i.5.p.p.i.z.x.x.x.x.x.x.x.x.x.x.x.x.x.x.k.d.i.5.5.5.d.d.x.x.x.x.x.x.x.x.x.x.x.x.x.l.k.u.d.d.8.5.u.",
"x.x.x.x.x.x.x.x.x.x.x.x.x.i.i.5.5.p.i.i.x.x.x.x.x.x.x.x.x.x.x.x.x.x.x.j.i.5.5.p.i.d.l.x.x.x.x.x.x.x.x.x.x.x.x.x.x.k.i.u.5.5.0.d.",
"x.x.x.x.x.x.x.x.x.x.x.x.i.i.u.5.p.i.k.x.x.x.x.x.x.x.x.x.x.x.x.x.x.x.l.j.u.5.8.d.d.x.x.x.x.x.x.x.x.x.x.x.x.x.x.x.z.d.d.8.5.0.d.z.",
"x.x.x.x.x.x.l.x.x.x.x.i.i.i.p.8.i.j.x.x.x.x.x.x.x.x.x.x.x.x.x.x.x.l.i.i.8.5.d.d.l.x.x.x.x.x.x.x.x.x.l.x.x.x.l.l.d.d.i.5.0.i.z.l.",
"x.x.x.x.x.x.i.k.x.x.k.i.i.8.5.8.z.i.k.x.x.x.x.x.x.x.x.x.l.i.x.x.l.i.i.0.5.5.i.d.d.x.x.x.x.x.x.x.x.x.l.d.l.x.z.d.i.u.5.5.k.z.i.l.",
"x.x.x.x.x.x.l.l.x.i.i.i.i.5.8.u.x.z.x.x.x.x.x.x.x.x.x.x.x.j.x.z.d.i.d.8.8.u.k.z.k.l.x.x.x.x.x.x.x.x.x.l.z.x.k.u.i.d.5.5.k.z.k.l.",
"x.x.x.x.x.x.x.x.l.i.i.d.u.5.i.i.x.x.x.x.x.x.x.x.x.x.x.x.x.x.x.j.i.i.i.5.8.d.l.l.x.x.x.x.x.x.x.x.x.x.l.l.x.k.i.d.u.8.5.d.z.l.l.l.",
"x.x.x.x.x.x.x.x.k.u.d.u.5.5.q.x.x.x.x.x.x.x.x.x.x.x.x.x.x.x.x.j.i.0.5.5.5.x.x.x.x.x.x.x.x.x.x.x.x.x.x.x.x.k.d.d.8.5.8.z.l.x.x.x.",
"x.x.x.x.x.x.x.l.i.d.u.5.5.d.z.x.x.x.x.x.x.x.x.x.x.x.x.x.x.x.j.k.i.5.5.i.i.x.x.x.x.x.x.x.x.x.x.x.x.x.x.x.d.d.u.8.5.8.z.l.x.x.x.x.",
"x.x.x.x.l.z.d.i.i.i.8.8.0.k.x.x.x.x.x.x.x.x.x.x.x.x.x.x.z.d.i.i.8.5.5.d.l.x.x.x.x.x.x.x.x.x.x.x.x.x.x.k.i.i.u.5.5.i.l.x.x.x.x.x.",
"x.x.x.x.x.z.d.i.i.i.5.u.i.x.x.x.x.x.x.x.x.x.x.x.x.x.x.x.k.i.i.d.8.8.d.k.l.x.x.x.x.x.x.x.x.x.x.x.x.x.d.i.d.d.u.5.u.d.x.x.x.x.x.x.",
"x.x.l.x.k.i.d.i.i.5.8.i.x.x.x.x.x.x.x.x.x.x.x.x.x.x.z.d.d.i.i.p.5.p.z.l.x.x.x.x.x.x.x.x.x.x.x.x.x.d.i.i.d.q.5.5.i.z.l.x.x.x.x.x.",
"x.x.z.k.d.i.d.u.5.5.0.i.x.x.x.x.x.x.x.x.x.x.x.x.x.z.d.i.i.i.5.5.8.d.z.z.x.x.x.x.x.x.x.x.x.x.x.x.d.i.i.i.0.5.5.0.d.l.l.l.x.x.x.x.",
"x.l.l.i.d.u.u.5.5.p.d.d.x.x.x.x.x.x.x.x.x.x.x.x.x.z.i.i.u.u.0.p.i.d.x.x.x.x.x.x.x.x.x.x.x.x.x.i.i.i.i.u.5.5.0.d.z.x.x.x.x.x.x.x.",
"x.x.i.i.u.5.5.5.p.d.l.l.x.x.x.x.x.x.j.i.z.x.x.x.z.i.p.5.5.5.p.d.d.x.x.x.x.x.x.x.x.i.k.x.x.x.d.i.u.5.5.5.5.5.d.l.x.x.x.x.x.x.l.k.",
"d.i.i.u.5.5.0.i.i.x.z.l.x.x.x.x.x.x.x.l.x.x.z.z.i.i.5.5.8.u.i.l.k.l.x.x.x.x.x.x.x.z.x.x.z.i.i.i.5.5.8.u.i.d.z.l.x.x.x.x.x.x.l.l.",
"d.d.u.5.8.d.z.l.x.x.x.l.x.x.x.x.x.x.x.x.x.z.z.i.u.5.5.i.i.d.z.x.x.l.x.x.x.x.x.x.x.x.x.x.d.i.i.8.5.8.u.k.z.l.z.l.x.x.x.x.x.x.x.l.",
"i.u.5.5.i.z.x.x.x.x.x.x.x.x.x.x.x.x.x.x.x.k.i.i.5.5.u.k.z.x.l.l.x.x.x.x.x.x.x.x.x.l.x.l.i.i.5.5.5.i.x.x.x.x.x.x.x.x.x.x.x.x.x.x.",
"u.5.5.i.i.z.x.x.x.x.x.x.x.x.x.x.x.x.x.k.i.i.u.5.5.0.d.z.x.x.l.l.x.x.x.x.x.x.x.x.x.k.i.d.i.5.5.5.q.d.x.x.x.x.x.x.x.x.x.x.x.x.l.k.",
"5.5.d.d.z.x.x.x.x.k.x.x.x.x.x.x.x.x.i.i.u.0.5.5.u.z.x.x.x.x.z.k.l.x.x.x.l.l.l.z.d.d.u.p.5.5.8.i.d.l.x.x.x.x.z.l.x.x.x.x.l.l.k.d.",
"5.p.d.x.x.x.x.x.x.d.x.x.x.x.x.x.x.j.u.u.5.5.8.p.k.x.x.x.x.x.x.k.k.x.x.x.l.z.z.d.u.u.5.5.8.8.i.x.l.l.x.x.x.l.k.x.x.x.x.l.l.d.q.0.",
"x.x.x.x.x.x.x.x.x.x.x.x.x.x.z.i.i.5.5.5.5.u.i.x.x.x.x.x.x.x.x.l.z.l.l.l.k.d.d.p.5.5.5.8.i.j.x.x.x.x.x.x.x.x.x.x.l.z.z.i.d.u.5.5.",
"x.x.x.x.x.x.x.x.x.x.x.x.x.z.i.i.5.5.p.i.d.k.z.x.x.x.x.x.x.x.x.x.l.l.l.z.d.d.i.5.5.u.i.i.l.x.x.x.x.x.x.x.x.x.x.x.l.l.i.d.u.5.8.0.",
"x.x.x.x.x.x.x.x.x.x.x.x.x.d.i.5.5.5.i.d.x.x.x.x.x.x.x.x.x.x.x.x.x.x.x.z.u.i.5.5.u.d.l.x.x.x.x.x.x.x.x.x.x.x.x.x.x.l.i.q.5.6.0.q.",
"x.x.x.x.x.x.x.x.x.x.x.x.x.i.5.5.5.i.z.x.x.x.x.x.x.x.x.x.x.x.x.x.x.x.l.k.u.5.5.u.d.z.x.x.x.x.x.x.x.x.x.x.x.x.x.x.x.z.d.5.5.5.d.z.",
"x.x.x.x.x.x.x.x.x.x.l.l.d.i.5.8.i.k.l.x.x.x.x.x.x.x.x.x.z.l.l.x.x.z.d.d.i.p.i.i.x.x.x.x.x.x.x.x.x.x.x.x.x.x.x.x.z.d.d.5.u.i.k.l.",
"x.x.x.x.x.x.j.k.x.x.l.i.i.5.5.8.j.k.l.x.x.x.x.x.x.x.x.x.l.k.x.x.z.d.d.u.p.5.i.i.j.x.x.x.x.x.x.x.x.x.l.l.x.l.l.z.d.i.8.5.u.i.d.x.",
"x.x.x.x.x.x.i.l.x.l.k.i.d.5.5.8.x.j.k.x.x.x.x.x.x.x.x.x.k.k.l.l.i.i.d.5.5.p.k.j.i.x.x.x.x.x.x.x.x.x.z.i.z.l.d.d.i.0.8.5.i.l.i.l.",
"x.x.x.x.x.x.x.x.l.j.i.i.u.5.i.d.x.x.x.x.x.x.x.x.x.x.x.x.x.x.x.i.i.i.d.5.5.d.x.x.x.x.x.x.x.x.x.x.x.x.x.x.l.k.q.d.i.0.8.q.k.l.l.l.",
"x.x.x.x.x.x.x.x.k.d.i.d.5.5.i.l.x.x.x.x.x.x.x.x.x.x.x.x.x.x.l.d.i.d.5.5.p.j.x.x.x.x.x.x.x.x.x.x.x.x.x.x.x.k.d.u.8.5.8.i.z.x.x.x.",
"x.x.x.x.x.x.z.l.z.d.u.5.5.5.d.z.x.x.x.x.x.x.x.x.x.x.x.x.x.x.k.i.i.p.5.5.p.x.x.x.x.x.x.x.x.x.x.x.x.x.l.l.l.d.d.0.8.8.0.l.l.l.x.x.",
"x.x.x.x.x.x.x.z.i.i.0.5.8.k.l.l.x.x.x.x.x.x.x.x.x.x.x.x.x.k.i.i.u.5.u.d.x.x.x.x.x.x.x.x.x.x.x.x.x.x.x.l.i.d.0.5.5.8.x.x.x.x.x.x.",
"x.x.x.x.x.x.z.i.i.i.5.8.d.l.l.l.x.x.x.x.x.x.x.x.x.x.x.x.i.i.i.i.8.5.i.d.x.x.x.x.x.x.x.x.x.x.x.x.x.x.l.d.i.i.q.5.u.i.x.x.x.x.x.x.",
"x.x.x.x.x.z.i.i.i.0.5.u.k.z.x.x.x.x.x.x.x.x.x.x.x.x.z.k.i.i.d.u.5.p.z.z.x.x.x.x.x.x.x.x.x.x.x.x.x.x.i.i.i.u.8.8.u.x.x.x.x.x.x.x.",
"x.x.x.z.k.i.i.u.0.5.5.i.x.x.x.x.x.x.x.x.x.x.x.x.x.x.k.d.i.d.u.5.5.u.x.x.x.x.x.x.x.x.x.x.x.x.x.x.k.i.i.i.i.8.5.8.j.x.x.x.x.x.x.x.",
"x.x.x.j.i.i.i.8.5.5.u.d.x.x.x.x.x.x.x.x.x.x.x.x.x.l.d.u.d.p.5.5.d.u.z.x.x.x.x.x.x.x.x.x.x.x.x.z.i.i.i.u.8.5.8.i.j.x.x.x.x.x.x.x.",
"x.x.z.i.u.5.8.5.5.i.d.z.x.x.x.x.x.x.k.i.x.x.x.x.i.i.d.u.p.5.5.8.d.k.x.x.x.x.x.x.l.j.l.x.x.x.k.d.i.u.p.5.5.p.i.j.x.x.x.x.x.x.x.k.",
"l.j.i.i.5.5.u.0.0.d.l.x.x.x.x.x.x.x.x.k.x.x.x.k.i.i.u.5.5.p.u.i.k.x.x.x.x.x.x.x.x.k.k.x.x.k.i.d.i.5.5.u.u.i.j.x.x.x.x.x.x.x.x.l.",
"j.i.i.5.5.5.i.d.x.x.x.x.x.x.x.x.x.x.x.x.x.l.k.i.i.8.5.5.i.d.z.x.x.x.x.x.x.x.x.x.x.x.x.x.k.i.i.u.5.5.p.i.x.x.x.x.x.x.x.x.x.x.x.x.",
"k.i.5.5.u.j.l.x.x.x.x.x.x.x.x.x.x.x.x.x.l.k.i.i.8.5.5.i.k.x.x.x.x.x.x.x.x.x.x.x.x.x.x.k.i.i.p.5.5.d.k.x.x.x.x.x.x.x.x.x.x.x.x.x.",
"d.5.5.p.i.x.x.x.x.x.x.x.x.x.x.x.x.x.x.j.i.i.d.8.5.5.i.l.x.x.x.x.x.x.x.x.x.x.x.x.z.k.d.i.d.p.5.5.u.z.x.x.x.x.x.x.x.x.x.x.x.x.x.x."
};
