/* XPM */
static char *result[] = {
/* columns rows colors chars-per-pixel */
"64 64 173 2 ",
"   c #030002",
".  c #190023",
"X  c #2F453A",
"o  c #650078",
"O  c #505456",
"+  c #4B5153",
"@  c #DB0020",
"#  c #E50022",
"$  c #FE022B",
"%  c #FC0027",
"&  c #FF0E36",
"*  c #FF133A",
"=  c #FF1B43",
"-  c #FF2E55",
";  c #FF345A",
":  c #FF3C63",
">  c #1A00BD",
",  c #5C0088",
"<  c #65008A",
"1  c #670090",
"2  c #7F7397",
"3  c #796BB9",
"4  c #1E00C6",
"5  c #1C00D5",
"6  c #1E00DD",
"7  c #2200CA",
"8  c #2408D8",
"9  c #1F00E6",
"0  c #1606FF",
"q  c #1A05FF",
"w  c #1416FF",
"e  c #2207E8",
"r  c #220CFF",
"t  c #2020FF",
"y  c #242CFF",
"u  c #2B2BFF",
"i  c #2B3CFF",
"p  c #213FFF",
"a  c #3131FF",
"s  c #3666D1",
"d  c #3645FF",
"f  c #3B46FF",
"g  c #3A49FF",
"h  c #3A55FF",
"j  c #2B4DFE",
"k  c #346CF8",
"l  c #434FFF",
"z  c #4353FF",
"x  c #4459FF",
"c  c #4E59FF",
"v  c #5D5DFF",
"b  c #5961FF",
"n  c #5267FF",
"m  c #5678FF",
"M  c #646AFF",
"N  c #6A76FF",
"B  c #A9008E",
"V  c #AA0093",
"C  c #9C2283",
"Z  c #A5338E",
"A  c #8B7595",
"S  c #FF638B",
"D  c #FF759E",
"F  c #FF79A3",
"G  c #738ABA",
"H  c #5081D9",
"J  c #568CCD",
"K  c #6191D0",
"L  c #5E97FF",
"P  c #548FE7",
"I  c #758FFF",
"U  c #7181FF",
"Y  c #6397FF",
"T  c #689DFF",
"R  c #7692FF",
"E  c #7897FF",
"W  c #7E9DFF",
"Q  c #4AACFE",
"!  c #54ACFC",
"~  c #4EB4FA",
"^  c #54B6FD",
"/  c #6FA1FF",
"(  c #71A4FF",
")  c #74A9FF",
"_  c #78ADFF",
"`  c #6CBFFC",
"'  c #7BB3FF",
"]  c #77ABCB",
"[  c #03C2FF",
"{  c #5AC6FC",
"}  c #6EDBFE",
"|  c #62F8FB",
" . c #868E91",
".. c #8E979B",
"X. c #8D8FA5",
"o. c #9B94AA",
"O. c #9695A9",
"+. c #9A85A5",
"@. c #A09CAD",
"#. c #AA8CAB",
"$. c #8BA5BF",
"%. c #A4A0B3",
"&. c #A8AFB2",
"*. c #AEB1B3",
"=. c #818FC2",
"-. c #88B3D4",
";. c #8CAACB",
":. c #85AEFF",
">. c #84A2FF",
",. c #94ABFF",
"<. c #87B0FF",
"1. c #8ABBFF",
"2. c #98B5FF",
"3. c #A3BDFF",
"4. c #B7B7FF",
"5. c #BBB5FF",
"6. c #FF91C8",
"7. c #C0B3FF",
"8. c #B8C5C9",
"9. c #B8CCD9",
"0. c #BCD1D8",
"q. c #8EC0FF",
"w. c #96CAFF",
"e. c #9ACBFF",
"r. c #95C4FF",
"t. c #98D3FF",
"y. c #B8C8FF",
"u. c #ACD4FF",
"i. c #ABDAFF",
"p. c #B4DAFF",
"a. c #BFDEFF",
"s. c #BDD7FF",
"d. c #BEE2FF",
"f. c #BFEFFF",
"g. c #C3CACE",
"h. c #C4CCD0",
"j. c #CCD5DA",
"k. c #C5D8DD",
"l. c #C7D4D9",
"z. c #D0D8DD",
"x. c #CCDCE2",
"c. c #C5DDE4",
"v. c #D4DCE1",
"b. c #CAE0E6",
"n. c #CEE6ED",
"m. c #CEE8ED",
"M. c #D9E1E6",
"N. c #D1E6EE",
"B. c #DCE6EB",
"V. c #D2E8EF",
"C. c #DAE8EE",
"Z. c #C2E4FF",
"A. c #C8E7FF",
"S. c #C5EBFF",
"D. c #CCECFF",
"F. c #D5EAF1",
"G. c #DBEEF4",
"H. c #D2EEFF",
"J. c #CCF2FF",
"K. c #DFF0F5",
"L. c #D3F4FF",
"P. c #D5FFFF",
"I. c #DEFAFF",
"U. c #E2EAEF",
"Y. c #E2EEF3",
"T. c #E4F1F6",
"R. c #E8F2F7",
"E. c #E6F3F9",
"W. c #EAF3F8",
"Q. c #E4FCFE",
"!. c #ECFFFE",
"~. c #F4FEFE",
"^. c #F8FFFF",
/* pixels */
"~.W.W.W.W.W.W.W.W.W.W.W.W.R.G.G.V.m.V.V.K.G.R.R.R.R.R.g.Z C C C C C C Z 8.F.G.m.n.V.G.C.T.R.W.W.W.W.W.W.W.W.W.W.W.W.K.G.G.G.n.V.",
"W.W.W.W.W.W.W.W.W.W.W.W.W.G.G.V.m.m.G.K.E.R.W.W.W.R.j.A V V V V V V V V A h.b.n.V.G.R.W.W.W.W.W.W.W.W.W.W.W.W.W.R.E.G.G.V.n.m.G.",
"W.W.W.W.W.W.W.W.W.W.W.W.E.K.V.m.m.C.K.W.R.W.W.W.W.U.#.B < < < < < < , < B +.c.F.G.W.W.W.W.W.W.W.W.W.W.W.W.W.R.R.W.T.G.G.n.n.G.Y.",
"W.W.W.W.W.W.W.W.W.W.W.R.T.G.V.n.C.K.R.R.R.W.W.W.W.U.A o 1 1 1 1 1 1 1 1 o 2 c.G.W.W.W.W.W.W.W.W.W.W.W.W.W.W.W.R.E.K.G.m.V.G.Y.R.",
"W.W.W.W.W.W.W.R.R.R.T.K.G.V.V.V.K.C.R.R.U.v.l.j.U.M.$.p     . . . .     j G c.N.j.j.v.U.W.W.W.W.W.W.W.T.W.W.E.R.G.G.G.N.G.G.Y.W.",
"W.W.W.W.W.W.Y.Y.W.E.T.G.G.n.n.m.R.Y.T.Y.h.! Q ! ;.z.-.t.[ X O O O + X [ t.] l.-.! Q ! g.Y.W.W.W.W.W.W.G.W.W.T.G.G.G.n.n.F.R.G.R.",
"W.W.W.W.W.W.W.W.R.T.G.G.G.N.V.G.W.W.Y.h.m g a u j $...x ,. .8.8.8.8. .,.h ..$.j u a z s h.Y.W.W.W.W.W.R.W.R.G.G.G.G.n.G.G.W.W.W.",
"W.W.W.W.W.W.W.W.E.K.G.G.V.N.V.W.W.U.g.~ 1.9 e 5 l } s c l k *.| | &.k l c s } f 5 e r 1.^ g.U.W.W.W.W.W.W.Y.G.G.G.F.n.G.W.W.W.W.",
"W.W.W.W.W.W.W.E.E.K.G.F.n.F.F.W.Y.9.! D.D.n f i >.Q.H.L.L.D.d.Z.d.a.D.L.L.D.Q.>.i g n H.H.! 9.G.W.W.W.W.W.K.G.G.G.n.F.E.W.W.W.W.",
"W.W.W.W.W.W.W.K.G.K.F.n.n.K.W.W.v.` d.A.Z.l t w I I.Z.d.d.Z.Z.Z.d.d.Z.Z.Z.Z.I.I w w g A.A.Z.` v.W.W.W.T.K.G.G.F.n.m.T.W.W.W.W.W.",
"W.W.W.W.W.W.K.G.G.K.m.V.G.E.W.W.v.^ A.D.Z.r 6 7 v Q.Z.d.Z.Z.Z.Z.Z.Z.Z.Z.Z.Z.Q.b 7 6 r A.D.Z.^ v.W.E.E.K.G.G.G.m.F.G.R.W.W.W.W.W.",
"W.W.W.E.E.T.G.G.G.V.n.F.G.E.W.W.z.^ A.p._ 2.3.3.<.q.A.Z.Z.a.J.L.L.J.a.Z.Z.A.r.<.e.2.2._ p.A.^ z.W.E.T.G.G.G.G.n.G.K.W.W.W.W.W.W.",
"W.W.W.W.T.G.G.G.F.n.n.G.E.W.W.W.v.^ A.u.Y S.I.!.w.) D.Z.Z.J.S ; - S J.Z.Z.D.) e.~.Q.S.Y i.A.^ M.W.E.G.G.G.G.n.n.K.W.W.W.W.W.W.W.",
"W.W.W.E.G.G.G.F.n.n.G.G.W.W.W.W.M.^ D.i.L L.!.~.t.) A.A.P.P.; @ @ ; P.P.Z.D.) t.~.!.L.Y i.A.^ z.E.G.G.G.G.n.n.F.T.W.W.W.W.W.W.W.",
"W.W.T.G.G.F.F.n.n.F.G.W.W.W.W.W.z.^ A.d.q.N M v R i.J.s.D F ; $ $ ; F D s.D.i.R v M N 1.a.A.^ z.K.F.F.G.N.V.G.G.R.W.W.W.W.W.W.W.",
"W.G.G.G.n.n.n.F.F.F.E.W.W.W.W.W.z.^ d.D.D.q 5 > b ~.J.5.$ # & = = & # % 7.J.~.b > 5 q D.D.d.~ k.G.F.n.F.F.F.G.W.W.W.W.W.W.W.W.T.",
"G.G.F.F.n.N.G.G.W.W.W.W.W.W.W.W.v.^ Z.A.Z.b d i W L.J.5.& $ * * * * $ & 5.J.L.W i d n d.A.Z.^ k.F.n.F.G.T.R.W.W.W.W.W.W.W.W.W.W.",
"G.G.N.N.F.G.T.W.W.W.W.W.W.W.W.W.v.^ Z.A.Z.l y w R I.D.4.= & * * * * * = 4.J.I.I w y l Z.S.Z.~ 0.n.F.G.T.W.W.W.W.W.W.W.W.W.W.W.W.",
"G.F.N.N.G.W.W.W.W.W.W.W.W.W.W.W.v.^ Z.D.A.r 6 4 b !.Z.Z.y.S.: $ $ : S.y.Z.Z.!.b 7 6 r A.D.Z.~ 9.N.G.W.W.W.W.W.W.W.W.W.W.W.W.W.W.",
"F.N.N.F.Y.W.W.W.W.W.W.W.W.W.W.W.v.^ A.p.' ,.2.2.:.r.A.Z.J.P.; # # ; P.J.Z.A.e.:.,.2.,.' p.S.~ l.G.T.W.W.W.W.W.R.W.W.W.W.W.R.E.T.",
"n.N.F.E.W.W.W.W.W.Y.E.W.W.W.W.W.z.{ H.u.Y D.Q.!.e.) D.Z.d.S.6.F F 6.S.Z.Z.A.) r.!.Q.D.Y u.H.{ z.E.W.W.W.W.Y.Y.R.W.W.W.W.W.W.T.G.",
"F.F.E.W.W.W.W.W.W.Y.R.R.W.W.E.T.x.P u.p.L J.!.~.e./ D.Z.Z.a.L.P.P.J.d.Z.Z.D.) e.~.~.J.L u.u.P v.W.W.W.W.W.W.Y.W.W.W.W.T.T.K.G.G.",
"W.W.W.W.W.W.W.W.W.W.W.W.W.E.G.G.k.J 1.J.r.U N M E i.S.Z.Z.Z.Z.Z.Z.d.Z.Z.Z.S.i.E M N U e.L.1.H M.W.W.W.W.W.W.W.W.W.W.T.G.G.G.n.n.",
"W.W.W.W.W.W.W.W.W.W.W.W.W.G.G.G.0.P <.S.Z.0 6 > M ^.Z.A.A.A.A.S.A.A.A.A.A.A.~.M > 5 0 d.Z.,.P M.W.W.W.W.W.W.W.W.W.T.G.G.G.m.n.V.",
"W.W.W.W.W.W.W.W.W.W.W.W.W.G.G.N.0.3 h ) T z f y R L.A.Z.Z.Z.Z.Z.Z.Z.Z.Z.Z.S.J.I y d z / _ h A N.W.W.W.W.W.W.W.W.W.T.G.G.n.n.F.K.",
"W.W.W.W.W.W.W.W.W.W.W.W.G.G.N.c.b.h.2 x f e e 8 0 m ' ) ) ) ) ) ) ) ) ) ) ' m 0 8 e e f h A l.U.Y.R.W.W.W.W.W.W.R.K.G.m.m.m.G.T.",
"W.W.W.W.W.W.W.W.W.W.W.G.G.G.N.n.C.G.x.%.o.@.%.%.@.o.o.o.o.o.o.o.o.o.o.O.X.X.X.O.%.%.@.o.%.v.Y.R.R.R.W.W.W.W.W.E.G.G.G.m.V.G.E.W.",
"W.W.W.W.W.W.G.R.W.W.T.G.G.N.n.N.Y.G.Y.Y.U.U.Y.Y.Y.U.U.U.B.C.Y.U.C.C.V.n.b.b.C.C.C.U.U.Y.Y.R.R.R.W.W.W.G.E.W.W.K.G.G.n.n.T.E.G.R.",
"W.W.W.W.W.W.Y.W.W.G.K.K.F.m.C.F.W.R.R.W.W.W.W.W.W.W.W.W.W.Y.W.R.G.G.G.V.m.C.K.E.Y.W.W.W.W.W.W.W.W.W.R.Y.W.W.K.G.G.G.n.V.T.E.T.W.",
"W.W.W.W.W.W.W.W.E.G.F.K.G.n.F.G.W.W.W.W.W.W.W.W.W.W.W.W.W.W.W.Y.G.G.G.n.V.G.W.R.W.W.W.W.W.W.W.W.W.W.W.W.E.T.G.G.F.F.n.G.T.W.W.W.",
"W.W.W.W.W.W.W.W.R.G.G.F.n.n.F.W.W.W.W.W.W.W.W.W.W.W.W.W.W.W.W.T.G.G.n.n.m.W.W.W.W.W.W.W.W.W.W.W.W.W.W.W.W.T.G.G.V.n.n.T.E.W.W.W.",
"W.W.W.W.W.W.W.R.G.G.F.n.n.G.W.W.W.W.W.W.W.W.W.W.W.W.W.W.W.W.Y.T.F.n.n.G.G.W.W.W.W.W.W.W.W.W.W.W.W.W.W.W.T.G.G.n.n.V.T.W.W.W.W.W.",
"W.W.W.W.E.E.T.G.G.G.V.V.F.E.W.W.W.W.W.W.W.W.W.W.W.W.W.W.E.G.G.G.V.n.F.G.W.W.W.W.W.W.W.W.W.W.W.W.W.W.W.T.F.K.G.n.m.G.W.W.W.W.W.W.",
"W.W.W.W.W.E.G.G.G.G.N.F.G.W.W.W.W.W.W.W.W.W.W.W.W.W.W.E.E.G.G.G.V.V.G.K.W.W.W.W.W.W.W.W.W.W.W.W.W.W.G.G.G.G.F.n.G.G.W.W.W.W.W.W.",
"W.W.W.W.E.G.G.G.G.N.n.F.W.W.W.W.W.W.W.W.W.W.W.W.W.W.E.E.G.G.G.V.n.V.T.W.W.W.W.W.W.W.W.W.W.W.W.W.W.K.G.G.G.F.n.n.G.T.R.W.W.W.W.W.",
"W.W.W.E.G.G.G.F.N.n.V.G.W.W.W.W.W.W.W.W.W.W.W.W.W.E.K.G.G.G.N.n.V.G.T.W.W.W.W.W.W.W.W.W.W.W.W.W.T.G.G.G.G.n.n.F.G.R.R.W.W.W.W.W.",
"W.W.R.G.G.F.F.n.n.F.K.G.W.W.W.W.W.W.W.E.W.W.W.W.W.T.G.G.F.F.N.F.G.G.W.W.W.W.W.W.W.W.W.W.W.W.W.G.G.F.F.F.n.V.F.G.E.W.W.W.W.W.W.W.",
"W.E.G.G.F.n.N.n.F.F.E.W.W.W.W.W.W.W.Y.G.W.W.W.W.E.G.F.n.N.N.V.G.K.W.W.W.W.W.W.W.W.G.T.W.W.W.G.G.G.m.n.n.m.n.G.W.R.W.W.W.W.W.R.T.",
"T.G.G.F.n.n.F.G.G.E.W.W.W.W.W.W.W.W.W.W.W.W.W.T.F.H.N.n.V.F.G.T.R.E.W.W.W.W.W.W.W.E.E.W.W.K.G.G.n.n.V.G.F.K.T.W.W.W.W.W.W.W.R.R.",
"K.F.G.n.V.T.E.Y.W.W.W.W.W.W.W.W.W.W.W.W.W.W.Y.G.G.n.n.G.G.G.E.W.W.W.W.W.W.W.W.W.W.W.W.W.K.G.G.N.n.V.F.G.W.W.W.W.W.W.W.W.W.R.R.R.",
"G.F.n.n.G.E.W.W.W.W.W.W.W.W.W.W.W.W.W.W.W.T.G.F.n.N.F.E.R.W.W.W.W.W.W.W.W.W.W.W.W.W.W.E.G.G.n.n.m.G.W.W.W.W.W.W.W.W.W.W.W.W.W.W.",
"F.n.N.F.G.E.W.W.W.E.W.W.W.W.W.W.W.W.W.T.G.G.F.V.n.V.G.E.W.W.W.W.W.W.W.W.W.W.W.W.W.K.G.G.G.n.n.n.C.T.W.W.W.W.W.W.W.W.W.W.W.W.R.R.",
"V.m.G.T.E.W.W.W.W.T.E.W.W.W.W.W.W.W.G.G.F.V.V.N.F.T.E.W.W.W.W.R.R.W.W.W.W.W.W.E.K.G.G.n.n.n.N.G.T.E.W.W.W.W.E.W.W.W.W.W.E.T.T.K.",
"n.V.K.E.W.W.W.W.W.Y.E.W.W.W.W.W.W.Y.F.F.n.n.V.V.K.W.W.W.W.W.W.G.K.W.W.W.E.T.R.K.G.F.n.n.V.N.G.W.R.R.W.W.R.E.K.W.W.W.W.R.R.K.G.C.",
"W.W.W.W.W.W.W.W.W.W.W.W.W.W.E.G.F.N.n.n.n.G.G.E.W.W.W.W.W.W.W.W.R.R.W.W.T.G.F.F.n.n.N.N.G.Y.W.W.R.W.W.W.W.W.W.W.R.R.R.G.K.C.n.n.",
"W.W.W.W.W.W.W.W.W.W.W.W.W.E.G.G.V.n.N.G.F.T.W.E.W.W.W.W.W.W.W.W.W.R.W.E.K.G.G.n.n.F.G.G.R.W.W.W.W.W.W.W.W.W.W.W.R.R.G.G.F.n.n.V.",
"W.W.W.W.W.W.W.W.W.W.W.W.W.K.G.n.N.m.G.T.W.W.W.W.W.W.W.W.W.W.W.W.W.W.W.T.G.G.n.n.F.G.E.W.W.W.W.W.W.W.W.W.W.W.W.W.W.W.G.G.n.n.V.G.",
"W.W.W.W.W.W.W.W.W.W.W.W.W.K.V.n.N.F.E.W.W.W.W.W.W.W.W.W.W.W.W.W.W.W.E.T.G.n.n.F.G.W.W.W.W.W.W.W.W.W.W.W.W.W.W.W.W.E.G.m.b.n.G.T.",
"W.W.W.W.W.W.W.W.W.W.W.R.G.G.n.V.G.K.W.W.W.W.W.W.W.W.W.W.W.W.W.W.W.E.T.G.G.n.G.G.W.W.W.W.W.W.W.W.W.W.W.W.W.W.W.E.T.K.G.n.F.G.R.W.",
"W.W.W.W.W.W.Y.W.W.W.W.K.G.V.n.n.T.Y.E.R.W.W.W.W.W.W.W.W.E.T.W.W.T.K.G.F.F.n.G.G.Y.W.W.W.W.W.W.W.W.W.R.T.W.W.R.R.K.G.N.n.F.G.G.R.",
"W.W.W.W.W.W.G.E.W.R.G.G.G.n.m.N.W.E.Y.W.W.W.W.W.W.W.W.W.T.T.W.E.K.G.G.V.n.V.Y.E.G.W.W.W.W.W.W.W.W.W.R.T.T.R.K.K.G.V.N.m.G.W.G.W.",
"W.W.W.W.W.W.W.W.R.Y.G.G.G.n.G.G.W.W.W.W.W.W.W.W.W.W.W.W.W.W.W.G.G.G.G.n.F.G.Y.W.W.W.W.W.W.W.W.W.W.R.R.R.W.T.G.G.K.V.N.C.G.W.W.W.",
"W.W.W.W.W.W.W.W.E.K.K.F.n.n.F.E.W.W.W.W.W.W.W.W.W.W.W.W.W.W.W.G.G.G.V.n.V.E.W.W.W.W.W.W.W.W.W.W.W.W.W.W.W.T.G.G.F.n.N.C.W.W.W.W.",
"W.W.W.W.W.W.W.E.E.G.F.n.n.m.G.W.W.W.W.W.W.W.W.W.W.W.W.W.W.W.T.G.G.F.m.V.F.W.W.W.W.W.W.W.W.W.W.W.W.W.R.R.E.K.G.m.n.N.V.T.W.W.W.W.",
"W.W.W.W.W.W.W.T.G.G.V.n.n.T.W.W.W.W.W.W.W.W.W.W.W.W.W.W.W.T.G.G.F.n.V.G.W.W.W.W.W.W.W.W.W.W.W.W.W.W.W.R.K.G.C.n.n.N.W.W.W.W.W.W.",
"W.W.W.W.W.W.T.K.G.G.V.V.G.W.W.W.W.W.W.W.W.W.W.W.W.W.W.W.Y.G.G.G.F.n.G.K.W.W.W.W.W.W.W.W.W.W.W.W.W.W.R.K.G.G.G.n.F.G.W.W.W.W.W.W.",
"W.W.W.W.E.Y.G.G.G.F.n.F.T.W.W.W.W.W.W.W.W.W.W.W.W.W.E.T.G.G.G.F.n.N.E.W.W.W.W.W.W.W.W.W.W.W.W.W.W.R.G.G.G.F.N.N.F.W.W.W.W.W.W.W.",
"W.W.W.E.T.G.G.G.V.n.F.G.E.W.W.W.W.W.W.W.W.W.W.W.W.W.T.G.G.G.F.n.N.F.E.W.W.W.W.W.W.W.W.W.W.W.W.W.E.G.G.G.G.n.n.V.Y.W.W.W.W.W.W.W.",
"W.W.W.T.G.G.G.N.n.n.F.G.W.W.W.W.W.W.W.W.W.W.W.W.W.T.K.G.G.F.n.n.F.G.E.W.W.W.W.W.W.W.W.W.W.W.W.E.G.G.G.F.N.n.N.G.Y.W.W.W.W.W.W.W.",
"W.W.E.G.V.n.N.n.m.G.G.W.W.W.W.W.W.W.Y.G.W.W.W.W.K.K.G.F.V.N.N.N.G.E.E.W.W.W.W.W.R.Y.R.W.W.W.T.K.G.G.N.n.N.V.G.Y.W.W.W.W.W.W.W.T.",
"E.Y.G.G.n.n.F.F.C.G.E.W.W.W.W.W.W.W.W.T.W.W.W.K.G.G.F.n.N.F.F.K.E.W.W.W.W.W.W.W.W.T.E.W.W.E.G.G.F.n.N.F.F.G.Y.W.W.W.W.W.W.W.W.E.",
"Y.G.G.n.n.N.G.G.W.W.W.W.W.W.W.W.W.W.W.W.W.W.T.G.G.N.n.n.F.K.W.W.W.W.W.W.W.W.W.W.W.W.R.R.E.G.H.F.n.n.N.G.W.W.W.W.W.W.W.W.W.W.W.W.",
"T.F.n.n.F.Y.E.W.W.W.W.W.W.W.W.W.W.W.W.R.W.T.G.G.N.n.N.G.T.W.W.W.W.W.W.W.W.W.W.W.W.W.W.Y.G.G.F.n.n.T.T.W.W.W.W.W.W.W.W.W.W.W.W.W.",
"T.n.N.V.G.W.W.W.W.W.W.W.W.W.W.W.W.W.W.T.G.G.G.N.n.N.G.T.W.W.W.W.W.W.W.W.W.W.W.W.W.T.Y.G.G.V.n.n.F.T.W.W.W.W.W.W.W.W.W.W.W.W.W.W."
};
