/* XPM */
static char *result[] = {
/* columns rows colors chars-per-pixel */
"64 64 175 2 ",
"   c #030002",
".  c #190023",
"X  c #2F453B",
"o  c #650078",
"O  c #4A5154",
"+  c #464E51",
"@  c #DB0020",
"#  c #E50022",
"$  c #FE022B",
"%  c #FC0027",
"&  c #FF0E36",
"*  c #FF133A",
"=  c #FF1B43",
"-  c #FF2E55",
";  c #FF345A",
":  c #FF3C63",
">  c #1A00BD",
",  c #5C0088",
"<  c #65008A",
"1  c #670090",
"2  c #7E6EBB",
"3  c #1E00C6",
"4  c #1C00D5",
"5  c #1E00DD",
"6  c #2200CA",
"7  c #2408D8",
"8  c #1F00E6",
"9  c #1706FF",
"0  c #1A05FF",
"q  c #1416FF",
"w  c #2207E8",
"e  c #220CFF",
"r  c #2020FF",
"t  c #242CFF",
"y  c #2B2BFF",
"u  c #2B3CFF",
"i  c #213FFF",
"p  c #3131FF",
"a  c #335FCE",
"s  c #2B4CFE",
"d  c #3645FF",
"f  c #3B46FF",
"g  c #3A49FF",
"h  c #3A55FF",
"j  c #336CF7",
"k  c #376CD3",
"l  c #434FFF",
"z  c #4353FF",
"x  c #4459FF",
"c  c #4E59FF",
"v  c #5D5DFF",
"b  c #5961FF",
"n  c #5267FF",
"m  c #5678FF",
"M  c #646AFF",
"N  c #6A76FF",
"B  c #9B1F82",
"V  c #A9008E",
"C  c #AA0093",
"Z  c #9B2383",
"A  c #972280",
"S  c #A3328D",
"D  c #836F9D",
"F  c #8D7E97",
"G  c #917591",
"H  c #FF638B",
"J  c #FF759E",
"K  c #FF79A3",
"L  c #7C898D",
"P  c #5081D9",
"I  c #6191D1",
"U  c #7E8EC1",
"Y  c #7DB2D2",
"T  c #5991E8",
"R  c #5E97FF",
"E  c #578FE8",
"W  c #758FFF",
"Q  c #7181FF",
"!  c #6397FF",
"~  c #689DFF",
"^  c #7692FF",
"/  c #7B9AFF",
"(  c #4CACFD",
")  c #54ABFC",
"_  c #4CB3FA",
"`  c #53B6FD",
"'  c #71A4FF",
"]  c #74A9FF",
"[  c #78ADFF",
"{  c #69BEFC",
"}  c #7BB3FF",
"|  c #6FA1FF",
" . c #03C2FF",
".. c #5DC7FD",
"X. c #6EDBFE",
"o. c #64F8FB",
"O. c #8D9498",
"+. c #8C8EA4",
"@. c #9291A7",
"#. c #9B95AA",
"$. c #9B97AB",
"%. c #A09CAD",
"&. c #AA8CAB",
"*. c #83A4BE",
"=. c #A4A0B3",
"-. c #A4ADB0",
";. c #AAB6B9",
":. c #8391C1",
">. c #8BB2D3",
",. c #8EAACB",
"<. c #85AEFF",
"1. c #84A2FF",
"2. c #94ABFF",
"3. c #8ABBFF",
"4. c #87B0FF",
"5. c #98B5FF",
"6. c #A3BDFF",
"7. c #B9B6FF",
"8. c #FF91C8",
"9. c #C0B3FF",
"0. c #BDC9CD",
"q. c #B5C4C9",
"w. c #B7CDD7",
"e. c #BDD1D8",
"r. c #AAC4D0",
"t. c #8EC0FF",
"y. c #96CAFF",
"u. c #9ACBFF",
"i. c #95C4FF",
"p. c #98D3FF",
"a. c #B8C8FF",
"s. c #ACD4FF",
"d. c #ABDAFF",
"f. c #B4DAFF",
"g. c #BFDEFF",
"h. c #BDD7FF",
"j. c #BEE2FF",
"k. c #BFEFFF",
"l. c #C3CBCF",
"z. c #C4CCD0",
"x. c #CBD3D7",
"c. c #CDD5DA",
"v. c #C6D8DD",
"b. c #D0D8DD",
"n. c #C9DFE5",
"m. c #D5DDE2",
"M. c #CEE6ED",
"N. c #CBE3E9",
"B. c #D9E1E6",
"V. c #D1E7EE",
"C. c #DDE6EA",
"Z. c #D1E8EF",
"A. c #DCE8EC",
"S. c #C2E4FF",
"D. c #C8E7FF",
"F. c #C5EBFF",
"G. c #CCECFF",
"H. c #D5EAF1",
"J. c #DBEEF4",
"K. c #D2EEFF",
"L. c #CCF2FF",
"P. c #DFF0F5",
"I. c #D3F4FF",
"U. c #D5FFFF",
"Y. c #DEFAFF",
"T. c #E1EAEF",
"R. c #E3EEF3",
"E. c #E4F1F6",
"W. c #E8F2F7",
"Q. c #E6F3F9",
"!. c #EAF3F8",
"~. c #E4FCFE",
"^. c #ECFFFE",
"/. c #F4FEFE",
"(. c #F8FFFF",
/* pixels */
"/.!.!.!.!.!.!.!.!.!.!.!.!.E.J.J.Z.M.Z.Z.J.E.E.!.!.!.!.!.!.!.!.!.!.!.!.Q.P.J.H.Z.N.Z.P.A.W.Q.!.!.!.!.!.!.!.!.!.!.!.!.P.P.J.H.V.Z.",
"!.!.!.!.!.!.!.!.!.!.!.!.!.J.J.Z.M.M.J.J.E.!.!.!.!.!.!.!.!.!.!.!.!.!.W.J.J.J.M.M.Z.J.E.Q.W.W.!.!.!.!.!.!.!.!.!.!.!.Q.P.P.Z.V.Z.H.",
"!.!.!.!.!.!.!.!.!.!.!.!.Q.P.Z.Z.M.J.E.W.W.!.!.!.!.!.!.!.!.!.!.!.!.!.!.P.H.M.M.H.P.W.!.!.!.!.!.!.!.!.!.!.!.!.W.W.!.E.P.Z.V.M.J.E.",
"!.!.!.!.!.!.!.!.!.!.!.W.E.J.Z.M.H.P.E.!.!.!.!.!.!.!.!.!.!.!.!.!.!.!.E.P.H.M.Z.J.W.!.!.!.!.!.!.!.!.!.!.!.!.!.!.W.Q.P.H.Z.Z.A.E.W.",
"!.!.!.!.!.!.!.W.W.W.W.P.J.Z.V.Z.J.A.E.!.!.!.!.!.!.!.!.!.!.!.W.!.E.E.J.H.Z.M.J.P.W.W.W.!.!.!.!.!.!.!.W.W.W.!.W.E.J.J.J.M.J.J.E.!.",
"!.!.!.!.!.!.R.R.W.E.E.J.J.M.M.Z.W.E.E.!.!.!.!.!.!.!.!.!.W.R.W.Q.E.J.P.M.V.M.P.E.P.W.!.!.!.!.!.!.!.!.W.P.W.!.E.P.J.J.M.M.J.E.J.E.",
"!.!.!.!.!.!.!.!.!.P.J.J.J.V.Z.P.!.!.!.!.!.!.!.!.!.!.!.!.!.!.W.E.P.J.J.M.Z.P.E.!.W.!.!.!.!.!.!.!.!.!.!.W.!.Q.P.P.J.J.M.J.J.!.!.!.",
"!.!.!.!.!.!.!.!.Q.P.J.J.Z.V.Z.E.!.!.!.!.!.!.!.!.!.!.!.T.x.l.l.0.w.q.q.w.n.J.Q.!.!.!.!.!.!.!.!.!.!.!.!.!.!.E.P.Z.J.H.M.J.!.!.!.!.",
"!.!.!.!.!.!.Q.Q.Q.P.P.Z.M.H.H.!.!.!.!.!.!.!.!.!.!.!.R.z.S Z Z A A A B S q.R.!.!.!.!.!.!.!.!.!.!.!.!.!.!.!.P.J.J.H.M.J.E.W.!.!.!.",
"!.!.!.!.!.!.!.P.P.P.H.M.M.P.!.!.!.!.!.!.!.!.!.!.!.W.c.G C C C C C C C C G c.R.!.!.!.!.!.!.!.!.!.!.!.!.Q.P.J.J.H.V.Z.Q.!.!.!.!.!.",
"!.!.!.!.!.Q.P.J.J.J.V.Z.J.Q.!.!.!.!.!.!.!.!.!.!.!.T.&.V 1 , < < < < , < V &.T.!.!.!.!.!.!.!.!.!.!.!.Q.P.J.J.J.M.H.J.Q.!.!.!.!.!.",
"!.!.!.!.Q.Q.J.J.J.Z.M.H.J.Q.!.!.!.!.!.!.!.!.!.!.W.T.F o 1 1 1 1 1 1 1 1 o F T.!.!.!.!.!.!.!.!.W.!.Q.E.H.P.J.J.M.J.P.W.!.!.!.!.!.",
"!.!.!.!.E.J.J.J.H.M.M.J.Q.!.!.!.!.!.!.W.W.m.x.c.B.T.U i     . . . .     i *.T.B.c.x.B.W.!.!.W.W.Q.Q.J.J.J.J.M.M.E.W.!.!.!.!.!.!.",
"!.!.!.E.J.J.J.H.M.M.J.P.!.!.!.!.!.!.!.T.l.) ( ) >.c.Y p. .X + + O O X  .y.,.b.,.) ( ) x.T.!.W.W.Q.J.P.J.J.M.M.H.E.!.!.!.!.!.!.!.",
"!.Q.R.J.J.H.H.M.M.H.J.Q.!.!.!.!.!.!.T.l.k l p y s *.O.h 2.L ;.r.q.q.O.2.h O.,.s y p f k z.T.!.W.J.J.H.H.M.Z.J.P.E.W.!.!.!.!.!.!.",
"Q.E.J.J.M.M.M.H.H.H.Q.!.!.!.!.!.!.T.0.` 3.e w 4 f X.a c l j -.o.o.;.j l c k X.l 5 w 0 3.` l.C.P.J.H.M.H.Z.J.J.!.!.!.!.!.!.!.W.E.",
"R.J.J.V.M.Z.J.R.!.!.!.!.!.!.!.!.R.w.) G.G.n f u 1.~.G.I.I.G.g.S.S.S.G.I.I.G.Y.1.u g n G.G.( r.V.H.M.H.J.E.W.!.!.!.!.!.!.!.!.!.!.",
"J.J.V.M.Z.J.E.Q.!.!.!.!.!.!.!.!.m.{ S.D.S.l q q W Y.S.j.j.S.S.S.S.S.S.j.S.S.Y.W q r g F.D.j.{ v.M.H.J.E.!.!.!.!.!.!.!.!.!.!.!.!.",
"J.H.M.M.J.!.Q.!.!.!.!.!.!.!.!.!.m.) S.G.D.e 5 6 b ^.S.S.S.S.S.S.S.S.S.S.S.S.^.b 6 5 e S.G.S.( w.V.J.Q.!.!.!.W.W.!.!.!.!.!.!.!.!.",
"H.M.V.J.R.!.!.!.!.!.!.!.!.!.!.!.m.` D.f.} 5.6.6.4.t.D.S.S.g.L.I.I.G.g.S.S.D.i.4.6.6.5.[ f.F._ e.J.E.!.!.!.!.!.W.!.!.!.!.!.!.W.E.",
"V.V.H.Q.Q.!.!.!.!.R.W.!.!.!.!.Q.b.` F.s.! F.Y.^.u.[ G.S.S.L.H ; - H L.S.S.G.] u.^.~.F.! s.D.` c.!.!.!.!.!.R.R.W.!.!.W.Q.!.Q.E.J.",
"H.H.!.!.!.!.!.!.Q.R.!.!.!.Q.W.E.b._ D.s.R I.^./.p.' D.F.U.U.; @ @ ; U.U.D.D.' u./.^.L.R s.G.` m.!.!.!.!.!.!.R.!.!.!.!.E.E.P.J.J.",
"!.!.!.!.!.!.!.!.!.!.!.!.!.W.J.J.v._ D.g.t.N M v ^ d.G.h.J K - $ $ - K J S.D.d.^ v M N t.j.S.` m.!.!.!.!.!.!.!.!.!.!.Q.P.P.H.N.M.",
"!.!.!.!.!.!.!.!.!.!.!.!.!.J.J.H.w._ S.G.G.0 4 > b /.L.9.$ # & = = & # $ 7.L./.b > 4 9 L.I.S.` b.!.!.!.!.!.!.!.!.!.E.H.P.J.V.V.H.",
"!.!.!.!.!.!.!.!.!.!.!.!.Q.J.J.Z.e._ S.D.S.n f u / Y.L.7.* % * * * * % * 7.L.I.] u g n S.D.S.` B.!.!.!.!.!.!.!.!.!.E.H.P.M.N.H.P.",
"!.!.!.!.!.!.!.!.!.!.!.!.J.J.H.M.e._ S.D.S.l t q ^ Y.G.7.= * * * * * * = 7.G.~.W q t l S.S.S.` m.!.!.!.!.!.!.!.!.Q.P.P.V.M.V.P.E.",
"!.!.!.!.!.!.!.Q.!.!.!.R.J.J.V.H.v.` S.G.S.e 5 6 b ^.S.j.a.S.: % $ : F.a.S.S.^.v 3 5 e F.G.S.` m.!.!.!.!.!.!.Q.!.J.J.J.V.Z.J.E.Q.",
"!.!.!.!.!.Q.R.R.!.Q.P.J.J.V.V.V.b.` F.f.} 2.5.5.<.y.D.S.L.U.; # # ; U.L.S.F.i.<.5.5.2.} f.D.` b.!.!.!.J.!.!.Q.P.J.J.V.M.E.Q.P.Q.",
"!.!.!.!.!.!.!.!.Q.R.J.J.J.M.Z.H.b...K.s.! G.~.^.y.] G.S.S.G.8.K K 8.F.S.S.G.] i.^.~.G.! s.K...b.!.!.!.E.Q.!.P.J.P.H.M.V.E.W.E.!.",
"!.!.!.!.!.!.!.!.Q.J.J.P.H.M.H.R.B.T s.f.R I.^./.u.' G.S.S.g.I.U.U.I.g.S.S.G.] u./.^.L.R f.s.T m.!.!.!.!.!.Q.P.J.H.H.M.P.E.Q.!.!.",
"!.!.!.!.!.!.!.!.E.J.J.H.M.M.H.!.B.I 3.L.i.Q N M / d.S.S.S.S.S.S.S.S.S.S.S.D.s.^ M N Q i.K.3.I B.!.!.!.!.Q.E.J.J.Z.V.V.E.Q.!.!.!.",
"!.!.!.!.!.!.!.R.J.J.H.V.M.E.E.!.m.E <.k.S.9 4 > M /.S.D.S.D.D.D.D.S.D.D.D.S./.M 3 4 9 k.F.<.T m.!.!.!.!.P.J.J.V.M.V.E.!.W.!.!.!.",
"!.!.!.!.!.!.E.J.J.J.Z.V.H.W.!.!.B.2 h [ | z f t W I.S.S.S.S.S.S.F.S.S.S.S.F.I.W y d z | [ h D A.W.W.!.R.P.P.H.M.Z.H.!.!.!.!.!.!.",
"!.!.!.!.!.E.J.J.J.J.M.H.R.W.W.R.R.x.D x g w w 7 9 m } ] ] ] ] ' ] ] ] ] ] } m 9 7 7 w d x D x.T.W.W.R.J.H.P.H.M.J.E.!.!.!.!.!.!.",
"!.!.!.!.E.J.J.J.H.V.M.J.R.!.!.W.R.R.b.=.#.$.=.%.$.#.$.#.@.@.@.+.+.+.#.$.$.$.#.$.%.=.%.$.=.b.W.W.W.J.K.R.J.H.M.V.J.Q.W.!.!.!.!.!.",
"!.!.Q.E.J.J.J.H.V.V.H.J.!.!.!.Q.W.W.!.R.T.W.T.W.T.R.A.Z.Z.Z.n.n.N.V.A.R.T.R.T.R.R.R.R.T.R.Q.W.R.R.J.J.J.H.M.M.H.J.W.W.!.!.!.!.!.",
"!.Q.Q.J.J.J.H.M.M.Z.J.E.!.!.!.!.!.!.W.!.Q.Q.!.!.!.E.J.J.H.H.V.Z.J.R.!.!.!.!.!.!.!.Q.!.!.!.Q.Q.J.J.J.J.H.M.M.H.J.W.!.!.!.!.!.!.!.",
"!.Q.J.J.H.M.M.M.H.J.Q.Q.!.!.!.!.!.!.R.T.Q.!.!.!.E.J.H.M.V.V.Z.J.J.!.!.!.!.!.!.!.Q.R.E.!.!.Q.R.J.H.M.M.M.M.M.J.!.!.!.!.!.!.!.Q.R.",
"E.J.J.J.M.M.H.J.J.W.W.Q.!.!.!.!.!.!.!.!.!.!.!.E.J.H.M.M.Z.H.J.Q.E.!.!.!.!.!.!.!.!.Q.Q.!.!.R.J.J.M.M.V.J.H.H.Q.!.!.!.!.!.!.!.!.W.",
"J.J.H.M.Z.J.Q.W.!.!.!.!.!.!.!.!.!.!.!.!.!.!.E.J.J.M.M.J.J.R.Q.!.!.!.!.!.!.!.!.!.!.!.!.Q.P.J.J.V.M.V.H.J.!.!.!.!.!.!.!.!.!.!.!.Q.",
"J.H.M.M.J.Q.!.!.!.!.!.!.!.!.!.!.!.!.!.!.!.E.J.H.M.M.H.Q.W.!.!.!.!.!.!.!.!.!.!.!.!.Q.!.E.J.J.V.M.M.J.!.!.!.!.!.!.!.!.!.!.!.!.!.!.",
"H.V.V.H.J.Q.!.!.!.!.!.!.!.!.!.!.!.!.Q.E.J.J.H.V.M.Z.J.Q.!.!.!.!.!.!.!.!.!.!.!.!.!.P.J.J.H.M.V.M.J.E.!.!.!.!.!.!.!.!.!.!.!.!.!.R.",
"V.M.J.P.Q.!.!.!.!.E.!.!.!.!.!.!.!.!.R.P.H.Z.Z.M.H.E.W.!.!.!.W.R.W.!.!.!.!.!.Q.E.J.J.J.H.V.V.Z.J.J.!.!.!.!.!.E.!.!.!.!.!.Q.Q.R.J.",
"M.H.P.!.!.!.!.!.!.J.Q.!.!.!.!.!.!.J.H.H.M.M.Z.Z.Q.Q.!.!.!.!.Q.R.E.!.!.!.!.E.Q.P.J.H.M.M.V.Z.J.!.!.!.!.!.!.E.E.!.!.!.!.W.W.J.J.J.",
"!.!.!.!.!.!.!.!.!.!.!.!.!.Q.Q.J.H.M.M.Z.M.H.J.!.!.!.!.!.!.!.!.!.!.!.!.!.E.J.P.H.M.M.M.V.J.R.!.!.!.!.!.!.!.!.!.!.!.!.Q.R.J.H.V.N.",
"!.!.!.!.!.!.!.!.!.!.!.!.!.E.J.J.Z.M.H.H.J.E.Q.!.!.!.!.!.!.!.!.!.!.!.W.E.P.J.H.M.M.H.J.R.E.Q.!.!.!.!.!.!.!.!.!.!.!.Q.J.J.H.V.V.H.",
"!.!.!.!.!.!.!.!.!.!.!.!.!.P.J.Z.M.Z.J.E.!.!.!.!.!.!.!.!.!.!.!.!.!.!.!.E.J.H.H.V.H.R.Q.!.!.!.!.!.!.!.!.!.!.!.!.!.!.!.J.H.V.N.Z.J.",
"!.!.!.!.!.!.!.!.!.!.!.!.!.P.Z.M.M.H.E.!.!.!.!.!.!.!.!.!.!.!.!.!.!.!.E.E.H.V.M.H.J.Q.Q.!.!.!.!.!.!.!.!.!.!.!.!.!.Q.!.J.M.N.V.J.R.",
"!.!.!.!.!.!.!.Q.!.!.Q.!.J.J.M.Z.J.R.Q.!.!.!.!.!.!.!.!.!.Q.Q.!.!.Q.Q.E.J.J.M.J.J.Q.!.!.!.!.!.!.!.!.!.!.!.!.!.!.Q.E.P.J.M.H.J.E.Q.",
"!.!.!.!.!.!.R.!.!.!.Q.P.J.Z.M.V.R.Q.Q.W.!.!.!.!.!.!.!.!.Q.E.!.!.E.E.J.H.Z.V.J.J.Q.!.!.!.!.!.!.!.!.!.!.R.!.!.W.E.P.A.V.M.H.J.R.!.",
"!.!.!.!.!.!.J.Q.!.E.R.J.J.M.M.Z.!.R.Q.!.!.!.!.!.!.!.!.!.E.E.!.W.P.J.J.Z.M.Z.R.Q.J.!.!.!.!.!.!.!.!.!.E.R.W.!.E.J.P.H.M.M.H.!.J.!.",
"!.!.!.!.!.!.!.!.!.R.J.J.H.M.J.J.!.!.!.!.!.!.!.!.!.!.!.!.!.!.!.J.J.J.J.Z.Z.J.W.!.!.!.!.!.!.!.!.!.!.!.!.!.!.E.J.J.J.H.M.H.E.!.!.!.",
"!.!.!.!.!.!.!.!.E.P.J.H.M.M.J.E.!.!.!.!.!.!.!.!.!.!.!.!.!.!.W.J.J.J.V.V.V.R.!.!.!.!.!.!.!.!.!.!.!.!.!.!.!.R.J.J.Z.V.V.H.!.!.!.!.",
"!.!.!.!.!.!.!.!.Q.J.J.M.M.Z.J.!.!.!.!.!.!.!.!.!.!.!.!.!.!.!.E.J.J.Z.M.Z.H.!.!.!.!.!.!.!.!.!.!.!.!.!.!.!.E.P.J.V.V.V.Z.E.!.!.!.!.",
"!.!.!.!.!.!.!.Q.J.J.Z.M.Z.R.!.!.!.!.!.!.!.!.!.!.!.!.!.!.!.Q.J.J.H.M.Z.J.!.!.!.!.!.!.!.!.!.!.!.!.!.!.!.!.J.P.H.M.M.V.!.!.!.!.!.!.",
"!.!.!.!.!.!.Q.H.P.J.Z.Z.J.!.!.!.!.!.!.!.!.!.!.!.!.!.!.!.R.J.J.J.H.V.J.P.!.!.!.!.!.!.!.!.!.!.!.!.!.!.E.J.J.J.J.M.H.J.!.!.!.!.!.!.",
"!.!.!.Q.Q.Q.J.J.H.H.M.H.E.Q.!.!.!.!.!.!.!.!.!.!.!.!.Q.E.J.J.J.H.M.V.Q.Q.!.!.!.!.!.!.!.!.!.!.!.!.!.!.P.J.J.J.M.M.H.W.!.!.!.!.!.!.",
"!.!.!.Q.R.J.J.J.Z.M.Z.J.!.!.!.!.!.!.!.!.!.!.!.!.!.!.E.J.J.J.H.M.V.H.Q.!.!.!.!.!.!.!.!.!.!.!.!.!.Q.J.J.H.J.V.M.Z.R.!.!.!.!.!.!.!.",
"!.!.Q.R.J.J.J.V.M.M.H.J.!.!.!.!.!.!.!.W.!.!.!.!.!.E.P.J.J.H.V.M.H.J.Q.!.!.!.!.!.!.!.!.!.!.!.!.Q.J.J.H.J.M.M.V.J.R.!.!.!.!.!.!.!.",
"!.!.Q.J.H.M.V.V.V.J.P.Q.!.!.!.!.!.!.R.J.W.!.!.!.P.P.J.H.Z.V.V.H.J.Q.!.!.!.!.!.!.W.R.W.!.!.!.E.J.J.H.V.M.M.Z.R.R.Q.!.!.!.!.!.!.E.",
"!.R.J.J.M.M.H.Z.Z.R.Q.!.!.!.!.!.!.!.!.E.!.!.!.E.J.P.Z.M.V.H.H.H.Q.!.!.!.!.!.!.!.!.E.Q.!.!.W.P.H.H.M.V.H.J.A.R.!.!.!.!.!.!.!.!.!.",
"R.J.J.V.M.M.J.J.!.!.Q.!.!.!.!.!.!.!.!.!.!.!.E.E.H.Z.M.M.H.P.!.!.!.!.!.!.!.!.!.!.!.!.W.W.W.K.P.H.V.M.V.J.!.!.Q.!.!.!.!.!.!.!.!.Q.",
"R.J.M.M.H.R.!.!.!.!.!.!.!.!.!.!.!.!.!.W.Q.E.P.H.V.M.V.P.E.!.!.!.!.!.!.!.!.!.!.!.!.!.!.W.J.J.H.M.M.P.Q.!.!.!.!.!.!.!.!.!.!.!.!.!.",
"E.M.M.Z.J.!.!.!.!.!.!.!.!.!.!.!.!.!.!.E.J.J.H.V.M.M.J.Q.!.!.!.!.!.!.!.!.!.!.!.!.!.E.J.J.J.V.M.M.H.Q.!.!.!.!.!.!.!.!.!.!.!.!.!.!."
};
