/* XPM */
static char *result[] = {
/* columns rows colors chars-per-pixel */
"64 64 170 2 ",
"   c #030002",
".  c #190023",
"X  c #31463B",
"o  c #650078",
"O  c #515456",
"+  c #DB0020",
"@  c #E50022",
"#  c #FE022B",
"$  c #FC0027",
"%  c #FF0E36",
"&  c #FF133A",
"*  c #FF1B43",
"=  c #FF2E55",
"-  c #FF345A",
";  c #FF3C63",
":  c #1A00BD",
">  c #5C0088",
",  c #65008A",
"<  c #670090",
"1  c #796B9A",
"2  c #796BB9",
"3  c #1E00C6",
"4  c #1C00D5",
"5  c #1E00DD",
"6  c #2200CA",
"7  c #2407D8",
"8  c #1F00E6",
"9  c #1606FF",
"0  c #1A05FF",
"q  c #1416FF",
"w  c #2106E7",
"e  c #220CFF",
"r  c #2020FF",
"t  c #242CFF",
"y  c #2B2BFF",
"u  c #2B3CFF",
"i  c #213FFF",
"p  c #3131FF",
"a  c #3466D0",
"s  c #3645FF",
"d  c #3B46FF",
"f  c #3A49FF",
"g  c #3A55FF",
"h  c #2A4CFE",
"j  c #366DF8",
"k  c #434FFF",
"l  c #4353FF",
"z  c #4459FF",
"x  c #4E59FF",
"c  c #5D5DFF",
"v  c #5961FF",
"b  c #5267FF",
"n  c #5678FF",
"m  c #646AFF",
"M  c #6A76FF",
"N  c #A9008E",
"B  c #AA0093",
"V  c #9C2283",
"C  c #A5338E",
"Z  c #8C7D96",
"A  c #917591",
"S  c #FF638B",
"D  c #FF759E",
"F  c #FF79A3",
"G  c #7D97BC",
"H  c #5285D5",
"J  c #6191D1",
"K  c #7EADCF",
"L  c #568FE7",
"P  c #5F98FF",
"I  c #5C95FF",
"U  c #548FE6",
"Y  c #758FFF",
"T  c #7181FF",
"R  c #6397FF",
"E  c #689DFF",
"W  c #7692FF",
"Q  c #7897FF",
"!  c #7E9DFF",
"~  c #4BACFD",
"^  c #53ADFC",
"/  c #51A7F9",
"(  c #54B6FD",
")  c #6FA1FF",
"_  c #71A4FF",
"`  c #74A9FF",
"'  c #78ADFF",
"]  c #6ABEFC",
"[  c #7BB3FF",
"{  c #03C2FF",
"}  c #5CC7FC",
"|  c #6DDAFE",
" . c #67FAFC",
".. c #889094",
"X. c #92989B",
"o. c #8B8DA4",
"O. c #8F95A7",
"+. c #9B95AA",
"@. c #9697AA",
"#. c #999BB2",
"$. c #A98CAB",
"%. c #A1A0B0",
"&. c #AEB1B3",
"*. c #818FC2",
"=. c #8AAECE",
"-. c #85AEFF",
";. c #84A2FF",
":. c #94ABFF",
">. c #87B0FF",
",. c #8ABBFF",
"<. c #98B8FF",
"1. c #98B1FF",
"2. c #A3BDFF",
"3. c #B7B7FF",
"4. c #BBB5FF",
"5. c #FF91C8",
"6. c #C0B3FF",
"7. c #BCC7CC",
"8. c #B8CCD4",
"9. c #BED3D9",
"0. c #AAC9DB",
"q. c #8EC0FF",
"w. c #96CAFF",
"e. c #9ACBFF",
"r. c #95C4FF",
"t. c #98D3FF",
"y. c #B8C8FF",
"u. c #ACD4FF",
"i. c #ABDAFF",
"p. c #B4DAFF",
"a. c #BFDEFF",
"s. c #BDD7FF",
"d. c #BEE2FF",
"f. c #BFEFFF",
"g. c #C2CACE",
"h. c #C3CDD3",
"j. c #C5D5DA",
"k. c #CED5DA",
"l. c #C8D9DE",
"z. c #CADCE3",
"x. c #D4DCE1",
"c. c #CEE6ED",
"v. c #CAE3E9",
"b. c #D1E6ED",
"n. c #DCE6EA",
"m. c #D2E8EF",
"M. c #DAE5EA",
"N. c #C2E4FF",
"B. c #C8E7FF",
"V. c #C5EBFF",
"C. c #CCECFF",
"Z. c #D5EAF1",
"A. c #DBEEF4",
"S. c #D2EEFF",
"D. c #D2E7F0",
"F. c #CCF2FF",
"G. c #DFF0F5",
"H. c #D3F4FF",
"J. c #D5FFFF",
"K. c #DEFAFF",
"L. c #E2EAEF",
"P. c #E2EEF3",
"I. c #E4F1F6",
"U. c #E8F2F7",
"Y. c #E6F3F9",
"T. c #EAF3F8",
"R. c #E4FCFE",
"E. c #ECFFFE",
"W. c #F4FEFE",
"Q. c #F8FFFF",
/* pixels */
"W.T.T.T.T.T.T.T.T.T.T.T.T.U.A.A.m.c.m.m.G.A.U.Y.T.T.T.T.T.T.T.T.T.T.T.Y.G.G.Z.m.c.m.A.Z.U.T.T.T.T.T.T.T.T.T.T.T.T.T.G.A.A.Z.m.m.",
"T.T.T.T.T.T.T.T.T.T.T.T.T.A.A.m.c.c.A.G.U.T.T.T.T.T.T.T.T.T.T.T.T.T.Y.G.A.Z.c.c.m.A.I.T.T.T.T.T.T.T.T.T.T.T.T.T.T.U.G.G.m.c.c.A.",
"T.T.T.T.T.T.T.T.T.T.T.T.U.G.m.c.c.A.G.T.T.T.T.T.T.T.T.T.T.T.T.T.T.T.T.G.Z.c.c.Z.A.I.T.T.T.T.T.T.T.T.T.T.T.T.T.T.T.I.A.m.c.c.A.I.",
"T.T.T.T.T.T.T.T.T.T.T.U.G.G.m.c.n.A.I.T.T.T.T.T.T.T.T.T.T.T.T.T.T.T.I.n.A.c.m.G.T.T.T.T.T.T.T.T.T.T.T.T.T.T.T.T.I.A.A.m.m.A.P.U.",
"T.T.T.T.T.T.T.U.T.T.Y.A.A.m.c.m.A.A.U.T.T.T.T.T.T.T.T.T.T.I.T.T.I.G.A.A.c.c.A.G.I.T.T.T.T.T.T.T.T.T.U.U.U.U.T.I.A.A.A.c.n.A.I.T.",
"T.T.T.T.T.T.P.P.T.Y.I.A.A.c.c.m.T.L.I.U.T.T.T.T.T.T.T.T.I.I.T.T.I.A.A.m.c.c.G.I.A.T.T.T.T.T.T.T.T.T.U.A.U.T.I.A.A.A.c.c.G.I.A.I.",
"T.T.T.T.T.T.T.T.Y.I.A.A.A.c.m.G.T.T.T.T.T.T.T.T.T.T.T.T.U.U.T.I.A.A.A.m.Z.A.I.Y.T.T.T.T.T.T.T.T.T.T.T.U.T.U.A.A.A.A.c.A.A.T.T.T.",
"T.T.T.T.T.T.T.T.Y.A.A.A.m.b.m.Y.T.T.T.T.T.T.T.T.T.T.T.T.T.T.T.G.A.A.Z.c.m.P.Y.Y.T.T.T.T.T.T.T.T.T.T.T.T.T.I.A.A.A.Z.c.A.T.T.T.T.",
"T.T.T.T.T.T.T.Y.T.G.G.c.c.c.A.T.T.T.T.T.T.T.T.T.T.T.T.T.T.Y.Y.G.A.Z.c.m.Z.Y.T.T.T.T.T.T.T.T.T.T.T.T.T.T.T.G.A.A.Z.c.A.I.T.T.T.T.",
"T.T.T.T.T.T.T.G.Z.G.Z.c.c.Y.T.T.T.T.T.T.T.T.T.T.T.T.T.T.T.U.A.A.Z.c.c.A.T.T.T.T.T.T.T.T.T.T.T.T.T.T.T.I.G.A.A.Z.c.m.I.T.T.T.T.T.",
"T.T.T.T.T.Y.G.A.G.G.c.m.Z.U.T.T.T.T.T.T.T.T.T.T.T.T.T.T.U.A.A.A.D.c.A.G.T.T.T.T.T.T.T.T.T.T.T.T.T.T.Y.G.A.A.A.m.Z.A.Y.T.T.T.T.T.",
"T.T.T.Y.Y.Y.A.A.G.c.c.Z.G.Y.T.T.T.T.T.T.T.T.T.T.T.T.U.I.A.A.A.Z.c.D.A.Y.T.T.T.T.T.T.T.T.T.T.T.T.T.Y.I.A.A.A.A.c.G.G.T.T.T.T.T.T.",
"T.T.T.T.I.A.A.A.Z.c.c.A.Y.T.T.T.T.T.T.T.T.T.T.T.T.T.I.A.A.A.A.c.c.D.Y.T.T.T.T.T.T.T.T.T.T.T.Y.Y.Y.Y.A.A.A.Z.c.c.G.U.T.T.T.T.T.T.",
"T.T.T.U.A.A.A.Z.c.c.Z.G.T.T.T.T.T.T.T.T.T.T.T.T.T.I.A.A.A.A.c.c.Z.G.Y.T.T.T.T.T.T.T.T.T.T.T.U.U.Y.A.A.A.A.c.c.Z.I.T.T.T.T.T.T.T.",
"T.T.P.A.A.Z.Z.c.c.Z.A.T.T.T.T.T.T.T.I.I.T.T.Y.T.U.A.G.Z.m.m.c.Z.A.A.Y.T.T.T.T.T.T.U.U.T.T.T.U.I.A.A.Z.A.m.m.A.P.U.U.T.T.T.T.T.T.",
"Y.G.A.A.Z.c.c.c.Z.A.Y.T.T.T.T.T.T.T.I.A.T.T.Y.I.A.A.m.c.c.m.c.A.I.Y.Y.T.T.T.T.T.Y.U.P.Y.T.T.I.A.A.Z.c.Z.m.A.A.T.Y.Y.T.T.T.T.T.I.",
"A.A.A.c.c.m.A.P.T.T.T.T.T.T.T.T.T.T.T.T.T.T.P.A.A.Z.c.c.Z.A.U.T.T.T.T.T.T.T.T.T.T.T.T.T.Y.A.A.A.Z.c.Z.A.I.U.T.T.T.T.T.T.T.T.T.T.",
"A.A.m.c.D.A.U.Y.T.T.T.T.T.T.T.T.T.T.T.T.T.P.P.A.Z.c.c.b.j.g.g.g.g.g.g.k.L.T.T.T.T.T.T.Y.A.A.A.Z.c.Z.A.I.T.T.T.T.T.T.T.T.T.T.T.T.",
"A.Z.c.c.Z.T.T.T.T.T.T.T.T.T.T.T.T.T.T.Y.I.A.A.Z.c.c.Z.g.C V V V V V V C g.P.T.T.T.Y.I.A.A.A.Z.c.m.A.Y.T.T.T.T.T.T.T.T.T.T.T.T.T.",
"Z.c.m.A.P.T.T.T.T.T.T.T.T.T.T.T.T.T.P.A.A.A.Z.c.c.Z.h.A B B B B B B B B A k.I.T.I.A.A.A.G.Z.c.D.Z.U.T.T.T.T.T.T.T.T.T.T.T.T.U.G.",
"c.m.Z.T.Y.T.T.T.T.P.T.T.T.T.Y.Y.T.P.A.A.c.c.c.c.M.n.$.N , > , , , , , , N $.n.I.A.A.A.Z.D.c.A.P.T.T.T.T.T.P.P.T.T.T.T.T.T.T.G.A.",
"Z.Z.T.T.T.T.T.T.T.P.Y.T.T.T.Y.I.I.Z.Z.D.c.Z.Z.Z.L.L.Z o < < , , < < < < o Z Z.P.A.Z.c.c.Z.I.Y.Y.T.T.T.T.T.T.P.T.T.T.T.I.I.A.A.A.",
"T.T.T.T.T.T.T.T.T.T.T.T.T.U.A.A.A.c.b.D.b.j.8.k.L.L.J h     . . . .     i G z.j.8.8.j.c.P.Y.T.T.T.T.T.T.T.T.T.T.T.T.I.A.A.A.c.c.",
"T.T.T.T.T.T.T.T.T.T.T.T.T.A.A.Z.c.c.D.m.h./ ~ ( =.k.=.t.{ X O O O O X { t.K 8.K ~ ~ / h.U.T.T.T.T.T.T.T.T.T.T.T.T.I.A.A.A.m.c.m.",
"T.T.T.T.T.T.T.T.T.T.T.T.Y.A.A.D.c.D.M.7.n f p y h =.X.z :...7.g.g.7...:.l ..G h y p d H h.P.T.T.T.T.T.T.T.T.T.T.T.I.A.Z.c.c.m.I.",
"T.T.T.T.T.T.T.T.T.T.T.T.P.A.Z.c.D.b.7.( ,.0 4 6 f | a x l j &. . .&.j k x a | f 4 8 0 ,.( g.L.T.T.T.T.T.T.T.T.T.Y.G.A.m.m.c.G.I.",
"T.T.T.T.T.T.T.Y.T.T.T.G.A.A.m.m.M.0.~ C.B.b d u ;.R.A.H.H.C.d.N.N.a.C.H.H.S.K.;.u d b C.C.^ 0.L.T.T.U.T.T.T.T.U.A.A.A.c.Z.n.Y.T.",
"T.T.T.T.T.T.P.P.T.T.G.A.Z.b.b.m.x.] N.B.N.k r q Y K.N.d.d.N.N.N.N.N.N.N.N.d.K.Y q r f V.B.N.] x.T.T.U.G.U.T.T.G.A.A.c.c.G.Y.G.I.",
"T.T.T.T.T.T.T.T.T.A.A.A.A.c.m.Z.x.^ N.C.N.e 5 6 c R.N.N.N.N.N.N.N.N.N.d.N.N.R.v 6 5 0 N.C.N.^ x.T.T.T.I.T.T.G.A.G.G.c.c.Y.Y.I.T.",
"T.T.T.T.T.T.T.T.U.A.A.G.Z.c.Z.A.x.( B.p.[ <.2.r.>.q.B.N.N.a.F.H.H.F.a.N.N.B.r.>.2.2.<.[ p.B.( x.T.T.T.T.Y.I.A.A.Z.m.c.G.I.Y.T.T.",
"T.T.T.T.T.T.T.T.U.A.A.Z.c.c.A.T.x.( B.u.R V.K.E.w.' C.N.N.C.S - - S F.N.N.C.` w.E.K.V.R u.B.( x.T.T.T.T.Y.I.G.G.c.c.c.I.Y.T.T.T.",
"T.T.T.T.T.T.T.P.A.A.Z.c.c.G.U.U.x.( B.u.I F.W.W.t._ C.N.J.J.- + + - J.J.N.D._ t.W.E.H.I u.B.( x.T.T.T.T.I.G.Z.c.c.m.I.T.T.T.T.T.",
"T.T.T.T.Y.Y.I.A.A.A.m.m.Z.P.T.T.x.( N.d.q.M m c Q i.F.s.D D = % % = F D s.C.i.Q c m M ,.d.N.( x.U.T.T.I.G.A.Z.c.c.A.Y.T.T.T.T.T.",
"T.T.T.T.Y.I.G.A.A.Z.m.Z.P.U.T.T.x.( N.C.C.0 4 : v W.F.6.# @ % * & % @ # 6.F.W.v : 4 9 C.C.N.( x.U.T.I.A.G.G.Z.c.n.G.T.T.T.T.T.T.",
"T.T.Y.T.U.A.A.A.A.c.m.Z.Y.T.T.T.x.( N.B.N.b f u ! H.F.4.% $ & & & & # & 4.F.H.! u f b N.B.N.( x.T.G.n.G.G.m.c.c.G.Y.T.T.T.T.T.T.",
"T.T.Y.U.A.A.G.Z.D.c.D.A.T.T.T.T.x.( N.N.N.k t q W K.C.3.* & & & & & & * 3.F.K.W q t k N.B.N.( x.G.G.Z.G.m.c.c.m.G.Y.T.T.T.T.T.T.",
"T.T.U.A.A.A.Z.c.c.Z.A.P.T.T.T.T.x.( N.C.N.e 5 3 v E.d.N.y.V.; # # ; V.y.N.N.E.c 3 5 e N.F.d.( l.A.Z.A.Z.c.c.m.G.I.T.T.T.T.T.T.T.",
"T.T.A.A.Z.c.c.c.Z.A.U.Y.T.T.T.T.x.( B.p.[ :.1.1.-.w.B.N.F.J.- @ @ - J.F.N.B.w.' 1.1.:.[ p.N.( l.A.c.c.c.c.c.A.T.T.T.T.T.T.T.T.P.",
"I.A.A.Z.c.c.m.A.A.U.Y.T.T.T.T.T.x.} A.u.R F.R.E.w.` B.N.d.V.5.F F 5.V.N.N.C.` w.E.E.C.R u.S.} 9.c.c.m.Z.G.A.I.T.T.T.T.T.T.T.T.I.",
"G.A.Z.c.m.A.Y.U.T.T.T.T.T.T.T.T.x.L u.p.P F.W.Q.e._ C.N.N.a.H.J.J.F.s.N.N.S._ e.W.E.F.P p.u.U 9.c.m.Z.G.Y.Y.T.T.T.T.T.T.T.T.T.T.",
"A.Z.c.c.A.Y.Y.Y.T.T.T.T.T.T.T.T.x.J ,.C.r.T M m Q i.B.N.N.d.N.N.N.N.N.N.N.B.u.Q m M T r.C.,.J 9.c.n.T.T.T.T.T.T.T.T.T.T.T.T.T.T.",
"Z.c.D.Z.A.Y.T.T.T.T.T.T.T.T.T.U.x.L -.f.N.9 5 : m W.N.B.B.B.B.B.B.B.B.B.V.B.W.m : 4 9 d.f.-.U 8.G.I.T.T.T.T.T.T.T.T.T.T.T.T.T.I.",
"c.c.G.G.Y.T.T.T.T.U.T.T.T.T.T.U.n.Z f ' _ g s t Y H.B.B.N.N.N.N.N.f.N.N.N.N.S.Y t s z ) [ g 2 z.G.Y.T.T.T.T.I.T.T.T.T.T.T.Y.G.n.",
"c.Z.G.T.T.T.T.T.Y.P.Y.T.T.T.U.U.P.h.1 l f 8 7 7 9 n [ _ ` ` ` ` _ ` ` ` ` [ n 9 7 w 8 f z 1 7.L.P.I.T.T.T.I.I.T.T.T.T.T.U.G.Z.G.",
"T.T.T.T.T.T.T.T.T.T.T.T.T.T.P.Z.Z.v.8.@.o.@.%.%.%.+.+.+.+.+.+.+.+.+.+.+.+.O.O.O.O.O.O.o.#.j.L.T.U.U.T.T.T.T.T.T.T.T.U.G.G.m.m.c.",
"T.T.T.T.T.T.T.T.T.T.T.T.T.Y.A.A.c.c.c.m.m.n.P.P.L.P.L.L.L.P.L.L.L.P.L.P.Z.m.b.z.c.m.b.M.L.U.U.U.T.T.T.T.T.T.T.T.T.U.A.G.m.c.b.m.",
"T.T.T.T.T.T.T.T.T.T.T.T.T.P.A.c.c.c.A.I.T.T.T.T.T.T.T.T.T.T.T.T.T.T.T.I.A.Z.m.m.m.G.U.T.T.T.T.T.T.T.T.T.T.T.T.T.T.Y.A.m.c.c.m.n.",
"T.T.T.T.T.T.T.T.T.T.T.Y.Y.I.D.c.c.Z.I.T.T.T.T.T.T.T.T.T.T.T.T.T.T.T.Y.I.A.b.c.Z.G.Y.T.T.T.T.T.T.T.T.T.T.T.T.T.T.Y.Y.A.c.c.c.G.I.",
"T.T.T.T.T.T.T.T.T.T.T.U.A.A.c.m.A.A.T.T.T.T.T.T.T.T.T.T.T.T.T.T.T.I.G.A.A.c.A.A.Y.T.T.T.T.T.T.T.T.T.T.T.T.T.T.Y.I.G.A.c.m.A.U.T.",
"T.T.T.T.T.T.I.I.T.T.Y.G.A.c.c.c.U.P.T.T.T.T.T.T.T.T.T.T.U.I.T.T.I.I.A.Z.m.c.A.A.I.T.T.T.T.T.T.T.T.T.T.P.T.T.U.I.G.Z.b.c.Z.A.A.T.",
"T.T.T.T.T.T.P.T.T.T.I.A.G.c.c.m.T.I.P.T.T.T.T.T.T.T.T.T.I.I.T.U.G.G.A.Z.c.m.P.I.A.T.T.T.T.T.T.T.T.T.U.L.U.U.A.G.G.m.b.m.Z.T.A.T.",
"T.T.T.T.T.T.T.T.U.L.A.A.Z.c.n.G.T.T.T.T.T.T.T.T.T.T.T.T.T.Y.T.A.A.A.A.c.Z.A.T.T.T.T.T.T.T.T.T.T.T.T.T.T.U.I.G.A.G.m.b.Z.I.T.T.T.",
"T.T.T.T.T.T.T.Y.I.G.A.G.c.c.A.I.T.T.T.T.T.T.T.T.T.T.T.T.T.T.U.A.A.A.m.c.m.U.T.T.T.T.T.T.T.T.T.T.T.T.T.T.T.I.A.G.m.c.b.A.T.T.T.T.",
"T.T.T.T.T.T.Y.Y.I.G.Z.c.c.m.G.Y.T.T.T.T.T.T.T.T.T.T.T.T.T.T.I.A.A.m.c.c.m.T.T.T.T.T.T.T.T.T.T.T.T.T.T.T.I.A.A.Z.m.c.m.P.T.T.T.T.",
"T.T.T.T.T.T.T.Y.G.A.m.c.c.I.T.T.T.T.T.T.T.T.T.T.T.T.T.T.T.I.A.A.Z.c.m.G.T.T.T.T.T.T.T.T.T.T.T.T.T.T.T.T.A.G.n.c.c.b.T.T.T.T.T.T.",
"T.T.T.T.T.T.P.P.A.A.c.c.G.Y.T.T.T.T.T.T.T.T.T.T.T.T.T.T.P.A.A.A.Z.c.A.G.T.T.T.T.T.T.T.T.T.T.T.T.T.T.Y.A.A.A.Z.c.Z.A.T.T.T.T.T.T.",
"T.T.T.Y.Y.P.A.A.A.m.c.Z.I.T.T.T.T.T.T.T.T.T.T.T.T.T.Y.I.A.A.A.Z.c.m.Y.Y.Y.T.T.T.T.T.T.T.T.T.T.T.T.Y.A.A.A.Z.b.m.Z.U.T.T.T.T.T.T.",
"T.T.T.Y.Y.A.A.Z.m.c.c.A.Y.T.T.T.T.T.T.T.T.T.T.T.T.Y.P.A.A.A.Z.c.c.Z.Y.T.Y.T.T.T.T.T.T.T.T.T.T.T.I.A.A.A.A.b.c.D.P.T.T.T.T.T.T.T.",
"T.T.T.P.A.A.A.m.c.c.Z.G.T.T.T.T.T.T.T.T.T.T.T.T.T.T.A.A.A.A.c.c.A.A.Y.T.T.T.T.T.Y.T.T.T.T.T.T.T.A.A.A.Z.b.c.m.Z.P.T.T.T.T.T.T.T.",
"T.T.Y.A.D.b.m.m.c.A.G.Y.T.T.T.T.T.T.I.A.T.T.T.T.P.A.A.Z.Z.c.c.Z.A.I.T.T.T.T.T.T.T.P.Y.T.T.T.P.P.A.A.D.c.c.D.P.P.Y.T.T.T.T.T.Y.U.",
"T.P.A.A.c.c.Z.m.m.A.Y.T.T.T.T.T.T.T.T.U.T.Y.T.P.A.A.Z.c.c.Z.Z.A.Y.T.T.T.T.T.T.T.T.I.Y.T.Y.Y.A.A.Z.c.D.D.Z.A.P.U.T.T.T.T.T.T.T.T.",
"P.P.Z.c.c.m.A.A.T.T.T.T.T.T.T.T.T.T.T.T.T.Y.I.A.A.D.c.c.A.P.Y.Y.T.T.T.T.T.T.T.T.T.T.T.T.U.A.A.Z.c.c.D.P.T.T.U.T.T.T.T.T.T.T.T.T.",
"G.A.c.c.Z.P.T.T.T.T.T.T.T.T.T.T.T.T.T.Y.T.P.A.A.m.c.c.A.P.T.T.T.T.T.T.T.T.T.T.T.T.T.Y.I.A.A.D.c.c.I.I.Y.T.T.T.T.T.T.T.T.T.T.T.T.",
"I.c.D.Z.A.T.Y.T.T.T.T.T.T.T.T.T.T.T.Y.I.P.A.G.c.c.c.A.U.T.T.T.T.T.T.T.T.T.T.T.T.Y.I.P.A.A.D.c.c.Z.Y.T.Y.T.T.T.T.T.T.T.T.T.T.T.T."
};
