/* XPM */
static char *result[] = {
/* columns rows colors chars-per-pixel */
"64 64 173 2 ",
"   c #030002",
".  c #190023",
"X  c #2E443A",
"o  c #650078",
"O  c #4B5254",
"+  c #474F51",
"@  c #DB0020",
"#  c #E50022",
"$  c #FE022B",
"%  c #FC0027",
"&  c #FF0E36",
"*  c #FF133A",
"=  c #FF1B43",
"-  c #FF2E55",
";  c #FF345A",
":  c #FF3C63",
">  c #1A00BD",
",  c #5C0088",
"<  c #65008A",
"1  c #670090",
"2  c #7E6EBB",
"3  c #1E00C6",
"4  c #1C00D5",
"5  c #1E00DD",
"6  c #2200CA",
"7  c #2408D8",
"8  c #1F00E6",
"9  c #1706FF",
"0  c #1A05FF",
"q  c #1416FF",
"w  c #2207E8",
"e  c #220CFF",
"r  c #2020FF",
"t  c #242CFF",
"y  c #2B2BFF",
"u  c #2B3CFF",
"i  c #213FFF",
"p  c #3131FF",
"a  c #3767D2",
"s  c #3645FF",
"d  c #3B46FF",
"f  c #3A49FF",
"g  c #3A55FF",
"h  c #2B4DFE",
"j  c #346DF8",
"k  c #434FFF",
"l  c #4353FF",
"z  c #4459FF",
"x  c #4E59FF",
"c  c #5D5DFF",
"v  c #5961FF",
"b  c #5267FF",
"n  c #5678FF",
"m  c #646AFF",
"M  c #6A76FF",
"N  c #A9008E",
"B  c #AA0093",
"V  c #9B2283",
"C  c #A3328D",
"Z  c #836F9D",
"A  c #8D7E97",
"S  c #8B738F",
"D  c #FF638B",
"F  c #FF759E",
"G  c #FF79A3",
"H  c #5081D9",
"J  c #5E90D0",
"K  c #6191D0",
"L  c #588FE8",
"P  c #5E97FF",
"I  c #5991E8",
"U  c #758FFF",
"Y  c #7181FF",
"T  c #6397FF",
"R  c #689DFF",
"E  c #7692FF",
"W  c #7B9AFF",
"Q  c #4CACFD",
"!  c #53ACFC",
"~  c #4CB3F9",
"^  c #54B6FD",
"/  c #71A4FF",
"(  c #74A9FF",
")  c #78ADFF",
"_  c #6ABEFC",
"`  c #7BB3FF",
"'  c #6FA1FF",
"]  c #03C2FF",
"[  c #5DC7FD",
"{  c #6EDBFE",
"}  c #5DF5F8",
"|  c #848E91",
" . c #92989C",
".. c #8D8FA5",
"X. c #9B94AA",
"o. c #9794A9",
"O. c #A09CAD",
"+. c #AA8CAB",
"@. c #A4A0B3",
"#. c #A8AFB2",
"$. c #A4ADAF",
"%. c #8290C2",
"&. c #8EA7C0",
"*. c #89B3D3",
"=. c #8CADD5",
"-. c #ABBDC3",
";. c #B0BFC5",
":. c #85AEFF",
">. c #84A2FF",
",. c #94ABFF",
"<. c #8ABBFF",
"1. c #87B0FF",
"2. c #98B5FF",
"3. c #A3BDFF",
"4. c #B9B6FF",
"5. c #FF91C8",
"6. c #C0B3FF",
"7. c #B9C7CC",
"8. c #B4CCDA",
"9. c #BBD0D7",
"0. c #BCD1D8",
"q. c #AEC1C7",
"w. c #8EC0FF",
"e. c #96CAFF",
"r. c #9ACBFF",
"t. c #95C4FF",
"y. c #98D3FF",
"u. c #B8C8FF",
"i. c #ACD4FF",
"p. c #ABDAFF",
"a. c #B4DAFF",
"s. c #BFDEFF",
"d. c #BDD7FF",
"f. c #BEE2FF",
"g. c #BFEFFF",
"h. c #C3CACE",
"j. c #C4CCD1",
"k. c #CBD3D7",
"l. c #CED5DA",
"z. c #C6D6DB",
"x. c #D0D8DD",
"c. c #CADBE2",
"v. c #D5DDE2",
"b. c #CEE6ED",
"n. c #CBE4EA",
"m. c #D9E1E6",
"M. c #D1E7ED",
"N. c #DDE6EA",
"B. c #D2E8EF",
"V. c #DBE8ED",
"C. c #C2E4FF",
"Z. c #C8E7FF",
"A. c #C5EBFF",
"S. c #CCECFF",
"D. c #D5EAF1",
"F. c #DBEEF4",
"G. c #D2EEFF",
"H. c #D2E7F0",
"J. c #CCF2FF",
"K. c #DFF0F5",
"L. c #D3F4FF",
"P. c #D5FFFF",
"I. c #DEFAFF",
"U. c #E2EAEF",
"Y. c #E3EEF3",
"T. c #E4F1F6",
"R. c #E8F2F7",
"E. c #E6F3F9",
"W. c #EAF3F8",
"Q. c #E4FCFE",
"!. c #ECFFFE",
"~. c #F4FEFE",
"^. c #F8FFFF",
/* pixels */
"~.W.W.W.W.W.W.W.W.W.W.W.W.R.F.F.B.b.B.D.K.K.T.W.W.W.W.W.W.W.W.W.W.W.W.E.K.K.D.B.b.b.K.V.T.E.W.W.W.W.W.W.W.W.W.W.W.W.T.F.F.D.b.B.",
"W.W.W.W.W.W.W.W.W.W.W.W.W.F.F.B.b.b.D.K.T.W.W.W.W.W.W.W.W.W.W.W.W.W.W.K.F.D.b.b.B.F.T.W.W.W.W.W.W.W.W.W.W.W.W.W.W.R.K.K.B.b.b.F.",
"W.W.W.W.W.W.W.W.W.W.W.W.R.K.B.b.b.F.F.W.W.W.W.W.W.W.W.W.W.W.W.W.W.W.W.K.K.b.b.D.F.T.W.W.W.W.W.W.W.W.W.W.W.W.W.W.W.K.F.B.b.b.F.T.",
"W.W.W.W.W.W.W.W.W.W.W.R.K.K.B.b.V.F.R.W.W.W.W.W.W.W.W.W.W.W.W.W.W.W.T.V.D.b.b.F.R.W.W.W.W.W.W.W.W.W.W.W.W.W.W.W.T.F.F.B.B.F.Y.W.",
"W.W.W.W.W.W.W.R.W.W.R.F.F.B.b.B.F.F.R.W.W.W.W.W.W.W.W.W.W.R.W.W.E.K.F.D.b.b.F.K.R.W.W.W.W.W.W.W.W.W.E.T.W.W.E.T.F.F.F.b.V.F.R.W.",
"W.W.W.W.W.W.Y.Y.W.T.T.F.F.b.b.B.W.V.T.W.W.W.W.W.W.W.W.W.T.Y.W.E.E.K.F.B.b.b.K.T.F.R.W.W.W.W.W.W.W.W.R.K.W.W.R.F.F.F.b.b.F.T.F.T.",
"W.W.W.W.W.W.W.W.E.K.F.K.F.b.B.K.W.W.W.W.W.W.W.W.W.W.W.W.W.R.W.T.F.F.F.D.D.F.T.E.R.W.W.W.W.W.W.W.W.W.W.W.W.T.F.F.F.F.b.F.F.W.R.W.",
"W.W.W.W.W.W.W.W.E.K.F.F.B.b.B.R.W.W.W.W.W.W.W.W.W.W.W.W.W.W.W.K.F.F.D.b.M.F.W.W.W.W.W.W.W.W.W.W.W.W.W.W.W.T.F.F.K.D.b.F.W.W.W.W.",
"W.W.W.W.W.W.W.E.E.K.F.D.b.D.D.W.W.W.W.W.W.W.W.W.W.W.W.W.W.W.T.K.F.B.b.B.D.W.W.W.W.W.W.W.W.W.W.W.W.W.W.E.W.K.K.F.D.b.F.T.W.W.W.W.",
"W.W.W.W.W.W.W.K.F.K.D.b.b.K.W.W.W.W.W.W.W.W.W.W.W.W.W.W.W.T.F.F.D.b.b.F.E.W.W.W.W.W.W.W.W.W.W.W.W.W.W.T.K.K.D.D.b.B.T.W.W.W.W.W.",
"W.W.W.W.W.W.K.F.F.K.b.D.F.E.W.W.W.W.W.W.W.W.W.W.W.W.W.W.T.F.F.F.H.b.F.K.W.W.W.W.W.W.W.W.W.W.W.W.W.W.E.K.F.F.F.b.D.F.E.W.W.W.W.W.",
"W.W.W.W.E.E.F.F.F.b.b.D.F.E.W.W.W.W.W.W.W.W.W.W.W.W.E.T.F.F.F.F.b.b.F.E.W.W.W.W.W.W.W.W.W.W.W.W.W.E.E.F.F.F.F.b.F.K.W.W.W.W.W.W.",
"W.W.W.W.E.F.F.F.D.b.b.F.E.W.W.W.W.W.W.W.W.W.W.W.W.W.T.F.F.F.F.b.b.H.E.W.W.W.W.W.W.W.W.W.W.W.W.W.E.R.F.F.F.F.b.b.K.R.W.W.W.W.W.W.",
"W.W.W.T.F.F.F.D.b.b.D.K.W.W.W.W.W.W.W.W.W.W.W.W.W.R.K.F.F.F.b.b.H.K.E.W.W.W.W.W.W.W.W.W.W.W.E.R.R.F.K.F.F.b.b.D.T.W.W.W.W.W.W.W.",
"W.W.K.F.F.D.D.b.b.D.F.R.W.W.W.W.W.W.T.T.E.W.W.W.T.F.F.D.B.M.b.D.F.F.W.W.W.W.W.W.W.T.R.W.W.R.R.T.F.F.D.D.M.B.D.K.R.R.W.W.W.W.W.W.",
"W.K.F.F.b.b.b.B.D.F.R.W.W.W.W.W.W.W.T.K.W.W.W.T.F.F.B.b.b.B.b.F.E.W.W.W.W.W.W.W.E.R.T.W.W.R.K.F.F.D.b.D.B.F.F.W.W.W.W.W.W.W.W.T.",
"F.F.F.b.b.M.F.Y.W.W.W.W.W.W.W.W.W.W.W.W.W.W.T.F.K.b.b.n.F.K.T.W.W.W.W.W.W.W.W.W.W.R.W.W.R.F.F.F.D.b.D.F.T.W.W.W.W.W.W.W.W.W.W.W.",
"F.F.M.b.D.F.T.W.W.W.W.W.W.W.W.W.W.W.W.W.W.Y.F.F.D.b.b.K.K.T.W.W.W.W.W.W.W.W.W.W.W.W.W.E.F.F.K.D.b.D.F.T.W.W.W.W.W.W.W.W.W.W.W.W.",
"F.D.b.b.F.W.W.W.W.W.W.W.W.W.W.W.W.W.W.E.T.F.F.D.b.b.F.R.E.W.W.W.W.W.W.W.W.W.W.W.W.R.K.K.F.F.D.b.b.F.W.W.W.W.W.W.W.W.W.W.W.W.W.W.",
"D.b.b.F.F.W.W.W.W.W.W.W.W.W.W.W.W.W.Y.F.F.F.M.b.b.D.F.R.W.W.W.W.W.W.W.W.W.W.W.W.T.F.F.F.K.D.b.B.F.T.W.W.W.W.W.W.W.W.W.W.W.W.E.K.",
"b.M.D.R.W.W.W.W.W.Y.R.W.W.W.W.W.W.T.F.F.b.b.b.b.B.T.R.W.W.W.E.T.T.W.W.W.W.W.W.R.F.K.F.D.B.b.K.F.R.W.W.W.W.R.V.W.W.W.W.W.W.W.T.F.",
"D.D.W.W.W.W.W.W.W.Y.E.W.W.W.E.T.K.D.D.H.b.D.D.D.R.W.E.W.W.W.W.E.R.E.W.W.E.E.R.F.D.D.b.b.B.K.E.W.W.W.W.W.R.R.T.W.W.W.W.T.T.F.F.D.",
"W.W.W.W.W.W.W.W.W.W.W.W.W.E.F.F.D.b.b.H.D.D.F.W.W.W.W.W.W.W.W.W.W.W.W.W.T.F.F.b.b.B.D.D.F.E.W.W.W.W.W.W.W.W.W.W.W.W.T.F.F.F.b.b.",
"W.W.W.W.W.W.W.W.W.W.W.W.W.F.F.D.H.H.D.F.E.W.W.W.W.W.W.W.W.W.W.W.W.W.W.Y.K.K.b.b.b.K.K.E.R.W.W.W.W.W.W.W.W.W.W.W.W.T.F.F.F.B.B.B.",
"W.W.W.W.W.W.W.W.W.W.W.W.W.F.F.H.b.H.F.K.W.W.W.W.W.W.W.W.W.W.W.W.W.W.W.T.D.D.b.D.F.T.R.W.W.W.W.W.W.W.W.W.W.W.W.W.W.T.F.D.b.b.B.T.",
"W.W.W.W.W.W.W.W.W.W.W.W.F.F.H.b.H.F.T.W.W.W.W.W.W.W.W.W.W.W.W.W.W.W.T.K.D.b.B.D.F.W.W.W.W.W.W.W.W.W.W.W.W.W.W.W.E.K.K.b.B.b.K.T.",
"W.W.W.W.W.W.E.W.W.W.W.F.F.F.M.M.F.Y.W.W.W.W.W.W.W.W.W.W.W.W.W.W.W.W.T.K.D.b.K.K.W.W.W.W.W.W.W.W.W.W.W.W.W.W.E.R.F.F.F.b.B.K.E.W.",
"W.W.W.W.W.W.F.R.W.W.T.F.F.M.M.M.E.F.T.W.W.W.W.W.W.W.W.U.k.7.h.h.7.7.7.7.c.b.F.T.F.W.W.W.W.W.W.W.W.W.R.K.R.W.R.K.F.F.b.b.K.E.V.E.",
"W.W.W.W.W.W.R.W.W.F.K.F.F.b.B.F.W.T.W.W.W.W.W.W.W.W.R.h.C V V V V V V C q.v.K.Y.K.W.W.W.W.W.W.W.W.W.W.T.E.W.T.F.K.F.b.b.T.E.T.W.",
"W.W.W.W.W.W.W.W.R.F.F.K.D.b.D.F.W.W.W.W.W.W.W.W.W.Y.l.S B B B B B B B B 2 h.Y.W.W.W.W.W.W.W.W.W.W.W.W.W.W.T.F.F.D.B.b.K.T.W.W.W.",
"W.W.W.W.W.W.W.W.T.F.F.D.b.b.D.W.W.W.W.W.W.W.W.W.W.U.+.B < < < < < < < < N +.U.W.W.W.W.W.W.W.W.W.W.W.W.W.E.T.K.F.b.b.B.T.E.W.W.W.",
"W.W.W.W.W.W.W.Y.F.F.D.b.b.K.R.W.W.W.W.W.W.W.W.W.W.N.A o 1 1 1 1 1 1 < < o | N.W.W.W.W.W.W.W.W.W.W.W.W.W.T.K.D.B.b.B.T.E.W.W.W.W.",
"W.W.W.W.W.E.K.F.F.F.B.M.B.R.W.W.W.W.W.W.Y.v.k.l.N.N.%.i     . . . .     i ..F.V.l.k.v.Y.W.W.W.W.W.W.W.Y.K.F.D.b.b.F.E.W.W.W.W.W.",
"W.W.W.W.W.E.F.F.F.F.b.D.F.W.W.W.W.W.W.U.h.! Q ^ =.l.*.y.] X O O O + X ] y.*.c.=.! Q ! j.Y.W.W.W.W.W.Y.Y.F.K.D.b.V.K.W.W.W.W.W.W.",
"W.W.W.W.T.F.K.F.F.b.b.F.W.W.W.W.W.W.R.j.a k p y h &. .g ,.| ;.-.#.q.| ,.z  .&.h y p k a j.Y.W.W.W.F.F.F.K.D.b.B.F.R.W.W.W.W.W.W.",
"W.W.W.T.F.F.F.D.b.b.B.F.W.W.W.W.W.U.j.^ <.e 8 4 f { a x k j $.} } #.j z b a { p 7 w e <.^ h.U.R.Y.F.F.F.B.b.b.B.K.E.W.W.W.W.W.W.",
"W.W.R.F.F.F.D.b.b.D.F.Y.W.W.W.W.U.8.! G.Z.b f u >.Q.S.L.L.S.s.C.C.C.S.L.L.G.Q.>.u d b S.S.! 8.B.F.F.F.D.b.b.B.F.T.W.W.W.W.W.W.W.",
"W.E.F.F.D.b.b.b.D.F.T.W.W.W.W.W.m._ C.Z.Z.k r q U I.C.f.s.C.C.C.C.C.C.C.C.C.I.U q r k C.Z.f._ c.F.b.b.b.b.b.F.W.W.W.W.W.W.W.W.T.",
"K.F.F.D.b.b.B.F.F.E.E.W.W.W.W.W.v.! C.S.Z.e 5 6 v Q.C.C.C.f.C.C.C.C.C.f.C.C.Q.v 6 5 0 C.S.C.! z.b.b.H.F.F.F.E.W.W.W.W.W.W.W.W.T.",
"K.K.D.b.B.K.E.R.W.W.W.W.W.W.W.W.v.^ Z.a.) 2.3.r.1.t.Z.f.C.C.J.L.L.S.s.C.C.Z.t.1.3.r.2.) a.Z.~ 9.b.b.D.F.E.W.E.W.W.W.W.W.W.W.W.R.",
"F.D.b.b.F.E.W.W.W.W.W.W.W.W.W.W.v.^ Z.i.T A.I.!.e.) S.C.C.J.D - - D J.C.C.S.) e.!.Q.A.T i.Z.~ 9.b.V.W.W.W.W.W.W.W.W.W.W.W.W.W.W.",
"D.b.b.D.F.W.W.W.W.W.W.W.W.W.W.W.v.^ Z.i.P L.!.~.y./ Z.A.P.P.: @ @ : P.P.Z.Z./ y.~.!.J.P i.Z.~ 9.K.T.W.W.W.W.W.W.W.W.W.W.W.W.R.T.",
"b.b.K.K.E.W.W.W.W.T.W.W.W.W.W.W.v.^ Z.f.w.M m c E p.S.d.F G - $ $ - G F d.J.p.E c m M w.f.Z.^ z.K.T.W.W.W.W.T.W.W.W.W.W.W.W.T.V.",
"b.D.K.W.E.W.W.W.W.F.E.W.W.W.W.W.x.^ C.S.S.0 4 > v ~.J.6.% # & = = & # % 6.J.~.v > 4 0 J.S.C.~ v.W.W.W.W.W.T.K.W.W.W.W.R.E.K.D.F.",
"W.W.W.W.W.W.W.W.W.W.W.W.W.W.R.F.z.~ C.Z.C.b s u W L.L.4.* % * * * * % * 4.J.L.W u s b C.Z.C.^ x.W.W.W.W.W.W.W.W.W.E.E.K.K.B.M.b.",
"W.W.W.W.W.W.W.W.W.W.W.W.W.E.F.F.9.~ C.Z.C.l t q E I.J.4.= * * * * * * = 4.S.I.E q t k C.C.C.^ v.W.W.W.W.W.W.W.W.W.R.K.D.B.b.M.B.",
"W.W.W.W.W.W.W.W.W.W.W.W.W.F.F.b.9.~ C.S.C.e 4 6 v !.C.C.u.A.: $ % : A.u.f.C.!.v 3 4 e Z.S.C.^ v.W.W.W.W.W.W.W.W.W.E.V.K.b.n.B.V.",
"W.W.W.W.W.W.W.W.W.W.W.W.W.Y.b.b.9.~ Z.a.` ,.2.2.:.t.A.C.J.P.; @ # ; P.J.C.Z.e.:.2.2.,.` a.Z.^ v.W.W.W.W.W.W.W.W.W.E.K.b.b.M.F.E.",
"W.W.W.W.W.W.W.R.W.W.W.R.F.F.b.D.z.[ G.i.T A.Q.!.r.( Z.C.C.A.5.G G 5.A.C.C.Z.) e.!.Q.J.T i.G.[ v.W.W.W.W.W.W.W.E.T.K.F.b.D.F.R.W.",
"W.W.W.W.W.W.T.R.W.W.W.F.F.b.b.b.x.L i.a.T J.!.~.r.( S.C.C.d.L.P.P.L.s.C.C.S./ r.~.!.J.P a.i.I v.W.W.W.T.W.W.E.T.K.K.B.b.D.F.F.W.",
"W.W.W.W.W.W.Y.Y.R.W.T.F.F.b.b.B.m.J <.S.e.Y M m W i.Z.C.C.C.f.C.C.C.C.C.C.Z.p.W m M Y r.G.<.K m.W.W.T.Y.W.W.T.F.D.B.M.b.F.R.F.W.",
"W.W.W.W.W.W.W.W.R.F.F.F.D.b.F.F.v.L 1.A.C.9 4 3 v ^.C.Z.Z.Z.Z.Z.Z.Z.Z.Z.Z.C.~.m 3 4 9 f.A.:.I v.W.W.W.R.W.T.V.F.K.B.M.V.K.W.W.W.",
"W.W.W.W.W.W.W.W.E.F.F.D.b.b.D.E.N.2 g ) ' l s t W L.Z.Z.C.C.C.C.C.f.C.C.Z.C.G.U t s l R ) g 2 v.R.W.W.W.W.Y.F.F.B.b.b.F.W.W.W.W.",
"W.W.W.W.W.W.W.E.E.F.F.b.b.B.F.R.U.k.Z z f w w 7 9 n ` ( ( ) ( ( ( ( ( ( ( ) n 9 7 7 w f x Z k.Y.R.R.W.W.T.K.F.B.M.M.B.Y.W.W.W.W.",
"W.W.W.W.W.W.W.E.F.F.B.b.M.Y.W.Y.R.U.x.@.o.X.@.O.X.X.X.X.X.o...o... ...o.X.O.X.O.@.O.O.X.@.x.Y.Y.U.W.W.R.F.K.B.b.b.M.W.W.W.W.W.W.",
"W.W.W.W.W.W.T.K.F.F.M.B.F.W.W.R.R.W.W.T.U.T.Y.Y.Y.Y.U.U.B.M.N.M.c.n.M.V.Y.Y.U.Y.Y.Y.Y.Y.Y.R.W.W.W.W.W.F.F.F.F.b.V.F.W.W.W.W.W.W.",
"W.W.W.W.E.E.F.F.F.D.b.D.T.W.W.W.W.W.W.W.W.W.W.W.W.W.W.E.F.F.F.D.b.B.E.T.W.W.W.W.W.W.W.W.W.W.W.W.W.W.F.F.F.D.M.M.D.R.W.W.W.W.W.W.",
"W.W.W.E.Y.F.F.F.B.b.B.F.W.W.W.W.W.W.W.W.W.W.W.W.W.W.Y.F.F.F.D.b.b.D.E.W.W.W.W.W.W.W.W.W.W.W.W.W.T.F.F.F.F.b.b.H.F.W.W.W.W.W.W.W.",
"W.W.W.Y.F.F.F.M.b.b.D.F.W.W.W.W.W.W.W.W.W.W.W.W.W.E.F.F.F.D.b.b.F.F.E.W.W.W.W.W.W.W.W.W.W.W.W.E.F.F.F.D.M.b.M.F.Y.W.W.W.W.W.W.W.",
"W.W.T.F.D.b.M.b.b.F.K.E.W.W.W.W.W.R.R.F.R.W.W.W.F.F.F.D.H.b.H.H.F.E.W.W.W.W.W.W.W.F.W.W.W.W.T.F.F.D.H.b.M.H.F.Y.W.W.W.W.W.W.W.E.",
"E.Y.F.F.b.b.D.B.B.F.R.W.W.W.W.W.W.W.W.T.W.W.W.Y.F.F.D.b.b.D.F.F.T.W.W.W.W.W.W.W.W.Y.E.W.W.E.F.F.D.b.H.D.D.F.Y.R.W.W.W.W.W.W.W.E.",
"Y.F.F.b.b.b.F.K.W.W.W.W.W.W.W.W.W.W.W.W.W.W.T.F.F.H.b.b.D.K.E.W.W.W.W.W.W.W.W.W.W.W.W.W.T.F.F.D.H.b.H.F.W.W.W.W.W.W.W.W.W.W.W.W.",
"E.D.b.b.D.Y.R.W.W.W.W.W.W.W.W.W.W.W.W.W.W.Y.F.F.B.b.b.F.T.W.W.W.W.W.W.W.W.W.W.W.W.W.W.E.F.F.H.b.b.K.T.W.W.W.W.W.W.W.W.W.W.W.W.W.",
"T.b.b.D.F.W.W.W.W.W.W.W.W.W.W.W.W.W.W.T.F.F.F.M.b.b.F.R.W.W.W.W.W.W.W.W.W.W.W.W.W.T.F.F.F.H.b.b.D.E.W.W.W.W.W.W.W.W.W.W.W.W.W.W."
};
