/* XPM */
static char *result[] = {
/* columns rows colors chars-per-pixel */
"64 64 178 2 ",
"   c #030002",
".  c #190023",
"X  c #31463B",
"o  c #650078",
"O  c #4F5455",
"+  c #505455",
"@  c #DB0020",
"#  c #E50022",
"$  c #FE022B",
"%  c #FC0027",
"&  c #FF0E36",
"*  c #FF133A",
"=  c #FF1B43",
"-  c #FF2E55",
";  c #FF345A",
":  c #FF3C63",
">  c #1A00BD",
",  c #5C0088",
"<  c #65008A",
"1  c #670090",
"2  c #7C6D9B",
"3  c #7B6CBA",
"4  c #1E00C6",
"5  c #1C00D5",
"6  c #1E00DD",
"7  c #2200CA",
"8  c #2408D8",
"9  c #1F00E6",
"0  c #1606FF",
"q  c #1A05FF",
"w  c #1416FF",
"e  c #2207E8",
"r  c #220CFF",
"t  c #2020FF",
"y  c #242CFF",
"u  c #2B2BFF",
"i  c #2B3CFF",
"p  c #213FFF",
"a  c #3131FF",
"s  c #3666D1",
"d  c #2A4CFE",
"f  c #3645FF",
"g  c #3B46FF",
"h  c #3A49FF",
"j  c #3A55FF",
"k  c #366DF8",
"l  c #467DD5",
"z  c #434FFF",
"x  c #4353FF",
"c  c #4459FF",
"v  c #4E59FF",
"b  c #5D5DFF",
"n  c #5961FF",
"m  c #5267FF",
"M  c #5678FF",
"N  c #646AFF",
"B  c #6A76FF",
"V  c #9B1F83",
"C  c #A9008E",
"Z  c #AA0093",
"A  c #9B2383",
"S  c #972280",
"D  c #9F318C",
"F  c #A5338E",
"G  c #887C95",
"H  c #887193",
"J  c #FF638B",
"K  c #FF759E",
"L  c #FF79A3",
"P  c #5E90CF",
"I  c #6E8FC9",
"U  c #5890E7",
"Y  c #5F98FF",
"T  c #5C95FF",
"R  c #578FE8",
"E  c #758FFF",
"W  c #7181FF",
"Q  c #6397FF",
"!  c #689DFF",
"~  c #7692FF",
"^  c #7897FF",
"/  c #7E9DFF",
"(  c #4BAAFA",
")  c #53AEFD",
"_  c #49B2FA",
"`  c #54B6FD",
"'  c #6FA1FF",
"]  c #71A4FF",
"[  c #74A9FF",
"{  c #78ADFF",
"}  c #67BDFA",
"|  c #7BB3FF",
" . c #03C2FF",
".. c #5EC7FD",
"X. c #6EDAFE",
"o. c #67FAFC",
"O. c #8B9093",
"+. c #91989B",
"@. c #9B95AA",
"#. c #9A9BAC",
"$. c #9293A8",
"%. c #9390A9",
"&. c #A695B0",
"*. c #AEB1B3",
"=. c #A2A0B0",
"-. c #8391C1",
";. c #8DA7C1",
":. c #87B3D3",
">. c #81A8D1",
",. c #AABFC5",
"<. c #85AEFF",
"1. c #84A2FF",
"2. c #94ABFF",
"3. c #87B0FF",
"4. c #8ABBFF",
"5. c #98B8FF",
"6. c #98B1FF",
"7. c #A3BDFF",
"8. c #B7B7FF",
"9. c #BBB5FF",
"0. c #FF91C8",
"q. c #C0B3FF",
"w. c #9BC1D5",
"e. c #AFC3C8",
"r. c #ACC0C7",
"t. c #BAC6C9",
"y. c #B4C5CA",
"u. c #BBCDD3",
"i. c #B4C9D4",
"p. c #BCD2D9",
"a. c #8EC0FF",
"s. c #96CAFF",
"d. c #9ACBFF",
"f. c #95C4FF",
"g. c #98D3FF",
"h. c #B8C8FF",
"j. c #ACD4FF",
"k. c #ABDAFF",
"l. c #B4DAFF",
"z. c #BFDEFF",
"x. c #BDD7FF",
"c. c #BEE2FF",
"v. c #BFEFFF",
"b. c #C3CBCF",
"n. c #CAD9DE",
"m. c #C9D5DB",
"M. c #C8D3D8",
"N. c #C6DBE2",
"B. c #CADEE5",
"V. c #D4DCE1",
"C. c #CEE6ED",
"Z. c #CCE5EA",
"A. c #D1E6EE",
"S. c #D2E8EF",
"D. c #DAE4E9",
"F. c #C2E4FF",
"G. c #C8E7FF",
"H. c #C5EBFF",
"J. c #CCECFF",
"K. c #D5EAF1",
"L. c #DBEEF4",
"P. c #D2EEFF",
"I. c #D2E7F0",
"U. c #CCF2FF",
"Y. c #DFF0F5",
"T. c #D3F4FF",
"R. c #D5FFFF",
"E. c #DEFAFF",
"W. c #E1EAEF",
"Q. c #E2EFF4",
"!. c #E4F1F6",
"~. c #E8F2F7",
"^. c #E6F3F9",
"/. c #EAF3F8",
"(. c #E4FCFE",
"). c #ECFFFE",
"_. c #F4FEFE",
"`. c #F8FFFF",
/* pixels */
"_././././././././././././.!.L.L.S.A.S.K.L.L.!././././././././././././.!.Y.L.L.C.C.C.L.K.!./././././././././././././.!.L.L.K.C.S.",
"/././././././././././././.Y.L.S.C.C.K.Y./././././././././././././././.Y.L.K.C.C.S.L.!././././././././././././././.!.Y.Y.S.C.S.L.",
"/./././././././././././.^.L.K.C.A.L.L././././././././././././././././.Y.K.C.C.K.L.!./././././././././././././././.!.L.S.C.A.L.!.",
"/././././././././././.!.!.Y.S.C.K.L././././././././././././././././.!.L.K.C.S.L././././././././././././././././.!.L.L.A.S.K.Q.~.",
"/././././././././.~.~.L.L.S.C.S.L.W.!././././././././././.~././.!.!.L.K.C.C.Y.Y./././././././././././.~./././.!.L.L.L.C.L.L.Q./.",
"/./././././.W.Q./.~.!.L.L.C.C.S.!.Q.!./././././././././.!.W./.~.^.L.L.S.C.C.Y.^.L./././././././././.~.L.~./.!.L.L.Y.C.C.L.!.L.~.",
"/./././././././.~.Y.L.L.L.C.S.Y./././././././././././././././.!.Y.L.L.K.K.L.!././.^./././././././././.~./.~.K.L.L.L.C.L.W./.~./.",
"/./././././././.^.Y.L.L.S.A.S.~./././././././././././././././.Y.L.L.K.C.A.L.^././././././././././././././.!.L.Y.Y.K.C.L././././.",
"/././././././.^.^.Y.L.S.C.K.K././././././././././././././.^.!.L.L.S.C.S.L.~.^././././././././././././././.Y.L.Y.S.C.K.^././././.",
"/././././././.Y.L.Y.K.C.C.Y./././././././././././././././.!.L.L.K.C.C.L./././././././././././././././.!.Y.L.L.S.C.S.^./././././.",
"/././././.^.Y.L.L.L.C.K.Y.^././././././././././././././.!.L.L.L.I.C.L.L././././././././././././././.^.Y.L.L.L.C.K.K././././././.",
"/./././.^.^.L.L.L.S.C.K.L.^././././././././././././.^.!.L.L.L.L.C.S.L.^./././././././././././././.^.Y.Y.L.L.L.C.Y.Y././././././.",
"/./././.!.L.L.L.K.C.C.L.^./././././././././././././.!.L.L.L.L.C.C.I.^.^././././././././././././.^.!.L.L.L.L.C.C.Y.~././././././.",
"/././.!.L.L.L.K.C.C.K.Y././././././././././././././.L.L.L.L.C.C.K.L.^././././././././././././.!.!.Y.L.L.L.C.C.K.!./././././././.",
"^.^.!.L.L.S.K.C.C.K.L.~././././././.!.!.^./././.Q.L.L.L.S.A.C.K.L.Y.^././././././././././././.!.L.L.K.L.C.S.L.Y.!./././././././.",
"^.Y.L.L.S.C.C.S.S.Y.^./././././././.!.Q./././.!.L.L.S.Z.A.A.K.L.^.^.^./././././.~.Q.Q././.!.Q.L.L.K.C.K.S.L.L././././././././.!.",
"Q.L.L.A.C.S.L.Q././././././././././././././.Q.Q.L.S.C.C.K.L.!././././././././././.^.^.~.!.Y.L.L.K.C.K.L.!./././././././././././.",
"L.L.A.C.I.L.!.^./././././././././././././.Q.L.L.K.C.S.L.Y.~././././././././././././.^.~.L.L.L.K.C.K.L.!././././././././././././.",
"L.K.C.C.L./.^././././././././././././.^.!.L.L.K.C.C.L.!.^./././././././././././././.!.Y.L.L.K.C.A.L.^./././././././././././././.",
"K.C.A.L.Q./././././././././././././.Q.L.L.L.A.C.C.L.L./.^./././././././././.^.^.!.L.L.L.Y.K.C.S.L.!./././././././././././././.L.",
"A.A.K././././././.Q././././.^.^./.L.L.L.I.C.C.C.I.Q.^./././.^.Q.!././././././.!.L.L.L.A.S.C.Y.L.!.^././././.W./././././././.!.L.",
"K.S./././././././.Q./././././.Q.Q.L.K.I.C.I.L.K.~./././././././././././.^.~.!.!.L.L.C.C.K.Y.^.^././././././.Q././././.!.!.L.L.K.",
"/././././././././././././.Q.L.L.K.I.A.I.A.L.L.!././././././././././././.!.L.L.C.C.S.K.K.L./././././././././././././.!.L.Y.L.C.C.",
"/././././././././././././.L.L.L.C.A.K.L.!././.^./././././././././././.Q.Y.L.C.C.C.Y.Y./.!././././././././././././.!.L.Y.K.S.A.S.",
"/././././././././././././.L.L.C.C.I.L.!./././././././././././././././.Q.L.C.C.S.L.Q./././././././././././././././.!.L.K.C.C.S.Y.",
"/./././././././././././.L.L.I.A.I.L.!.^././././././././././././././.!.Q.L.C.S.L.L./././././././././././././././.~.Y.Y.C.C.S.Y.~.",
"/././././././././././.Q.L.L.A.S.L.!.^.^./././././././././././././.!.Q.L.S.C.L.Y././././././././././././././.^.!.L.Y.Y.C.S.Y.~.~.",
"/./././././.L.Q././.!.L.L.A.A.A.~.Q.Q./././././././././.Q.Q./.^.!.Q.L.S.C.C.L.!.L./././././././././.!.!.^./.~.Y.L.K.C.C.Y.!.Y.!.",
"/./././././././.!.Y.L.Y.L.C.S.K.^.~.^././././././././././.~./.~.L.L.L.S.A.S.!.!.!././././././././././.!.^./.!.L.Y.K.C.C.!.~.!.^.",
"/./././././././.!.L.L.Y.K.C.L.L./.^./././././././././././././.Q.L.L.L.A.S.L././././././././././././././.~.!.L.L.L.S.C.Y.!.^././.",
"/./././././././.!.L.L.K.C.C.K././././././././././././././././.Q.L.K.C.C.C./././././././././././././././.^.!.L.Y.C.C.S.!.^./././.",
"/././././././.Q.L.L.K.C.C.!.!./././././././././././././././.Q.Q.K.S.C.L.L./././././././././././././././.!.L.L.C.C.S.!./././././.",
"/././././.^.Y.L.L.L.S.S.K.!./././././././././././././././.Y.L.L.K.C.K.L.^././././././././././././././.!.Y.Y.K.C.C.K.~./././././.",
"/././././.!.Y.L.L.L.A.K.Y.~././././././././././././././.!.L.L.L.S.S.L.Y.^./././././././././././././.Q.L.K.Y.K.C.L.Y././././././.",
"/./././.!.Y.L.L.L.C.A.K.~.~././././././././././././.^.!.L.L.L.S.C.S.!./././././././././././././.^.!.L.L.Y.K.C.C.L.!././././././.",
"/./.^.!.L.L.Y.K.C.Z.S.L./././././././././././././.^.Y.L.L.L.S.C.S.L.!./././././././././././././.!.L.L.L.K.C.C.K.Y./././././././.",
"/./.!.Y.Y.K.K.C.C.S.Y.!./././././././././././././.!.L.C.p.y.r.r.t.t.b.V.W./././././.^././.^.^.L.L.L.L.I.C.A.K.L.!./././././././.",
"/.!.L.L.K.C.C.C.K.Y.!.!././././././.Q.Q.^./././.^.L.I.,.D A S A A V V F b.~./././.L.Q././.^.L.L.L.C.C.C.C.C.L././././././././.Y.",
"Y.L.L.K.C.C.K.L.L.!././././././././.~.~./././.Q.L.S.i.H Z Z Z Z C Z C C H M.~././.^./././.!.L.L.C.C.A.L.L.L.!././././././././.!.",
"Y.Y.K.C.S.!.!.!././././././././././././././.Q.L.L.m.%.C < , , < < < < < C &.W././././.^.L.L.L.A.C.A.K.L.~.^././././././././././.",
"L.K.C.C.L.^././././././././././././.^.^./.Q.L.L.Z.N.2 o < < 1 1 1 1 1 1 o G L.^./././.^.L.L.A.C.A.K././././././././././././././.",
"K.C.A.K.L.^././.~.~././././././././.~.!.L.m.u.i.m.Z.-.p     . . . .     p $.D.D.m.b.N.I.L.A.C.C.L.!./././././././././././././.!.",
"C.C.Y.Y.^././././.!././././././././.Q.D.,.( ( _ I Z.:.g. .X O O + + X  .g.:.m.:.) ( ( ,.B.I.I.L.!.!././././.!./././././././.!.K.",
"C.K.Y./.^././././.Y.!././././././.Q.A.y.l f a u d ;.+.c 2.O.t.t.t.b.O.2.x +.;.d u a z l e.B.L././././././.!.Y././././.~.!.!.L.K.",
"/./././.^./././././././././.!.Y.L.Z.,._ 4.q e 5 g X.s v x k *.o.o.*.k x v s X.g 6 e q 4._ t.W././././././././././.~.~.L.L.K.Z.A.",
"/././././././././././././.!.L.L.Z.:.( P.P.m g i 1.(.P.T.T.J.c.c.F.x.J.T.T.T.(.1.i g m J.P.` p.W./././././././././.~.L.L.S.A.Z.K.",
"/././././././././././././.!.L.A.M.` F.G.F.h t w E (.F.z.F.F.F.F.F.F.F.z.F.F.Y.~ w w z F.G.F.} V././././././././././.L.L.A.Z.S.L.",
"/././././././././././././.Y.A.C.u.) F.J.H.r 6 7 n (.c.F.F.F.F.F.F.F.F.F.F.F.(.n 7 6 r H.J.F.) V././././././././.~./.L.C.A.Z.L.!.",
"/./././././././././././.L.L.C.C.n.` F.l.{ 5.7.7.3.f.H.F.F.z.U.T.T.U.z.F.F.H.f.3.d.7.5.{ l.G.` V./././././././.~.!.Y.L.C.S.L.!./.",
"/./././././.Q././././.L.L.S.C.S.m.` G.j.Q J.E.(.s.{ G.F.F.U.J - - J U.F.F.J.{ s.).E.H.Q j.G.` V././.~.!././.~.!.Y.L.A.A.K.!.L./.",
"/./././././.Q././.~.Q.L.L.C.C.A.V.` G.k.T T.).`.g.[ J.F.R.R.; @ @ ; R.R.F.G.] g.`._.T.Y j.J.` V././.~.W.~.~.L.Y.Y.S.A.A.K.~.L.~.",
"/./././././.^./.!.Q.L.L.K.C.L.L.V.` F.z.a.B N b ~ k.J.x.L L - & & - L K x.J.k.~ b N B 4.c.F.` V./././././.Q.L.L.L.S.A.K.!././.~.",
"/./././././.^./.!.Y.Y.K.C.C.L.!.V.` F.J.J.0 7 > n _.U.9.% # & * * & # $ 9.U._.b > 4 0 J.P.c.` V./././././.!.Y.L.S.C.A.L././././.",
"/./././././.^.~.~.Y.K.C.C.S.Y./.V.` F.G.F.m h i 1.T.U.9.& % * * * * $ & 9.U.T.1.i f m F.F.F.` V././././.!.Y.L.S.A.A.S.!././././.",
"/././././././.~.Y.K.S.C.S.!././.V.` F.G.F.z y w ~ E.U.8.= * * * * * & = 8.J.E.~ w y z F.G.F.` V./././.!.L.Y.K.A.C.A././././././.",
"/./././././.!.Q.L.Y.C.S.L.!././.V.` F.J.F.r 6 4 b (.F.F.h.H.: $ $ : H.h.F.F.).n 7 6 r F.J.F.` V././.!.Y.Y.K.K.A.K.L././././././.",
"/././.^.~.!.L.L.L.S.C.K.Y.^././.V.` G.l.| 2.6.6.<.f.G.F.U.R.; # # ; R.U.F.H.s.<.6.6.2.| l.H.` V./.^.L.L.L.L.C.A.K.~././././././.",
"/././.^.!.L.L.L.S.C.C.L././././.V...P.j.Q U.(.).s.{ J.F.H.H.0.L L 0.H.F.F.J.[ s.).(.J.Q j.P...V.~.L.L.L.L.A.C.S.W./././././././.",
"/./.^.!.L.L.L.A.C.C.L.Y././././.V.R j.l.Y T.).`.d.[ J.F.c.z.T.R.R.T.c.F.F.J.] d.`.).T.Q l.j.R V.L.L.L.K.Z.C.A.L.!./././././././.",
"/./.!.L.I.C.A.C.C.L.L.~././././.D.P 4.J.f.W B N ^ k.F.F.F.c.F.F.c.F.c.F.F.G.k.^ N B W f.P.4.P B.L.L.A.C.C.I.L.Q./././././././.!.",
"~.Q.L.L.C.C.I.S.D.Q.~./././././.D.R 1.H.v.0 5 4 N `.F.G.F.G.G.F.G.G.G.H.G.G.`.N > 5 w F.v.<.R N.K.C.C.K.L.L.W././././././././.!.",
"Q.Q.L.C.C.C.L.Q.^./.^./././././.I.H h { ' x d y E P.H.F.F.F.H.F.H.F.F.F.F.F.T.E y f j ! { h 3 N.C.C.I.L././././././././././././.",
"Q.L.C.C.L.Q.^./.^././././././.Q.W.M.H c f e 9 5 0 M | [ ] { { ] [ [ { ] [ | M 0 8 9 9 f c 2 i.B.B.Q.!.^././././././././././././.",
"!.C.C.I.L./././././././././.~.~.~.Q.N.=.%.#.#.$.$.O.%.@.@.@.@.@.@.@.#.@.@.@.@.@.=.=.#.%.=.p.C.B.I.!././././././././././././././."
};
