/* XPM */
static char *result[] = {
/* columns rows colors chars-per-pixel */
"64 64 144 2 ",
"   c #14163C",
".  c #342246",
"X  c #3D2246",
"o  c #59006F",
"O  c #5B007B",
"+  c #F30025",
"@  c #FF042D",
"#  c #FF133A",
"$  c #FF1840",
"%  c #FF345A",
"&  c #FF3C63",
"*  c #FF567C",
"=  c #003C97",
"-  c #5F0080",
";  c #3C69A7",
":  c #4F77B6",
">  c #1807DE",
",  c #1906EB",
"<  c #0400F8",
"1  c #0C00FC",
"2  c #0E0AFF",
"3  c #1806FD",
"4  c #170FFF",
"5  c #1D11FF",
"6  c #271BFF",
"7  c #2C2DFF",
"8  c #3222FF",
"9  c #372FFF",
"0  c #382DFF",
"q  c #2E32FF",
"w  c #3030FF",
"e  c #333BFF",
"r  c #3F3BFF",
"t  c #4C33C9",
"y  c #364BFF",
"u  c #3650FF",
"i  c #4543FF",
"p  c #464AFF",
"a  c #4949FF",
"s  c #514DFF",
"d  c #5058FF",
"f  c #4A69FF",
"g  c #5860FF",
"h  c #5C68FF",
"j  c #5177FF",
"k  c #5F7EFF",
"l  c #607CFF",
"z  c #8D038A",
"x  c #9D1286",
"c  c #9D1389",
"v  c #9E188A",
"b  c #A0198A",
"n  c #5AAFB2",
"m  c #5AB7BA",
"M  c #61B2B4",
"N  c #3F85FE",
"B  c #79A8DC",
"V  c #70B3DF",
"C  c #5C93E3",
"Z  c #4A82FF",
"A  c #5A94FF",
"S  c #5F98FF",
"D  c #6D84FF",
"F  c #7186FF",
"G  c #738DFF",
"H  c #7B96FF",
"J  c #55AAF8",
"K  c #44BAF8",
"L  c #55B7FD",
"P  c #60A9E2",
"I  c #62B3EB",
"U  c #6EA4FF",
"Y  c #70A2FF",
"T  c #63B0FD",
"R  c #79BFFE",
"E  c #90859D",
"W  c #9F8EAD",
"Q  c #8C93A7",
"!  c #9D99AE",
"~  c #9596AB",
"^  c #8296B8",
"/  c #9D9EB2",
"(  c #A08CA4",
")  c #A891AF",
"_  c #A3A1B1",
"`  c #9397C3",
"'  c #A29CC7",
"]  c #9BB5CD",
"[  c #B0BFC4",
"{  c #87ABFF",
"}  c #83B4FF",
"|  c #8CB7FF",
" . c #86BAFF",
".. c #BBB5FF",
"X. c #FF9ACF",
"o. c #CFADFF",
"O. c #B6C2C6",
"+. c #BCC3C7",
"@. c #BEC5C9",
"#. c #B5C6CB",
"$. c #BACAD3",
"%. c #9CCDFF",
"&. c #99D0FF",
"*. c #87C7F5",
"=. c #B9C8FF",
"-. c #A9D4FF",
";. c #ADD9FF",
":. c #BBD4FF",
">. c #B2DAFF",
",. c #BDE3FF",
"<. c #C2CCCF",
"1. c #C4CCD0",
"2. c #C4D9DF",
"3. c #C9D9DE",
"4. c #D0D4DB",
"5. c #D4DDE2",
"6. c #C4D9E1",
"7. c #CEE6ED",
"8. c #CEE8ED",
"9. c #D9E2E6",
"0. c #D0E7EE",
"q. c #DDE6EB",
"w. c #D2E8EF",
"e. c #DEE9ED",
"r. c #C3E4FF",
"t. c #C9E7FF",
"y. c #C5ECFF",
"u. c #CCEAFF",
"i. c #D5EAF1",
"p. c #DBEEF4",
"a. c #D2E7F0",
"s. c #CBF0FF",
"d. c #CEF8FF",
"f. c #DFF0F5",
"g. c #D3F4FF",
"h. c #D4FAFF",
"j. c #E2EAEF",
"k. c #E2EFF4",
"l. c #E4F1F6",
"z. c #E8F2F7",
"x. c #E6F3F9",
"c. c #EAF3F8",
"v. c #E9FFFF",
"b. c #F4FEFE",
/* pixels */
"b.c.c.c.c.c.c.c.c.c.c.c.c.l.p.p.w.0.w.w.p.k.l.c.c.c.c.c.c.c.c.c.c.c.c.c.f.p.p.w.8.w.p.e.l.x.c.c.c.c.c.c.c.c.c.c.c.c.l.p.p.i.8.i.",
"c.c.c.c.c.c.c.c.c.c.c.c.c.f.p.w.7.7.p.p.l.c.c.c.c.c.c.c.c.c.c.c.c.c.c.p.p.i.7.7.w.p.k.c.c.c.c.c.c.c.c.c.c.c.c.c.x.l.p.p.w.8.8.p.",
"c.c.c.c.c.c.c.c.c.c.c.c.c.p.i.8.0.p.p.c.c.c.c.c.c.c.c.c.c.c.c.c.c.c.c.f.i.8.7.w.p.l.c.c.c.c.c.c.c.c.c.c.c.c.c.c.c.l.p.i.7.7.p.k.",
"c.c.c.c.c.c.c.c.c.c.c.l.l.p.w.8.i.p.c.c.c.c.c.c.c.c.c.c.c.c.c.c.c.c.l.p.i.8.w.p.c.c.c.c.c.c.c.c.c.c.c.c.c.c.c.c.c.p.p.w.w.p.k.c.",
"c.c.c.c.c.c.c.c.c.c.c.p.p.i.8.w.p.e.l.c.c.c.c.c.c.c.c.c.c.c.c.c.x.f.p.p.8.8.p.k.l.c.c.c.c.c.c.c.c.c.c.l.c.c.c.l.p.p.p.0.p.p.k.c.",
"c.c.c.c.c.c.j.k.c.l.k.p.p.8.8.8.l.k.l.c.c.c.c.c.c.c.c.c.l.l.c.l.l.p.p.a.8.8.f.z.p.c.c.c.c.c.c.c.c.c.c.p.c.c.l.p.p.p.7.8.e.k.p.x.",
"c.c.c.c.c.c.c.c.c.f.p.p.p.7.w.p.c.c.c.c.c.c.c.c.c.c.c.c.z.z.c.l.f.p.p.7.a.p.k.c.c.c.c.c.c.c.c.c.c.c.c.c.c.l.p.p.p.p.7.p.k.c.z.c.",
"c.c.c.c.c.c.c.c.x.p.p.p.0.w.w.c.c.c.c.c.c.c.c.c.c.c.c.c.z.c.c.k.p.p.i.7.a.p.c.c.c.c.c.c.c.c.c.c.c.c.c.c.c.k.p.p.p.i.7.p.z.c.c.c.",
"c.c.c.c.c.c.c.x.x.f.p.a.8.a.p.c.c.c.c.c.c.c.c.c.c.c.c.c.c.c.c.p.p.a.8.8.a.c.c.c.c.c.c.c.c.c.c.c.c.c.c.c.x.l.p.p.i.8.p.k.c.c.c.c.",
"c.c.c.c.c.c.c.p.p.p.i.8.8.l.l.c.c.c.c.c.c.c.c.c.c.c.c.c.c.x.p.p.a.8.7.f.x.c.c.c.c.c.c.c.c.c.c.c.c.c.c.x.f.p.p.a.8.a.x.c.c.c.c.c.",
"c.c.c.c.c.x.k.p.p.p.a.a.p.l.c.c.c.c.c.c.c.c.c.c.c.c.c.c.k.p.p.p.a.7.i.x.c.c.c.c.c.c.c.c.c.c.c.c.c.c.x.f.p.p.p.a.i.p.c.c.c.c.c.c.",
"c.c.c.c.c.c.p.p.p.i.8.i.p.c.c.c.c.c.c.c.c.c.c.c.c.c.c.x.p.p.p.i.7.7.p.x.c.c.c.c.c.c.c.c.c.c.c.c.x.x.l.p.p.p.i.7.p.p.c.c.c.c.c.c.",
"c.c.c.c.x.p.p.p.a.7.8.p.x.c.c.c.c.c.c.c.c.c.c.c.c.c.l.p.p.p.p.7.7.a.x.c.c.c.c.c.c.c.c.c.c.c.c.c.x.c.p.p.p.p.7.7.k.c.c.c.c.c.c.c.",
"c.c.c.l.p.p.p.i.8.8.p.p.c.c.c.c.c.c.c.c.c.c.c.c.c.l.p.p.p.p.8.8.i.f.x.c.c.c.c.c.c.c.c.c.c.c.c.l.l.p.p.p.p.8.7.i.k.c.c.c.c.c.c.c.",
"c.c.f.p.p.a.i.8.7.a.p.c.c.c.c.c.c.c.l.l.c.c.c.c.l.p.p.i.a.w.7.a.p.p.c.c.c.c.c.c.c.x.x.c.c.c.l.x.p.f.p.i.8.a.p.f.x.c.c.c.c.c.c.c.",
"x.k.p.p.8.7.w.a.a.p.x.c.c.c.c.c.c.c.l.p.c.c.c.l.p.p.a.w.8.a.a.p.x.c.c.c.c.c.c.c.c.l.k.c.c.c.k.p.p.a.8.a.a.p.p.c.c.c.c.c.c.c.c.k.",
"p.p.p.8.7.w.p.k.c.c.c.c.c.c.c.c.c.c.c.c.c.c.k.p.p.a.8.7.i.p.k.c.c.c.c.c.c.c.c.c.c.c.c.c.x.p.p.p.a.8.i.p.k.c.c.c.c.c.c.c.c.c.c.c.",
"p.p.w.8.a.p.k.c.c.c.c.c.c.c.c.c.c.c.c.c.c.z.p.p.a.7.w.p.f.z.c.c.c.c.c.c.c.c.c.c.c.c.c.x.p.p.p.i.8.i.p.l.c.c.c.c.c.c.c.c.c.c.c.c.",
"p.a.7.8.p.c.c.c.c.c.c.c.c.c.c.c.c.c.c.z.k.p.p.i.7.8.p.x.c.c.c.c.c.c.c.c.c.c.c.c.c.x.f.f.p.p.i.8.w.k.c.c.c.c.c.c.c.c.c.c.c.c.c.c.",
"i.7.a.p.k.c.c.c.c.c.c.c.c.c.c.c.c.c.k.p.p.p.a.8.7.p.p.x.c.c.c.c.c.c.c.c.c.c.c.c.k.p.p.p.p.p.8.a.p.k.c.c.c.c.c.c.c.c.c.c.c.c.c.k.",
"8.w.p.k.c.c.c.c.z.k.k.c.c.c.c.c.c.f.p.p.7.7.7.7.a.k.x.c.c.c.c.k.l.c.c.c.c.c.c.k.p.p.p.a.a.8.p.p.k.c.c.c.c.c.k.c.c.c.c.c.c.c.f.p.",
"i.a.z.c.c.c.c.c.c.k.c.c.c.c.c.p.k.p.i.a.7.a.p.i.z.c.c.c.c.c.c.x.x.c.c.c.x.z.z.p.p.i.8.8.a.l.x.c.c.c.c.c.c.l.k.c.c.c.c.l.l.p.p.p.",
"c.c.c.c.c.c.c.c.c.c.c.c.c.z.p.p.i.7.7.a.a.a.p.x.c.c.c.c.c.c.c.c.c.c.c.c.z.p.p.w.8.a.i.i.p.x.c.c.c.c.c.c.c.c.c.c.c.c.l.p.p.p.7.7.",
"c.c.c.c.c.c.c.c.c.c.c.c.c.p.p.p.7.7.i.p.c.c.c.c.c.c.c.c.c.c.c.c.c.c.c.k.p.p.7.8.8.p.l.x.c.c.c.c.c.c.c.c.c.c.c.c.c.l.p.p.p.w.7.w.",
"c.c.c.c.c.c.c.c.c.c.c.c.c.p.p.a.7.a.f.k.c.c.c.c.c.c.c.c.c.c.c.c.c.c.c.k.p.w.7.a.p.k.c.c.c.c.c.c.c.c.c.c.c.c.c.c.c.l.p.p.8.7.w.k.",
"c.c.c.c.c.c.c.c.c.c.c.c.p.p.a.7.a.p.k.c.c.c.c.c.c.c.c.c.c.c.c.c.c.c.c.p.i.8.w.p.p.c.c.c.c.c.c.c.c.c.c.c.c.c.c.c.c.p.p.8.8.8.p.l.",
"c.c.c.c.c.c.c.c.c.c.c.p.p.p.a.a.p.f.c.c.c.c.c.c.c.c.c.c.c.c.c.c.c.k.k.p.a.8.p.p.c.c.c.c.c.c.c.c.c.c.c.c.c.c.c.x.p.p.p.8.p.p.c.c.",
"c.c.c.c.c.c.k.k.c.c.k.p.p.0.0.0.x.f.l.c.c.c.c.c.c.c.c.c.k.k.c.c.c.k.p.i.w.8.p.k.p.c.c.c.c.c.c.c.c.c.c.p.c.c.x.f.p.p.8.8.p.x.p.l.",
"c.c.c.c.c.c.z.z.c.p.p.p.p.8.0.i.c.z.z.c.c.c.c.c.c.c.c.c.z.z.c.x.p.p.p.w.w.a.k.x.k.c.c.c.c.c.c.c.c.c.c.k.c.c.f.p.p.p.8.w.k.c.l.x.",
"c.c.c.c.c.c.c.c.c.p.p.p.i.8.p.p.c.c.c.c.c.c.c.c.c.c.c.c.c.c.c.k.p.p.p.0.w.p.c.c.c.c.c.c.c.c.c.c.c.c.c.c.c.l.p.p.p.a.8.p.l.c.c.c.",
"c.c.c.c.c.c.c.c.x.p.p.i.8.7.p.c.c.c.c.c.c.c.c.c.c.c.c.c.c.c.c.k.p.i.7.7.8.c.c.c.c.c.c.c.c.c.c.c.c.c.c.c.c.k.p.p.8.7.w.l.x.c.c.c.",
"c.c.c.c.c.c.c.k.p.p.i.8.0.k.k.c.c.c.c.c.c.c.c.c.c.c.c.c.c.c.k.p.p.8.7.p.p.c.c.c.c.c.c.c.c.c.c.c.c.c.c.c.k.p.p.7.7.w.k.c.c.c.c.c.",
"c.c.c.c.c.c.l.p.p.p.a.w.i.z.c.c.c.c.c.c.c.c.c.c.c.c.c.c.x.f.p.p.w.7.i.p.c.c.c.c.c.c.c.c.c.c.c.c.c.c.c.l.p.p.p.7.w.p.c.c.c.c.c.c.",
"c.c.c.c.c.x.p.p.p.p.8.a.p.c.c.c.c.c.c.c.c.c.c.c.c.c.c.c.l.p.p.f.w.0.p.p.c.c.c.c.c.c.c.c.c.c.c.c.c.c.p.p.p.p.i.8.p.p.c.c.c.c.c.c.",
"c.c.c.c.k.p.p.p.p.7.8.p.x.c.c.c.c.c.c.c.c.c.c.c.c.c.x.f.p.p.p.a.7.w.k.c.c.c.c.c.c.c.c.c.c.c.c.c.c.l.p.p.p.i.8.8.p.k.c.c.c.c.c.c.",
"c.c.c.l.p.p.p.i.8.7.a.p.c.c.c.c.c.c.c.c.c.c.c.c.c.x.l.p.p.p.a.7.w.p.z.c.c.c.c.c.c.c.c.c.c.c.c.c.f.p.p.p.i.7.7.i.p.z.c.c.c.c.c.c.",
"c.c.x.p.p.p.a.7.7.a.p.k.c.c.c.c.c.c.c.x.c.c.c.c.c.l.p.p.i.i.7.a.p.p.c.c.c.c.c.c.c.c.c.c.c.c.c.p.p.p.p.a.8.8.i.p.c.c.c.c.c.c.c.c.",
"c.x.p.p.i.8.8.8.a.p.c.c.c.c.c.c.c.c.k.p.c.c.c.c.x.p.a.7.7.7.a.p.p.c.c.c.c.c.c.c.c.p.k.c.c.c.p.p.i.8.7.7.7.8.p.c.c.c.c.c.c.c.c.k.",
"k.p.p.i.8.8.p.p.p.l.c.c.c.c.c.c.c.c.c.c.c.c.x.x.p.p.8.7.i.i.p.k.x.c.c.c.c.c.c.c.c.c.c.c.c.p.p.p.8.8.8.p.p.p.k.c.c.c.c.c.c.c.c.k.",
"f.p.i.8.a.p.k.l.c.c.c.c.c.c.c.c.c.c.c.c.c.x.l.p.i.7.7.p.p.p.x.c.c.c.c.c.c.c.c.c.c.c.c.c.p.p.p.0.8.a.a.k.z.x.c.c.c.c.c.c.c.c.c.c.",
"p.i.7.7.i.x.c.c.c.c.c.c.c.c.c.c.c.c.c.c.c.l.p.p.8.8.i.z.c.c.c.c.c.c.c.c.c.c.c.c.c.c.c.x.p.p.7.7.0.i.c.c.c.c.c.c.c.c.c.c.c.c.c.c.",
"i.7.a.i.f.x.c.c.c.c.c.c.c.c.c.c.c.c.c.k.p.p.a.8.8.a.p.x.c.c.c.c.c.c.c.c.c.c.c.c.c.p.p.p.p.7.7.7.p.l.c.c.c.c.c.c.c.c.c.c.c.c.c.k.",
"8.8.f.f.x.c.c.c.c.k.c.c.c.c.c.c.c.c.p.p.i.a.7.7.i.l.x.c.c.c.x.l.l.c.c.c.c.c.c.x.p.p.p.a.0.7.a.p.l.l.c.c.c.c.z.c.c.c.c.c.c.l.k.p.",
"7.a.l.c.c.c.c.c.c.p.z.c.c.c.c.c.c.k.p.i.8.7.8.a.k.c.c.c.c.c.c.k.l.c.c.c.c.x.x.k.p.a.8.8.w.w.p.c.c.c.c.c.c.z.l.c.c.c.c.c.k.p.p.p.",
"c.c.c.c.c.c.c.c.c.c.c.c.c.c.x.p.p.7.7.8.7.p.p.c.c.c.c.c.c.c.c.c.c.c.c.c.l.p.p.i.8.7.0.w.p.k.c.c.c.c.c.c.c.c.c.c.c.c.l.p.p.e.7.7.",
"c.c.c.c.c.c.c.c.c.c.c.c.c.x.p.p.7.8.a.p.p.l.x.c.c.c.c.c.c.c.c.c.c.c.c.x.p.p.i.7.7.p.p.p.k.c.c.c.c.c.c.c.c.c.c.c.c.l.p.p.p.7.7.w.",
"c.c.c.c.c.c.c.c.c.c.c.c.c.f.p.7.7.7.p.f.c.c.c.c.c.c.c.c.c.c.c.c.c.c.c.l.p.i.a.7.a.p.z.c.c.c.c.c.c.c.c.c.c.c.c.c.c.x.p.p.7.7.0.p.",
"c.c.c.c.c.c.c.c.c.c.c.c.c.f.7.7.7.p.l.c.c.c.c.c.c.c.c.c.c.c.c.c.c.c.l.k.p.8.8.i.p.c.c.c.c.c.c.c.c.c.c.c.c.c.c.c.x.x.e.7.7.0.p.k.",
"c.c.c.c.c.c.c.c.c.c.c.c.p.p.8.a.p.k.l.c.c.c.c.c.c.c.c.c.c.c.c.c.x.l.f.p.p.7.p.p.z.c.c.c.c.c.c.c.c.c.c.c.c.c.c.x.l.f.p.7.w.p.k.c.",
"c.c.c.c.c.c.k.z.c.c.c.p.p.a.8.8.k.l.c.c.c.c.c.c.c.c.z.9.<.O.+.+.O.O.O.#.2.7.p.f.k.c.c.c.c.c.c.c.c.c.z.l.c.c.z.l.f.f.0.7.p.p.p.c.",
"c.c.c.c.c.c.p.z.c.k.k.p.p.7.8.w.c.l.l.c.c.z.z.c.c.j.4.( b x b c c c x v E $.e.l.j.c.z.c.c.c.c.c.c.c.z.e.z.z.l.p.i.i.8.7.p.l.e.c.",
"c.c.c.c.c.c.c.c.c.k.p.p.i.7.p.p.c.c.z.c.k.j.9.9.j.j.) z o O - O - O O o z W e.j.9.9.j.z.c.c.c.c.c.c.c.c.c.l.e.p.f.w.0.p.l.c.c.c.",
"c.c.c.c.c.c.c.c.x.p.p.i.8.7.p.k.z.c.k.9.@.B P I ] 1.^ j =   X . . .   = Z ^ 1.] I P B @.9.l.c.c.c.c.c.c.c.f.p.p.w.0.w.p.l.c.c.c.",
"c.c.c.c.c.c.c.x.l.p.p.7.7.w.p.c.l.9.@.V Z q 6 5 u K : k H ; M m m n ; H k : K u 5 6 q N V @.9.k.c.c.c.z.l.f.p.w.0.0.w.l.x.c.c.c.",
"c.c.c.c.c.c.c.x.p.p.w.8.w.k.c.c.q.*.R t.t.e 4 1 F v.r.r.,.r.r.t.r.r.r.r.r.,.v.F 1 4 e u.t.R *.q.c.c.c.z.p.p.w.7.7.0.c.c.c.c.c.c.",
"c.c.c.c.c.c.l.p.p.p.w.a.p.c.c.c.9.T r.r.&.h s i G ,.t.r.r.r.r.t.t.r.r.r.,.t.,.G i s h %.r.r.T 5.c.c.c.f.p.f.p.7.e.p.c.c.c.c.c.c.",
"c.c.c.c.c.k.p.p.p.a.7.i.k.c.c.c.5.L t.;.A d.b.b.&.U u.r.d.h.* # # * i.d.r.u.U &.b.v.g.A -.t.L 5.c.c.p.p.p.p.0.7.i.k.c.c.c.c.c.c.",
"c.c.c.z.k.p.p.p.a.8.w.p.c.c.c.c.5.L r.r.-.p 9 8 D u.s.=.* % # @ @ # % * =.s.y.D 8 9 a -.r.r.L 5.z.p.p.p.i.7.7.a.k.c.c.c.c.c.c.c.",
"c.c.c.f.p.p.p.0.8.8.p.p.c.c.c.c.5.L r.u.u.w 4 < F v.u...@ @ # # # # @ # ..u.v.F < 4 9 u.u.,.L 5.p.p.p.a.0.7.0.p.k.c.c.c.c.c.c.c.",
"c.c.z.f.a.7.0.7.8.p.p.z.c.c.c.c.5.J t.,.%.d a i G ,.y.,.:.y.% + + & y.:.,.y.,.G i a d %.,.t.J 3.p.i.a.7.0.a.p.k.c.c.c.c.c.c.c.x.",
"z.z.p.p.7.7.a.w.0.p.z.c.c.c.c.c.4.J r.>.S g.b.b.&.U u.,.y.y.o.X.X.o.y.y.r.u.U &.b.b.g.S >.:.J 2.i.7.a.a.p.p.j.z.c.c.c.c.c.c.c.x.",
"p.p.a.7.7.a.p.k.c.c.c.c.c.c.c.c.9.C | s.;.d r w H g.u.u.u.u.g.h.g.g.u.u.u.u.g.H 0 y d >.s.} C 2.a.8.a.p.c.c.c.c.c.c.c.c.c.c.c.c.",
"k.p.a.7.i.k.c.c.c.c.c.c.c.c.c.k.e.' t j f 3 , > 7 {  . .}  .} } } } } } }  .{ 7 > , 3 f j t ` 6.7.f.k.c.c.c.c.c.c.c.c.c.c.c.c.c.",
"l.7.7.a.p.c.c.c.c.c.c.c.c.c.c.c.l.q.1.! ~ ! ! ~ Q Q ~ ! ! ! ! ! ) ! ! ! ! ! ! ) _ / ~ ~ / O.2.7.a.l.c.c.c.c.c.c.c.c.c.c.c.c.c.c."
};
