/* XPM */
static char *a09b54f5ef1e4c97aecc91b7e4610453r9AN8Ev61fHXYErq[] = {
/* columns rows colors chars-per-pixel */
"64 64 159 2 ",
"   c None",
".  c #1C2E00",
"X  c #1E3300",
"o  c #213600",
"O  c #243C00",
"+  c #274100",
"@  c #294500",
"#  c #2D4B00",
"$  c #304F00",
"%  c #2E5200",
"&  c #335500",
"*  c #355A00",
"=  c #395E01",
"-  c #376000",
";  c #3B6302",
":  c #3F6D00",
">  c #426D02",
",  c #457501",
"<  c #487602",
"1  c #477801",
"2  c #457A01",
"3  c #477A00",
"4  c #467A01",
"5  c #477A01",
"6  c #457902",
"7  c #467802",
"8  c #477802",
"9  c #477902",
"0  c #467803",
"q  c #477A03",
"w  c #457801",
"e  c #477B04",
"r  c #477901",
"t  c #487900",
"y  c #497900",
"u  c #487801",
"i  c #497801",
"p  c #487901",
"a  c #497901",
"s  c #4A7900",
"d  c #487A01",
"f  c #497A01",
"g  c #4B7A00",
"h  c #4B7A01",
"j  c #4A7B01",
"k  c #4B7B01",
"l  c #487802",
"z  c #497802",
"x  c #487902",
"c  c #497902",
"v  c #487803",
"b  c #487903",
"n  c #4B7802",
"m  c #4B7903",
"M  c #487A02",
"N  c #497A02",
"B  c #497B02",
"V  c #497A03",
"C  c #487B03",
"Z  c #497B03",
"A  c #4A7A02",
"S  c #4B7A02",
"D  c #4B7B02",
"F  c #4B7A03",
"G  c #4B7B03",
"H  c #4C7B02",
"J  c #497C01",
"K  c #4A7C01",
"L  c #4A7D01",
"P  c #487C02",
"I  c #497D02",
"U  c #497C03",
"Y  c #4B7C02",
"T  c #4B7D02",
"R  c #4A7C03",
"E  c #4B7C03",
"W  c #4B7D03",
"Q  c #497E02",
"!  c #4A7E02",
"~  c #4B7E02",
"^  c #4B7E03",
"/  c #4B7F03",
"(  c #4C7C00",
")  c #4C7C01",
"_  c #4C7D01",
"`  c #4D7D01",
"'  c #4C7C02",
"]  c #4D7C02",
"[  c #4C7D02",
"{  c #4D7D02",
"}  c #4C7C03",
"|  c #4D7C03",
" . c #4C7D03",
".. c #4D7D03",
"X. c #4C7E02",
"o. c #4D7E02",
"O. c #4C7E03",
"+. c #4D7E03",
"@. c #4C7F03",
"#. c #4D7F03",
"$. c #4E7E02",
"%. c #4E7E03",
"&. c #4E7F03",
"*. c #497904",
"=. c #4A7804",
"-. c #487A04",
";. c #4C7B04",
":. c #4B7C04",
">. c #4A7D04",
",. c #4B7D05",
"<. c #4B7E04",
"1. c #4C7C04",
"2. c #4D7C04",
"3. c #4D7D04",
"4. c #4C7E04",
"5. c #4D7E04",
"6. c #4C7F04",
"7. c #4D7F04",
"8. c #4C7E05",
"9. c #4D7F05",
"0. c #4E7E04",
"q. c #4E7F04",
"w. c #4F7F04",
"e. c #4E7E05",
"r. c #4E7F05",
"t. c #4D7F06",
"y. c #4E7F06",
"u. c #4B7C03",
"i. c #507E03",
"p. c #517F04",
"a. c #4D8002",
"s. c #4F8102",
"d. c #4D8004",
"f. c #4F8004",
"g. c #4E8005",
"h. c #4D8205",
"j. c #4E8204",
"k. c #4E8205",
"l. c #4F8305",
"z. c #4E8106",
"x. c #4F8107",
"c. c #4E8206",
"v. c #4F8307",
"b. c #4E8105",
"n. c #4F8108",
"m. c #508103",
"M. c #518106",
"N. c #508007",
"B. c #508206",
"V. c #508307",
"C. c #528207",
"Z. c #518407",
"A. c #538707",
"S. c #518206",
"D. c #518008",
"F. c #518508",
"G. c #528509",
"H. c #57870B",
"J. c #528408",
/* pixels */
", u H.H.9 9 9 9 a.K K 1.k.1.9 9 f , k.k.1.k.9 9 K %.e K a.U 1.1.%.K a.e K 1.%.K 1.k.1.1.0 0 U =.U K f =.%.u * * = = = & &       ",
", , H.H.=.f 9 9 1.a.%.K 1.n.9 9 9 f k.k.k.1.9 , %.%.e K %.a.%.K %.a.K K a.K K %.1.k.1.1.0 0 f =.1.%.f K m , & = - = & = &       ",
"1.1.%.%.U U , f 9 9 a.k.K %.G.G.u u =.=.f %.%.%.K 1.%.%.f , %.%.a.k., 9 K a.%.m.U 1.K %.=.9 K %.1.1.1.K k.=.% = * * + *         ",
"1.1.%.%.U U f f 9 9 a.k.%.%.G.G.u 9 %.f =.=.%.K 1.K %.f , f 1.a.1.a.9 , a.K N.1.k.1.1.%.9 9 %.K 1.1.K %.1.=.* = * * O &         ",
"f f f f %.K 1.D.u , 1.U a.%.9 9 =.=.A.G.9 f K K f , , f , , N.N.1.k.9 , k.N.f f A.k.k.k.u u , u %.K f =.w : - - - = & & = ;     ",
"f f f K %.a.N.1., , K K a.k., w f f A.k.f 9 K K u f f f , , N.N.n.1.9 9 N.A.=.f N.k.k.A.< u =.f K %.f f , : ; - ; - & & & ;     ",
", : h.1., , ;.m k.k.1.k., , %.k., u U k.U U K k.1.y.1.a.N.C.f u U 1.f f f 9 f f f f 2 9 %.%.m %.=.m m.m.f e > ; = = * = & = ;   ",
", : k.k., u ;.=.k.k.U K , , 1.%., , 1.U 1.1.%.%.i.1.k.1.A.N.u u U 1.f f 9 9 f =.f 9 2 9 a.%.;.;.U 1.m.m.U =., ; = = * = $ $ >   ",
"%.%.e e N.N.n.k.f f f =.U U =.1.k.1.K %.D.D.k.1.9 9 9 9 U U U K K K U U f f 9 9 i.i.1.%.f f f f a.m.f f u u > = = = = = $ & &   ",
"1.a.e 9 C.N.h.k.f f f f U U m f U d.1.K D.D.1.k.9 9 e 9 U U K K K K U U f f 9 f i.i.%.%., f f u m.a.f f u , > = ; = = * & & @   ",
"A.A.2 w K a.9 9 , 9 U k.e 0 9 w , : j.N.9 K 9 9 f m n.N.f f K 1.u u %.m %.%.u 9 k.1.A.N.=.f f f m m f f f =.0 ; = = * # + & @   ",
"A.A.2 2 K K 9 9 9 , k.1.e 0 , w w w j.a.f 9 9 =.m m D.D.f f K d., , m %.k.1.u , 1.U A.A.u f f f %.m f f e U =.- = * * @ O @ @   ",
"1.1.9 , 9 9 9 f , , , =.=.m u , i.1.N.a.f u < u u u u =.=.v w : f =.f =.9 2 d.d.a.k.9 9 u u f 9 f f %.K K K , * * * O @ & @     ",
"1.1.u u 9 9 9 f , , u u U ;.< < 1.1.m.N.f u , , , u =.=.0 =.w , e 0 , f 2 2 K %.k.K 9 f u u 9 9 K %.K %.f f : & & & O @ + @     ",
", , 0 9 u =.9 f f , =.u %.%.u u m %.f f u < u u %.m f =.h.h.U f K K 1.%.f m k.k.=.U %.%.u < D.G.K K %.f 1.f = & * = o # @ @     ",
", , 2 9 u f , , 9 f u f a.1.u u %.1.=.f < < , f m 1.f ;.h.h.=.f K f 1.%.f m k.k.U 1.%.m =.< G.G.K K m %.;.< = * = * o # @ #     ",
"=.e =.f 1.k.f 0 , =.1.%.9 9 f =.9 9 %.%.9 9 K K K a.1.i.D.n.9 9 f 9 j.j.1.U U k.U 1.%.%.m m K %., , 9 9 1.=.; * * & O O @ =     ",
"9 f f =.k.1.U 0 v u k.%., 9 f f 9 f %.%., 9 1.U K K k.1.n.n., 9 f 9 a.j.k.k.1.1.1.K %.%.m =.1.K , 9 w 9 1.U , * * @ X     =     ",
"K K w w a.k.d.U 1.K 1.y.K 9 f f f f k.N.1.U 1.1.f f %.m f u %.%.k.1.: : 9 , U 1.9 w k.N.%.K 9 9 =.f K K e d., = * O .       =   ",
"e e : : a.k.U k.=.;.y.1.f K f f f K N.N.1.1.i.1.f f m i.9 u %.m m.N.2 : 9 9 U U w w N.k.1.U 9 9 K f U U =.,.> = & o . O         ",
"k.k.K e f u N.N.9 f u < K e 9 9 1.a.1.1.K 9 d.U A.A.C.C.K %.U e 9 f K K %.i.a.a., , 0 e 9 f f 9 k.y.K K , , > ; & + # $         ",
"k.k.K K , f N.N.f f u u e K 9 9 m.k.1.1.e f U d.A.C.C.C.1.k.U e 9 , K K i.%.K a., : e e 9 =.=.K y.y.K K , > ; ; & & # #         ",
"> , f f , w K K N.m.%.K e K f u f f %.f e ,.k.1.C.C.1.k.N.m.a.d.K f k.1.A.a.%.a.K K f f , f %.f f , m %., ; - - * & * # &       ",
", : f , , w K K N.N.f %.e e f f =.f =.=.,.,.1.y.C.N.k.1.i.m.e a.9 K %.k.a.a.a.%.1.K =.=.=.f K %., f m m , = = - & * * # @       ",
"f U =.=.%.%.f =.e =.9 9 %.m f %.w , w w K e a.1.i.i.=.=.e e K K 9 u k.1.1.N.k.a.9 9 K %.9 f f f e 9 k.1.0 = ; ; = * # + @       ",
"f U =.u m f f f =.U f 9 f %.m m , , , , 9 9 %.a.i.1.< =.2 a.K %.u u 1.k.1.1.a.m.9 9 %.%.f , f f e 9 1.k., = ; ; & + + @ @       ",
"f f 1.N.: , , , , , k.1.%.f 1.1.u f , , K %.K %.< u u n : : %.m w , n.D.k.a.k.%.9 e k.1.1.i.D.N., , =.e > ; * & @ @ @           ",
"f K N.m., , , , , , k.k.K f %.1.m f u u %.%.K m , u m n , w %.m , , n.n.%.1.a.a.e 9 1.k.i.1.A.k., , =.=.> = & # o O @ =         ",
"%.K k.%.9 0 k.k.1.k.K =.1.%.K K u u f K 9 9 1.k.=.f f f 1.k.u u v.h.K f , u f f f K =.9 A.N.f =.m i.f f ; * & O O $   = ;       ",
"f %.K d.9 e 1.k.1.1.f K 1.K %.U =.u %.f 9 9 k.1.U =.f K 1.1.u f k.h.=.K f , =.K f f 9 =.N.k.=.0 m m , f ; & @ O O &   ;         ",
"=.=.9 =.k.y.1.k.1.%.a.%.K f K U i.N.f m 9 9 k.y., u m m , , k.N.U U k.1., , k.%.9 9 1.1.K f ,.,.: : , > * * + O @ &             ",
"=.=.=.f 1.y.k.1.1.N.%.a.f K e U D.N.m m 9 , k.k.f , m m w , k.k.U U 1.K , w 1.K 9 =.1.U f K U 0 , : > : * * & O O               ",
", 9 1.a.N.A.f f 1.k.m f N.N.K K =.=.%.K f 9 1.1., f m ;.K K %.%.1.1.m m K 9 %.%.1.1.1.1.A.N.1.d.9 , , > & * & O o O             ",
"u , a.d.A.D.f f 1.1.K f A.A.K K =.f f K 9 f 1.=.f u m m K f %.m a.1.m m f f %.m 1.1.k.U N.A.U K 9 , , w * & & O O O             ",
"A.G.d.d.w , f =.%.m %.k.%.%.f f 9 , A.N.1.%.k.A.N.N., f m %., , f 9 k.h.f u K %.=.U v , G.G.%.%.G.G., , = = & O o O             ",
"G.A.d.d., , f f f %.k.a.m %.f K , , A.N.k.K k.A.m.N.9 f f f , w 9 9 k.N.n f %.f =.=.w , G.G.K K A.D.u f ; = = # o @             ",
"%.K k.k.v v =.%.f m %.K K a.n.v.N.A.K e U 1.k.1.a.%.K 1.K e f K f f N.N.m f %.K f %.k.k.%.K %.m f f e 9 : ; = * X + @ =         ",
"%.%.k.k.v 0 U 1.%.f U K a.K v.D.N.N.K K 1.K k.%.%.%.K %.K e f =.f f N.N.m %.K K %.f k.1.K %.f f f f e e , ; = + O @   =         ",
"K %., f K K f f %.m u u e e , , m m 2 2 1.1.9 9 i.a.m m 1.k.: , G.G.9 9 v , f f %.%.9 e K a.m %.U U N.m.> = * O O % ; =         ",
"d.K f , K K f f f m u , e e , 9 %.f 6 2 U %.9 f a.m.m m K K , , A.C.9 f , , f m %.%.e e K K %.m 1.U A.N.> = & O O *   = =       ",
"1.N.f m f m u u k.K U 1.1.U K %.f f %.%.N.S.f u U =.U 1.1.k., > K K u u u < , 9 %.%.K %.N.m.f u 1.1.f f , = & O # &   =         ",
"i.i.f f m f n u K 1.1.U 1.1.%.1.u f K %.N.N.u u =.0 k.U K %., , K K < < , , , , %.%.k.K N.N.u u 1.;.f , < = $ O # *             ",
"f =.N.m.K =.u u K =.0 =.=.U 1.1.%.%.%.%.1.U m %.f K k.k.f , f u f f , , %.%.N.1.9 , w w y.y.1.=.1.K , , > & # o @               ",
"f f m.m.=.=.0 u U K 0 0 K =.k.1.m i.%.K K K %.K K K m.a.9 f u u K f w , %.%.m.i., 9 : w 1.n.=.;.a.K , w > * O # @ * ;           ",
"f 9 9 9 U 1.k.%.9 , U K =.U U d.d.d., w A.v.v.n.f 0 K K a.i.f f k.%.i.1., , a.k.K f f u %.K 1.1.A.N., , ; * & + o &             ",
"9 9 9 9 1.1.1.a.9 9 %.K =.=.U U h.U w w A.A.k.D.9 f K K N.i.f f k.a.1.1., u 1.a.K e , f K %.U K k.k., > = * $ . @ @             ",
"K K , , 1.1., : U d.U d.9 f n.h.d.e f =.N.1.=.9 K ;., , f f n n , < f f 1.i.k.1.K K 1.1.a.k., : 9 , , > & $ # # @ + @           ",
"K 1., , 1.U : : d.U d.K f f h.h.e h.f f %.1.9 f 1.1., , f f u u u u f f i.1.1.k.1.k.%.K %.K , , , , , , - # $ * & O + *         ",
", , N.A.K a.a.N.f f K K a.1.1.1.%.%.f f K f y.y.f %., , U ;., , A.A.%.K =.f e =.u , 0 f N.%.m m f =.a.%.> & * & $ o $           ",
", , N.k.a.K A.k.f f %.K 1.a.1.U a.1.=.e f 1.i.1.m f , , =.K , , N.N.K %.e f K U , , 0 , %.i.%.m =.1.a.K > & * = & o # *         ",
"f f f f 9 , 9 9 %.K f f u f %.%.u , u , k.k.f u S.N.u u e 9 f f f =.u u K f 9 f f m k.k.f f %.m K K f 9 > = * * * O # & =       ",
"=.f f 9 9 , 9 9 K k.f f f f %.f u , u u k.1.f f S.a.f u 9 9 f f =.;., f f f f f m f k.k.f 9 %.%.%.K f , =.; = * = & $ $   =     ",
"f f U 1.f f %.i.f %.=.u 1.k.1.k.a.N.%.K , , N.N.a.a., , m i.e K U U =.U m m f U %.1.m %.f f u f , , f , > = = = = = & $         ",
"9 =.K %.f m i.1.%.K =.f 1.1.k.1.N.k.K K , , m.N.k.a., , i.1.9 K U U =.U f u K U 1.i.m %.f f f , , , 0 , > > ; = = = * $ #       ",
"U %., , %.%.f U 9 9 A.k.k.U K U , 9 u u u , , > , , 1.k.a.%.f 0 S.N.G.N., , f , m f %.%.m.A.%.1., =.K K ;.;.> = = * ; * &       ",
"1.%., , f m K U 9 9 N.N.1.k.U d.9 9 , , u u , , , , 1.N.m.%.f =.C.N.A.N.w , 9 9 %.f %.K A.N.%.1.v , K K ;.> > = = = ; = @       ",
"1.1.n.D.%.K m f f f 1.a.U K 9 f %.%.a.k.K e %.%.1.1.1.1.f 9 k.1.f f 1.1.f f A.N.K K f f 1.1.U U 9 9 v v u , : = * = $ $ @ $     ",
"1.1.y.y.K K %.K f f k.U U =.u f %.%.a.K a.a.1.U 1.1.k.%.9 f 1.k.u f 1.1.f f k.A.K K f f %.%.%.K 9 , v 9 f , > * = * $ $ $ = ;   ",
"f =.u u , , %.K 9 f 1.n.f f N.m.A.N.f f 9 U U U K U A.A.f 9 k.K a.k.u =., u 9 9 a.N.U 0 %.U e e u u %.%.f f > * = = = $ $ ;     ",
"f f u f , , K %.f , k.U K m m.C.N.N.v f f =.U =.U K A.A.0 f %.k.k.a.u , u , e 9 a.k.0 K K d.K e , < %.1.K %.> * ; ; = # $ =     ",
"=.=., 9 e e a.1.y.U , , k.k.%.%.%.%.m.m.1.U K =.U ,.n.n.y.,.D.N., , , v 1.n.k.k.k.1.=.e N.1.f %., , n n f , =.> * * @ @         ",
"f f , 9 e e K a.1.,., v 1.N.%.%.%.%.m.a.1.U 9 U ,.e n.n.1.1.n.N., , =.v k.1.a.k.1.k.0 =.m.%.%.m , , n n f , 1.> * * @ #         ",
"f f 9 9 N.m., , e =.K K v v , , N.a.f f k.1.d.U K K v v 1.k.w , e *.,.y.K f f U f =., 9 m %.1.%.u u f m f f v = * * & $ $       ",
"m f 2 2 N.N., , e e K =., , : , a.k.f f %.k.n.U U =., v 1.U , v =.e y.1.1.%.U U %.f 9 , f f ;.;.< u K K 9 =.=.; * * * @ $       "
};
