/* XPM */
static char *_10c3e690f4348f4f095da7a9980471aZsaQGItcWrz49j3l[] = {
/* columns rows colors chars-per-pixel */
"64 64 161 2 ",
"   c None",
".  c #233C00",
"X  c #264200",
"o  c #294500",
"O  c #2D4B00",
"+  c #304E01",
"@  c #2F5000",
"#  c #325400",
"$  c #365B01",
"%  c #395E01",
"&  c #3C6202",
"*  c #3E6C00",
"=  c #406603",
"-  c #426D01",
";  c #457501",
":  c #487701",
">  c #467901",
",  c #497800",
"<  c #497900",
"1  c #487801",
"2  c #487901",
"3  c #497901",
"4  c #487800",
"5  c #4B7900",
"6  c #4B7801",
"7  c #4A7901",
"8  c #487A00",
"9  c #497A00",
"0  c #487A01",
"q  c #497A01",
"w  c #4B7A00",
"e  c #4A7A01",
"r  c #4B7A01",
"t  c #4A7B01",
"y  c #4B7B01",
"u  c #487802",
"i  c #497802",
"p  c #487902",
"a  c #497902",
"s  c #487803",
"d  c #497903",
"f  c #4B7902",
"g  c #4A7903",
"h  c #487A02",
"j  c #497A02",
"k  c #487B02",
"l  c #497B02",
"z  c #487A03",
"x  c #497A03",
"c  c #487B03",
"v  c #497B03",
"b  c #4A7A02",
"n  c #4B7A02",
"m  c #4B7B02",
"M  c #4A7A03",
"N  c #4B7A03",
"B  c #4B7B03",
"V  c #4C7901",
"C  c #4C7B01",
"Z  c #4C7A03",
"A  c #4E7B03",
"S  c #497C00",
"D  c #497C01",
"F  c #4A7C01",
"G  c #4B7C01",
"H  c #4B7D01",
"J  c #487C02",
"K  c #497C02",
"L  c #487C03",
"P  c #497D03",
"I  c #4A7C02",
"U  c #4B7C02",
"Y  c #4A7D02",
"T  c #4B7D02",
"R  c #4A7C03",
"E  c #4B7C03",
"W  c #4A7D03",
"Q  c #4B7D03",
"!  c #4C7C01",
"~  c #4D7C01",
"^  c #4D7E01",
"/  c #4C7C02",
"(  c #4D7C02",
")  c #4C7D02",
"_  c #4D7D02",
"`  c #4C7C03",
"'  c #4C7D03",
"]  c #4D7D03",
"[  c #4C7E02",
"{  c #4C7F02",
"}  c #4C7E03",
"|  c #4D7E03",
" . c #4C7F03",
".. c #4D7F03",
"X. c #4E7E02",
"o. c #4E7F02",
"O. c #4E7E03",
"+. c #4F7F03",
"@. c #487904",
"#. c #4A7804",
"$. c #487A04",
"%. c #4A7A04",
"&. c #4B7B04",
"*. c #497C04",
"=. c #497D04",
"-. c #4B7E04",
";. c #4B7E05",
":. c #4B7C06",
">. c #4C7C04",
",. c #4D7C04",
"<. c #4C7D04",
"1. c #4D7D05",
"2. c #4E7C04",
"3. c #4C7E04",
"4. c #4D7E04",
"5. c #4C7F04",
"6. c #4D7F04",
"7. c #4E7E04",
"8. c #4E7F04",
"9. c #4F7F04",
"0. c #4E7D06",
"q. c #4D7F06",
"w. c #4B7C02",
"e. c #4B7C08",
"r. c #517F03",
"t. c #507F04",
"y. c #4D8002",
"u. c #4D8102",
"i. c #4C8003",
"p. c #4E8003",
"a. c #4E8103",
"s. c #4B8004",
"d. c #4D8105",
"f. c #4E8004",
"g. c #4E8104",
"h. c #4E8005",
"j. c #4E8105",
"k. c #4F8105",
"l. c #4E8205",
"z. c #4E8106",
"x. c #4F8106",
"c. c #4F8206",
"v. c #4E8405",
"b. c #4E8105",
"n. c #508004",
"m. c #508104",
"M. c #508205",
"N. c #518205",
"B. c #528304",
"V. c #518006",
"C. c #508107",
"Z. c #508306",
"A. c #518207",
"S. c #518307",
"D. c #528607",
"F. c #518205",
"G. c #508408",
"H. c #518408",
"J. c #518609",
"K. c #528408",
"L. c #558C0A",
/* pixels */
"    # # & $ # $ & & * ; 6 ! p.p.1.=.C.C.6 p S S 6 6 g.! 6 6 p ; S 1.* > i.=.S $.s.1.S =.6 6 v.v.g.r.6 p p p D.B.v.C.g.C.S $.6 S ",
"      # & $ # $ & & ; p 6 6 ! r.S S C.g.p p S 6 ; ; 1.g.6 S ; ; 1.! ; ; s.=.6 $.1.g.S S p p v.v.r.r.8 6 6 6 D.n.g.D.g.g.$.=.A =.",
"    # # $ $ $ % & & ; $.p p g.p.p p S =.S ! ; ; p ; ; ; 1.! S 6 $.$.; ; n.1.1.1.p ; $.; p > g.G.1.g.8 S ! n.S =.6 $.! p.g.g.6 8 ",
"    $ O # $ % $ % & ; $.; 6 p.p.6 6 =.=.! ! ; ; ; p ; ; =.1.6 6 $.$.; ; p.r.1.1.p 6 ; $.p p g.g.g.g.6 $.p.! s.S S ,.g.1.g.g.8 L ",
"      # O $ % $ & & e.J.6 $.S S $.S S ! g.g.p p L L A 6 g.g.1.g.D.C.C.t.; ; p p p p S S =.1.S g.,.$.$.$.! 1.p p ; p g.1.$.> =.1.",
"      # O O $ # & * G.J.6 $.S S S =.1.S g.1.p p L L $.6 p.p.g.g.C.C.C.C.; ; 6 p p p =.=.! S 1.S 6 A $.$.1.S 6 6 $.$.=.=.> > A ,.",
"        O X O O O % 8 8 $.S 6 S S 6 * ; $.6 6 $.g.r.6 6 D.D.S $.C.g.; p ; p =.g.! 1.A $.s.=.p ; =.=.A S ,.S 1.! i.i.g.g.p p 6 p ",
"        # o . O o $ p p A 6 $.6 6 S > ; p $.$.; g.C.6 6 D.D.=.=.C.g.; ; p p g.1.1.=.6 $.=.S ; ; 1.6 6 S 6 1.! ! i.p.g.g.S 6 p p ",
"        # o . o o O ; #.1.1.6 p > > > > $.6 - ; H.H.! $.p.! 6 6 A A 6 6 ; ; 6 $.6 6 $.$.$.A 6 6 =.s.p p H.C.$.6 6 $.p.i.S A S g.",
"      # # o . O o o * ; 1.g.6 p > $.> > $.L ; ; H.H.$.S ! p.6 A 6 6 6 S p p 6 $.=.$.$.6 6 A 8 =.g.S p p D.G.6 6 #.#.p.p.6 S =.1.",
"        @ O X O O O # ; S S ; ; S ! g.1.p ; 6 L ,.$.p ; p.! C.C.p p S S B.g.p p g.v.$.A $.$.1.1.! p.p p p p ! t.; p S 1.p p 1.=.",
"        @ O X + O o O * S S ; : S 1.=.=.p p 8 8 ,.$.; 6 ! ! H.C.p 6 ! =.C.g.; 6 g.g.$.6 $.$.=.1.p.p.p p p p 1.! 6 p 1.! p p e.0.",
"      # O X X + O O % - : : ! ,.g.g.; ; C.! C.1.1.=.; ; 6 8 s.! S =.=.! ; ; n.n.$.6 g.g.p p g.1.p 8 p.1.6 =.6 p 1.S 1.g.i.=.1.6 ",
"    # # O X O O o # = = : : S 6 =.g.$.; p.C.! g.1.p.; ; 6 6 =.1.S =.! S ; ; n.n.p $.g.p.p 6 1.g.p p g.! $.S 6 p S S p.1.S s.1.=.",
"  $ # # # o # O + $ & & S =.$.6 i.S > ; A A =.=.g.S S 1.=.=.> > H.G.=.1.t.n.6 6 : 6 p p p L S ! S S ; ; p.! 6 6 p p ! 1.; ; p ; ",
"    $ # # @ o @ # $ & & =.=.S 6 8 8 ; p 6 6 =.=.1.p.1.S =.8 > > H.H.1.! ! C.6 6 6 p p p p 8 ! ! S S ; > S i.6 p > > =.S ; ; > > ",
"  $ $   # # # o @ $ $ & > 8 ; 6 S S p ; p 6 p p 1.S 6 p S s.> > ; p 1.g.L L ; p ! 1.$.S C.C.e.L =.=.=.! $.; 1.! 1.A ! ! 1.1.! A ",
"          # @ o O $ $ $ S 8 p p 1.S ; ; S $.$.; ! 1.p p p.s.p p p ; C.g.L L 6 $.g.g.6 6 D.C.=.e.$.6 S 1.p $.! 1.,.6 ! 1.1.1.S 6 ",
"          # O o $ $ $ & p p p p C.C.p p ; ; $.=.$.,.1.=.s.s.S 6 i.i.p p 6 =.=.=.p.! s.=.p.g.> ; p p ; : 6 p n.n.=.1.1.0.$.$.6 $.",
"        $ @ O O $ $ & & p 6 p p C.C.p p ; ; 1.S ,.=.6 6 s.1.$.=.s.i.6 $.6 6 L L i.p.1.=.s.g.> ; ; 6 ; ; 6 6 n.C.6 =.1.t.$.=.6 6 ",
"      $ $ # o O $ # % % p 8 8 8 > p S 6 @.$.6 $.1.S g.g.> p S =.6 6 i.S S S C.C.1.1.! 1.$.: ; ; =.1.6 S ! p.6 =.8 8 ; p D.B.g.1.",
"      $ $ # % $ # # % % p 6 8 p > p 6 6 e.$.6 6 S 1.1.1.; p $.6 p S =.g.S S C.g.1.C.1.! 6 $.; ; S p.S 6 p.! 1.S =.6 p 6 C.n.1.1.",
"        $ # $ $ = = % % ; ; p p S =.6 $.=.g.=.1.6 S S 6 s.s.8 =.$.S ! ! n.B.p 6 g.C.S ! 6 S K.K.6 p g.n.6 A 6 6 C.C.: 6 ,.1.p ; ",
"          $ @ $ & = & % ; : 6 p S i.$.$.1.1.=.1.S S $.6 s.g.6 6 6 6 ! ! C.g.p 6 C.g.S g.6 6 K.C.p p g.1.$.$.S A C.C.: : $.! ; ; ",
"          $ o # % & % % - : 6 p g.s.C.C.,.#.; ; ; ; : A ; p 1.1.=.S D.v.1.! g.v.S s.p $.! 1.; ; 6 6 1.! =.=.C.C.! S 6 S g.! 6 p ",
"        $ # O + % & % % ; ; p p g.g.C.C.$.$.; ; ; ; 6 A p p 1.1.S 1.H.C.! 1.v.p.i.i.$.p ! p.; ; S A S =.1.=.C.C.A ! 6 6 1.C.p ; ",
"          $ + O O $ $ $ S i.A =.6 ,.6 6 0.0.! 1.S S ; p p p A =.C.B.S =.; ; 6 6 > > 6 $.S =.D.D.$.$.6 $.g.=.> > S 6 1.1.! ! ! p.",
"          # # # + $ $ & p.=.S =.A S 6 S 0.1.g.g.S 6 : ; 6 $.S S n.B.1.1.; ; p 6 > p 6 6 =.S C.C.$.$.$.$.C.0.> p =.1.1.=.! S p.p.",
"        # $ % # $ % & ; $.A S =.! 1.p p v.D.! ! S =.=.=.A 6 p p =.6 ! 1.S 1.; ; p $.p $.S 6 p > A S 6 6 p p S ! C.D.; ; 6 6 p.! ",
"    $ $ $ % % O + # # : 6 6 S 6 1.! 8 6 D.D.p.! 6 1.S =.6 6 p $.,.,.g.1.1.1.; : $.$.$.6 S S ; p 6 6 p p p 6 ! 1.B.D.; p S A g.g.",
"      # * $ # + o O O #.! ! ; ; C.! ! ! S S C.! ! ! S S p.! S 8 S ! ! 1.1.C.1.=.g.C.S S S =.; ; p p p.S i.S 8 s.p.p.K.K.$.,.6 p ",
"      $ O $ + + O O + - 1.6 ; ; n.r.! S g.1.p.r.! 1.S S p.p.=.6 ! S 1.=.0.0.S g.g.C.S S =.S ; ; > p 1.g.S i.8 8 u.i.K.H.A =.6 ; ",
"      + o # O + # # o * ! 1.8 8 6 A S p.p.! g.1.B.n.B.C.S S p ; $.$.$.=.6 8 v.g.C.q.1.1.p.p.i.i.8 > L =.6 =.C.C.n.n.i.i.8 8 s.s.",
"      + + $ + # # # # - 1.! 8 p ! ! ! S p.p.=.g.C.n.D.B.S S ; p $.p S 6 p 6 g.g.C.C.r.! g.! i.i.L L S =.$.6 C.D.p.n.i.8 8 8 s.=.",
"      o $ $ $ % $ + & 6 ! 1.8 =.K.K.8 p p.r.: ; A : C.C.; ; n.n.S S ! A * * 1.1.6 ! =.S ; ; ; ; ; ; 1.! 1.g.S 6 6 6 p > p p =.=.",
"    + o $ $ $ $ $ $ * 6 1.S 6 6 K.K.6 6 ! r.: : 6 6 C.C.p ; C.C.! g.A A * ; 1.g.A 1.S =.; 6 ; ; ; ; 1.! g.1.A S S 6 > > p 6 =.g.",
"    # o $ $ $ $ % = & 6 ! S : : C.t.; ; S 1.$.$.S 1.g.1.! S C.t.S 6 > p > ; s.L ! ! S 8 1.t.,.=.1.1.$.#.p p i.i.#.; 1.S $.$.D.C.",
"  # + o % $ $ $ % #.; =.! S : ; t.t.; ; S S $.$.g.1.r.C.=.S q.C.6 $.; > ; * =.=.p.! 6 8 t.1.6 6 e.z.#.#.p p i.i.: 6 S 1.6 $.D.D.",
"  # # o % & % % % ! p 6 6 $.8 8 S 1.; ; ; : C.g.p p g.g.! g.H.H.; ; > > 8 p p p g.! 6 1.! =.1.1.=.=.t.r.g.C.p p g.s.p ; ; : ; p ",
"  $ # + % & % $ & g.8 p $.p s.8 1.S ; p : ; D.D.p p G.g.1.g.H.D.> * p p S 6 p p 1.g.S S S 1.g.1.=.S t.r.v.C.p p v.s.p 6 : : ; p ",
"  $ # O # $ % $ # ; 6 6 g.g.S p.! ! C.g.6 6 > > G.z.=.=.1.! ; ; D.B.6 S p p S 1.H.H.! S g.s.; ; 8 8 ! p.1.g.p p g.1.=.S 6 p p p ",
"  $ # O # # # % $ - p 6 C.C.p.! 1.! g.g.6 6 ; > C.C.6 S 1.g.; ; v.D.S 6 p p 1.g.H.H.! ! g.g.; p S 6 p.p.=.=.p p t.g.g.S 6 p > p ",
"  $ # o O O $ & - 1.: p 1.g.6 ; C.g.L.L.S p.L $.! ! =.1.6 6 p p S i.; ; 1.g.8 p C.D.* * S S ! 1.=.S C.C.! ! A 6 : ; p.g.$.S S S ",
"    # o $ O & & - =.6 p 1.1.p p p.p.L.L.i.S $.L S 6 1.1.S A p p i.S * ; =.s.8 p C.D.* * S 6 1.S S =.C.C.! p.S 6 : 6 g.g.6 6 $.S ",
"    # O # # & % - 1.; > 1.! p.p.=.s.i.i.; ; v.C.6 $.6 A p p ! 1.$.A C.C.! 1.p p S A ; ; S =.p p 1.=.6 L g.i.g.n.$.e.6 6 p p p p ",
"    # O + + $ $ * g.; ; ! ! 1.p.=.S i.s.; p C.D.$.$.S $.> p 1.! =.6 C.g.1.! p p S 6 ; ; g.S 6 6 S g.p p g.s.C.n.e.$.p : p p p p ",
"    # + X O # & & $.S 6 g.1.r.! p p v.H.! ! g.C.1.S p.p.* * =.$.6 p ! g.; $.; : 1.1.S 1.p p : : p p S 6 g.0.6 $.,.,.: #.S i.i.s.",
"    #   X O + $ % $.S S 1.g.n.n.; ; D.J.! ! C.g.=.S p.i.; * 6 =.p p p.! $.; ; ; ! 1.1.! ; ; : : p $.8 8 g.g.$.6 1.,.$.$.g.i.g.v.",
"        O O + + & e.6 p S =.! 1.1.1.,.6 $.$.; ; g.C.S ! p p ! ! 6 A S p.,.S p p =.1.; ; g.=.p p p.i.D.v.; #.1.g.s.s.p p =.g.1.1.",
"        O O + + # e.6 6 S S ! ! 1.q.A 6 $.; ; ; C.C.1.=.p p ! p.6 S ! S ,.S p p g.s.; p =.=.p p i.v.C.D.; ; g.1.s.s.$.L =.s.g.1.",
"      % # O + O @ * ; $.1.=.; * q.q.C.g.p 6 p 8 i.S n.n.H.H.B.n.=.$.6 6 C.C.p p $.p $.6 6 p S $.; ; C.r.$.A $.; ; * v.s.! 1.C.C.",
"      $ # O + O O % = =.=.=.* ; q.g.G.v.p p p 6 s.i.n.n.G.D.B.D.,.$.6 A C.C.p p p p =.S p p =.8 ; ; C.! S 6 ; $.* > v.s.=.! B.B.",
"    $   # O O O # & - 1.1.! ! S 6 p p p A $.p.1.g.g.8 8 S g.1.6 : ; : : ; ; 6 p =.1.6 S S 6 S 6 ; ; 1.! 6 $.S 1.6 ; p p : ; ; : ",
"    $ $ # o O O + % ; ! ! 1.! S p p 6 p 6 S ! g.C.C.6 p ! S =.=.: #.: : ; ; p p =.=.6 S 6 6 6 =.> $.! =.6 A s.S 6 p p p ; #.; ; ",
"  $     # O O + O # - ; p p v.g.; ; g.C.S =.p p ! g.6 L 1.1.S S g.1.A ! 1.1.p 6 C.C.p.! 1.A S =.; ; #.#.S ! =.6 ; ; p 6 ; ; 1.g.",
"          O + + o + * ; ; p g.g.; ; C.g.6 A 6 $.p.S p 8 1.1.=.=.1.! r.! 1.! ; 6 B.D.! p.! 1.A S $.$.#.: 1.S $.$.; > p 6 ; ; 1.1.",
"          O X O + + * ; p 6 ! 1.! ! S 1.S 6 8 L r.1.; ; 6 ; S =.1.! i.i.v.H.C.g.> > ; ; =.s.8 8 1.1.=.S A : S 6 S S p.S p.1.p.! ",
"  $     $ O X O $ % p 6 p $.! S ! ! 1.S 6 S 8 6 1.r.- : p p =.S =.1.i.i.C.C.g.G.; p ; ; 1.=.8 8 ! S A 6 : A S S 1.! i.p.p.g.i.p.",
"  $ $ # # O o + & = $.S ; : 1.S p ; ; > s.g.=.p.S S ! ! 6 $.v.v.; ; ; ; 6 6 L =.g.C.; * 6 6 g.p.S 1.p.i.6 6 1.1.1.1.S 6 g.=.S S ",
"  $ $ # O o O + = - 6 1.; ; =.! ; p ; > 1.1.1.1.=.S ! ! ,.$.v.v.; ; * > 6 $.=.=.C.1.; ; 6 L g.g.! S g.g.S 6 S 6 1.! A A =.=.S S ",
"  $ # O o O + # & - - ; S =.1.! p p 8 8 L L $.8 S =.1.1.g.C.L L 6 1.! 1.p p $.$.6 6 ; ; p p ; 6 =.$.D.D.1.i.; ; =.=.; ; ! 1.6 6 ",
"    # @ . o + % & - ; ; S S 1.=.p 8 8 s.L L $.> S S =.1.g.g.e.L 1.1.1.! 6 L e.$.6 A ; ; p p p ; =.=.B.B.g.g.; ; ! S ; ; 1.! 6 S ",
"    # O o O + % * ; ! p.: : C.C.0.e.g.e.v.v.; ; : : ! =.p p 6 6 ! p.; ; p.! ; ; 1.=.8 6 S p.! A C.v.! S S S S 1.,.$.v.C.S S 8 S ",
"    $ # % $ # & = ; p.p.#.#.q.t.0.=.e.z.v.C.; ; : : g.! p 6 $.6 p.! p p ! =.; ; =.=.S 6 i.p.S ! g.H.S 1.S S 1.=.6 A C.C.S 8 8 6 "
};
