/* XPM */
static char *rcp08332216256985[] = {
/* columns rows colors chars-per-pixel */
"32 32 15 1 ",
"  c #875739",
". c #88593A",
"X c #8A5B3A",
"o c #93613E",
"O c #946240",
"+ c #956340",
"@ c #966340",
"# c #986542",
"$ c #9B6642",
"% c #9C6743",
"& c #A16B47",
"* c #AD754D",
"= c #C58255",
"- c #B1A5A4",
"; c white",
/* pixels */
"XXXXXXXXXXXXXXXXXXXXXXXXXXXXXXXX",
"X===*=-=%=-=#=-=#=-=#=-=#=-=#=-=",
"X=-*****&***&***&***%***%***&***",
"X=******&***&***&***&***&***&***",
"X****XXXXXXXXXXXXXXXXXXXXXXXXX..",
"X***XXXXXXXXXXXXXXXXXXXXXXXXXX..",
"X=**  X;;;;;;;;;;;;;;;;;;;;;;;;;",
"X-**  ;;;;;;;;;;;;;;;;;;;;;;;;;;",
"X=**  ;;;;;;;;;;;;;;;;;;;;;;;;;;",
"X%&&  ;;;;;;;;;;;;;;;;;;;;;;;;;;",
"X=**  ;;;;;;;;;;;;;;;;;;;;;;;;;;",
"X-**  ;;;;;;;;;;;;;;;;;;;;;;;;;;",
"X=**  ;;;;;;;;;;;;;;;;;;;;;;;;;;",
"XXX+  ;;;;;;;;;;;;;;;;;;;;;;;;;;",
"X=**  ;;;;;;;;;;;;;;;;;;;;;;;;;;",
"X-**  ;;;;;;;;;;;;;;;;;;;;;;;;;;",
"X=**  ;;;;;;;;;;;;;;;;;;;;;;;;;;",
"X+#&  ;;;;;;;;;;;;;;;;;;;;;;;;;;",
"X=**  ;;;;;;;;;;;;;;;;;;;;;;;;;;",
"X-**  ;;;;;;;;;;;;;;;;;;;;;;;;;;",
"X=**  ;;;;;;;;;;;;;;;;;;;;;;;;;;",
"X++&  ;;;;;;;;;;;;;;;;;;;;;;;;;;",
"X=**  ;;;;;;;;;;;;;;;;;;;;;;;;;;",
"X-**  ;;;;;;;;;;;;;;;;;;;;;;;;;;",
"X=**  ;;;;;;;;;;;;;;;;;;;;;;;;;;",
"X+o#  ;;;;;;;;;;;;;;;;;;;;;;;;;;",
"X=**  ;;;;;;;;;;;;;;;;;;;;;;;;;;",
"X-**  ;;;;;;;;;;;;;;;;;;;;;;;;;;",
"X=**  ;;;;;;;;;;;;;;;;;;;;;;;;;;",
"X+##  ;;;;;;;;;;;;;;;;;;;;;;;;;;",
"X=**  ;;;;;;;;;;;;;;;;;;;;;;;;;;",
"X-**  ;;;;;;;;;;;;;;;;;;;;;;;;;;"
};
