/* XPM */
static char *rcp0833230379777[] = {
/* columns rows colors chars-per-pixel */
"32 32 68 1 ",
"  c #7D5034",
". c #805336",
"X c #875739",
"o c #885939",
"O c #88593A",
"+ c #8A593A",
"@ c #8B5A3A",
"# c #8A5B3A",
"$ c #8C5B3B",
"% c #8D5B3B",
"& c #8D5C3C",
"* c #8E5C3C",
"= c #8F5D3D",
"- c #905E3E",
"; c #915F3F",
": c #92603E",
"> c #93613E",
", c #93613F",
"< c #956240",
"1 c #966343",
"2 c #976441",
"3 c #976442",
"4 c #986343",
"5 c #986542",
"6 c #9A6642",
"7 c #9B6642",
"8 c #9C6743",
"9 c #9D6743",
"0 c #9B6946",
"q c #9E6846",
"w c #A26B47",
"e c #A56A47",
"r c #A6714B",
"t c #A9704A",
"y c #AA714B",
"u c #AB724B",
"i c #AB734C",
"p c #AC734C",
"a c #AD744D",
"s c #AD754D",
"d c #AE764E",
"f c #AF774F",
"g c #B0784F",
"h c #B07950",
"j c #B17950",
"k c #B27A51",
"l c #B37B52",
"z c #B47C52",
"x c #B47D53",
"c c #BD7D52",
"v c #BE7D52",
"b c #BE7E52",
"n c #BE7E53",
"m c #BF7E53",
"M c #BF7F53",
"N c #C07F54",
"B c #B88055",
"V c #B88156",
"C c #B98256",
"Z c #BC8559",
"A c #BE885A",
"S c #C08054",
"D c #C58E5F",
"F c #B1A5A4",
"G c #B4ABA9",
"H c #B7AEAC",
"J c #B8AFAD",
"K c white",
/* pixels */
"#cttXXKKKKKKKKKKKKKKKKKKKKKKKKKK",
"#XXXXXKKKKKKKKKKKKKKKKKKKKKKKKKK",
"#cttXXKKKKKKKKKKKKKKKKKKKKKKKKKK",
"#FttXXKKKKKKKKKKKKKKKKKKKKKKKKKK",
"#cttXXKKKKKKKKKKKKKKKKKKKKKKKKKK",
"#XXXXXKKKKKKKKKKKKKKKKKKKKKKKKKK",
"#cttXXKKKKKKKKKKKKKKKKKKKKKKKKKK",
"#FttXXKKKKKKKKKKKKKKKKKKKKKKKKKK",
"#cttXXKKKKKKKKKKKKKKKKKKKKKKKKKK",
"#XXXXXKKKKKKKKKKKKKKKKKKKKKKKKKK",
"#cttXXKKKKKKKKKKKKKKKKKKKKKKKKKK",
"#FttXXKKKKKKKKKKKKKKKKKKKKKKKKKK",
"#cttXXKKKKKKKKKKKKKKKKKKKKKKKKKK",
"#XXXXXKKKKKKKKKKKKKKKKKKKKKKKKKK",
"#cttXXKKKKKKKKKKKKKKKKKKKKKKKKKK",
"#FttXXKKKKKKKKKKKKKKKKKKKKKKKKKK",
"#cttXXKKKKKKKKKKKKKKKKKKKKKKKKKK",
"#XXXXXKKKKKKKKKKKKKKKKKKKKKKKKKK",
"#cttXXKKKKKKKKKKKKKKKKKKKKKKKKKK",
"#FttXXKKKKKKKKKKKKKKKKKKKKKKKKKK",
"#cttXXKKKKKKKKKKKKKKKKKKKKKKKKKK",
"#XXXXXKKKKKKKKKKKKKKKKKKKKKKKKKK",
"#cttXXKKKKKKKKKKKKKKKKKKKKKKKKKK",
"#FttXXKKKKKKKKKKKKKKKKKKKKKKKKKK",
"#cttXXKKKKKKKKKKKKKKKKKKKKKKKKKK",
"#XXXXXKKKKKKKKKKKKKKKKKKKKKKKKKK",
"#tttXXXKKKKKKKKKKKKKKKKKKKKKKKKK",
"#Ztt.XXXXXXXXXXXXXXXXXXXXXXXXXXX",
"#Attt #X##XXXXXX##XX##X##%%&&&%#",
"#ZZDjt<tdd2tttttddttdd2ijxwpxj6t",
"#cFctt,cJc,cGc9cHN6cJc;cHS6cHN,c",
"#ttt9e;dgg4dgx0VVVrdgd<djjqdjg2d"
};
