/* XPM */
static char *result[] = {
/* columns rows colors chars-per-pixel */
"64 64 127 2 ",
"   c #442211",
".  c #5D2211",
"X  c #502617",
"o  c #592A0C",
"O  c #6E3308",
"+  c #66370C",
"@  c #772211",
"#  c #45352C",
"$  c #48382F",
"%  c #5E342C",
"&  c #60372E",
"*  c #672B3C",
"=  c #72401A",
"-  c #7F5429",
";  c #7B452B",
":  c #332A44",
">  c #223377",
",  c #3B3377",
"<  c #3C3478",
"1  c #33446A",
"2  c #454545",
"3  c #474748",
"4  c #474848",
"5  c #4B4B4B",
"6  c #616E77",
"7  c #706870",
"8  c #893409",
"9  c #881133",
"0  c #A11133",
"q  c #903737",
"w  c #AA332E",
"e  c #CC3B2A",
"r  c #884C08",
"t  c #994400",
"y  c #834419",
"u  c #945D15",
"i  c #A14C08",
"p  c #B25D00",
"a  c #A55915",
"s  c #8A5725",
"d  c #99552A",
"f  c #884038",
"g  c #B2552A",
"h  c #BB4C3B",
"j  c #9D6227",
"k  c #946A26",
"l  c #A16E22",
"z  c #BC6E23",
"x  c #A17F3B",
"c  c #A57B34",
"v  c #BB7B34",
"b  c #CC7700",
"n  c #CC7F19",
"m  c #C36622",
"M  c #DD7F22",
"N  c #88234D",
"B  c #992266",
"V  c #B22266",
"C  c #B63C67",
"Z  c #CC0055",
"A  c #DD444C",
"S  c #DD776F",
"D  c #FF7766",
"F  c #BF8C3F",
"G  c #F6A13B",
"H  c #E5B23B",
"J  c #FFBB33",
"K  c #A18945",
"L  c #A38C4B",
"P  c #BB8845",
"I  c #A1995D",
"U  c #89847E",
"Y  c #A1A17F",
"T  c #EE8844",
"R  c #F6AE4C",
"E  c #F6BB5D",
"W  c #D0BB6A",
"Q  c #FFD456",
"!  c #FFE166",
"~  c #FFEE77",
"^  c #FFEE7A",
"/  c #113BAA",
"(  c #234490",
")  c #3C5C9E",
"_  c #0044DD",
"`  c #084ADE",
"'  c #DD1188",
"]  c #EE22BB",
"[  c #F64C90",
"{  c #E56699",
"}  c #E5699B",
"|  c #7CA2AA",
" . c #978B85",
".. c #8B9481",
"X. c #9C9798",
"o. c #AB8883",
"O. c #A78781",
"+. c #B08B85",
"@. c #85A6AE",
"#. c #8AA5AD",
"$. c #9BA0A3",
"%. c #93A7AF",
"&. c #94AAB1",
"*. c #83B0BC",
"=. c #8CB4BF",
"-. c #F2839D",
";. c #C2BCBC",
":. c #FFA1A1",
">. c #FFF699",
",. c #FFFFBB",
"<. c #A8D0D9",
"1. c #B4D4DE",
"2. c #C4CBCE",
"3. c #FFCDDE",
"4. c #CEE6ED",
"5. c #CFE8EF",
"6. c #D0E7EE",
"7. c #D2E8EF",
"8. c #D5EAF1",
"9. c #DBEEF4",
"0. c #DFF0F6",
"q. c #E1EFF4",
"w. c #E4F1F6",
"e. c #E8F2F7",
"r. c #E6F3F9",
"t. c #EAF3F8",
"y. c #F6FAFC",
/* pixels */
"y.t.t.t.t.t.t.t.t.t.t.t.t.t.9.9.7.4.6.9.9.9.e.t.t.t.t.t.t.t.t.t.t.t.t.t.9.9.8.6.4.8.9.9.q.t.t.t.t.t.t.t.t.t.t.t.t.t.w.9.9.8.4.8.",
"t.t.t.t.t.t.t.t.t.t.t.t.t.9.9.7.4.4.9.9.q.e.t.t.t.t.t.t.t.t.t.t.t.t.t.q.9.9.4.4.6.9.q.t.t.t.t.t.t.t.t.t.t.t.t.t.t.t.9.9.8.4.8.8.",
"t.t.t.t.t.t.t.t.t.t.t.t.e.0.7.6.6.9.q.t.t.t.t.t.t.t.t.t.t.t.t.t.t.t.t.q.8.4.4.8.9.w.t.t.t.t.t.t.t.t.t.t.t.t.t.t.t.q.9.8.4.4.9.q.",
"t.t.t.t.t.t.t.t.t.t.t.w.0.0.6.6.8.9.e.t.t.t.t.t.t.t.t.t.t.t.t.t.t.t.q.9.8.4.8.9.e.t.t.t.t.t.t.t.t.t.t.t.t.t.t.t.w.9.9.8.6.9.q.t.",
"t.t.t.t.t.t.e.e.e.e.e.9.9.7.6.6.q.9.e.t.t.t.t.t.t.t.t.t.t.e.t.t.w.w.9.8.4.5.9.0.e.t.t.t.t.t.t.t.t.t.t.e.e.t.t.w.9.9.9.6.9.9.q.t.",
"t.t.t.t.t.t.q.w.e.e.w.9.9.4.4.6.e.q.q.t.t.t.t.t.t.t.t.t.w.q.t.t.w.9.9.8.4.4.9.r.9.e.t.t.t.t.t.t.t.t.t.9.e.t.q.9.9.9.4.4.9.q.q.e.",
"t.t.t.t.t.t.t.t.e.0.9.9.0.4.7.0.t.t.t.t.t.t.t.t.t.t.t.t.t.e.t.q.0.9.9.4.6.9.r.t.t.t.t.t.t.t.t.t.t.t.t.t.t.e.9.9.9.9.4.9.9.t.e.t.",
"t.t.t.t.t.t.t.t.r.0.9.0.4.6.7.e.t.t.t.t.t.t.t.t.t.t.t.t.t.t.t.q.9.9.9.4.6.9.t.t.t.t.t.t.t.t.t.t.t.t.t.t.t.q.9.9.9.8.6.9.e.t.t.t.",
"t.t.t.t.t.t.t.r.r.0.0.6.5.6.9.e.t.t.t.t.t.t.t.t.t.t.t.t.t.t.r.0.9.5.5.4.8.t.t.t.t.t.t.t.t.t.t.t.t.t.t.t.t.0.9.9.8.4.9.q.t.t.t.t.",
"t.t.t.t.t.t.t.0.0.0.7.5.4.w.e.e.t.t.t.t.t.t.t.t.t.t.t.t.t.w.9.9.8.5.5.0.t.t.t.t.t.t.t.t.t.t.t.t.t.t.t.w.9.9.9.8.4.8.r.t.t.t.t.t.",
"t.t.t.t.t.t.0.9.8.0.4.7.9.r.e.t.t.t.t.t.t.t.t.t.t.t.r.t.w.9.9.9.5.4.8.0.t.t.t.t.t.t.t.t.t.t.t.t.t.t.r.0.9.9.9.4.8.9.t.t.t.t.t.t.",
"t.t.t.t.r.w.9.9.0.5.4.7.0.t.t.t.t.t.t.t.t.t.t.t.t.t.r.w.9.9.9.8.4.6.9.r.t.t.t.t.t.t.t.t.t.t.t.t.t.r.w.9.0.9.9.4.9.9.t.t.t.t.t.t.",
"t.t.t.t.w.9.0.9.6.4.4.9.r.t.t.t.t.t.t.t.t.t.t.t.t.t.w.9.9.9.9.4.4.5.t.t.t.t.t.t.t.t.t.t.t.t.t.t.r.w.9.9.9.9.4.4.9.t.t.t.t.t.t.t.",
"t.t.t.w.9.0.9.8.5.5.8.0.e.t.t.t.t.t.t.t.t.t.t.t.t.e.9.9.9.9.4.4.8.w.r.t.t.t.t.t.t.t.t.t.t.t.t.w.r.9.9.0.9.6.4.8.w.t.t.t.t.t.t.t.",
"t.t.w.9.9.6.6.4.4.6.0.e.t.e.t.t.t.t.e.q.t.t.t.t.w.9.9.9.8.6.4.6.9.w.e.t.t.t.t.t.t.w.e.t.t.t.w.w.9.9.8.9.6.6.9.9.t.t.t.t.t.t.t.t.",
"w.0.9.9.5.5.6.5.8.0.e.t.t.t.t.t.t.t.q.9.t.t.e.w.9.8.8.6.4.6.5.9.w.r.e.r.t.t.t.t.w.w.w.t.t.e.w.9.9.8.4.6.6.9.9.t.t.t.t.t.t.t.t.w.",
"0.9.9.4.4.6.9.q.t.t.t.t.t.    @ @ .   @.r.r.w.9.9.6.    | 9.r.t.t.t.t.t.t.t.t.t.t.t.t.t.w.9.9.9.8.4.8.9.q.t.t.t.t.t.t.t.t.t.t.t.",
"9.9.6.4.8.9.w.t.t.t.t.t.t.    @ @ .   @.r.e.q.9.6.4.    @.w.w.t.t.t.t.t.t.t.t.t.t.t.t.w.9.0.9.8.4.8.9.w.t.t.t.t.t.t.t.t.t.t.t.t.",
"9.8.4.4.9.t.t.t.t.t.t.@.@.L L . . s L ..o.o.X.#...| L L ..| @.r.t.r.t.t.t.t.t.t.t.w.w.0.9.9.8.4.6.9.t.t.t.t.t.t.t.t.t.t.t.t.t.t.",
"8.4.4.9.q.t.t.t.t.t.e.    ^ ^     K ^ P @ @ @ @     ^ ^ K     9.t.t.w.t.t.t.t.t.w.9.9.9.0.8.4.5.9.w.t.t.t.t.t.t.t.t.t.t.t.t.t.q.",
"4.4.9.w.t.t.t.t.t.q.w.    Q Q     c Q c . . 0 0 . . Q Q c     | <.w.t.t.t.t.t.w.9.9.9.6.6.5.0.9.w.t.t.t.t.t.q.t.t.t.e.e.t.t.9.9.",
"7.9.q.t.t.t.t.t.t.q.e.    J J     l J l     Z Z @ @ J J k       | w.w.t.w.r.e.0.9.8.5.5.7.0.r.t.t.t.t.t.t.w.q.t.t.t.t.w.w.q.9.9.",
"t.t.t.t.w.t.t.t.t.t.r.    J J     l J l     Z Z @ @ J J l       | 9.q.t.w.9.8.6.5.6.7.9.9.e.t.t.t.t.t.t.t.t.t.t.t.t.w.9.9.9.4.4.",
"t.t.        t.t.&.@ @     T T     l J l     ] ] @ @ J J l     J l     5 5 9.5.4.4.9.0.r.t.t.t.t.t.t.t.t.t.t.t.t.t.w.9.9.9.6.6.7.",
"t.t.        r.r.%.@ @     T T     l J l     ] ] @ @ J J l     J l     2 3 4.4.6.9.9.t.t.t.t.t.t.t.t.t.t.t.t.t.t.t.w.9.9.4.4.7.w.",
"    Z Z ' ]           @ @     T T M b r         J J t t O     b r     _ ` 3 5 *.9.t.t.t.t.t.t.t.t.t.t.e.t.t.t.e.e.0.9.5.4.4.0.w.",
"    Z Z ' ]           @ @     T T M b r         J J t t O     b r     _ _ 2 2 *.e.t.e.e.t.t.t.t.t.t.e.e.t.t.e.e.0.9.9.5.7.0.w.e.",
"    Z Z } 3.D D h @ @ @ @ Z Z     d T m t t J J t t     O t t         _ _ _ _ ) 5 $         t.t.t.t.t.0.e.t.w.0.9.9.4.4.w.e.9.w.",
"    Z Z } 3.D D h @ @ @ @ Z Z     d T m t t J J t t     O t t         _ _ _ _ ( 4 #         t.t.t.t.t.w.e.e.w.9.0.9.4.5.w.e.w.e.",
"@.@.9 9 C } :.:.S h h @ @ 0 0 l l j d a p p n n p p O O O O O   : > > _ _ _ _ ( 2 * 9 9 B B  . .t.t.t.e.e.w.0.9.8.6.4.0.w.e.t.e.",
"t.t.    9 Z 3.3.:.D D @ @ @ @ J J l   r b b t t b b t t O       > _ _ _ _ _ _ ( 2 N Z Z ] ]     t.t.t.t.e.0.0.9.5.5.6.w.r.t.t.t.",
"t.t.@.@.7 9 } } -.:.:.h h V V l l u r r r r O O r r O O o     > / _ _ _ _ _ _ ( 4 f e e ' ' 9 9  . .t.t.w.9.9.6.4.6.w.r.t.t.t.t.",
"t.t.t.r.@.  Z Z { 3.3.D D ] ]     r b r                       _ _ _ _ _ _ _ _ ( 2 s b b Z Z Z Z     e.q.q.9.8.4.6.8.t.t.t.t.t.t.",
"t.t.t.t.1.@.9 9 C { { [ [ [ [ B B q r O     9 * 9 9 . . X # # _ _ _ _ _ _ ( ( 6 I F T n Z Z ' '     o.Y ;.q.8.4.9.q.t.t.t.t.t.t.",
"t.t.t.t.w.9.    9 Z Z ] ] D D ] ] B         Z Z Z Z @ @ % 2 2 _ _ _ _ _ _ 2 2 I ~ E T T Z Z ] ]     @ @ +.q.4.6.9.e.e.t.t.t.t.t.",
"t.t.t.w.8.9.    9 Z Z ] ] D D ] ] B         Z Z Z Z @ @ % 2 2 _ _ _ _ _ _ 2 2 I ~ E T T Z Z ] ]     @ @ U 4.4.8.q.e.e.e.t.t.t.t.",
"t.t.    . @     d T T Z Z Z Z ] ] [ D [ ] ] Z Z @ @ @ @ , _ _ 2 2 2 2 $ 2 ,.,.>.~ E T T Z Z ] ]     b b i @ @ q.e.t.t.t.t.t.t.t.",
"t.w.    . @     d T T Z Z Z Z ] ] [ D [ ] ] Z Z @ @ @ @ , _ _ 2 2 2 2 2 2 ,.,.>.~ E T T Z Z ] ]     b b i @ @ t.t.t.t.t.t.t.t.q.",
"w.9.5 4 #             T T t t @ @ @ @ @ @ @     2 2 2 2 $ 2 2 2 ..,.,.,.,.~ ~ ~ ~ E T T Z Z ] ]     @ @ .       $ 5 5 t.t.t.t.e.",
"0.9.5 4 #             T T t t @ @ @ @ @ @ @     $ 2 2 2 2 2 2 2  .,.,.,.,.~ ~ ~ ~ E T T Z Z ] ]     @ @ .       $ 3 5 t.t.t.t.e.",
"#.#.& % ; d K K k r r d d O O @ @ @ @ 8 i i d d x x ( ( , 2 2 c W >.>.>.>.~ ~ ! Q R M T Z Z ' ' . . . . X     l s % % $.$.2.t.t.",
"5 4 @ @ g T ^ ^ H b b         @ @ @ @ i b b T M J J _ _ ( 2 2 J Q ~ ~ ~ ~ ~ ~ Q J G T T Z Z Z Z @ @           J z @ @ 3 5 $.t.w.",
"5 4 @ @ t b J J J J J J J ~ ~ ~ ~ ~ ~ Q J J R J _ _ 2 2 K J J J J J J J J J J G T A Z Z Z Z Z Z Z Z t t m T T T G J J @ @ +.w.9.",
"5 5 @ @ i b J J J J J J J ~ ~ ~ ~ ~ ~ Q J J J J _ _ 2 2 c J J J J J J J J J J G T A Z Z Z Z Z Z Z Z i 8 m T T T G J J @ @ X.8.8.",
"&.&.& % = r l l l l l l k K K P P P P v z z z z < < % % s z z n F F n n n n n m h w 0 0 9 9 9 9 9 9 O O y d d d l l k . . 7 U U ",
"t.t.5 5 $                     @ @ @ @ @ @ @ @ @ @ @ @ @ @ @ @ t t i t t t t t 8 @ @ @ @                                         ",
"t.t.5 5 $                     @ @ @ @ @ @ @ @ @ @ @ @ @ @ @ @ t t t t t t t t 8 @ @ @ @                                         ",
"t.t.t.t.=.5 4 5 4 2 2 2 4 4 2 3 2 3 3 3 4 4 4 4 2 3 3 3 3 3 3 3 2 2 3 2 2 2 2 2 5 3 3 3 2 5 2 2 2 3 2 3 2 2 2 3 2 2 3 3 3 3 5 5 ",
"t.t.t.t.=.5 5 5 5 5 5 5 5 5 4 5 5 5 5 5 5 5 5 5 5 5 5 5 5 5 5 5 5 5 5 5 5 5 5 5 5 5 5 5 5 5 5 5 5 5 5 5 5 5 5 5 5 5 4 4 5 5 5 5 ",
"t.t.t.t.t.t.w.w.e.e.e.0.9.4.4.5.q.e.w.e.t.t.t.t.t.t.t.t.w.w.t.t.0.w.9.8.6.4.9.9.w.t.t.t.e.t.t.t.t.t.t.w.t.e.e.w.0.9.6.4.9.9.w.t.",
"t.t.t.t.t.t.w.w.e.w.w.9.9.4.5.6.t.q.e.t.t.t.t.t.t.t.t.t.w.q.t.t.0.9.9.6.4.6.w.q.9.e.t.t.t.t.t.t.t.t.e.q.e.e.w.9.9.7.6.4.9.e.9.t.",
"t.t.t.t.t.t.t.t.e.w.9.9.7.4.9.9.t.t.t.t.t.t.t.t.t.t.t.t.t.t.t.9.9.9.9.6.8.9.e.t.t.e.t.t.t.t.t.t.t.e.e.e.e.w.9.9.9.7.6.9.9.t.t.t.",
"t.t.t.t.t.t.t.t.e.0.0.8.4.4.0.w.t.t.t.t.t.t.t.t.t.t.t.t.t.t.t.9.9.0.4.4.6.w.t.t.t.t.t.t.t.t.t.t.t.t.t.t.t.q.9.9.7.6.6.9.e.t.t.t.",
"t.t.t.t.t.t.t.r.w.0.8.4.4.7.0.e.t.t.t.t.t.t.t.t.t.t.t.t.t.t.w.9.9.5.4.6.8.t.t.t.t.t.t.t.t.t.t.t.t.t.t.t.w.q.9.7.6.6.7.w.t.t.t.t.",
"t.t.t.t.t.t.t.r.0.8.7.4.6.w.e.e.t.t.t.t.t.t.t.t.t.t.t.t.t.w.9.9.8.4.8.9.t.t.t.t.t.t.t.t.t.t.t.t.t.t.t.e.9.9.9.4.4.6.t.t.t.t.t.t.",
"t.t.t.t.t.t.r.9.0.0.4.6.0.e.e.e.t.t.t.t.t.t.t.t.t.t.t.t.q.9.9.9.6.5.9.w.t.t.t.t.t.t.t.t.t.t.t.t.t.t.e.q.9.9.7.6.8.9.t.t.t.t.t.t.",
"t.t.t.t.w.w.9.9.8.7.4.7.w.t.t.t.t.t.t.t.t.t.t.t.t.e.e.w.9.9.9.8.4.6.r.t.r.t.t.t.t.t.t.t.t.t.t.t.t.e.9.9.9.8.6.6.9.q.t.t.t.t.t.t.",
"t.t.t.r.w.9.9.9.7.5.4.9.e.t.t.t.t.t.t.t.t.t.t.t.t.e.w.0.9.0.8.4.4.8.r.t.t.t.t.t.t.t.t.t.t.t.t.t.q.9.9.9.9.6.4.6.q.t.t.t.t.t.t.t.",
"t.t.t.w.9.9.9.6.4.4.8.0.t.t.t.t.t.t.t.t.t.t.t.t.t.w.0.9.9.8.4.4.9.9.r.t.t.t.t.t.r.t.t.t.t.t.t.w.q.9.9.8.6.4.6.9.q.t.t.t.t.t.t.t.",
"t.t.q.9.8.6.6.4.5.9.0.e.t.t.t.t.t.t.q.q.t.t.t.t.w.9.9.8.6.4.4.6.9.r.t.t.t.t.t.t.w.w.r.t.t.t.w.w.9.8.6.4.6.6.q.q.t.t.t.t.t.t.t.q.",
"t.q.9.9.4.4.6.7.6.w.e.t.t.t.t.t.t.t.t.q.t.t.t.w.9.9.5.4.6.8.9.9.w.t.t.t.t.t.t.t.t.w.t.t.t.r.9.9.9.4.6.8.9.q.q.e.t.t.t.t.t.t.t.t.",
"q.9.9.4.4.4.0.0.e.t.t.t.t.t.t.t.t.t.t.t.t.e.w.9.9.6.4.4.8.0.e.t.t.t.t.t.t.t.t.t.t.t.t.t.w.9.9.8.4.4.6.9.t.t.e.e.t.t.t.t.t.t.t.t.",
"q.8.4.4.9.0.e.t.e.t.t.t.t.t.t.t.t.t.t.t.t.w.9.9.6.4.6.0.w.t.t.t.t.t.t.t.t.t.t.t.t.t.t.w.9.9.8.4.4.w.w.t.t.t.t.t.t.t.t.t.t.t.t.t.",
"r.4.4.8.9.t.t.t.t.t.t.t.t.t.t.t.t.t.e.q.9.9.9.6.4.4.9.w.t.t.t.t.t.t.t.t.t.t.t.t.t.q.9.9.9.8.4.4.5.r.t.t.t.t.t.t.t.t.t.t.t.t.t.t."
};
