/* XPM */
static char *result[] = {
/* columns rows colors chars-per-pixel */
"64 64 28 1 ",
"  c #8C451F",
". c #8D4923",
"X c #944D25",
"o c #9B4D24",
"O c #965026",
"+ c #9A5127",
"@ c #9D5429",
"# c #9F582A",
"$ c #A44D26",
"% c #A54F28",
"& c #A94F28",
"* c #A35327",
"= c #A65129",
"- c #AA552B",
"; c #A6582A",
": c #AD5A2E",
"> c #B15A2F",
", c #AE5D30",
"< c #B25E31",
"1 c #AF6032",
"2 c #B56335",
"3 c #B86536",
"4 c #B66937",
"5 c #B96837",
"6 c #BA6738",
"7 c #B66938",
"8 c #BA6C3A",
"9 c #BD713D",
/* pixels */
"X.. ..XXXXX O   ..X oX.XXXoo**;;;;*+o+++@o@o@$o++++$++oXooooXoOo",
".. X..X O .. O  ..XX X.XXXoo*@;;;;o@+o+o@+o$+o*+*o++++XooooooooX",
"44664888989988#@113<<<333<<<33668837868888988889988844#@,1444444",
"44468889899989@@1,22<<<<<<<<33888378488898898998898844@#11414444",
"<2336686988999##,,,>>>>,<>><<<<<2<22226666666666665524@@>><<>22<",
"<2336688888988##<1<>>>>,><><<<3<2222226666688667868542@@>><<>2<3",
">>-->>1><<1211OO==-%&%%%%%%%%-%=------::->,,,<,,:>:>::@@;;-&&>>-",
"-->-1:>1<<2111OO%-%%%%%%%%%%%&==----:;::,>,,>,,,:1,,::+@**-&>---",
"@##@@+@@*##@@#OO+O+++@O@++O@++O+ooXXXX+o@@+++@@@@@@#@;++**#@####",
"#@@@++@@#@##@@OOOO++OOO@++@@++OOXOXXOX+X++O++@@@*@#@#*@*@#@@@@##",
"8944*#1222224444777788889999999948@@1122737766889449999998889999",
"9848##2222224444777788889999999988@@,224773766869998899999889999",
"9966#@11<<<<<222722333668988889898##1,<<<<3<3<664525252552559899",
"8988#*>1<2<<<<32773337668898998988##<,22<<<<<3<34235525255558899",
"2211++----------------,-<<<<<<<<11O@---=---->>-::::::>::-:,:>><<",
"<21,+@*-----=-----,--,,,,<<<1<<<14#O=------->->->:>-::::::>><>3<",
"@@@@@@++@@@@+@@+++.OOO@@@++@@+@+++O@++@@O@@@+@#*####++@@#@@@#@##",
";@@@+++@@@@+@O+O++OOO@OO++@@+@+++++O+++@@@@@@@#*@*##@@@@@@@#@#@#",
"447887899999999988OO11723366678888878699999999989989#@1222228222",
"448788989999999988@@2,22<336778877678898999989988998##1222422828",
"332422223666666888@@,-,,<<<<6<<3<6<66386988959558888#@2><<<222<3",
"42232<333366666886++-,>><<<<<<6<3<<63388888859558888#@>1<<<<2222",
"----->>-:,,,<,,,<<OOoo%%&--->>:-:->:-:::<,<<<<,,>>22@@;*>->->-->",
"->,-:-->,::,,<,1,,XO$$%%-----:-:-::-:-:::<<<<<11212>@+------->--",
"*@+@++O+OO..O++OOOXX+@@@@@@%+@O+OOOOO..O++++@##@####@@@#-*@@*@@*",
"@@@++OOOOOX.++++OOXX++@@@@@+@+@+++OOOO..++@+@#@;###@@@@*@@@@@@@#",
"8788998844O@;,,,11777<6677889989998877@@114444888898485568247788",
"7798998849OO,,1,7,71776676888999889979O@1><445888899485568847888",
"7466865848++;--=-,<,<2<<<<6<6766666699OO>><><><<423<222222233338",
"2266688884@+------<,2<<<<66<6633667677@@>>><><<<11232<<3222<3433",
",><:11>>,,OX%%%%-&-&----:-::,:,,,,,,,,@O&&----&:::>>>::->>:::>>1",
"::,<>111,,OO%@%%-%&---------,,,:,,,,,1O@&&----:---:::::->-::,:1>",
"@@@%@@O@@OOO@@@@@@O++%++@@@@@@@@+@@=##@@@*@*##@#@@;###+O###@##@#",
"#@@@@@@O@@OO@@@@@@+O+O+$@O@O@@@@#@#@##@+@*@@#@#@*####O++@##@@#@@",
"877767777787898887@@,-<,<22297888888898888889998999998##44828854",
"777677777788889877@@,,<<<<2777666888888888888999999989##24488828",
"622222222233676867@@--,>,><<222<3<2<222322668688988988@*<<2<2<25",
"222227222263768876@@-%,-,-<<2222<<<2323<33668868889888#@<<<22222",
"--,--------,,,,<,,@+%%%$o$%%%@%%==-=--:--->::11<2:11::@@-&;&:&--",
"----------,-,,<<,<++%%$%%%%%%@,%====----:-::1>1::2<,::++-;&;&:-:",
"@@++@O++OO%@@OO@OOXXXXX.O.OO...O+O+++++@+++@@@@@@OO#@@@@*##@##@#",
"@@O@O+++X$OO@@@OOOOOXXO.O.......OO+O+++++++@O@O@@@#O@@@*@@#*+**@",
"77@@,<2<3<3<6677888887977777.O,,<<<32273277746667888899688989899",
"87@@<<<2<<<36677886678787717OO,,<<2<2233227264888788988989998988",
"88@=--,->>>>>3333<3332232322OX-%,:->>>>>,<<<<<<><<2<22<323324436",
"88@@,-<--->><<<6<3<62333262,XO-%-->&>><<<<<<<><<<<<2243<23224486",
"<,O+$$$$$$%%&&&-------&---,-XX$$&$$$&$$%%%-%&%%&==---=--------::",
",,$o$$$$$%%%--&-----,>------XX$%&$o$&&$$%%%%&&=%=====-=-----:;::",
"@=@@@+O+O+XO+O++++XO+XOO@O@OXOOOOX+XOOOOX+OXOOXXXoXXXX+X++OOOX+@",
"@@@O@@+@@XXXOO@+++X+X@@OXOOOXOXOO+X+OOOO++XXOXXXXXXo+OXOOOoXO+++",
"6677798871@@<<<2222368889699699668888999988977#@:,22226688384483",
"7778878877@@<,22226286899996966688869899999878@@,,<2222588832778",
"<222333733@@-:,,<<<<<<2<<<6<<3<<23<<7366768977@@::>>>>>><<<<<<33",
"222263323<@@:-:,<<<>3<3<<3<<<<3<3<<33368688877@#::>>>>>>33<<<233",
"-------,--@oo%$$%%%-&&------&-&%-&&&--:-:,<<,,+@-*------>->-->>>",
"---=-,,-;-OO$%$%%%%%&------&---------%:-:,,<,,++==------------->",
"++O@OO++@+O+X+O+OO%X@@@@++O+OOOX.X..OXOO++@@O@+++++O++++%@O+@@@@",
"++@OXO+++++O+OOOOXX@@XOO+++OOOXOXX...XXO++@+O@O++++O+++@+o@+@@@=",
"4421@@1171221222<36667787777788877O@1177223677777337336673227798",
"4422@@<2,,<<2,21336676677677778677OO1172233<77722772776637777788",
"23,2o%-->-->,>->><<<<<<<<3<<333322+$,--,>-><<<<<<<2<<<<<<<<<,333",
"7712@@-,>>>>,->><3<<<<<3<<<<<33323+o---,>&>><<<<<<<<<<<<<<<<<<37",
"-<-,@@&&&&&&&$&&&&&&&&-&-&&->>>>-,.ooo$$$$$&-%&&----&-&->--->-::",
"<<:-o@&&&&&&&&&&&-&&&&&&&&&-->>>--o ooo$o$$$-%$-&-%--&-&---->->>"
};
