/* XPM */
static char *result[] = {
/* columns rows colors chars-per-pixel */
"32 32 152 2 ",
"   c #7E4D2F",
".  c #824B2D",
"X  c #834C2E",
"o  c #834D2E",
"O  c #844D2F",
"+  c #854E2F",
"@  c #874E30",
"#  c #864F30",
"$  c #884F30",
"%  c #815030",
"&  c #865232",
"*  c #8C5232",
"=  c #8D5333",
"-  c #8E5433",
";  c #8A5534",
":  c #8F5534",
">  c #8F5936",
",  c #955135",
"<  c #955235",
"1  c #915534",
"2  c #915735",
"3  c #985437",
"4  c #985537",
"5  c #975B37",
"6  c #9A5739",
"7  c #9B5739",
"8  c #9C5538",
"9  c #9C5638",
"0  c #9D5738",
"q  c #9D5739",
"w  c #9E5939",
"e  c #9C593A",
"r  c #9F593A",
"t  c #9C5A3A",
"y  c #9D5B3B",
"u  c #9E5A3A",
"i  c #9F5A3A",
"p  c #9C5F3B",
"a  c #9E5C3C",
"s  c #9F5D3C",
"d  c #A05A3A",
"f  c #A05A3B",
"g  c #A05B3B",
"h  c #A15B3B",
"j  c #A05C3B",
"k  c #A15C3C",
"l  c #A15D3C",
"z  c #A25C3C",
"x  c #A25D3C",
"c  c #A25E3D",
"v  c #A35E3D",
"b  c #A35F3D",
"n  c #A35F3E",
"m  c #A45F3D",
"M  c #A45F3E",
"N  c #9F613C",
"B  c #A4603E",
"V  c #A5603E",
"C  c #A5603F",
"Z  c #A4613F",
"A  c #A5613F",
"S  c #A6613F",
"D  c #A66240",
"F  c #A66340",
"G  c #A76340",
"H  c #A76341",
"J  c #A76441",
"K  c #A86441",
"L  c #A86442",
"P  c #A86542",
"I  c #A96542",
"U  c #A96642",
"Y  c #A96643",
"T  c #AA6642",
"R  c #AA6643",
"E  c #AA6743",
"W  c #AB6944",
"Q  c #AB6845",
"!  c #AC6946",
"~  c #AC6A46",
"^  c #AD6A46",
"/  c #AD6A47",
"(  c #AD6B47",
")  c #AE6A46",
"_  c #AE6B47",
"`  c #AD6D48",
"'  c #AE6C48",
"]  c #AF6C48",
"[  c #AF6D48",
"{  c #AF6D49",
"}  c #AE6E49",
"|  c #B06E49",
" . c #AF704A",
".. c #B1704A",
"X. c #B0714A",
"o. c #B0714B",
"O. c #B2704A",
"+. c #B2714B",
"@. c #B3714B",
"#. c #B1724B",
"$. c #B3724B",
"%. c #B1724C",
"&. c #B3724C",
"*. c #B2734C",
"=. c #B4724C",
"-. c #B4734C",
";. c #B2744C",
":. c #B3744D",
">. c #B3754D",
",. c #B3754E",
"<. c #B5744D",
"1. c #B4754D",
"2. c #B4754E",
"3. c #B4764E",
"4. c #B5774E",
"5. c #B5774F",
"6. c #B6764E",
"7. c #B7774F",
"8. c #B5784F",
"9. c #B6784F",
"0. c #B67850",
"q. c #B67950",
"w. c #B77950",
"e. c #B77B50",
"r. c #B77A51",
"t. c #B87850",
"y. c #B97950",
"u. c #B87A51",
"i. c #B87B51",
"p. c #B97B51",
"a. c #B87B52",
"s. c #B97B52",
"d. c #B87C52",
"f. c #B97C52",
"g. c #B97C53",
"h. c #B97D53",
"j. c #BA7D53",
"k. c #BA7E53",
"l. c #BA7E54",
"z. c #BB7E54",
"x. c #BA7F54",
"c. c #BB7F54",
"v. c #BC7F55",
"b. c #BC8055",
"n. c #BD8156",
"m. c #BD8256",
"M. c #BC8357",
"N. c #BE8257",
"B. c #BE8357",
"V. c #BF8458",
"C. c #BF8659",
"Z. c #C08559",
/* pixels */
"X X o O + + X . X @ $ # $ = 5 N p 2 - : : 1 1 1 : : : - - - = * ",
"q.r.h.x.b.M.C.> :.1.#.#.#.#.:.8.0.0.q.d.l.l.l.l.l.h.z.> *.>.8.0.",
"{ X.:.>.4.r.k.> ! E E E E E ! ' [ [  .;.:.:.:.:.:.;.,.> W ~ ' [ ",
"S H E Q ~ [ o.; m x u w w u j l A A D I R E Q Q E E E > v M C S ",
"> > > > > > > & ; ; ; ; ; ; ; & & & & & ; ; ; ; > > > > > > > > ",
"j.f.> 2.:.:.5.r.r.r.r.z.n.B.B.B.m.> >.:.7.9.u.j.j.j.n.n.n.r.N.V.",
"f.r.> ' / / '  .o.o.o.*.5.5.5.5.z.> ' / / ( ' ..o.o.o.o.o.#.5.f.",
"} | > V M V c Z A Z J Y ~ ( ( ( $.> S V C A H P P L L J J L W { ",
"> > ; ; ; ; ; ; ; & ; ; ; ; ; ; & ; ; ; ; ; ; > > > > > > > > > ",
"8.s.s.n.V.Z.Z.n.B.; 1.<.<.7.i.s.s.i.s.N.Z.Z.n.n.n.V.> :.%.2.5.8.",
" . .( [ #.#.#.#.v.; Y P ! ~ { | | | ..>.3.3.3.#.3.f.> ( ! _ } | ",
"H H J U W ! ! ! ' ; 4 g m C H J J J K E ! ! ! ! ! O.> A V D H H ",
"> ; ; & %   ; ; & % > > > > ; ; & % % % ; ; > > > > > > > > > > ",
"r.h.l.l.b.; [ ` *.3.8.8.0.j.b.n.n.n.V.; *.1.u.j.z.m.e.e.i.0.r.g.",
" .*.;.;.u.; Z s J Y ' ' [  .*.;.;.;.u.; Q E E ~ ' ' ' ' ' [ X.*.",
"I Q ^ ^ [ ; k e k b n b n A P Y Y Y ! > M m M D H J J J J K Y W ",
"> > > ; ; & > > > > > > > > > > > > > > > > > > > > > > > > > > ",
"q.q.q.q.q.a.l.x.d.> ~ ] | :.8.f.f.f.b.f.f.j.b.m.n.Z.B.> s.u.f.q.",
"} } } } | o.>.>.w.> K G K ! [ } ~ ~ } } | *.>.>.>.q.j.> [ / [ } ",
"n n b D D J E ! _ > z h 6 y a a a s G G H Y ! ~ ~ ! E > M l b G ",
"> > ; ; ; ; ; ; & & % % % %   & ; ; ; ; ; ; ; ; ; ; ; > > > > > ",
"v.> $.O.O.=.t.f.f.f.f.f.f.v.% { O.@.1.6.6.6.u.p.f.c.b.b.b.n.z.l.",
"f.> J H H I ~ } | | | | | o.& H H J E W W W W W W ( } | |  .#.3.",
") > r 0 0 i c B B H H H H T & 9 8 q i g g g g g j c n B B B D P ",
"> > > ; ; ; ; ; ; & & & & & & & & & & & & & & & & & & & & & & ; ",
"5.q.d.h.a.> +.<.<.7.j.n.n.n.z.z.z.z.m.N.b.b.c.> [ -.<.7.b.u.5.u.",
"' } #.#.:.> H Y Y Q / _ _ _ _ _ _ _ #.3.5.5.w.> E Y Y W ( _ _ ..",
"n Z F J D > 7 i i l v b b b b b b b B H P ! ' > m v m A D D D T ",
"; ; ; ; ; ; ; ; ; ; ; ; ; ; % % %   % % ; ; ; ; ; ; ; ; ; ; > > ",
"q.q.> &.o.+.X.*.3.5.i.i.i.0.j.v.c.; 6.y.1.9.u.5.5.5.5.5.8.5.8.j.",
"o. .> P K K K L E ! ~ ~ ~ ~ { ..:.> L K K R ! ~ ~ ~ ~ ~ ~ ~ /  .",
"P K > h d d f w g j j j j k S L K & < , 3 7 t u l l l l l C A L "
};
