/* XPM */
static char *result[] = {
/* columns rows colors chars-per-pixel */
"64 64 96 2 ",
"   c #442211",
".  c #5D2211",
"X  c #6E3308",
"o  c #772211",
"O  c #44332A",
"+  c #7F3726",
"@  c #444444",
"#  c #883F08",
"$  c #A53315",
"%  c #881133",
"&  c #B2222A",
"*  c #884C08",
"=  c #994400",
"-  c #A14C08",
";  c #B25D00",
":  c #A55915",
">  c #885D22",
",  c #99552A",
"<  c #A14C3B",
"1  c #BB4C3B",
"2  c #A16E22",
"3  c #BF7722",
"4  c #A17B33",
"5  c #CC7700",
"6  c #CC7F19",
"7  c #C36622",
"8  c #DD7F22",
"9  c #BB3359",
"0  c #BB1977",
"q  c #992266",
"w  c #BF2E61",
"e  c #CC0055",
"r  c #E53B5D",
"t  c #9D7248",
"y  c #C3444C",
"u  c #DD444C",
"i  c #FF7766",
"p  c #E59919",
"a  c #D0942A",
"s  c #D0A13B",
"d  c #FAAE37",
"f  c #F6A13B",
"g  c #FFBB33",
"h  c #A18844",
"j  c #89847F",
"k  c #A19066",
"l  c #EE8844",
"z  c #FFD455",
"x  c #F6C37F",
"c  c #FFDD77",
"v  c #FFEE77",
"b  c #224490",
"n  c #0044DD",
"m  c #DD1188",
"M  c #EE22BB",
"N  c #F64C90",
"B  c #EE5994",
"V  c #E56699",
"C  c #E57FAA",
"Z  c #8C8681",
"A  c #968B85",
"S  c #979798",
"D  c #959B9D",
"F  c #A78681",
"G  c #A48B85",
"H  c #A98883",
"J  c #B18B85",
"K  c #AC9380",
"L  c #C3BDBD",
"P  c #CBBFBE",
"I  c #FFA1A1",
"U  c #CDC0BF",
"Y  c #FFFFBB",
"T  c #B8C4C7",
"R  c #BCC6C9",
"E  c #BFC8CB",
"W  c #C6C2C0",
"Q  c #C4C9CC",
"!  c #D3C2C0",
"~  c #D8DBDC",
"^  c #FFCCDD",
"/  c #D8DFE3",
"(  c #CEE6ED",
")  c #CEE8ED",
"_  c #D0E6EE",
"`  c #D2E8EF",
"'  c #D5EAF1",
"]  c #DBEEF4",
"[  c #DFF0F5",
"{  c #E1EFF4",
"}  c #E4F1F6",
"|  c #E8F2F7",
" . c #E6F3F8",
".. c #EAF3F8",
"X. c #F6FAFC",
"o. c white",
/* pixels */
"' ) ] ] ] } } ........................| ] ] ` ( ) ] ] ] } ........................| ] ] ' _ ( ` ] } | | ......................X.",
"' _ ( ` ] ] } ..........................| { ] ' ( L P P P ! ! ! ! ! ! W W ~ ..........| { ' _ ( ` ] [ | ........................",
"{ ] ( ( ' ] { ..........................| ..| ] ' o o o o o o o o o o     A ..........| ..[ ] _ ( ' ]  . .......................",
"..{ ] ` ' ] ] } ........................| ..| | ] o o o o o o o o o o     G ..........| ..| ] ` ( ) ] } | ......................",
"..{ { ] _ ] ] ] } .......................... .          v v h             . o o           | ] ] ` ( ' ] [ | ....| | ............",
"{ { { ] ( ( ] ] ] } ....] ..................|           v v h             . o o           { { | ( ( ( ] ] }  . .} } ............",
"......] ] ( ] ] ] ] } ..} ..............U A A % %       z z 4     4 4     # 1 1 . . . h h A A G H F ( ] ] ] [  .| | ............",
"........] ( ' ] ] ] } ................ .A     e e       g g 2     v Y     < i i o o o v v     . o o ( ` ] ] ]  .................",
"........} ' ( ] ] ] [ .... .............A     e e       g g 2     v v     < i i o o o v v     . o o ` ( ` ] ]  .................",
"..........} ' ( ' ] ] ]  . .............A     i i       l l ,     v v     q M M o o o v v     h v v       ' ] ] { ..............",
"............] ' ` ] ] ] } .. ...........A     i i       l l ,     v v     q M M o o o v v     h v v       ` ] ] ] } | ..........",
"............] ] ( ] ] ] ]               < i i e e       5 5 p g g v v     q M M o o o g d     2 g g       ( ' ] ] ] }  .........",
"..............{ ( ( ] ] ]               < i i e e       5 5 p g g v v     q M M o o o g g     2 g g       ( ( ` ] ] ] } ........",
"..............} ] ( ( ] ]               < i i e e       5 5 p g g v v     q M M o o o g g     2 g g       ] ( ( ' ] [ ] } ......",
"............ .}     % e e i i i e e     % e e i i M M M     * 5 5 g g v v h     = = = g g = = 7 l l       ] ' ( ( ' ` ] ] } ....",
"} ............}     % e e i i i e e     % e e i i M M M     * 5 5 g g v v h     = = = g g = = 3 l l       } ] ' ` ) ( ( ] ] [ | ",
"................    % e e I I I V V < < y r r N N q q q , , 3 p p 2 2 z z s 2 2 6 6 6 f f ; ; : , , A A A ......{ ] _ ( ` ] ] ] ",
"................    % e e ^ ^ ^ ^ ^ i i i i i M M       l l f g g     g g g g g g g g l l 5 5 *     ..............} ] ` ( ( ] ] ",
"................    % e e ^ ^ ^ ^ ^ i i i i i M M       l l f g g     g g g g g g g g l l 5 5 *     ..................] ( ( ` [ ",
"[ } ................A           e e i i I ^ ^ ^ ^ i i i               = = 7 l l = = =         A ......................} ] ( ( ' ",
"] [ }  ...........] A           e e i i I ^ ^ ^ ^ i i i               = = 7 l l = = =         A ..........} { ..........} ' _ ( ",
"] ] } } } ........} | | ........              M M ^ ^ ^ ^ ^ ^ ^ ^ e e           e e e e e     A } } ........} ..............' ' ",
"( ( ] ] [ } ....................              M M ^ ^ ^ ^ ^ ^ ^ ^ e e           e e e e e     Z ] ] } ..........................",
"' ( ( ] ] [ } ..................              M M ^ ^ ^ ^ ^ ^ ^ ^ e e           e e e e e     Z ] ] ]  .........................",
"[ ' ( ( ] ] } ......................    , l l e e e e e e e m M M ^ ^ ^ ^ I i i i i i e e e e %     ] ..........................",
"} [ ( ( ( ] ] ......................    , l l e e e e e e e m M M ^ ^ ^ ^ I i i i i i e e e e %     ] ] ........................",
"....] ' ( ] ] ] } ..................    t x x % % C C C u u 9 q q V V V V B N N I I I r r r r w q q Z A A A A ..................",
"| ]  .] ( ( ] ] [ .... .} } ........    k Y Y     o.o.o.l l ,     e e e e m M M ^ ^ ^ i i i i N M M           ....] ............",
"..} ..} ( ( ' ] ] } .. .} ..........    k Y Y     o.o.o.l l ,     e e e e m M M ^ ^ ^ i i i i N M M           } ..{ ............",
"......} ] ( ' ] ] ] } ..........n n Y Y c g g = = o.o.o.g g g g g l l = = X               e e e e e e e e     | ................",
"......} } ` ( ( ] ] [ ..........n n Y Y c g g = = o.o.o.g g g g g l l = = X               e e e e e e e e     } ................",
"........ .} ' ( ( ] ] } ........    g g g g g g g g g g g g g g g l l 5 5 ; = = o o o                     ] ] ] } ..............",
"..........| ] ( ( ' ] ] } } ....    g g g g g g g g g g g g g g g l l 5 5 ; $ = o o o                     ` ] ] ] |  . .........",
"..........| ] ] ( ' ] ] ] } ....A A 2 2 a g g g g g g g g g d f f 8 a = - # X X J J J A A A A A A A A A Z ( ' ] ] ] }  .........",
"............| ] ( ) ' ] ] ] } ......    2 g g g g g g g g g f l l 5 5 o o .     ......................| ] ( ( ] ] ] ] } ........",
"..............] ' ( ( ] ] ] ] ] ....    2 g g g g g g g g g f l l 5 5 o o .     ........................] ` ( ` ' [ ] ] } ......",
"..............| ] ' ` ( ' o o o o o ....A     o o o o o o o o o o o o @ @ @ @ @ o o o ..| | ............} ] ` _ ) ` ] ] ] }  ...",
"} | ............ .] ) ( ( o o o o o ....A     o o o o o o o o o o o o @ @ @ @ @ o o o | { | ............| } ] ` ( ( ( ' [ ] ....",
"| ................ .] ' ] o o o o o [ ..K     o o o o o o o o o o o o @ @ @ @ @ o o o ..| | ..............| | { ] ' ( ( ' ] ] | ",
"| ................ . . .[       5 5 = = X               @ @ @ @ @ n n n n n n n @ @ @ o o     A ................} [ [ ' ( ' ] ] ",
"..........................      5 5 = = X               @ @ @ @ @ n n n n n n n @ @ @ o o     A .................... .] ( ( ' ] ",
"} ........................      5 5 g g p 5 5 5 5 l l l 5 5 > @ @ @ @ @ @ @ @ @ @ @ @ o o 5 5 *     ..................] ] ( ( ' ",
"] } ..............} ......      5 5 g g p 5 5 5 5 l l l 5 5 > @ @ @ @ @ @ @ @ @ @ @ @ o o 5 5 *     ........}  .......} [ [ ) ) ",
"' ' ] | | ........} } ....A A A * * p p p p p p p f f f 5 5 > @ @ b b b b b b b b b b . . 5 5 *     ...... .[ ............[ ` ) ",
"( ( ' ] { | | ..................    5 5 p g g g g g g g 5 5 > @ @ n n n n n n n n n n     5 5 *     ............................",
"` _ _ ` ] ] | ..................    5 5 p g g g g g g g 5 5 > @ @ n n n n n n n n n n     5 5 *     } ..........................",
"] ` ( ( ' [ ........................              @ @ @ @ @ @ @ @ @ @ n n n n n @ @ @         j ( ] } ..........................",
"{ ] ( ( ) [  . .....................              @ @ @ @ @ @ @ @ @ @ n n n n n @ @ @         j ( ` ] ..........................",
"| | ] ` ( ] ] { | | ......          ....A     e e e e e o o o o o o o o o o o o               Z ' ( ] ] } ......................",
"| { ] ] _ _ ] { | | ....}           ....A     e e e e e o o o o o o o o o o o o               A ( ( _ ] [ ......} } ............",
"| ] | ' _ _ _ ] ] { | | {           ....K     e e e e e o o o o o o o o o o o o               A ` _ ( ] ] [  . .} { ............",
"| ....} ' _ ] ] ] ] } | |       = = = = & e e e e M M M i i i i i i i M M m e e       g g g g 2     _ ' ] ] }  .................",
"| ......] _ ( _ ] ] } ..|       = = = = & e e e e M M M i i i i i i i M M m e e       g g g g 2     ) ) ' ] ]  .................",
"........| ' _ _ ` ] ] | ..A A A X X = = $ & & % % q q q < < < < < < < q q 0 m m % % % 2 2 g g 2     _ ( _ ' ]  .................",
"........| | _ _ ( ' [ ] | ......    = = = = =                             q M M e e e     g g 2     } _ _ ` ] ] { ..............",
"........| | { ' ( ] ] ] ] | ....    = = = = =                             q M M e e e     g g 2     } ] ` _ ] ] ] } ............",
"............{ ] ( ( ] ] ] ] } ......          @ @ @ @ @ @ @ @ @ @ @ @ @ @ O           o o 5 5 *      .} ' ( _ ] ] ] } } ........",
"..............] _ ( ( ] ] ] ] } ....          @ @ @ @ @ @ @ @ @ @ @ @ @ @ O           o o 5 5 *     ....] _ ( _ ] ] ] { ........",
"..............} ] _ ( ( ' ] ] ]  . ....................... .D @ @ @ @ @ @ @ @ @ @ @ @               ....] ] ( ( ` ] ] ] } ......",
"{ ..............{ { ' ( ( _ ] ] [ } ...... .[ ..............D @ @ @ @ @ @ @ @ @ @ @ @               .... .} ] _ ( _ _ ' ] } ....",
"..................} ] ' ' _ ( ' ] [ } ......} ..............D @ @ @ @ @ @ @ @ @ @ @ @               ......} } _ ' ' ( ( ' [ }  .",
"........................] ` ( _ ' ' ] } ............................[ @ @ @ @ @ @ @ @ @ @ @ @ S ................] ] _ ( ( ' ] { ",
"........................ .} } ( ( ' ] ] } ............................@ @ @ @ @ @ @ @ @ @ @ @ D .................. .] ' ( ( ] } ",
"| ..........................} ' ( ( ' ] ] [ } ........................Q Q E T T T Q R Q Q Q Q / ......................] ' ( ( } "
};
