/* XPM */
static char *result[] = {
/* columns rows colors chars-per-pixel */
"64 64 97 2 ",
"   c #592A0C",
".  c #442211",
"X  c #442A1D",
"o  c #5D2211",
"O  c #6E3308",
"+  c #772211",
"@  c #721922",
"#  c #44332A",
"$  c #5D332A",
"%  c #443B37",
"&  c #7F222E",
"*  c #3F3B5D",
"=  c #3B3377",
"-  c #444444",
";  c #881133",
":  c #941133",
">  c #A11133",
",  c #884C08",
"<  c #994400",
"1  c #945D15",
"2  c #AA6611",
"3  c #99552A",
"4  c #AE5D26",
"5  c #B2552A",
"6  c #A14C3B",
"7  c #9D6126",
"8  c #AA6126",
"9  c #A16E22",
"0  c #BB6E22",
"q  c #CC7700",
"w  c #CC7F19",
"e  c #C36622",
"r  c #9D194C",
"t  c #B60844",
"y  c #882A48",
"u  c #992266",
"i  c #B22266",
"p  c #BF2E61",
"a  c #CC0055",
"s  c #E53B5D",
"d  c #994F57",
"f  c #875058",
"g  c #846546",
"h  c #F25961",
"j  c #E5507B",
"k  c #FF7766",
"l  c #FA617B",
"z  c #E59919",
"x  c #DDA13B",
"c  c #F6A13B",
"v  c #FFBB33",
"b  c #BB8844",
"n  c #89847F",
"m  c #A3847F",
"M  c #EE8844",
"N  c #FFD455",
"B  c #FFEE77",
"V  c #224490",
"C  c #0044DD",
"Z  c #DD1188",
"A  c #F237A5",
"S  c #EE22BB",
"D  c #F64C90",
"F  c #E56699",
"G  c #FA7799",
"H  c #978B85",
"J  c #8A9699",
"K  c #939190",
"L  c #92999C",
"P  c #A48B85",
"I  c #AC8983",
"U  c #B18B85",
"Y  c #BDBEBD",
"T  c #C4BDBC",
"R  c #CBBFBE",
"E  c #FFA1A1",
"W  c #C1C0BF",
"Q  c #E1B7D0",
"!  c #E8B9D1",
"~  c #B6C4C9",
"^  c #C6C2C0",
"/  c #D3C2C0",
"(  c #DAD9DB",
")  c #FFCCDD",
"_  c #CEE6ED",
"`  c #CEE8ED",
"'  c #D0E6EE",
"]  c #D2E8EF",
"[  c #D5EAF1",
"{  c #DBEEF4",
"}  c #DFF0F5",
"|  c #E1EFF4",
" . c #E4F1F6",
".. c #E8F2F7",
"X. c #E6F3F8",
"o. c #EAF3F8",
"O. c None",
/* pixels */
"o.o.o.o.o.o.o.o.o.o.o.o. .{ ] ] ' [ [ |  ...o.o.o.o.o.o.o.o.o.o.o.o. .{ { ' _ ' [  .|  .o.o.o.o.o.o.o.o.o.o.o.o. .} { { ] _ ] O.",
"o.o.o.o.o.o.o.o.o.o.o...} ] ` ` [ | o.o.o.o.o./ / / / / ! ! ! ! ! ! Q R T T T R ( o.o.o.o.o.o.o.o.o.o.o.o.o.o.o. .{ [ ' _ { | O.",
"o.o.o.o.o.o.o.o.o.o... .{ ] _ { { ..o.o.o.o.o.+ + + + + a a a a a a a + + + + + U o.o.o.o.o.o.o.o.o.o.o.o.o.o. .{ { ` ] { | o.O.",
"o.o.o.o.o...o.o.o. .} { ] _ ' { { X.o.o.o.o.o.+ + + + + a a a a a a a + + + + + I o.o.o.o.o.o.o.o.o. .o.o.o. .{ { { ` { |  .o.O.",
"o.o.o.o.o. . .o.. . . { ] . . H {  .o.o.o.. . a a s k k S S S S S S S k k k a a ; . H o.o.o.o.o.. . { ..H . . { { _ ' { | { ..O.",
"o.o.o.o.....o.o.. . . { _ . . H o.o.o.o.o.. . a a s k k S S S S S S S k k k a a ; . H o.o.o.o.o.. .  .o.H . . { { _ { { o...o.O.",
"o.o.o.o...o.o.o.. . . ' _ . . H o.o.o.o.o.. . a a s k k S S S S S S S k k k a a ; . P o.o.o.o.o.. . o.o.H . . { [ _ { o.o.o.o.O.",
"o.o.o.o.o.W . . v v v . . v v 9 . . + + + a a k k D S S S S S S S S S S S S k k s a > + + . . . v v . . 9 v v . . .  .o.o.o.o.O.",
"o.o.o.o.o.^ . . v v v . . v v 9 . . + + + a a k k D S S S S S S S S S S S S k k s a > + + . . . v v . . 9 v v . . . o.o.o.o.o.O.",
"o.o.o.o.o.W . . c c c . . c c 7 . . + + + a a k k D S S S S S S S S S S S S k k s a > + + . . . c c . . 7 c c . . . o.o.o.o.o.O.",
"o.o.o.X. .Y . . M M M . . M M 3 . . + + + a a k k D S S S S S S S S S S S S k k s a > + + . . . M M . . 3 M M . . . o.o.o.o.o.O.",
"o.o.o.X.} Y . . M M M O O M M 3 . . + + + a a E E G D D S S S S S S S D D D E E j a > + + . . . M M O O 4 M M . . . o.o.o.o.o.O.",
"o... .{ { Y . . M M M < < M M 3 . . + + + a a ) ) E k k S S S S S S S k k k ) ) F a > + + . . . M M < < e M M . . . o.o.o.o.o.O.",
"o. .{ { ] Y . . M M M < < M M 3 . . + + + a a ) ) E k k S S S S S S S k k k ) ) F a > + + . . . M M < < e M M . . . o.o.o.o.o.O.",
" .{ { _ _ ] ] [ . . . M M < < O . . + + + a a k k E ) ) ) ) ) ) ) ) ) ) ) ) k k s a > + + . . . < < M M 3 . . o.o.o.o.o.o.o. .O.",
"{ { _ _ ] { { o.. . . M M < < O . . + + + a a k k E ) ) ) ) ) ) ) ) ) ) ) ) k k s a > + + . . . < < M M 3 . . o.o.o.o.o.o.o.o.O.",
"{ ' _ ] { | o.o.. . . M M < < O . . + + + a a k k E ) ) ) ) ) ) ) ) ) ) ) ) k k s a > + + . . . < < M M 3 . . o.o.o.o.o.o.o.o.O.",
"[ ' _ { o.o.o.o.o.o.o.. . v v c M M + + + a a S S D k k k k k k k k k k k k S S Z a > + + M M M v v . . H ..o.o.o.o.o.o.o.o.o.O.",
"] ' { } o.o.o.o.o.o.X.. . v v c M M + + + a a S S D k k k k k k k k k k k k S S Z a > + + M M M v v . . H ..o.o.o.o.o.o.o. . .O.",
"' [  .o.o.o.o.o.I U I ; ; 9 9 8 5 5 + + + a a S S A D D k k k k k k k D D D S S Z a > + + 3 3 3 9 9 ; ; d I U o.o.o.o.o.o. .{ O.",
"[ o.o.o.o.o.o.o.+ + + a a . . o + + + + + a a S S S S S k k k k k k k S S S S S Z a > + + . . . . . a a > + + o.o.o. .} } { { O.",
"o.o.o.o.o.o.o.o.o o o a a ; ; r i i > > > a a S S S S S k k k k k k k S S S S S Z a t > > u u u ; ; a a : o o o.o. .{ { { _ _ O.",
"o.o.o.o.o.o.o.o.. . . a a a a Z S S a a a a a S S S S S k k k k k k k S S S S S Z a a a a S S S a a a a ; . . o. .{ } { ] _ [ O.",
"o.o.o.o.o.o.o.o.. . . a a a a Z S S a a a a a S S S S S k k k k k k k S S S S S Z a a a a S S S a a a a ; . . o. .{ [ _ _ [ } O.",
"o.o.o.o.o.o.o.o.. . . a a k k k k k k k k a a a a Z S S k k k k k k k S S S a a a a s k k k k k k k a a ; . . X.} { ] _ ` { X.O.",
"o.o.o.o.o.o.o.o.. . . a a k k k k k k k k a a a a Z S S k k k k k k k S S S a a a a s k k k k k k k a a ; . . } { { ' [ { o.o.O.",
"o.o.o.o.o.{ | o.. . . a a k k k k k k k k a a a a Z S S k k k k k k k S S S a a a a s k k k k k k k a a ; . . { [ ] ` } X.{  .O.",
"o.o.o.o.o.| o.o. .{ { . . S S D k k k k k k k a a a a a a a a a a a a a a a a a s k k k k k k k S S . . H } { } [ ] ] } o. .o.O.",
"o.o.o.o.o.o.o.o.{ { [ . . S S D k k k k k k k a a a a a a a a a a a a a a a a a s k k k k k k k S S . . H [ { [ [ _ {  .o.o.o.O.",
"o.o.o.o.o.o.o. .{ { ] H H u u p s s D D D k k s s j F F F F F F F F F F F F s s h k l D D s s s u u H H Y { [ [ _ ]  .X.o.o.o.O.",
"o.o.o.o.o.o.X.{ { [ _ _ [ . . ; a a S S S k k k k E ) ) ) ) ) ) ) ) ) ) ) ) k k k k D S S a a a . . o. .{ { ' _ ]  .o.o.o.o.o.O.",
"o.o.o.o.o.| { { { ] ] [  .H H f ; ; u u u s s s s j F F F F F F F F F F F F s s s s p u u ; ; ; o o } { { { _ ' [ X.o.o.o.o.o.O.",
"o.o.X.X.X.{ { { { _ [ { o.o.o.H . . . . . a a a a a a a a a a a a a a a a a a a a a ; . . . . . + + { { { [ _ { { ..o.o.o.o.o.O.",
"o.o.o.X.{ { { { ' _ [ o.o.o.o.P . . . . . a a a a a a a a a a a a a a a a a a a a a ; . . . . . + + { { [ _ _ { ..o.o.o.o.o.o.O.",
"o.o.} { { { [ ' _ [ { o.o.+ + 0 v v q q q . . . . . . . . . . . . . . . . . . . . . , q q M M M + + { [ _ _ [ { o.o.o.o.o.o.o.O.",
"o.X.{ { { ] _ _ [ { | o.o.+ + 0 v v q q q . . . . . . . . . . . . . . . . . . . . . , q q M M M + + [ ' ` ] }  .o.o.o.o.o.o.o.O.",
"X.{ { [ ' _ _ [ {  .o.U U 0 0 x N N z z z O O . . X # # # # # # # # # # # # . .   O 2 z z 5 5 5 P m _ _ _ { o.o.o.o.o.o.o.o. .O.",
"} { [ _ ' ] { {  .o.o.+ + v v N B B v v v < < . . # - - - - - - - - - - - - . . O < w v v + + + _ _ { { {  .o.o.o.o.o.o.o.o. .O.",
"{ [ ' ' } X. .o.o.o.o.+ + v v N B B v v v < < . . # - - - - - - - - - - - - . . O < w v v + + + _ [ | o.X.o.o.o.o.o.o.o.o.o...O.",
"[ _ _ { X.o.o.o.o.o.o.+ + B B b + + . . . + + - - V C C C C C C C C C C C C - - $ + o . . ] _ _ [ o.o.o.o.o.o.o.o.o.o.o.o.o.o.O.",
"] _ [ } o.o.o.o.o.o.o.+ + B B b + + . . . + + - - V C C C C C C C C C C C C - - $ + o . . _ _ {  .o.o.o.o.o.o.o.o.o.o.o.o.o. .O.",
"_ } } X.o.o.o.o. .o.o.+ + + + U o.{ . . . + + C C V - - - - - + $ - - - - - C C = + o . . [ { {  .o.o.o.o. .o.o.o.o.o.o.o. .{ O.",
"_ } o.o.o.o.o.X.{ o.o.+ + + + I  .[ . . . + + C C V - - - - - + $ - - - - - C C = + o . . { o.o.o.o.o.o...} o.o.o.o.....{ [ { O.",
"o.o.o.o.o.o.o.o.o.o.o.+ + + + I ] _ . . . + + C C V - - - - - + $ - - - - - C C = + o . . o.o.o.o.o.o.o.o.o.o.o.o...{ { [ _ _ O.",
"o.o.o.o.o.o.o.o.o.o.o.o.X.{ [ ' _ [ . . . + + - - V C C C C C C C C C C C C - - $ + o . . o.o.o.o.o.o.o.o.o.o.o...{ { ] ' _ [ O.",
"o.o.o.o.o.o.o.o.o.o.o.o.} { ] _ _ { . . . + + - - V C C C C C C C C C C C C - - $ + o . . o.o.o.o.o.o.o.o.o.o.o.o.{ { _ ' ' { O.",
"o.o.o.o.o.o.o.o.o.o.o.X.} ' _ _ [  .. . . > > $ $ * V V C C C C C C C V V V $ $ & > @ . . o.o.o.o.o.o.o.o.o.o.X.X.{ _ _ ' { | O.",
"o.o.o.o.o.o.o.o.o.o.X.{ { ' ] {  .X.. . . a a + + $ - - C C C C C C C - - - + + > a ; . . o.o.o.o.o.o.o.o.o.X. .} { _ [ {  .o.O.",
"o.o.o.o.o.| o.o.o.o.{ { [ _ ' { ....H H H ; ; i i y $ $ = = = = = = = # # # o o @ ; f H H o.o.o.o.o. .o..... .{ { ' ' [ { | ..O.",
"o.o.o.o.o.{ | o.o. .{ { _ ' ' o.|  .o.o.o.. . S S i + + + + + + + + + . . . . . . . H o.o.o.o.o.o...|  ...| } { ] ' ' [ ..| ..O.",
"o.o.o.o.o.o.o. .| { { [ _ [ { o.o.o.o.o.o.. . S S i + + + + + + + + + . . . . . . . H o.o.o.o.o.o.o.o.o.| | { { [ ' [ | o.o.o.O.",
"o.o.o.o.o.o.o. .{ { { _ _ { o.o.o.o.o.o.o.o.o.. . u S S k k k k 6 . . < < < q q , . H o.o.o.o.o.o.o.o.o.| { { ] ' ' | ..o.o.o.O.",
"o.o.o.o.o.o.X.X.{ [ _ _ ] { o.o.o.o.o.o.o.o.o.. . u S S k k k k 6 . . < < < q q , . H o.o.o.o.o.o.o.o. . .{ [ _ _ [  .o.o.o.o.O.",
"o.o.o.o.o.o. .{ { [ _ `  .o.o.o.o.o.o.o.o.o.o.. . u S S k k k k 6 . . < < < q q , . H o.o.o.o.o.o.o. .{ { [ ' ' ' o.o.o.o.o.o.O.",
"o.o.o.o.o.X.{ { { ' [ { X.o.o.o.o.o.o.o.o.o.o.o.o.H . . . . . . . . . v v v v v 9 . H o.o.o.o.o.o...{ { } [ _ [ { o.o.o.o.o.o.O.",
"o.o.o.o.X.{ { { [ _ [ | o.o.o.o.o.o.o.o.o.o.o.o.o.H . . . . . . . . . v v v v v 9 . H o.o.o.o.o...{ { } [ ` _ [  .o.o.o.o.o.o.O.",
"o.o. . .{ { { ] _ ` { o.o.o.o.o.o.o.o.o.o.o.o.o.o.K # # # # # # X . . z z z z z 1 . H o.o.o.X. .{ { { [ ' _ ] | o.o.o.o.o.o.o.O.",
"o.o. .{ { { _ _ _ [ { o.o.o.o.o.o.o.o.o.o.o.o.o.X.L - - - - - - # . . q q q q q , . H o.o.o.X.} { { [ ' _ ' {  .o.o.o.o.o.o.o.O.",
"o. .{ [ _ ' _ ' { }  .o.o.o.o.o.o. .{ X.o.o.o.| { ~ J J J J J - % # # , , , , , g H W o.o. .} { [ [ ' ' [ { | o.o.o.o.o.o.o. .O.",
" .{ [ _ _ [ [ ] } X.o.o.o.o.o.o.o.o. .o.o.o.| { { [ _ ' [ [ } - - - - . . . . . H  .o.X. .{ { [ _ ' [ [ { | o.o.o.o.o.o.o.o...O.",
"{ { _ _ ' { } o.o.o.o.o.o.o.o.o.o.o.o.o.o. .{ { ' _ _ [ } o.o.- - - - . . . . . H o.o.X.{ { [ _ _ ' { o.o.o.o.o.o.o.o.o.o.o.o.O.",
"{ ' _ [ | o.o.o.o.o.o.o.o.o.o.o.o.o.o.o.} { { ' ' _ } } o.o.o.o.o.o.o.o.o.o.o.o.o.o. .{ { ] ' ' |  .o.o.o.o.o.o.o.o.o.o.o.o.o.O.",
"[ ' [ { o.o.o.o.o.o.o.o.o.o.o.o.o.o. .{ { } ] ' ' {  .o.o.o.o.o.o.o.o.o.o.o.o.o. .} { { [ _ ' [ X.o.o.o.o.o.o.o.o.o.o.o.o.o...O.",
"O.O.O.O.O.O.O.O.O.O.O.O.O.O.O.O.O.O.O.O.O.O.O.O.O.O.O.O.O.O.O.O.O.O.O.O.O.O.O.O.O.O.O.O.O.O.O.O.O.O.O.O.O.O.O.O.O.O.O.O.O.O.O.O."
};
