/* XPM */
static char *result[] = {
/* columns rows colors chars-per-pixel */
"64 64 94 2 ",
"   c #442211",
".  c #5D2211",
"X  c #662A0C",
"o  c #6E3308",
"O  c #772211",
"+  c #661922",
"@  c #44332A",
"#  c #444444",
"$  c #883308",
"%  c #881133",
"&  c #8C3726",
"*  c #994400",
"=  c #9D4419",
"-  c #A14C08",
";  c #B25D00",
":  c #B6771D",
">  c #99552A",
",  c #B2552A",
"<  c #A14C3B",
"1  c #BB4C3B",
"2  c #A16E22",
"3  c #CC7700",
"4  c #CC7F19",
"5  c #C36622",
"6  c #DD7F22",
"7  c #88224C",
"8  c #992266",
"9  c #B22266",
"0  c #CC0055",
"q  c #E53B5D",
"w  c #864F57",
"e  c #8D6954",
"r  c #907351",
"t  c #BF6A59",
"y  c #895569",
"u  c #DD444C",
"i  c #EE4477",
"p  c #E5507B",
"a  c #FF7766",
"s  c #E59919",
"d  c #CC8C2A",
"f  c #CC993B",
"g  c #F6A13B",
"h  c #FFBB33",
"j  c #A18844",
"k  c #89847F",
"l  c #A19066",
"z  c #A3847F",
"x  c #EE8844",
"c  c #FFD455",
"v  c #F6C37F",
"b  c #FFEE77",
"n  c #224490",
"m  c #0044DD",
"M  c #DD1188",
"N  c #EE22BB",
"B  c #F64C90",
"V  c #E56699",
"C  c #FA7799",
"Z  c #E57FAA",
"A  c #F677CC",
"S  c #8D8681",
"D  c #9E8580",
"F  c #968A84",
"G  c #A78681",
"H  c #A48B85",
"J  c #A98883",
"K  c #B18B85",
"L  c #B28094",
"P  c #AEB7B7",
"I  c #B9B6B7",
"U  c #C1BFBF",
"Y  c #CBBFBE",
"T  c #FFA1A1",
"R  c #CDC0BF",
"E  c #FFFFBB",
"W  c #C6C2C0",
"Q  c #C5CACD",
"!  c #D3C2C0",
"~  c #FFCCDD",
"^  c #CEE6ED",
"/  c #CEE8ED",
"(  c #D0E6EE",
")  c #D2E8EF",
"_  c #D5EAF1",
"`  c #DBEEF4",
"'  c #DFF0F5",
"]  c #E1EFF4",
"[  c #E4F1F6",
"{  c #E8F2F7",
"}  c #E6F3F8",
"|  c #EAF3F8",
" . c #F6FAFC",
".. c white",
/* pixels */
" .| | | | | | | | | | | | { ` ` _ ^ ( _ ` ` ] | | | | | | | | | | | | | ` ` ` ( ^ / ` ` ] | | | | | | | | | | | | | ' ` ` _ / _ ",
"| | | | | | | | | | | | | ` ` ) ^ ^ ` ` | | | | | | W W ! ! ! ! ! ! ! Y Y Y ^ ^ _ ` ] | | | | | | | | | | | | | | { ` ` _ ^ ^ ` ",
"| | | | | | | | | | | | | ` ) ) ^ ` ` | | | | | | |     O O O O O O O O O O ^ _ ` [ | | | | | | | | | | | | | | | ' ` _ ^ ^ ` ] ",
"| | | | | | | | | | | { [ ` ) / _ ` | | | | | | | |     O O O O O O O O O O / ` { | | | | | | | | | | | | | | | [ ` ` _ ) ` ] | ",
"| | | | | | { { { { { ' ` ) ( ) ` ]           . O O               b b b         F | | | | | | | | | | ] | | | [ ` ` ` ( ` ` ] | ",
"| | | | | | ` [ { { [ ` ` / / ) } ]           . O O               b b b         F | | | | | | | | | | ` | | [ ` ` ` ^ ^ ` ] ] { ",
"| | | | | | | | } [ ` ` ` I z J F F j j j . . & 1 1     j j j     c c c     % % w F F | | | | | | | | | | | ` ` ` ` ( ` ` | { { ",
"| | | | | | | | } ' ` ` ( z O O     b b b O O 1 a a     b b b     h h h     0 0 %     | | | | | | | | | | ] ` ` ` _ ( ` { | | | ",
"| | | | | | | } } ' ` / ^ D O O     b b b O O 1 a a     b b b     h h h     0 0 %     | | | | | | | } } | ' ` ` _ ^ ` [ | | | | ",
"| | | | | | | ` ` ` _     j b b     b b b O O 9 N N     b b b     x x x     a a <     | | | | | | | | [ ' ` ` _ ^ ) } | | | | | ",
"| | | | | | ' ` ` ` /     j b b     b b b O O 9 N N     b b b     x x x     a a <     | | | | | | | } ' ` ` ` ^ _ ` | | | | | | ",
"| | | | } } ` ` ` _ ^     2 h h     h h h O O 9 N N     b b b h h 3 3 3     0 0 q a a               F ` ` ` ` ^ ` ` | | | | | | ",
"| | | | } ` ` ` _ ^ ^     2 h h     h h h O O 9 N N     b b b h h 3 3 3     0 0 q a a               F ` ` ` ^ ^ ` | | | | | | | ",
"| | | [ ` ` ` _ ^ ^ `     2 h h     h h h O O 9 N N     b b b h h 3 3 3     0 0 q a a               L ` ` ^ ^ _ [ | | | | | | | ",
"| } ' ` ` _ _ ^ ^ _ `     > x x * * h h h * * o     b b h h h 3 3       N N a a q 0 0       0 0 a a q 0 0       | | | | | | | | ",
"} [ ` ` ^ ^ ^ _ ^ ` }     > x x * * h h h * * o     b b h h h 3 3       N N a a q 0 0       0 0 a a q 0 0       | | | | | | | ] ",
"' ` ` ^ ^ ( ` ] | | | F F e > > ; ; g g g 4 4 : 2 2 c c 2 2 2 s s > > > 8 8 B B i q q < < > V V T T p 0 0       | | | | | | | | ",
"` ` ( ^ _ ` [ | | | | | | F     3 3 x x x h h h h h h h       h h x x x     N N B a a a a a ~ ~ ~ ~ V 0 0       | | | | | | | | ",
"` _ ^ ^ ` | | | | | | | | F     3 3 x x x h h h h h h h       h h x x x     N N B a a a a a ~ ~ ~ ~ V 0 0       | | | | | | | | ",
"_ ^ ^ ` ] | | | | | | | | | | |           * * 5 x x * *                 a a ~ ~ ~ ~ ~ a a a 0 0           | | | | | | | | | | ] ",
"^ ( _ [ | | | | | ] { | | | | }           * * 5 x x * *                 a a ~ ~ ~ ~ ~ a a a 0 0           } ` | | | | | | { [ ` ",
"_ _ { | | | | | | ] | | | | } [     0 0 0 0 0 %         0 0 0 ~ ~ ~ ~ ~ ~ ~ N N 8               | | | | | { ] | | | | } [ ` ` ` ",
"| | | | | | | | | | | | | [ ` `     0 0 0 0 0 %         0 0 0 ~ ~ ~ ~ ~ ~ ~ N N 8               | | | | | | | | | | [ ` ` ` ^ ^ ",
"| | | | | | | | | | | | | ` ` `     0 0 0 0 0 %         0 0 0 ~ ~ ~ ~ ~ ~ ~ N N 8               | | | | | | | | | [ ` ' _ ( / ) ",
"| | | | | | | | | | | | | S     0 0 0 0 0 a a a a a ~ ~ ~ ~ ~ N N 0 0 0 0 0 0 0 u x x       | | | | | | | | | | | [ ` ` ^ ^ _ ' ",
"| | | | | | | | | | | | ` F     0 0 0 0 0 a a a a a ~ ~ ~ ~ ~ N N 0 0 0 0 0 0 0 u x x       { { | | | | | | | | | ` ` / / / ` [ ",
"| | | | | | { | F F F F F y 8 8 q q q q q T T C B B V V V V V 8 8 u u u Z T % % t v T       ] { | | | | | | | | ` ` ` / _ ` } | ",
"| | | | | | ` [           8 N N a a a a a ~ ~ A N N 0 0 0 0 0     x x x | ..    l E E       { { | | | ` | | | ` ` ` ^ ^ ] } ` { ",
"| | | | | | [ {           8 N N a a a a a ~ ~ A N N 0 0 0 0 0     x x x  ...    l E E       | | | | | [ | | ` ` ` ` ^ ( [ } [ | ",
"| | | | | | | |       0 0 0 0 0 0 0                 * * x x x h h h h h ....- $ 4 h h E E E m m | | | | } [ ` ` ` _ ^ ` [ | | | ",
"| | | | | | | |       0 0 0 0 0 0 0                 * * x x x h h h h h ....* * 4 h h E E E m m | | | | | [ ` ` ^ ^ ( } } | | | ",
"| | | | | | | { ` ` _                     O O $ * * 3 3 x x x h h h h h h h h h h h h h h h     | | | | [ ` ` ^ ^ ( ] } | | | | ",
"| | | | | } ' ` ` ` )                     O O $ * * 3 3 x x x h h h h h h h h h h h h h h h     | | | ] ` ` _ ^ / ` { | | | | | ",
"| | | | | [ ` ` ` ` ^ S F F F F F F F F F . . X o o - - 6 6 6 g g h h h h h h h h h h 2 2 2 F F | | [ ` ` ' _ / ` ` | | | | | | ",
"| | | | [ ` ` ` ` ^ ^ _ { | | | | | | | |           O O 3 3 3 x x h h h h h h h h h h       | | | ` ` ` ` _ ^ / ` { | | | | | | ",
"| | | [ ` ` ` ` ^ ^ _ ` | | | | | | | | |           O O 3 3 3 x x h h h h h h h h h h       | | [ ` ` ` _ ^ ^ _ ` | | | | | | | ",
"| | } ` ` ` _ ^ ^ _ ` ] | | | | | | # # # m m m m m # # O O O O O O O O O O O O .     | | |         S _ ^ ^ _ ` [ | | | | | | | ",
"| } ` ` _ ^ ^ ^ _ ` { | | | | | | | # # # m m m m m # # O O O O O O O O O O O O .     | | |         S ^ ^ / ` | | | | | | | | ] ",
"[ ` ` _ ^ ^ ` ` ` } } | | | | | | | # # # m m m m m # # O O O O O O O O O O O O .     | | `         S ` ` ` [ | | | | | | | | { ",
"' ` _ ^ _ ` ] ] | | | | | | | | # #           o * * m m 3 3 3 3 3 * * *                     * *     S ` [ } | | | | | | | | | | ",
"` _ ^ ^ ` } | | | | | | | | | | # #           o * * m m 3 3 3 3 3 * * *                     * *     F { | | | | | | | | | | | | ",
"_ ^ ^ _ ` | | | | | | | | F         h h h b b c h h m m h h h b b h h h x x O O $ * * x x x * *     F { | | | { | | | | | | | ] ",
"/ ^ ` [ } | | | | [ | | | F         h h h b b c h h m m h h h b b h h h x x O O $ * * x x x * *     F { | { [ { | | | | | | [ ` ",
"^ _ ' } | | | | | ' } | | F     2 2 g g g f f d 4 4 n n h h h b b c c c g g , , = $ $ , , , o o F F R | | { [ | | | | { { ` ` _ ",
"| | | | | | | | | | | | } F     h h x x x * * * * * # # h h h b b b b b h h x x , O O O O O     | | | | | | | | { { { ` ` _ ( / ",
"| | | | | | | | | | | | | F     h h x x x * * * * * # # h h h b b b b b h h x x , O O O O O     | | | | | | | | { { ` ` ) / ( ) ",
"| | | | | | | | | | | | | F     x x * * *     @ # # 3 3 b b b b b b b b b b h h 2     | | | | | | | | | | | | | | | ` ` ^ ^ ( ` ",
"| | | | | | | | | | | | | F     x x * * *     @ # # 3 3 b b b b b b b b b b h h 2     | | | | | | | | | | | | | { { ` ^ ^ ( ` ] ",
"| | | | | | | | | | | | ` ` ^ )           # # 7 0 0 0 0 0 0 0 0 0 0 0 0 0 0 0 0 %     | | | | | | | | | | | | { [ ' ` ^ ) ` ] { ",
"| | | | | | ] { | | | ` ` ) ^ )           # # 7 0 0 0 0 0 0 0 0 0 0 0 0 0 0 0 0 %     | | | | | | | { { | | { [ ' ` ( / ` ` ] { ",
"| | | | | | ] [ | ] [ ` ` ^ ^ (           # # 7 0 0 0 0 0 0 0 0 0 0 0 0 0 0 0 0 %     | | | | | | { { ' { | ] ` ` ) ( / ` { ` { ",
"| | | | | | | | { ] ` ` _ ^ ` `               % 0 0 N N a a a a a a a a N N     F | | * * * O O O O K { | [ ` ` ` ) ( ` ] | | | ",
"| | | | | | | } } ` ` _ ^ ^ ` }               % 0 0 N N a a a a a a a a N N     F | | * * * O O O O K | | [ ` ` ( ( ( ` | | | | ",
"| | | | | | | } [ ` ` ^ ^ P F F . . . . .     + % % 8 8 < < < < < < < < M M 2 2 r F F 4 4 4 , , . . H { { ' ` ( ( ( ) ] | | | | ",
"| | | | | | | [ ` ` _ ^ ^ F     O O O O O                               0 0 h h 2     h h h x x     F { ` ` ) / ^ ( | | | | | | ",
"| | | | | | [ ' ` ` ^ ^ ` F     O O O O O                               0 0 h h 2     h h h x x     F ' ' ` ` / _ ` | | | | | | ",
"| | | | | [ ` ` ` _ ^ _ [ F         # # # # # # # # # # # # # # # # # #         2 h h x x x     | | ` ` ` _ ( ( _ { | | | | | | ",
"| | | [ [ ` ` _ / ^ ^ ` | F         # # # # # # # # # # # # # # # # # #         2 h h x x x     [ ` ` ` _ ( ^ ( ] | | | | | | | ",
"| | | ] ` ` ` ( ^ ^ ` ` | | | | | | | | | | | | | } # # # # # # # # # # # # # # @           [ [ ` ` ` _ ( ( ( ` ] | | | | | | | ",
"| | [ ` _ ( ( ^ ^ ` ' } | | | | | | [ ` { | | | ' ` # # # # # # # # # # # # # # @           [ ' ` _ ( ( ( ( ] ] | | | | | | | ] ",
"| [ ` ` ^ ^ _ _ _ ' | | | | | | | | | [ | | | [ ' ` # # # # # # # # # # # # # # @           ` ` ` ^ ( _ _ ] ] | | | | | | | | | ",
"] ` ` ^ ^ ^ ` ` { | | | | | | | | | | | | | [ ` ` ^ ^ ^ _ [ | # # # # # # # # # # # # [ [ ` ` _ ^ ^ ( ` | | | | | | | | | | | | ",
"[ ` ^ ^ ` ] [ | { | | | | | | | | | | | [ [ ` ` _ ^ ^ ' } | | # # # # # # # # # # # # [ ` ` _ ^ ^ [ [ | | | | | | | | | | | | | ",
"[ ^ ^ ( ` | | | | | | | | | | | | | | ] ` ` ` ^ ^ ^ ` [ | | | Q Q Q Q Q Q Q Q Q Q Q Q ` ` _ ^ ^ _ [ | | | | | | | | | | | | | { "
};
