/* XPM */
static char *result[] = {
/* columns rows colors chars-per-pixel */
"64 64 120 2 ",
"   c #442211",
".  c #5D2211",
"X  c #6E3308",
"o  c #772211",
"O  c #44332A",
"+  c #3B3377",
"@  c #444444",
"#  c #7C564A",
"$  c #883308",
"%  c #942E1D",
"&  c #881133",
"*  c #A11133",
"=  c #8C3726",
"-  c #C3373B",
";  c #884C08",
":  c #994400",
">  c #904804",
",  c #834419",
"<  c #9B4817",
"1  c #A14C08",
"2  c #B25D00",
"3  c #99552A",
"4  c #945D26",
"5  c #AE5D26",
"6  c #B2552A",
"7  c #BB4C3B",
"8  c #A16E22",
"9  c #AE6A26",
"0  c #BB6E22",
"q  c #B26A22",
"w  c #B66E37",
"e  c #CC7700",
"r  c #CC7F19",
"t  c #C7721D",
"y  c #D47F1D",
"u  c #C36622",
"i  c #AA0844",
"p  c #992266",
"a  c #CC0055",
"s  c #C3335D",
"d  c #DD3F77",
"f  c #905C47",
"g  c #875058",
"h  c #B27B55",
"j  c #DD444C",
"k  c #E55D44",
"l  c #D84C66",
"z  c #EE557F",
"x  c #FF7766",
"c  c #B6832E",
"v  c #E59919",
"b  c #DD832E",
"n  c #CC993B",
"m  c #F6A13B",
"M  c #E5B23B",
"N  c #FFBB33",
"B  c #BB8844",
"V  c #89847F",
"C  c #BFAA6E",
"Z  c #EE8844",
"A  c #EE8C50",
"S  c #CCA15D",
"D  c #E5BB5D",
"F  c #F6BB5D",
"G  c #CCA17F",
"H  c #E1AE6E",
"J  c #FFD455",
"K  c #FFDD77",
"L  c #FFEE77",
"P  c #7F7F88",
"I  c #776690",
"U  c #0044DD",
"Y  c #DD1188",
"T  c #EE22BB",
"R  c #F64C90",
"E  c #F661AE",
"W  c #F677CC",
"Q  c #8C8681",
"!  c #8F8883",
"~  c #968A85",
"^  c #9D8883",
"/  c #979C9E",
"(  c #A48B85",
")  c #AC8A84",
"_  c #B18B85",
"`  c #A29C96",
"'  c #B98296",
"]  c #BABDBC",
"[  c #C4BDBD",
"{  c #CBBFBE",
"}  c #FFA1A1",
"|  c #FFBBB2",
" . c #FFE988",
".. c #FFF699",
"X. c #C2C0BE",
"o. c #F6C3A1",
"O. c #FFFFBB",
"+. c #E8B9D1",
"@. c #E2B7D0",
"#. c #C6C2C0",
"$. c #D3C2C0",
"%. c #C8D4D7",
"&. c #D8DBDC",
"*. c #D3D7D9",
"=. c #FFCCDD",
"-. c #FFFFDD",
";. c #CEE6ED",
":. c #CEE8ED",
">. c #D0E6EE",
",. c #D2E8EE",
"<. c #D5EAF1",
"1. c #DBEEF4",
"2. c #DFF0F5",
"3. c #E1EFF4",
"4. c #E4F1F6",
"5. c #E8F2F7",
"6. c #E6F3F8",
"7. c #EAF3F8",
"8. c white",
"9. c #F6FAFC",
/* pixels */
"9.7.7.7.7.7.7.7.7.7.7.7.7.5.1.1.>.;.>.<.1.1.6.5.7.9.9.7.7.7.7.7.7.7.7.6.1.1.1.>.;.,.1.<.5.5.7.7.7.7.7.7.7.7.7.7.7.7.2.1.1.<.:.<.",
"7.7.7.7.7.7.7.7.7.#.#.#.7.1.*.] %.;.<.2.5.7.7.7.X.X.{ { $.+.+.+.+.+.+.@.{ { [ [ { *.4.5.7.5.7.7.7.X.#.&.7.&.#.#.7.6.1.2.<.;.,.<.",
"7.7.7.7.7.7.7.7.7.      6.2.Q   V 1.1.7.7.7.7.7.o o $ o o a a a a a a a o o o o o ) 7.7.7.7.7.7.7.    ^ 7.~     7.4.1.<.;.;.1.3.",
"7.7.7.7.7.7.7.7.7.      2.1.Q   ! 1.5.7.7.7.7.7.o o o o o a a a a a a a o o o o o ( 7.7.7.7.7.7.7.    ~ 7.~     6.1.1.,.,.1.3.7.",
"7.7.7.7.7.7.X.    N N N     8 N 8     7.7.7.    a a Y T T x x x x x x x T T T a a &   ~ 7.7.      N N 8   8 N N       >.1.3.3.7.",
"7.7.7.7.7.7.X.    N N N     8 N 8     7.7.7.    a a Y T T x x x x x x x T T T a a &   ( 7.7.      N N 8   8 N N       >.1.3.1.5.",
"7.7.7.7.7.7.#.    Z Z Z     3 Z 3     o o o a a T T R x x 8.8.8.x | 8.8.x x x T T Y a * o o       Z Z 3   3 Z Z       1.1.7.5.7.",
"7.7.7.7.7.7.#.    Z Z Z     3 Z 3     o o o a a T T R x x 8.8.8.x | 8.8.x x x T T Y a * o o       Z Z 3   3 Z Z       1.5.7.7.7.",
"7.7.7.7.7.7.#.    Z Z Z X X 5 Z 3     o o o a a T T R x x | | | | | | | x x x T T Y a * o o       Z Z 5 X 5 Z Z       6.7.7.7.7.",
"7.7.7.7.7.6.#.    Z Z Z : : u Z 3     o o o a a T T R x x x x x 8.| x x x x x T T Y a * o o       Z Z u : u Z Z       7.7.7.7.7.",
"7.7.7.7.7.6.#.    Z Z Z : : u Z 3     o o o a a T T R x x x x x 8.| x x x x x T T Y a * o o       Z Z u : u Z Z       7.7.7.7.7.",
"7.7.7.7.6.6.1.1.1.      Z Z u : : : : o o o a a T T R x x 8.8.8.x | 8.8.x x x T T Y a * o o : : : : : u Z 3     1.3.7.7.7.7.7.7.",
"7.7.7.7.4.1.1.1.,.      Z Z u : : : : o o o a a T T R x x 8.8.8.x | 8.8.x x x T T Y a * o o : : : : : u Z 3     3.5.7.7.7.7.7.7.",
"7.7.7.3.1.1.1.<.;.      Z Z u : : : : o o o a a T T R x x 8.8.8.x | 8.8.x x x T T Y a * o o : : : : : u Z 3     3.7.7.7.7.7.7.7.",
"7.7.4.1.1.<.<.;.;.<.1.6.    8 N 0 o o a a a T T x x } =.=.=.=.=.=.=.=.=.=.=.=.x x R T Y a a o o o N N 8   Q 1.1.7.7.7.7.7.7.7.7.",
"7.1.1.1.>.;.>.,.,.1.6.7.    8 N 0 o o a a a T T x x } =.=.=.=.=.=.=.=.=.=.=.=.x x R T Y a a o o o N N 8   ! 1.7.7.7.7.7.7.7.7.3.",
"1.1.1.:.;.>.2.3.7.7.7.7.    . o 7 x x =.=.=.x x T T T T T T T T T T T T T T T T T R x } =.=.x x x o o .   ~ 7.7.7.7.7.7.7.7.7.7.",
"1.1.>.;.>.2.4.7.7.7.7.7.    . o 7 x x =.=.=.x x T T T T T T T T T T T T T T T T T R x } =.=.x x x o o .   ~ 7.7.7.7.7.7.7.7.7.7.",
"1.<.:.;.<.7.7.7.7.7.7.7.. . = 7 l R R W W W R R s s s s s z z z z z z z s s s s s l R E W W R R R 7 7 = . ( 7.7.7.7.7.7.7.7.7.7.",
"<.:.:.1.3.7.7.7.7.7.7.7.o o 7 x R T T T T T T T : : : : : Z Z Z Z Z Z Z : : : : $ s T T T T T T T x x 7 o _ 7.7.7.7.7.7.7.7.5.4.",
";.>.<.5.7.7.7.7.7.3.6.7.o o 7 x R T T T T T T T : : : : : Z Z Z Z Z Z Z : : : : 1 s T T T T T T T x x 7 o ) 1.5.7.7.7.6.7.7.4.1.",
"<.<.7.7.7.7.7.7.7.      T T T T Y a a       e e O.O.-.8.8.N N N L J N N 8.8.8.O.O.D e ;     a a a T T T T p     7.7.7.4.4.1.1.<.",
"7.7.7.7.7.7.7.7.7.      T T T T Y a a       e e O.O.-.8.8.N N N L J N N 8.8.8.O.O.D e ;     a a a T T T T p     7.7.4.1.1.1.;.;.",
"7.7.7.7.7.7.7.7.7.      T T T T Y a a       e e O.O.-.8.8.N N N L J N N 8.8.8.O.O.D e ;     a a a T T T T p     7.4.2.2.<.,.,.,.",
"7.7.7.7.7.7.7.7.7.      a a Y T p     e e e O.O.: : X     N N N L J N N       : : S O.D e e       T T Y a &     7.4.1.1.:.;.,.4.",
"7.7.7.7.7.7.7.7.7.      a a Y T p     e e e O.O.: : X     N N N L J N N       : : S O.D e e       T T Y a &     6.2.1.>.;.:.2.4.",
"7.7.7.7.7.7.7.7.7.      a a a a &     : : : 8.8.: : X     N N N N N N N       : : G 8.G : :       a a a a &     1.1.1.:.,.1.6.5.",
"7.7.7.7.7.7.1.3.7.      a a a a &     : : : 8.8.: : X     N N N N N N N       : : G 8._ : :       a a a a &     1.1.;.;.3.6.1.6.",
"7.7.7.7.7.7.5.5.7.! ! ! & & i a i & & X X X o.o.n n c 8 8 P P P P P P P 8 8 8 n n H o.h X X & & & a a i & g ! ! 1.<.;.,.4.7.4.6.",
"7.7.7.7.7.7.7.7.7.1.1.1.    & a a a a       Z Z L L J N N U U U U U U U N N N L L F Z 3     a a a a a &   ~ 1.1.1.<.;.1.4.7.7.7.",
"7.7.7.7.7.7.7.7.5.1.1.<.    & a a a a       Z Z L L J N N U U U U U U U N N N L L F Z 3     a a a a a &   ~ 1.1.<.;.>.4.6.7.7.7.",
"7.7.7.7.7.7.7.5.1.1.<.;.;.2.6.7.'           : : Z Z m N N N N N : r N N N N N Z Z u : X           7.7.7.4.1.1.;.;.;.3.7.7.7.7.7.",
"7.7.7.7.6.6.4.1.1.1.>.>.<.6.7.7.~           : : Z Z m N N N N N : r N N N N N Z Z u : X           7.7.6.1.1.<.;.:.1.5.7.7.7.7.7.",
"7.7.7.7.7.6.1.1.1.1.;.<.3.5.7.7.#.~ ~ ~ ~ ~ X X u u y v v m m m : t m m v v v u u < X # ~ ~ ~ ~ ~ 7.2.2.2.1.<.:.1.1.7.7.7.7.7.7.",
"7.7.7.7.6.1.1.1.1.;.>.1.5.5.7.7.7.7.7.7.7.7.    : : 2 e e Z Z Z : u Z Z e e e : : X   ~ 7.7.7.7.6.2.2.2.2.<.;.:.1.6.5.7.7.7.7.7.",
"7.7.7.4.1.1.1.<.;.;.,.1.7.7.7.7.7.7.7._ _ _ X X X X > 2 2 6 6 6 $ < 6 6 2 2 2 X X X X f _ _ 7.7.2.2.2.<.<.;.;.,.1.5.7.7.7.7.7.7.",
"7.7.4.1.1.1.<.;.;.<.1.3.7.7.7.7.7.7.7.o o o : :     X : : o o o o o o o : : :     X : $ o o 7.2.1.<.1.<.;.;.<.1.6.7.7.7.7.7.7.7.",
"7.6.1.1.<.;.;.;.<.1.6.7.7.7.7.7.7.7.6.o o o : :     X : : o o o o o o o : : :     X : $ o o 2.1.1.:.;.;.;.:.1.7.7.7.7.7.7.7.7.3.",
"2.2.1.<.;.;.1.1.1.6.7.7.7.7.7.7._ o o e e e N N U U I Z Z e e e e e e e Z Z Z U U P N v e e o o o ;.,.1.<.2.4.7.7.7.7.7.7.7.7.5.",
"2.1.<.;.<.1.3.3.7.7.7.7.7.7.7.7._ o o e e e N N U U I Z Z e e e e e e e Z Z Z U U P N v e e o o o ;.<.1.6.7.7.7.7.7.7.7.7.7.7.5.",
"1.<.;.;.1.6.7.7.5.7.7.7.7.7.7.7._ o o e e e N N U U I Z Z e e e e e e e Z Z Z U U P N v e e o o o 1.7.7.7.7.7.7.7.7.7.7.7.7.7.7.",
"<.;.;.<.1.7.7.7.5.5.7.7.7.7._ o 6 Z Z L L L o o U U P N N L L L L L L L N N N U U + o B L L Z Z Z o o _ 7.7.7.7.7.7.7.7.7.7.7.3.",
":.:.2.2.4.7.7.7.5.4.7.7.7.7._ o 6 Z Z L L L o o U U P N N L L L L L L L N N N U U + o B L L Z Z Z o o _ 7.7.4.7.7.7.7.7.5.5.3.1.",
":.<.2.7.7.7.7.7.6.4.7.7.7.7._ o w F F M M M o o P P C J J ..............J J J P P # o 9 M M F F F o o _ 7.4.2.7.7.7.7.5.5.1.1.1.",
"7.7.7.7.7.7.7.7.7.7.7.7.7.5.) o B L L e e e o o N N J L L O.O.O.O.O.O.O.L L L N N 0 o 1 e e L L L o o _ 7.7.7.7.5.5.5.1.1.<.>.;.",
"7.7.7.7.7.7.7.7.7.7.7.7.7.6.^ . 4 n n ; ; ; * * k k A F F K K K .. .K K F F F k k - * % ; ; n n n . . ( 7.7.7.7.7.5.1.3.<.>.;.,.",
"7.7.7.7.7.7.7.7.7.7.7.7.7.3.!   X : :       a a a a j Z Z N N N L J N N Z Z Z a a a a &     : : :     ~ 7.7.7.7.7.7.1.<.>.;.>.1.",
"7.7.7.7.7.7.7.7.7.7.7.7.7.1.Q   X : :       a a a a j Z Z N N N L J N N Z Z Z a a a a &     : : :     ~ 7.7.7.7.7.7.1.;.;.>.1.3.",
"7.7.7.7.7.7.7.7.7.7.7.6.1.1.:.>.!           a a T T Y a a a a a a a a a a a a T T Y a &           7.7.7.7.7.7.7.4.2.1.;.,.1.4.5.",
"7.7.7.7.7.7.3.7.7.7.7.1.1.>.:.>.~           a a T T Y a a a a a a a a a a a a T T Y a &           7.7.4.7.7.5.4.2.<.>.;.1.1.3.5.",
"7.7.7.7.7.7.1.5.7.3.5.1.1.;.:.>.~           a a T T Y a a a a a a a a a a a a T T Y a &           7.7.3.5.5.1.2.2.,.>.>.1.5.1.5.",
"7.7.7.7.7.7.7.7.5.3.1.1.1.;.1.1.7.7.7.7.7.7.    a a Y T T x x x x x x x T T T a a &   ~ 7.7.7.7.7.7.7.7.5.4.3.2.2.,.>.<.3.7.7.7.",
"7.7.7.7.7.7.7.6.6.1.1.1.;.;.1.5.7.7.7.7.7.7.    a a Y T T x x x x x x x T T T a a &   ~ 7.7.7.7.7.7.7.7.7.4.1.1.>.;.>.1.5.7.7.7.",
"7.7.7.7.7.7.7.6.4.1.1.:.;.:.1.5.7.7.7.      N N Z Z 3                         Z Z m N 8     7.7.7.7.7.7.4.2.1.,.>.>.,.6.5.7.7.7.",
"7.7.7.7.7.7.7.4.1.1.>.;.:.3.7.7.7.7.7.      N N Z Z 3                         Z Z m N 8     7.7.7.7.7.4.1.1.<.;.;.>.7.7.7.7.7.7.",
"7.7.7.7.7.7.4.2.1.1.>.>.2.5.7.7.X.~ ~ X X X m m u u ,     O O O O O O O       u u b m q X X ~ ~ ~ 7.4.2.1.1.<.>.<.1.7.7.7.7.7.7.",
"7.7.7.7.7.6.1.2.1.,.;.>.4.7.7.7.~     : : : Z Z : : X     @ @ @ @ @ @ @       : : u Z u : :       7.1.1.1.<.>.>.1.3.7.7.7.7.7.7.",
"7.7.7.6.3.1.<.<.,.;.,.1.7.7.7.7.~     : : : Z Z : : X     @ @ @ @ @ @ @       : : u Z u : :       1.1.1.1.>.>.>.3.7.7.7.7.7.7.7.",
"7.7.7.3.1.1.2.>.;.;.1.1.7.7.7.7._ o o       : :     O @ @ @ @ @ @ @ @ @ @ @ @     X : X     o o o 1.1.<.>.;.>.1.3.7.7.7.7.7.7.7.",
"7.7.4.1.<.>.>.;.,.1.1.4.7.7.7.7._ o o       : :     O @ @ @ @ @ @ @ @ @ @ @ @     X : X     o o o <.>.;.>.>.3.3.7.7.7.7.7.7.7.3.",
"5.4.1.<.;.;.<.<.>.2.6.7.7.7.7.7._ o o       : :     O @ @ @ @ @ @ @ @ @ @ @ @     X $ X     o o o ;.>.<.1.1.3.5.7.7.7.7.7.7.7.7.",
"3.1.<.,.;.;.1.1.7.7.7.7.7.7.7.7.7.7.7.7.7.5.6.1.@ @ @ @ @ @ @ @ @ @ @ @ @ @ @ @ @ ` 9.7.6.1.1.<.;.;.>.2.7.7.5.5.7.7.7.7.7.7.7.7.",
"4.<.,.;.<.3.6.7.7.7.7.7.7.7.7.7.7.7.7.7.7.3.1.1.@ @ @ @ @ @ @ @ @ @ @ @ @ @ @ @ @ / 7.3.1.1.,.;.;.4.4.7.7.7.7.7.7.7.7.7.7.7.7.7.",
"3.;.;.<.2.7.7.7.7.7.7.7.7.7.7.7.7.7.7.3.3.1.1.,.;.;.1.6.7.7.7.7.7.7.7.7.7.7.7.7.7.4.1.1.1.<.;.;.<.4.7.7.7.7.7.7.7.7.7.7.7.7.7.7."
};
