/* XPM */
static char *result[] = {
/* columns rows colors chars-per-pixel */
"64 64 101 2 ",
"   c #442211",
".  c #5D2211",
"X  c #6E3308",
"o  c #772211",
"O  c #7B221D",
"+  c #721922",
"@  c #44332A",
"#  c #50332A",
"$  c #5D332A",
"%  c #7F552A",
"&  c #444444",
"*  c #7D5C47",
"=  c #883308",
"-  c #881133",
";  c #A11133",
":  c #B2222A",
">  c #CC3B2A",
",  c #884C08",
"<  c #994400",
"1  c #9D4419",
"2  c #B25D00",
"3  c #B25915",
"4  c #885D22",
"5  c #99552A",
"6  c #AE5D26",
"7  c #B2552A",
"8  c #BB4C3B",
"9  c #9D6E37",
"0  c #A16E22",
"q  c #BB6E22",
"w  c #CC7700",
"e  c #CC7F19",
"r  c #C36622",
"t  c #DD7F22",
"y  c #AA0844",
"u  c #992266",
"i  c #CC0055",
"p  c #C3335D",
"a  c #834E57",
"s  c #876647",
"d  c #907755",
"f  c #D84C66",
"g  c #D8446E",
"h  c #EE557F",
"j  c #FF7766",
"k  c #CC993B",
"l  c #F6A13B",
"z  c #FFBB33",
"x  c #A18844",
"c  c #89847F",
"v  c #C78350",
"b  c #EE8844",
"n  c #E5BB5D",
"m  c #F6BB5D",
"M  c #CCA17F",
"N  c #FAC759",
"B  c #FFD455",
"V  c #FFE166",
"C  c #FFEE77",
"Z  c #7F7F88",
"A  c #0044DD",
"S  c #DD1188",
"D  c #EE22BB",
"F  c #F64C90",
"G  c #F661AE",
"H  c #F677CC",
"J  c #8C8681",
"K  c #8F8883",
"L  c #968B85",
"P  c #979C9E",
"I  c #A48B85",
"U  c #AD8A84",
"Y  c #A8868D",
"T  c #B18B85",
"R  c #B6BCBC",
"E  c #BCBEBE",
"W  c #FF998C",
"Q  c #C1BFBF",
"!  c #FFA1A1",
"~  c #FFBBB2",
"^  c #FFDD99",
"/  c #FFF699",
"(  c #C2C0BE",
")  c #F6C3A1",
"_  c #FFFFBB",
"`  c #C6C2C0",
"'  c #FFCCDD",
"]  c #CEE6ED",
"[  c #CEE8ED",
"{  c #D0E6EE",
"}  c #D1E8EF",
"|  c #D5EAF1",
" . c #DBEEF4",
".. c #DFF0F5",
"X. c #E1EFF4",
"o. c #E4F1F6",
"O. c #E8F2F7",
"+. c #E6F3F8",
"@. c #EAF3F8",
"#. c #F6FAFC",
"$. c white",
/* pixels */
"#.@.@.@.@.@.@.@.@.@.@.@.@.o. . .} ] { |  . .o.@.@.@.@.@.@.@.@.@.@.@.@.@. . . .[ ] [  . .X.@.@.@.@.@.@.@.@.@.@.@.@.@.o. . .| [ | ",
"@.@.@.@.@.@.@.@.@.@.@.@.@... .| ] ]  . .@.@.@.@.@.@.@.@.@.@.@.@.@.@.@. . . .] ] |  .o.@.@.@.@.@.@.@.@.@.@.@.@.@.@.o... .| ] [ | ",
"@.@.@.@.@.@.@.@.L   L @.@.      ]  . .@.@.@.@.o o o o o ; i i i i i i ; o o o o  .o.@.@.@.@.@.L     @.@.@.    L @.o. .| ] ]  .X.",
"@.@.@.@.@.@.@.@.L   L @.o.       . .o.@.@.@.@.o o o o o ; i i i i i i ; o o o o @.@.@.@.@.@.@.L     @.@.@.    L o. . .} }  .X.@.",
"@.@.@.@.@.@.(   0 z 0     z z z     L @.L     i i i D D F j j j j j j F D D i i       @.@.L   0 z z       z z 0      .{  .X.X.@.",
"@.@.@.@.@.@.(   0 z 0     z z z     L @.L     i i i D D F j j j j j j F D D i i       @.@.L   0 z z       z z 0     ] ]  .X. .O.",
"@.@.@.@.@.@.`   0 z 0     z z z     I @.I     i i i D D F j j j j j j F D D i i       @.@.I   0 z z       z z 0     ]  .X.@.O.@.",
"@.@.@.@.@.@.`   5 b 5     b b b     . o ; i i D D D j j ~ $.~ j j $.$.~ j j D D i i i o o .   5 b b       b b 5     ]  .O.@.@.@.",
"@.@.@.@.@.@.`   5 b 5     b b b     . o ; i i D D D j j ~ $.~ j j $.$.~ j j D D i i i o o .   5 b b       b b 5      .o.@.@.@.@.",
"@.@.@.@.@.+.`   5 b 6 X X b b b     . o ; i i D D D j j W ~ ~ ~ ~ ~ ~ W j j D D i i i o o .   5 b b X X X b b 5     o.@.@.@.@.@.",
"@.@.@.@.@.+.`   5 b r < < b b b     . o ; i i D D D j j j j ~ $.$.j j j j j D D i i i o o .   5 b b < < < b b 5     @.@.@.@.@.@.",
"@.@.@.@.@.+.E   5 b r < < b b b     . o ; i i D D D j j j j ~ $.$.j j j j j D D i i i o o .   5 b b < < < b b 5     @.@.@.@.@.@.",
"@.@.@.@.o. . . .J   5 b b < < < < < = o ; i i D D D j j ~ $.~ j j $.$.~ j j D D i i i o o = < < < < b b b     J X.@.@.@.@.@.@.@.",
"@.@.@... . . .| c   5 b b < < < < < = o ; i i D D D j j ~ $.~ j j $.$.~ j j D D i i i o o = < < < < b b b     J X.@.@.@.@.@.@.@.",
"@.@.o. . .| | ] ] | K     z z z o o ; i S D D j j j ' ' ' ' ' ' ' ' ' ' ' ' j j D D D i i ; o q z z       {  . .@.@.@.@.@.@.@.+.",
"+... . .] ] ] | | | L     z z z o o ; i S D D j j j ' ' ' ' ' ' ' ' ' ' ' ' j j D D D i i ; o q z z        . .@.@.@.@.@.@.@.@.X.",
" . . .{ { }  . .@.@.L     z z z o o ; i S D D j j j ' ' ' ' ' ' ' ' ' ' ' ' j j D D D i i ; o q z z       @.@.@.@.@.@.@.@.@.@.@.",
" . .{ ] {  .+.@.@.@.L     o o o j j ! ' ! j j D D D D D D D D D D D D D D D D D j j j ' ' ! j 8 o o       @.@.@.@.@.@.@.@.@.@.@.",
" .| ] ]  .@.@.@.@.@.L     o o o j j ! ' ! j j D D D D D D D D D D D D D D D D D j j j ' ' ! j 8 o o       @.@.@.@.@.@.@.@.@.@.@.",
"| { {  .X.@.@.@.@.@.I . . 8 8 8 F F G H G F F p p p p p g h h h h h h g p p p p F F F H H G F f 8 8 . . . @.@.@.@.@.@.@.@.@.@.X.",
"] {  .X.@.@.@.@.@.X.U o o j j j D D D D D D D < < < < < r b b b b b b r < < < < D D D D D D D F j j o o o X.X.@.@.@.@.@.@.@.o. .",
"| | O.@.@.@.@.@.@.X.U o o j j j D D D D D D D < < < < < r b b b b b b r < < < < D D D D D D D F j j o o o @.X.@.@.@.@.o.X. . . .",
"@.@.@.@.@.@.@.@.L   u D D D D D i i -   , w w _ _ _ $.$.^ z B C C z z ^ $.$._ _ w w w     - i S D D D D D     L @.@.o. . . .] ] ",
"@.@.@.@.@.@.@.@.L   u D D D D D i i -   , w w _ _ _ $.$.^ z B C C z z ^ $.$._ _ w w w     - i S D D D D D     L @.o. . . .} ] } ",
"@.@.@.@.@.@.@.@.L   - i i D D D     , w n _ _ < < <     0 z B C C z z 0     < < _ _ _ w w ,   u D D i i i     L @.o. .| [ ] | ..",
"@.@.@.@.@.@.@.@.L   - i i D D D     , w n _ _ < < <     0 z B C C z z 0     < < _ _ _ w w ,   u D D i i i     L @. . .{ [ |  .o.",
"@.@.@.@.@.@.@.@.L   - i i D D D     , w n _ _ < < <     0 z B C C z z 0     < < _ _ _ w w ,   u D D i i i     L  .....[ |  .+.@.",
"@.@.@.@.@.@. .X.L   - i i i i i     X < M $.$.< < <     0 z z z z z z 0     < < $.$.$.< < X   - i i i i i     K  .| ] ] o.+. .o.",
"@.@.@.@.@.@.O.@.L   - i i i i i     X < T $.$.< < <     0 z z z z z z 0     < < $.$.$.< < X   - i i i i i     K  .| ] { o.+.o.@.",
"@.@.@.@.@.@.@.@.Q L a - - i i i     X < v ) ) k k k 0 0 d Z Z Z Z Z Z d 0 0 k k ) ) ) X X O - y i i - - - L K R  .| ]  .o.+.@.@.",
"@.@.@.@.@.@.@.@.o. .L     i i i     X < r b b C C C z z Z A A A A A A Z z z C C b b b     - i i i i       o. . .| ] { o.+.@.@.@.",
"@.@.@.@.@.@.@.X. . .J     i i i     X < r b b C C C z z Z A A A A A A Z z z C C b b b     - i i i i        . .] ] { X.@.@.@.@.@.",
"@.@.@.@.@.+.+. . ...{ } | O.@.@.        X < < b b b z z z z e < < z z z z z b b < < <         Y @.@.@.o. . .| ] | | @.@.@.@.@.@.",
"@.@.@.@.@.+. . . .| ] |  .@.@.@.        X < < b b b z z z z e < < z z z z z b b < < <         L @.@.o. . ...| [  ...@.@.@.@.@.@.",
"@.@.@.@.o. . . . .{ ]  .@.@.@.@.        . o o < < < w w t b r < < b b t w w < <           L @.@.@... . . .| ] ]  .o.@.@.@.@.@.@.",
"@.@.+.o. . . .| { ] }  .@.@.@.@.        . o o < < < w w t b r < < b b t w w < <           L @.@... . . .| ] ] |  .@.@.@.@.@.@.@.",
"@.@.O. . .| | ] ] }  .o.@.L L L 5 5 9 x % . . = = = 2 2 3 7 1 = = 7 7 3 2 2 2 2 0 0 0 , , s L R  .| | | { [ |  .o.@.@.@.@.@.@.@.",
"@.+. . .| ] { ] |  .O.+.@.      b b m C x     o o o < < = o o o o o o = < < w w z z z w w ,   K  .[ ] ] ] [  .@.@.@.@.@.@.@.@.X.",
".. . .| ] ] |  . .O.+.O.@.      b b m C x     o o o < < = o o o o o o = < < w w z z z w w ,   J { ] {  .| ..+.@.@.@.@.@.@.@.@.o.",
".. .| { |  .+.O.O.@.@.@.@.      b b l z 0     b b b z z l b b b b b b l z z A A o o o < < X   J { { |  .+.+.@.@.@.@.@.@.@.@.@.@.",
" .| ] ] | +.@.@.@.@.@.@.@.      b b l z 0     b b b z z l b b b b b b l z z A A o o o < < X   c [  .@.@.@.@.@.@.@.@.@.@.@.@.@.@.",
"| } ]  . .@.@.@.@.@.@.@.@.      b b l z 0     b b b z z l b b b b b b l z z A A o o o < < X   c  .o.@.@.@.@.@.@.@.@.@.@.@.@.@.X.",
"} ] ....o.@.@.@.@.X.@.@.@.@.@.@.    , w 4 & & b b b C C / _ _ _ _ _ _ / C C z z & & &     c {  .X.O.@.@.@.@.o.@.@.@.@.@.@.@.o. .",
"] } ..+.@.@.@.@.+.o.+.@.@.@.@.@.    , w 4 & & b b b C C / _ _ _ _ _ _ / C C z z & & &     c  .@.O.O.@.@.@.o...@.@.@.@.@.o. . .| ",
"@.@.@.@.@.@.@.@.@.@.@.@.@.@.+. .| ] J   - i i w w w C C C C C C C C C C C C w w i i i     L @.@.@.@.@.@.@.@.@.@.O.O.O. . .| { ] ",
"@.@.@.@.@.@.@.@.@.@.@.@.@.+. . .[ ] J   - i i w w w C C C C C C C C C C C C w w i i i     L @.@.@.@.@.@.@.@.@.@.O.o.X.X.| { ] | ",
"@.@.@.@.@.@.@.@.@.@.@.@.@... .[ { [ J   + ; ; > > > m m B B V C C B B N m m , , : : : X X * L Q @.@.@.@.@.@.@.@.@.@. .| ] ] {  .",
"@.@.@.@.@.@.@.@.@.@.@.@.@...[ { { | L   . o o i i i b b l z B C C z z l b b     < < < < < X   L @.@.@.@.@.@.@.@.@.@. .] ] {  .X.",
"@.@.@.@.@.@.@.@.@.@.@.@. . .{ {  .X.L   . o o i i i b b b z B C C z z b b b     < < < < < X   L @.@.@.@.@.@.@.@.o... .] }  .X.@.",
"@.@.@.@.@.@.X.O.@.@.@... .{ ] { X.o.U o ; i i D D D D D S i i i i i i i i i < < z z z b b 5   L @.@.@.X.@.@.O.O.o.| { ]  . .X.@.",
"@.@.@.@.@.@.X.@.@.@.X. . .] { } @.o.T o ; i i D D D D D S i i i i i i i i i < < z z z b b 5   L @.@.O.X.O.O..... .} } ]  .O.X.O.",
"@.@.@.@.@.@.@.@.X.X. . .| { |  .@.@.O.@.T o o o o o i i S D F j b i i -     w w C C C w w ,   L @.@.@.@.O..... . .} ]  .o.O.O.O.",
"@.@.@.@.@.@.O.O.+... .| { { | +.@.@.@.@.T o o o o o i i S D F j j i i -     w w C C C w w ,   L @.@.@.@.@... . .{ { {  .O.@.@.@.",
"@.@.@.@.@.@.O.+.o...| ] ] [ ..@.@.@.@.@.T o o o o o i i S D F j j i i -     w w C C C w w ,   L @.@.@.@.O.X. .} { { } o.O.O.@.@.",
"@.@.@.@.@.@.@.+. . .{ ] { o.@.@.@.@.@.@.@.@.@.& & & o o .           @       < < w w w     L @.@.@.@.@.O. . .| { { { @.@.@.@.@.@.",
"@.@.@.@.@.@.+. . . .{ |  .+.@.@.@.@.@.@.@.@.@.& & & o o .                   < < w w w     L @.@.@.@.O. . . .| { |  .@.@.@.@.@.@.",
"@.@.O.O.O.+. . ...[ ] | ..@.@.@.@.@.@.@.@.@.@.P P P $ $ # @ @ @ @ @ @ @ @ @ X X , , , L L Q @.@.@.O. . . .| { { | O.@.@.@.@.@.@.",
"@.@.@.O.o. . .| | ] {  .@.@.@.@.@.@.@.@.@.@.@.@.O.O.& & & & & & & & & & & &           O.@.@.@.@.X. . . .| { { } X.O.@.@.@.@.@.@.",
"@.@.O.X. . . .{ ] ] | ..@.@.@.@.@.@.@.O.@.@.@.@.@.+.& & & & & & & & & & & &           @.@.@.@.+.X. . .| { { {  .X.@.@.@.@.@.@.@.",
"@.@.o. .| ] { ] {  ...+.@.@.@.@.O.O.O.X.O.@.@.@.X. . .| } ] ] |  .& & & & & & & O.X.O.@.@.@.+.X. . .{ { { } X.X.@.@.@.@.@.@.@.X.",
"O.o. . .] ] | | | ..+.@.@.@.@.@.@.@.@.o.@.@.O.X. . .| ] ] | |  .+.& & & & & & & @.+.O.@.O.o. . .| ] { |  . .X.O.@.@.@.@.@.@.@.@.",
"X.X.| ] ] {  ...@.@.@.@.@.@.@.@.@.@.@.@.@.O.o. . .} ] ] | o.O.O.O.@.@.@.@.@.@.@.@.@.O.O.+. . .| ] ] {  .@.@.O.O.@.@.@.@.@.@.@.@.",
"o. .] ] |  .O.@.@.@.@.@.@.@.@.@.@.@.@.O.O.o. . .} ] ]  .o.O.@.@.@.@.@.@.@.@.@.@.O.O.O... . .| ] ] o.O.O.@.@.@.@.@.@.@.@.@.@.@.@.",
"o.] ] |  .@.@.@.@.@.@.@.@.@.@.@.@.@.O.X.X. . .} ] {  .+.@.@.@.@.@.@.@.@.@.@.@.@.O.o... . .| ] ] | +.O.O.@.@.@.@.@.@.@.@.@.@.@.@."
};
