/* XPM */
static char *result[] = {
/* columns rows colors chars-per-pixel */
"64 64 93 2 ",
"   c #442211",
".  c #5D2211",
"X  c #593319",
"o  c #6E3308",
"O  c #772211",
"+  c #721922",
"@  c #44332A",
"#  c #5D332A",
"$  c #7F552A",
"%  c #444444",
"&  c #883308",
"*  c #881133",
"=  c #A11133",
"-  c #B2222A",
";  c #CC3B2A",
":  c #884C08",
">  c #994400",
",  c #9D4419",
"<  c #B25D00",
"1  c #885D22",
"2  c #99552A",
"3  c #AE5D26",
"4  c #B2552A",
"5  c #BB4C3B",
"6  c #A16E22",
"7  c #BB6E22",
"8  c #CC7700",
"9  c #CC7F19",
"0  c #C36622",
"q  c #AA0844",
"w  c #992266",
"e  c #CC0055",
"r  c #C3335D",
"t  c #864F57",
"y  c #D84C66",
"u  c #EE557F",
"i  c #FF7766",
"p  c #B6832E",
"a  c #BF8333",
"s  c #CC993B",
"d  c #F6A13B",
"f  c #E5B23B",
"g  c #FFBB33",
"h  c #A18844",
"j  c #89847F",
"k  c #C78350",
"l  c #EE8844",
"z  c #E5BB5D",
"x  c #F6BB5D",
"c  c #CCA17F",
"v  c #FFD455",
"b  c #FFE166",
"n  c #FFEE77",
"m  c #7F7F88",
"M  c #0044DD",
"N  c #DD1188",
"B  c #EE22BB",
"V  c #F64C90",
"C  c #F661AE",
"Z  c #F677CC",
"A  c #8E8781",
"S  c #8F8882",
"D  c #958A84",
"F  c #979C9E",
"G  c #A48B85",
"H  c #AC8A84",
"J  c #A8868D",
"K  c #B18B85",
"L  c #ABB6B7",
"P  c #BEBFBE",
"I  c #C1BFBF",
"U  c #FFA1A1",
"Y  c #FFBBB2",
"T  c #C2C0BE",
"R  c #F6C3A1",
"E  c #FFFFBB",
"W  c #C6C2C0",
"Q  c #FFCCDD",
"!  c #FFFFDD",
"~  c #CEE6ED",
"^  c #CEE8ED",
"/  c #D0E6EE",
"(  c #D1E8EF",
")  c #D5EAF1",
"_  c #DBEEF4",
"`  c #DFF0F5",
"'  c #E1EFF4",
"]  c #E4F1F6",
"[  c #E8F2F7",
"{  c #E6F4F8",
"}  c #EAF3F8",
"|  c #F6FAFC",
" . c white",
/* pixels */
"| } } } } } } } } } } } } [ _ _ ) ~ ( ) _ _ [ [ } } } } } } } } } } } [ ` _ ) ) ~ ^ _ ) [ [ } } } } } } } } } } } } ] _ _ ) ^ ) ",
"} } } } } } } } } } } } } _ _ ) ~ / _ _ [ } } } } } } } } } } } } } } _ _ _ ~ ~ ) _ ] { } [ } } } } } } } } } } } [ _ _ ) ~ ) ) ",
"} } } } } } } } }     } { `     j ) _ } [ } } } O O O O O e e e e e e e O O O O O [ } } } } } } }     } } D     } ` _ ) ~ ~ _ ' ",
"} } } } } } } } }     [ ` _     S _ [ } } } } } O O O O O e e e e e e e O O O O O } } } } } } } }     } } D     [ _ _ ( ( _ _ } ",
"} } } } } } T     g g       g g 6     } }       e e N B B i i i i i i i B B B e e     D } }       g g     6 g g       / _ ' ' } ",
"} } } } } } T     g g       g g 6     } }       e e N B B i i i i i i i B B B e e     D } }       g g     6 g g       / _ ' _ [ ",
"} } } } } } W     g g       g g 6     } }       e e N B B i i i i i i i B B B e e     G } }       g g     6 g g       ) ' } [ } ",
"} } } } } } W     l l       l l 2     O O e e e B B V i i  . .i i Y  . .i i i B B e e = O O       l l     2 l l       _ [ } } } ",
"} } } } } } W     l l       l l 2     O O e e e B B V i i  . .i i Y  . .i i i B B e e = O O       l l     2 l l       [ } } } } ",
"} } } } } } W     l l o o o l l 2     O O e e e B B V i i Y Y Y Y Y Y Y i i i B B e e = O O       l l o o 3 l l       } } } } } ",
"} } } } } } P     l l > > > l l 2     O O e e e B B V i i i i  . .Y i i i i i B B e e = O O       l l > > 0 l l       } } } } } ",
"} } } } { { P     l l > > > l l 2     O O e e e B B V i i i i  . .Y i i i i i B B e e = O O       l l > > 0 l l       } } } } } ",
"} } } } ] _ _ _ )     l l l > > > > > O O e e e B B V i i  . .i i Y  . .i i i B B e e = O O > > > > > l l 2     ' } } } } } } } ",
"} } } ] _ _ _ ) ~     l l l > > > > > O O e e e B B V i i  . .i i Y  . .i i i B B e e = O O > > > > > l l 2     ' } } } } } } } ",
"} } ` _ _ ) ) ~ ~ ) _       g g 7 O O e e B B B i i U Q Q Q Q Q Q Q Q Q Q Q Q i i B B N e e O O O g g     A _ _ } } } } } } } } ",
"{ ` _ _ ~ ~ ~ ) ) ) [       g g 7 O O e e B B B i i U Q Q Q Q Q Q Q Q Q Q Q Q i i B B N e e O O O g g     S _ } } } } } } } } ' ",
"_ _ _ / ~ / _ _ } } }       g g 7 O O e e B B B i i U Q Q Q Q Q Q Q Q Q Q Q Q i i B B N e e O O O g g     D } } } } } } } } } } ",
"_ _ / / ) _ ] } } } }       O O 5 i i Q Q i i i B B B B B B B B B B B B B B B B B i i U Q Q i i i O O     D } } } } } } } } } } ",
"_ ) / / _ } } } } } }       O O 5 i i Q Q i i i B B B B B B B B B B B B B B B B B i i U Q Q i i i O O     D } } } } } } } } } } ",
") / / ) ' } } } } } } . . . 5 5 y V V Z Z V V V r r r r r u u u u u u u r r r r r V V C Z Z V V V 5 5 . . G } } } } } } } } [ [ ",
"~ / ) { } } } } { ' [ O O O i i V B B B B B B B > > > > > l l l l l l l > > > > > B B B B B B B B i i O O H _ } } } } } } } ] _ ",
") ) { } } } } } } ' } O O O i i V B B B B B B B > > > > > l l l l l l l > > > > > B B B B B B B B i i O O H ' } } } } ] ] _ _ _ ",
"} } } } } } } } }     B B B B B N e e     8 8 8 E E !  . .g g n n v g g  . . .E E 8 8 :     e e e B B B B w     } } [ _ _ _ ~ ~ ",
"} } } } } } } } }     B B B B B N e e     8 8 8 E E !  . .g g n n v g g  . . .E E 8 8 :     e e e B B B B w     } ] _ _ ) ( ^ ( ",
"} } } } } } } } }     e e e B B w     8 8 E E E > > o     g g n n v g g       > > E E z 8 8       B B e e *     } ] _ _ ^ ~ ( ] ",
"} } } } } } } } }     e e e B B w     8 8 E E E > > o     g g n n v g g       > > E E z 8 8       B B e e *     { ` _ ~ ^ ^ _ ] ",
"} } } } } } } } }     e e e B B w     8 8 E E E > > o     g g n n v g g       > > E E v 8 8       B B e e *     _ _ _ ^ ( _ { } ",
"} } } } } } ' ' }     e e e e e *     > >  . . .> > o     g g g g g g g       > >  . .c > >       e e e e *     _ _ ~ ~ ] { _ [ ",
"} } } } } } [ } }     e e e e e *     > >  . . .> > o     g g g g g g g       > >  . .K > >       e e e e *     _ ) ~ / ] [ ] } ",
"} } } } } } } } [ D S * * * e e q * * o o R R R s s p 6 6 m m m m m m m 6 6 6 s s R R k > >       e e * * t S S _ ) ~ _ ] { } } ",
"} } } } } } } } ] _ _       e e e e e     l l l n n v g g M M M M M M M g g g n n l l 0 > >       e e     D _ _ / ~ / { { } } } ",
"} } } } } } } ' _ _ )       e e e e e     l l l n n v g g M M M M M M M g g g n n l l 0 > >       e e     S _ / ~ ( ' { } } } } ",
"} } } } { { { _ _ _ ( ) ) { } } J         > > > l l d g g g g > > 9 g g g g g l l > > o           } } ] _ _ ) ~ ) ) } } } } } } ",
"} } } } } { _ _ _ ) ~ ) _ } } } D         > > > l l d g g g g > > 9 g g g g g l l > > o           } ` _ _ ` ) ^ _ _ } } } } } } ",
"} } } } ] _ _ _ ) ( ~ ) } } } } } } }           > > < 8 8 l l > > 0 l l 8 8 8 > > O O .           ` _ _ _ ) ^ ^ _ [ } } } } } } ",
"} } } ] _ _ _ ) ( / ) _ } } } } } } }           > > < 8 8 l l > > 0 l l 8 8 8 > > O O .           _ _ _ ) ~ ~ ( _ [ } } } } } } ",
"} } ] _ _ ) ) ~ / ) ` ' } } } } I D D : : 6 6 6 < < < < < 4 4 & & , 4 4 < < < & & . . $ h h 2 2 2 S S ) ~ ~ ) _ [ } } } } } } } ",
"} { _ _ ) / / ~ ) ) ] } } } } } D     8 8 g g g 8 8 < > > O O O O O O O > > > O O     h n n l l l     ~ ~ ^ _ } [ } } } } } [ ] ",
"{ _ _ ) ~ / ) _ ` ] } } } } } } D     8 8 g g g 8 8 < > > O O O O O O O > > > O O     h n n l l l     _ ) ` ] } } } } } } } [ ] ",
"_ _ ) / ( ` ] ] } } } } } } } } D     > > O O O M M m g g l l l l l l l g g g l l     6 g g l l l     _ { } } } } } } } } } } [ ",
"_ ) ~ ~ ) ] } } } } } } } } } } D     > > O O O M M m g g l l l l l l l g g g l l     6 g g l l l     } } } } } } } } } } } } } ",
") ~ ~ _ ` } } } } } } } } } } } D     > > O O O M M m g g l l l l l l l g g g l l     6 g g l l l     } } } } } } } } } } } [ ] ",
"^ ~ ` ` ] } } } } ' } } } } } } | } _     % % % g g v n n E E E E E E E n n n l l % % 1 8 8       [ } } } } ] [ } } } } } } ] _ ",
"~ ) ` { } } } } } _ { } } } } } } ] )     % % % g g v n n E E E E E E E n n n l l % % 1 8 8       } } } [ [ ' } } } } [ [ _ ( _ ",
"} } } } } } } } } } } } } } { _ ) / ~     e e e 8 8 f n n n n n n n n n n n n 8 8 e e *     } } } } } } } } } } } } [ ' _ ( / ~ ",
"} } } } } } } } } } } } } { _ _ / ~ )     e e e 8 8 f n n n n n n n n n n n n 8 8 e e *     } } } } } } } } } } } ] _ _ _ ~ / ( ",
"} } } } } } } } } } } } } ` ) ^ L A D o o - - - : : a x x v v n n b v v x x x ; ; = = +     } } } } } } } } } } } [ _ ) ~ ~ / _ ",
"} } } } } } } } } } } } } ` ~ ~ A     > > > > >     2 l l g g n n v g g l l l e e O O .     } } } } } } } } } } { } _ ~ ~ / _ ] ",
"} } } } } } } } } } } { _ ) ( ( D     > > > > >     2 l l g g n n v g g l l l e e O O .     } } } } } } } } } [ ] ` _ ~ ( _ ] } ",
"} } } } } } ' ] } } } ` ) ) / ( D     l l g g g > > - e e e e e e e e e B B B B B e e = O O } } } } [ ] } } [ ] ` _ / ~ ) _ ' } ",
"} } } } } } ] ] } ' ] _ _ ~ / ( D     l l g g g > > - e e e e e e e e e B B B B B e e = O O } } } } [ ' [ [ _ ` _ ( / ~ _ [ _ [ ",
"} } } } } } } } } ' _ _ ) / ) _ D     8 8 n n n 8 8 :     e e i i V B B e e e O O O O K } } } } } } [ [ } ' ` _ ` ( / _ ' } } } ",
"} } } } } } } } { ` _ ) / ~ ) { D     8 8 n n n 8 8 :     e e i i V B B e e e O O O O K } } } } } } } } } ' _ ` ( / / _ [ } } } ",
"} } } } } } } { ] ` ) ~ / / _ } D     8 8 n n n 8 8 :     e e i i V B B e e e O O O O K } } } } } } } } [ ' _ ( / / / ] [ } } } ",
"} } } } } } } ] _ _ ^ / / ] } } } } }     8 8 8 > > o                   O O O % % } } } } } } } } } } ] ` _ ) ^ ~ / } } } } } } ",
"} } } } } } ] _ _ _ / ) _ } } } } } }     8 8 8 > > o                   O O O % % } } } } } } } } } [ ` _ _ ) ^ ) _ } } } } } } ",
"} } } } } ] _ _ _ ) ~ ) ] } } } } } } D D : : : o o X @ @ @ @ @ @ @ @ @ # # # F F } } } } } } } } [ _ _ _ ) / / _ ' } } } } } } ",
"} } } ] ] _ _ _ ( ~ / _ { } } } } } } } }           @ % % % % % % % % % % % % } } } } } } } } } ' _ _ _ _ ~ / / ' } } } } } } } ",
"} } } ` _ _ ) / ~ ~ _ _ } } } } } } } } }           @ % % % % % % % % % % % % } } } } } } } } { ' _ _ ) / ~ / _ ' } } } } } } } ",
"} } ] _ ) ~ / ~ ~ _ _ { } } } } } } ] _ } } } } % % % % % % % ( ` ] } } } } } } } _ } } } } ] ` _ ) / ~ / / ' ] } } } } } } } ' ",
"} ] _ _ ~ ~ ( ( ) ` { } } } } } } } } ] } } } ` % % % % % % % _ ] } } } } } } } } ] ] } } ] _ _ ) ~ / ) _ _ ' [ } } } } } } } } ",
"' _ _ ~ ~ ~ _ ] } } } } } } } } } } } } } } ] _ _ / ~ / ) ` } } } } } } } } } } } } } } ] _ _ ) / / / _ } } [ [ } } } } } } } } ",
"] ) ~ ~ ) ] ] } } } } } } } } } } } } } { ] _ _ ^ ~ / _ ] { } } } } } } } } } } } } } ] _ _ ) ~ ~ ` ] } } } } } } } } } } } } } ",
"] ~ ~ ) _ } } } } } } } } } } } } } } ' ] ) _ / / / _ ] } } } } } } } } } } } } } ] _ _ _ ) ~ ~ ) { } } } } } } } } } } } } } [ "
};
