/* XPM */
static char *result[] = {
/* columns rows colors chars-per-pixel */
"64 64 87 1 ",
"  c #442211",
". c #442A1D",
"X c #5D2211",
"o c #502A1D",
"O c #6E3308",
"+ c #772211",
"@ c #721922",
"# c #44332A",
"$ c #5D332A",
"% c #3F3B5D",
"& c #3B3377",
"* c #444444",
"= c #6C6F71",
"- c #881133",
"; c #941133",
": c #A11133",
"> c #884C08",
", c #994400",
"< c #B25D00",
"1 c #AA6611",
"2 c #99552A",
"3 c #AE5D26",
"4 c #B2552A",
"5 c #9D6126",
"6 c #A16E22",
"7 c #BB6E22",
"8 c #CC7700",
"9 c #CC7F19",
"0 c #C36622",
"q c #90194C",
"w c #B60844",
"e c #992266",
"r c #B22266",
"t c #BF2E61",
"y c #CC0055",
"u c #E53B5D",
"i c #994F57",
"p c #875058",
"a c #AA6954",
"s c #E5507B",
"d c #FF7766",
"f c #FA617B",
"g c #E59919",
"h c #F6A13B",
"j c #FFBB33",
"k c #89847F",
"l c #A2857F",
"z c #EE8844",
"x c #FFD455",
"c c #FFEE77",
"v c #224490",
"b c #0044DD",
"n c #DD1188",
"m c #F237A5",
"M c #EE22BB",
"N c #F64C90",
"B c #E56699",
"V c #FA7799",
"C c #8D8781",
"Z c #978B85",
"A c #979C9E",
"S c #A48B85",
"D c #AD8983",
"F c #B18B85",
"G c #B9B7B7",
"H c #BDBEBD",
"J c #C5BCBB",
"K c #CBBFBE",
"L c #FFA1A1",
"P c #C1C0BF",
"I c #E1B7D0",
"U c #E8B9D1",
"Y c #C6C2C0",
"T c #D3C2C0",
"R c #FFCCDD",
"E c #CEE6ED",
"W c #D0E6EE",
"Q c #D2E8EF",
"! c #D5EAF1",
"~ c #DBEEF4",
"^ c #DFF0F5",
"/ c #E1EFF4",
"( c #E4F1F6",
") c #E8F2F7",
"_ c #E6F3F8",
"` c #EAF3F8",
"' c None",
/* pixels */
"````````````(^QQEQ~/()````````````(~~QEE!//)````````````(^~!!EQ'",
"``````````)_^QWW~~)``)`PPTTTUUUUUUIKJJJK(```````````````(~!EE~('",
"``````````_/~QWQ~)`````+++,@yyyyyyy+++++``````````````)(~~EQ~/)'",
"`````)```(/~QEQ^~(`````+++++yyyyyyy+++++``````````(```(~~~!~~(`'",
"`````/(`  ~^Q  Z^(``   yyuddMMMMMMMdddyy  Z`````  ~(Z  ~~EW~///'",
"````````  ~~W  Z````   yyuddMMMMMMMdddyy  Z`````  ``Z  ~~E~~`)`'",
"````````  ~EE  Z````   yyuddMMMMMMMdddyy  S`````  ``Z  ~!E~)```'",
"`````P  jj   jj6  ++yyyddNMMMMMMMMMMMMddyy:++   jj  6jj   )````'",
"`````Y  jj   jj5  ++yyyddNMMMMMMMMMMMMddyy:++   jj  6jj   `````'",
"`````H  hh   hh5  ++yyyddNMMMMMMMMMMMMddyy:++   hh  5hh   `````'",
"````_H  zz   zz2  ++yyyddNMMMMMMMMMMMMddyy:++   zz  2zz   `````'",
"``__^H  zzOOOzz2  ++yyyLLVNNMMMMMMMNNNLLyy:++   zzOO3zz   `````'",
"`_^^^H  zz,,,zz2  ++yyyRRLddMMMMMMMdddRRyy:++   zz,,0zz   `````'",
"`_~~QH  zz,,,zz2  ++yyyRRLddMMMMMMMdddRRyy:++   zz,,0zz   `````'",
"(^!QEEQ!  zzz,,O  ++yyyddLRRRRRRRRRRRRddyy:++   ,,zz2  ```````('",
"~~EWQ^^`  zzz,,O  ++yyyddLRRRRRRRRRRRRddyy:++   ,,zz2  ````````'",
"!QEW~()`  zzz,,O  ++yyyddLRRRRRRRRRRRRddyy:++   ,,zz2  ````````'",
"!EE~)`````   jjhzz++yyyMMNddddddddddddMMyy:++zzzjj  Z``````````'",
"QQ~(``````   jjhzz++yyyMMNddddddddddddMMyy:++zzzjj  Z)```````)^'",
"E!(`````DD---66522++yyyMMmNNdddddddNNNMMyy:++44466--iDF`````((~'",
"!)``````++yyy     ++yyyMMMMMdddddddMMMMMyy:+++++  yy:++``_(((~!'",
")```````XXyyy--qee::yyyMMMMMdddddddMMMMMyyw:;rrr--yy;XX``(^^~EE'",
"````````  yyyyynMMyyyyyMMMMMdddddddMMMMMyyyyyMMMyyyy-  `(~^!QE!'",
"````````  yyyyynMMyyyyyMMMMMdddddddMMMMMyyyyyMMMyyyy-  `(~!WE!^'",
"````````  yyydddddddyyyyynMMdddddddMMMyyyyudddddddyy-  (^~EEE~_'",
"````````  yyydddddddyyyyynMMdddddddMMMyyyyudddddddyy-  ~~~!!^_`'",
"`````~(`  yyydddddddyyyyynMMdddddddMMMyyyyudddddddyy-  ~~EE^_~('",
"`````()`(~   MMNdddddddyyyyyyyyyyyyyyyyyddddddddMM  Z^~~!EE^)(`'",
"```````)~~   MMNdddddddyyyyyyyyyyyyyyyyyddddddddMM  Z~~~!E~(```'",
"```````(~~CkkeetuuNNddduusBBBBBBBBBBBBuuddfNNuuueeZZH~~EEQ(_```'",
"``````(~~!EE(  -yyMMdddddLRRRRRRRRRRRRddddNMMyyy  `(~~WEQ(`````'",
"`````(~~~EQ!(XX@--eeuuuuusBBBBBBBBBBBBuuuutee---ZZ^~~~EW!_`````'",
"``___~~~!W!/)++X    yyyyyyyyyyyyyyyyyyyyyy-     `(~~~!W!/``````'",
"```_~~~~QE!)`++X    yyyyyyyyyyyyyyyyyyyyyy-     ~~~~!EE~(``````'",
"``^~~~!WE!~``++4zz88                      >88jjj++~~EE!/```````'",
"`(~~~QEE!~/``++4zz88                      >88jjj++!EW!~/```````'",
"_~~!EEE!~(```FFa44ggOOO  .############  OO1ggxxx77ZlG~````````('",
"^~!WW!~~(``````F++jj,,,  #************  ,,9jjcccjj++D/````````('",
"~!WQ^((````````F++jj,,,  #************  ,,9jjcccjj++F``````````'",
"!EE~``````````````  +++**vbbbbbbbbbbbb**++X  +++cc++F``````````'",
"QE~~``````````````  +++**vbbbbbbbbbbbb**++X  +++cc++F`````````/'",
"E^^(```_/````````~  +++bbv****++$*****bb++X  !~~++++F(```````(~'",
"Q(_`````~```````(~  +++bbv****++$*****bb++X  ~``++++F^````))~!~'",
"__```````````_~~EE  +++bbv****++$*****bb++X  ```++++F````)~~!EE'",
"````````````_^~EE!  +++**vbbbbbbbbbbbb**++X  ```````````)~~QWE!'",
"````````````~~EEE~  +++**vbbbbbbbbbbbb**++X  ````````````~~EWW~'",
"```````````_^!EE!(  :::$$%vvbbbbbbbvvv$$::@  ``````````__~EEW~/'",
"``````````_~~EE~(_  yyy++$**bbbbbbb***++yy-  `````````_(^~E!~(`'",
"`````((```/^WEW^/)ZZ---XXo##&&&&&&&$$$rr--pZZ`````(``)(^~EE!~/)'",
"`````~)`_/~~WWQ_((``        ++++++++++MM  Z``````(~))/^~QEW~)/)'",
"```````(/~~!Q!~`````        ++++++++++MM  Z`````````(~~~!W!/``)'",
"```````_~~!QW!)`````   88<,,  dddddMMM  ````````````(~~WWW~)```'",
"``````__~!EEQ~``````   88<,,  dddddMMM  ```````````)^~WWW!(````'",
"``````(~~QEQ/```````   88<,,  dddddMMM  ``````````(~~~WWW``````'",
"`````(~~~Q!~_```````   jjjjj          ```````````)~~~!EQ~)`````'",
"````(~~~QW!/````````   jjjjj          ```````````~~^!EE~(``````'",
"``_(^~!QEE!`````````   ggggg  ########````````__~~~!WEQ/```````'",
"``/~~~QEE~^``````)``   88888  ********````````_^~~!WEW~(```````'",
"`_~!EWQW~^_``````(~`ZZZ>>>>>##**=AAAAA``/````(^~!QWWQ~/```````('",
"(~!EEQQQ~_````````(```/     ****A```````/_`_/^~!WW!!//````````)'",
"/~EEW~^``````````````_~     ****A``````````(~~!EEW~````````````'",
"~EE!/```````````````/!~!WW^^``````````````(~~WWW/(`````````````'",
"!W!~``````````````//~~QEW~_`````````````_^~~!EW!_`````````````)'",
"''''''''''''''''''''''''''''''''''''''''''''''''''''''''''''''''"
};
