/* XPM */
static char *result[] = {
/* columns rows colors chars-per-pixel */
"64 64 96 2 ",
"   c #442211",
".  c #5D2211",
"X  c #6E3308",
"o  c #772211",
"O  c #44332A",
"+  c #7F3726",
"@  c #444444",
"#  c #883F08",
"$  c #A53315",
"%  c #881133",
"&  c #B2222A",
"*  c #884C08",
"=  c #994400",
"-  c #A14C08",
";  c #B25D00",
":  c #A55915",
">  c #885D22",
",  c #99552A",
"<  c #A14C3B",
"1  c #BB4C3B",
"2  c #A16E22",
"3  c #BF7722",
"4  c #A17B33",
"5  c #CC7700",
"6  c #CC7F19",
"7  c #C36622",
"8  c #DD7F22",
"9  c #BB3359",
"0  c #BB1977",
"q  c #992266",
"w  c #BF2E61",
"e  c #CC0055",
"r  c #E53B5D",
"t  c #9D7248",
"y  c #C3444C",
"u  c #DD444C",
"i  c #FF7766",
"p  c #E59919",
"a  c #D0942A",
"s  c #D0A13B",
"d  c #FAAE37",
"f  c #F6A13B",
"g  c #FFBB33",
"h  c #A18844",
"j  c #89847F",
"k  c #A19066",
"l  c #EE8844",
"z  c #FFD455",
"x  c #F6C37F",
"c  c #FFDD77",
"v  c #FFEE77",
"b  c #224490",
"n  c #0044DD",
"m  c #DD1188",
"M  c #EE22BB",
"N  c #F64C90",
"B  c #EE5994",
"V  c #E56699",
"C  c #E57FAA",
"Z  c #8C8681",
"A  c #968B85",
"S  c #979798",
"D  c #959B9D",
"F  c #A78681",
"G  c #A48B85",
"H  c #A98883",
"J  c #B18B85",
"K  c #AC9380",
"L  c #C3BDBD",
"P  c #CBBFBE",
"I  c #FFA1A1",
"U  c #CDC0BF",
"Y  c #FFFFBB",
"T  c #B8C4C7",
"R  c #BCC6C9",
"E  c #BFC8CB",
"W  c #C6C2C0",
"Q  c #C4C9CC",
"!  c #D3C2C0",
"~  c #D8DBDC",
"^  c #FFCCDD",
"/  c #D8DFE3",
"(  c #CEE6ED",
")  c #CEE8ED",
"_  c #D0E6EE",
"`  c #D2E8EF",
"'  c #D5EAF1",
"]  c #DBEEF4",
"[  c #DFF0F5",
"{  c #E1EFF4",
"}  c #E4F1F6",
"|  c #E8F2F7",
" . c #E6F3F8",
".. c #EAF3F8",
"X. c #F6FAFC",
"o. c white",
/* pixels */
"X.........................| ] ] ` _ ` ' ] ] | .......... ...............[ ] ' ` ( ` ] ' } ..........................} ] ] ] ( ` ",
"..........................] ] ` ( _ ] ] ............~ U U U U ! ! ! ! U U U L ) ` ] | ............................| ] [ ` ( ` ' ",
"..........................] ` ` _ ' ] ..............A     o o o o o o o o o o ` ] | ..............................[ ] ` ( ( ] { ",
"......................| } ] ` ) ' ] ..............| G     o o o o o o o o o o ] ................................} ] ] ` ` ] { ..",
"............| | .... .] ] ` _ ` ] ] ..          o o .             h v v            . .................} ......} ] ] ' _ ] { { ..",
"............] } .. .} ] ] ) ) ` | ] {           o o .             h v v            .................| ] | ..} ] ] ] _ ( ] { ] ..",
"................ .} ] ] ] _ k H G A A h h . . . 1 1 +     h h     4 z z       % % A A U ....................] ] ] ] ( ] ] ..| ..",
"................ .] ] ] _ _ o o .     v v o o o i i <     v v     2 g g       e e     A ..................{ ] ] ] ' _ ] | ......",
".............. . .] ] ' ( _ o o .     v v o o o i i <     v v     2 g g       e e     A ............ . . .[ ] ] ' _ '  .........",
"..............] ] ] '       v v h     v v o o o M M q     v v     , l l       i i     A ..............} [ ] ] ' ( '  ...........",
"............[ ] ] ] _       v v h     v v o o o M M q     v v     , l l       i i     A ...... ..... .} ] ] ] ( ' ]  ...........",
"........ . .] ] ] ' _       g d 2     g g o o o M M q     v v g g p 5 5       e e i i <               ] ] ] ] ( ] [ ............",
"........ .] ] ] ' ( )       g g 2     g g o o o M M q     v v g g p 5 5       e e i i <               ] ] ] ( ( ] | ............",
".... . .] ] ] ' ( ( ]       g g 2     g g o o o M M q     v v g g p 5 5       e e i i <               ] ] ( ( ' { ..............",
"....} ] ] ` ' ( ( ' ]       l l 7 = = g g = = =     h v v g g 5 5 *     M M M i i e e %     e e i i i e e %     ................",
" .[ ] ] ( ( ` ` ` ]  .      l l 7 = = g g = = =     h v v g g 5 5 *     M M M i i e e %     e e i i i e e %     ..............| ",
"] ] ] _ ( _ ] { ......A A A , , : ; ; f f 6 6 6 2 2 s z z 2 2 p p 3 , , q q q N N r r y < < V V I I I e e %     ................",
"] ] _ ( ' ] } ..............    * 5 5 l l g g g g g g g g     g g f l l       M M i i i i i ^ ^ ^ ^ ^ e e %     ................",
"] ' ( ( ] ..................    * 5 5 l l g g g g g g g g     g g f l l       M M i i i i i ^ ^ ^ ^ ^ e e %     ................",
"' ( ( ] { ......................A         = = = l l 7 = =               i i i ^ ^ ^ ^ I i i e e           A ..................] ",
"( _ '  ...........{  ...........A         = = = l l 7 = =               i i i ^ ^ ^ ^ I i i e e           A ] ..............[ ] ",
"' '  .............{ ..........] A     e e e e e           e e ^ ^ ^ ^ ^ ^ ^ ^ M M               .. .........| ........} } { ] ' ",
".......................... .] ] Z     e e e e e           e e ^ ^ ^ ^ ^ ^ ^ ^ M M               ....................} ] ] ] _ ) ",
"..........................] ] ] Z     e e e e e           e e ^ ^ ^ ^ ^ ^ ^ ^ M M               ..................} ] ] ] ` _ ` ",
"..........................]     % e e e e i i i i i I ^ ^ ^ ^ M M m e e e e e e e l l :     ......................} ] ] ( ) ` } ",
"........................[ ]     % e e e e i i i i i I ^ ^ ^ ^ M M m e e e e e e e l l >     ....................| [ ] _ ) ) ] } ",
"............| ..| A A A A Z q q w r r r r I I I N N B V V V V q q 9 u u C C C % % x I t     .................. .] [ ] ) ' ] | ..",
"............] | ..          M M N i i i i ^ ^ ^ M M m e e e e     , l l o.o.o.    Y Y k     ..........] ......] ] ' ) ( [ } ] | ",
"............} | |           M M N i i i i ^ ^ ^ M M m e e e e     , l l o.o.o.    Y Y k     ..........{  ...{ ] ] ' ( _ }  .} ..",
"................|     e e e e e e e e               X = = l l g g g g g o.o.o.= = g g c Y Y n n ..........} ] ] ] ' ( ] } ......",
"................}     e e e e e e e e               X = = l l g g g g g o.o.o.= = g g c Y Y n n ........ .} ] ] ` ( `  . .......",
"..............} ] ] '                     o o o = = ; 5 5 l l g g g g g g g g g g g g g g g     ........} ] ] ` ( _ {  .........",
".......... . .] ] ] (                     o o o = = ; 5 5 i l g g g g g g g g g g g g g g g     ......| ] ] ] ( ( ] ............",
".......... .] ] ] ] ( A A A A A A A A A A J J J X X * - = 8 a f f d g g g g g g g g g a 2 2 A A ....} ] ] [ ' ( ] ] ............",
"........} ] ] ] ] ( ( ' { ......................    . o o 5 5 l l f g g g g g g g g g 2      ... .] ] ] [ ` _ _ ' } ............",
"......} ] ] ] ' ( ( ' ] ........................    . o o 5 5 l l f g g g g g g g g g 2     .. .} ] ] ] ` ) _ ' } ..............",
".... .] ] ' ' ( ( ` ] { ..................o o o @ @ @ @ @ o o o o o o o o o o o o     A ....o o o o o ' ( _ ` ] } ..............",
".. .] ] ' ( ( ( ' ]  ...............{ { | o o o @ @ @ @ @ o o o o o o o o o o o o     A .. .o o o o o ( ) ) ] ................{ ",
"} ] ] ' ( ( ' { ]  .................| | ..o o o @ @ @ @ @ o o o o o o o o o o o o     K ..] o o o o o ] ' ]  .................} ",
"[ ] ' ( ` [  .{ ................A     o o @ @ @ n n n n n n n @ @ @ @ @               X = = 5 5       ]  ... ...................",
"] ' ( ( ]  .....................A     o o @ @ @ n n n n n n n @ @ @ @ @               X = = 5 5       ..........................",
"' ( ( ] ]  .................    * 5 5 o o @ @ @ @ @ @ @ @ @ @ @ @ > 5 5 l l l 5 5 5 5 p g g 5 5       ......................| } ",
"( ( ] [  .........} ........    * 5 5 o o @ @ @ @ @ @ @ @ @ @ @ @ > 5 5 l l l 5 5 5 5 p g g 5 5       X.....} ............| } ] ",
"( ' [ .. .........] ........    * 5 5 . . b b b b b b b b b b @ @ > 5 5 f f f p p p p p p p * * A A j ..| | { ........| } } ' ' ",
"............................    * 5 5     n n n n n n n n n n @ @ > 5 5 g g g g g g g p 5 5     ....................| ] ] ' ( ( ",
"..........................|     * 5 5     n n n n n n n n n n @ @ > 5 5 g g g g g g g p 5 5     ..................| ] { ' _ ( ' ",
"..........................{ ] _ j         @ @ @ n n n n n @ @ @ @ @ @ @ @ @ @               ........................] ' ( ( _ ] ",
"..........................] _ _ j         @ @ @ n n n n n @ @ @ @ @ @ @ @ @ @               ....................| ..] ( ( ( { { ",
"......................| ] ] ( ` Z               o o o o o o o o o o o o e e e e e     A ....          ........| } [ ] ) ` ] { ..",
"............{ | ......] ] ` ( _ A               o o o o o o o o o o o o e e e e e     A ....          } ....| } [ ' _ ) ' { { ..",
"............{  .| | { ] ] ( ( _ A               o o o o o o o o o o o o e e e e e     K ....          { | ..] [ [ ` _ _ ' ..] ..",
"............| ..| { ] ] ] (     2 g g g g       e e m M M i i i i i i i M M M e e e e & = = = =       ....{ { ] [ ` _ ' } ......",
"............| .. .[ [ ' ( (     2 g g g g       e e m M M i i i i i i i M M M e e e e & = = = =       ....[ [ ] ` _ _ ' ........",
"............|  . .] ' ( ( `     2 g g 2 2 % % % m m 0 q q < < < < < < < q q q % % & & $ = = X X G j A ..| [ ] ` _ _ ` } ........",
".............. .] ] ` ( ( {     2 g g     e e e M M q                             = = = = =     ......| ] [ ' ) ( _ ............",
"............ .] ] ] ` ` ]  .    2 g g     e e e M M q                             = = = = =     .... .[ ] ] ' ) ' ] ............",
"........ .{ ] ] ] ' ( ' } ..    * 5 5 o o           O @ @ @ @ @ @ @ @ @ @ @ @ @ @           ....| | ] ] ] ' _ _ ] { ............",
"...... .} ] ] ] ` ( ` ] ....    * 5 5 o o           O @ @ @ @ @ @ @ @ @ @ @ @ @ @           ....} ] ] ] ] ( ( _ { ..............",
"......} ] ] ] _ ( ( ' ] ....              @ @ @ @ @ @ @ @ @ @ @ @ D  ......................... .] ] ] ' _ ( _ ] { ..............",
".... .] _ ( _ ( ( ] [  .....              @ @ @ @ @ @ @ @ @ @ @ @ D ..............] ........} ] ] ] _ ( ( ' { { ..............{ ",
"} } ] ] ( ( _ ' ' ]  .......              @ @ @ @ @ @ @ @ @ @ @ @ D ..............} } ....} ] ] ' ( _ ' ] ] { ..................",
"{ { ' ( ( ( ] { | ..............S @ @ @ @ @ @ @ @ @ @ @ @  . ...........................} ] ] ' ( ( _ ] ........................",
"} ] ( ( ] { | | ................D @ @ @ @ @ @ @ @ @ @ @ @ ............................} ] ] _ ( ( } } ..........................",
"} ( ( ' ] ....................../ Q Q Q Q E E T T T E Q Q ........................} ] ] ] ' ( ( '  ............................."
};
