/* XPM */
static char *e6549acc18424e4681ee291b21654ffb7djAlQhIThsdOs0p[] = {
/* columns rows colors chars-per-pixel */
"58 58 14 1 ",
"  c None",
". c #232531",
"X c #18646B",
"o c #595D7D",
"O c #B12A3F",
"+ c #95463D",
"@ c #BA7B5D",
"# c #E14F4F",
"$ c #269669",
"% c #DB8B77",
"& c #ED8364",
"* c #8493A2",
"= c #D6AB81",
"- c #FBC09D",
/* pixels */
"                                                          ",
"               .......                                    ",
"               ..#####.                                   ",
"               ..##OOO.                                   ",
"               ..OOO.......                               ",
"                 .....O###................                ",
"                 .....OO....##############..              ",
"               ..##O.....OOOOO##&#&&&&&#####..            ",
"               ..OOO...OOO###########&#######..           ",
"               ........OOOO#########&&&#&#####..          ",
"               ......OOOO###########&&&#&#####..          ",
"           ...     ..OOOO##################O#OO..         ",
"           .@@..   ..OOOO#####################O..         ",
"           .@@..   ..OOOOOOOOO#O###########OOOO..         ",
"            ..++.. ..OOOOO#O#################OO..         ",
"            ..++.. ..OOOOOOOOOOOOOOOOOOOOOOOOOO..         ",
"            ...... ..OOOOOOOOOOOOOOOOOOOOOOOOOO..         ",
"          ..**o*oo.....O.........................         ",
"          ..**o*oo...OOOO........................         ",
"          .................%%%%%%%%%%%%%%%%%%%...         ",
"        .............O...%%%-------------------..         ",
"      ......ooooo......%%%%%%--.....--%-%-....-..         ",
"      ...oooooooooo....%--------..---------..--..         ",
"    ......oooo.o.....%%%-------%%%---.....-%%%-..         ",
"    ...oooooooooo....%.%-----------------------..         ",
"  ...................%.%%%-%----------%%%------..         ",
"  ..++++++++++++++++.%%%%----------------------..         ",
"  ..++++++++++++++++....%%%%%%---------------%%..         ",
"  ..++@@@@@@@@@+@++++..%%%%%------------------%..         ",
"  ..+++@@@@@@++++++.......%%%%%%%%%%%%%%%%%%%%..          ",
"  ..@@@@@@@@@@@@+++..........%%%%%%%%%%%%%%%...           ",
"  ..+@@@@@@@@@@++..XXXX.........................          ",
"  ..@@===@=@@@@@@..$$$X..++................++...          ",
"  ..@@===@=@@@@@@..$$XX......XXXX......XX......X..        ",
"  ..@@@=@@@@@@@@@..$$$$..++..$$$$......$X..++..$..        ",
"  ..@@====@=@@@@@..$$$$..@@..$$$$$$..$$$X..@@..X..        ",
"  ..@@@@@@@@@@@@@..$$$........$$$.$..$.$X..@@..X..        ",
"  ..@=@===@@@@@@@..$$$$$$$..%-..$.$..$.$X..@@..X..        ",
"  ..@@@@@@@@@@@@@..$$$$$$$..%-..$$$..$$XX..@@.....        ",
"  ..@@@@@@@@@@@@@..$$$$$$$..%-..$$$$$$$$X..++.....        ",
"  ..@@@@@@@@@@@@@..XXXXXXX..%%..$$$$X$XXX..@@..%..        ",
"  ..+@@@@@@+@++++++.............$$$$$$$XX..++..-..        ",
"  ..@@@@@@@@@@@@+++............XXXXXXXXXX..++...          ",
"  ..+++@@@@@++++++++...................X........          ",
"    ..@@@@@@@@++++++.....++..XX....X.XXXX..++..           ",
"    ..++++++++++++++............................          ",
"      ...........................................         ",
"      ...........................................         ",
"                  ...............................         ",
"                 ..........              ........         ",
"                 .........                 ......         ",
"                 .......                    ....          ",
"                                            ...           ",
"                                                          ",
"                                                          ",
"                                                          ",
"                                                          ",
"                                                          "
};
