/* XPM */
static char *result[] = {
/* columns rows colors chars-per-pixel */
"64 64 94 2 ",
"   c #442211",
".  c #5D2211",
"X  c #662A0C",
"o  c #6E3308",
"O  c #772211",
"+  c #661922",
"@  c #44332A",
"#  c #444444",
"$  c #883308",
"%  c #881133",
"&  c #8C3726",
"*  c #994400",
"=  c #9D4419",
"-  c #A14C08",
";  c #B25D00",
":  c #B6771D",
">  c #99552A",
",  c #B2552A",
"<  c #A14C3B",
"1  c #BB4C3B",
"2  c #A16E22",
"3  c #CC7700",
"4  c #CC7F19",
"5  c #C36622",
"6  c #DD7F22",
"7  c #88224C",
"8  c #992266",
"9  c #B22266",
"0  c #CC0055",
"q  c #E53B5D",
"w  c #864F57",
"e  c #8D6954",
"r  c #907351",
"t  c #BF6A59",
"y  c #895569",
"u  c #DD444C",
"i  c #EE4477",
"p  c #E5507B",
"a  c #FF7766",
"s  c #E59919",
"d  c #CC8C2A",
"f  c #CC993B",
"g  c #F6A13B",
"h  c #FFBB33",
"j  c #A18844",
"k  c #89847F",
"l  c #A19066",
"z  c #A3847F",
"x  c #EE8844",
"c  c #FFD455",
"v  c #F6C37F",
"b  c #FFEE77",
"n  c #224490",
"m  c #0044DD",
"M  c #DD1188",
"N  c #EE22BB",
"B  c #F64C90",
"V  c #E56699",
"C  c #FA7799",
"Z  c #E57FAA",
"A  c #F677CC",
"S  c #8D8681",
"D  c #9E8580",
"F  c #968A84",
"G  c #A78681",
"H  c #A48B85",
"J  c #A98883",
"K  c #B18B85",
"L  c #B28094",
"P  c #AEB7B7",
"I  c #B9B6B7",
"U  c #C1BFBF",
"Y  c #CBBFBE",
"T  c #FFA1A1",
"R  c #CDC0BF",
"E  c #FFFFBB",
"W  c #C6C2C0",
"Q  c #C5CACD",
"!  c #D3C2C0",
"~  c #FFCCDD",
"^  c #CEE6ED",
"/  c #CEE8ED",
"(  c #D0E6EE",
")  c #D2E8EF",
"_  c #D5EAF1",
"`  c #DBEEF4",
"'  c #DFF0F5",
"]  c #E1EFF4",
"[  c #E4F1F6",
"{  c #E8F2F7",
"}  c #E6F3F8",
"|  c #EAF3F8",
" . c #F6FAFC",
".. c white",
/* pixels */
"_ / ` ` ` [ } | | | | | | | | | | | | { ) ` ) ^ ) _ ` ' } } | | | | | | | | | | | ] ] ` _ ( ^ ) ` ` { | | | | | | | | | | | |  .",
"_ ( ^ ) ` ` } | | | | | | | | | | | | | | { ` ) ^ ^ Y Y ! ! ! ! ! ! ! ! W W | | | | | | ` ` ^ ^ _ ` ` | | | | | | | | | | | | | ",
"] ` ^ ^ _ ` [ | | | | | | | | | | | | | | | ] ` / ^ O O O O O O O O O O     | | | | | | | ` ` ^ ^ _ ` | | | | | | | | | | | | | ",
"| ] ` ) _ ` ` ] | | | | | | | | | | | | | | | | ` _ O O O O O O O O O O     | | | | | | | { ` _ ^ ) ` [ { | | | | | | | | | | | ",
"| ] ] ` ( ` ` ` { | | | { | | | | | | | | | | F         b b b               O O .           ` ` / ^ _ ` ' { | | { | | | | | | | ",
"] ] ] ` ^ ^ ` ` ` ] | { ` | | | | | | | | | { F         b b b               O O .           ] { ( ^ ^ ` ` ' } | [ ] | | | | | | ",
"| | | ` ` ^ ` ` ` ` { | { | | | | | | | | F F w % %     c c c     j j j     1 1 & . . j j j F F J G I ` ` ` ' } | { | | | | | | ",
"| | | | ` ^ _ ` ` ` ] | | | | | | | | | |     % 0 0     h h h     b b b     a a 1 O O b b b     O O G ^ ` ` ' } | | | | | | | | ",
"| | | | [ ` / _ ` ` ' } | | | | | | | | |     % 0 0     h h h     b b b     a a 1 O O b b b     O O D ^ _ ` ` | | | | | | | | | ",
"| | | | } [ _ ^ _ ` ` ` } | | | | | | | |     < a a     x x x     b b b     N N 9 O O b b b     b b j     _ ` ` ` | | | | | | | ",
"| | | | } } ` _ / ` ` ` ' } | | | | | | |     < a a     x x x     b b b     N N 9 O O b b b     b b j     ( ` ` ` ' { { | | | | ",
"| | | | | | ] ` ^ ` ` ` ` F               a a q 0 0     3 3 3 h h b b b     N N 9 O O h h h     h h 2     ( _ ` ` ` [ { | | | | ",
"| | | | | | } ] / / ` ` ` S               a a q 0 0     3 3 3 h h b b b     N N 9 O O h h h     h h 2     / / ( ` ` ` [ | | | | ",
"| | | | | | | ] _ / / ` ` L               a a q 0 0     3 3 3 h h b b b     N N 9 O O h h h     h h 2     _ ^ ^ _ ` ` ` [ | | | ",
"| | | | | | | }       0 0 q a a 0 0       0 0 q a a N N       3 3 h h h b b     o * * h h h * * x x >     ` _ / / _ _ ` ` ' | | ",
"} | | | | | | |       0 0 q a a 0 0       0 0 q a a N N       3 3 h h h b b     o * * h h h * * x x >     } ` ( _ / ^ / ` ' [ [ ",
"| | | | | | | |       0 0 p T T V V < < < q q i B B 8 8 > > > s s 2 2 2 c c 2 2 : 4 4 g g g ; ; > > e F F | | | ] ` ( ( ( ` ` ` ",
"| | | | | | | |       0 0 V ~ ~ ~ ~ a a a a a B N N     x x x h h       h h h h h h h x x x 3 3     F } | | | | | } ` ( ^ ( ` ` ",
"| | | | | | | |       0 0 V ~ ~ ~ ~ a a a a a B N N     x x x h h       h h h h h h h x x x 3 3     F | | | | | | | | ` ^ ^ _ ` ",
"] | | | | | | | | | |           0 0 a a a ~ ~ ~ ~ ~ a a                 * * x x 5 * *           | | | | | | | | | | | ] ` ( ^ _ ",
"` ] } } | | | | | ] {           0 0 a a a ~ ~ ~ ~ ~ a a                 * * x x 5 * *           | | | | | } ] | | | | | } _ ( ^ ",
"` ` ] ] [ | | | | ] { { | | | |               8 N N ~ ~ ~ ~ ~ ~ ~ 0 0 0         % 0 0 0 0 0     ] | | | | | ] | | | | | | } ` _ ",
"^ ^ ` ` ` [ | | | | | | | | | |               8 N N ~ ~ ~ ~ ~ ~ ~ 0 0 0         % 0 0 0 0 0     ` ` } | | | | | | | | | | | { | ",
"_ ^ ( ` ` ` [ | | | | | | | | |               8 N N ~ ~ ~ ~ ~ ~ ~ 0 0 0         % 0 0 0 0 0     ` ` ` } | | | | | | | | | | | | ",
"] _ ^ ^ ` ` ' | | | | | | | | | | |       x x u 0 0 0 0 0 0 0 N N ~ ~ ~ ~ ~ a a a a a 0 0 0 0 0     F | | | | | | | | | | | | | ",
"} ` ( ^ ^ ` ` | | | | | | | | | | |       x x u 0 0 0 0 0 0 0 N N ~ ~ ~ ~ ~ a a a a a 0 0 0 0 0     S ` | | | | | | | | | | | | ",
"| | ` _ _ ` ` ` } | | | | | | | | |       v v t % % Z Z u u u 8 8 V V V V V B B C T T q q q q q 8 8 y F F F F F | | | | | | | | ",
"} ` } ] ^ ^ ` ` ` | | } ] | | | | |       E E l     ....x x x     0 0 0 0 0 N N A ~ ~ a a a a a N N 8           [ ` | | | | | | ",
"| ] | ] _ ^ _ ` ` ] } | [ } | | | |       E E l     ....x x x     0 0 0 0 0 N N A ~ ~ a a a a a N N 8           { { | | | | | | ",
"| | | ] ` ^ _ ` ` ` } } | | | | m m E E E h h 4 * * ....h h h h h x x x * *                 0 0 0 0 0 0 0       | | | | | | | | ",
"| | | | [ _ ^ / ` ` ' } | | | | m m E E E h h 4 * * ....h h h h h x x x * *                 0 0 0 0 0 0 0       | | | | | | | | ",
"| | | | } ] / ^ _ ` ` [ | | | |     h h h h h h h h h h h h h h h x x x 3 3 * * $ O O                     _ ` ` ] | | | | | | | ",
"| | | | | | ` ^ / ` ` ` ] | | |     h h h h h h h h h h h h h h h x x x 3 3 * * $ O O                     ( ` ` ` [ | | | | | | ",
"| | | | | | ` ` / _ ` ` ` ] | | F F 2 2 2 h h h h h h h h h h g g 6 6 6 - - o o X . . F F F F F F F F F S ^ ` ` ` ` } } | | | | ",
"| | | | | | } ` / ^ _ ` ` ` ` | | |       h h h h h h h h h h x x 3 3 3 O O           | | | | | | | | | ` ^ ^ ` ` ` ` [ | | | | ",
"| | | | | | | ` _ ^ / _ ` ` ` ] } |       h h h h h h h h h h x x 3 3 3 O O           | | | | | | | | | ` ( ^ ( _ ` ` ` } | | | ",
"| | | | | | | } ` _ / ^ _ S         | | |     . O O O O O O O O O O O O # # m m m m m # # # | | | | | | ] ] _ ^ ^ _ ` ` ` [ | | ",
"] { | | | | | | | ` / ^ ^ k         | | |     . O O O O O O O O O O O O # # m m m m m # # # | | | | | | | } ` _ ^ ^ / _ ` ` } | ",
"{ | | | | | | | | ] ` ` ` S         } | |     . O O O O O O O O O O O O # # m m m m m # # # | | | | | | | | } ` ` _ / / ` ` ` ] ",
"{ | | | | | | | | | | } ` F     * *                     * * * 3 3 3 3 3 m m * * o           # # | | | | | | | | [ [ ` / / _ ` ` ",
"| | | | | | | | | | | | | F     * *                     * * * 3 3 3 3 3 m m * * o           # # | | | | | | | | } | } ` ^ ^ _ ` ",
"] | | | | | | | | | | | | F     * * x x x * * $ O O x x h h h b b h h h m m h h c b b h h h         F | | | | | | | | ` ` ^ ^ _ ",
"` ] { | | | | | | } | | | F     * * x x x * * $ O O x x h h h b b h h h m m h h c b b h h h         F | | | ] | | | | [ ' ' ( ^ ",
"` ` ` ] | | | | | ` } | | U F F o o , , , $ $ = , , g g c c c b b h h h n n 4 4 d f f g g g 2 2     F | | | ` | | | | | | ' ( ^ ",
"^ ^ ` ` ] | | | | | | | | | | |     O O O O O , x x h h b b b b b h h h # # * * * * * x x x h h     F | | | | | | | | | | | | | ",
"( ^ ^ ) ` ` } | | | | | | | | |     O O O O O , x x h h b b b b b h h h # # * * * * * x x x h h     F | | | | | | | | | | | | | ",
"` ( ^ ^ ` ` } | | | | | | | | | | | | | |     2 h h b b b b b b b b b b 3 3 # # @     * * * x x     F | | | | | | | | | | | | | ",
"] ` ^ ^ ^ ` } | | | | | | | | | | | | | |     2 h h b b b b b b b b b b 3 3 # # @     * * * x x     F | | | | | | | | | | | | | ",
"| ] ] ) ^ ` ] ] | | | | | | | | | | | | |     % 0 0 0 0 0 0 0 0 0 0 0 0 0 0 0 0 7 # #           ( / ` ` | | | | | | | | | | | | ",
"| ] ` ` ( ( _ ] ] | | | ] | | | | | | | |     % 0 0 0 0 0 0 0 0 0 0 0 0 0 0 0 0 7 # #           ( / ( ` ` | | | } } | | | | | | ",
"{ ` { ` ( ( ( ` ` ] | { ` { | | | | | | |     % 0 0 0 0 0 0 0 0 0 0 0 0 0 0 0 0 7 # #           ( ( ^ ` ` ` } | ] ] | | | | | | ",
"| | { ] _ ( ` ` ` ] [ | | K O O O O * * * | | F     N N a a a a a a a a N N 0 0 %               ` _ ^ ` ` ` ] } | | | | | | | | ",
"| | | | ` ( ^ ( ` ` ` | | K O O O O * * * | | F     N N a a a a a a a a N N 0 0 %               } ` / ^ ` ` ` } | | | | | | | | ",
"| | | | ] ( ^ ( ) ` [ | | H . . , , 4 4 4 F F r 2 2 M M < < < < < < < < 8 8 % % +     . . . . . F S P / ^ ` ` } | | | | | | | | ",
"| | | | | | ( ( ^ _ ` ` | F     x x h h h     2 h h 0 0                               O O O O O     F / ^ ( ` ` { | | | | | | | ",
"| | | | | | ] _ ^ ` ` ` ` F     x x h h h     2 h h 0 0                               O O O O O     F ` ( ^ ` ` ` ] | | | | | | ",
"| | | | | | { _ ^ ^ ` ` ` ` } |     x x x h h 2         # # # # # # # # # # # # # # # # # #         F ] ` ^ ( ` ` ` ] | | | | | ",
"| | | | | | | ] ( ^ ^ ` ` ` ` ]     x x x h h 2         # # # # # # # # # # # # # # # # # #         F | ` ( ( ( ` ` ` ] } | | | ",
"| | | | | | | ] ` ( ( ^ _ ` ` ` } |           @ # # # # # # # # # # # # # # } | | | | | | { | | | | | | ` ` ^ ^ ( ` ` ` ] | | | ",
"[ | | | | | | | ] ` _ ^ ^ ( ` ` ` [           @ # # # # # # # # # # # # # # ` ] | | | { ] [ | | | | | { { ` ` ( ^ ( ^ _ ` } | | ",
"{ | | | | | | | | ] ` ` ` ( ^ _ ` `           @ # # # # # # # # # # # # # # ` ` ] | | | [ | | | | | | | | | ] _ ( _ ^ ^ ` ` } } ",
"| | | | | | | | | | | | ` ( ^ ^ _ ` ` [ | # # # # # # # # # # # # | ] _ / / ( ` ` [ | | | | | | | | | | | | } } ] ` ^ ^ ^ _ ` ] ",
"| | | | | | | | | | | | } } ] ^ ^ _ ` ` } # # # # # # # # # # # # | | ] ` ^ / ( ` ` ] { | | | | | | | | | | | | } } ] ` ^ ^ ` ] ",
"{ | | | | | | | | | | | } } [ _ ^ ^ _ ` ` Q Q Q Q Q Q Q Q Q Q Q Q | | | } ` / / ( ` ` ] [ | | | | | | | | | | | | | } ` _ ^ ^ ] "
};
