/* XPM */
static char *rcp08332658424722[] = {
/* columns rows colors chars-per-pixel */
"32 32 64 1 ",
"  c #7D5034",
". c #805336",
"X c #855639",
"o c #875739",
"O c #885939",
"+ c #88593A",
"@ c #8A593A",
"# c #8B5A3A",
"$ c #8A5B3A",
"% c #8C5B3B",
"& c #8D5B3B",
"* c #8D5C3C",
"= c #8E5C3C",
"- c #8F5D3D",
"; c #905E3E",
": c #976441",
"> c #986541",
", c #986542",
"< c #9A6542",
"1 c #9B6643",
"2 c #9D6846",
"3 c #A16A47",
"4 c #A16B47",
"5 c #A26B47",
"6 c #A36D48",
"7 c #A66E4A",
"8 c #A76E4A",
"9 c #A9704A",
"0 c #AA714B",
"q c #AB724B",
"w c #AB734C",
"e c #AC734C",
"r c #AD744D",
"t c #AD754D",
"y c #AE764E",
"u c #AF774F",
"i c #B0784F",
"p c #B07950",
"a c #B17950",
"s c #B27A51",
"d c #B47C52",
"f c #B47C53",
"g c #B47D53",
"h c #BD7D52",
"j c #BE7D52",
"k c #BE7E52",
"l c #BE7E53",
"z c #BF7E53",
"x c #BF7F53",
"c c #C07F54",
"v c #B88055",
"b c #B88156",
"n c #B98256",
"m c #BC8559",
"M c #BE885A",
"N c #C08054",
"B c #C58E5F",
"V c #B1A5A4",
"C c #B3A8A6",
"Z c #B4A9A7",
"A c #B4ABA9",
"S c #B7AEAC",
"D c #B8AFAD",
"F c white",
/* pixels */
"FFFFFFFFFFFFFFFFFFFFFFFFFFoo99z@",
"FFFFFFFFFFFFFFFFFFFFFFFFFFooooo@",
"FFFFFFFFFFFFFFFFFFFFFFFFFFoo99z@",
"FFFFFFFFFFFFFFFFFFFFFFFFFFoo99V@",
"FFFFFFFFFFFFFFFFFFFFFFFFFFoo99z@",
"FFFFFFFFFFFFFFFFFFFFFFFFFFooooo@",
"FFFFFFFFFFFFFFFFFFFFFFFFFFoo99z@",
"FFFFFFFFFFFFFFFFFFFFFFFFFFoo99V@",
"FFFFFFFFFFFFFFFFFFFFFFFFFFoo99z@",
"FFFFFFFFFFFFFFFFFFFFFFFFFFooooo@",
"FFFFFFFFFFFFFFFFFFFFFFFFFFoo99z@",
"FFFFFFFFFFFFFFFFFFFFFFFFFFoo99V@",
"FFFFFFFFFFFFFFFFFFFFFFFFFFoo99z@",
"FFFFFFFFFFFFFFFFFFFFFFFFFFooooo@",
"FFFFFFFFFFFFFFFFFFFFFFFFFFoo99z@",
"FFFFFFFFFFFFFFFFFFFFFFFFFFoo99V@",
"FFFFFFFFFFFFFFFFFFFFFFFFFFoo99z@",
"FFFFFFFFFFFFFFFFFFFFFFFFFFooooo@",
"FFFFFFFFFFFFFFFFFFFFFFFFFFoo99z@",
"FFFFFFFFFFFFFFFFFFFFFFFFFFoo99V@",
"FFFFFFFFFFFFFFFFFFFFFFFFFFoo99z@",
"FFFFFFFFFFFFFFFFFFFFFFFFFFooooo@",
"FFFFFFFFFFFFFFFFFFFFFFFFFFoo99z@",
"FFFFFFFFFFFFFFFFFFFFFFFFFFoo99V@",
"FFFFFFFFFFFFFFFFFFFFFFFFFFoo99z@",
"FFFFFFFFFFFFFFFFFFFFFFFFFFooooo@",
"FFFFFFFFFFFFFFFFFFFFFFFFFooo999@",
"ooooooooooooooooooooooooooo.99m@",
"@%===%%@@o@@oo@@oooooo@@o@ 999M@",
"uu39ea>9uu:99999uu99uu:waf9aBmm@",
"Zz>zCz>zDz:zAz6zSc3zDz;zSN3o9V9@",
"uf7uuu2uii7uifvvvvauiu2uaa7>999@"
};
