/* XPM */
static char *_54c3a3d18fe480bcf94c3ea43c78c43IljIeuEZ3toXLJoP[] = {
/* columns rows colors chars-per-pixel */
"32 32 64 1 ",
"  c None",
". c #7D5034",
"X c #805336",
"o c #855639",
"O c #875739",
"+ c #885939",
"@ c #88593A",
"# c #8A593A",
"$ c #8B5A3A",
"% c #8A5B3A",
"& c #8C5B3B",
"* c #8D5B3B",
"= c #8D5C3C",
"- c #8E5C3C",
"; c #8F5D3D",
": c #905E3E",
"> c #976441",
", c #986541",
"< c #986542",
"1 c #9A6542",
"2 c #9B6643",
"3 c #9D6846",
"4 c #A16A47",
"5 c #A16B47",
"6 c #A26B47",
"7 c #A36D48",
"8 c #A66E4A",
"9 c #A76E4A",
"0 c #A9704A",
"q c #AA714B",
"w c #AB724B",
"e c #AB734C",
"r c #AC734C",
"t c #AD744D",
"y c #AD754D",
"u c #AE764E",
"i c #AF774F",
"p c #B0784F",
"a c #B07950",
"s c #B17950",
"d c #B27A51",
"f c #B47C52",
"g c #B47C53",
"h c #B47D53",
"j c #BD7D52",
"k c #BE7D52",
"l c #BE7E52",
"z c #BE7E53",
"x c #BF7E53",
"c c #BF7F53",
"v c #C07F54",
"b c #B88055",
"n c #B88156",
"m c #B98256",
"M c #BC8559",
"N c #BE885A",
"B c #C08054",
"V c #C58E5F",
"C c #B1A5A4",
"Z c #B3A8A6",
"A c #B4A9A7",
"S c #B4ABA9",
"D c #B7AEAC",
"F c #B8AFAD",
/* pixels */
"                          OO00j%",
"                          OOOOO%",
"                          OO00j%",
"                          OO00C%",
"                          OO00j%",
"                          OOOOO%",
"                          OO00j%",
"                          OO00C%",
"                          OO00j%",
"                          OOOOO%",
"                          OO00j%",
"                          OO00C%",
"                          OO00j%",
"                          OOOOO%",
"                          OO00j%",
"                          OO00C%",
"                          OO00j%",
"                          OOOOO%",
"                          OO00j%",
"                          OO00C%",
"                          OO00j%",
"                          OOOOO%",
"                          OO00j%",
"                          OO00C%",
"                          OO00j%",
"                          OOOOO%",
"                         OOO000%",
"OOOOOOOOOOOOOOOOOOOOOOOOOOOX00M%",
"%--==**%+O+%O%%%OOOOOO%%O%.000N%",
"uu69ra2wuu>09990uur0uu>qag0aVMM%",
"Cv2jAj2jFj2jSj9BFB6jFj:jDv6O0C0%",
"ug9uuu3upu9upghmmhaupa3iaa92000%"
};
