/* XPM */
static char *b1fe7d88c8b04b92f123755bf957ea676T8a80YP5FwEQsrr[] = {
/* columns rows colors chars-per-pixel */
"32 32 10 1 ",
"  c None",
". c #7C593E",
"X c #7E5B3E",
"o c #8A6445",
"O c #8B6546",
"+ c #8E6747",
"@ c #936B4A",
"# c #9E7450",
"$ c #B48158",
"% c #ACA4A3",
/* pixels */
"                          ..####",
"                          ..###.",
"                          ..##$X",
"                          ..##%X",
"                          ..##$X",
"                          ..++OX",
"                          ..##$X",
"                          ..##%X",
"                          ..##$X",
"                          ..@@+X",
"                          ..##$X",
"                          ..##%X",
"                          ..##$X",
"                          ..@@OX",
"                          ..##$X",
"                          ..##%X",
"                          ..##$.",
"                          ..OOOX",
"                          ..##$X",
"                          ..##%X",
"                          ..##$X",
"                          ..@+OX",
"                          ..##$X",
"                          ..##%X",
"                          ..##$X",
"                          ..@+OX",
"                          ..##$X",
"                          ..##%X",
"                          ..##$X",
"                          ..@@OX",
"                          ..##$X",
"                          ..##%X"
};
