/* XPM */
static char *rcp08332838190894[] = {
/* columns rows colors chars-per-pixel */
"72 50 34 1 ",
"  c #5B2B2A",
". c #612E2C",
"X c #67322F",
"o c #6D3533",
"O c #733836",
"+ c #783C39",
"@ c #7A3C39",
"# c #7B3D3A",
"$ c #7F3F3D",
"% c #80403E",
"& c #82403E",
"* c #864240",
"= c #864340",
"- c #874341",
"; c #894442",
": c #8C4543",
"> c #8D4643",
", c #8D4644",
"< c #904945",
"1 c #934A47",
"2 c #984D49",
"3 c #DE8A2C",
"4 c #DF8E2F",
"5 c #E09030",
"6 c #E19232",
"7 c #E09434",
"8 c #E29736",
"9 c #E29837",
"0 c #E39B39",
"q c #E5A03E",
"w c #E6A542",
"e c #E7AA45",
"r c #E9AF48",
"t c white",
/* pixels */
"tt;1,,--,;1,&+&&&&---:::----------------------------------$$$$$$$--$-2tt",
"t1-+++$$$$$$$$$$$$$$$$$$$$$$$$$$$$$$$$$$$$$$$$$$$$$$$$$$$$$$$$$++++++&,t",
"1&$$$$$$$$$$$$$$$$$$$$$$$$$$$$$$$$$$$++++++++++++++++++++++++++++++$$++,",
";+$$ewwqqqqqqqqqqqqqqqqqq000000000000000000000000000000000000000000q$$+:",
"++$ww$+++++++++++++++++++++++++++++++++$$$$$$$$$$$$$$$$$$$$$$$$$$$$qq$+:",
"$+$w$$+++++++++++++++++++++$$$$$$$$$$$$$$$$$$$$$$$$$$$$$$$$$$$$$$$$$q$$-",
"$+$w$$$$$$$$$$$$$$$$$$$$$$$$$$$$$$$$$$$$$$$$$$$$$$$$$$$$$$$$$$$$$$$$q$$-",
"++$w$$$$$$$$$$$$$$$$$$$$$$$$$$$$$$$$$-------------$$$$$$$$$$$$$$$$$$q$$-",
"O+$w$$$$$qqqqqqqqqqqqqqqqwweeeeeerrrreeeeewwwwwqqwwqqqqqqqqqqqq$$$$$q$$-",
"O+$w$$$$qq$++$$$$$$$$$$+++++++++++++++++++$$$$$$$$$$$+++++OO++qq$$$$q$$-",
"O+$q$$$$q++ww++$$$$$$$$+++++++++++++++++++++++++++++++++++O80O+q$$$$q$$-",
"O+$q$$$$q+0ww++$$$$$$$$$$$$$$$$$$$$$$$$$$$$$$$$$$$$$$$$$$++qq0+q$$$$q$$-",
"O+$q$$$$q+0q++$$$$$$$$$$$$$$$$$$$$$$$$$$$$$$$$$$$$$$$$$$$+O+qq$q$$$$q$$$",
"oO+q$$$$qOO+++$$$$$$$$$$$$$$$$$$$$$$$$$$$$$$$$$$$$$$$$$$$$+++++q$$$$q$$$",
"OO+q$$$$q+++$$$$$$$$$$$$$$$$$$$$$$+++$$$$$$$$$$$$$$$$$$$$$$$+++q$$$$q$$$",
"OO+q$$$$q$$$$$$$$$$$$$$$$$$$$$$$++++++$$$$$$$$$$$$$$$$$$$$$$++$q$$$$q+++",
"+++q$$$$q$$$$$$$$$$$$$$$$$$$$$$++++qq++$$$$$$$$$$$$$$$$$$$$$$$$q$$$$q+++",
"+++q$$$$q$$$$$$$$$$$$$$$$$$$$+++++qwqq++$$$$$$$$$$$$$$$$$$$$$$$q$$$$q+++",
"+++q$$$$q$$$$$$$$$$$$$$$$$$$+++++qqwwqq+++$$$$$$$$$$$$$$$$$$$$$q$$$$q+++",
"+++q$$$$q$$$$$$$$$$$$$$$$$$$+++$qqqqwqqq+++$$$$$$$$$$$$$$$$$$$$q$$$$q+++",
"+++q$$$$q$$$$$$$$$$$$$$$$$$+++$qqqqqqqqw0+++$$$$$$$$$$$$$$$$$$$q$$$$q+++",
"+++q$$$$q$$$$$$$$$$$$$$$$$+++$qqqqqqqqqww0+++$$$$$$$$$$$$$$$$$$q$$$$q++O",
"+++q$$$$q$$$$$$$$$$$$$$$$++++qqqqqqqqqqqqw0+++$$$$$$$$$$$$$$$$$q$$$$q$+O",
"+++q$$$$q$$$$$$$$$$$$$$$++++qqqqqqqqqqqqqww0++$$$$$$$$$$$$$$$$$q$$$$q$+O",
"$++q$$$$q$$$q$$$$q$$$$q$+++qqqqqqqqqqqqqqqww0++$$w$$$$w$$$$e$$$q$$$$q$OO",
"$++q$$$$q$$qqq$$qqq$$qqq++qqqqqqqqqqqqqqqqqw00+$qew$$qeq$$qwq$$q$$$$q$OO",
"$++q$$$$q$$$q$$$$q$$$$q$$++qqqqqqqqqqqqqqqqq0++$$q$$$$q$$$$q$$$q$$$$q$Oo",
"+++q$$$$q$++$$$$$$$$$$$$$++$qqqqqqqqqqqqqqq0+++$$$$$$$$$$$$$$$$q$$$$q$Oo",
"+++0$$$$q$++$$$$$$$$$$$$$+++$qqqqqqqqqqqq00+++$$$$$$$$$$$$$$$$$q$$$$q$Oo",
"++O8+$$$q+++$$$$$$$$$$$$$++++$qqqqqqqqqq00+++$$$$$$$$$$$$$$$$$$q$$$$0+oo",
"++O8++$$q+++$$$$$$$$$$$$$$++++$qqqqqqqq00++$$$$$$$$$$$$$$$$$$$$q$$$+0+oo",
"O+O8+++$q++$$$$$$$$$$$$$$$$+++++qqqqqq00++$$$$$$$$$$$$$$$$$$$$$q$$++0+Oo",
"OOO8++++q++$$$$$$$$$$$$$$$$$+++++qqqqq0++$$$$$$$$$$$$$$$$$$$$$$q$$++0+Oo",
"oOO8++++q++$$$$$$$$$$$$$$$$$$$++++qqq0++$$$$$$$$$$$$$$$$$$$$$$$q$$++0+Oo",
"Ooo8++++q++$$$$$$$$$$$$$$$$$$$$++++q0+++$$$$$$$$$$$$$$$$$$$$$$$q$$++0+Oo",
"ooo8O+++q++$$$$$$$$$$$$$$$$$$$$$+++++++$$$$$$$$$$$$$$$$$$$$$$$$q$$++0+Oo",
"OOO8OO++8O+$$$$$$$$$$$$$$$$$$$$$$+++++$$$$$$$$$$$$$$$$$$$$$$$$$q$$++0+Oo",
"OOO8OO++8Oqq$$$$$$$$$$$$$$$$$$$$$$$$$$$$$$$$$$$$$$$$$$$$$$$$er$q$$++0+++",
"OOO8OO++0+qqq$$$$$$$$$$$$$$$$$$$$$$$$$$$$$$$$$$$$$$$$$$$$$$qqw$q$$++0+++",
"OOO8OO++q$$qq$$$$$$$$$$$$$$$$$$$$$$$$$$$$$$$$$$$$$$$$$$$$$$qq$$q$$++0+OO",
"OOO8OO++qq$$$$$$$$$$$$$$$$$$$$$$$$$$$$$$$$$$$$$$$$$$$$$$$$$$$$qq$$OO8OOO",
"OOo6oooO+0000000000000000000000qwwwwwwwwwwwwwwqqqqqqq0088888888+++OO8OOO",
"Ooo6oooOOOOOOOOOOOOOOOOOOOOOOOOOOOOOOOoooooooOOOOOOOOOOOOOOOOOoOOOoO8OOO",
"ooo6oooOOOOOOOOOOOOOOOOOOOOOOOOOOOOOOooooooXXXXXoooooooooOOOOOOOOOoo8OOo",
"XXX4XXXoOOOOOOOO++++++++++++++++++++OOOOOOoooooooOOOOOOOOooooooooooX4ooX",
".XX44XXoOOOOOOOOOOOOOOOOOOOOOOOOOOOOoooooXXXXXXXXXooooooooooooooooo64ooo",
"XXXX4446888888888888888866666666666988888666666633444444444444333444XOOo",
".o..  .ooooooooooooooooooooooooXXXXXX....                  ......XXoOoXX",
"tXX.  XXXXXXXooooooooooooOOOooooooooooXXXX.......XXXXXXXXXXXXXXXXXXo.. t",
"ttooXooooooooooooooooooooooXXXXXXXXXXXXXXXX         .....       ....  tt"
};
