/* XPM */
static char *_b857270c4f646e9f3cf1cc3275524d1iX9w4qySMJQj4711[] = {
/* columns rows colors chars-per-pixel */
"72 50 34 1 ",
"  c None",
". c #5B2B2A",
"X c #612E2C",
"o c #67322F",
"O c #6D3533",
"+ c #733836",
"@ c #783C39",
"# c #7A3C39",
"$ c #7B3D3A",
"% c #7F3F3D",
"& c #80403E",
"* c #82403E",
"= c #864240",
"- c #864340",
"; c #874341",
": c #894442",
"> c #8C4543",
", c #8D4643",
"< c #8D4644",
"1 c #904945",
"2 c #934A47",
"3 c #984D49",
"4 c #DE8A2C",
"5 c #DF8E2F",
"6 c #E09030",
"7 c #E19232",
"8 c #E09434",
"9 c #E29736",
"0 c #E29837",
"q c #E39B39",
"w c #E5A03E",
"e c #E6A542",
"r c #E7AA45",
"t c #E9AF48",
/* pixels */
"  :2,<;;<:2<*$*&&&;*;,:,**;;*;;*;;*;;*;;*;;*;;*;**;;*;;*;;%%%%%%&*:&*3  ",
" 2;@@@%%%%%%%%%%%%%%&&%%**%%%%%%%%%%%%%%%%%%%%%%**%%%%%%%%%%%%%@@@@@@*, ",
"2*%%%%%%%%%%%%%%%%%%%%%%%%%%%%%%%%%%%#$#@@@@$###@@@@@@@@@@@@@@@@@@#%*@@,",
";@%%reewwwwwwwwwwwwwwwwwwqqqqqqqqqqqqqqqqqqqqqqqqqqqqqqqqqqqqqqqqq0w&%@,",
"@@%ee%@@@@@@@@@@@@@@@@@@@@@@@@@@@@@@#@@%%%%%%%%%%%%%%%%%%%%%%%%%%%%ww%#1",
"*@%e%%@@@@@@@@@@@@@@@@@@@@@%%%%%%%%%%%%%%%%%%%%%%%%%%%%%%%%%%%%%%%%%w%%:",
"%@%e%%%%%%%%%%%%%%%%%%%%%%%%%%%%%%%%**%%%%%%%%*%%*%%%%%%%%%%%%%%%%%%w%**",
"@@%e%%%%%%%%%%%%%%%%%%%%%%%%%%%%%%%%%*;*;;*;;*;**;%%%%%%%%%%%%%%%%%%w%**",
"+@%e%%%%%wwwwwwwwwwwwwwwweerrrrrrttttrrrrreeeeewweewwwwwwwwwwww%%%%%w%%;",
"+@%e%%%%ww%@@%%%%%%%%%%@@@@@@@@@@@@@@@@@@@%%%%%%%%%%%@@@@@++@@ww%%%%w%%;",
"+@%w%%%%w@@ee@@%%%%%%%%@@@@@@@@@@@@@@@@@@@@@@@@@@@@@@@@@@@+9q+@w%%%%w%%*",
"+@%w%%%%w@qee@@%%%%%%%%%%%%%%%%%%%%%%%%%%%%%%%%%%%%%%%%%%@@wwq@w%%%%w%%;",
"+@%w%%%%w@qw@@%%%%%%%%%%%%%%%%%%%%%%%%%%%%%%%%%%%%%%%%%%%@+@ww%w%%%%w%%%",
"O+@w%%%%w++@@@%%%%%%%%%%%%%%%%%%%%%%%%%%%%%%%%%%%%%%%%%%%%@@@@@w%%%%w%%%",
"++@w%%%%w@@@%%%%%%%%%%%%%%%%%%%%%%@@@%%%%%%%%%%%%%%%%%%%%%%%@@@w%%%%w%%%",
"++@w%%%%w%%%%%%%%%%%%%%%%%%%%%%%@@@@@@%%%%%%%%%%%%%%%%%%%%%%@@%w%%%%w@@@",
"@@@w%%%%w%%%%%%%%%%%%%%%%%%%%%%@@@@ww@@%%%%%%%%%%%%%%%%%%%%%%%%w%%%%w@@@",
"@@@w%%%%w%%%%%%%%%%%%%%%%%%%%@@@@@weww@@%%%%%%%%%%%%%%%%%%%%%%%w%%%%w@@@",
"@@@w%%%%w%%%%%%%%%%%%%%%%%%%@@@@@wweeww@@@%%%%%%%%%%%%%%%%%%%%%w%%%%w@@@",
"@@@w%%%%w%%%%%%%%%%%%%%%%%%%@@@%wwwwewww@@@%%%%%%%%%%%%%%%%%%%%w%%%%w@@@",
"@@@w%%%%w%%%%%%%%%%%%%%%%%%@@@%wwwwwwwweq@@@%%%%%%%%%%%%%%%%%%%w%%%%w@@@",
"@@@w%%%%w%%%%%%%%%%%%%%%%%@@@%wwwwwwwwweeq@@@%%%%%%%%%%%%%%%%%%w%%%%w@@+",
"@@@w%%%%w%%%%%%%%%%%%%%%%@@@@wwwwwwwwwwwweq@@@%%%%%%%%%%%%%%%%%w%%%%w%@+",
"@@@w%%%%w%%%%%%%%%%%%%%%@@@@wwwwwwwwwwwwweeq@@%%%%%%%%%%%%%%%%%w%%%%w%@+",
"%@@w%%%%w%%%w%%%%w%%%%w%@@@wwwwwwwwwwwwwwweeq@@%%e%%%%e%%%%r%%%w%%%%w%++",
"%@@w%%%%w%%www%%www%%www@@wwwwwwwwwwwwwwwwweqq@%wre%%wrw%%wew%%w%%%%w%++",
"%@@w%%%%w%%%w%%%%w%%%%w%%@@wwwwwwwwwwwwwwwwwq@@%%w%%%%w%%%%w%%%w%%%%w%+O",
"@@@w%%%%w%@@%%%%%%%%%%%%%@@%wwwwwwwwwwwwwwwq@@@%%%%%%%%%%%%%%%%w%%%%w%+O",
"@@@q%%%%w%@@%%%%%%%%%%%%%@@@%wwwwwwwwwwwwqq@@@%%%%%%%%%%%%%%%%%w%%%%w%+O",
"@@+9@%%%w@@@%%%%%%%%%%%%%@@@@%wwwwwwwwwwqq@@@%%%%%%%%%%%%%%%%%%w%%%%q@OO",
"@@+9@@%%w@@@%%%%%%%%%%%%%%@@@@%wwwwwwwwqq@@%%%%%%%%%%%%%%%%%%%%w%%%@q@OO",
"+@+9@@@%w@@%%%%%%%%%%%%%%%%@@@@@wwwwwwqq@@%%%%%%%%%%%%%%%%%%%%%w%%@@q@+O",
"+++9@@@@w@@%%%%%%%%%%%%%%%%%@@@@@wwwwwq@@%%%%%%%%%%%%%%%%%%%%%%w%%@@q@+O",
"O++9@@@@w@@%%%%%%%%%%%%%%%%%%%@@@@wwwq@@%%%%%%%%%%%%%%%%%%%%%%%w%%@@q@+O",
"+OO9@@@@w@@%%%%%%%%%%%%%%%%%%%%@@@@wq@@@%%%%%%%%%%%%%%%%%%%%%%%w%%@@q@+O",
"OOO9+@@@w@@%%%%%%%%%%%%%%%%%%%%%@@@@@@@%%%%%%%%%%%%%%%%%%%%%%%%w%%@@q@+O",
"+++9++@@9+@%%%%%%%%%%%%%%%%%%%%%%@@@@@%%%%%%%%%%%%%%%%%%%%%%%%%w%%@@q@+O",
"+++9++@@9+ww%%%%%%%%%%%%%%%%%%%%%%%%%%%%%%%%%%%%%%%%%%%%%%%%rt%w%%@@q@@@",
"+++9++@@q@www%%%%%%%%%%%%%%%%%%%%%%%%%%%%%%%%%%%%%%%%%%%%%%wwe%w%%@@q@@@",
"+++9++@@w%%ww%%%%%%%%%%%%%%%%%%%%%%%%%%%%%%%%%%%%%%%%%%%%%%ww%%w%%@@q@++",
"+++9++@@ww%%%%%%%%%%%%%%%%%%%%%%%%%%%%%%%%%%%%%%%%%%%%%%%%%%%%ww%%++9+++",
"++O7OOO+@qqqqqqqqqqqqqqqqqqqqqqweeeeeeeeeeeeeewwwwwwwqq99999999@@@++9+++",
"+OO7OOO+++++++++++++++++++++++++++++++OOOOOOO+++++++++++++++++O+++O+9+++",
"OOO7OOO++++++++++++++++++++++++++++++OOOOOOoooooOOOOOOOOO+++++++++OO9++O",
"ooo5oooO++++++++@@@@@@@@@@@@@@@@@@@@++++++OOOOOOO++++++++OOOOOOOOOOo5OOo",
"Xoo55ooO++++++++++++++++++++++++++++OOOOOoooooooooOOOOOOOOOOOOOOOOO75OOO",
"oooo5557999999999999999977777777777088888666666644555555555555444555o++O",
"XOXX..XOOOOOOOOOOOOOOOOOOOOOOOOooooooXXXX..................XXXXXXooO+Ooo",
" ooX..oooooooOOOOOOOOOOOO+++OOOOOOOOOOooooXXXXXXXooooooooooooooooooOXX. ",
"  OOoOOOOOOOOOOOOOOOOOOOOOOoooooooooooooooo.........XXXXX.......XXXX..  "
};
