/* XPM */
static char *result[] = {
/* columns rows colors chars-per-pixel */
"64 64 14 1 ",
"  c #CEE6ED",
". c #CEE8ED",
"X c #D0E7EE",
"o c #D2E8EF",
"O c #D2E7F0",
"+ c #D5EAF1",
"@ c #DBEEF4",
"# c #DFF0F5",
"$ c #E1EFF4",
"% c #E4F1F6",
"& c #E8F2F7",
"* c #E6F3F9",
"= c #EAF3F8",
"- c #F6FAFC",
/* pixels */
"-============&@@oXXo@$%============&##@o .@+%=============%@@@.o",
"=============@@o.X+%%==============#@o. o@*==============%##o.oo",
"=============@ooX+$================%@  .@%===============%@o.X@$",
"===========&%@o.+$&===============%++ o@&===============%@@oX@$=",
"======&&===@@oXo@$$==========&==**#+  @#&==========&&==%@@@X@$$=",
"======@%=&%@@..o%$$=========%$=%*@@o  @&@&========&@&=%#@@  @$@&",
"========&#@@@.o@=============&=%@+@OO@*=&==========&=&+@@@X@$=&&",
"========*@@@XXo================%@#+ X@===============%@@@oX@&==&",
"=======**##O.O@==============&&@@O..o==============&=$@@+ @**===",
"=======#@#O  %&==============*@@O. @===============*@@@oXo%=====",
"======#@@#.O@*============&=*@@@O @*=============&**@@@ +@&=====",
"====&*@@@. +@*============&*@@@@  @%=============&*@@@@.@$======",
"====*@@@O  @*============&%@@@@  O**==========&=**@@@@.X@&======",
"===##@@+. +#=============*@@@@  O#*===========&&&@@@@X o$=======",
"=&*@@OO. O@&======%%====&@@+oX X@#=======&&==&&*@@++Xo@@========",
"&*@+X.ooO#&=======%@===$@@o.X O@*========%%&=&#@@+.O++@========*",
"@@@  o@*==============$@@o  +@&============**@@@O.@@$===========",
"@@  O@$==============&@@O o@**=============&@@#+.+@$============",
"@o  @==============&$@@+  @&&============&*@@@+ X$==============",
"+ o@$=============$@@@O  @@**===========*@@#@+ o@$=============$",
"XX+%=====$$======$@@O   O$=====$%======*@@@oo @@&====$$====&==@@",
"+o=======$====&$%+++ O@+&======*&===*&&@++o +#*=======$====**@@+",
"=============&@@+  OO+@&============*@+o.oo+@&============&@@@XX",
"============&@@@  O@&==============$#@o  ##==============%@@@oXo",
"============&@@  O@$===============$@ .X@@===============%@@..o$",
"============$@O O@*================$@.X@@===============&@@ ..@&",
"===========$@@XX@%===============$$@+ @$===============&@#@ o@&=",
"======@%==%@@XXX*@$=========$@=&&@@o  @$@==========@&=*@#+..$*@&",
"======$==@@@@.o@=*==========&&=&@@@XX+*&*==========$==*@@@. *&*&",
"========&@@#o.+@===============$@@@.o@&&=============$@@@X.@*&&&",
"========%@@+X.+================&@+   ================$@@   *&===",
"=======&@@o.X$================$@+X @@===============*@@  X*&====",
"======#@@@XXo*==============*#@@+ o@===============$@@+ o@======",
"=====%@@@@Xo@===============*#@@XX@@==============$@@#+.@@======",
"====%@@#@ .@==============*%@@@OXo*==============@@@#o .@%======",
"==**@##+  o@=============*%@@+. o@*=============*@@@+ Xo@=======",
"==*@@++  O#%=============%@@++Oo@@=============@@+@o  o@%=======",
"=&+@+ . O@&=======$@*===%@+   O#@========@*===@@@   ..@========$",
"*@@+  o@@&&===========*#@@  Xo@*=========*===@@@  o@@@*========%",
"@@+.o@*&==============*@+  @@@&=============@@@X X+@&=&=========",
"@+  @*===============*@+  +&===============&@@  .@==============",
"+  @@=============**@@+  X@*===&=========#@@@.  +$============&%",
".o#@%====*========$@+.X +*&&==*%%======&#@+OX.X@%&====&=======%@",
" O#======@=======$++  oO#&=====%%===*&&#++ .XX@==&==&&$====&&@@+",
"==============*@@X   @@=============$@@O  XX@$============&@@+XX",
"=============*@@X X@@*&============*@@+  @@@&============$$$oXXo",
"=============@@   @@*==============*@+  +@*==============&@+  X@",
"=============$   @*===============&#@. @@===============&&@  X@$",
"============@@ o@*&==============*%#@ @@================%#@ o@$=",
"======$====@@o  $$$=========%*==%#@+OX@@$==========$==&&@@XX+$$=",
"======$*=%$@@..X=&$=========*$=&#@@. o$$@=========&$&&$#@o..+&@&",
"========&$@@+.@@=============&=@@@#oO@&==============$@+@+.@%===",
"========&#@+  @&==============&@@#..X&===============$@#XXX@&===",
"=======**@@  X@===============*@@O .+==============&&$#XXXo%====",
"=======*@@o X$===============*@@+ O@===============&@@@. X======",
"======$@@@oo@&==============$@@@O @#==============&@@@oX+@======",
"====&*@@@. +*&============&*@@#+.O%*============&&$@@@XX+&======",
"====@@@@O o@&=============$@@@+  @==============$@@@@  X$=======",
"===@@@@X. @@=============&@@#O  +@*============*$@@O  X@$=======",
"==&@+XX  @@*======&$&===@@#+O. O@&=======@*===&@@@XXXX$$=======$",
"&$@@  Ooo@&========$===$@@O. ++@%========%===*@@o X+@+$=========",
"$@@X X@$==============&@@o  @@==============&@@+ XX@============",
"$@  +$===============@@@o .@%==============$@@O  $&&============",
"*  O@==============$$@@X  @&=============%@@@O  +*=&============"
};
