/* XPM */
static char *_b5674b58c454e08b1ac5dc2ce12438c94QxfHoQd4fBkXla[] = {
/* columns rows colors chars-per-pixel */
"64 64 28 1 ",
"  c None",
". c #1F3500",
"X c #203700",
"o c #243D00",
"O c #264100",
"+ c #294500",
"@ c #2D4B00",
"# c #304F00",
"$ c #2F5100",
"% c #325400",
"& c #355A01",
"* c #395E01",
"= c #366100",
"- c #3B6202",
"; c #3E6B00",
": c #406606",
"> c #426C02",
", c #457501",
"< c #497601",
"1 c #467901",
"2 c #4B7C03",
"3 c #4D7E08",
"4 c #507E03",
"5 c #4E8105",
"6 c #4F8208",
"7 c #518206",
"8 c #518409",
"9 c #54890A",
/* pixels */
"                                                                ",
"                                                                ",
"                                                                ",
"             @@@@$  &@&@@@&%%@                    @@&@$&        ",
"           @@+@@@$&@@@$$@+@++#+@O++            &%%$@++@@o%%@%   ",
"         ++O@@+++O@@@O@*-*&%#oo+Oo%%@@&@     @+@+@Ooo+$$@&$o+++@",
"       %@o+$%&&=%&*&&$$@#%$$@@oo.O%+*%#@&%@@@%o&&&%++@$&---@+%%+",
"      %@-%&&&&&&&%**&&$$%#@@@@+@@%%&-@@&$.&%@&$@&&&&%&&&--*&&&-*",
"      ##&&##--*&&&=*%&&&**-*%&&%#%&&&@@*&@@&;-%$%&**&&--**&&&-&*",
"      @@&&@@:3,=&&&*%&*=;>:-;;,-*&%#&***&&$&=-&%@@***&-&&%&&**-*",
"     %@@*&##=-<2;--=--=->>3,235243:%*-&&&&-*->-&%&-:--&&%&&-**-:",
"     @O%-*#*==3311;;,;;,,<22222288<<1,=&&*--;,,,>><>;;--*&---:>>",
"     ++&&%*,33,15551,,22<2234577<<52545563<,66<2322211,,<3<<,,<2",
"     @%*-;<266115515<<22<2325574<<224415751188112222222547723377",
"     O%*>2<<2222<2,,32522252<<1<3525,122<,<11122,,2<<<25<,,<4423",
"     o@&&2<22225<,,,32252225<1<25352,;12<<,<,,55,,2<1152,<,<2222",
"     o@@%:482<44472<22551,<11,<125111121221112252252878852251<,,",
"     @o+#*482<744412<255,1221,11215511<2231121522227558922251<,,",
"     @O%%&>,5522<<211<552<74221111552<7733,,55,<2222252222<<4211",
"    %%@%&&->5522<2121175<<47231,1255<27542,,25,,42225255222<221,",
"    &#@%**-,,,22<222221<<,7715,,6552121235<<43,;>>25221222223222",
"   &&%-&**-<,,22<1522<<2,17721,,55552<<152<<22;,>,52252<2222222<",
"    %%**&*:<2<<21225,;22<25522521512<<<2<252522<<,55112<1122523<",
"     %@*&*-<2232<<22,;21215523225122<<<<2222221<,,5211<211<22223",
"     %o@%&*>55355778211<86<2,<881,22<<221<87,,55<<87<<,158222272",
"    *+o+#&&>35535788<11,562<1185,,22<<<1<<58,,57<<78<<,,55222242",
"     #+##**><2<2552155<1<211<<<21254,,52<277875252562<2274222275",
"     %%&#**;<222552255,,2211<<32225311252<8577552575122274222255",
"    %&**#%*><42<5255,,222255<2<<772224<28822,<8823<2,>22,,35<225",
"  %&&>*&#%*><3<<2555,,2225222222472<72218522<,8822<<>,22,,552<52",
"   &>:-&@#-,3<42<11,11,,<<,,222244,,>,212512<<<,27422<25112542,<",
"   %%---&*><<22412111,,,<<,,2<2244,,,,125521121<7722<222153424,,",
"   @@&&&*-<75222222423<,1115151522222222595111751<3321555612<225",
"   @$*%%*-272522<22272,<1;55115542252255951122751152225566122252",
"   %=&-=&-<22252223327<251;51151255555,,;51511252122551152115577",
"  %%*&=-&-<22223<272242<155;5115527758;,5;5211521225551112127774",
"   %:***->223276<22755<<55;55;55522255551268555511211122117222<2",
"   %:*%*;,235555<<525511581;15552722555521665555112211221125212<",
"   %&@%;>1112<<23724775551555;11224222551,1,112232335558,,2<2<21",
"   @&#&-><312<22442257751155551122242<25,,,;315225345555,,221115",
"   %%@&*>337<<,1,,252322111;;555,;5577226555,,22227712<<,<25<<52",
"  %$%@**><3222,,,,22432211;51;;5;15578225657,,2512771<2<2133<225",
"  %++@**>>2<12<1<<<<<22<5585551555552123223352322572777725,<,,55",
"   +@%**->1<11<1<23<22<25579555125222242223222222272777852,,,178",
"   +&&&&:,32552222125527;15;<<23772<57,,2425,,25125522227755<<52",
"   @;&&=->23152<<21<55721155<13277<<72,17222,1521<55222377222222",
"   %%*--:,28,,65<1572<<<22522<,15211212<2155252215<25522,,532<52",
"    %*--::<2,,652<852212222222<,25,1221222225222112<25221,523223",
"    %-****>,34<<115222,13522<25222<2229822,,22,152732125,1,,5525",
"    %@-*#:><3222<12522,13222<1262222228823,,55,,52322152,,,12525",
"   %%O%&#&><5522<12177<17742252<555542<224115215<2,,12;,11213121",
"   &@@&&%%>3533211225521774425<<255824<<522<27522<,,11,,11221161",
"  % %@%*%%>,221178,<89212<121<88,,5525222422,,222222442222<11111",
"  @@%@%*#%><221<75,<8811<<12<1871,53552222221,222222772212,,1311",
"    %O%&#%,<771122225522532111552<<2<225;;2225524722272522252155",
"     +%%#%><77,,<252522275121<55<<222<75;,2225252225227222551152",
"     @#%%%=,22332252252<872<122<585511,,1,227722<<87<24721521122",
"    %@@%&#*,<242522522<1772252<2755511,;,,2<77221<77<<7711551122",
"   %@+@***$-22,,<<<<<222,,22656855571522785577222<99442255255211",
"   @%@&&-*@=12,,<2<22<11,,23658855885522772555252299222232222511",
"  #@@%&***->22,1229974222223<2125362521222225588,,<<2<<,425725<2",
"  @@@%$&**-><5,,529934<<2222222125225521212<1188,>22<2,,42755221",
"  %#+$%*&*>,2525522235557722<<44526812111596;12252<<<<<,,,57<258",
"  %#&%&&&&-12223252223527722<<445386<21255691;5225<1<<<<,<852288"
};
