/* XPM */
static char *e054315eea03446180b21d1ebd7fdc52yzqwW6NB7b6lCt8E[] = {
/* columns rows colors chars-per-pixel */
"64 64 26 1 ",
"  c None",
". c #213700",
"X c #233B00",
"o c #264100",
"O c #294600",
"+ c #2D4C00",
"@ c #304F00",
"# c #2F5100",
"$ c #325400",
"% c #365B01",
"& c #395E01",
"* c #376001",
"= c #3C6302",
"- c #3E6A01",
"; c #3F6509",
": c #406704",
"> c #426C02",
", c #457501",
"< c #487601",
"1 c #467901",
"2 c #4B7C03",
"3 c #507F04",
"4 c #4E8105",
"5 c #4E8309",
"6 c #518206",
"7 c #528408",
/* pixels */
"                                                                ",
"                                    &@+                $$&$:    ",
"                            @@+++O++$$++%       OXXXX@+@+=$:    ",
"                     %+++O++%++Ooo++@%$oO+%++++++XXX+X@$%&$&=   ",
"   $++Oo$          @+++@XoO+$%;&$$$$%##++O+OOo+OOo%$$$o@O#&=-=  ",
"XXoOO++XoO$%  #+OoX+X@$#+XX$$$@%==&%$#+++#$O.oXo$%;=&%$++%$=$=  ",
"o%$OO+%+OoOO+++##++O##++@O++@@@@%&&&=&#+######O+$&&&&&=$$==@$== ",
"&&&%%%&&&%##%*=&%$%$%$#$&%@+$%&&&&==>=$$#%%%*%&&%$%&&&:$@%&=@@> ",
"#%&&$%##%%%$%*=*%%&&&&&&&&;=%%=*:>>>22<>=&==&&;;=%&&%&%@@$;=+$$ ",
"%%=&$###+$%%%-1-&*=-;=&;==::=-,,<2,,422<22<,;;-->>-==&$$@@&=%#O ",
"%%&=$@%&==&&-121,,,,1111<<11,12266,,1,1<223222123222,=;=%$$+O$O ",
"*%===%=-22>>,11222,,112122422242651,,,112222121232222,:=%%%$$OO ",
"221,2,--,,,222224522222222,,24224422221133,15533<<2244,=*%%%$O  ",
"221122,,<,222222542<<12122,,3232232212<133,,5533<<42221=&%%*#+= ",
"7724<222<2,,22221,22,1241,2226422222224422122222,,222<2=%%%*%%= ",
"7722,222<,,,24221,<21122,,223242242<222422222132,,2<222>&%%%%$% ",
"44442422262<<<11222253232<,111,252,<<<2,24221123<11166,-=&;;$#% ",
"444442<22423<2112311462322,-1,2122,<<<,,42221,34<,1155,-*%;;%#+ ",
"-457,,24,,22226223223532115267445533252111,,222212752452,;&%&&O ",
"1-55,,42,1123227225557321,55664444226412<2,,<22222732222:;&%&++ ",
"<2<,2244666721774242,1221212122222112242,,1111111521121-*%%%%O %",
"22,12244556722744422212<2222222222-14224,,1,111,141411--&%%%%$ $",
"2242212222222212222,2222217722463444,1,,442244114411244,%%&&+$  ",
"222212112222241222<2422214652265222211,,444244114414422,#%&&#$  ",
"6622232111112621222244<,212225222222<,3312212224,,1142,=&==+#   ",
"4222322215112222254224,1222225222222,,3321224222,,22422>;=*##   ",
"242222<<2155451222241124222211222212<2<<22242224<2422<,,*&&%#   ",
"4222211<224545422242112222212221222,12<222422222<<22<22>=%%++$  ",
"22<<22<1111<57,,1242422222662253,,,,6221332<44,,222<121,:=$++#  ",
"22<<22<<111257,121224412<2253222,1-,66,222<224-,22<2221,>;%+o#  ",
"23,,321<22772222222,<<,,112226,,1264221173121124222,<33<:&#++$  ",
"32<,232<2277222223<2<<,,113322,,<<4442213321114222122222>&+OO$  ",
"2222,,2,7221645222212<22,,2114142222<22<<22223222124112,<=%@O+% ",
"2522<,2<221167232222,<<<11111-4123<2<<22,2<223222,2411,,1:;%+$+ ",
"552232232222,,<122<<,,22121144442322,2,21142<<1122661211<-&%#++ ",
"352232332222,,<<2222,,22214-14-4222<2<2,1122<<1124772211<-&%+o+ ",
"122,,,22<<<244222222222244444-5412,12211424224217633<<2<1,&&+XO ",
"12,,,,32<<2<442<4222422244644-4511212221442422223733<<211,&&O.O ",
"2222421152227722,,66-,,2242444--22,1222<77222221227733241,%%$.+ ",
"2132221144227612,,36,,223242451-32,,22<27522,222223725221-%&$.+ ",
"21222221,145422<2211,112,-7411246667322322112222122266112=%&@XO ",
"11222211,,44442<2211,,21-,441-426674333222112222212276111*&&$o+ ",
"3211361222422<222,226622,<,<21241<22111112<1225522264242>&&&#+#%",
"2511352222442212,2224722<,2<1122<22611,11,112225,2442422-=&%#%$&",
"53<<2<771121,,2223,,442626232222112211,-5722,15167422121>&&$#%#&",
"75222277221111222<,<423662322245122211,,77,2,,116624111,==&&%%# ",
"2<1<11361222442264222222,<42213212241<662,2122222222224-&&%$&%# ",
"221112432222625226222222,222112322421263,221232,22<2241-%*%%&#$ ",
",23622<<241164,>4222112<24,,222166322121222<12213322221*&&&%%#% ",
"213622,<442136,,242411<242-,23<16322112122<222,2322222,*%%&&%&  ",
",,662122,,,144,<5644225412422222<2444222222<6612,,<322,&%%%*&   ",
",,642221,,,,44<,552225442222<2221,544214<2226611,,2<22>=#%%# =  ",
"-,1222,,44442244221221111,4411,,222<-444662222,1<24242>&&&%@ &  ",
"-,1212,,2444224422221221,2441<,<22<,4-44662222,,2<4242>=&&%O+   ",
"22,<,,5566117411222411544466532<632214211121,14422,,22,-%%%$$   ",
"22<<,,55754147-122522155446673226623411211212,44,2<<22,>*&%%O   ",
"42222,721,,,12,132532<112<22,2,<22-,221122332242<222221--&%$O@  ",
"2242,267,,,,22<<2577221112222<<,22,,22,,22332222322322,->&%$@&: ",
"22,244<1<,2266661224,233227622662266<,542621222232<222-*:&&$+=  ",
"22226211,<2266261154,<2322572<662266,,4233122,22322232-&$$$$%&  ",
"23262221,2,,662135,,221143212<56622644,,2222111254121,,%++O$  % ",
"2264222222<,671137,-112123211256466644-,222211222422,,-#++O%    ",
"42,,5511241155,,2<33<<3311222<,242112224<<62322,22751,=$%&$&$   ",
"42,,651242,,55,<2223<<331132,2,,46112142<<4425<22237<,=%==%$$   "
};
