/* XPM */
static char *bc8606ce19e544ed99882e5a5fef09e3qgMCLsnVwMFqK8cj[] = {
/* columns rows colors chars-per-pixel */
"64 64 24 1 ",
"  c None",
". c #233C00",
"X c #264200",
"o c #294600",
"O c #2C4B00",
"+ c #304F01",
"@ c #2F5100",
"# c #325400",
"$ c #355A00",
"% c #395E02",
"& c #376001",
"* c #3B6202",
"= c #3F6A01",
"- c #406603",
"; c #426C02",
": c #457501",
"> c #487601",
", c #477901",
"< c #4B7C03",
"1 c #507F05",
"2 c #507F08",
"3 c #4E8105",
"4 c #518206",
"5 c #528408",
/* pixels */
"                                                                ",
"                                                                ",
"           OO@       @O                        $OooO            ",
"         O#ooOOOOO  $o@XXX@#$O      #o#      %OoXXXo#o#%#*      ",
"   oooo.oXO&$oXoO##OoXo$XXXo@#OOoooO$#O@$    OOoX#o..Xoo.O#O#   ",
"ooo..Oo#O.$%$O@oo$*$$$&$$#@$$@@*OX$$oO#Xo##@@Oo#%%$X@@$o.OOoXX..",
"o$$ooo$$%$%%*$****$$&%$$%%%$$#%%$$%%*%$+oO$OO$$%%%%$OO#%$%$OoOo.",
"$%*%#$$$%%%*&$$***$$$$$$%%$$$$%$$$%$%%#OOO++++#$%%%$OO%*$%$#$+OO",
"$%**$#&%**$$+O+$*%*$+#%%**%*%%%%$$$#@$#%$@OOOOO$&*&$$$&&%-$$$+oO",
"%%%*#$%%*-$$$$$#&*%*$$*%*%=*&%%&%%*&****$$&$$$$$*===:,<=%-%%#+O+",
"%*$%$$**%*---=--**=;%*%*&*;:==:;::;;>2>::;*&--=;:,,::<3<:-;;;-*%",
"==*&&==:;:>>2>22::>>;;;;;,,,,,<<,<::332<2:::;:,>25<<>:<3>>1<>;;;",
">>2>,,<<<<3<2,22,,2<::>>,:55,,,,<233<:<<><,,><,>,<2<,,::<<<<>><<",
"2<<2<<<3<<33,2<2;,,<::><::55,<,<2<<3<:<><<>,<<,,<<<2,,,:<<<>>><<",
"<<::<3<<33<244332:<<,<<><124<,::3<<1<<<4<<<>45::::23<<,,3<<<<<::",
"<<:;33<<<3<<443<,,<<<<>><141<,::<3<<<<34,,><45::::3<<3,,<3<<<2=:",
">><<3<,,<<33,,::<:,,::>><<:,<,:<>:::<,,><,33<<<>,<33:,<>4443<<33",
"2<<<<3,,3<<3,,::>>,,::>><<,:<<:<>::::<,,,<34>><<<<55<<><4<33<<3<",
",2,<43<<<<,<3334>>><>244<,,<,,<322<<<<<4<<44:,<<45,,>><<><>2,<43",
",>,,43,<<<<,3342>>>>>>44,,<,<<3<2:<<<,2<4<45:,<<54>>>><1<<2>,,4<",
",:,<5555,<33,,53<<>,2,::4431<<11:>::<<::<4<<33<,<<333355<<<<<<<>",
":,<<5555<<33,,53<<::>2:;44443<41>2::<<::4<<<33<,><333<55<<<<<><<",
"<<<<3344,<3,3,331<4433><:>:;41:<3<<<444<1<:>,:432,><,,<<<<412<><",
"4<<3<333<<,3,,33<34433<<<,=:4<<<<3<<444411>>,<43>2<>,,<3<<<4<<<3",
"<<<<><12<<<33533<<<>=,,:<<,,,,<<3<=,3,3<3335,,<,33<<<<<,45<<<,<<",
"33<4<<<2<<<353331<>>,=::<<,,<:<1<3,,,3<<3355=,,333<,<3<355<<,,<<",
"<<<3>>443<,:,,3=<<<<,,<<34::,<3333<<3<<<3=33333333,3,,=31<12<33<",
"<<3<>>44<<,:3,333<3<<,<<3<:::<34<<<<<3<<3=33333355,,<,3311144<33",
"::<<,<113<<<=333,,55<<<3<3,<,,1<,=,<33,,3=3,33==33333,,3,,,,,:,,",
"=:,<<,11,333,=33,<53<<333<<<,,<<,,,,33<,=,3,33,=33333,3==3==,,<,",
",:44<<::<,==,=53,,,,,,<<:,,<,><<3,,,=,=,,,,3,33333333,,,,,=353<<",
",,44,<::,3,,=333,,,,,,<<::><,,,,3,,3,,=,,=,=3,33335533==,,,=53<,",
"44<33<3<,<<<<3<<,,<<33,3,<,,3<<<33<<,,::><33<>,:<4112<::33<<>><<",
"14<<<<<<<<><31><,,<<53,3<<<<<3<<3,,3,<::<<33><::3<2224::33<<<<<<",
"<<3<,<<<<<,,<::,,:3<<255,,::<3<<,,3,3<33<><<<<><<3<<<<24<<<<<><<",
"<><3,<<<<<,,:>>:>,<3<<55,,:,,<<<,,,,<<33<<<<43<<3<><<<2<3<<<<<<<",
"::<,33,,<3><,,::::34,,,,<<>242<<4444>,,:<<3<2<3<,,1<<<3<<,::>><<",
"::>,33,343<<,,:,::43,,=,<<,,1<<<44<4><,,<<<3<2<3,:1<<1<<<,::>>2<",
"<<<,:,,,,<<<,,<<>>:<<<<<<<::<<<<<255<<4411,,,,><<<:><<:,33::4<<4",
"<<<,::,,,,<<:<1<::,:<<<<42,:<<><<<55<<544<,,,,<,<,>><<,,33::<<3<",
",,<<<<:<44<<,,<3<<<4<<><::<1<<:;44<3,3=333,,<,,,:,<3::<<<,,,34::",
"<<<<<<<<45<<<,3<>141<><>::<1<>::4<<3333==33,,,,,,,3<,:1<3,,,3<::",
"<<55,<<2:::,<,<><1<<><1<<>,,<<<<::3<55<<=33=<3:,,:<<<3><3533,<,,",
"<343<<3<,:::,<><<<1<><<1,<,,<<<1::3<53<<,=333<<,=,<<<<<>3333,,<,",
"<3,<<,,,<<3344,,<3554<>>33,2<:<<53<,333355,,,,3555,,3<::11<<<<,,",
"<<,<,3<,<<3<43,,335522><34,>:<<<55<<<<3355<<,<3555<,<<,:12<<<<,<",
"<<,><>><33<,<,3,<,,:2<,,>><<<<:;<<<1<<343345<4<<=,,,,,4<<<,,2,><",
"<<,<:<>>33,,3,<3,<,,<2,,<>><<<::<34<3<343344<<<<,=,,,,<2<4,,,,,<",
":<<<33<<33<:<<<<=,,:33<4<<<<,,<13<><,,<><:<<><>:3333::1<<<<>452<",
"::<<<3<343,,33<3::,,334<33<3,,41<<<>,:<<><<<<<><33<3::<4<<><553<",
"44<<<<443<<:2,<2<<<<,,<<4<<3,<<<<13<33<<<<:,:>4<,<34<<,,:,<<53><",
"44><<,3334:<<2>2<<<<,,,,<14<<<<<<<3<4<<<<<::>:<4,<34<<,,,,<155<<",
"><<<<<2<<11<,,<<23><><<1<<:,,>4441<<:=3322,<<<<3::,,<<::44,,:=3<",
"3<3<,<<<1<<<,,,,44<<<<442<:,:>441<3<=:332<,<<<<<::<<3<=:34,,::<<",
",2,<<,,,<<<<<<,,<<><<1443<,,<3<,<3,,,<::4<<<55135544<<:,44<><<<3",
"2,>>,,,,3<<<,>>:><<><<44<3,,3<<<3<,,<,::<<<155<35533<>,:<4>><<33",
"3<<<,,>2<>>,<<22::12<<<<,,<<:><<><>><1<<<<<:<,3<<,3<<<<<44<<<<,<",
"<3<<,,2<<<,,<<4<::22<<<<,,<<>:<<<<>>1<,<<<><:<<<<2333<<<5411<<,,",
"<<<>33<<<<2<44<3:<4<<11<,,,,<><321<<<<>>,,22<3,,,<<244<<<1>>,,2<",
"><><13<<><2245<<><24<<<1,,,:<<3<21<<<<><,,<443:,,,<<44<<<<><,,2<",
",,,,::<<:::,4533<3>,3<<<<1<<<244<,<3,,::<<<><><<2<<<,3<3<:4<<<<:",
",,<,::><,:,,5533<><<<<<<1<<4<<34<,33,,,:<<,>>><<,,<<3<3<:<<3<<<:",
"1<<<:<<><<3<:<<<<<<2,,33><<>>>34<<,3<<<<4<44<<4<34::<<,,<<<<><34",
"><<4<<><<<<3,:<<<<22,,34>>,,:<433<<<<<<3<<44<<4433::33==<<<<<<<4"
};
