/* XPM */
static char *_eeff89a96c84ec082aed528ba6aebc7pIEfU5GrdU17OQgX[] = {
/* columns rows colors chars-per-pixel */
"64 64 192 2 ",
"   c None",
".  c #261A00",
"X  c #2B1E00",
"o  c #1E3600",
"O  c #1F3800",
"+  c #2F2000",
"@  c #302100",
"#  c #302A00",
"$  c #223500",
"%  c #223C00",
"&  c #2E3E00",
"*  c #313D00",
"=  c #4F3600",
"-  c #523700",
";  c #553A00",
":  c #5A3E00",
">  c #264300",
",  c #284600",
"<  c #2C4B00",
"1  c #304000",
"2  c #384700",
"3  c #314E01",
"4  c #2E5200",
"5  c #325401",
"6  c #365B01",
"7  c #395E02",
"8  c #376000",
"9  c #3B6202",
"0  c #3D6A00",
"q  c #5D4000",
"w  c #614300",
"e  c #684900",
"r  c #406700",
"t  c #426D01",
"y  c #457501",
"u  c #487601",
"i  c #467901",
"p  c #4B7A02",
"a  c #4B7B02",
"s  c #4A7A03",
"d  c #4B7A03",
"f  c #4B7B03",
"g  c #4A7A02",
"h  c #497901",
"j  c #4C7B00",
"k  c #4C7B01",
"l  c #4C7903",
"z  c #4C7A02",
"x  c #4C7B02",
"c  c #497C01",
"v  c #487D01",
"b  c #4B7C01",
"n  c #4A7D01",
"m  c #4B7D01",
"M  c #487E01",
"N  c #497E01",
"B  c #487C02",
"V  c #497C02",
"C  c #487D02",
"Z  c #497C03",
"A  c #497D03",
"S  c #4A7C02",
"D  c #4B7C02",
"F  c #4A7D02",
"G  c #4B7D02",
"H  c #4A7C03",
"J  c #4B7C03",
"K  c #4B7D03",
"L  c #4B7E03",
"P  c #4B7F03",
"I  c #4A7E02",
"U  c #4C7C01",
"Y  c #4D7C01",
"T  c #4C7D01",
"R  c #4D7E01",
"E  c #4D7F01",
"W  c #4C7C02",
"Q  c #4D7C02",
"!  c #4C7C03",
"~  c #4D7C03",
"^  c #4C7D03",
"/  c #4D7D03",
"(  c #4D7D02",
")  c #4E7C02",
"_  c #4E7C03",
"`  c #4E7D03",
"'  c #4C7E02",
"]  c #4D7E02",
"[  c #4C7E03",
"{  c #4D7E03",
"}  c #4C7F03",
"|  c #4D7F03",
" . c #4C7F02",
".. c #4E7E03",
"X. c #4E7F03",
"o. c #4F7F03",
"O. c #497904",
"+. c #487A04",
"@. c #497B04",
"#. c #4A7A04",
"$. c #4B7A04",
"%. c #4B7B04",
"&. c #4B7A06",
"*. c #4C7A04",
"=. c #4A7C04",
"-. c #4B7C04",
";. c #4A7D04",
":. c #4B7D04",
">. c #4B7C05",
",. c #4B7E04",
"<. c #4B7F04",
"1. c #4B7F06",
"2. c #4C7C04",
"3. c #4C7D04",
"4. c #4D7D04",
"5. c #4C7C05",
"6. c #4C7D05",
"7. c #4E7D04",
"8. c #4F7D04",
"9. c #4C7E04",
"0. c #4D7E04",
"q. c #4C7F04",
"w. c #4D7F04",
"e. c #4C7F05",
"r. c #4D7F05",
"t. c #4D7E05",
"y. c #4E7E04",
"u. c #4F7E04",
"i. c #4E7F04",
"p. c #4F7F04",
"a. c #4E7F05",
"s. c #4D7E06",
"d. c #4D7F06",
"f. c #4C7E07",
"g. c #4E7F06",
"h. c #4F7F06",
"j. c #4B7C03",
"k. c #477109",
"l. c #487209",
"z. c #4E7F08",
"x. c #507C02",
"c. c #507F03",
"v. c #507F04",
"b. c #517F04",
"n. c #4C8103",
"m. c #4D8103",
"M. c #4E8003",
"N. c #4F8103",
"B. c #4C8004",
"V. c #4D8004",
"C. c #4D8104",
"Z. c #4C8005",
"A. c #4D8105",
"S. c #4E8004",
"D. c #4F8004",
"F. c #4E8104",
"G. c #4E8105",
"H. c #4E8005",
"J. c #4D8205",
"K. c #4E8204",
"L. c #4F8204",
"P. c #4E8205",
"I. c #4D8106",
"U. c #4F8106",
"Y. c #4E8207",
"T. c #4F8206",
"R. c #4E8104",
"E. c #4D8108",
"W. c #508103",
"Q. c #508203",
"!. c #508104",
"~. c #508105",
"^. c #518105",
"/. c #508204",
"(. c #518204",
"). c #528305",
"_. c #518106",
"`. c #518206",
"'. c #508306",
"]. c #508307",
"[. c #518307",
"{. c #528307",
"}. c #528407",
"|. c #518206",
" X c #518208",
".X c #518308",
"XX c #518309",
"oX c #518408",
"OX c #528408",
"+X c #558608",
"@X c #538509",
"#X c #558A0A",
/* pixels */
"s +.n.n.K.K.E.K.#.y.u i y t J J u +.s J s s +.i J y.+.+.i i u u ,.#.J [ s s +.u j j u u s J n.[ s s u s y y +.+.n.[ y y +.s n.n.",
"s s n.n.K.n.y.E.J s u u y y J n.+.u J J s J i u y.K.+.s y +.u u +.,.n.J s s u u j j u y v v J J s j +.u y t +.+.W.x.y y +.+.n.n.",
"s s s s u +.u u y.y.J [ j s J [ y.z.K.K.+.+.u y ].].[ [ J n.y y y.y.+.+.+.+.s s ,.,.,.n.+.i ,.,.s j y y y y z.*.W.Q.J +.s s [ [ ",
"#.s u s +.+.+.s ,.,.J [ s s j j z.y.K.n.+.+.y y ).].[ [ J v y y K.y.v +.+.s j s y.,.Z.J i i ,.,.j j y y y y ,.z.W.Q.+.+.s u [ [ ",
"y.y.i 0 n.n..X].y.y.[ y.s +.J J y y +.+.E.E.s s ].b.y i +.+.y +.i y y y [ ,.s u y.E.+.s +.#.y y ,.J n.n.u u l l s s J J u u u u ",
"y.y.0 y v i K.K.K.y.[ y.s +.[ [ y y +.+.E.K.s s ].).u u i i +.+.y y 0 y y.y.u s y.y.s +.s +.y u J J n.n.u u j j u s J J +.+.O.O.",
"s u n.W.+.s s s s [ y.y.*.#.n.y.J v z.y.K.K.b.[ j s u y K..Xs +.n.J s u +.+.s s y.K.y u ,.,.y.E.J v s +.u u n.].[ [ s +.t y u u ",
"+.+.W.W.s s s u [ j *.y.,.*.K.y.+.A y.z.K.Z.x.j u s y u E.oXv +.[ n.s s u +.u s K.K.y u y.,.,.,.v v +.s u s ].n.[ [ +.s y y u u ",
"+.u +.u ].[ u u y.Z.s j s +.s s +.+.y t [ n.u u s s y.j [ n.J +.[ j *.x.J s +.i +.+.J J s u y y b.].].x.t y ].W.u u z z j j z.y.",
"u +.u +.[ [ u u Z.Z.s s +.u [ s +.+.y y [ ].u u +.s ,.[ [ J +.s [ x.j [ s +.y y v +.J J s s y y ).b.).].u u ].].+.u s s j j y.z.",
"u s s J u u [ [ ,.J v +.s +.y y +.u s s [ J [ [ ].].[ [ s u J J j s u u u u J J W.W.J J y.#..X.Xb.y.u j [ [ j s +.+.+.+..X.X,.,.",
"j u s u u y J ,.y.Z.+.+.+.u y y u +.s s [ j j j }.].[ J u +.J J s s +.u u u +.J x.W.s s *.j .X.Xy.y.s s [ [ s s +.i +.+.oX.Xy.,.",
"s O.y.y.y y ,.1.u +.W.[ J [ +.y ).).y.E.+X+XW.x.u +.J K.x.x.K.y.u u v +.u u [ x.s s s s n.]..X.X[ J v v ,.#.J [ ].W.[ [ ,.#.y.y.",
"O.O.y.y.u u 1.1.y u [ [ [ n.i i ].].y.y.+X+XW.n.u y y.y.[ [ y.y.u u +.+.y u [ [ s +.s s ].[ z..XJ J v v J J J n.x.W.[ [ #.y.y.K.",
",.J u +.].W.y y J J J J x.x.v s O.u j s ,.*.+.s }.}.J J +.+.s s u y u +.s s j y.n.K.#.#.j [ j #.W.n.+.s i i u s [ [ +.u +.+.,.,.",
",.J u +.K.n.y y J J J j x.[ J J u u s #.#.y.s v }.}.J J +.+.u s y y i i s +.j j K.Z.#.#.j j u #.x.[ s +.y u +.u [ s s +.u +.#.,.",
"n.n.+.u J ,.+.+.s u u y Z.J y i n.n.s +.s v v v +.+.[ [ W.[ J J #.y.[ [ &.#.,.,..XoXn.Z.y u u u s +.s J s v +.u n.K.].).y.z.y t ",
"n.n.u s J v +.+.s s y y n.n.+.u W.W.+.s v J v v +.+.[ [ n.x.J J ,.*.x.[ &.#.,.y..XE.Z.J u u u u +.u v v v J u +.].K.].].y.y.0 y ",
"y.b.s s s u +.+.v A [ n.J J s u n.W.s #.y.[ s J s s Z.y.y.y.K.W.[ [ J J #.+.K.K.,.#.y y y y u s +.u u y s s J v s J u +.[ [ K.K.",
"y.E.s s u s +.s J J y.J J J +.+.W.[ u u y.[ J J s s ,.,.,.#.[ W.[ [ J J +.+.K.K.#.,.y y y y s s u +.y +.s s J J s J u y [ [ ].E.",
"x.[ s v n.W.n.[ u +.s v v J +.u ].].W.n.].W.u s J J u #.u u ].}.[ n.J J +X+X[ y.s +.s +.J J u u s s u +.v v s s u u u u s i J n.",
"x.[ +.J W.W.y.[ +.+.v J J v u u ].}.x.n.W.W.+.u J s u y s u ].}.[ [ +.v +X+Xy.,.+.+.+.s J s u u u s +.+.i v s +.+.+.u u u i Z.,.",
"u u +.+.,.,.u i s s J J J n.y.,.b.z.J +.K.y.[ n.s +.+.+.u +.J J j [ +.s s J y y [ *.[ K.+.+.E.K.[ [ s s J J y y n.W.W.[ y.K.s s ",
"u u +.+.,.,.y y s s J J J n.y.,.z.z.s s ,.[ n.[ u s +.+.+.u J n.[ J s +.J #.y u j j y.y.+.#.K.K.[ j s s J J y y W.W.[ [ b.[ s s ",
"J y.K.K..Xz.].W.s +.J [ u u +.u y.K.y.y.,.#.J #.+.s K.K.y +.y i s s j x.#.v ,.#.+.u J J +.+.u u +.+.u u y u K.n.s s v J n.K.J +.",
"[ y.K.K.b.].[ W.+.+.j j u u u +.y.y.y.*.#.#.J v s +.E.K.u u i 0 +.+.[ j J J J J +.+.J J i i u s +.+.i +.y u y.n.s s v J n.K.+.+.",
"y.,.y y ].b.s s oXoX,.,.+.+.K.K.s J u u j x.].].J J E..Xn.n.s s J j s +.n.J J J ,.E.s s v +.n.x.n.}.}.T.n.Z.s +.j j s +.j [ +.u ",
"y.,.y +.].].s s oXoXJ Z.+.+.K.K.J s u u x.[ W.W.J J ].].J J s s [ [ +.u [ J J J ,.,.s s +.+.n.n.}.K.T.T.K.n.s s j s s s [ J u u ",
",.[ +.s J [ [ [ j s +.+.s J x.W.[ [ y y A +.[ [ J s E.E.n.[ J s J +.i y [ y.s s +.+.+.+.+.u J [ +.u K.].s +.J [ +.+.s J +.0 Y.Y.",
"[ [ s s [ [ [ [ s s +.+.J J [ n.[ [ y u i +.[ [ s +.K.E.n.[ s s +.+.i y n.[ s s +.+.+.i u +.n.y.+.+.].].+.s n.J +.+.s v y i E.Y.",
"j J s u s s J J s +.J J 0 i v +.j j ,.+.+.+.u +.J ,.y.b.[ #.s s J K.u u oXoXu u i y +.+.y i z.b.&.&.[ K.+.+.y.y.s [ i i i n.0 0 ",
",.J +.+.s s J J v v J J y 0 +.+.j x.+.v +.+.+.+.n.,.].b.[ ,.s s ,.y.u u +X.Xy y +.y +.+.i y z.z.&.&.y.y.+.+.Z.y.j j i i v n.0 n.",
"x.*.b.].K.K.[ J +.+.J J y.y.y y y y [ [ y.j j [ i i i u y.y.}.}.E..XW.W.s s n.n.K.T.+X+Xn.J s s s s s s J s u y s ,.n.W.y y ].].",
"&.*.].b.y.K.[ J +.s n.J ,.J y y y u [ [ y.[ [ J 0 0 u +.,.K.}.}.].].n.K.s s K.n.T.'.+X'.n.J s j s s s s s J y y #.,.W.n.y y ).].",
"b.K.b.).y.y.s +.J +.u +.J [ J v u s x.y.u s .X.Xn.n.,.,.J v J n.+.i y y y u s s y 0 [ x.s s n.n.].b.u u x.W.s s s s [ y.s [ j [ ",
"K.y.].].y.K.s s s v s u [ [ J J u s [ [ u s .XK.n.n.,.n.v J J [ u i y i y u s s y u x.[ s s [ x.].].y u x.[ s s s s j *.[ s [ [ ",
"*.#.y.y.z.*.z.1.+.u }.#X#X#Xs +.s +.W.}.n.n.J J i y v s W.y.[ [ W.n.[ x.+.+.y y j j y.x.K.n.+.u u s [ x.j j s s [ [ *.j n.n.u u ",
"s j ,.,.&.*.y.1.+.+.#X+X#X#X+.s +.s ].].n.n.J v y y s J n.n.[ [ W.].x.[ +.s i y s s [ [ y.n.s s u s [ [ j s s s j y.j [ n.W.u u ",
"+.+.y y l O.y.y.Z.Z.[ J [ [ n.J #.,.[ j +.s y.,.A +.K.K.[ [ }.T.y y +X#Xz.y.n.n.J J y.y.b.b.+.+.s s s s b.K.#.s y.J y y x.b.,.,.",
"+.v 0 y O.#.y.y.Z.y.,.J [ J [ J ,.,.j [ s s J ,.A v ].].n.n.K.}.0 y #X+Xy.y.K.K.J s y.y.[ b.+.+.s s s s b..Xs s J J +.u b.x.J ,.",
"s [ ,.#.[ [ s u s s y y +.+.i i y.y.v J v v +.s y.E.y t O.O.J J v u ,.,.J J y t j x.y.y.+.+.J J [ [ J ,.u u [ n.[ [ W.x.j *.[ [ ",
"j j *.j [ [ u s v n.y y s s y i y.y.J s +.J s +.K.K.y y #.y J s +.u y.Z.v J 0 y [ j y.#.+.+.J s [ [ [ ,.O.u [ y.j j x.[ *.#.[ [ ",
"s #..X].b.].,.y.i 0 K.n.+.i +.i u y s [ y y +.+.i y +.v y.z.*.y.J v J J s s u u A A y y K.Z.0 y s u y y y.y.b.y.s s s +.u u j [ ",
"u y K.z.].E.,.z.0 y ,.n.+.+.i i y y J J y y u +.y u v +.z.,.#.y.J J n.J s s y u A ,.y y Z.Z.i y +.s y y y.y.y.[ s u +.u u u j j ",
"[ *..Xb.].}.s +.s J i i [ [ +.u y y u u v s u +.#.*.+.+.+.A +.E.+.+.u j y.y.y.y.z.z.s s u u s s J J +.s y y +.+.+.+.+.+.s s +.s ",
"[ x.].z.].].+.+.v J i 0 [ J u +.y +.+.u y 6 6 8 t y u +.+.0 0 0 0 y u O.[ [ *.l #.O.y t 0 0 0 r y u y u t k.+.+.u i i v s +.u u ",
"u u j j u u s [ +.v u u s [ y 0 y k.k.9 6 6 9 7 5 6 6 8 6 6 8 8 9 9 r y j u u u 9 8 5 5 6 6 6 6 9 9 7 9 k.l.9 0 0 u v J 0 0 0 0 ",
"r r u t 0 r y u +.0 8 7 7 7 6 6 8 6 9 7 5 6 7 8 5 5 6 6 6 6 8 6 6 7 7 0 t r 9 7 6 6 5 5 6 6 6 7 9 9 7 7 t 9 6 6 9 9 0 0 0 8 6 8 ",
"7 9 9 9 7 9 7 9 9 7 6 6 6 6 7 7 7 6 5 6 3 5 5 7 7 5 , < 6 8 4 6 7 7 7 9 9 7 5 < 6 7 7 7 7 7 7 7 6 6 5 3 5 5 7 7 7 7 7 7 9 9 9 9 ",
"6 6 7 6 7 7 6 6 5 5 5 5 6 7 7 6 7 4 5 3 3 3 < 6 < % , > , 4 4 5 7 9 7 7 6 6 4 < < < < 3 7 5 6 7 5 < < 3 5 7 7 7 3 3 5 3 5 5 7 7 ",
"4 6 6 8 7 7 7 6 5 4 < < 5 6 6 3 o , < 6 3 < < % > > + + 4 4 % < 6 7 7 7 7 5 < < , > o O , < 5 < < < 3 3 7 7 9 9 3 3 1 , 3 3 < , ",
"5 6 9 6 6 6 7 6 7 9 5 , , % % 6 , % 4 > % % > 4 + + + + + 5 > % O , 6 6 6 O > > % O o O , 4 < 5 > % < 3 9 7 9 7 9 6 5 % o , , % ",
"< 5 6 6 > O 4 6 9 6 % $ % , % % 4 > + + @ , , @ + . q e . + . 4 > % > > O O < < > % % > 5 5 5 > X $ > 5 3 5 6 6 7 5 7 $ o % % % ",
"< , > o o % % 4 9 , O % . X 5 , , 5 + + @ 5 , @ ; e e e e + + + X > < , > > 1 . 5 > > 5 @ @ + > X X > $ o % % 5 5 5 % % , > 1 , ",
"X # & % , X X 4 > < > . X . X @ , 5 : : ; X 5 - e e e q e e q + @ 5 X X 5 > X X X , X @ X X @ , 5 + 4 X . > % , , , $ % > 3 @ X ",
"X X X 2 @ @ @ 5 4 + > > ; ; X X , @ e e e X X ; ; - = q = = q - : X X @ @ 5 @ q @ 5 X X q q q 5 @ ; X @ X + > . + + > * > @ X @ ",
"w w X X @ w : 3 + @ + X ; q w ; X X ; : e e X ; ; - = : : : q e e X - q , , : : @ @ : e e q : @ @ : @ : : + 3 X X X , @ , + e e ",
"e q q X : : : @ @ q + + q ; q ; X : : : ; e e ; e w : = = ; ; - e : : - + , : : : @ e e : e ; + : e q q : ; + q : : + + 5 : : e ",
"w w w w : : : @ ; q w q q ; q e e : : q : : : : ; ; ; ; ; ; : q = - : q + + : : : q e e ; ; ; ; e e e : : : X : : : @ : X ; : : ",
"q q : w : : : : ; ; w q q q e e ; : w e w w w w : : : ; ; ; ; w q - ; : q + : q : w w : : e e e e e e e : w w q : : : ; X : : e ",
"e e e e w w : q : : q e ; ; : q w w e e e e e e e e e q : : : w w : : w e e e e e e w e e e e q q q w w e   e e q q : : : q = = ",
"; ; ;   e     : : q w w q e q w e e   e e e e     e e   q w w w w q e       e e e e e e e e e e e         e e e e e e w :   e e ",
";                       e e e                                 w w                                                             : ",
"                                                                                                                                "
};
