/* XPM */
static char *result[] = {
/* columns rows colors chars-per-pixel */
"64 64 68 1 ",
"  c #4F2913",
". c #4E2F1B",
"X c #512C16",
"o c #522E19",
"O c #4F311C",
"+ c #52321C",
"@ c #58351E",
"# c #4E3420",
"$ c #543622",
"% c #593722",
"& c #553924",
"* c #5A3B25",
"= c #533D2C",
"- c #5C3E29",
"; c #5D422D",
": c #5F4632",
"> c #5D4935",
", c #534A3D",
"< c #5F4C38",
"1 c #5F513F",
"2 c #60432E",
"3 c #614632",
"4 c #654A36",
"5 c #664D39",
"6 c #684E3B",
"7 c #68513E",
"8 c #5E5445",
"9 c #5E5548",
"0 c #615545",
"q c #615749",
"w c #645B4C",
"e c #685E4E",
"r c #665E50",
"t c #685E51",
"y c #73654E",
"u c #6B6354",
"i c #6E6857",
"p c #6E6558",
"a c #6F6858",
"s c #736650",
"d c #706658",
"f c #746D5E",
"g c #786F5F",
"h c #76715F",
"j c #78725F",
"k c #756E61",
"l c #767061",
"z c #7B7464",
"x c #7D7867",
"c c #7D7768",
"v c #7E7869",
"b c #827D6D",
"n c #837E70",
"m c #84806F",
"M c #868272",
"N c #898575",
"B c #8D8877",
"V c #8C8778",
"C c #8E897A",
"Z c #918D7D",
"A c #8F8C80",
"S c #918D82",
"D c #959185",
"F c #96938A",
"G c #9A968E",
"H c #9B988F",
"J c #9B9991",
"K c None",
/* pixels */
"KKKKKKKKKKKKKKKKKKKKKKKKKKKKKKKKKKKKKKKKKKKKKKKKKKKKKKKKKKKKKKKK",
"KKKKKKKKKKKKKKKKKKKKKKKKKKKKKKKKKKKKKKKKKKKKKKKKKKKKKKKKKKKKKKKK",
"KKKKKKKKKKKKKKKKKKKKKKKKKKKKKKKKKKKKKKKKKKKKKKKKKKKKKKKKKKKKKKKK",
"KKKKKKKKKKKKKKKKKKKKKKKKKKKKKKKKKKKKKKKKKKKKKKKKKKKKKKKKKKKKKKKK",
"KKKKKKKKKKKKKKKKKKKKKKKKKKKKKKKKKKKKKKKKKKKKKKKKKKKKKKKKKKKKKKKK",
"KKKKKKKKKKKKKKKKKKKKKKKKKKKKKKKKKKKKKKKKKKKKKKKKKKKKKKKKKKKKKKKK",
"KKKKKKKK444KKKKKKKKKKKKKKKKKKKKKKKKKKKKKKKKKK62264643;-KKKKKKKKK",
"KKKKKK34MNM3KKKKKKKKKKKKKKKKKKKKKKKKKKKKKKKK4bbbbbbzccc;KKKKKKKK",
"KKKK42NNNNNn2KKKKKKKKKKKKKKKKKKKKKKKKKKKKKK5nNbbbbbbbzzt;KKKKKKK",
"KKK2MNBNBNNnn2KKKKKKKKKKKKKKKKKKKKKKKKKKKK5NNNnNbdbbzzbzt-KKKKKK",
"KKK2yZNBBNDDg2KKKKKKKKKKKKKKK:8,:::34KKKKK5NNBVVbCSbbkbztt-KKKKK",
"KKK-tuJHHDllg-KKKK333::::::::nvnnbvbv3KKK5BNNNNBnnnAnbzbttw-KKKK",
"KKK*utuuHzllf%KKK:ffknnnnnnnnnnvvvvnvv>K6DCCVVVnZBBnnSCtt99%KKKK",
"KKKK%tuuczz@@KKK2fffknnnnnnnnvvnvnnvvpt>6DCVVVVCBnnBAAttt999$KKK",
"KKKKK@uuzo+KKKK;fgffnnnnnnnnvnbvnvntpuu>DCSBBBCCZZZZkkttt999+KKK",
"KKKKKKooXKKKKK;ffffbnnCBBnnnbvbbn99wpuuu:CZBBBBBnnZbkkktr99qoKKK",
"KKKKKKKKKKKKK;ffffhnnCCCCCMMMmbbbq9qwppd:ZCZZBZNZFdddtktqqwoKKKK",
"KKKKKKKKKKKKK;fffhfbnBBCCCCMMMbnbqq9qpttu:ZZZBZCHyddtptk99oKKKKK",
"KKKKKKKKKKKKK;hhflffDCBBBBCCMMnnbccccztpp:3:33ZDtddtdttutoKKKKKK",
"KKKKKKKKKKKK;hhfhflzkDSDFCCBCCBCVccccczzzczczz3ttddddutXXKKKKKKK",
"KKKKKKKKKKK;bbfhfkkkuuuuuSCCCBCBVCbzzccbczzczbj3tdpttXXKKKKKKKKK",
"KKKKKKKKKK;mbbbbkkkuuuuuiuSCCCVCVVVNbzczccczzxzz322-4KKKKKKKKKKK",
"KKKKKKKKK:xbbbmbvAuuuuuuhzhFFBCCBBBBBbzbccccxzbjbbbbb2KKKKKKKKKK",
"KKKKKKKKK;bbbbbbASVVVVVVzhzhhDCCCCCCBNNNncczMMMMnnbkkz3KKKKKKKKK",
"KKKKKKKK;bbbbbbASBVVVVVVVhzhxhFSZBCCCNNNMNMMMMMBBBNBBzz>KKKKKKKK",
"KKKKKKK;bbbmnbASZVVVVVVVVVVzhhhxCZCZCBNNNNNNNBBBBBBVNBzx:KKKKKKK",
"KKKKKK;jfzliiAZSZVVVVVBBVVVCNNNBCZCZZZZNNNBNBBBZBBBBBBrrr:KKKKKK",
"KKKKKK;gzuiiiASSVVVVVVBBVCBCNNBZZZZZZZZZZNNZZBBBBBBVBBrrr:KKKKKK",
"KKKKKK;guiiiiDAVNVVVVVBBCCAMMNZCZZZZZZZZZZZBCCCBBCBBZrrrr;KKKKKK",
"KKKKKK;zuiiaifSBVVVVBVBCNNVNNAZZZZZZZZZZZZZZCZCCVBBDwerrwe;KKKKK",
"KKKKKK>>>ifaaffSVVVVVVBMNMVNNAACZZZZZZZZZZZZZZCCBBCww99ruww*KKKK",
"KKKKK:NNN:dffaahSVVVVBNNMNNNNFACZZZZZZZZZZZZCZZZBGewe999,,,*KKKK",
"KKKK;MNMNN3dybs655544DSSMVNNBDZZZZHZZZZZZZZZCZZHGee08w8q,,,&KKKK",
"KKK*MVMNNNV4460nMNnN943wDSNBNDDZZZZZZZZZZHHHHFDewewew8w8,,,&KKKK",
"KKK*fFMNNNn6ggbbMMnnnw9:9iFFFDDDZZZZZZHZJffffffeeeww8w0,,,,OKKKK",
"KKK=akFNMN2bkgDnMMNnnwq:uuuiiFFDZZZZHHZHfkffffewe7eewww,,,.KKKKK",
"KKK*hfkDD3zzbnZBNMNMMNqw;uuuuhfFGDDDZZZbhhfkhh&;**&*www,,+KKKKKK",
"KKK&lkiu:cccZZnnMNNNNNww,;uuuhflhMmMBByyeulfh;jxjyur&we,OKKKKKKK",
"KKK&giu;ccbZCnnBNMNNNMM8,,=uufkfhhMMMeeeueej;jxjjxuuu&wOKKKKKKKK",
"KKKK$ui3ssCVCBBnNMNNNNMC,,=>5fffhhfMeeeyeie;jjjxxjhuu,&KKKKKKKKK",
"KKKKK++:yySCnZnBNNNNNNBBA8,=v85fahfMetttu--bzzzxzzzlu,@KKKKKKKKK",
"KKKKKK;yyACCCCCCBNNNNNBBN,,#nvn05hfeetet*nbbmzzjzzzv,,+KKKKKKKKK",
"KKKKKK-yZCCBCCnCBCNNCZCCV8,,,vnnn53rter-mmmmmmmbzzM88,oKKKKKKKKK",
"KKKKK-yZBBCBCCZZCZZZZCnVM,8,,=nnMMN3rr%SmmmmMmmMmZw,,,6077KKKKKK",
"KKKKK;ybZBBBCCCZZZZSCnCFwr,,,=nNVMAu>:ASmmmmmmMnVww566nnnn5KKKKK",
"KKKK;ymbnGBCCCZSZSACCFStrrw,,,VNNNnNkt3kZZSSCCVDw95mnnnnnMM5KKKK",
"KKKK2bbnnnFFFAZSASCFDlktr999,=nVMMNNnp-kjfffSCDw95CVVnMMMnv5KKKK",
"KKK;bbMbbbnnnGSAGFSbllwww9998=NNNNNnnk-kgfffaDwq4lAVNNNMMMvv4KKK",
"KKK;mmbmbmmbmDDFczzzlhwwww889#MNVnnStrr-fhhad0w4zlCVNVVVnAccv4KK",
"KKK*xmbbmbmmDbxbvlllhwww89w99=NNVnFrwwr-ffiid04jlAMVVNVNFvccv>KK",
"KKK*iubmbmbmDbxbvckkhrw9q9889#NNVnDrwrw%ffiidq4glAVVVVNFcccck3KK",
"KKK%uieubbmBbjbjvvvui99wq888#FFNnF09rr%X     X2uuAAAAAGkkcckk3KK",
"KKKK*uuuuuixjxxxccuput09888.rlkSG880q+KKKKKKKKK-uuurFFvkfkfk-KKK",
"KKKK$uruusiuxxxxcpurtrr988OuxlkkF880oKKKKKKKKKKK$uwrrrcdfdf*KKKK",
"KKKKK&uuuuiiixxxvuptprw98Oixcllk588 KKKKKKKKKKKKKoeeerwcdd%KKKKK",
"KKKKK$uueuuuasfapuuttwrOOOhxzlkkk5 KKKKKKKKKKKKKKK  ww9c@+KKKKKK",
"KKKKKK$tueuiaaaipuutr##KKKX czkdk KKKKKKKKKKKKKKKKKKXXXXKKKKKKKK",
"KKKKKKK&&&@+iiiiuut##KKKKKKK     KKKKKKKKKKKKKKKKKKKKKKKKKKKKKKK",
"KKKKKKKKKKKKOo.o+.+KKKKKKKKKKKKKKKKKKKKKKKKKKKKKKKKKKKKKKKKKKKKK",
"KKKKKKKKKKKKKKKKKKKKKKKKKKKKKKKKKKKKKKKKKKKKKKKKKKKKKKKKKKKKKKKK",
"KKKKKKKKKKKKKKKKKKKKKKKKKKKKKKKKKKKKKKKKKKKKKKKKKKKKKKKKKKKKKKKK",
"KKKKKKKKKKKKKKKKKKKKKKKKKKKKKKKKKKKKKKKKKKKKKKKKKKKKKKKKKKKKKKKK",
"KKKKKKKKKKKKKKKKKKKKKKKKKKKKKKKKKKKKKKKKKKKKKKKKKKKKKKKKKKKKKKKK",
"KKKKKKKKKKKKKKKKKKKKKKKKKKKKKKKKKKKKKKKKKKKKKKKKKKKKKKKKKKKKKKKK"
};
