/* XPM */
static char *d2495dddfe7a4207eb9b5f664dd60b20bJYlzwq4FELGyEX0[] = {
/* columns rows colors chars-per-pixel */
"38 29 24 1 ",
"  c None",
". c #593319",
"X c #5A3319",
"o c #5F361B",
"O c #63391D",
"+ c #64391D",
"@ c #673C1E",
"# c #693D1E",
"$ c #6A3D1F",
"% c #704021",
"& c #714221",
"* c #754021",
"= c #764424",
"- c #774424",
"; c #7C4926",
": c #7F4926",
"> c #834D28",
", c #89502A",
"< c #8B512B",
"1 c #8E542C",
"2 c #AC663B",
"3 c #B26B3E",
"4 c #B77142",
"5 c #BC7746",
/* pixels */
" 555555555555555555555555555555555555 ",
"53333333333333333333333333333333333335",
"53333333322222233333333333333333333335",
"53333333333333333333333333333333333345",
"53333333333333333333333333334333333335",
"53333334333333333333333333333333334335",
"53333222222333333333333333333333333335",
"53333333333333334333333333333333333335",
"53333333333333333333333333333322222235",
"53333333333343222222223333333333333335",
"53222233333333333333333333333334333335",
"53333222333333333333333333333333333335",
"53334433333334333333333334333333333335",
"54333333344333333333333333333333333335",
"53333333333333333333333333332222333335",
"53333333333333333333344333333333333335",
"53333333333333333333333333334333333335",
"*555555555555555555555555555555555555:",
" :<<<<<::::::::::::::::::<<<::::<<<<: ",
"  ...                            XXX  ",
"  oOo                            OOO  ",
"  #%#                            %=%  ",
"  =<=                            :<=  ",
"  *,=                            ;<=  ",
"  =,=                            $1=  ",
"  =,=                            +1=  ",
"  $>$                            +<$  ",
"  $:+                            %>$  ",
"  +@+                            @+X  "
};
