/* XPM */
static char *result[] = {
/* columns rows colors chars-per-pixel */
"32 32 131 2 ",
"   c #8B5C53",
".  c #80544F",
"X  c #7C524E",
"o  c #6F4847",
"O  c #754C4A",
"+  c #663D41",
"@  c #43313B",
"#  c #743E41",
"$  c #7E4A48",
"%  c #875851",
"&  c #7F544F",
"*  c #673D41",
"=  c #875750",
"-  c #644345",
";  c #613F43",
":  c #5A363D",
">  c #40303B",
",  c #58353D",
"<  c #5E3B40",
"1  c #634245",
"2  c #5D3A3F",
"3  c #714C4A",
"4  c #6A4244",
"5  c #60383E",
"6  c #4D333C",
"7  c #6F4848",
"8  c #7A4646",
"9  c #4A323C",
"0  c #653C40",
"q  c #724848",
"w  c #835650",
"e  c #8E6358",
"r  c #91695C",
"t  c #916A5D",
"y  c #8C5E54",
"u  c #865851",
"i  c #926A5D",
"p  c #835851",
"a  c #815650",
"s  c #644447",
"d  c #57363E",
"f  c #59353D",
"g  c #6C4143",
"h  c #895A52",
"j  c #835750",
"k  c #684648",
"l  c #673E42",
"z  c #624144",
"x  c #614144",
"c  c #5C393F",
"v  c #55353D",
"b  c #47313C",
"n  c #603E42",
"m  c #5D3A40",
"M  c #764C4A",
"N  c #744948",
"B  c #693B40",
"V  c #45313B",
"C  c #673B3F",
"Z  c #744A48",
"A  c #754A49",
"S  c #8D6157",
"D  c #936E5F",
"F  c #8C5F55",
"G  c #6B4345",
"H  c #764142",
"J  c #86564F",
"K  c #86554F",
"L  c #7F5550",
"P  c #7B534F",
"I  c #6A4A49",
"U  c #6F4B4A",
"Y  c #50373E",
"T  c #68393E",
"R  c #80534E",
"E  c #7E554F",
"W  c #53383F",
"Q  c #7E524D",
"!  c #5B373E",
"~  c #5F3C40",
"^  c #634244",
"/  c #5B383E",
"(  c #5F3D41",
")  c #734847",
"_  c #6E4244",
"`  c #62373E",
"'  c #4F333C",
"]  c #6D4043",
"[  c #724747",
"{  c #84534D",
"}  c #753F41",
"|  c #643A3F",
" . c #734A49",
".. c #85544E",
"X. c #5A3F43",
"o. c #52353D",
"O. c #6E4345",
"+. c #5D4044",
"@. c #6A4143",
"#. c #5F3C41",
"$. c #78514D",
"%. c #79544F",
"&. c #774D4B",
"*. c #6C3F42",
"=. c #65383E",
"-. c #67393E",
";. c #693A3F",
":. c #724646",
">. c #6D4042",
",. c #6F4344",
"<. c #91685B",
"1. c #8D5F56",
"2. c #7B504C",
"3. c #48323C",
"4. c #64383E",
"5. c #6C3A3E",
"6. c #4E343C",
"7. c #3D2F3B",
"8. c #58373D",
"9. c #7B514D",
"0. c #723B3F",
"q. c #53343C",
"w. c #4B323B",
"e. c #49323B",
"r. c #61383D",
"t. c #7F4D4A",
"y. c #63393E",
"u. c #8A5B52",
"i. c #694043",
"p. c #90685B",
"a. c #8E6057",
/* pixels */
"            . X o O + @ # $ %               . & o O * @ # $ =   ",
"- - - - - - - - - ; : > , : < 1 - - - - - - - - - ; : > , : 2 1 ",
"3 3 4 5 6 7 3 3 3 3 3 3 3 3 3 3 3 3 4 5 6 7 3 3 3 3 3 3 3 3 3 3 ",
"      8 9 0 q w       e r t y         8 9 0 q u       e r i y   ",
"p a s d f g h                   p j k d f l h                   ",
"z x c v b : n - - - - - - - - - z z m v b : n - - - - - - - - - ",
"M M M M M M M M M N B V C Z M M M M M M M M M M M N B V C A M M ",
"S D F             O G @ H J     S D F             O G @ H K     ",
"            L P I U Y @ T R                 L E I U W @ T Q     ",
"- - - - - - z x n ; ! > , ~ ^ - - - - - - - z z n ; / > , ( ^ - ",
"M ) _ ` ' ] [ M M M M M M M M M M ) _ ` ' ] [ M M M M M M M M M ",
"    { } 9 |  .w       e r t y       ..} 9 |  .u       e r i y   ",
"L P X.o.f O.h                   L E +.o.f @.h                   ",
"z x < v b : n - - - - - - - - - z z #.v b : n - - - - - - - - - ",
"$.%.&.M M M M M M M *.V =.-.-.-.-.-.;.:.M M M M M M >.V C ,.M M ",
"  <.1.            2.v 3.4.5.6.> 7.7.:             2.8.3.4.9.    ",
"            . X o O + @ 0.0.q.w.e.e.r.t.    . & o O * @ # $ =   ",
"- - - - - - - - - ; : > , : : : : : : < ^ - - - - ; : > , : 2 1 ",
"M M ,.y.' N M M M M M M M M M M M M ,.y.' N M M M M M M M M M M ",
"      8 9 0 q w       e r t y         8 9 0 q u       e r i y   ",
"L P X.o.f O.u.                  L E +.o.f i.u.                  ",
"z x c v b : n - - - - - - - - - z z m v b : n - - - - - - - - - ",
"M M M M M M M M M N B V C Z M M M M M M M M M M M N B V C A M M ",
"S D F             O G @ H J     S D F             O G @ H K     ",
"            L P I U Y @ T R                 L E I U W @ T Q     ",
"- - - - - - z x n ; ! > , ~ ^ - - - - - - - z z n ; / > , ( ^ - ",
"M ) _ ` ' ] [ M M M M M M M M M M ) _ ` ' ] [ M M M M M M M M M ",
"    { } 9 |  .w       e r t y       ..} 9 |  .u       e r i y   ",
"L P X.o.f O.h                   L E +.o.f @.h                   ",
"z x < v b : n - - - - - - - - - z z #.v b : n - - - - - - - - - ",
"$.%.&.M M M M M M M *.V C ,.M M $.%.&.M M M M M M M >.V C ,.M M ",
"  <.1.            2.v 3.4.&       p.a.            2.8.3.4.9.    "
};
