/* XPM */
static char *result[] = {
/* columns rows colors chars-per-pixel */
"64 64 37 1 ",
"  c #8B5C53",
". c #69494A",
"X c #75504D",
"o c #543E43",
"O c #4E363F",
"+ c #4A333C",
"@ c #342D3A",
"# c #723B3F",
"$ c #7B4646",
"% c #814E4A",
"& c #503940",
"* c #84534E",
"= c #855650",
"- c #62383E",
"; c #784343",
": c #3C2F3B",
"> c #40303B",
", c #7B4747",
"< c #764042",
"1 c #8F6559",
"2 c #967262",
"3 c #47313B",
"4 c #57353C",
"5 c #764B4A",
"6 c #6B4346",
"7 c #90685C",
"8 c #926C5E",
"9 c #8F6359",
"0 c #946E5E",
"q c #81504B",
"w c #654749",
"e c #5D3C42",
"r c #7D534E",
"t c #90695C",
"y c #8E6056",
"u c #5A363E",
"i c #8C5E56",
/* pixels */
"             ..Xooo.O++@#$%                  .XXooo.&++@#$%     ",
"             **=%%%*%#-@###$==               *==%%%*%#-@###$=*  ",
"                  =%###@####$$=                   =%###@####$;= ",
"++++++++++++++++++++++:@>+++++++++++++++++++++++++++++:@>+++++++",
"+++++++:@>+++++++++++++++++++++++++++++:@>++++++++++++++++++++++",
"    *,<#@#%                         *,<#@#%                     ",
"       #@##%*         122221           #@##%*         122221    ",
"      *#@344546          7879         *#@344545          7079   ",
"    qO4#@#+w                        qe4#@#+o                    ",
" XXrwwe>@#;;*                    Xrrwwe>@#;<*                   ",
" **=;;##@###$=                   *==;$##@###$=                  ",
"+++++++:@>+++++++++++++++++++++++++++++:@>++++++++++++++++++++++",
"4444444444444444444444>@344444444444444444444444444444>@34444444",
"                   *,##@#;q                        *,##@#;*     ",
" 11ty             XooO+@#,*      11ty             XooO+@#,q     ",
" 1221             =%%$-@#;,      1221             =%%$-@#;,     ",
"                   qO4#@#+w                        qe4#@#+o     ",
"             ..Xooo.o++@##%=                 .XXooo.o++@##%=    ",
"             **=%%%*;##@##;%*                *==%%%*$##@##$%*   ",
"++++++++++++++++++++++:@>+++++++++++++++++++++++++++++:@>+++++++",
"4444444>@344444444444444444444444444444>@34444444444444444444444",
"   qq,##@#,,**                     qq,##@#,,**                  ",
"     ,<#@##,          122221         ,<#@##,          122221    ",
"     q,#@344546          7879        *,#@344545          7079   ",
"    qO4#@#+w                        qe4#@#+o                    ",
" ..XooO:@##%*                    .XXooO:@##%*                   ",
" **=%;##@###;=                   *==%$##@###;=                  ",
"+++++++:@>+++++++++++++++++++++++++++++:@>++++++++++++++++++++++",
"4444444444444444444444>@344444444444444444444444444444>@34444444",
" 777y               q<#@#############<;             *<#@#;,q    ",
"  08yy            54444@####+++++++++u            54444@##,     ",
"  11ii              O4#@#+4#u+>@@@@@>#              e4#@#+o     ",
"             ..Xooo.O++@####->>@@@@@4##      .XXooo.&++@#$%     ",
"             **=%%%*%#-@####444444444-#=     *==%%%*%#-@###$=*  ",
"                  =%###@##############$$*         =%###@####$;= ",
"++++++++++++++++++++++:@>+++++++++++++++++++++++++++++:@>+++++++",
"4444444>@344444444444444444444444444444>@34444444444444444444444",
"    *,<#@#%                         *,<#@#%                     ",
"       #@##%*         122221           #@##%*         122221    ",
"      *#@344546          7879         *#@344545          7079   ",
"    qO4#@#+w                        qe4#@#+o                    ",
" ..XooO:@#$$=                    .XXooO:@#$;=                   ",
" **=;;##@###$=                   *==;$##@###$=                  ",
"+++++++:@>+++++++++++++++++++++++++++++:@>++++++++++++++++++++++",
"4444444444444444444444>@344444444444444444444444444444>@34444444",
"                   *,##@#;q                        *,##@#;*     ",
" 11ty             XooO+@#,*      11ty             XooO+@#,q     ",
" 1221             =%%$-@#;,      1221             =%%$-@#;,     ",
"                   qO4#@#+w                        qe4#@#+o     ",
"             ..Xooo.o++@##%=                 .XXooo.o++@##%=    ",
"             **=%%%*;##@##;%*                *==%%%*$##@##$%*   ",
"++++++++++++++++++++++:@>+++++++++++++++++++++++++++++:@>+++++++",
"4444444>@344444444444444444444444444444>@34444444444444444444444",
"   qq,##@#,,**                     qq,##@#,,**                  ",
"     ,<#@##,          122221         ,<#@##,          122221    ",
"     q,#@344546          7879        *,#@344545          7079   ",
"    qO4#@#+w                        qe4#@#+o                    ",
" ..XooO:@##%*                    .XXooO:@##%*                   ",
" **=%;##@###;=                   *==%$##@###;=                  ",
"+++++++:@>+++++++++++++++++++++++++++++:@>++++++++++++++++++++++",
"4444444444444444444444>@344444444444444444444444444444>@34444444",
" 777y               q<#@#;,q     777y               *<#@#;,q    ",
"  08yy            54444@##,       88y9            54444@##,     ",
"  11ii              O4#@#+w       11iy              e4#@#+o     "
};
