/* XPM */
static char *rcp08333033421163[] = {
/* columns rows colors chars-per-pixel */
"32 32 49 1 ",
"  c #4E311E",
". c #50321F",
"X c #553621",
"o c #583722",
"O c #5B3A24",
"+ c #603D26",
"@ c #633F29",
"# c #66412A",
"$ c #6B442B",
"% c #71472E",
"& c #72492E",
"* c #754C31",
"= c #7A4E31",
"- c #7C5034",
"; c #815336",
": c #865739",
"> c #8E5D3C",
", c #925D3D",
"< c #98613F",
"1 c #9B6341",
"2 c #9D6846",
"3 c #A16644",
"4 c #A56946",
"5 c #A76D49",
"6 c #A86C48",
"7 c #AD744D",
"8 c #B0774E",
"9 c #B0784F",
"0 c #B27A51",
"q c #B88156",
"w c #959292",
"e c #999595",
"r c #9C9999",
"t c #A09D9D",
"y c #A5A3A3",
"u c #A9A5A5",
"i c #ACABAB",
"p c #B0A5A3",
"a c #B1A8A6",
"s c #B1AFAF",
"d c #B5B3B3",
"f c #B9B6B6",
"g c #BDBBBB",
"h c #C1BEBE",
"j c #C4C2C2",
"k c #C9C6C6",
"l c #CDCACA",
"z c #D1CECE",
"x c #D2D0D0",
/* pixels */
"70577727995790qqqq07972700570927",
"lllgllllllzjllzzllllgllllgggjlll",
"xxxxjxxxxxjxxxxxxxxxxjjjjxxxxxxx",
"xxxxxjxjxjxxxxxxxxxxhxxxxxxxxxxx",
"xxxxjxjxjxxxxxxxxxxhxxxxxxxxxxxx",
"xxxjxzzzzjzzzzzzzzgxzzzzzzzzzzzz",
"zzjzzzzzzjzzzzgzzgxzzzzzzzzzzzzz",
"ljlllllllljjzglgglzllllllllllllj",
"hllllllllllljllllgzlllllllllllhl",
"llllllllllllhllllldlllllllllhhll",
"lllkkkkkkllglllllljgllllkkkgklll",
"kkkjjjjjjkkgkjjjjjlkgkkjgjgjjkkk",
"jjjjjjjjjjfjjjjjjjjjjfjfjfjjjjjj",
"hhhhhhhhhffhhjhhhhjhhhfhhhhhhhhh",
"gggggggggdgddggggggggfdggggggggg",
"ggggffsddgggdsggggggdgdggfffgggg",
"fffffifffffffdiffffdfffiffffffff",
"ddddddiddddddsdiddddddididiidddd",
"iiisiyiissssiissussisissiyiiusss",
"iiiiyiiiiiiiiiiiiyyiyiiiiiiiiyii",
"yyuyyyyuiiiiiiiiiiiyiiiiuyyyiyyy",
"yytyyyyyyuuuuuuuuuuyuuuyyyyyyuuu",
"rttreewweeeeeeewrwwertrewewweett",
"144<3441344135787751476147714771",
"3u4,3u613u413u654u414s614a714a7,",
"44414661464146633361466146614661",
"$#X $$$$X ##+O@  +o##$XX$$$$oX$$",
"$*oX*$%*OX*$$$:oX;$*%*OX*%%*OX&&",
"&=Oo=$*-Oo-$*$:Xo;$-*-OO-*&&OO&=",
"$-+O-*$-+o-&*$;o+:$-**Oo-*&-Oo**",
"$*oX*%$*oX*$%$:O@>#*$$o.*$$*oX*$",
"@@X ###$X.$$$#-O$*#$$%X &$$$X.$$"
};
