/* XPM */
static char *result[] = {
/* columns rows colors chars-per-pixel */
"64 64 84 1 ",
"  c #4F321F",
". c #51331F",
"X c #553621",
"o c #583723",
"O c #573823",
"+ c #5C3A24",
"@ c #613E27",
"# c #633F28",
"$ c #624027",
"% c #654129",
"& c #6C452C",
"* c #6F482E",
"= c #70472E",
"- c #72492F",
"; c #754B30",
": c #794E32",
"> c #7E5135",
", c #815436",
"< c #8D5A3B",
"1 c #935D3E",
"2 c #96603F",
"3 c #98613F",
"4 c #955F40",
"5 c #976040",
"6 c #9C6442",
"7 c #9A6F56",
"8 c #9C7056",
"9 c #9E7358",
"0 c #A16644",
"q c #A46946",
"w c #A56D4B",
"e c #A96E4A",
"r c #A7704E",
"t c #AC744D",
"y c #AF784F",
"u c #B0784F",
"i c #A57357",
"p c #AC7551",
"a c #A3755A",
"s c #A97659",
"d c #A67A5D",
"f c #AB7B5C",
"g c #B27B51",
"h c #AA7E60",
"j c #B88156",
"k c #97867E",
"l c #97887F",
"z c #99887F",
"x c #AF8367",
"c c #AD8469",
"v c #B1876A",
"b c #B58B6D",
"n c #B88D6E",
"m c #AB8B7B",
"M c #B98F70",
"N c #AF907E",
"B c #BD9373",
"V c #9C8B82",
"C c #9A9696",
"Z c #9D9A9A",
"A c #A08F85",
"S c #A19087",
"D c #A39288",
"F c #B19281",
"G c #A19E9E",
"H c #B9A99F",
"J c #A5A3A3",
"K c #A9A6A6",
"L c #ACABAB",
"P c #BCADA3",
"I c #B0AFAF",
"U c #B5B2B2",
"Y c #B9B6B6",
"T c #BDBABA",
"R c #C0B0A7",
"E c #C4B5AB",
"W c #C9B9AE",
"Q c #CABBB1",
"! c #C1BEBE",
"~ c #C5C3C3",
"^ c #C9C6C6",
"/ c #CCCACA",
"( c #D1CECE",
") c #D2D0D0",
/* pixels */
"yugupwtyyyutq6pyyyyyeettyyjjjjjjjjjjyyytyyytwwpyyyyyretyyyytqqty",
"bMMnbvcbvbnvccbnnnnbvvbnnnMnBBBBBBBBMnnbvnnvccbMnnnvccvbbbnbvcvb",
"EWEEEPPPREEEEEEEYEWYWEPPEWWWQQQQQQQWWEEPPPPEPPEPWPPPHHPPPPWYWPEW",
"//(///~^^//(/(/(((((///^//(())))))))(((/~~///////^~~!~~~^^(((((/",
"(()()(//^^(())))())//^((())))))))))))))(//^~~~^~~^/(//(/(())))))",
")))))))(///(()(())((^/()))))))))))))))))//^~~~^^^/()))))))))))))",
")))))))((/^/((//((/^/(())))))))))))))))(^^//(///((()))))))))))))",
")))))))((/^///^^//^/()()))))))))))))))(^~^)))))(((()))))))))))))",
"))))))((/^//^^/(^//((())))))))))))))))^^^))))))))))))())))))))()",
")()))((/^/((/^/(^^/((())))))))()))))//~^/)))))))())))))))())))))",
"))))((/^/(((/((((/^^((((((((((((()))~~^//)(((()(()(((((((((()(((",
"(((((/^/(((()((((/^^(((((((((/(())(/^~(()(())((((()(()((())((()(",
"(((//^//((((((/((/^~/((()((/^^/((/^~//(((((((((((((((((((/((((((",
"((//^^/((/(((((((/^^////((/^~~^//^~^()()((((/(((((/(/((/((((/(//",
"//^^^/////(//((/(//^~~^^//~~^^^!!~^/()((//))((()(//(/((//((((/^~",
"/^^^//((/(//(/(///(/^~!^//~~//~!!~^//)///(////////(/(//(//////~~",
"~^^//////////////////^/^~~^///^^^^!^/)////////////(/////////~~^^",
"!~^////////////////////^~~^///////~!~^//////////////////^/^^~^//",
"^^^///////^///^//^/////^^~^///////^~!T^///^////^///^/^/^~~!~^^//",
"////^/^/^/^/^/^/^//^^^^^~~^///^//^/~TY~^/^//^////^^/^^^^~~~~^/^/",
"^/^/^^/^^^^^^^^^^^^^^^~!^~^/^//^^/^^!!!~^^/^//^^^^^^^^~!~^^^/^/^",
"^^^^^/^^^^^^^^^^^/^^^^!!^/^^^^^^^^^^~!!~~~^^^^^^^~^^~~!!~^^^^^^^",
"^^^^^^^^^~~^^~^^^^^^^~!!~~^^^^~^^^^^^^^~!!^^^^^^!!~~!!~~^^^^^^^^",
"^~~~^~~~~^~~^~~~^~^~~!!!~^^~~^~^~^~~^^^~!!!~~~~!!!!~T!~~~~~^~^~^",
"~~~~^~~~!~~~~~~~~~~~TT~~~~~~^!^^~~~~~^^~!!!!!~TT!!TT!!~~~~~~~~~~",
"~!~~!~!~~T!!!~!~!~!!TT!~~~~~~~!!~!~~~~~~~!!Y!!TT!!TT!!!!!~!~~~!~",
"!~!~~!~!!!!!!!!!!!TYYYT~~~!~~!!!!~!!~~!!!!!TYT!!!!!T!!!!!!!~!!!~",
"T!TT!!T!!T!T!T!!!!YYYYT!TT!T!!!!!!!!!!!!!!!TYYT!T!!T!TT!!!!!!!!!",
"TT!!!T!TT!TTTTT!TTYYYTYYUYTT!!!!!!!!!!!T!TYYUYT!!TTT!TTTT!!!!!!!",
"TTTTTTTTTTTTYTYYTYYYTTYUUYYTTTTTTTTTTT!TTYYYUUTTTTTTTTTTTTTTTTTT",
"TTTTTTYTYYYYUUUUUUYYTTTYUUIUYTTTYTTTTTTTYYTYUYTYTTYTYYYTTTTTTTTT",
"YYYYTTYTYYYUUUUUUUYTYYYYUUIUUYTYTYTYYTYYYYYYUUUYYYYYYYYYYYYTYTYY",
"YYYYYYYYYUYIIYYUYUYEYYYYYUUIIIYYYYYYYYYYUYYYUUUUYYYUYYUYYYYYYYTY",
"UUUYYYYUYUIIIUIYYYYYYYYYUUUUIIUUUYYYYUUUYYYYYUIIUUUUUIUUUUYYYYYY",
"UUUUUUUUIIIIILUUUUUUUYYUUUUUIUIIUUUUUUUUYUYUIIIUIIUIILLLUYUUYUUU",
"UUUUUUUUIIIILLIUUUUUUUUYUIIIUIILIIIIIUUUUUIIIIUIIILILLLLIIUUUUUU",
"IIIIIIIIILLLLLLIIIUIIIIIIIILIUIILLIIIIIIIILIIIIIILLKLLLLLLIUIIIU",
"IILLLIIILLKKLLILIIIIIIIIILLPIIILLLLLLIIILLLLIIIILLLKLLLLKLLLIIII",
"LILILLLLKKKKLLLLLLLIIIILILLLILILLLKKKLLLLLLLLILLLLLKLLLLLLKLLILI",
"KKKLLLLKJKKKKKLLLLLLLLLLLLLLLLLLLLKKKKLLKKLLLLLLLLKLKKKLLKKKKLKL",
"JJJJKKKJJKKKKKKKLLLLLLLLLLLLLLLLLLKKLKKKKKLLLLKLKKKKKKKKLKJJKJKJ",
"JJJJKJJJJJJJJJKKKKKKKLKKLKKKKKKKLKKLKKJJKKLKKKKKKKJKKJJKKKJJJJJJ",
"JJJJGJJKJJJJJJJKKKKKKKKKKKKKKKKKKKKKKJJJJKKKKKKKKJJJJJJKJKKJJKKJ",
"GJGGGGGGGGGGGGGGGJJGJJJJGJJGJGJJGJGGJGGGJJJJJJJJGGGGZZZZGJJJJJJJ",
"ZGGGGGZZCCCCCCCCCCZCCZCZZZZCDCCCZZCCCCZCZZGGGGGZCCCZCCCCZZZGGJGG",
"VVSSCVVVVVAzkkkVVVVVVVVVVVVVAAAAAAlklllllAAASAzzzzzzzzkkzzzzDDSS",
"9aaaa9779a9h977799ahaa7789ashhfhcx889989x9x9c99989xsda9a9dc99x99",
"07asw7554waaw0040wasrw44qwifpetttjjxtq333rjxwq33qrdjyt333r9jtt03",
"68mmi0440imms0660immi0630immfeeeesFmsq660sFFgq066sNNfe000iFNfe61",
"0pcma6440smmsq060smms0600immfweqqimmsq660sFFgq06qsmNse060immfq61",
"0wiiw6650wsswq06qwsswe03qwistq000wiirq460pfftq060rssee060wssee03",
"444444<4146461111111441<141154<<<<<<4444445541<<2252441111444111",
"::;-&##%=:::::;=&%%%--;-;=-=;=####*=*=*;;;;;=&%&-::::::;&&%&::::",
"&&&#ooXo#%&%&%&%oXXX#&&%####&#XXXX###+%&%&&#@..@%*&*&=&&@oXo#===",
"===&+oX+&=&%*=-*@ooo&=&%###=:=@oo+==&%======$+.+*-======@oX+&===",
"==;&#oo+=;&&*=;=@oo@=-=&===-,:#oo#::*&;;;;;=$++@*;-===:=$+o@&---",
"----@++@=;==-::-%+.$-:=&=*&=>:#Oo#::-=::;;:;$++$-:;----*$+++*-;;",
"--:-%@+@;:---->-&.@%-:--;;*;>:#O+%::--:>:::;$@+%-:::---*%++@*-;:",
"--:-%@+@;::---;-%@+@-:--;;=*>:#o+%:>**;:;;:-%@+$-::---:-%++$*-;;",
"&*:-@+o@=:--*-;-@@o@-:--;-&;>:%+@&,,**;:;;;=$+.$-::---;-%++@*:;-",
"&&--@oo@=;-=&&--@o.@*;===*&=>:%++&,,*&--===&$+..*--*==;=$+.$&--*",
"%&*&@o.+&-=&%&-%@ooo%=&=**&=>>%+$*,>*%*-=&&#$+.$&***&&-&@+.+&**&",
"%%%$o. o@&&%%%&%oo.o#=&&&&&&>;%+%&::&&&&&&&&+...&*&&&&&&+..+$&&&",
"#$%+X  o@#&%%%%@oX.o#%#&%&#&;;%$%&;-&%%&&&=&$...$&&&&&&&@...$&%%"
};
