/* XPM */
static char *rcp08333122596352[] = {
/* columns rows colors chars-per-pixel */
"32 32 14 1 ",
"  c #77553A",
". c #7B593E",
"X c #7C593E",
"o c #7E5B3E",
"O c #8A6445",
"+ c #8B6546",
"@ c #8C6546",
"# c #8E6747",
"$ c #906948",
"% c #936B4A",
"& c #9E7450",
"* c #B48158",
"= c #ACA4A3",
"- c None",
/* pixels */
"oooooooooooooooooooooooooooooooo",
"O*=*O*=*@*=*O*=*O*=*O*=*O*=*O*=*",
"O&&&@&&&%&&&%&&&%&&&@&&&@&&&%&&&",
"O&&&@&&&%&&&%&&&%&&&%&&&%&&&%&&&",
"oooo o.........................o",
"oooooo..oooooooooooooooooooooooo",
"--------------------------------",
"--------------------------------",
"--------------------------------",
"--------------------------------",
"--------------------------------",
"--------------------------------",
"--------------------------------",
"--------------------------------",
"--------------------------------",
"--------------------------------",
"--------------------------------",
"--------------------------------",
"--------------------------------",
"--------------------------------",
"--------------------------------",
"--------------------------------",
"--------------------------------",
"--------------------------------",
"--------------------------------",
"--------------------------------",
"--------------------------------",
"--------------------------------",
"--------------------------------",
"--------------------------------",
"--------------------------------",
"--------------------------------"
};
