/* XPM */
static char *wall_front_up41673055506[] = {
/* columns rows colors chars-per-pixel */
"32 32 14 1 ",
"  c None",
". c #77553A",
"X c #7B593E",
"o c #7C593E",
"O c #7E5B3E",
"+ c #8A6445",
"@ c #8B6546",
"# c #8C6546",
"$ c #8E6747",
"% c #906948",
"& c #936B4A",
"* c #9E7450",
"= c #B48158",
"- c #ACA4A3",
/* pixels */
"OOOOOOOOOOOOOOOOO+OOOOOOOOOOOOOO",
"+=-=+=-=$=-=+=-=$*-=+=-=@=-=@=-=",
"+***$***&***&***&***$***$***&***",
"+***$***$***&***&***&***&***&***",
"oXXX.OXXXXXXXXXXOOXXXXXXXXXXXXXX",
"oXOOXXXXXOXOOXXOooOOXXXOOXXOOXoo",
"                                ",
"                                ",
"                                ",
"                                ",
"                                ",
"                                ",
"                                ",
"                                ",
"                                ",
"                                ",
"                                ",
"                                ",
"                                ",
"                                ",
"                                ",
"                                ",
"                                ",
"                                ",
"                                ",
"                                ",
"                                ",
"                                ",
"                                ",
"                                ",
"                                ",
"                                "
};
