/* XPM */
static char *result[] = {
/* columns rows colors chars-per-pixel */
"64 64 249 2 ",
"   c #013AAD",
".  c #013DB4",
"X  c #023EBB",
"o  c #0A3EB9",
"O  c #084EAE",
"+  c #0347AB",
"@  c #0654AA",
"#  c #0244B5",
"$  c #0944B5",
"%  c #024AB5",
"&  c #0345BA",
"*  c #0A45BC",
"=  c #024ABB",
"-  c #0A4BBD",
";  c #0949B5",
":  c #1141BF",
">  c #0451B6",
",  c #0E5EB7",
"<  c #0552BC",
"1  c #0954BD",
"2  c #0459BD",
"3  c #0B5BBD",
"4  c #0A57B6",
"5  c #1154BB",
"6  c #125DBC",
"7  c #1753B6",
"8  c #245EB7",
"9  c #0D62BD",
"0  c #0A6BBE",
"q  c #1463BB",
"w  c #1C65BD",
"e  c #1B6CBC",
"r  c #1272B4",
"t  c #2175BD",
"y  c #2166B6",
"u  c #0345C2",
"i  c #034AC1",
"p  c #084BC2",
"a  c #0946C4",
"s  c #0553C2",
"d  c #0A55C2",
"f  c #065CC4",
"g  c #0C5BC3",
"h  c #0C5CCA",
"j  c #0558CC",
"k  c #1154C2",
"l  c #115DC4",
"z  c #175BC8",
"x  c #0562C5",
"c  c #0D62C4",
"v  c #0563CA",
"b  c #0B63CA",
"n  c #0B6BCB",
"m  c #076CC7",
"M  c #1364C5",
"N  c #1A64C5",
"B  c #156BC6",
"V  c #1A6DC5",
"C  c #1465CB",
"Z  c #1966CC",
"A  c #166DCB",
"S  c #196DCB",
"D  c #0C74CB",
"F  c #0D7CCE",
"G  c #0579CF",
"H  c #1571C5",
"J  c #1A71C3",
"K  c #1472CC",
"L  c #1A71CD",
"P  c #137CCD",
"I  c #1D7BCD",
"U  c #1E7EC2",
"Y  c #096ED1",
"T  c #1566D1",
"R  c #1A67D1",
"E  c #146CD1",
"W  c #1A6CD1",
"Q  c #0472D3",
"!  c #0C74D4",
"~  c #0D7CD3",
"^  c #0D7CDB",
"/  c #057CD9",
"(  c #1574D2",
")  c #1B72D2",
"_  c #157AD3",
"`  c #137CDB",
"'  c #1979D4",
"]  c #226ACC",
"[  c #2267C6",
"{  c #2173CD",
"}  c #227BCA",
"|  c #2171C4",
" . c #216FD6",
".. c #1C82CC",
"X. c #0D82D6",
"o. c #0786DB",
"O. c #0B84DB",
"+. c #058ADC",
"@. c #0B8BDD",
"#. c #0583D7",
"$. c #1382D5",
"%. c #1382DA",
"&. c #118CDD",
"*. c #1987D3",
"=. c #0492DE",
"-. c #0C90DE",
";. c #0B9ADA",
":. c #1A9DDB",
">. c #1596D8",
",. c #0482CF",
"<. c #2585C8",
"1. c #399BCB",
"2. c #2A8AD3",
"3. c #2A86D7",
"4. c #328AD1",
"5. c #2B92D5",
"6. c #2897D7",
"7. c #3797D5",
"8. c #0EA7DA",
"9. c #12A9DD",
"0. c #27A3DC",
"q. c #3CAADB",
"w. c #3FB0DD",
"e. c #2EB4DF",
"r. c #048DE4",
"t. c #0D8DE1",
"y. c #0D89E7",
"u. c #128CE2",
"i. c #1188E4",
"p. c #0493E3",
"a. c #0A93E3",
"s. c #049CE4",
"d. c #0A9BE6",
"f. c #0496EC",
"g. c #0C96EA",
"h. c #049CEB",
"j. c #0A9CEB",
"k. c #1194E4",
"l. c #129BE7",
"z. c #199BE5",
"x. c #089BF4",
"c. c #119FF2",
"v. c #02A2E5",
"b. c #0BA3E6",
"n. c #03A4EC",
"m. c #0AA2ED",
"M. c #01AAED",
"N. c #0AADE8",
"B. c #15A3EB",
"V. c #11ABEF",
"C. c #18A7E7",
"Z. c #0EB7EC",
"A. c #1BB2E6",
"S. c #14B2EB",
"D. c #1BBAEC",
"F. c #1BB6E9",
"G. c #03A5F2",
"H. c #0AA4F3",
"J. c #03ACF2",
"K. c #09ABF4",
"L. c #01A4FB",
"P. c #03ACFA",
"I. c #0CA7FA",
"U. c #13A6F0",
"Y. c #01B2F5",
"T. c #08B1F5",
"R. c #17B7F1",
"E. c #28A7E2",
"W. c #22BCEA",
"Q. c #27B6E7",
"!. c #36B7E8",
"~. c #2FB0EA",
"^. c #409FD8",
"/. c #47A9DA",
"(. c #48B4DE",
"). c #53B8DE",
"_. c #47A8E1",
"`. c #4BBBE4",
"'. c #47B9E5",
"]. c #51B4E4",
"[. c #52BAE1",
"{. c #5ABBE6",
"}. c #1FC1EE",
"|. c #2BC4E9",
" X c #3BC4EA",
".X c #37C8EB",
"XX c #32CAF3",
"oX c #3AC8F2",
"OX c #31CAF5",
"+X c #51C1DF",
"@X c #4BC4DB",
"#X c #4BC4EC",
"$X c #45CDED",
"%X c #54CDE7",
"&X c #55C4EB",
"*X c #5CC5E9",
"=X c #5BCBEB",
"-X c #58C7E6",
";X c #4DD1EA",
":X c #5CD2EB",
">X c #58D5EA",
",X c #5BCAF4",
"<X c #5CC7F3",
"1X c #4DD6F3",
"2X c #47D9F3",
"3X c #53D3F3",
"4X c #52D9F4",
"5X c #5ADCF5",
"6X c #43CEF5",
"7X c #63CCE7",
"8X c #63CBEC",
"9X c #69CEEE",
"0X c #65D4EE",
"qX c #62DCEC",
"wX c #6ADAEE",
"eX c #6BD6F1",
"rX c #64DBF2",
"tX c #6BDCF4",
"yX c #64D5F5",
"uX c #6CD5F3",
"iX c #5CE0EE",
"pX c #5CE3F6",
"aX c #5DEAF9",
"sX c #59E5FC",
"dX c #70ECED",
"fX c #6EF4ED",
"gX c #65E3F3",
"hX c #6BE5F5",
"jX c #6CECF5",
"kX c #6CE7FA",
"lX c #64ECFB",
"zX c #6DECFB",
"xX c #62E5F7",
"cX c #72ECF6",
"vX c #73EDFC",
"bX c #75E9F7",
"nX c #6BF3F4",
"mX c #6DF3FE",
"MX c #64F6FD",
"NX c #73F4F6",
"BX c #74F3FD",
"VX c #7BF4FE",
"CX c #73FAFE",
"ZX c #7AFCFF",
"AX c #7BF6F7",
"SX c #65E2EC",
"DX c #83F7FF",
"FX c #81FBFF",
"GX c #84EDFF",
/* pixels */
"A S c 9 c < = & = = i = h M h C S A *.'.2X X5.C L B * = * / O.+.X.! Y n K K A A A A A K A A c 9 , < i i s n Q H 1.(./.7.&.t.u.] ",
"B Z s s = = = i = = = & = i = g Z V P l.V.B.i.S V B = = & < - = ! d.n.;._ V K A L L S S A C < > = = = = v a.n.g.B 5 5 M I L K A ",
"e B & u u & $ $ & & o $ $ * X k [ N ^ f.L.h.^ Z V A & = = & # . ! J.Y.M.' [ Z S Z Z Z B B C i u = & * $ h n.Y.H.v X & d S K L A ",
"A A N M Z g f f g f f f f f s c L ( O.C.R.C.%.K V M < < < % = # A p.s.a.` ( _ ) _ ( ' <.<.} = & = < f s n p.j.g.x = & d R M A S ",
"E I ].*X*XE.p.p.=.p.p.p.p.p.p.p.h.f.C.;XpX;X5.Z K A C C Z = = = s f g C -.h.s.s.s.p.0.:X7X{.@ $ - ! p.p.r.v h f s > % = d s f Z ",
"C U rXNXmXOXM.M.K.J.M.M.J.M.M.M.J.L.R.SXVXgX1.M Y A W L ) = = i = & $ d p.Y.J.J.M.n.D.CXNXtX@ = * y.J.P.p.p X $ = % > = u i 1 Z ",
"6 r :XlXlXOXJ.T.M.T.J.J.J.J.K.K.T.P.W.jXVXhX1.0 Z A A R W = % # $ # # d g.Y.J.J.J.M.|.AXAXhX+ . . Q x.h.r.s & = = = = = = u d Z ",
"q./.xXjXjX~.&.&.&.@.-.-.-.@.@.o./ G *.!.6X X:.@.u.%.K A ) g g 3 m G Q ~ @.k.&.@.a.@.:.oX;X X7.7.7.w.OXXXE.d & = = = = = = & d R ",
"CXCXmXjXvX7.S N V V V B B V N 3 #   2 p.G.s.n.I.P.c.H H H K ) ) t.K.I.m.( N N Z Z B F h.s.8.ZXFXFXVXVXVX=Xl # = = = = = = = s Z ",
"vXvXvXBXBX7.L V V A A A L S L M * o v H.T.J.I.I.Y.b.M B B M M C O.h.n.s.) [ S S L B F I.L.S.mXNXmXvXcXvX&Xg & & = = = = = & s R ",
"4X:X=X<X<X5.L A A A S K n M C g = * f O.=.r.t.@.@.+.X._ $.5.2.4.E.Q.}.A.I V L A A V F r.r.;.#X+X-XrXjXmX&Xl & = = = = = = & d Z ",
"n.j.! R ] S L A A A S R 1 = = = = > = & i = = # * f H.b.8.xXBXBXvXvXBX:X4.N A A A A N % % = * * + /.kXvX&Xg & = = = % = i = d C ",
"J.n.( Z A V A A A S A W d & = % = = = = = = = = * v G.L.h.aXnXmXvXvXNX:X3.T A A A L M & = = = u = /.jXbX&X3 # = = = % > i = s A ",
"n.h.~ L L A A A K A A S f = = % % = = = = = = = - f j.n.;.pXjXkXkXkXzX%X3.C A S A S C = = i i i a _.hXbX#Xf & = = = % = i = 1 C ",
"X.@.t.t.a._ A L S S A A M g M d = = = = = = = = = s ! ! D Q.XX.XoXXX.Xe...Z K K A A S M M h = = % 5.|.$XE.s # = = = = < g M M C ",
"Z A l.J.J.X.A A A A A A L L W M = & = = = = = = = = = & % f.n.n.G.G.G.f.` T S A L A A L W R - = % ,.v.h.p.s & = & = # l W S A K ",
"A K d.M.m.%.K S L A A L B J S l = = = = = = = = = = = $ + x.J.n.n.M.J.h.P V A A A A B J S R 1 = = ^ n.M.p.s = = = & # g S J L A ",
"K D &.-.-.@.%.X.` L A A A A A M % = - d g d < = = = = % % ` i.i.p.M.M.;.Y M M A L A L S A B , 4 1 ( %.o.#.Z n m 1 % # g A V A A ",
"S V L K K a.U.H.d._ H L A A { 6 = & s Z  .R d = = i = = = - - * ~ n.M.g.c # > M L B V A S L S Z W g < - b j.M.c.b # # g A A A A ",
"L S A A V a.n.M.s.D A A L A A l = & < Z S W d = = = i = - * * $ ! x.P.f.h # i l A H L S S A A A ) d * a h h.J.j.g $ # 3 L K A A ",
"A K D A A p.m.M.d.) Z A L S L g % # 4 Z L V 1 % % % % # % % + # Q h.n.r.j u i C  .L A A A S S L S 3 % & x f.J.j.x % # l A L A A ",
"A A K A Z @.m.M.s.) A L A A S V M N M A A A M M M C M B M M M M 0.4XsX#XZ X = s < 1 3 L L S S A A N N M ~ j.J.x.f % # 3 L B A A ",
"L B A A Z a.n.J.d.K V A A A S Z Z L S A A A A V A A L K L L ] M _.gXVX8X| & = = = = 1 S S S A A K A ] Z ' j.J.j.f # * d L K K A ",
"L K L Z S t.G.M.d.L L S L L A A A A A A A A A A A A A D A m B x q.gXVX8XA & = = = = 1 ] L L Z L K A B m ~ b.K.U.3   X - 9 x c T ",
"2 2 V A Z a.n.J.p.c 1 3 B L A A S A A L A L A A A B S K Z u.k.@.!.xXVX=XV & = = = = = d 1 g S S A $.a.a.t.` $.o.o.@.#.6.&X&X/.} ",
"% > A S A p.n.J.a.s % = c L K A S A A A A A A A A A A A S m.H.h.oXjXBX=XV & = = = & = = % > S L n @.n.K.g.( B ~ g.J.n.XXBXVX:X} ",
"= = C A A p.n.G.y.s & = M L L ( S A A A A A L A A A C C z M.J.J.XXvXZX>XV X & & X X X & # # ] Z A -.M.J.h.F B ) d.Y.J.OXAXZX:X} ",
"< < C A A :.A.D.z.d * i c B c A ( K A S A A A A A L 2.3.4.a.p.=.Q.-X9X].L j f M | | A S V V L ' _ t.d.j.t.D Z { u.j.p.~.0XrX#X*.",
"M B B A A w.5X5X`.g & = s < > g A A S S Z S A A B } =X9XqXM f f N | [ ] u.p.d.w.7X7X>X7X7X;X;.x.d.%._ _ ( L A A K _ P >.Q.R.R.g.",
"A K L A A `.zXBX<XM & = = # # d A K A A S S K A e <.VXVXFXk # & & # . f f.Y.Z.2XZXNXNXVXAXMX9.J.K.+.K B J A A A A Z M O.G.J.J.G.",
"A A A A L `.kXBX<Xl & = = = = d Z A A V L S A V J ..pXgXlXz > i & & % x t.H.B.oXlXxXgXrXxX1X8.h.j.O.K A A A A A L V B $.v.n.n.n.",
"A A S A L `.kXzX,Xl & i = i = < g d g A S K H A A $.|.|.|.Z q C 1 = & > m n ( 0.|.|.!.6.q.5.D Y n A E A A A A L A A J A Y m G h.",
"L A A A L `.kXBX<Xh & i i = i = = # < C A K J V R ~ v.h.v.( H L g - a & # & p O.M.M.a.n C z # X + l S R A W A A H H I z o . d g.",
"A A L A A `.hXlX&Xl & = = = = = = = < C A L H B S ~ n.J.Y.L L L M > = = = & d o.J.J.h.R ) Z % = & l Z A K E A L B H ) h u & h g.",
"A A A A L E.$X2X!.4 = = = = = = = = < C E S X.X.X.+.M.M.M.K A A M 3 g g = & d o.T.J.d.z M g = < = M S K A A S A M c c 1 & & f ` ",
"A A L S A p.h.n.+.d & = = = = = & = < C E ) d.Y.n.K.J.M.M.) A A S )  .R s # 1 o.J.J.p.+ # % = - = l A S A L A E s = % % = = = # ",
"A L A A A p.m.M.=.< % = = = = = = = < B C ) s.M.M.n.n.n.M.) A A A A W C < # d +.T.J.p.; % = = = = l S ( A A A R d = = % % % = = ",
"A A A A A a.B.K.f.j & = = = = = = = s E ( _ d.N.N.B.b.v.n.) A L H L E C 1 = d @.T.J.p.% % ; = = = g S A A A S Z 1 % 1 = + = i i ",
"B L V L A '.5XsX#X3 = i = % % d C Z ( a.j.B.6XxX5X3X~ ~ ~ S A A A A S A B N A a.J.J.p.% = * = = = = > < f B A S N M Z l = i u = ",
"A S R E ) `.zXmX=Xg & i = = # g ) Z ' v.J.V.1XvXzXrXB A A K S A A A A A A A ) p.J.M.g.% = $ = = = = - = < A A A L A ) c i & = = ",
"A L V B B '.kXBX*X3 + + * = & 1 K Z ' n.n.V.1XvXzXrXS Z A W A A A A L A A Z I p.J.J.a.% = % = = = = = = < B L A A A ) c % % = % ",
"@.>.'.`.[.qXkXzXwX).(._.N * & f L A ' s.M.V.3XvXjX0X1 1 1 A S H A A A A A S L a.J.J.p.; % = * = = = = = s A A A A A E A M g g = ",
"n.9.4XzXkXjXzXkXdXkXjXtXt # & d A A ' n.M.V.4XvXlXwX# = % A A A A A A A A S L p.J.K.a.% % * = = = = = = 1 C A A A S W C V L Z > ",
"M.N.sXmXvXjXnXmXfXnXfXbXt . u d K M _ j.J.R.;XBXnX0X# $ % Z A L S A L S A S L -.J.J.r.$ = * p = = i i i i A L A A A L H V H q 1 ",
"h.:.=XeXwXeXrXwXtXpXSXrX} = p M L ) ` g.h.B.&XkXgX8Xd j f ] C C C K A A Z S ( a.J.J.k.q q M p % = = % & < A A S A A S A E E E d ",
"j 1 w w q w B w L E.D.S.d.g.f.h.v.d.@.n s c >.A.A.A.a.k.g.d s = g W ( S A S K -.J.M.A.9X9X{.- % = = % % > B S A A L B V L A ' i.",
"* & & # & # # # s h.J.n.n.M.J.G.J.Y.p.1 o k r.M.G.n.M.M.J.< & # g S Z L S A K a.J.M.W.NXAXtXO = i = = = < A L A S K L A Z n ^ c.",
"= & = i = = % % f l.G.G.m.m.n.m.K.T.u.5 . d y.N.m.I.N.J.Y.< * = g S S S K A L k.K.n.Q.bXvXeXO O = = = u p A A A A A H V S H P d.",
"= = = i = g C M C ' ~ X.O.X.*.G m m v - # - j 0 0 Q H.G.Y.1 # > < d 1 c %.d.u.! v f <.vXNXhX].[.[.2.M q M K K K A A q 7.{.-X%X;X",
"= u & = = C Z ) A A A A A Z Z 6 # # & = = = $ $ + s P.G.P.d $ = = * $ f d.Y.m.n .   V VXzXzXGXBXVX/. .V S S A A A Z g /.VXBXBXmX",
"& = = = = g A A A L A E W S ) M = = = = = = = = = 4 n.n.G.i & o $ . # f p.Y.m.n % # t DXVXBXVXmXvXq.N N Z S S A V B v q.vXzXbXBX",
"< s 1 s d M A K A A A S M C N d % = = = = = = = = 7 W.W.W.n v b x b b G -.d.@.n # # q *X).{.4X2X1Xw.4.7.2.L A K _ X./ !.vXvXtX-X",
"Z A Z C S A A S S K A A 1 > i - = = = = = = % = i 8 xXaXjXC.g.v.v.j.j.d.$.L K f # $ < 3 6 M B.N.V.$XqXhX@XP B D -.n.f.!.jXVX*Xt ",
"L S S L ) A A A A S L W 2 % = = = = = = = = % = i 8 BXNXVXS.G.J.M.J.J.j._ Z A 1 # = & * & s I.n.M.oXnXVX:XI M K l.T.G.XXNXZX7X6 ",
"A A A A A A A L A B Z C < = > = = = = = = = = = 1 8 pXrXpX:.s.j.s.s.v.k._ J Z g < < - % ; 2 d.s.s.!.pXgX#X3.K ` u.d.p.Q.:XwX).q ",
"A S A S A A A S C 1 s d = = = = = = = = = = = i * 6 D.Q.D.$.#.` _ X.~ ' L V B C C T c = = < h h c 6.Q.D.S.d.d.a.A h v A | | | N ",
"A A A A A H A S C < & = = = & = = = = = = $ = a u g J.G.G.( T ] ] V A A [ V V A V L C = > = * * & / n.n.G.G.J.j.f $ & a u X p Z ",
"A L A A A A L S C < = % % & - = = = = = = = = & = j G.m.J.( A S | Z A A L H V J L S N * = = - ; $ / G.J.G.H.J.n.f # = * & = 2 B ",
"A A A A A A L A B 1 4 1 < < 2 < = = = = = = = * = f G.n.J.C M M A A A L K A A A A J B 4 4 d = = $ E t.r.d.H.J.n.x & = 1 6 4 , n ",
"V A L A A A A A A S L ) S S ) M % = = = = = = * % 3 K.G.P.1 # & f Z V B A A K A A A H L S R = % > = # # f h.J.c.h # & h ] S K A ",
"L A A A A L A A A L A A S A L M = = = = = % % * % 1 K.n.Y.s = i h Z L K K S A A A K A A Z R = # = = = & x h.J.j.b & & l A J A A ",
"A A A L A A A A A A A A K A A c > < = = = = * = < 3 S.A.Z.< = = h C B M C K A L S A A S A A 1 1 < s & = x d.M.m.c > > g V A A A ",
"A L A A A A A V A A S L A A A A A W C s i i = = = w lXmXMX7 * % % = % 1 M L A A S A A A ( S S S S g = & v h.M.m.( A C S V A E W ",
"A A A A A L A L S A A A A A A A A E C s i i % = p w BXcXCX7 * % = = = s A L S A K A A A A A S Z S f = & v h.Y.m.K A ( A A A ( W "
};
