/* XPM */
static char *result[] = {
/* columns rows colors chars-per-pixel */
"64 64 249 2 ",
"   c #013AAD",
".  c #013DB4",
"X  c #023EBB",
"o  c #0A3EB9",
"O  c #084EAE",
"+  c #0347AB",
"@  c #0654AA",
"#  c #0244B5",
"$  c #0944B5",
"%  c #024AB5",
"&  c #0345BA",
"*  c #0A45BC",
"=  c #024ABB",
"-  c #0A4BBD",
";  c #0949B5",
":  c #1141BF",
">  c #0451B6",
",  c #0E5EB7",
"<  c #0552BC",
"1  c #0954BD",
"2  c #0459BD",
"3  c #0B5BBD",
"4  c #0A57B6",
"5  c #1154BB",
"6  c #125DBC",
"7  c #1753B6",
"8  c #245EB7",
"9  c #0D62BD",
"0  c #0A6BBE",
"q  c #1463BB",
"w  c #1C65BD",
"e  c #1B6CBC",
"r  c #1272B4",
"t  c #2175BD",
"y  c #2166B6",
"u  c #0345C2",
"i  c #034AC1",
"p  c #084BC2",
"a  c #0946C4",
"s  c #0553C2",
"d  c #0A55C2",
"f  c #065CC4",
"g  c #0C5BC3",
"h  c #0C5CCA",
"j  c #0558CC",
"k  c #1154C2",
"l  c #115DC4",
"z  c #175BC8",
"x  c #0562C5",
"c  c #0D62C4",
"v  c #0563CA",
"b  c #0B63CA",
"n  c #0B6BCB",
"m  c #076CC7",
"M  c #1364C5",
"N  c #1A64C5",
"B  c #156BC6",
"V  c #1A6DC5",
"C  c #1465CB",
"Z  c #1966CC",
"A  c #166DCB",
"S  c #196DCB",
"D  c #0C74CB",
"F  c #0D7CCE",
"G  c #0579CF",
"H  c #1571C5",
"J  c #1A71C3",
"K  c #1472CC",
"L  c #1A71CD",
"P  c #137CCD",
"I  c #1D7BCD",
"U  c #1E7EC2",
"Y  c #096ED1",
"T  c #1566D1",
"R  c #1A67D1",
"E  c #146CD1",
"W  c #1A6CD1",
"Q  c #0472D3",
"!  c #0C74D4",
"~  c #0D7CD3",
"^  c #0D7CDB",
"/  c #057CD9",
"(  c #1574D2",
")  c #1B72D2",
"_  c #157AD3",
"`  c #137CDB",
"'  c #1979D4",
"]  c #226ACC",
"[  c #2267C6",
"{  c #2173CD",
"}  c #227BCA",
"|  c #2171C4",
" . c #216FD6",
".. c #1C82CC",
"X. c #0D82D6",
"o. c #0786DB",
"O. c #0B84DB",
"+. c #058ADC",
"@. c #0B8BDD",
"#. c #0583D7",
"$. c #1382D5",
"%. c #1382DA",
"&. c #118CDD",
"*. c #1987D3",
"=. c #0492DE",
"-. c #0C90DE",
";. c #0B9ADA",
":. c #1A9DDB",
">. c #1596D8",
",. c #0482CF",
"<. c #2585C8",
"1. c #399BCB",
"2. c #2A8AD3",
"3. c #2A86D7",
"4. c #328AD1",
"5. c #2B92D5",
"6. c #2897D7",
"7. c #3797D5",
"8. c #0EA7DA",
"9. c #12A9DD",
"0. c #27A3DC",
"q. c #3CAADB",
"w. c #3FB0DD",
"e. c #2EB4DF",
"r. c #048DE4",
"t. c #0D8DE1",
"y. c #0D89E7",
"u. c #128CE2",
"i. c #1188E4",
"p. c #0493E3",
"a. c #0A93E3",
"s. c #049CE4",
"d. c #0A9BE6",
"f. c #0496EC",
"g. c #0C96EA",
"h. c #049CEB",
"j. c #0A9CEB",
"k. c #1194E4",
"l. c #129BE7",
"z. c #199BE5",
"x. c #089BF4",
"c. c #119FF2",
"v. c #02A2E5",
"b. c #0BA3E6",
"n. c #03A4EC",
"m. c #0AA2ED",
"M. c #01AAED",
"N. c #0AADE8",
"B. c #15A3EB",
"V. c #11ABEF",
"C. c #18A7E7",
"Z. c #0EB7EC",
"A. c #1BB2E6",
"S. c #14B2EB",
"D. c #1BBAEC",
"F. c #1BB6E9",
"G. c #03A5F2",
"H. c #0AA4F3",
"J. c #03ACF2",
"K. c #09ABF4",
"L. c #01A4FB",
"P. c #03ACFA",
"I. c #0CA7FA",
"U. c #13A6F0",
"Y. c #01B2F5",
"T. c #08B1F5",
"R. c #17B7F1",
"E. c #28A7E2",
"W. c #22BCEA",
"Q. c #27B6E7",
"!. c #36B7E8",
"~. c #2FB0EA",
"^. c #409FD8",
"/. c #47A9DA",
"(. c #48B4DE",
"). c #53B8DE",
"_. c #47A8E1",
"`. c #4BBBE4",
"'. c #47B9E5",
"]. c #51B4E4",
"[. c #52BAE1",
"{. c #5ABBE6",
"}. c #1FC1EE",
"|. c #2BC4E9",
" X c #3BC4EA",
".X c #37C8EB",
"XX c #32CAF3",
"oX c #3AC8F2",
"OX c #31CAF5",
"+X c #51C1DF",
"@X c #4BC4DB",
"#X c #4BC4EC",
"$X c #45CDED",
"%X c #54CDE7",
"&X c #55C4EB",
"*X c #5CC5E9",
"=X c #5BCBEB",
"-X c #58C7E6",
";X c #4DD1EA",
":X c #5CD2EB",
">X c #58D5EA",
",X c #5BCAF4",
"<X c #5CC7F3",
"1X c #4DD6F3",
"2X c #47D9F3",
"3X c #53D3F3",
"4X c #52D9F4",
"5X c #5ADCF5",
"6X c #43CEF5",
"7X c #63CCE7",
"8X c #63CBEC",
"9X c #69CEEE",
"0X c #65D4EE",
"qX c #62DCEC",
"wX c #6ADAEE",
"eX c #6BD6F1",
"rX c #64DBF2",
"tX c #6BDCF4",
"yX c #64D5F5",
"uX c #6CD5F3",
"iX c #5CE0EE",
"pX c #5CE3F6",
"aX c #5DEAF9",
"sX c #59E5FC",
"dX c #70ECED",
"fX c #6EF4ED",
"gX c #65E3F3",
"hX c #6BE5F5",
"jX c #6CECF5",
"kX c #6CE7FA",
"lX c #64ECFB",
"zX c #6DECFB",
"xX c #62E5F7",
"cX c #72ECF6",
"vX c #73EDFC",
"bX c #75E9F7",
"nX c #6BF3F4",
"mX c #6DF3FE",
"MX c #64F6FD",
"NX c #73F4F6",
"BX c #74F3FD",
"VX c #7BF4FE",
"CX c #73FAFE",
"ZX c #7AFCFF",
"AX c #7BF6F7",
"SX c #65E2EC",
"DX c #83F7FF",
"FX c #81FBFF",
"GX c #84EDFF",
/* pixels */
"{ S S W Z Z R Z T R R Z C C S S A S S A S A S T L } I *.j.G.G.v.l.g.^ # = i i = = * > > f u.c.;.3XBXmX-Xt , q N Z B A A A S R E ",
"&.K A A d < d d s d d s s < b S K A A A K A A c (.:X:X#XS.P.v.~ g f s = = & & = % g C M T ' ^ F %XBXbXrX=X*X[.| - < , L A D ( S ",
"y.L A B s u = = = = = & = = c L J A K A A A D 0 &XZXDXrXD.G.v.m X & & = = % i i % c L H W L n B &XVXvXvXVXDXwX| & & > L B H A A ",
"u.L S Z s i i = = = = = i p l S J S S S S L S c {.BXbXqXF.G.n.n o a * = % % = = % M V B E S A S *XVXjXvXNXNX:XJ u * 3 ] S S S S ",
"0.N d d = = = = = = = = = > s g g g 3 g g 3 k - 6.XXXX~.>.O.$.A z h 1 % % ; l C c C A K S H V S 7./.q.!.!.XXQ.C a = - h l l S S ",
"/.5 & & > % % = = = = = % % % % & # # # # % * X #.M.L.s.P A B J S _ c % = = Z L L E E S S V K B q l v Q f.n.p.v & = = & % = A ( ",
"/.5 o = = % = = = = = = & = = & = ; + # # # $   o.K.J.d._ C V A S H c = = ; C L L A A L S S A K S S B #.v.T.j.c $ $ = & ; = C C ",
"^.r v f 2 = * = = = = = = = = = & 1 v c x x f f o.g.j.u.L A L A V H M s s 4 C A S A A A A S V K A S S _ a.l.u.C f x f f c b _ P ",
"H j.H.y.f $ * = % = = = = & = = * m m.j.j.x.x.B.o.D ) L S A S A K H A T T A S S S S A K S A A A K A S K D D ` k.m.n.j.c.j.j.n.b.",
"Q n.Y.h.h & & & & & & & # & # & = m J.J.M.J.J.K.O.A A C A K A L S S L S A A S L K S A A K L L S A A S A A N K d.M.M.J.J.J.Y.J.J.",
"n a.n.a.b s s < g l l g 3 f s s s C j.j.j.j.b.m.` K F K S A A A A S A K A A A C M A C A A C A A K A Z L $.I *.l.G.H.H.h.h.s.h.h.",
"s v h n r.p.r.E.=X&X&X{.&X#XE.p.p.#.h z x ! _ ~ t.j.h.t.P A S S E S S A A A 2 1 1 s 1 s < > i s q L Z 2.@X:X#XS.G.G.d.f x x v v ",
"u = o f p.J.n.OXZXvXmXvXbXcX Xn.G.o.= a # N ] n a.M.J.j.P C S S E L A S S A < = = = = i = % = i 9 J N 4.SXZXgXF.G.J.a.# & = & # ",
"i = $ f r.G.h.OXVXcXjXxXjXhX.Xv.G.%.1 - % M ] m k.m.J.d._ K K S S C S A S S 1 = = = = i = % = = B ) Z 7.SXNXrXW.h.n.t.& = & = = ",
"s = & < ! y.Q '.DXvX0X/././.5.,.^ ! f g 1 C V A $.@.r.&.&.O.O.A l l l l c g 1 = = = = = = % & ; 4._.^.(.oXoX!.6./ O.Y = = = h g ",
", = i = - * . 7.ZXmX*X+ = a % % - 5 W W S K K B D K C _ d.G.j.n $ % = = = = & = = = = u = = u = ].NXvX1XV.G.s.v & $ $ < = < Z S ",
"9 = i & * * . 7.FXNX+X* & i = = = 4 N K S A H A L S ] ' x.J.h.Y & = = = = = = = = = = = = ; % O ).BXmX2XN.n.s.b o * ; % = > Z L ",
"c > = = @ @ + 7.VXmX&X* = i = p = 9 L S L S C S Z S W L 8.N.8.D $ = > = = * = = = = * i a - O O ].GXvX4XB.I.g.v * - = = > 1 S S ",
"K C C } *XwXrX X8.Z.;.% i = h R W C L S L S L L 3 > $ V %XMX1X6.l Z g % % = * % ; * ; & q {.tXtXhXlXVX{.M d 2 < - = 1 W T C S S ",
"K A B <.7XNXAX;Xh.P.r.% = = l W S S L S S S S S 1 % # | 7XAXgX7.Z W M # % = = = = % = & l eXAXvXNXmXVX)., & ; = = = 4 W ) E A A ",
"S S C } :XCXCXoXv.K.r.% = = c A H S S S S L L ] f = X V 8XVXhX6.n W z + ; $ ; ; ; ; % # q 8XAXvXvXBXDX7X5 X ; = % ; 4 L S A A K ",
"A L Z I 0.F.|.:.D X.( N C C S A H S L H S 3 < 1 = & X S %XBXhX!.a.f.j.p.p.p.p.p.p.p.p.a.k.F.W.Q.<.e J q = = = b Z N B K K S A A ",
"A K ] _ s.v.M.@.N B A S S S L A A A A V L < = = = = & | -XAXpX|.M.J.J.J.J.J.J.J.K.J.J.J.J.M.v.v.f   # # - = 2 C L S L H S K S A ",
"E A Z _ s.M.J.k.Z K A A L S S S A A L S ) < = = = = X | 7XZXaX|.M.J.Y.T.T.T.J.J.J.J.J.J.J.J.J.K.v # & # $ # = N S A B A A S A A ",
"S S Z _ s.J.J.a.N S S A A A S K S B M l C = = = = = & M !.2X$X0.#.o.O.o.o.+.a.p.a.a.=.a.@.a.k.k.! n Y n f 4 c C J B A A A K A A ",
"S K S _ s.J.J.&.S A V A S S A A K M > i = - = i i = & v ;.Z.B.' p d f < d 3 L ) L L I ( P K _ K &.j.h.t.K Z S B L J S A A S A A ",
"K Z [ ( h.Y.Y.-.N [ N N T Z C Z N l # & u & & & & & X f p.P.j.n # * & & # % C S S S S S S S C N l.Y.Y.d._ Z B V N J A K S A L S ",
"n P I ` t.p.g.@._ ' I 4.3.3...^ I ! c v j Z V N V V N L u.f.p.x # & i < 1 < A A K C A A S S A K %.s.s.-._ I _ L S L K A S A B C ",
"E s.v.d.A d s ~ j.s.A.yX:X%Xe.f.d.s.d.f.r.#X8X8X8X=X>X].] f x 2 - = g R Z C A S A A K S S S L S c g f D a.b.a.' S A K A K B < 2 ",
"Y v.Y.s.d $ # Y I.n.}.VXNXzXXXG.M.M.M.P.M.sXZXVXBXBXZX9X8 # % $ u = g  .T S A S S A A A K W S S 1 & # v j.Y.b.~ S S A H A C % = ",
"! d.M.g.f & # G P.h.Q.vXvXkXXXG.M.M.v.x.s.3XgXxXhXhXmX-X| # & & - < 3 L A K K A K S S L A E S Z 1 & $ v j.M.s.X.N S S C A Z = = ",
"` F ! Y s - # 0 k.O.E.vXvXkX.XG.M.g.! ! Q E._.q.!.oXXX~.N & i d g l M L B A A A A A A S Z f g g < = $ b v.M.s._ ] ] C g h g = = ",
"o.%   # = = & 3 W M 4.mXjXkXXXv.x.i.; $ + l N x r.v.J.=.x & p C I S S A A K S A A K A L A = & = % * & b b.J.h.` ] S A # & = = # ",
"o.1 & = = = % 3 ) B 5.BXNXhXXXJ.J.i.- * % B ] B u.H.J.p.f # ; 9 H A S S A S A A A A A S T = & & # % & v g.n.s.#.T C C $ & i * * ",
"/ s = = = = = c L B 5.xXaXpXQ.j.g.` = - % M A m @.m.n.k.Z 5 z R ' _ L ( L ) A S S A S Z ] d = 1 < d = D C.S.:.%.' L A = > 2 7 7 ",
"$ & = = R ) W W B A X.;.h.;.D % # = = * # B S S S S z 4.qXZXzX|.v.M.J.M.M.M.F A S 4 # % f g.T.Y.Y.P.G.Q.kXVXaXD.G.J.J.P.P.}.MXCX",
"- = = < M W W E B B #.b.L.n.! * ; % = * # B D D S E C 2.7XVXxXW.G.J.M.M.n.m.F A S d = & d k.M.M.G.L.v.W.aXNXrXQ.G.H.n.G.G.A.lXcX",
"= & = = C ) S D H B X.B.G.j.! = = = = = # A A A Z S C 2.0XNXpX|.v.v.n.M.n.n.! A Z 1 $ # f d.M.n.m.G.v.W.lXBXpXW.G.G.M.G.J.A.lXBX",
"B B C A A n S %.U.d.o.x v f 2 = = = = = % C S A A A S K <.<...$.~ ~ +.G.v.B.3X0XqXrX0X0X8XA.G.I.! 1 1 6 8 8 8 6 g j g f 2 3 N w ",
"S V V V S S S i.P.Y.+.& * & - = = = = = % C S A B A A S B V t C R Z X.J.n.N.sXnXzXzXjXnXhXA.n.m.m + = = = a = = a = > ; % < = p ",
"Z S A S C B 9 @.I.I.@.& = = = = = = = = % N A A A A S A A A H S S V #.Y.v.N.pXvXBXNXvXBXhXF.J.m.m + = = > = = u a = & ; * = * = ",
"2.i.^ *.6.7.1.:.G.I.t.= = = = = = < d d < B A A A S K A A K B K J K X.l.d.d.6X1X3X3X3X1X%X>.r.y.h & * = % % = = = = = = = ; % % ",
" Xb.h.V.;XrXhX Xs.J.p.= = = = & = d R W C B A A A K K S A S S S L L S ( _ _ B.V.V.V.V.V.l.M 5 1 = = i = = = % & & & = = = = = i ",
"1XV.L.R.pXAXFX$XG.J.=.& = = = = = g  .S J L S A A S A S A S A S S E S T S L d.M.M.J.M.J.h.< o o $ = = = = = = = = = = = = = i i ",
"'.l.x.B.;XSXhX!.p.H.O.= = = = = = d Z C S S A S A A S S A S V S A n C n Z E g.h.h.n.h.h.d.c 2 k - = = = = = = = = = = = = = s p ",
"*.P ! O.C.D.W.>.2 v f = = = = = = = 1 1 > C S A A K A S A S B g 1 = < 1 1 s ( _ ' _ _ ( ` t.p.g.v # = = = = = = = = = & = < C C ",
"A B [ ( f.L.G.G   o & > = = = = = & & = # N S K S S S K L K S f # = = % = = C S S S S B ) b.Y.T.m # = = = = = = = = = = = < E ) ",
"S Z [ ( h.J.T./ # * a % = = = = = % = = # M S S E A A A A S Z d & = & = = = C S A A A A K d.J.G.m # = = = = = = = = = % = > A A ",
"C h k b p.M.K.@.3 M g = = % f z l M g l 6 C S S S A L C g f d d = = = = = = d f d g d f M s.J.m.G 3 M d = i < = = = 1 g c c A A ",
"f = o f p.J.M.@.N { C = = = M L S L L S L L S S A A H n > # # = = = = = = * % % & & & & p f.J.m.%.S L C = = = = = = 3 ) L L S B ",
"c i $ f p.J.J.-.B L C % & = g L J A S S V S S K A K K B 1 = = i = = = = = = = = a & # . a p.K.n.O.C S Z < % = = * = < S A A A A ",
"f = $ s p.J.J.-.B S n 1 < f M S V K S A S K A L C M M M = = = = i = = = = = = = % N t t } b.n.H.O.A S N 4 < < p = % < L S S K S ",
"p = $ s p.J.J.-.V B A R W S S S K S A K K S S ) 3 % = i = = i i i & = i = = = i # /.tXbXrXS.v.n.X.A S S A Z Z s = % < L K A S A ",
"- i & g p.J.N.-.M A K W L A A A A S K B V S B L 3 = * * = & & & & & & = = u & & + (.jXfXgXR.J.G.$.B A S A ) Z < = % < S S A S K ",
"= = & f =.M.J.&.B L S K A S S A A L _ P ) L K ) f < 1 d g M l g l 6 3 f 2 s 3 3 , ).kXNXgXE.h.l.` A A K A K B 2 = 2 3 V A B A S ",
"= = & d p.J.M.&.N B S A A S K A B ` g.s.d.d.d.p.a.a.y.z.`.,X,X,X,X&X~.+.=.g.#X=X*X0XdXfXrXL s f C S S A A S S N T C B S L L A A ",
"& = & d p.M.M.&.S V A A A S A S K O.m.M.M.J.J.J.J.G.J.D.pXBXzXvXBXzX2Xv.M.K.sXBXBXzXzXnXyXq # % C L A A S K A A S E S S A K S A ",
"= - & f p.M.T.&.S L L S A K S K L %.m.m.b.m.m.n.G.G.h.F.5XzXzXkXkXkX$Xh.n.B.5XzXkXkXkXmX0XV # = c S A A A A S L A A K A A S S A ",
"1 = & g E.OXOX~.7.^.5.Z S A _ X.%.@.a.-.r.@.a.g.d.p.p.>.w.`.`.`.`.`.E.r.p.k.!.`.`.qXjXNXeXw # = g l c C S A A A K B K A S K K V ",
"c = u C *XmXlXjXbXBX,XR V L a.M.n.-.K S S S S Z S B B A S S A K S L L L A S L W A [.hXzXeXe & = = a & s A S A A S A S S A S A A ",
"9 = u C *XBXmXjXjXBX,XZ S L t.J.M.&.P C n B S A Z S S K A A A A A A L S A V A E B [.kXmXeXw # i i i & < Z S S A A A L A A K S A ",
"c 1 = N ].yX>XgXBXBX&X_ ( ~ &.g.v.&.A S K K A S S C C C A S A A L A A A S K A W B (.4XsX=Xw # = = = = s A S S L S A A A S A A S ",
"S C B B I U r /.BXBX3Xj.n.d.@.S D K V S K K B L 2 > = 2 B L B A A A K S A S B S A >.9.N.:.< & & = i = < Z S A A K V A A A A A K ",
"A K e S E C , q.CXvX4Xn.J.n.O.Z B K S A A A K L , % = < M S S A L A A A A A K S K -.n.J.j.j u = = = = 1 S S A A A A A A L A V S "
};
